<?xml version="1.0" encoding="UTF-8"?>
<svg width="238px" height="512px" viewBox="0 0 238 512" version="1.1" xmlns="http://www.w3.org/2000/svg" xmlns:xlink="http://www.w3.org/1999/xlink">
    <!-- Generator: Sketch 53.2 (72643) - https://sketchapp.com -->
    <title>android</title>
    <desc>Created with Sketch.</desc>
    <defs>
        <linearGradient x1="60.8037512%" y1="0%" x2="39.1962488%" y2="100%" id="linearGradient-1">
            <stop stop-color="#2020B5" offset="0%"></stop>
            <stop stop-color="#2677FF" offset="100%"></stop>
        </linearGradient>
        <linearGradient x1="85.6771586%" y1="0%" x2="14.3228414%" y2="100%" id="linearGradient-2">
            <stop stop-color="#2020B5" offset="0%"></stop>
            <stop stop-color="#2677FF" offset="100%"></stop>
        </linearGradient>
    </defs>
    <g id="Page-1" stroke="none" stroke-width="1" fill="none" fill-rule="evenodd">
        <g id="android" fill-rule="nonzero">
            <path d="M2.32,222.15 L1.4,222.15 C1.0271605,222.161065 0.666140572,222.018511 0.401443501,221.755704 C0.136746429,221.492898 -0.00839218084,221.132909 6.26180965e-16,220.76 L6.26180965e-16,190.6 C-0.00268714791,190.230532 0.142895805,189.875416 0.404156145,189.614156 C0.665416485,189.352896 1.02053186,189.207313 1.39,189.21 L2.32,189.21 L2.32,159.05 L1.4,159.05 C0.630689817,159.05002 0.00549507249,158.429291 4.66315354e-16,157.66 L4.66315354e-16,89 C-1.96255083e-05,88.2306898 0.620709442,87.6054951 1.39,87.6 L2.32,87.6 L2.32,38.87 C2.32,11.03 15.32,1.67 34.79,0.87 C63.39,-0.35 174.13,-0.13 201.79,0.87 C225.92,1.74 236.12,15.25 236.12,37.97 L236.12,160.47 L236.59,160.47 C237.355408,160.475448 237.974552,161.094592 237.98,161.86 L237.98,192 C237.98273,192.368569 237.836834,192.722691 237.57527,192.982374 C237.313706,193.242056 236.95854,193.385391 236.59,193.38 L236.12,193.38 L236.12,472.93 C236.12,496.13 224.99,509.79 204.58,510.75 C175.4,512.1 62,512.6 33.4,511 C13.46,509.85 2.32,497.1 2.32,476.22 L2.32,222.15 Z" id="Path" fill="url(#linearGradient-1)"></path>
            <path d="M230.59,49.54 L230.59,466.66 C230.562542,477.662787 221.652772,486.577026 210.65,486.61 L27.83,486.61 C16.823323,486.582518 7.90748247,477.666677 7.88,466.66 L7.88,49.54 C7.88552098,38.0121999 17.2321985,28.6699987 28.76,28.67 L209.76,28.67 C221.281613,28.6810255 230.618975,38.0183873 230.63,49.54 L230.59,49.54 Z" id="Path" fill="#FFFFFF"></path>
            <path d="M144.36,236.2 C144.36,234.874545 143.652878,233.649773 142.505,232.987045 C141.357122,232.324318 139.942878,232.324318 138.795,232.987045 C137.647122,233.649773 136.94,234.874545 136.94,236.2 L136.94,251.66 C136.94,253.708976 138.601024,255.37 140.65,255.37 C142.698976,255.37 144.36,253.708976 144.36,251.66 L144.36,236.2 Z M101.08,236.2 C101.08,234.151024 99.4189764,232.49 97.37,232.49 C95.3210236,232.49 93.66,234.151024 93.66,236.2 L93.66,251.66 C93.66,253.708976 95.3210236,255.37 97.37,255.37 C99.4189764,255.37 101.08,253.708976 101.08,251.66 L101.08,236.2 Z M127.12,218.5 L129.74,213.77 C129.813915,213.650778 129.834349,213.505989 129.796315,213.370968 C129.758281,213.235946 129.665277,213.123112 129.54,213.06 C129.462123,213.020345 129.377146,212.996552 129.29,212.99 C129.097457,212.98387 128.918517,213.0889 128.83,213.26 L126.18,218.06 C121.611947,216.046937 116.408053,216.046937 111.84,218.06 L109.21,213.26 C109.066157,213.012562 108.751847,212.924024 108.5,213.06 C108.376927,213.125305 108.285929,213.238119 108.248152,213.372226 C108.210376,213.506333 108.229109,213.650057 108.3,213.77 L110.92,218.5 C105.82142,220.987569 102.551839,226.127692 102.46,231.8 L135.56,231.8 C135.467358,226.133531 132.207612,220.996728 127.12,218.5 L127.12,218.5 Z M111.37,225.74 C110.805998,225.744043 110.295464,225.406872 110.077758,224.886565 C109.860052,224.366259 109.978337,223.765977 110.377157,223.367157 C110.775977,222.968337 111.376259,222.850052 111.896565,223.067758 C112.416872,223.285464 112.754043,223.795998 112.75,224.36 C112.75,225.122153 112.132153,225.74 111.37,225.74 L111.37,225.74 Z M126.65,225.74 C126.085998,225.744043 125.575464,225.406872 125.357758,224.886565 C125.140052,224.366259 125.258337,223.765977 125.657157,223.367157 C126.055977,222.968337 126.656259,222.850052 127.176565,223.067758 C127.696872,223.285464 128.034043,223.795998 128.03,224.36 C128.03,225.122153 127.412153,225.74 126.65,225.74 L126.65,225.74 Z M102.45,233.12 L102.45,257.12 C102.45,259.329139 104.240861,261.12 106.45,261.12 L109.11,261.12 L109.11,269.3 C109.11,271.348976 110.771024,273.01 112.82,273.01 C114.868976,273.01 116.53,271.348976 116.53,269.3 L116.53,261.12 L121.47,261.12 L121.47,269.3 C121.47,271.348976 123.131024,273.01 125.18,273.01 C127.228976,273.01 128.89,271.348976 128.89,269.3 L128.89,261.12 L131.55,261.12 C133.759139,261.12 135.55,259.329139 135.55,257.12 L135.55,233.12 L102.45,233.12 Z" id="Shape" fill="url(#linearGradient-2)"></path>
            <path d="M230.6,49.54 L230.6,466.66 C230.572542,477.662787 221.662772,486.577026 210.66,486.61 L27.84,486.61 C23.2559195,486.619624 18.8102316,485.039956 15.26,482.14 L223.58,34 C228.031754,37.9389583 230.583523,43.5958041 230.59,49.54 L230.6,49.54 Z" id="Path" fill="#000000" opacity="0.05"></path>
        </g>
    </g>
</svg>