<svg xmlns="http://www.w3.org/2000/svg" width="160" height="40"><path d="M36.63 7.158c.77.001 1.488.38 1.923 1.014a2.34 2.34 0 0 1 .316 1.979l-.06.18L28.01 38.5c-.326.85-1.112 1.427-2.008 1.493l-.17.006H10.557a2.33 2.33 0 0 1-1.923-1.013 2.34 2.34 0 0 1-.316-1.979l.06-.18.93-2.43h9.462c.91-.001 1.73-.53 2.11-1.344l.066-.156 9.867-25.737h5.813zm37.264 10.395c4.377 0 6.9 3.338 6.9 7.768 0 4.52-2.827 7.86-7.052 7.86-2.067 0-3.587-.82-4.316-1.82v7.222h-4.043V17.887h3.92v1.82c.67-1.153 2.34-2.154 4.6-2.154zm17.415 0c4.377 0 6.9 3.338 6.9 7.768 0 4.52-2.827 7.86-7.052 7.86-2.067 0-3.587-.82-4.316-1.82v7.222H82.8V17.887h3.92v1.82c.67-1.153 2.34-2.154 4.6-2.154zm60.753-.12c4.468 0 7.842 3.308 7.842 7.92 0 4.582-3.374 7.92-7.842 7.92s-7.842-3.338-7.842-7.92c0-4.612 3.374-7.92 7.842-7.92zM115.3 10.847v19.27c0 1 .06 2.094.122 2.7h-3.86a10.29 10.29 0 0 1-.152-1.73c-.67 1.183-2.19 2.094-4.195 2.094-4.256 0-7.295-3.338-7.295-7.86 0-4.37 2.95-7.8 7.174-7.8 2.584 0 3.8 1.062 4.225 1.85v-8.527h3.982zm15.07 2.58v4.46h3.64c1.58 0 2.3-1.032 2.3-2.367v-2.094h3.648v4.46h3.01v3.58h-3.01v6.25c0 1.305.608 1.73 1.763 1.73.486 0 1.034-.06 1.246-.12v3.338c-.365.152-1.094.364-2.28.364-2.918 0-4.742-1.73-4.742-4.612v-6.95h-5.585v6.25c0 1.305.608 1.73 1.763 1.73.486 0 1.034-.06 1.246-.12v3.338c-.365.152-1.094.364-2.28.364-2.918 0-4.742-1.73-4.742-4.612v-6.95h-2.705v-3.58h.76c1.58 0 2.3-1.032 2.3-2.367v-2.094h3.648zM28.406 0a2.33 2.33 0 0 1 1.923 1.013 2.34 2.34 0 0 1 .316 1.979l-.06.18-10.8 28.164c-.325.85-1.112 1.43-2.01 1.496l-.17.006H2.332C1.564 32.84.845 32.46.4 31.827a2.34 2.34 0 0 1-.317-1.978l.06-.18L10.954 1.5C11.28.65 12.065.072 12.962.006L13.13 0h15.275zm27.282 11.302l8.207 21.514h-4.56L57.542 27.9h-8.754l-1.793 4.916h-4.438l8.268-21.514h4.864zm66.29 6.585v14.93h-4.043v-14.93h4.043zm-95.562-8.2L3.25 25.927l-1.442 3.765a1.17 1.17 0 0 0 .962 1.581l.127.007 14.438-.003a1.17 1.17 0 0 0 1.036-.632l.053-.12 7.992-20.84zm125.647 11.418c-1.976 0-3.8 1.426-3.8 4.248 0 2.792 1.824 4.248 3.8 4.248s3.8-1.426 3.8-4.248-1.824-4.248-3.8-4.248zm-78.958.06c-2.067 0-3.74 1.548-3.74 4.188s1.672 4.218 3.74 4.218 3.708-1.548 3.708-4.218c0-2.64-1.64-4.188-3.708-4.188zm17.415 0c-2.067 0-3.74 1.548-3.74 4.188s1.672 4.218 3.74 4.218 3.708-1.548 3.708-4.218c0-2.64-1.64-4.188-3.708-4.188zm17.18-.03c-2.067 0-3.708 1.517-3.708 4.188s1.58 4.248 3.708 4.248c2.067 0 3.678-1.578 3.678-4.28 0-2.67-1.61-4.157-3.678-4.157zm-54.535-5.19l-2.98 8.132h5.958l-2.98-8.132zM28.748 3.605L5.58 19.847l-1.164 3.038L27.582 6.648l1.166-3.043zm91.194 6.878c1.398 0 2.493 1.123 2.493 2.52 0 1.335-1.094 2.458-2.493 2.458-1.368 0-2.493-1.123-2.493-2.458 0-1.396 1.125-2.52 2.493-2.52z" fill="#fff" fill-rule="evenodd"/></svg>