<svg xmlns="http://www.w3.org/2000/svg" viewBox="0 0 81 21" width="81" height="21"><path d="M19.024 4.08c.384 0 .742.2.96.507a1.17 1.17 0 0 1 .17.944l-.043.137-5.4 14.084c-.157.4-.528.694-.957.742l-.13.007H6c-.384 0-.742-.2-.96-.507a1.17 1.17 0 0 1-.17-.944l.043-.137.465-1.216h4.723c.438 0 .835-.247 1.033-.63l.053-.12 4.925-12.87h2.902zm18.783 5.198c2.185 0 3.444 1.67 3.444 3.884 0 2.26-1.41 3.93-3.52 3.93-1.032 0-1.8-.4-2.154-.9v3.61h-2.018V9.443h1.957v.9c.334-.577 1.168-1.077 2.29-1.077zm8.692 0c2.185 0 3.444 1.67 3.444 3.884 0 2.26-1.41 3.93-3.52 3.93-1.032 0-1.8-.4-2.154-.9v3.61H42.25V9.443h1.957v.9c.334-.577 1.168-1.077 2.29-1.077zm30.324-.06c2.23 0 3.914 1.654 3.914 3.96 0 2.29-1.684 3.96-3.914 3.96s-3.914-1.67-3.914-3.96c0-2.306 1.684-3.96 3.914-3.96zm-18.35-3.292v9.634l.06 1.35h-1.927c-.03-.152-.076-.516-.076-.865-.334.592-1.092 1.047-2.094 1.047-2.124 0-3.64-1.67-3.64-3.93 0-2.185 1.472-3.9 3.58-3.9 1.3 0 1.897.53 2.11.926V5.923h1.988zm7.52 1.3v2.23h1.817c.79 0 1.153-.516 1.153-1.183V7.213h1.82v2.23h1.502v1.8h-1.502v3.126c0 .652.303.865.88.865.243 0 .516-.03.622-.06v1.67c-.182.076-.546.182-1.138.182-1.457 0-2.367-.865-2.367-2.306v-3.474h-2.788v3.126c0 .652.303.865.88.865.243 0 .516-.03.622-.06v1.67c-.182.076-.546.182-1.138.182-1.457 0-2.367-.865-2.367-2.306v-3.474h-1.35v-1.8h.38c.79 0 1.153-.516 1.153-1.183V7.213h1.82zM14.918.5c.384 0 .742.2.96.507a1.17 1.17 0 0 1 .17.944l-.043.137-5.4 14.082c-.157.41-.528.696-.957.744l-.13.007H1.904c-.383 0-.742-.2-.96-.507a1.17 1.17 0 0 1-.17-.943l.043-.136 5.4-14.084c.157-.4.528-.694.957-.742L7.294.5h7.624zm13.8 5.65l4.097 10.757H30.54l-.895-2.458h-4.37l-.895 2.458h-2.215L26.29 6.15h2.428zm33.088 3.292v7.465H59.79V9.443h2.018zm-47.88-4.1l-11.563 8.12-.72 1.883c-.07.18-.045.382.064.54.1.132.23.22.385.246l.095.008 7.206-.002c.21 0 .403-.115.506-.295l.038-.08 3.99-10.42zm62.898 5.71c-.986 0-1.897.713-1.897 2.124 0 1.396.9 2.124 1.897 2.124s1.897-.713 1.897-2.124-.9-2.124-1.897-2.124zm-39.41.03c-1.032 0-1.866.774-1.866 2.094s.834 2.11 1.866 2.11 1.85-.774 1.85-2.11c0-1.32-.82-2.094-1.85-2.094zm8.692 0c-1.032 0-1.866.774-1.866 2.094s.834 2.11 1.866 2.11 1.85-.774 1.85-2.11c0-1.32-.82-2.094-1.85-2.094zm8.575-.015c-1.032 0-1.85.76-1.85 2.094s.79 2.124 1.85 2.124c1.032 0 1.836-.79 1.836-2.14 0-1.335-.804-2.08-1.836-2.08zM27.46 8.472l-1.487 4.066h2.974L27.46 8.472zm-12.37-6.17l-11.564 8.12-.58 1.52 11.563-8.12.582-1.522zm45.7 3.44c.698 0 1.244.56 1.244 1.26 0 .668-.546 1.23-1.244 1.23-.683 0-1.244-.56-1.244-1.23 0-.698.56-1.26 1.244-1.26z" fill="#fff" fill-rule="evenodd"/></svg>