<?xml version="1.0" encoding="UTF-8"?>
<svg width="740px" height="425px" viewBox="0 0 740 425" version="1.1" xmlns="http://www.w3.org/2000/svg" xmlns:xlink="http://www.w3.org/1999/xlink">
    <!-- Generator: Sketch 53.2 (72643) - https://sketchapp.com -->
    <title>bg-hero</title>
    <desc>Created with Sketch.</desc>
    <defs>
        <linearGradient x1="100%" y1="45.4774153%" x2="0%" y2="54.5225847%" id="linearGradient-1">
            <stop stop-color="#2020B5" offset="0%"></stop>
            <stop stop-color="#2677FF" offset="100%"></stop>
        </linearGradient>
        <path d="M164.717024,132.065078 C164.717024,139.262671 158.792889,145.052039 151.516938,145.052039 C144.240987,145.052039 138.316852,139.223553 138.316852,132.065078 C138.316852,122.324857 135.01683,119.078117 125.116766,119.078117 C115.216701,119.078117 111.91668,122.324857 111.91668,132.065078 C111.91668,139.262671 105.992545,145.052039 98.716594,145.052039 C91.440643,145.052039 85.516508,139.223553 85.516508,132.065078 C85.516508,124.867485 91.440643,119.078117 98.716594,119.078117 C108.616658,119.078117 111.91668,115.831377 111.91668,106.091156 C111.91668,98.8935632 117.840815,93.1041951 125.116766,93.1041951 C132.392717,93.1041951 138.316852,98.9326806 138.316852,106.091156 C138.316852,115.831377 141.616873,119.078117 151.516938,119.078117 C158.832648,119.078117 164.717024,124.867485 164.717024,132.065078 Z M72.2369035,171.065078 C64.9466973,171.065078 59.0368175,165.250617 59.0368175,158.078117 C59.0368175,150.905616 64.9466973,145.091156 72.2369035,145.091156 C79.5271096,145.091156 85.4369894,150.905616 85.4369894,158.078117 C85.4369894,165.250617 79.5271096,171.065078 72.2369035,171.065078 Z M244.036817,106.052039 C244.036817,113.249631 238.112683,119.039 230.836732,119.039 C220.936667,119.039 217.636646,122.28574 217.636646,132.02596 C217.636646,139.223553 211.712511,145.012921 204.43656,145.012921 C194.536495,145.012921 191.236474,148.259662 191.236474,157.999882 C191.236474,165.197475 185.312339,170.986843 178.036388,170.986843 C170.760437,170.986843 164.836302,165.158358 164.836302,157.999882 C164.836302,150.802289 170.760437,145.012921 178.036388,145.012921 C187.936452,145.012921 191.236474,141.766181 191.236474,132.02596 C191.236474,124.828368 197.160609,119.039 204.43656,119.039 C214.336624,119.039 217.636646,115.792259 217.636646,106.052039 C217.636646,98.8544459 223.560781,93.0650778 230.836732,93.0650778 C238.112683,93.0650778 244.036817,98.8935632 244.036817,106.052039 Z" id="path-2"></path>
        <filter x="-1.2%" y="-2.9%" width="102.4%" height="105.8%" filterUnits="objectBoundingBox" id="filter-3">
            <feGaussianBlur stdDeviation="1.5" in="SourceAlpha" result="shadowBlurInner1"></feGaussianBlur>
            <feOffset dx="0" dy="1.5" in="shadowBlurInner1" result="shadowOffsetInner1"></feOffset>
            <feComposite in="shadowOffsetInner1" in2="SourceAlpha" operator="arithmetic" k2="-1" k3="1" result="shadowInnerInner1"></feComposite>
            <feColorMatrix values="0 0 0 0 0   0 0 0 0 0   0 0 0 0 0  0 0 0 0.35 0" type="matrix" in="shadowInnerInner1"></feColorMatrix>
        </filter>
    </defs>
    <g id="Page-1" stroke="none" stroke-width="1" fill="none" fill-rule="evenodd">
        <g id="desktop-copy" transform="translate(-700.000000, -101.000000)">
            <g id="bg-hero" transform="translate(700.000000, 101.000000)">
                <path d="M146,225 L805,225 L805,425 L146,425 C142.686292,425 140,422.313708 140,419 L140,231 C140,227.686292 142.686292,225 146,225 Z" id="Rectangle" fill="url(#linearGradient-1)" fill-rule="nonzero"></path>
                <g id="undraw_envelope_n8lc">
                    <polygon id="Path-2" fill="#000000" opacity="0.05" points="276.19209 351.475551 140 351.475551 139.760419 306.252095"></polygon>
                    <ellipse id="Oval" fill="#000000" fill-rule="nonzero" opacity="0.05" cx="344.456292" cy="341.562271" rx="48.9612849" ry="4.97674714"></ellipse>
                    <path d="M285.350029,114.546905 C285.350029,114.546905 288.451931,98.334346 298.438128,98.2496113 L305.736388,113.208098 L300.870881,116.552291 C300.870881,116.552291 290.300597,116.88558 285.350029,114.546905 Z" id="Path" fill="#2020B5" fill-rule="nonzero"></path>
                    <path d="M305.736388,113.208098 L300.870881,116.552291 C300.870881,116.552291 293.430853,116.789548 288.111686,115.484635 C287.16319,115.260609 286.238415,114.946599 285.350029,114.546905 C285.350029,114.546905 285.350029,114.456521 285.406737,114.287052 C285.406737,114.287052 285.406737,114.247509 285.406737,114.224913 C285.8647,112.190256 286.496454,110.198329 287.295098,108.270893 C287.606989,107.542176 287.952905,106.790862 288.327175,106.039548 C289.790229,103.215061 291.843042,100.492254 294.655736,99.1308515 C295.695583,98.6224434 296.827793,98.3284692 297.984468,98.2665583 L298.279347,98.2665583 L298.426787,98.2665583 L298.585568,98.5998478 L301.052346,103.650032 L305.736388,113.208098 Z" id="Path" fill="#000000" fill-rule="nonzero" opacity="0.1"></path>
                    <path d="M388.62012,180.566478 C388.62012,180.566478 399.111013,179.566609 400.029675,180.317923 C400.948338,181.069237 406.908299,184.91054 410.435508,182.487129 C413.962717,180.063719 411.609354,171.62415 411.609354,171.29086 C411.609354,170.957571 411.274779,159.004339 411.274779,159.004339 L404.980243,150.564771 L397.097896,135.775753 L380.992956,134.182742 L381.412592,157.671181 L381.327531,169.703498 L388.62012,180.566478 Z" id="Path" fill="#2020B5" fill-rule="nonzero"></path>
                    <path d="M388.62012,180.566478 C388.62012,180.566478 399.111013,179.566609 400.029675,180.317923 C400.948338,181.069237 406.908299,184.91054 410.435508,182.487129 C413.962717,180.063719 411.609354,171.62415 411.609354,171.29086 C411.609354,170.957571 411.274779,159.004339 411.274779,159.004339 L404.980243,150.564771 L397.097896,135.775753 L380.992956,134.182742 L381.412592,157.671181 L381.327531,169.703498 L388.62012,180.566478 Z" id="Path" fill="#000000" fill-rule="nonzero" opacity="0.1"></path>
                    <path d="M296.339949,97.8202892 C296.339949,97.8202892 295.500678,108.016689 289.126751,108.18051 C289.126751,108.18051 287.317781,107.095906 284.885028,105.288234 C279.282323,101.113642 270.396253,93.086448 272.851689,85.6185028 C276.373227,74.9249928 293.48756,94.6568631 293.48756,94.6568631 L294.797505,96.1255967 L296.339949,97.8202892 Z" id="Path" fill="#FBBEBE" fill-rule="nonzero"></path>
                    <path d="M296.339949,97.8202892 C296.339949,97.8202892 295.500678,108.016689 289.126751,108.18051 C289.126751,108.18051 287.317781,107.095906 284.885028,105.288234 L284.346306,104.59341 C285.428354,105.155414 286.620479,105.475434 287.83949,105.53114 C289.80241,105.609043 291.608839,104.468615 292.376093,102.66711 C293.046661,101.356187 293.635641,100.005414 294.139697,98.6224437 C294.45005,97.8166557 294.670641,96.9793555 294.797505,96.1255967 L296.339949,97.8202892 Z" id="Path" fill="#000000" fill-rule="nonzero" opacity="0.1"></path>
                    <path d="M293.572622,116.303736 L292.137921,114.46217 L287.306439,108.248297 L284.845332,105.079222 C285.926232,105.644152 287.119022,105.964351 288.338516,106.016952 C289.94334,106.056495 291.740968,105.452055 292.875119,103.158571 C293.544483,101.845148 294.133427,100.49257 294.638723,99.1082556 C295.432629,96.8486655 295.421287,95.7188704 295.13775,95.3064953 C294.854212,94.8941201 296.918366,96.8204206 297.910748,97.7581505 L297.944773,97.7920443 L298.409774,98.2270154 L298.579897,98.5659539 L301.01265,103.407126 C301.01265,103.407126 301.01265,103.474913 301.01265,103.610489 C301.250822,105.163957 302.073081,114.919737 293.572622,116.303736 Z" id="Path" fill="#E7EFFD" fill-rule="nonzero"></path>
                    <path d="M343.826838,331.411062 C343.826838,331.411062 336.778092,336.009328 333.256554,335.365345 C329.735016,334.721362 326.122746,336.540332 326.122746,336.540332 C323.694399,339.181592 320.633115,341.16602 317.225334,342.307935 C311.554581,344.228587 303.558819,343.471624 299.027887,341.968997 C296.884342,341.257226 296.708548,340.342092 297.740626,339.206648 C298.874776,337.941277 301.517347,336.421703 304.54553,334.614031 C310.335369,331.190752 316.539173,324.445876 316.539173,324.445876 C316.539173,324.445876 316.624234,322.751183 317.633628,322.028114 C318.25492,321.495053 318.824504,320.904961 319.334855,320.265634 C320.236504,319.203627 321.081447,318.096428 321.081447,318.096428 L341.813721,318.695219 C341.813721,318.695219 342.165308,320.180899 342.443175,321.700474 C342.679762,322.685811 342.777104,323.699226 342.732383,324.711378 C342.624879,325.454365 342.830068,326.208602 343.299458,326.795849 L343.673728,330.185235 L343.826838,331.411062 Z" id="Path" fill="#2026BA" fill-rule="nonzero"></path>
                    <path d="M387.19676,337.178666 C386.947247,338.178534 386.629685,339.96926 386.510599,340.810957 L386.43688,341.274173 C386.43688,341.274173 384.735654,344.951656 375.45263,346.290463 C366.169607,347.62927 366.141253,343.194824 366.141253,343.194824 C366.141253,343.194824 366.175278,342.72031 366.231985,342.002891 C366.396437,340.048345 366.731011,336.303075 366.980525,335.506569 C367.309428,334.421966 366.725341,329.654231 366.725341,329.654231 L366.628938,324.677484 L366.555218,321.220311 L381.99668,319.6273 C382.091796,320.777575 382.258459,321.920864 382.495706,323.050579 C382.590204,323.677979 382.820458,324.277425 383.170526,324.80741 C384.009797,325.728193 384.508823,329.8237 384.508823,329.8237 C384.508823,329.8237 387.531335,335.839859 387.19676,337.178666 Z" id="Path" fill="#2026BA" fill-rule="nonzero"></path>
                    <path d="M341.813721,318.695219 C341.813721,318.695219 342.165308,320.180899 342.443175,321.700474 C340.203227,322.112849 330.415507,323.801893 327.971412,322.621257 C325.198414,321.28245 319.244122,320.531136 319.244122,320.531136 L319.340525,320.192197 C320.242175,319.13019 321.087117,318.022991 321.087117,318.022991 L341.813721,318.695219 Z" id="Path" fill="#000000" fill-rule="nonzero" opacity="0.1"></path>
                    <path d="M382.495706,323.050579 C378.582886,322.389649 370.020048,323.988309 366.617596,324.677484 L366.543877,321.220311 L381.985338,319.6273 C382.084198,320.777813 382.254648,321.921104 382.495706,323.050579 L382.495706,323.050579 Z" id="Path" fill="#000000" fill-rule="nonzero" opacity="0.1"></path>
                    <path d="M391.200312,196.361012 L390.865738,208.144775 C390.865738,208.144775 391.285374,226.114165 390.026466,228.955599 C388.767559,231.797034 388.767559,243.247506 388.767559,243.247506 C388.767559,243.247506 389.606831,248.676172 388.682498,249.845509 C387.758165,251.014847 388.432985,255.358909 389.102134,257.618499 C389.771283,259.878089 389.187195,265.476224 389.187195,265.476224 L389.017072,297.065293 C389.017072,297.065293 388.09841,305.250658 386.918894,306.425645 C386.230057,307.131809 385.974596,308.151883 386.249745,309.09761 C386.249745,309.09761 385.246021,313.774962 385.495534,314.616659 C385.745048,315.458356 386.249745,317.373359 384.321689,318.288493 C382.393632,319.203627 382.892659,322.135445 382.892659,322.135445 C378.282336,321.045193 365.194237,323.977011 365.194237,323.977011 C363.780019,321.072867 362.547121,318.084525 361.502577,315.029034 C361.046487,313.777828 361.153501,312.391552 361.796268,311.224522 C362.439034,310.057493 363.555265,309.222803 364.859663,308.93379 C366.617596,308.679586 363.600756,305.589597 363.600756,305.589597 C363.600756,305.589597 363.93533,305.171572 363.096059,302.166318 C362.256787,299.161063 363.26051,291.433265 363.515694,289.456123 C363.770878,287.478982 365.024115,277.757096 365.024115,277.757096 C365.024115,277.757096 364.354966,265.476224 364.859663,264.973465 C365.36436,264.470706 367.037232,259.623885 366.203631,258.036523 C365.370031,256.449161 364.014721,246.004206 364.014721,245.416713 C364.014721,244.829219 362.931607,231.294275 362.931607,231.294275 C362.931607,231.294275 361.922213,221.849188 362.177396,219.843802 C362.43258,217.838416 361.502577,210.404365 361.502577,210.404365 C361.502577,204.190492 357.895978,197.53035 357.895978,197.53035 L357.805246,197.773256 L350.030643,218.177355 C350.030643,218.177355 348.771735,224.357333 347.682951,227.865347 C346.994425,230.250929 346.447199,232.67475 346.044103,235.12428 L345.970383,235.570549 C345.970383,235.756965 345.913676,235.915137 345.896663,236.039414 L345.845627,236.378353 L345.845627,236.378353 C345.845627,236.378353 346.412702,240.807149 345.505381,242.230691 C344.598061,243.654233 343.577325,247.91356 343.577325,249.082898 C343.577325,250.252236 343.662387,254.765767 343.662387,254.765767 C343.662387,254.765767 343.996961,263.708095 343.095311,264.713612 C342.193661,265.71913 342.670005,266.549529 342.670005,266.549529 C342.670005,266.549529 344.178425,273.328299 343.509276,275.073833 C342.840127,276.819366 343.344824,280.920522 343.344824,280.920522 C343.344824,280.920522 342.000856,293.879271 341.836404,294.54585 C341.671952,295.212429 340.741949,300.398188 341.751343,300.816213 C342.760737,301.234237 344.683122,303.736733 344.683122,303.736733 C344.683122,303.736733 345.108429,314.690096 343.594338,315.520495 C342.080246,316.350894 342.919518,320.604573 342.919518,320.604573 C342.919518,320.604573 330.761423,322.943248 327.994095,321.604441 C325.226767,320.265634 319.266805,319.51432 319.266805,319.51432 L320.100406,316.768918 C320.049369,316.864951 319.493636,317.757489 319.096683,314.33421 C318.682718,310.741462 322.204256,312.492644 322.204256,312.492644 C322.204256,312.492644 324.971583,313.164872 320.50303,308.82081 C316.034476,304.476748 318.234728,300.042303 318.489912,300.042303 C318.745096,300.042303 319.334855,293.613769 319.334855,293.613769 C319.334855,293.613769 320.089065,289.766817 319.499306,286.755913 C318.909548,283.74501 318.410522,274.384658 318.410522,274.384658 C318.410522,274.384658 318.830157,267.283896 318.075947,264.696665 C317.321737,262.109435 318.574974,257.420785 318.830157,256.336182 C319.085341,255.251579 318.047593,245.331978 318.047593,245.331978 C318.047593,245.331978 318.886865,240.654627 318.382168,237.231348 C317.877471,233.808069 318.886865,221.182609 318.886865,221.182609 L320.395285,206.642147 C320.395285,206.642147 321.48407,202.122967 321.319618,200.28705 C321.155166,198.451133 322.584196,192.01695 322.584196,192.01695 C322.498576,190.646752 322.727415,189.275128 323.253345,188.006178 C324.092617,186.311486 324.427191,180.820682 324.427191,180.820682 L332.485332,162.433267 L336.454859,146.220709 L389.720246,145.71795 C389.720246,145.71795 389.918722,147.124545 390.241955,149.672232 C390.565188,152.21992 391.018848,156.004734 391.523545,160.676436 C391.988547,164.918816 392.498915,169.906862 392.99227,175.459804 C394.602764,193.186288 391.200312,196.361012 391.200312,196.361012 Z" id="Path" fill="#E7EFFD" fill-rule="nonzero"></path>
                    <path d="M386.272428,50.0299591 L373.853478,63.2372631 C373.853478,63.2372631 357.918661,56.882166 359.597204,54.7129596 C360.24367,53.8712623 360.164279,51.2162439 359.767326,48.2900748 C359.200251,43.6579151 357.918661,38.3309315 357.918661,38.3309315 C357.918661,38.3309315 385.767731,33.8117514 383.437051,38.4947518 C382.580767,40.1894444 382.728207,42.2004795 383.261258,44.0476944 C383.935921,46.1899481 384.952674,48.2099223 386.272428,50.0299591 L386.272428,50.0299591 Z" id="Path" fill="#FBBEBE" fill-rule="nonzero"></path>
                    <path d="M383.420039,38.5060498 C382.563755,40.2007423 382.155461,40.3815095 382.688512,42.2287244 C379.047888,46.1095704 374.414882,50.3688977 368.653397,50.3688977 C365.570068,50.3735874 362.527899,49.6638312 359.767326,48.2957238 C359.200251,43.6635641 357.918661,38.3365805 357.918661,38.3365805 C357.918661,38.3365805 385.767731,33.8174004 383.420039,38.5060498 Z" id="Path" fill="#000000" fill-rule="nonzero" opacity="0.1"></path>
                    <path d="M388.62579,29.9704483 C388.442142,40.8262972 379.555481,49.5309042 368.656232,49.5309042 C357.756984,49.5309042 348.870322,40.8262972 348.686674,29.9704483 C348.686674,29.8744157 348.686674,29.7783831 348.686674,29.6879995 C348.764971,18.7030328 357.767849,9.86118617 368.795166,9.93918224 C379.822482,10.0171783 388.698416,18.9854816 388.62012,29.9704483 L388.62579,29.9704483 Z" id="Path" fill="#FBBEBE" fill-rule="nonzero"></path>
                    <path d="M391.512204,161.190493 C388.869633,161.190493 380.062953,161.286525 370.218525,161.439048 L370.099439,161.439048 L366.850097,161.495538 L366.748024,161.495538 C355.077613,161.681954 343.571655,159.411066 338.961332,159.840388 C329.150929,160.755522 342.488541,150.802027 342.488541,150.802027 C349.802586,152.572685 357.326321,153.333004 364.848321,153.061618 L367.683698,152.914744 C376.598122,152.411985 385.563584,151.575937 390.247626,150.174991 C390.559517,152.762222 391.007507,156.51879 391.512204,161.190493 Z" id="Path" fill="#000000" fill-rule="nonzero" opacity="0.1"></path>
                    <path d="M391.512204,160.687734 C388.869633,160.687734 380.062953,160.783767 370.218525,160.936289 L370.099439,160.936289 L366.850097,160.992779 L366.748024,160.992779 C355.077613,161.179195 343.571655,158.908307 338.961332,159.337629 C329.150929,160.258412 342.488541,150.299269 342.488541,150.299269 C349.802586,152.069926 357.326321,152.830245 364.848321,152.558859 L367.683698,152.411985 C376.598122,151.909227 385.563584,151.073178 390.247626,149.677881 C390.559517,152.265112 391.007507,156.004734 391.512204,160.687734 Z" id="Path" fill="#2020B5" fill-rule="nonzero"></path>
                    <path d="M363.288864,55.5433589 L347.853073,62.7345043 L335.944491,154.490808 C335.944491,154.490808 342.987567,151.316084 347.019473,153.32147 C351.051378,155.326857 363.464657,153.49094 363.464657,153.49094 C363.464657,153.49094 372.537863,152.988181 373.87049,153.993698 C375.203117,154.999216 390.973482,149.790861 390.973482,149.790861 C390.973482,149.790861 393.808859,143.441413 391.642631,142.447193 C389.476403,141.452974 392.334463,131.595512 392.334463,131.595512 L390.973482,65.4064696 L388.285545,56.882166 L381.072347,52.5381041 L373.700367,58.3847934 L370.17883,58.8875522 L363.288864,55.5433589 Z" id="Path" fill="#000000" fill-rule="nonzero" opacity="0.1"></path>
                    <path d="M363.288864,54.5434903 L347.853073,61.7289868 L335.944491,153.49094 C335.944491,153.49094 342.987567,150.316216 347.019473,152.321602 C351.051378,154.326988 363.464657,152.485422 363.464657,152.485422 C363.464657,152.485422 372.537863,151.988312 373.87049,152.988181 C375.203117,153.988049 390.984824,148.807939 390.984824,148.807939 C390.984824,148.807939 393.8202,142.458491 391.653973,141.464272 C389.487745,140.470052 392.334463,130.584345 392.334463,130.584345 L390.973482,64.400952 L388.285545,55.8822974 L381.072347,51.5325865 L373.700367,57.3849248 L370.17883,57.8876836 L363.288864,54.5434903 Z" id="Path" fill="#E7EFFD" fill-rule="nonzero"></path>
                    <path d="M359.597204,49.5272003 C359.597204,49.5272003 358.922384,50.0299591 358.757932,53.3741524 C358.59348,56.7183458 356.240118,64.2371317 356.240118,64.2371317 C356.240118,64.2371317 364.967407,58.2209732 369.328217,58.8875522 L359.597204,49.5272003 Z" id="Path" fill="#000000" fill-rule="nonzero" opacity="0.1"></path>
                    <path d="M359.597204,48.5273317 C359.597204,48.5273317 358.922384,49.0244416 358.757932,52.3686349 C358.59348,55.7128282 356.240118,63.2316142 356.240118,63.2316142 C356.240118,63.2316142 364.967407,57.2154556 369.328217,57.8876836 L359.597204,48.5273317 Z" id="Path" fill="#E7EFFD" fill-rule="nonzero"></path>
                    <path d="M383.420039,46.8552351 L369.651449,58.8875522 C369.651449,58.8875522 381.231128,65.7397591 382.739548,67.4118558 C384.247969,69.0839524 385.756389,51.0298277 385.756389,51.0298277 L383.420039,46.8552351 Z" id="Path" fill="#000000" fill-rule="nonzero" opacity="0.1"></path>
                    <path d="M383.924736,45.8497175 L370.167488,57.8876836 C370.167488,57.8876836 381.741496,64.7398905 383.261258,66.4119872 C384.78102,68.0840838 386.278098,50.0299591 386.278098,50.0299591 L383.924736,45.8497175 Z" id="Path" fill="#E7EFFD" fill-rule="nonzero"></path>
                    <path d="M360.09623,49.5272003 C360.09623,49.5272003 358.58781,48.7758866 357.16445,50.9507421 C356.116194,52.3684158 354.692692,53.4676371 353.053154,54.1254661 C353.053154,54.1254661 337.781815,56.5488765 337.175045,58.5542627 L330.041237,58.9722869 C330.041237,58.9722869 327.523422,59.3055764 327.273909,64.5704213 C327.024396,69.8352661 325.680428,70.3380249 325.680428,70.3380249 C325.680428,70.3380249 322.742977,75.5181352 322.998161,78.1901004 C323.253345,80.8620657 320.72986,82.2065218 320.72986,82.2065218 L331.215083,109.366794 C331.215083,109.366794 331.555328,120.563063 329.621601,124.65857 C327.687874,128.754077 324.086946,146.887288 324.086946,146.887288 C324.086946,146.887288 325.595366,146.553998 325.510305,147.553867 C325.425244,148.553735 323.718347,159.507098 323.718347,159.507098 C323.718347,159.507098 323.21365,163.85116 322.374378,165.359437 C321.535107,166.867713 321.450046,174.714139 321.450046,174.714139 L320.111748,180.397008 C320.111748,180.397008 323.298711,187.503419 328.164218,186.497902 C333.029724,185.492384 341.836404,166.528774 341.836404,166.528774 L347.461791,146.051239 L351.822601,125.827908 L353.081508,112.123494 L355.094625,81.7884976 L358.032076,61.7289868 C358.032076,61.7289868 361.275747,50.9337952 360.09623,49.5272003 Z" id="Path" fill="#000000" fill-rule="nonzero" opacity="0.1"></path>
                    <path d="M359.597204,48.5273317 C359.597204,48.5273317 358.083113,47.776018 356.659753,49.9452245 C355.61345,51.3647958 354.189353,52.4644774 352.548457,53.1199486 C352.548457,53.1199486 337.282789,55.5433589 336.670348,57.5487451 L329.53654,57.9667693 C329.53654,57.9667693 327.024396,58.3057078 326.769212,63.5705527 C326.514028,68.8353975 325.175731,69.3325074 325.175731,69.3325074 C325.175731,69.3325074 322.23828,74.5182666 322.493464,77.1902318 C322.748648,79.8621971 320.225163,81.2010042 320.225163,81.2010042 L330.716057,108.361277 C330.716057,108.361277 331.050631,119.557546 329.122575,123.653053 C327.194519,127.74856 323.582249,145.887419 323.582249,145.887419 C323.582249,145.887419 325.090669,145.548481 325.011279,146.553998 C324.931888,147.559516 323.162613,158.501581 323.162613,158.501581 C323.162613,158.501581 322.657916,162.851292 321.818644,164.353919 C320.979373,165.856546 320.899982,173.714271 320.899982,173.714271 L319.556014,179.39714 C319.556014,179.39714 322.742977,186.497902 327.608484,185.498033 C332.47399,184.498164 341.297682,165.523257 341.297682,165.523257 L346.917399,145.051371 L351.278208,124.82804 L352.537116,111.117977 L354.550233,80.7829801 L357.487683,60.7291181 C357.487683,60.7291181 360.77105,49.9452245 359.597204,48.5273317 Z" id="Path" fill="#2020B5" fill-rule="nonzero"></path>
                    <path d="M305.736388,113.208098 L300.870881,116.552291 C300.870881,116.552291 293.430853,116.789548 288.111686,115.484635 L285.406737,114.287052 L284.839662,114.049795 L285.406737,114.224913 C288.21376,115.055313 290.408341,115.038366 292.12658,114.46217 C299.010874,112.151739 298.250993,100.825544 297.984468,98.2665583 C297.984468,98.0067054 297.939102,97.8428851 297.92776,97.7807464 C297.926542,97.7694811 297.926542,97.7581179 297.92776,97.7468525 L297.967456,97.8146402 C298.062463,97.9689774 298.168596,98.1162381 298.285018,98.2552603 C298.381421,98.3625908 298.483494,98.4755703 298.591239,98.5829009 L298.591239,98.5829009 L301.023992,103.424073 C301.023992,103.424073 301.023992,103.49186 301.023992,103.627436 L305.736388,113.208098 Z" id="Path" fill="#000000" fill-rule="nonzero" opacity="0.1"></path>
                    <path d="M322.584196,80.5344251 L320.230834,81.2010042 L319.896259,85.9630903 C319.896259,85.9630903 317.128931,85.5450661 316.374721,88.7875779 C315.620511,92.0300897 314.276542,93.555313 314.276542,93.555313 C314.276542,93.555313 309.660549,97.3966161 309.411036,100.656075 L306.575659,102.412906 C306.575659,102.412906 299.946549,100.90463 298.438128,98.2326644 C298.438128,98.2326644 301.46064,119.794803 285.350029,114.529958 C285.350029,114.529958 303.388696,122.382033 304.227967,123.472286 C305.067239,124.562538 310.601894,127.731613 315.637523,125.059648 C320.673152,122.387682 321.761937,118.280877 321.761937,118.280877 C321.761937,118.280877 326.627443,111.502107 326.791895,110.507887 C326.956347,109.513668 330.761423,108.333032 330.761423,108.333032 L337.974621,90.9511354 L322.584196,80.5344251 Z" id="Path" fill="#2020B5" fill-rule="nonzero"></path>
                    <path d="M381.491983,56.882166 L383.924736,45.8497175 C383.924736,45.8497175 385.01352,49.4424657 386.107976,50.278514 L389.714575,53.0408629 C389.714575,53.0408629 393.321174,54.7073106 394.580081,54.7073106 C395.838989,54.7073106 402.632551,56.4641419 403.471823,57.3849248 C404.311094,58.3057078 407.66818,57.6334797 407.66818,57.6334797 C407.66818,57.6334797 410.435508,58.5542627 412.868261,59.1361071 C415.301014,59.7179516 416.47486,63.7343729 415.970163,65.3499798 C415.553963,66.9572284 415.997479,68.664715 417.144009,69.86916 C418.153403,70.8746776 418.6581,74.1341363 418.6581,74.1341363 C419.886819,74.5382811 420.905764,75.4091782 421.493477,76.5575466 C422.332749,78.3934636 422.060552,82.4042359 422.060552,82.4042359 L409.584895,99.9556018 C409.584895,99.9556018 409.749347,106.734372 409.25032,108.23135 C408.751294,109.728329 411.008254,135.306889 411.008254,135.306889 L413.61113,179.261564 C413.61113,179.261564 410.168983,182.187734 409.414772,182.521023 C408.660562,182.854313 407.906352,166.980692 407.906352,166.393199 C407.906352,165.805706 388.529388,137.476095 388.529388,137.476095 C388.529388,137.476095 385.926512,133.301502 385.926512,132.392017 C385.926512,131.482532 383.493759,123.031665 383.493759,123.031665 L379.802098,106.734372 L381.491983,56.882166 Z" id="Path" fill="#000000" fill-rule="nonzero" opacity="0.1"></path>
                    <path d="M423.132325,81.4382612 C423.132325,82.0031587 423.132325,82.398587 423.132325,82.398587 L410.656667,99.91041 C410.656667,99.91041 410.82679,106.68918 410.327764,108.18051 C410.032884,109.056101 410.67368,118.049269 411.269109,125.438129 C411.688744,130.765113 412.085697,135.256048 412.085697,135.256048 L413.191494,153.897666 L414.682902,179.205075 C414.682902,179.205075 411.246426,182.131244 410.492215,182.464533 C409.738005,182.797823 408.983795,166.924203 408.983795,166.336709 C408.983795,165.749216 389.60116,137.425254 389.60116,137.425254 C389.60116,137.425254 386.998284,133.239364 386.998284,132.341177 C386.998284,131.44299 384.565531,122.980825 384.565531,122.980825 L380.879541,106.683531 L382.552413,56.8765171 L383.924736,45.8497175 C383.924736,45.8497175 386.022915,49.4481147 387.111699,50.278514 L390.718298,53.0352139 C390.718298,53.0352139 394.324898,54.7299065 395.583805,54.7299065 C396.842712,54.7299065 403.641945,56.4810888 404.481217,57.4018718 C405.320488,58.3226547 408.671904,57.6504267 408.671904,57.6504267 C408.671904,57.6504267 411.439231,58.5712096 413.871985,59.1530541 C416.304738,59.7348985 417.484254,63.7513199 416.979557,65.3669268 C416.561117,66.9741754 417.004913,68.6827445 418.153403,69.8861069 C419.157127,70.8859755 419.661824,74.1454342 419.661824,74.1454342 C420.890323,74.5530881 421.908692,75.4255223 422.4972,76.5744935 C423.0983,77.7890232 423.155008,80.110752 423.132325,81.4382612 Z" id="Path" fill="#2020B5" fill-rule="nonzero"></path>
                    <path d="M320.588091,304.086969 C321.002056,304.086969 338.621087,304.753548 338.286512,307.594983 C337.951938,310.436417 320.588091,304.086969 320.588091,304.086969 Z" id="Path" fill="#000000" fill-rule="nonzero" opacity="0.1"></path>
                    <path d="M324.529265,308.849055 C324.529265,308.849055 336.358456,310.769707 333.250883,312.526538 C330.14331,314.283369 324.529265,308.849055 324.529265,308.849055 Z" id="Path" fill="#000000" fill-rule="nonzero" opacity="0.1"></path>
                    <path d="M368.517299,302.245403 C368.517299,302.245403 388.149447,303.940096 385.211997,306.092355 C382.274547,308.244615 375.310861,308.594851 375.004641,308.679586 C374.69842,308.764321 368.517299,302.245403 368.517299,302.245403 Z" id="Path" fill="#000000" fill-rule="nonzero" opacity="0.1"></path>
                    <path d="M366.141253,310.854441 C366.141253,310.854441 377.046112,312.690358 377.380686,314.808724 C377.715261,316.92709 366.141253,310.854441 366.141253,310.854441 Z" id="Path" fill="#000000" fill-rule="nonzero" opacity="0.1"></path>
                    <path d="M372.180605,260.544668 C372.180605,260.544668 382.161131,262.883344 382.75089,264.498951 L372.180605,260.544668 Z" id="Path" fill="#000000" fill-rule="nonzero" opacity="0.1"></path>
                    <path d="M333.670519,267.730165 C333.670519,267.730165 328.470438,269.232792 333.506067,272.249345 C338.541696,275.265898 333.670519,267.730165 333.670519,267.730165 Z" id="Path" fill="#000000" fill-rule="nonzero" opacity="0.1"></path>
                    <path d="M356.744815,187.418685 C357.31189,187.418685 366.475828,184.41343 369.662791,185.723992 C371.943619,186.577597 374.354774,187.034282 376.790928,187.074097 L356.744815,187.418685 Z" id="Path" fill="#000000" fill-rule="nonzero" opacity="0.1"></path>
                    <path d="M357.918661,196.942857 L357.827929,197.773256 L350.030643,218.177355 C350.030643,218.177355 348.771735,224.357333 347.682951,227.865347 C346.994425,230.250929 346.447199,232.67475 346.044103,235.12428 L352.968093,192.35024 L357.918661,196.942857 Z" id="Path" fill="#000000" fill-rule="nonzero" opacity="0.1"></path>
                    <polygon id="Path" fill-opacity="0.2" fill="#000000" fill-rule="nonzero" points="370.099439 160.936289 366.850097 160.992779 366.748024 160.992779 364.842651 152.570157 367.678027 152.417634"></polygon>
                    <path d="M409.681298,150.73424 L407.58879,152.428932 L400.619434,158.151344 C400.619434,158.151344 381.741496,168.183924 376.541415,158.654103 C371.959446,150.259726 393.360869,144.266163 398.515584,142.96125 C399.213087,142.786132 399.61004,142.695748 399.61004,142.695748 L409.681298,150.73424 Z" id="Path" fill="#FBBEBE" fill-rule="nonzero"></path>
                    <path d="M329.060197,68.5811937 C329.060197,68.5811937 332.751857,70.2758862 333.596799,72.591966 C334.441742,74.9080459 329.060197,68.5811937 329.060197,68.5811937 Z" id="Path" fill="#000000" fill-rule="nonzero" opacity="0.1"></path>
                    <path d="M317.650641,93.6513455 C317.650641,93.6513455 312.280437,100.170263 314.463677,102.689706 C316.646917,105.209149 317.650641,93.6513455 317.650641,93.6513455 Z" id="Path" fill="#000000" fill-rule="nonzero" opacity="0.1"></path>
                    <path d="M413.622471,72.2586765 C413.622471,72.2586765 408.586842,72.7614353 408.42239,77.1054972 L413.622471,72.2586765 Z" id="Path" fill="#000000" fill-rule="nonzero" opacity="0.1"></path>
                    <path d="M366.980525,140.786394 C367.479551,140.283636 379.059229,123.235029 381.724483,124.743305 L366.980525,140.786394 Z" id="Path" fill="#000000" fill-rule="nonzero" opacity="0.1"></path>
                    <path d="M388.62579,29.9704483 C388.630635,33.246818 387.818049,36.4730317 386.261086,39.359045 L386.113647,39.3308001 C384.849069,39.0652983 384.191261,37.5965648 383.221562,36.6814308 C382.001856,35.5235954 380.17696,35.2690911 378.68496,36.0487456 C377.189204,36.9437484 376.025376,34.817269 375.401593,32.1340057 C374.777811,29.4507425 372.900791,26.7392344 370.326269,26.6940426 C369.192118,26.6940426 367.92754,27.0951199 367.122293,26.2703695 C366.640279,25.7732597 366.555218,24.9880521 366.180948,24.3779628 C364.343624,21.4178998 358.746591,22.9148782 356.461277,24.4344526 C354.175963,25.9540269 351.527722,28.3887352 348.686674,29.6879995 C348.764971,18.7030328 357.767849,9.86118617 368.795166,9.93918224 C379.822482,10.0171783 388.698416,18.9854816 388.62012,29.9704483 L388.62579,29.9704483 Z" id="Path" fill="#000000" fill-rule="nonzero" opacity="0.1"></path>
                    <path d="M366.186619,23.880853 C366.549547,24.4852933 366.64595,25.2705009 367.127964,25.7676107 C367.92754,26.5980101 369.226143,26.168688 370.33194,26.1912839 C372.906462,26.2364757 374.783481,28.9479837 375.407264,31.631247 C376.031047,34.3145102 377.196353,36.4376201 378.696301,35.5459868 C380.188301,34.7663323 382.013198,35.0208366 383.232904,36.178672 C384.202603,37.093806 384.86041,38.5625395 386.124988,38.8280413 C387.389566,39.0935432 388.608778,37.8846625 389.068109,36.5684513 C389.52744,35.2522401 389.493416,33.7835065 389.793966,32.4051566 C390.361041,29.800979 392.062267,27.6600174 393.014953,25.1801173 C394.138654,22.164675 394.108373,18.8426293 392.929892,15.8480103 C392.300439,14.2775952 388.232904,-0.0358404442 370.625215,0.228593896 C353.017525,0.493028237 349.034874,6.90535904 346.698626,12.8877969 C344.362378,18.8702347 342.930859,26.9104725 347.416425,28.3114184 C351.901991,29.7123642 352.990776,26.2364757 356.506643,23.9034489 C358.757932,22.4177684 364.349295,20.915141 366.186619,23.880853 Z" id="Path" fill="#374041" fill-rule="nonzero"></path>
                    <path d="M409.681298,150.73424 L407.58879,152.428932 C405.745795,149.378486 398.186681,143.277593 398.186681,143.277593 L398.515584,142.96125 C399.213087,142.786132 399.61004,142.695748 399.61004,142.695748 L409.681298,150.73424 Z" id="Path" fill="#000000" fill-rule="nonzero" opacity="0.1"></path>
                    <path d="M411.694415,147.638601 C411.694415,147.638601 410.940205,149.502763 410.168983,151.107072 C409.39776,152.711381 408.547147,154.180115 408.507452,152.988181 C408.42239,150.649505 398.691378,142.791781 398.691378,142.791781 L400.012663,141.515112 L401.538096,140.035081 L411.694415,147.638601 Z" id="Path" fill="#E7EFFD" fill-rule="nonzero"></path>
                    <path d="M412.02899,135.267346 L413.134787,153.908964 C410.52624,149.869947 403.369749,139.521024 398.770768,139.854314 L409.913799,127.081981 C410.377915,126.567586 410.806114,126.022124 411.195389,125.449427 C411.615025,130.77641 412.02899,135.267346 412.02899,135.267346 Z" id="Path" fill="#000000" fill-rule="nonzero" opacity="0.1"></path>
                    <path d="M411.694415,147.638601 C411.694415,147.638601 410.940205,149.502763 410.168983,151.107072 C407.242874,147.113247 403.22231,142.396352 400.012663,141.503814 L401.538096,140.023783 L411.694415,147.638601 Z" id="Path" fill="#000000" fill-rule="nonzero" opacity="0.1"></path>
                    <path d="M420.081459,80.0316664 L423.103971,82.3703421 C423.103971,82.3703421 428.133929,82.4550767 428.638626,86.6353183 C429.143323,90.81556 433.742304,92.7362115 433.742304,92.7362115 C433.742304,92.7362115 437.178781,96.1594905 437.178781,97.7468525 C437.178781,99.3342146 439.781657,102.175649 439.781657,102.429853 C439.781657,102.684057 442.299471,107.779432 441.959226,108.694566 C441.618981,109.6097 444.647163,113.626122 443.72283,115.128749 C442.964899,116.47896 442.292546,117.875103 441.709713,119.308991 C441.709713,119.308991 437.768539,126.833426 435.755422,128.251319 C433.742304,129.669211 424.510318,141.622443 424.510318,141.622443 C424.510318,141.622443 414.614853,152.988181 414.614853,156.496194 C414.614853,156.496194 404.974572,140.453105 399.258453,140.871129 L410.418496,128.081849 C410.418496,128.081849 412.346552,125.997377 412.431613,124.743305 C412.516674,123.489232 417.801817,117.721629 420.319631,117.473074 C420.319631,117.473074 420.733596,114.044146 419.644811,113.959411 C418.556027,113.874677 417.631694,111.202711 417.631694,111.202711 C417.631694,111.202711 410.259715,102.514588 410.163312,96.9955388 C410.066909,91.4764901 420.081459,80.0316664 420.081459,80.0316664 Z" id="Path" fill="#2020B5" fill-rule="nonzero"></path>
                    <path d="M424.52733,87.9684765 C424.52733,87.9684765 417.484254,93.1542357 418.992675,94.8206834 C420.501095,96.4871311 424.52733,87.9684765 424.52733,87.9684765 Z" id="Path" fill="#000000" fill-rule="nonzero" opacity="0.1"></path>
                    <path d="M424.861905,109.366794 C424.861905,109.366794 437.950003,105.186553 439.293972,109.366794 L424.861905,109.366794 Z" id="Path" fill="#000000" fill-rule="nonzero" opacity="0.1"></path>
                    <path d="M343.826838,331.411062 C343.826838,331.411062 336.778092,336.009328 333.256554,335.365345 C329.735016,334.721362 326.122746,336.540332 326.122746,336.540332 C323.694399,339.181592 320.633115,341.16602 317.225334,342.307935 C311.554581,344.228587 303.558819,343.471624 299.027887,341.968997 C296.884342,341.257226 296.708548,340.342092 297.740626,339.206648 C302.66851,340.183921 313.675443,342.132817 316.641247,340.714924 C320.497359,338.873358 326.037685,334.862586 326.037685,334.862586 C326.037685,334.862586 333.256554,333.862717 334.260277,333.862717 C334.974792,333.862717 340.549143,331.569233 343.696411,330.258671 L343.826838,331.411062 Z" id="Path" fill="#000000" fill-rule="nonzero" opacity="0.1"></path>
                    <path d="M386.510599,340.810957 L386.43688,341.274173 C386.43688,341.274173 384.735654,344.951656 375.45263,346.290463 C366.169607,347.62927 366.141253,343.194824 366.141253,343.194824 C366.141253,343.194824 366.175278,342.72031 366.231985,342.002891 C369.180777,343.115739 375.611411,344.358513 386.510599,340.810957 Z" id="Path" fill="#000000" fill-rule="nonzero" opacity="0.1"></path>
                    <path d="M332.542039,86.9686079 C332.542039,86.9686079 332.542039,106.022601 330.903191,107.90371 C329.264344,109.784819 332.542039,86.9686079 332.542039,86.9686079 Z" id="Path" fill="#000000" fill-rule="nonzero" opacity="0.1"></path>
                    <path d="M408.167207,93.1090439 L410.59996,99.921708 C410.59996,99.921708 411.569659,93.2333214 408.167207,93.1090439 Z" id="Path" fill="#000000" fill-rule="nonzero" opacity="0.1"></path>
                    <g id="Group" opacity="0.1" transform="translate(377.698626, 20.893333)" fill="#000000" fill-rule="nonzero">
                        <path d="M8.66453353,16.2965051 C7.37160175,16.0140563 6.74214813,14.5622697 5.77812005,13.6414867 C4.55164196,12.496882 2.73449402,12.245721 1.24151732,13.0144505 C-0.182870466,13.8601465 0.0570065653,15.1782566 0.992004174,14.6413553 C2.4840045,13.8617008 4.30890088,14.1162052 5.5286069,15.2740406 C6.49830573,16.1891745 7.15611312,17.6579081 8.42069113,17.9234099 C9.68526914,18.1889117 10.9044811,16.9800311 11.3638122,15.6638198 C11.6027193,14.8822266 11.7567118,14.0773442 11.8231432,13.2630054 C11.767989,13.5252973 11.6960118,13.7837973 11.6076545,14.036915 C11.1539943,15.3587752 9.95746531,16.5789538 8.66453353,16.2965051 Z" id="Path"></path>
                        <path d="M15.5544989,2.64858101 C14.6131539,5.12848112 12.9005863,7.26379374 12.333511,9.87362027 C12.2200959,10.398975 12.1520469,10.9356276 12.0896686,11.4779292 C12.6567439,8.87940064 14.3579699,6.749737 15.3049858,4.27548586 C15.7230143,3.16242365 15.9844569,1.99710376 16.081879,0.812664075 C15.952779,1.43700059 15.7764833,2.05072163 15.5544989,2.64858101 Z" id="Path"></path>
                    </g>
                    <g id="Group-4" transform="translate(0.490730, 13.428889)" fill-rule="nonzero">
                        <path d="M158.418446,3.20591855 L10.1225736,99.0464316 L106.899651,272.921888 C107.813862,274.565674 109.37654,275.753663 111.209424,276.198293 L198.896284,297.506228 C201.992456,298.252249 205.191296,296.743696 206.574484,293.885235 L250.069162,203.868815 L297.737516,140.391281 L184.617327,7.07546655 C178.104929,-0.595899006 166.885162,-2.25304721 158.418446,3.20591855 Z" id="Path" fill="#DCDFED"></path>
                        <path d="M299.245936,141.142595 L298.8263,141.707492 L270.90351,178.894696 L270.398813,179.566924 L251.577583,204.631427 L214.37744,281.632608 L213.334022,283.784867 L208.082904,294.647846 C206.698732,297.511303 203.493178,299.020793 200.393363,298.268839 L112.706503,276.949607 C110.873007,276.506255 109.309865,275.317912 108.39673,273.673201 L99.9643198,258.550895 L98.4502286,255.828089 L37.5860324,146.430035 L37.064323,145.497955 L11.6253233,99.7977453 L14.6988716,97.809306 L37.9999974,82.7547871 L38.5387189,82.4045507 L87.6077481,50.691204 L90.7039795,48.6914667 L159.915525,3.95723225 C168.382695,-1.51243094 179.611799,0.142958437 186.125747,7.82113127 L237.729603,68.660594 L239.997904,71.3721021 L277.453231,115.513194 L277.657378,115.7561 L296.48995,137.945275 L298.860325,140.741517 L299.245936,141.142595 Z" id="Path" fill="#000000" opacity="0.1"></path>
                        <path d="M276.205665,115.004786 L271.635038,146.639048 L270.257045,156.185816 L269.46881,176.522126 L269.406432,178.109488 L265.306477,284.366712 C265.226552,286.362366 264.262147,288.219907 262.67343,289.438227 C261.084713,290.656547 259.035356,291.110131 257.078214,290.676617 L212.880362,280.8474 L212.404018,280.740069 L99.0513285,255.539991 L96.970162,255.076775 L34.6542528,241.21419 L36.0832827,145.678722 L36.1286487,142.487051 L36.559626,113.569947 L37.0359693,81.653237 L86.1049985,49.9398903 L89.2012298,47.940153 C134.714697,52.5892596 195.244319,61.5315873 236.249536,67.9092803 L238.517838,70.6207884 L275.94481,114.761881 L276.205665,115.004786 Z" id="Path" fill="#000000" opacity="0.1"></path>
                        <path d="M281.18539,79.4214312 L259.860666,287.179193 C259.522318,290.475583 256.57578,292.873549 253.27939,292.5352 C253.044355,292.511075 252.810949,292.473089 252.580393,292.421439 L38.8339569,244.537171 C36.0669954,243.917306 34.1117232,241.445039 34.1460279,238.609702 L36.4698837,46.5394918 C36.4832469,45.4350032 37.3894448,44.5504712 38.4939335,44.5638344 C38.5757697,44.5648245 38.6574679,44.570837 38.7385673,44.5818378 L279.464673,77.2353694 C280.534119,77.3804354 281.295587,78.3478321 281.18539,79.4214312 Z" id="Path" fill="#2677FF"></path>
                        <g id="Combined-Shape" transform="translate(151.536817, 132.065078) rotate(8.000000) translate(-151.536817, -132.065078) ">
                            <use fill-opacity="0.1" fill="#000000" xlink:href="#path-2"></use>
                            <use fill="black" fill-opacity="1" filter="url(#filter-3)" xlink:href="#path-2"></use>
                        </g>
                        <path d="M295.038237,137.193961 L271.067962,148.904287 L148.732799,208.670444 L35.9925507,115.852133 L13.2017927,97.0579923 L10.1282444,99.0464316 L35.5672441,144.746641 L34.0928483,243.47378 L98.4899239,257.799581 L106.905322,272.921888 C107.818457,274.566599 109.381599,275.754941 111.215095,276.198293 L198.901954,297.506228 C201.996304,298.249288 205.191791,296.741202 206.574484,293.885235 L211.825601,283.022255 L256.499797,292.958803 C258.456939,293.392317 260.506296,292.938733 262.095013,291.720413 C263.68373,290.502093 264.648135,288.644552 264.72806,286.648897 L268.890393,178.804312 L297.31788,140.956178 L297.39727,140.001502 L295.038237,137.193961 Z" id="Path" fill="#000000" opacity="0.1"></path>
                        <path d="M10.1225736,99.0464316 L0.0116203025,271.526591 C-0.18162737,274.823968 2.05456676,277.77417 5.29109172,278.491777 L273.812607,337.890751 C275.717417,338.306272 277.709566,337.882127 279.277441,336.727243 C280.845316,335.572359 281.836158,333.799257 281.995504,331.863295 L297.731845,140.391281 L148.732799,213.189624 L10.1225736,99.0464316 Z" id="Path" fill="#DCDFED"></path>
                        <path d="M141.36082,189.740728 C145.625492,187.164445 151.133082,188.023192 154.403552,191.774359 L279.063209,336.629128 C279.516869,337.148834 275.720151,338.193536 275.045331,338.046663 L1.86028591,275.475225 L141.36082,189.740728 Z" id="Path" fill="#000000" opacity="0.1"></path>
                        <path d="M140.918501,192.254522 C145.424301,189.543525 151.234619,190.454158 154.68709,194.412431 L276.041436,335.593433 C276.46151,336.077242 276.523555,336.774584 276.195451,337.324451 C275.867347,337.874317 275.222763,338.153248 274.595394,338.016843 L3.30632803,278.051157 C2.70999951,277.92271 2.25311469,277.444157 2.15423433,276.844425 C2.05535397,276.244694 2.33457997,275.645706 2.85833851,275.334 L140.918501,192.254522 Z" id="Path" fill="#E3E5F1"></path>
                    </g>
                </g>
            </g>
        </g>
    </g>
</svg>