<svg xmlns="http://www.w3.org/2000/svg" xmlns:xlink="http://www.w3.org/1999/xlink" width="805" height="425" viewBox="0 805 425"><style><![CDATA[.B{fill-rule:nonzero}.C{opacity:.1}.D{fill:#000}.E{fill:#2020b5}.F{fill:#e7effd}.G{fill:#fbbebe}]]></style><defs><linearGradient x1="100%" y1="45.4774153%" x2="0%" y2="54.5225847%" id="A"><stop stop-color="#2020b5" offset="0%"/><stop stop-color="#2677ff" offset="100%"/></linearGradient><path id="B" d="M388.62 180.566s10.49-1 11.4-.25 6.88 4.593 10.406 2.17 1.174-10.863 1.174-11.196-.335-12.287-.335-12.287l-6.295-8.44-7.882-14.79-16.105-1.593.42 23.488-.085 12.032 7.293 10.863z"/></defs><g fill="none" fill-rule="evenodd"><path d="M146 225h659v200H146a6 6 0 0 1-6-6V231a6 6 0 0 1 6-6z" fill="url(#A)" class="B"/><g class="D"><path opacity=".05" d="M276.192 351.476H140l-.24-45.223z"/><ellipse opacity=".05" cx="344.456" cy="341.562" rx="48.961" ry="4.977" class="B"/></g><path d="M285.35 114.547s3.102-16.213 13.088-16.297l7.298 14.958-4.866 3.344s-10.57.333-15.52-2.005z" class="B E"/><path d="M305.736 113.208l-4.866 3.344s-7.44.237-12.76-1.068c-.948-.224-1.873-.538-2.762-.938 0 0 0-.1.057-.26v-.062a36.48 36.48 0 0 1 1.888-5.954 42.75 42.75 0 0 1 1.032-2.231c1.463-2.824 3.516-5.547 6.33-6.91a8.63 8.63 0 0 1 3.329-.864h.442l.16.333 7.15 14.608z" class="B C D"/><use xlink:href="#B" class="B E"/><use xlink:href="#B" class="B C D"/><path d="M296.34 97.82s-.84 10.196-7.213 10.36c0 0-1.81-1.085-4.242-2.892-5.603-4.175-14.49-12.202-12.033-19.67 3.522-10.694 20.636 9.038 20.636 9.038l1.3 1.47 1.542 1.695z" class="B G"/><path d="M296.34 97.82s-.84 10.196-7.213 10.36c0 0-1.81-1.085-4.242-2.892l-.54-.695a8.41 8.41 0 0 0 3.493.938c1.963.078 3.77-1.063 4.537-2.864.67-1.31 1.26-2.662 1.764-4.045.3-.806.53-1.643.658-2.497l1.542 1.695z" class="B C D"/><path d="M293.573 116.304l-1.435-1.842-4.83-6.214-2.46-3.17c1.08.565 2.274.885 3.493.938 1.605.04 3.402-.565 4.537-2.858a36.43 36.43 0 0 0 1.764-4.05c.794-2.26.783-3.39.5-3.802s1.78 1.514 2.773 2.452l.034.034.465.435.17.34 2.433 4.84v.203c.238 1.553 1.06 11.31-7.44 12.693z" class="B F"/><path d="M343.827 331.4s-7.05 4.598-10.57 3.954-7.134 1.175-7.134 1.175a21.26 21.26 0 0 1-8.897 5.768c-5.67 1.92-13.667 1.164-18.197-.34-2.144-.712-2.32-1.627-1.287-2.762 1.134-1.265 3.777-2.785 6.805-4.593 5.8-3.423 11.994-10.168 11.994-10.168s.085-1.695 1.094-2.418a13.05 13.05 0 0 0 1.701-1.762c.902-1.062 1.747-2.17 1.747-2.17l20.732.6a68.16 68.16 0 0 0 .629 3.005 10.86 10.86 0 0 1 .29 3.01c-.108.743.098 1.497.567 2.084l.374 3.4.153 1.226zm43.37 5.77a46.06 46.06 0 0 0-.686 3.632l-.074.463s-1.7 3.677-10.984 5.016-9.3-3.096-9.3-3.096l.1-1.192.75-6.496c.33-1.085-.255-5.852-.255-5.852l-.096-4.977-.074-3.457 15.44-1.593c.095 1.15.262 2.294.5 3.423a4.37 4.37 0 0 0 .675 1.757c.84.92 1.338 5.016 1.338 5.016s3.023 6.016 2.688 7.355z" fill="#2026ba" class="B"/><path d="M341.814 318.695l.63 3.005c-2.24.412-12.028 2.1-14.472.92-2.773-1.34-8.727-2.1-8.727-2.1l.096-.34c.902-1.062 1.747-2.17 1.747-2.17l20.727.672zm40.682 4.355c-3.913-.66-12.476.938-15.878 1.627l-.074-3.457 15.44-1.593a30.32 30.32 0 0 0 .5 3.423z" class="C D B"/><path d="M391.2 196.36l-.335 11.784s.42 17.97-.84 20.81-1.26 14.292-1.26 14.292.84 5.43-.085 6.598-.25 5.513.42 7.773.085 7.858.085 7.858l-.17 31.59s-.92 8.185-2.098 9.36c-.69.706-.944 1.726-.67 2.672 0 0-1.004 4.677-.754 5.52s.754 2.757-1.174 3.672-1.43 3.847-1.43 3.847c-4.6-1.1-17.698 1.842-17.698 1.842a78.26 78.26 0 0 1-3.692-8.948 4.61 4.61 0 0 1 .294-3.805c.643-1.167 1.76-2.002 3.063-2.29 1.758-.254-1.26-3.344-1.26-3.344s.335-.418-.505-3.423.164-10.733.42-12.7l1.508-11.7s-.67-12.28-.164-12.784 2.178-5.35 1.344-6.937-2.19-12.032-2.19-12.62-1.083-14.122-1.083-14.122-1.01-9.445-.754-11.45-.675-9.44-.675-9.44c0-6.214-3.607-12.874-3.607-12.874l-.09.243-7.775 20.404s-1.26 6.18-2.348 9.688a63.16 63.16 0 0 0-1.639 7.259l-.074.446c0 .186-.057.345-.074.47l-.05.34s.567 4.43-.34 5.852-1.928 5.683-1.928 6.852l.085 5.683s.335 8.942-.567 9.948-.425 1.836-.425 1.836 1.508 6.78.84 8.524-.164 5.847-.164 5.847l-1.508 13.625c-.164.667-1.094 5.852-.085 6.27s2.932 2.92 2.932 2.92.425 10.953-1.09 11.784-.675 5.084-.675 5.084-12.158 2.34-14.925 1-8.727-2.1-8.727-2.1l.834-2.745c-.05.096-.607.99-1.004-2.435-.414-3.593 3.108-1.842 3.108-1.842s2.767.672-1.7-3.672-2.268-8.78-2.013-8.78.845-6.43.845-6.43.754-3.847.164-6.858-1.09-12.37-1.09-12.37.42-7.1-.335-9.688.5-7.276.754-8.36-.783-11.004-.783-11.004.84-4.677.335-8.1.505-16.05.505-16.05l1.508-14.54s1.09-4.52.924-6.355 1.265-8.27 1.265-8.27c-.086-1.37.143-2.742.67-4.01.84-1.695 1.174-7.185 1.174-7.185l8.058-18.387 3.97-16.213 53.265-.503.522 3.954 1.282 11.004 1.47 14.783c1.6 17.726-1.792 20.9-1.792 20.9z" class="B F"/><path d="M386.272 50.03l-12.42 13.207s-15.935-6.355-14.256-8.524c.646-.842.567-3.497.17-6.423-.567-4.632-1.85-9.96-1.85-9.96s27.85-4.52 25.518.164c-.856 1.695-.71 3.706-.176 5.553a20.87 20.87 0 0 0 3.011 5.982z" class="B G"/><path d="M383.42 38.506c-.856 1.695-1.265 1.875-.732 3.723-3.64 3.88-8.274 8.14-14.035 8.14-3.083.005-6.125-.705-8.886-2.073-.567-4.632-1.85-9.96-1.85-9.96s27.85-4.52 25.5.17z" class="B C D"/><path d="M388.626 29.97c-.184 10.856-9.07 19.56-19.97 19.56s-19.786-8.705-19.97-19.56v-.282c.078-10.985 9.08-19.827 20.108-19.75s19.903 9.046 19.825 20.03h.006z" class="B G"/><path d="M391.512 161.2l-21.413.25-3.25.056h-.102c-11.67.186-23.176-2.084-27.787-1.655-9.8.915 3.527-9.038 3.527-9.038 7.314 1.77 14.838 2.53 22.36 2.26l2.835-.147c8.914-.503 17.88-1.34 22.564-2.74l1.265 11.016z" class="B C D"/><path d="M391.512 160.688l-21.413.25-3.25.056h-.102c-11.67.186-23.176-2.084-27.787-1.655-9.8.92 3.527-9.038 3.527-9.038 7.314 1.77 14.838 2.53 22.36 2.26l2.835-.147c8.914-.503 17.88-1.34 22.564-2.734l1.265 11z" class="B E"/><path d="M363.29 55.543l-15.436 7.19-11.91 91.756s7.043-3.175 11.075-1.17 16.445.17 16.445.17 9.073-.503 10.406.503 17.103-4.203 17.103-4.203 2.835-6.35.67-7.344.692-10.852.692-10.852l-1.36-66.19-2.688-8.524-7.213-4.344-7.372 5.847-3.522.503-6.9-3.344z" class="B C D"/><path d="M363.29 54.543l-15.436 7.185-11.91 91.762s7.043-3.175 11.075-1.17 16.445.164 16.445.164 9.073-.497 10.406.503 17.114-4.18 17.114-4.18 2.835-6.35.67-7.344.68-10.88.68-10.88l-1.36-66.183-2.688-8.52-7.213-4.35-7.372 5.852-3.522.503-6.9-3.344z" class="B F"/><path d="M359.597 49.527s-.675.503-.84 3.847-2.518 10.863-2.518 10.863 8.727-6.016 13.088-5.35l-9.73-9.36z" class="B C D"/><path d="M359.597 48.527s-.675.497-.84 3.84-2.518 10.863-2.518 10.863 8.727-6.016 13.088-5.344l-9.73-9.36z" class="B F"/><path d="M383.42 46.855l-13.77 12.032s11.58 6.852 13.088 8.524 3.017-16.382 3.017-16.382l-2.336-4.175z" class="B C D"/><path d="M383.925 45.85l-13.757 12.038s11.574 6.852 13.094 8.524 3.017-16.382 3.017-16.382l-2.353-4.18z" class="B F"/><path d="M360.096 49.527s-1.508-.75-2.932 1.424a9.52 9.52 0 0 1-4.111 3.175s-15.27 2.423-15.878 4.43l-7.134.418s-2.518.333-2.767 5.598-1.593 5.768-1.593 5.768-2.937 5.18-2.682 7.852-2.268 4.016-2.268 4.016l10.485 27.16s.34 11.196-1.593 15.292-5.535 22.23-5.535 22.23 1.508-.333 1.423.667-1.792 11.953-1.792 11.953-.505 4.344-1.344 5.852-.924 9.355-.924 9.355l-1.338 5.683s3.187 7.106 8.052 6.1 13.672-19.97 13.672-19.97l5.625-20.478 4.36-20.223 1.26-13.704 2.013-30.335 2.937-20.06s3.244-10.795 2.064-12.202z" class="B C D"/><path d="M359.597 48.527s-1.514-.75-2.937 1.418a9.47 9.47 0 0 1-4.111 3.175s-15.266 2.423-15.878 4.43l-7.134.418s-2.512.34-2.767 5.604-1.593 5.762-1.593 5.762-2.937 5.186-2.682 7.858-2.268 4.01-2.268 4.01l10.49 27.16s.335 11.196-1.593 15.292-5.54 22.234-5.54 22.234 1.508-.34 1.43.667-1.85 11.948-1.85 11.948-.505 4.35-1.344 5.852-.92 9.36-.92 9.36l-1.344 5.683s3.187 7.1 8.052 6.1 13.69-19.975 13.69-19.975l5.62-20.472 4.36-20.223 1.26-13.7 2.013-30.335 2.937-20.054s3.283-10.784 2.1-12.202z" class="B E"/><path d="M305.736 113.208l-4.866 3.344s-7.44.237-12.76-1.068l-2.705-1.198-.567-.237.567.175c2.807.83 5.002.813 6.72.237 6.884-2.3 6.124-13.637 5.858-16.196 0-.26-.045-.424-.057-.486-.001-.01-.001-.023 0-.034l.04.068a3.74 3.74 0 0 0 .318.441 8.09 8.09 0 0 0 .306.328l2.433 4.84v.203l4.712 9.58z" class="B C D"/><path d="M322.584 80.534l-2.353.667-.335 4.762s-2.767-.418-3.522 2.824-2.098 4.768-2.098 4.768-4.616 3.84-4.866 7.1l-2.835 1.757s-6.63-1.508-8.138-4.18c0 0 3.023 21.562-13.088 16.297 0 0 18.04 7.852 18.878 8.942s6.374 4.26 11.4 1.587 6.124-6.78 6.124-6.78 4.866-6.78 5.03-7.773 3.97-2.175 3.97-2.175l7.213-17.382-15.4-10.417z" class="B E"/><path d="M381.492 56.882l2.433-11.032s1.09 3.593 2.183 4.43l3.607 2.762s3.607 1.666 4.866 1.666 8.052 1.757 8.892 2.678 4.196.25 4.196.25l5.2 1.503c2.433.582 3.607 4.598 3.102 6.214-.416 1.607.027 3.315 1.174 4.52 1.01 1.006 1.514 4.265 1.514 4.265 1.23.404 2.248 1.275 2.835 2.423.84 1.836.567 5.847.567 5.847l-12.476 17.55s.164 6.78-.335 8.276 1.758 27.076 1.758 27.076l2.603 43.955s-3.442 2.926-4.196 3.26-1.508-15.54-1.508-16.128-19.377-28.917-19.377-28.917-2.603-4.175-2.603-5.084-2.433-9.36-2.433-9.36l-3.692-16.297 1.7-49.852z" class="B C D"/><path d="M423.132 81.438v.96L410.657 99.9s.17 6.78-.33 8.27c-.295.876.346 9.87.94 17.258l.817 9.818 2.597 43.95s-3.436 2.926-4.19 3.26-1.508-15.54-1.508-16.128-19.383-28.91-19.383-28.91-2.603-4.186-2.603-5.084-2.433-9.36-2.433-9.36l-3.686-16.297 1.673-49.807 1.372-11.027s2.098 3.598 3.187 4.43l3.607 2.757s3.607 1.695 4.866 1.695 8.058 1.75 8.897 2.672 4.19.25 4.19.25 2.767.92 5.2 1.503 3.612 4.598 3.108 6.214c-.418 1.607.025 3.316 1.174 4.52 1.004 1 1.508 4.26 1.508 4.26a4.93 4.93 0 0 1 2.835 2.429c.6 1.215.658 3.536.635 4.864z" class="B E"/><g class="D B"><path d="M320.588 304.087c.414 0 18.033.667 17.698 3.508s-17.698-3.508-17.698-3.508zm3.942 4.763s11.83 1.92 8.722 3.677-8.722-3.677-8.722-3.677zm43.987-6.605s19.632 1.695 16.695 3.847-9.9 2.502-10.207 2.587-6.487-6.434-6.487-6.434zm-2.377 8.61s10.905 1.836 11.24 3.954-11.24-3.954-11.24-3.954zm6.04-50.31s9.98 2.34 10.57 3.954l-10.57-3.954zm-38.5 7.185s-5.2 1.503-.164 4.52.164-4.52.164-4.52zm23.075-80.3c.567 0 9.73-3.005 12.918-1.695a21.33 21.33 0 0 0 7.128 1.35l-20.046.345zm1.175 9.523l-.1.83-7.797 20.404-2.348 9.688a63.16 63.16 0 0 0-1.639 7.259l6.924-42.774 4.95 4.593z" class="C"/><path fill-opacity=".2" d="M370.1 160.936l-3.25.056h-.102l-1.905-8.423 2.835-.153z"/></g><path d="M409.68 150.734l-2.093 1.695-6.97 5.722s-18.878 10.033-24.078.503c-4.582-8.394 16.82-14.388 21.974-15.693l1.094-.266 10.07 8.038z" class="B G"/><path d="M329.06 68.58s3.692 1.695 4.537 4-4.537-4-4.537-4zm-11.4 25.07s-5.37 6.52-3.187 9.038 3.187-9.038 3.187-9.038zm95.972-21.4s-5.036.503-5.2 4.847l5.2-4.847zm-46.642 68.526c.5-.503 12.08-17.55 14.744-16.043l-14.744 16.043zM388.626 29.97a19.71 19.71 0 0 1-2.365 9.389l-.147-.028c-1.265-.266-1.922-1.734-2.892-2.65a3.94 3.94 0 0 0-4.537-.633c-1.496.895-2.66-1.23-3.283-3.915s-2.5-5.395-5.075-5.44c-1.134 0-2.4.4-3.204-.424-.482-.497-.567-1.282-.94-1.892-1.837-2.96-7.434-1.463-9.72.056s-4.934 3.954-7.775 5.254c.078-10.985 9.08-19.827 20.108-19.75s19.903 9.046 19.825 20.03h.006z" class="C D B"/><path d="M366.187 23.88c.363.604.46 1.4.94 1.887.8.83 2.098.4 3.204.424 2.575.045 4.452 2.757 5.075 5.44s1.79 4.806 3.29 3.915a3.94 3.94 0 0 1 4.537.633c.97.915 1.628 2.384 2.892 2.65s2.484-.943 2.943-2.26.425-2.785.726-4.163c.567-2.604 2.268-4.745 3.22-7.225a13.04 13.04 0 0 0-.085-9.332c-.63-1.57-4.697-15.884-22.305-15.62s-21.6 6.677-23.927 12.66-3.768 14.023.718 15.424 5.574-2.075 9.1-4.408c2.25-1.486 7.843-2.988 9.68-.023z" fill="#374041" class="B"/><path d="M409.68 150.734l-2.093 1.695c-1.843-3.05-9.402-9.15-9.402-9.15l.33-.316 1.094-.266 10.07 8.038z" class="B C D"/><path d="M411.694 147.64l-1.525 3.468c-.77 1.604-1.622 3.073-1.662 1.88-.085-2.34-9.816-10.196-9.816-10.196l1.32-1.277 1.525-1.48 10.156 7.604z" class="B F"/><g class="D B"><path d="M412.03 135.267l1.106 18.642c-2.61-4.04-9.765-14.388-14.364-14.055l11.143-12.772c.464-.514.892-1.06 1.282-1.633l.834 9.818z" class="C"/><path d="M411.694 147.64l-1.525 3.468c-2.926-3.994-6.947-8.71-10.156-9.603l1.525-1.48 10.156 7.615z" class="C"/></g><path d="M420.08 80.032l3.023 2.34s5.03.085 5.535 4.265 5.104 6.1 5.104 6.1 3.436 3.423 3.436 5.01 2.603 4.43 2.603 4.683 2.518 5.35 2.178 6.265 2.688 4.932 1.764 6.434a37.01 37.01 0 0 0-2.013 4.18s-3.94 7.524-5.954 8.942-11.245 13.37-11.245 13.37-9.895 11.366-9.895 14.874c0 0-9.64-16.043-15.356-15.625l11.16-12.79s1.928-2.084 2.013-3.34 5.37-7.022 7.888-7.27c0 0 .414-3.43-.675-3.514s-2.013-2.757-2.013-2.757-7.372-8.688-7.468-14.207 9.918-16.964 9.918-16.964z" class="B E"/><g class="D B"><path d="M424.527 87.968s-7.043 5.186-5.535 6.852 5.535-6.852 5.535-6.852zm.335 21.4s13.088-4.18 14.432 0h-14.432zM343.827 331.4s-7.05 4.598-10.57 3.954-7.134 1.175-7.134 1.175a21.26 21.26 0 0 1-8.897 5.768c-5.67 1.92-13.667 1.164-18.197-.34-2.144-.712-2.32-1.627-1.287-2.762 4.928.977 15.935 2.926 18.9 1.508 3.856-1.842 9.396-5.852 9.396-5.852s7.22-1 8.223-1c.715 0 6.3-2.293 9.436-3.604l.13 1.152zm42.683 9.4l-.074.463s-1.7 3.677-10.984 5.016-9.3-3.096-9.3-3.096l.1-1.192c2.95 1.113 9.38 2.356 20.28-1.192zM332.542 86.97s0 19.054-1.64 20.935 1.64-20.935 1.64-20.935zm75.625 6.14l2.433 6.813s.97-6.688-2.433-6.813z" class="C"/><path d="M386.364 37.2c-1.293-.282-1.922-1.734-2.886-2.655a3.98 3.98 0 0 0-4.537-.627c-1.424.846-1.185 2.164-.25 1.627a3.94 3.94 0 0 1 4.537.633c.97.915 1.628 2.384 2.892 2.65s2.484-.943 2.943-2.26a11.38 11.38 0 0 0 .459-2.401 6.25 6.25 0 0 1-.215.774c-.454 1.322-1.65 2.542-2.943 2.26zm6.89-13.658c-.94 2.48-2.654 4.615-3.22 7.225a16.57 16.57 0 0 0-.244 1.604c.567-2.6 2.268-4.728 3.215-7.202.418-1.113.68-2.278.777-3.463a12.61 12.61 0 0 1-.527 1.836z" class="C"/></g><g class="B"><path d="M158.91 16.635l-148.296 95.84L107.39 286.35a6.75 6.75 0 0 0 4.31 3.276l87.687 21.308c3.096.746 6.295-.763 7.678-3.62l43.495-90.016 47.668-63.478-113.12-133.316c-6.512-7.67-17.732-9.33-26.2-3.87z" fill="#dcdfed"/><g class="D"><path d="M299.737 154.572l-.42.565-47.25 62.924-43.495 90.016c-1.384 2.863-4.6 4.373-7.7 3.62l-87.687-21.32a6.74 6.74 0 0 1-4.31-3.276l-96.77-173.875 148.3-95.84c8.467-5.47 19.696-3.814 26.2 3.864L238.22 82.1l2.268 2.712 59.248 69.77z" class="C"/><path d="M276.697 128.434l-5.95 41.18-.85 21.924-4.1 106.257a6.73 6.73 0 0 1-2.633 5.072c-1.59 1.218-3.638 1.672-5.595 1.238L35.145 254.643l2.382-159.56L89.692 61.37c45.513 4.65 106.043 13.59 147.048 19.97l2.268 2.712 37.427 44.14.26.243z" class="C"/></g><path d="M281.676 92.85l-21.325 207.758a6 6 0 0 1-7.28 5.242L39.325 257.966a6 6 0 0 1-4.688-5.927l2.324-192.07a2 2 0 0 1 2.269-1.958l240.726 32.654a2 2 0 0 1 1.721 2.186z" fill="#2677ff"/><g class="D"><path d="M165.08 147.328c-1.002 7.128-7.674 12.036-14.88 11.023s-12.26-7.61-11.264-14.698c1.356-9.645-1.46-13.32-11.264-14.698s-13.523 1.378-14.88 11.023c-1.002 7.128-7.674 12.036-14.88 11.023s-12.26-7.61-11.264-14.698c1.002-7.128 7.674-12.036 14.88-11.023 9.804 1.378 13.523-1.378 14.88-11.023 1.002-7.128 7.674-12.036 14.88-11.023s12.26 7.61 11.264 14.698c-1.356 9.645 1.46 13.32 11.264 14.698 7.245 1.018 12.266 7.57 11.264 14.698zm-97.008 25.75c-7.22-1.015-12.262-7.595-11.264-14.698s7.66-12.038 14.88-11.023 12.262 7.595 11.264 14.698-7.66 12.038-14.88 11.023zm179.176-40.47c-1.002 7.128-7.674 12.036-14.88 11.023-9.804-1.378-13.523 1.378-14.88 11.023-1.002 7.128-7.674 12.036-14.88 11.023-9.804-1.378-13.523 1.378-14.88 11.023-1.002 7.128-7.674 12.036-14.88 11.023s-12.26-7.61-11.264-14.698c1.002-7.128 7.674-12.036 14.88-11.023 9.804 1.378 13.523-1.378 14.88-11.023 1.002-7.128 7.674-12.036 14.88-11.023 9.804 1.378 13.523-1.378 14.88-11.023 1.002-7.128 7.674-12.036 14.88-11.023s12.26 7.61 11.264 14.698z" fill-opacity=".1"/><path d="M140.06 150.94c-1.048-2.2-1.485-4.712-1.123-7.287.365-2.598.428-4.763.132-6.567 1.254 2.244 1.463 5.33.868 9.567-.206 1.465-.153 2.91.123 4.287zm-52.286-7.348c-1.048-2.2-1.485-4.712-1.123-7.287 1.002-7.128 7.674-12.036 14.88-11.023 9.804 1.378 13.523-1.378 14.88-11.023 1.002-7.128 7.674-12.036 14.88-11.023 5.716.803 10.08 5.12 11.14 10.41-1.837-3.858-5.553-6.766-10.14-7.41-7.205-1.013-13.877 3.896-14.88 11.023-1.356 9.645-5.075 12.4-14.88 11.023-7.205-1.013-13.877 3.896-14.88 11.023-.206 1.465-.153 2.91.123 4.287zM143.42 127.5c1.6 2.864 4.9 4.358 10.396 5.13 5.738.806 10.082 5.085 11.142 10.372-1.833-3.843-5.54-6.725-10.142-7.372-7.163-1.007-10.596-3.24-11.396-8.13zM57.93 165.68c-1.05-2.203-1.486-4.717-1.123-7.3.998-7.103 7.66-12.038 14.88-11.023 5.724.804 10.08 5.108 11.14 10.397-1.836-3.853-5.548-6.75-10.14-7.397-7.22-1.015-13.88 3.92-14.88 11.023a12.78 12.78 0 0 0 .123 4.301zm104.78 14.633c-1.048-2.2-1.485-4.712-1.123-7.287 1.002-7.128 7.674-12.036 14.88-11.023 9.804 1.378 13.523-1.378 14.88-11.023 1.002-7.128 7.674-12.036 14.88-11.023 9.804 1.378 13.523-1.378 14.88-11.023 1.002-7.128 7.674-12.036 14.88-11.023 5.716.803 10.08 5.12 11.14 10.41-1.837-3.858-5.553-6.766-10.14-7.41-7.205-1.013-13.877 3.896-14.88 11.023-1.356 9.645-5.075 12.4-14.88 11.023-7.205-1.013-13.877 3.896-14.88 11.023-1.356 9.645-5.075 12.4-14.88 11.023-7.205-1.013-13.877 3.896-14.88 11.023-.206 1.465-.153 2.91.123 4.287z" fill-opacity=".1"/><path d="M295.53 150.623L149.224 222.1 13.693 110.487l-3.074 1.988 25.44 45.7-1.474 98.727L98.98 271.23l8.415 15.122a6.74 6.74 0 0 0 4.31 3.276l87.687 21.308c3.094.743 6.3-.765 7.673-3.62l5.25-10.863 44.674 9.937c1.957.434 4.006-.02 5.595-1.238a6.73 6.73 0 0 0 2.633-5.072l4.162-107.845 28.427-37.848.08-.955-2.36-2.808z" class="C"/></g><path d="M10.614 112.475L.503 284.956c-.193 3.297 2.043 6.248 5.28 6.965l268.522 59.4a6.78 6.78 0 0 0 5.465-1.164c1.568-1.155 2.56-2.928 2.718-4.864l15.736-191.472-149 72.798-138.6-114.143z" fill="#dcdfed"/><path d="M141.852 203.17a10.27 10.27 0 0 1 13.043 2.034l124.66 144.855c.454.52-3.343 1.564-4.018 1.418L2.35 288.904l139.5-85.734z" class="C D"/><path d="M141.4 205.684c4.506-2.71 10.316-1.8 13.77 2.158l121.354 141.18a1.48 1.48 0 0 1 .154 1.731c-.328.55-.973.83-1.6.692L3.797 291.48c-.596-.128-1.053-.607-1.152-1.207a1.48 1.48 0 0 1 .704-1.51l138.06-83.08z" fill="#e3e5f1"/></g></g></svg>