<?xml version="1.0" encoding="UTF-8"?>
<svg width="653px" height="410px" viewBox="0 0 653 410" version="1.1" xmlns="http://www.w3.org/2000/svg" xmlns:xlink="http://www.w3.org/1999/xlink">
    <!-- Generator: Sketch 53.2 (72643) - https://sketchapp.com -->
    <title>bg-startcreating</title>
    <desc>Created with Sketch.</desc>
    <defs>
        <linearGradient x1="0%" y1="47.554565%" x2="100%" y2="52.445435%" id="linearGradient-1">
            <stop stop-color="#2020B5" offset="0%"></stop>
            <stop stop-color="#2677FF" offset="100%"></stop>
        </linearGradient>
    </defs>
    <g id="Page-1" stroke="none" stroke-width="1" fill="none" fill-rule="evenodd">
        <g id="desktop" transform="translate(-787.000000, -3922.000000)" fill-rule="nonzero">
            <g id="Group-19" transform="translate(250.000000, 3922.000000)">
                <g id="bg-startcreating" transform="translate(537.000000, 0.000000)">
                    <path d="M0.606842777,265.808171 L646.606843,265.808171 C649.920551,265.808171 652.606843,268.494462 652.606843,271.808171 L652.606843,404 C652.606843,407.313708 649.920551,410 646.606843,410 L0.606842777,410 L0.606842777,265.808171 Z" id="Rectangle" fill="url(#linearGradient-1)" transform="translate(326.606843, 337.904085) scale(-1, 1) translate(-326.606843, -337.904085) "></path>
                    <g id="undraw_settings_ii2j-copy" transform="translate(30.110283, 0.000000)">
                        <ellipse id="Oval" fill="#000000" opacity="0.1" cx="124.964883" cy="334.9183" rx="81.6755691" ry="8.6660746"></ellipse>
                        <ellipse id="Oval" fill="#2F2E41" cx="89.8351744" cy="40.1515651" rx="24.3816071" ry="24.3480197"></ellipse>
                        <polygon id="Path" fill="#A0616A" points="145.954856 255.295931 158.986704 307.770032 172.018041 305.670803 158.986704 245.640394"></polygon>
                        <path d="M163.610557,304.411541 C163.610557,304.411541 156.189132,306.917183 157.167421,308.602913 C158.145711,310.288643 158.145716,320.783484 154.782735,324.561622 C151.419753,328.33976 143.012305,340.09398 152.680875,340.513775 C162.349445,340.93357 172.01801,334.636647 172.01801,334.636647 L172.01801,323.722037 L173.699506,333.797078 L175.381002,333.797078 L175.381002,322.462658 C175.381002,322.462658 179.584741,315.326166 177.062497,311.128233 C174.540254,306.9303 172.896191,303.271931 169.724688,303.631839 C166.553185,303.991746 163.610557,304.411541 163.610557,304.411541 Z" id="Path" fill="#FFFFFF"></path>
                        <polygon id="Path" fill="#A0616A" points="94.6692349 299.793675 92.5676204 311.128391 107.280453 311.128391 107.280453 299.793675"></polygon>
                        <path d="M95.9305813,308.609474 C95.9305813,308.609474 91.7268419,308.189679 90.4657354,314.066786 C89.2046288,319.943894 77.8545629,328.339765 73.6508337,329.599145 C69.4471045,330.858524 69.4470943,335.056458 74.9119504,335.896047 C80.3768066,336.735637 94.2490907,337.155427 97.612072,332.537688 C99.8951807,329.525478 102.582783,326.841577 105.599146,324.561612 L103.497287,336.315832 L107.280637,336.315832 C107.280637,336.315832 110.643629,324.981407 114.00662,321.203268 C117.369612,317.42513 107.280637,308.609464 105.599167,308.609464 L95.9305813,308.609474 Z" id="Path" fill="#FFFFFF"></path>
                        <path d="M75.3323244,128.09829 C75.3323244,128.09829 72.389717,136.074367 67.345245,137.333746 C62.3007729,138.593126 24.8876194,147.408792 24.8876194,147.408792 C24.8876194,147.408792 -7.90143596,148.248382 2.18750299,155.384864 C12.2764419,162.521346 28.6709747,155.384864 28.6709747,155.384864 C28.6709747,155.384864 76.5934411,149.507736 80.3767964,143.210854 C82.8673594,138.925484 84.9772842,134.430513 86.6823852,129.777465 L75.3323244,128.09829 Z" id="Path" fill="#A0616A"></path>
                        <path d="M91.3064832,92.8356402 C91.3064832,92.8356402 67.345245,131.876434 70.2878575,132.716018 C73.23047,133.555603 100.554679,142.371269 101.815796,139.012921 C103.076913,135.654572 103.076913,120.122219 103.076913,120.122219 L91.3064832,92.8356402 Z" id="Path" fill="#2020B5"></path>
                        <path d="M91.3064832,92.8356402 C91.3064832,92.8356402 67.345245,131.876434 70.2878575,132.716018 C73.23047,133.555603 100.554679,142.371269 101.815796,139.012921 C103.076913,135.654572 103.076913,120.122219 103.076913,120.122219 L91.3064832,92.8356402 Z" id="Path" fill="#000000" opacity="0.1"></path>
                        <path d="M153.521618,83.6001892 L207.749673,111.306557 C207.749673,111.306557 238.436869,119.282634 231.710911,125.579536 C224.984954,131.876439 203.125575,120.122224 203.125575,120.122224 L143.01231,92.8356402 L153.521618,83.6001892 Z" id="Path" fill="#A0616A"></path>
                        <path d="M84.1601466,61.7709284 C84.1601466,61.7709284 94.6694646,77.7230766 93.8287167,81.5012201 C93.8287167,81.5012201 94.6694646,84.0199892 93.4083428,85.6991686 C92.1472209,87.378348 92.5675949,97.4533836 92.5675949,97.4533836 L96.7713343,103.330511 L102.23618,85.279389 L104.758424,65.9688922 C104.758424,65.9688922 99.0833961,58.202713 99.9241389,54.4245747 C100.764882,50.6464363 84.1601466,61.7709284 84.1601466,61.7709284 Z" id="Path" fill="#A0616A"></path>
                        <path d="M117.369581,152.44631 C117.369581,152.44631 93.8287167,215.415328 93.8287167,243.121697 C93.8287167,270.828065 85.0008945,302.312571 91.7268521,305.251125 C98.4528097,308.189679 132.502992,308.609484 133.343735,305.251125 C134.184478,301.892766 129.139995,165.45991 126.617752,160.002617 C124.095508,154.545325 117.369581,152.44631 117.369581,152.44631 Z" id="Path" fill="#2020B5"></path>
                        <path d="M117.369581,152.44631 C117.369581,152.44631 93.8287167,215.415328 93.8287167,243.121697 C93.8287167,270.828065 85.0008945,302.312571 91.7268521,305.251125 C98.4528097,308.189679 132.502992,308.609484 133.343735,305.251125 C134.184478,301.892766 129.139995,165.45991 126.617752,160.002617 C124.095508,154.545325 117.369581,152.44631 117.369581,152.44631 Z" id="Path" fill="#000000" opacity="0.1"></path>
                        <ellipse id="Oval" fill="#A0616A" cx="89.6249926" cy="48.7573289" rx="15.5537849" ry="15.5323584"></ellipse>
                        <path d="M94.2490907,95.7741991 L93.1233767,86.3004412 C93.1233767,86.3004412 89.6249926,91.156471 89.6249926,94.9346094 C89.6249926,98.7127477 87.523128,112.146142 96.3509757,120.542008 C105.178823,128.937875 106.860294,130.617054 107.280663,132.296229 C107.701031,133.975403 109.802906,133.975408 109.802906,133.975408 L121.993679,183.091222 C121.993679,183.091222 125.777029,313.646987 131.662244,315.326156 C137.547459,317.005325 155.623482,315.326156 156.884599,313.227192 C158.145716,311.128228 154.782735,255.295696 154.782735,255.295696 C154.782735,255.295696 164.030931,304.83132 167.393912,304.83132 C170.756893,304.83132 172.858753,297.694833 172.01801,297.275013 C171.177267,296.855193 166.132775,264.531127 164.030931,254.456081 C161.929086,244.381035 162.769814,159.162971 162.769814,159.162971 C162.769814,159.162971 169.495772,148.248341 146.375286,126.838875 C146.375286,126.838875 131.662244,84.0199433 130.821501,84.0199433 C129.980759,84.0199433 113.586226,60.9313031 113.586226,60.9313031 C113.586226,60.9313031 104.33803,60.9313031 102.656539,66.3886208 C100.975048,71.8459385 94.2490907,95.7741991 94.2490907,95.7741991 Z" id="Path" fill="#2020B5"></path>
                        <path d="M108.541754,64.2896873 L113.586241,60.9313285 C113.586241,60.9313285 134.604867,73.5251332 149.317909,74.3647229 C164.030951,75.2043126 163.610572,83.600179 157.725357,89.4772865 C151.840142,95.354394 128.719637,115.504506 127.878894,110.466968 C127.038151,105.42943 108.541754,64.2896873 108.541754,64.2896873 Z" id="Path" fill="#2020B5"></path>
                        <ellipse id="Oval" fill="#2F2E41" cx="89.8351744" cy="33.4348679" rx="16.8149016" ry="10.0750407"></ellipse>
                        <ellipse id="Oval" fill="#2F2E41" cx="91.5166651" cy="15.8035454" rx="10.0889389" ry="10.0750407"></ellipse>
                        <path d="M78.0647448,10.3462328 C78.0650576,5.18829083 81.965851,0.86342708 87.1027591,0.325660888 C86.7536194,0.289457417 86.4028411,0.271275251 86.0518242,0.271186963 C80.4826581,0.275142949 75.9700566,4.78473457 75.9700566,10.3462302 C75.9700566,15.9077258 80.4826581,20.4173175 86.0518242,20.4212734 C86.4028411,20.4211852 86.7536194,20.403003 87.1027591,20.3667995 C81.965853,19.8290335 78.0650603,15.5041727 78.0647448,10.3462328 Z" id="Path" fill="#2F2E41"></path>
                        <g id="Group-3" transform="translate(129.167210, 214.677800) rotate(-9.000000) translate(-129.167210, -214.677800) translate(16.167210, 134.677800)">
                            <path d="M5.84193548,0.0200707534 L219.543835,-0.000363296951 C222.76476,-0.000657768029 225.376074,2.61017884 225.376369,5.83110349 C225.376369,5.83140234 225.376369,5.83170119 225.376369,5.83200004 L225.365367,153.632298 C225.365166,156.852873 222.754474,159.46364 219.5339,159.463935 L5.83200006,159.485266 C2.61107541,159.48556 -0.000238634014,156.874723 -0.000533105093,153.653799 C-0.000533132415,153.6535 -0.000533136766,153.653201 -0.000533118146,153.652902 L0.0104687639,5.85260398 C0.0106694235,2.63202945 2.62136104,0.0212618143 5.84193557,0.0209673752 Z" id="Rectangle" fill="#2677FF"></path>
                            <path d="M123.895001,80.1065719 C123.895001,86.4233553 118.708425,91.5042463 112.338336,91.5042463 C105.968246,91.5042463 100.78167,86.389025 100.78167,80.1065719 C100.78167,71.5583162 97.8925034,68.7088976 89.2250042,68.7088976 C80.5575049,68.7088976 77.6683385,71.5583162 77.6683385,80.1065719 C77.6683385,86.4233553 72.4817626,91.5042463 66.1116728,91.5042463 C59.741583,91.5042463 54.5550071,86.389025 54.5550071,80.1065719 C54.5550071,73.7897885 59.741583,68.7088976 66.1116728,68.7088976 C74.7791721,68.7088976 77.6683385,65.859479 77.6683385,57.3112232 C77.6683385,50.9944398 82.8549144,45.9135488 89.2250042,45.9135488 C95.595094,45.9135488 100.78167,51.0287701 100.78167,57.3112232 C100.78167,65.859479 103.670836,68.7088976 112.338336,68.7088976 C118.743235,68.7088976 123.895001,73.7897885 123.895001,80.1065719 Z M42.928723,114.333925 C36.5461528,114.333925 31.3720573,109.231013 31.3720573,102.936251 C31.3720573,96.6414893 36.5461528,91.5385767 42.928723,91.5385767 C49.3112932,91.5385767 54.4853887,96.6414893 54.4853887,102.936251 C54.4853887,109.231013 49.3112932,114.333925 42.928723,114.333925 Z M193.339423,57.2768928 C193.339423,63.5936762 188.152847,68.6745672 181.782757,68.6745672 C173.115258,68.6745672 170.226092,71.5239858 170.226092,80.0722416 C170.226092,86.389025 165.039516,91.469916 158.669426,91.469916 C150.001927,91.469916 147.11276,94.3193346 147.11276,102.86759 C147.11276,109.184374 141.926184,114.265265 135.556095,114.265265 C129.186005,114.265265 123.999429,109.150043 123.999429,102.86759 C123.999429,96.550807 129.186005,91.469916 135.556095,91.469916 C144.223594,91.469916 147.11276,88.6204974 147.11276,80.0722416 C147.11276,73.7554582 152.299336,68.6745672 158.669426,68.6745672 C167.336925,68.6745672 170.226092,65.8251486 170.226092,57.2768928 C170.226092,50.9601095 175.412667,45.8792185 181.782757,45.8792185 C188.152847,45.8792185 193.339423,50.9944398 193.339423,57.2768928 Z" id="Combined-Shape" fill-opacity="0.1" fill="#000000"></path>
                            <path d="M101.303209,83.4941808 C100.964336,82.4234825 100.78167,81.2855815 100.78167,80.1065719 C100.78167,79.2802111 100.75467,78.5071065 100.698061,77.7846841 C101.115001,79.2642579 101.300055,81.0626572 101.300055,83.2260714 C101.300055,83.3156825 101.30111,83.4050561 101.303209,83.4941808 Z M55.0765461,83.4941808 C54.7376728,82.4234825 54.5550071,81.2855815 54.5550071,80.1065719 C54.5550071,73.7897885 59.741583,68.7088976 66.1116728,68.7088976 C74.7791721,68.7088976 77.6683385,65.859479 77.6683385,57.3112232 C77.6683385,50.9944398 82.8549144,45.9135488 89.2250042,45.9135488 C95.5042329,45.9135488 100.633469,50.8838868 100.778516,57.0431138 C99.3116736,52.408505 94.9180228,49.0330483 89.7433891,49.0330483 C83.3732993,49.0330483 78.1867234,54.1139393 78.1867234,60.4307227 C78.1867234,68.9789785 75.297557,71.828397 66.6300578,71.828397 C60.2599679,71.828397 55.0733921,76.909288 55.0733921,83.2260714 C55.0733921,83.3156825 55.0744473,83.4050561 55.0765461,83.4941808 Z M101.383664,62.7526105 C102.614172,67.1192477 105.864429,68.7088976 112.338336,68.7088976 C118.644232,68.7088976 123.735437,73.6339288 123.891323,79.8145508 C122.428608,75.175831 118.055464,71.828397 112.85672,71.828397 C105.027109,71.828397 101.912646,69.5032575 101.383664,62.7526105 Z M31.89378,106.332406 C31.5547342,105.259731 31.3720573,104.119031 31.3720573,102.936251 C31.3720573,96.6414893 36.5461528,91.5385767 42.928723,91.5385767 C49.2175234,91.5385767 54.333097,96.4926514 54.4820509,102.659596 C53.0166921,98.0234878 48.6303994,94.6580761 43.4471079,94.6580761 C37.0645377,94.6580761 31.8904423,99.7609888 31.8904423,106.055751 C31.8904423,106.14823 31.891559,106.240453 31.89378,106.332406 Z M124.520968,106.255199 C124.182095,105.184501 123.999429,104.0466 123.999429,102.86759 C123.999429,96.550807 129.186005,91.469916 135.556095,91.469916 C144.223594,91.469916 147.11276,88.6204974 147.11276,80.0722416 C147.11276,73.7554582 152.299336,68.6745672 158.669426,68.6745672 C167.336925,68.6745672 170.226092,65.8251486 170.226092,57.2768928 C170.226092,50.9601095 175.412667,45.8792185 181.782757,45.8792185 C188.061986,45.8792185 193.191223,50.8495565 193.336269,57.0087835 C191.869427,52.3741747 187.475776,48.998718 182.301142,48.998718 C175.931052,48.998718 170.744477,54.0796089 170.744477,60.3963923 C170.744477,68.9446481 167.85531,71.7940667 159.187811,71.7940667 C152.817721,71.7940667 147.631145,76.8749577 147.631145,83.1917411 C147.631145,91.7399969 144.741979,94.5894155 136.07448,94.5894155 C129.70439,94.5894155 124.517814,99.6703064 124.517814,105.98709 C124.517814,106.076701 124.518869,106.166075 124.520968,106.255199 Z" id="Combined-Shape" fill-opacity="0.1" fill="#000000"></path>
                        </g>
                    </g>
                </g>
            </g>
        </g>
    </g>
</svg>