<?xml version="1.0" encoding="UTF-8"?>
<svg width="288px" height="376px" viewBox="0 0 288 376" version="1.1" xmlns="http://www.w3.org/2000/svg" xmlns:xlink="http://www.w3.org/1999/xlink">
    <!-- Generator: Sketch 53.2 (72643) - https://sketchapp.com -->
    <title>cup</title>
    <desc>Created with Sketch.</desc>
    <defs>
        <linearGradient x1="81.4343634%" y1="0%" x2="18.5656366%" y2="100%" id="linearGradient-1">
            <stop stop-color="#2677FF" offset="0%"></stop>
            <stop stop-color="#2020B5" offset="100%"></stop>
        </linearGradient>
        <path d="M156.032282,206.140351 C156.032282,211.923032 151.368061,216.574319 145.639521,216.574319 C139.910981,216.574319 135.24676,211.891605 135.24676,206.140351 C135.24676,198.314874 132.648569,195.706382 124.853999,195.706382 C117.059428,195.706382 114.461237,198.314874 114.461237,206.140351 C114.461237,211.923032 109.797016,216.574319 104.068476,216.574319 C98.3399364,216.574319 93.6757153,211.891605 93.6757153,206.140351 C93.6757153,200.357669 98.3399364,195.706382 104.068476,195.706382 C111.863047,195.706382 114.461237,193.09789 114.461237,185.272414 C114.461237,179.489732 119.125459,174.838445 124.853999,174.838445 C130.582539,174.838445 135.24676,179.52116 135.24676,185.272414 C135.24676,193.09789 137.84495,195.706382 145.639521,195.706382 C151.399364,195.706382 156.032282,200.357669 156.032282,206.140351 Z M83.2203473,237.473684 C77.4805838,237.473684 72.8275862,232.802237 72.8275862,227.039716 C72.8275862,221.277194 77.4805838,216.605747 83.2203473,216.605747 C88.9601107,216.605747 93.6131083,221.277194 93.6131083,227.039716 C93.6131083,232.802237 88.9601107,237.473684 83.2203473,237.473684 Z M218.482759,185.240986 C218.482759,191.023667 213.818538,195.674955 208.089998,195.674955 C200.295427,195.674955 197.697236,198.283447 197.697236,206.108923 C197.697236,211.891605 193.033015,216.542892 187.304475,216.542892 C179.509905,216.542892 176.911714,219.151384 176.911714,226.97686 C176.911714,232.759542 172.247493,237.410829 166.518953,237.410829 C160.790413,237.410829 156.126192,232.728114 156.126192,226.97686 C156.126192,221.194179 160.790413,216.542892 166.518953,216.542892 C174.313524,216.542892 176.911714,213.9344 176.911714,206.108923 C176.911714,200.326242 181.575935,195.674955 187.304475,195.674955 C195.099046,195.674955 197.697236,193.066463 197.697236,185.240986 C197.697236,179.458305 202.361458,174.807018 208.089998,174.807018 C213.818538,174.807018 218.482759,179.489732 218.482759,185.240986 Z" id="path-2"></path>
        <filter x="-1.4%" y="-3.2%" width="102.7%" height="106.4%" filterUnits="objectBoundingBox" id="filter-3">
            <feGaussianBlur stdDeviation="2" in="SourceAlpha" result="shadowBlurInner1"></feGaussianBlur>
            <feOffset dx="0" dy="0" in="shadowBlurInner1" result="shadowOffsetInner1"></feOffset>
            <feComposite in="shadowOffsetInner1" in2="SourceAlpha" operator="arithmetic" k2="-1" k3="1" result="shadowInnerInner1"></feComposite>
            <feColorMatrix values="0 0 0 0 0   0 0 0 0 0   0 0 0 0 0  0 0 0 0.35 0" type="matrix" in="shadowInnerInner1"></feColorMatrix>
        </filter>
    </defs>
    <g id="Page-1" stroke="none" stroke-width="1" fill="none" fill-rule="evenodd">
        <g id="desktop-copy" transform="translate(-298.000000, -4507.000000)">
            <g id="Group-20" transform="translate(0.000000, 4507.000000)">
                <g id="Group-15" transform="translate(298.000000, 0.000000)">
                    <g id="cup">
                        <path d="M24.8580289,46.1754386 L263.141971,46.1754386 C268.60959,46.1754386 273.041971,50.6078196 273.041971,56.0754386 C273.041971,56.6011671 273.000094,57.1260603 272.916737,57.6451383 L223.130841,367.6697 C222.359994,372.469886 218.217761,376 213.356075,376 L74.6439247,376 C69.7822387,376 65.6400063,372.469886 64.8691591,367.6697 L15.0832633,57.6451383 C14.2163421,52.2466843 17.8898752,47.1675942 23.2883292,46.300673 C23.8074072,46.2173158 24.3323004,46.1754386 24.8580289,46.1754386 Z" id="Rectangle" fill="url(#linearGradient-1)"></path>
                        <path d="M246.590247,46.1754386 L263.141971,46.1754386 C268.60959,46.1754386 273.041971,50.6078196 273.041971,56.0754386 C273.041971,56.6011671 273.000094,57.1260603 272.916737,57.6451383 L223.130841,367.6697 C222.359994,372.469886 218.217761,376 213.356075,376 L196.804351,376 C201.666037,376 205.80827,372.469886 206.579117,367.6697 L256.365013,57.6451383 C256.44837,57.1260603 256.490247,56.6011671 256.490247,56.0754386 C256.490247,50.6078196 252.057866,46.1754386 246.590247,46.1754386 Z" id="Combined-Shape" fill-opacity="0.05" fill="#000000"></path>
                        <path d="M41.409753,46.1754386 C40.8840246,46.1754386 40.3591314,46.2173158 39.8400533,46.300673 C34.4415994,47.1675942 30.7680662,52.2466843 31.6349874,57.6451383 L81.4208833,367.6697 C82.1917304,372.469886 86.3339628,376 91.1956489,376 L74.6439247,376 C69.7822387,376 65.6400063,372.469886 64.8691591,367.6697 L15.0832633,57.6451383 C14.2163421,52.2466843 17.8898752,47.1675942 23.2883292,46.300673 C23.8074072,46.2173158 24.3323004,46.1754386 24.8580289,46.1754386 L41.409753,46.1754386 Z" id="Combined-Shape" fill-opacity="0.1" fill="#FFFFFF"></path>
                        <path d="M60.4593783,-2.24444245e-13 L226.487849,-2.18491891e-13 C230.365118,-2.29535255e-13 233.885512,2.26339098 235.494811,5.79090783 L259.565244,58.5523113 C261.834633,63.526719 259.641782,69.3989764 254.667374,71.6683653 C253.377428,72.2568552 251.976125,72.5614035 250.558282,72.5614035 L36.3889454,72.5614035 C30.9213264,72.5614035 26.4889454,68.1290225 26.4889454,62.6614035 C26.4889454,61.24356 26.7934937,59.842257 27.3819836,58.5523113 L51.4524165,5.79090783 C53.0617152,2.26339098 56.582109,-2.28437789e-13 60.4593783,-2.29150032e-13 Z" id="Rectangle" fill="#E0E0E0"></path>
                        <path d="M226.232234,2.34467204e-13 L226.487849,2.34479103e-13 C230.365118,2.3376686e-13 233.885512,2.26339098 235.494811,5.79090783 L259.565244,58.5523113 C261.834633,63.526719 259.641782,69.3989764 254.667374,71.6683653 C253.377428,72.2568552 251.976125,72.5614035 250.558282,72.5614035 L36.3889454,72.5614035 C30.9213264,72.5614035 26.4889454,68.1290225 26.4889454,62.6614035 C26.4889454,61.24356 26.7934937,59.842257 27.3819836,58.5523113 L37.5425792,36.2807018 L227.385868,36.2807018 C228.803712,36.2807018 230.205015,35.9761535 231.49496,35.3876636 C236.469368,33.1182746 238.662219,27.2460172 236.39283,22.2716096 L226.232234,2.30926389e-13 Z" id="Combined-Shape" fill-opacity="0.05" fill="#000000"></path>
                        <rect id="Rectangle" fill="#E0E0E0" x="0" y="42.877193" width="288" height="29.6842105" rx="9.9"></rect>
                        <path d="M288,52.777193 L288,62.6614035 C288,68.1290225 283.567619,72.5614035 278.1,72.5614035 L9.9,72.5614035 C4.43238098,72.5614035 6.6504145e-15,68.1290225 3.55271368e-15,62.6614035 L0,52.777193 C0.00568995856,58.2399734 4.43589017,62.6666667 9.9,62.6666667 L278.1,62.6666667 C283.56411,62.6666667 287.99431,58.2399734 287.999995,52.777193 Z" id="Combined-Shape" fill-opacity="0.05" fill="#000000"></path>
                        <path d="M27.694628,151.719298 L260.305372,151.719298 C263.950451,151.719298 266.905372,154.674219 266.905372,158.319298 C266.905372,158.694381 266.873398,159.068782 266.809797,159.438433 L249.218886,261.677029 C248.674026,264.843764 245.927727,267.157895 242.714461,267.157895 L45.2855388,267.157895 C42.0722727,267.157895 39.3259745,264.843764 38.7811143,261.677029 L21.1902035,159.438433 C20.5721225,155.846138 22.9831989,152.432955 26.5754934,151.814874 C26.9451447,151.751273 27.319545,151.719298 27.694628,151.719298 Z" id="Rectangle" fill="#E0E0E0"></path>
                        <g id="Combined-Shape" fill-rule="nonzero">
                            <use fill="#2677FF" xlink:href="#path-2"></use>
                            <use fill="black" fill-opacity="1" filter="url(#filter-3)" xlink:href="#path-2"></use>
                        </g>
                        <path d="M240.443303,151.719298 L260.305372,151.719298 C263.950451,151.719298 266.905372,154.674219 266.905372,158.319298 C266.905372,158.694381 266.873398,159.068782 266.809797,159.438433 L249.218886,261.677029 C248.674026,264.843764 245.927727,267.157895 242.714461,267.157895 L222.852392,267.157895 C226.065658,267.157895 228.811957,264.843764 229.356817,261.677029 L246.947728,159.438433 C247.011329,159.068782 247.043303,158.694381 247.043303,158.319298 C247.043303,154.674219 244.088382,151.719298 240.443303,151.719298 Z" id="Combined-Shape" fill-opacity="0.05" fill="#000000"></path>
                        <path d="M47.5566969,151.719298 C47.181614,151.719298 46.8072136,151.751273 46.4375623,151.814874 C42.8452679,152.432955 40.4341915,155.846138 41.0522724,159.438433 L58.6431832,261.677029 C59.1880434,264.843764 61.9343417,267.157895 65.1476077,267.157895 L45.2855388,267.157895 C42.0722727,267.157895 39.3259745,264.843764 38.7811143,261.677029 L21.1902035,159.438433 C20.5721225,155.846138 22.9831989,152.432955 26.5754934,151.814874 C26.9451447,151.751273 27.319545,151.719298 27.694628,151.719298 L47.5566969,151.719298 Z" id="Combined-Shape" fill-opacity="0.3" fill="#FFFFFF"></path>
                    </g>
                </g>
            </g>
        </g>
    </g>
</svg>