<?xml version="1.0" encoding="UTF-8"?>
<svg width="257px" height="512px" viewBox="0 0 257 512" version="1.1" xmlns="http://www.w3.org/2000/svg" xmlns:xlink="http://www.w3.org/1999/xlink">
    <!-- Generator: Sketch 53.2 (72643) - https://sketchapp.com -->
    <title>iphone</title>
    <desc>Created with Sketch.</desc>
    <defs>
        <linearGradient x1="62.5831456%" y1="0%" x2="37.4168544%" y2="100%" id="linearGradient-1">
            <stop stop-color="#2020B5" offset="0%"></stop>
            <stop stop-color="#2677FF" offset="100%"></stop>
        </linearGradient>
        <linearGradient x1="83.1768087%" y1="0%" x2="16.8231913%" y2="100%" id="linearGradient-2">
            <stop stop-color="#2020B5" offset="0%"></stop>
            <stop stop-color="#2677FF" offset="100%"></stop>
        </linearGradient>
    </defs>
    <g id="Page-1" stroke="none" stroke-width="1" fill="none" fill-rule="evenodd">
        <g id="iphone" fill-rule="nonzero">
            <path d="M1.98,68.76 L1.98,37.83 C1.98,16.9370679 18.9170679,-1.03728854e-14 39.81,-1.42108547e-14 L217.3,0 C238.192932,-3.83796936e-15 255.13,16.9370679 255.13,37.83 L255.13,119.31 L255.56,119.31 C256.272447,119.31 256.85,119.887553 256.85,120.6 L256.85,178.42 C256.85,179.132447 256.272447,179.71 255.56,179.71 L255.13,179.71 L255.13,474.17 C255.13,495.062932 238.192932,512 217.3,512 L39.81,512 C18.9170679,512 1.98,495.062932 1.98,474.17 L1.98,191.438079 C0.878524538,191.390959 -6.54895272e-13,190.483074 -6.55031585e-13,189.37 L-6.55031585e-13,154.87 C-6.55167897e-13,153.756926 0.878524538,152.849041 1.98,152.801921 L1.98,142.838079 C0.878524538,142.790959 -6.54895272e-13,141.883074 -6.55031585e-13,140.77 L-6.55031585e-13,106.27 C-6.55167897e-13,105.156926 0.878524538,104.249041 1.98,104.201921 L1.98,88.6 L1.95,88.6 C0.873044738,88.6 -6.55343785e-13,87.7269553 -6.55475674e-13,86.65 L-6.55031585e-13,70.71 C-6.55163474e-13,69.6330447 0.873044738,68.76 1.95,68.76 L1.98,68.76 Z" id="Combined-Shape" fill="url(#linearGradient-1)"></path>
            <path d="M63.7299121,13.4 L65,19.63 C66.1874181,25.5540074 71.3782108,29.825336 77.42,29.85 L178.27,29.85 C184.324472,29.8434697 189.533879,25.5671537 190.72,19.63 L191.96819,13.4 L219,13.4 C232.195996,13.4220209 242.887979,24.1140037 242.91,37.31 L242.87,37.3 L242.87,476.17 C242.87001,489.357899 232.187888,500.053446 219,500.07 L38.15,500.07 C31.8061296,500.077963 25.7193612,497.56345 21.2307512,493.080468 C16.7421412,488.597485 14.219995,482.513875 14.22,476.17 L14.22,37.3 C14.2310413,24.0932544 24.9432509,13.3944742 38.15,13.4 L63.7299121,13.4 Z" id="Combined-Shape" fill="#FFFFFF"></path>
            <path d="M144.8,247.88 C144.73,240.28 151,236.64 151.28,236.46 C148.762906,232.839216 144.686984,230.615986 140.28,230.46 C135.61,229.99 131.16,233.21 128.78,233.21 C126.4,233.21 122.78,230.53 118.88,230.61 C113.707606,230.75605 108.993524,233.612609 106.47,238.13 C101.17,247.33 105.12,260.93 110.27,268.36 C112.79,272.01 115.8,276.1 119.74,275.96 C123.68,275.82 124.98,273.5 129.57,273.5 C134.16,273.5 135.47,275.96 139.47,275.88 C143.47,275.8 146.15,272.18 148.65,268.51 C150.435459,265.880523 151.833124,263.007732 152.8,259.98 C147.961809,257.901643 144.813483,253.1556 144.78,247.89 L144.8,247.88 Z M137.25,225.58 C139.514757,222.924241 140.636435,219.480114 140.37,216 C136.952391,216.33132 133.79032,217.95528 131.53,220.54 C129.59,222.79 127.89,226.38 128.35,229.84 C131.71,230.1 135.15,228.14 137.25,225.59 L137.25,225.58 Z" id="Shape" fill="url(#linearGradient-2)"></path>
            <path d="M242.87,37.3 L242.87,476.17 C242.87001,489.357899 232.187888,500.053446 219,500.07 L38.15,500.07 C33.708528,500.066712 29.3545694,498.83459 25.57,496.51 L232.8,17.83 C239.123707,22.300316 242.87952,29.5657828 242.87,37.31 L242.87,37.3 Z" id="Path" fill="#000000" opacity="0.05"></path>
        </g>
    </g>
</svg>