<?xml version="1.0" encoding="UTF-8"?>
<svg width="97px" height="98px" viewBox="0 0 97 98" version="1.1" xmlns="http://www.w3.org/2000/svg" xmlns:xlink="http://www.w3.org/1999/xlink">
    <!-- Generator: Sketch 53.2 (72643) - https://sketchapp.com -->
    <title>linux</title>
    <desc>Created with Sketch.</desc>
    <defs>
        <radialGradient cx="50%" cy="50%" fx="50%" fy="50%" r="50%" id="radialGradient-1">
            <stop stop-color="#FFFFFF" stop-opacity="0.01" offset="0%"></stop>
            <stop stop-color="#FFFFFF" stop-opacity="0" offset="100%"></stop>
        </radialGradient>
        <linearGradient x1="82.8950617%" y1="0%" x2="17.1049383%" y2="100%" id="linearGradient-2">
            <stop stop-color="#2020B5" offset="0%"></stop>
            <stop stop-color="#2677FF" offset="100%"></stop>
        </linearGradient>
    </defs>
    <g id="Page-1" stroke="none" stroke-width="1" fill="none" fill-rule="evenodd">
        <g id="desktop-copy" transform="translate(-1021.000000, -3519.000000)">
            <g id="Group-17" transform="translate(250.000000, 3015.000000)">
                <g id="Group-35" transform="translate(0.000000, 186.000000)">
                    <g id="Group-32-Copy-3" transform="translate(550.000000, 317.000000)">
                        <g id="linux" transform="translate(220.000000, 0.000000)">
                            <rect id="Rectangle" fill="url(#radialGradient-1)" x="0" y="0" width="100" height="100"></rect>
                            <path d="M54.2949211,5.00219696 C54.8219776,4.98013558 55.3608178,5.13036304 55.8851962,5.17816269 C56.7620167,5.36253275 57.6532992,5.6083595 58.4829847,5.95713933 C59.007363,6.16987401 59.4685374,6.52705818 60.0009502,6.70039755 C60.7165472,7.05495536 61.2028961,7.68948253 61.8777854,8.08291038 C62.3421736,8.55775521 62.7294316,8.87606933 63.1772153,9.35669214 C63.4075347,9.63613623 63.6105372,9.88774095 63.8269303,10.1724377 C63.914773,10.5301472 64.2602521,10.789631 64.367913,11.1609974 C64.5532398,11.5743856 64.7246403,12.0297954 64.8012349,12.5072666 C64.9265715,13.0461945 65.0492299,13.5909003 65.0545862,14.1356062 C64.9753135,18.3566826 64.9206796,22.5824864 65.0545862,26.8114418 C65.2741931,28.0573843 65.1568909,29.356379 65.5254019,30.5629261 C65.7107287,31.4648161 65.8467778,32.3898181 66.2452839,33.113116 C66.9324927,34.3228147 67.4734755,35.6128799 68.2340651,36.8309829 C68.6523894,37.2753621 68.9769791,37.7722683 69.3878046,38.2471131 C70.2099913,39.4037595 70.8972001,40.7552813 71.7718781,41.8226316 C72.3326791,42.923074 72.9443645,43.9988287 73.5742613,45.0798361 C74.0440058,46.4681269 74.8506593,47.7413834 75.200959,49.1858781 C75.6642759,50.8121166 76.1779417,52.4094652 76.4280793,54.2137705 C76.9669196,57.0707186 77.3456075,59.9035042 77.6894797,62.7814631 C77.6696615,64.33679 77.4709441,65.8984202 77.5470031,67.4542724 C77.4018483,67.9763916 77.5020104,68.4843285 77.36489,69.0127509 C77.1967033,69.7444532 76.7665952,70.415224 76.6075142,71.138522 C76.672325,71.5435058 76.4591456,71.9316809 76.5362759,72.3419174 C76.8753274,73.0210926 76.9005019,73.8005945 77.0772586,74.5354484 C77.3595338,74.7024846 77.5073667,75.034981 77.8346345,75.2456146 C78.3932929,75.1442373 78.9310619,75.4047717 79.4961479,75.3154756 C80.1678235,75.1389846 80.868423,75.1531669 81.5181379,75.0334052 C82.3151502,74.9462102 83.0987717,75.1810063 83.8989977,75.1032662 C84.4201623,75.4263078 85.0238134,75.6726598 85.4882015,75.9888728 C85.9043833,76.2320732 86.0784619,76.7541924 86.5,77.0504452 C86.3548452,77.7448532 86.5166044,78.4744544 86.3200295,79.1394473 C85.5910418,80.1285322 84.9590026,81.2069133 84.2610812,82.1844423 C83.0843098,83.3353107 82.1448209,84.7010148 81.0108996,85.9023092 C79.632197,87.2953275 78.4131111,88.8044306 77.0060203,90.1864181 C75.3541482,91.1140464 74.1377404,92.5748246 72.565141,93.6201135 C71.8591853,93.9237201 71.2919568,94.4768303 70.543151,94.6112996 C69.9218242,94.8009224 69.2383648,94.9191083 68.5918636,95 L66.8971414,95 C66.3700849,94.823509 65.7808957,94.8009224 65.2704437,94.6112996 C64.9431759,94.4248284 64.5843061,94.3434115 64.2597165,94.187406 C63.6582079,93.8486063 63.2280998,93.3264871 62.6726552,92.9461911 C62.5419623,92.5748246 62.199697,92.3069365 61.9484881,91.9912487 C61.6555004,91.3572468 61.3534071,90.7232449 61.1911123,90.0451203 C61.1878985,89.7147249 61.0684538,89.4274018 61.0111418,89.1227447 C59.6217266,89.2346274 58.2178496,89.2624667 56.8225425,89.4079667 C55.3779579,89.3349541 53.9312307,89.3207718 52.4893242,89.3349541 C50.6124889,89.0691671 48.7324399,88.9830226 46.8582828,88.5922211 C45.5218947,88.2928168 44.2005041,88.0107463 42.8871479,87.5999845 C41.907487,87.1834448 40.876406,86.8430693 39.9278115,86.4323075 C39.7799786,86.2169464 39.458067,86.1922587 39.3123766,86.0073634 C38.8479885,86.3818815 38.5860671,86.9349917 38.1216789,87.3872499 C37.7970893,88.2334612 37.2330746,88.9761941 36.7858264,89.7619993 C36.6004997,89.9794614 36.3273302,90.1885192 36.316082,90.4679633 C35.9282884,90.7841763 35.640657,91.1051168 35.2673253,91.4601999 C34.569404,91.7259869 33.9539691,92.2029328 33.2105196,92.2727938 C33.0225147,92.5044383 32.5356302,92.2565105 32.3444115,92.4881549 C31.7038022,92.635756 31.0653354,92.3258462 30.430618,92.4513859 C29.6561021,92.1110104 28.8012422,91.885144 28.0835027,91.5300609 C26.7878222,90.808864 25.4942842,90.0997484 24.1841418,89.4400083 C21.5672419,87.5347306 18.9917308,85.5753824 16.4593364,83.5632782 C15.6644667,82.7864026 14.8701326,82.0069007 14.0752629,81.2284494 C13.8588698,80.6075792 13.6365848,80.00772 13.5,79.3868498 C13.6622948,78.9403696 13.8192334,78.5322342 13.9333218,78.0768244 C14.1523931,77.8851005 14.357538,77.5935752 14.5825012,77.4039524 C14.8674545,76.8345589 15.659646,76.8088206 16.1722406,76.5545895 C16.7592872,76.359714 17.3227663,76.3728458 17.9039211,76.270418 C18.6045205,76.2672664 19.1176507,75.8848692 19.7100536,75.7761381 C19.7641519,75.5639287 19.9291249,75.4357626 19.9976851,75.2088456 C20.1342698,74.4661127 19.781292,73.7202281 19.8525303,72.9795962 C20.0260733,72.5578038 20.1546236,72.1444156 20.3222747,71.7031881 C20.4422551,71.3932783 20.7780929,71.0802169 21.0459061,70.9263126 C21.256943,70.8532999 21.3083631,70.6584244 21.5874245,70.6778595 C22.1633581,70.6242719 22.7431714,70.6242719 23.319105,70.6778595 C23.8600878,70.8674822 24.4069624,71.0492259 24.9425889,71.278244 C25.2071884,71.4064101 25.6148002,71.32867 25.9538517,71.3512567 C26.2843333,71.1390472 26.4578763,70.6442421 26.7856797,70.46565 C27.1847108,69.6143602 27.6940055,68.8170794 28.3009671,68.093527 C28.47451,68.0184132 28.5120039,67.8419222 28.6994732,67.8093555 C28.9560383,67.6670071 28.8623036,67.300368 28.8789081,67.1722019 C28.6084167,65.454041 28.8274879,63.7253747 28.8076697,62.0014359 C28.9474682,60.6299537 29.0979793,59.2253795 29.3491881,57.8959191 C29.5939694,56.652603 29.9362348,55.417166 30.1778023,54.1780521 C30.7021807,52.688384 31.3711782,51.1997665 31.9469766,49.7526454 C34.7922246,44.0849731 38.0166961,38.6158532 41.0103126,33.043255 C41.5684355,32.2637531 41.9701553,31.3923288 42.5256,30.6354135 L42.5256,30.4930651 C42.4286516,29.7555849 42.7789513,29.0128519 42.6707548,28.297433 L42.6707548,22.2079683 C42.5229219,20.9341865 42.6450447,19.6546268 42.5256,18.3839966 C42.5025681,18.2416482 42.4741799,18.1019262 42.4543617,17.9595778 L42.4543617,14.3478156 C42.5598801,14.3199762 42.5111381,14.2558932 42.5256,14.2080935 C42.4313297,13.8535357 42.6846811,13.601931 42.5968383,13.2499995 C42.7901995,12.8450157 42.8785779,12.3733225 42.9583862,11.9399741 C43.3874827,11.0511284 43.9470874,10.2287466 44.619364,9.49904054 C45.2342632,8.88710002 45.9155801,8.38704219 46.5706513,7.83445728 C47.4506857,7.13322072 48.4619485,6.61372787 49.4587494,6.09948772 C50.1250688,5.88727831 50.7003316,5.52116454 51.478597,5.39247319 C52.3870195,5.10830167 53.358646,4.98538829 54.2949211,5.00219696 L54.2949211,5.00219696 Z" id="Path" fill="url(#linearGradient-2)" fill-rule="nonzero"></path>
                        </g>
                    </g>
                </g>
            </g>
        </g>
    </g>
</svg>