<svg xmlns="http://www.w3.org/2000/svg" width="154" height="33"><defs><linearGradient x1="100%" y1="41.0188715%" x2="0%" y2="58.9811285%" id="A"><stop stop-color="#2020b5" offset="0%"/><stop stop-color="#2677ff" offset="100%"/></linearGradient></defs><g fill-rule="nonzero"><path d="M44.03 16.333c0 3.014-2.468 5.44-5.5 5.44s-5.5-2.44-5.5-5.44c0-4.08-1.375-5.44-5.5-5.44s-5.5 1.36-5.5 5.44c0 3.014-2.468 5.44-5.5 5.44s-5.5-2.44-5.5-5.44c0-3.014 2.468-5.44 5.5-5.44 4.125 0 5.5-1.36 5.5-5.44 0-3.014 2.468-5.44 5.5-5.44s5.5 2.44 5.5 5.44c0 4.08 1.375 5.44 5.5 5.44 3.048 0 5.5 2.425 5.5 5.44zM5.5 32.667c-3.037 0-5.5-2.435-5.5-5.44s2.462-5.44 5.5-5.44 5.5 2.435 5.5 5.44-2.462 5.44-5.5 5.44zM77.077 5.44c0 3.014-2.468 5.44-5.5 5.44-4.125 0-5.5 1.36-5.5 5.44 0 3.014-2.468 5.44-5.5 5.44-4.125 0-5.5 1.36-5.5 5.44 0 3.014-2.468 5.44-5.5 5.44s-5.5-2.44-5.5-5.44c0-3.014 2.468-5.44 5.5-5.44 4.125 0 5.5-1.36 5.5-5.44 0-3.014 2.468-5.44 5.5-5.44 4.125 0 5.5-1.36 5.5-5.44 0-3.014 2.468-5.44 5.5-5.44s5.5 2.44 5.5 5.44z" fill="url(#A)"/><path d="M89 2h5.72c1.517 0 2.696.37 3.536 1.107s1.26 1.783 1.26 3.137-.424 2.405-1.27 3.157-2.023 1.127-3.526 1.127h-4.04v5.925H89V2zm5.555 7.134c2.2 0 3.3-.963 3.3-2.9 0-1.9-1.1-2.85-3.3-2.85H90.68v5.74h3.874zm18.716 7.32l-1.6-3.7h-7.544l-1.6 3.7h-1.722L107.163 2h1.456l6.355 14.453h-1.702zm-8.548-5.104h6.355l-3.177-7.4-3.177 7.4zM117.126 2h5.72c1.517 0 2.696.37 3.536 1.107s1.26 1.783 1.26 3.137-.424 2.405-1.27 3.157-2.023 1.127-3.526 1.127h-4.038v5.925h-1.68V2zm5.555 7.134c2.2 0 3.3-.963 3.3-2.9 0-1.9-1.1-2.85-3.3-2.85h-3.874v5.74h3.874zm7.667 7.32V2h9.143v1.394h-7.482v5.022h7.072V9.8h-7.072v5.248h7.482v1.394h-9.143zm23.308 0h-1.845l-2.46-4.633c-.3-.56-.653-.946-1.056-1.158s-.953-.318-1.65-.318h-2.706v6.1h-1.66V2h5.945c1.572 0 2.77.348 3.598 1.046s1.24 1.722 1.24 3.075c0 1.12-.318 2.026-.953 2.716s-1.54 1.124-2.716 1.302a2.43 2.43 0 0 1 .974.553c.28.26.536.608.77 1.046l2.52 4.715zM148.08 8.95c1.12 0 1.958-.232 2.5-.697s.83-1.168.83-2.112c0-.93-.273-1.62-.82-2.07s-1.387-.676-2.52-.676h-4.14V8.95h4.14zM102.7 21h2.34l-3.966 11.14H99.11l-2.576-7.38-2.607 7.38H91.95L88 21h2.497l2.544 7.695 2.7-7.695h1.722l2.607 7.774L102.7 21zm12.23 11.14l-1.06-2.465h-5.18l-1.06 2.465h-2.48L110.28 21h1.975l5.12 11.14h-2.433zm-5.435-4.33h3.57l-1.785-4.17-1.785 4.17zm8.8 4.33V21h2.465v9.133h4.977v2.007h-7.442zm8.896 0V21h2.465v9.133h4.977v2.007H127.2zm8.896 0V21h7.68v1.912H138.5v2.607h4.96v1.912h-4.96v2.797h5.277v1.912h-7.68zm11.945 0v-9.133h-3.492V21H154v2.007h-3.492v9.133h-2.465z" fill="#36363c"/></g></svg>