<svg id="Layer_1" viewBox="0 0 3700.08 1000.08" xmlns="http://www.w3.org/2000/svg" xmlns:xlink="http://www.w3.org/1999/xlink" data-name="Layer 1"><defs><radialGradient id="radial-gradient" cx="-588.85" cy="-3273.64" gradientTransform="matrix(70.62 0 0 -70.62 43434.6 -230684.45)" gradientUnits="userSpaceOnUse" r="25.96"><stop offset=".27" stop-color="#4a90e2"/><stop offset="1" stop-color="#fff"/></radialGradient><linearGradient id="linear-gradient" gradientTransform="matrix(500 0 0 -500 324880.15 -1734444.15)" gradientUnits="userSpaceOnUse" x1="-648.58" x2="-649.58" y1="-3469.39" y2="-3470.39"><stop offset="0" stop-color="#2020b5"/><stop offset="1" stop-color="#2677ff"/></linearGradient><linearGradient id="linear-gradient-2" gradientTransform="matrix(500 0 0 -500 327898.15 -1734442.9)" x1="-648.54" x2="-649.54" xlink:href="#linear-gradient" y1="-3469.39" y2="-3470.39"/><linearGradient id="linear-gradient-3" gradientTransform="matrix(489.66 0 0 -44.25 321204.39 -156038.37)" x1="-647.92" x2="-650.06" xlink:href="#linear-gradient" y1="-3547.12" y2="-3547.14"/><linearGradient id="linear-gradient-4" gradientTransform="matrix(162.79 0 0 -68.99 108057.53 -242536.35)" x1="-645.88" x2="-646.88" xlink:href="#linear-gradient" y1="-3516.65" y2="-3516.83"/></defs><title>paperwalletemptyD_1</title><g><g><path d="M 1600 0 H 3700.08 V 1000.08 H 1600 v -150 H 0 V 150 H 1600 V 0 Z" fill="url(#radial-gradient)" fill-rule="evenodd"/><g id="_2434674456096" data-name=" 2434674456096"><path d="M 1600 937.11 a 547.33 547.33 0 0 1 48.08 63 h -2.95 A 543.41 543.41 0 0 0 1600 940.84 v -3.73 Z m 487.85 63 c -119.07 -110.86 -163.26 -191.19 -199 -356 c -110.48 121.71 -187.77 169.88 -338.39 206 h -10.65 c 157.49 -36.48 235.43 -84.16 348.82 -209.44 l 1.61 -1.76 l .5 2.33 c 35.89 166.73 80 246.95 200.7 358.88 h -3.59 Z" fill="#fff"/><path d="M 1600.43 958.22 c 16.1 14.64 30.24 28.41 42.75 41.86 h -3.37 c -11.74 -12.52 -24.91 -25.33 -39.78 -38.89 v -5.4 c 112 -24.39 164.35 -54.89 241.84 -140.52 l 1.6 -1.76 l .51 2.33 c 17.78 82.63 38.66 132.95 81.82 184.24 h -3.2 c -42.15 -50.56 -62.92 -100.5 -80.52 -181.39 c -77.06 84.76 -129.72 115.16 -241.66 139.52 h 0 Z" fill="#fff"/><path d="M 1759.39 0 c 123.7 113.86 168.79 194.08 205.13 361.73 c 117.7 -129.67 197.72 -175.87 368.86 -213 C 2274.64 95.43 2233 49.84 2201.63 0 h 2.93 c 31.51 49.65 73.27 95.17 132.23 148.54 l 1.77 1.59 l -2.33 .51 c -172.94 37.22 -252.79 83.34 -371.49 214.5 l -1.62 1.77 h 0 l -.5 -2.34 C 1926.13 195 1881.09 115 1755.77 0 h 3.62 Z" fill="#fff"/><path d="M 1926 0 c 45.42 52.56 67.08 103.16 85.34 187.08 C 2088.38 102.33 2141 71.92 2253 47.56 C 2234.6 30.85 2218.77 15.28 2205 0 h 3.32 c 13.8 15.17 29.65 30.67 48.06 47.33 l 1.76 1.61 l -2.33 .49 c -113.71 24.49 -166.23 54.81 -244.29 141.06 l -1.59 1.77 h 0 l -.52 -2.33 C 1991 104.25 1969.22 53.32 1922.72 0 Z" fill="#fff"/><path d="M 1442.23 739.68 c 25.83 40.13 46.38 76 62.46 110.38 H 1502 c -16.23 -34.58 -37 -70.61 -63.1 -111 l -1.29 -2 l 2.39 .12 c 22.8 1.13 43.21 1.68 62.41 1.68 c 134.29 0 219.8 -27.38 351.94 -112.71 l 2 -1.29 l -.12 2.37 c -8 159.63 10.77 247.75 85.23 372.9 h -2.84 c -73.77 -124.32 -92.6 -212.45 -85 -370.63 c -131.45 84.61 -217.11 111.81 -351.26 111.81 c -18.57 0 -38.27 -.51 -60.15 -1.58 Z" fill="#fff"/><path d="M 1802.9 1000.08 c -34.94 -67.4 -44 -123.14 -39.66 -214.05 C 1701 826 1654.33 846.41 1600 854.67 V 852.2 c 54.38 -8.35 101.14 -29 163.89 -69.54 l 2 -1.27 l -.12 2.39 c -4.59 92.29 4.36 148.22 39.87 216.3 Z" fill="#fff"/><path d="M 1911.41 0 c 76.59 127.35 96.11 215.74 88.35 376.32 c 131.46 -84.59 217.12 -111.81 351.27 -111.81 c 18.57 0 38.27 .51 60.15 1.56 C 2346.51 165.6 2314.84 92.13 2303.93 0 h 2.48 c 11 92.22 42.89 165.74 108.12 266.76 l 1.29 2 l -2.38 -.11 c -22.8 -1.15 -43.21 -1.7 -62.41 -1.7 c -134.28 0 -219.81 27.38 -352 112.71 l -2 1.31 h 0 l .12 -2.39 c 8.07 -162 -11.35 -250.4 -88.65 -378.59 h 2.86 Z" fill="#fff"/><path d="M 2047.51 0 c 37.42 70 47.11 126.31 42.66 219.74 c 86.22 -55.39 142.58 -73.23 230.73 -73.23 c 12 0 24.72 .34 38.8 1 c -35.82 -55.74 -56.18 -98.9 -65.94 -147.52 h 2.53 c 9.86 48.71 30.46 92 66.76 148.19 l 1.3 2 l -2.39 -.13 c -15 -.73 -28.42 -1.09 -41.06 -1.09 c -88.29 0 -144.51 18 -231.41 74.12 l -2 1.29 h 0 l .13 -2.38 c 4.72 -94.84 -4.87 -151.3 -42.88 -222 h 2.78 Z" fill="#fff"/><path d="M 1397.45 606.22 c 31 96.6 44 168.25 39.06 243.84 H 1434 c 4.94 -76 -8.27 -147.9 -39.65 -245.36 l -.74 -2.28 l 2.28 .74 c 88.47 28.49 152.62 40.66 214.48 40.66 s 126 -12.17 214.48 -40.66 l 2.27 -.74 l -.73 2.28 c -50.51 156.83 -54 247.6 -10.38 395.38 h -2.55 c -43.32 -147.2 -40 -238.1 9.87 -393.86 c -87.55 28 -151.35 40 -213 40 s -125.4 -12 -213 -40 h 0 Z m 202.58 386 q 5.21 -.12 10.38 -.12 a 508.79 508.79 0 0 1 88.16 8 h -15.48 a 493.91 493.91 0 0 0 -72.68 -5.49 q -5.17 0 -10.38 .11 v -2.45 Z" fill="#fff"/><path d="M 1416.48 734.07 c 14.23 44.52 22.65 81 25.27 116 h -2.48 c -2.66 -35.36 -11.28 -72.24 -25.85 -117.49 l -.73 -2.28 l 2.28 .73 c 58.18 18.74 100.36 26.73 141 26.73 s 82.84 -8 141 -26.73 l 2.27 -.75 l -.72 2.3 C 1664.52 838.33 1663 898.4 1694 1000.08 h -2.56 c -30.75 -101.08 -29.39 -161.32 4.07 -266 c -57.28 18.31 -99.12 26.14 -139.52 26.14 s -82.25 -7.83 -139.53 -26.14 Z m 183.55 256 a 452.52 452.52 0 0 1 50.39 10 H 1640.1 c -14.15 -3.32 -27.39 -5.81 -40.07 -7.55 v -2.47 Z" fill="#fff"/><path d="M 2038.22 0 c 45.07 150.57 42.35 241.81 -8.19 399.55 c 87.55 -28.06 151.35 -40.05 213 -40.05 s 125.41 12 213 40.05 c -50.55 -157.77 -53.27 -249 -8.19 -399.55 h 2.57 C 2405 151.16 2407.87 242.22 2459 401.08 l .73 2.26 l -2.27 -.72 C 2369 374.13 2304.86 362 2243 362 s -126 12.16 -214.48 40.65 l -2.27 .72 h 0 l .73 -2.26 c 51.15 -158.84 54 -249.91 8.7 -401.07 Z M 2360 0 c -42.83 9.37 -80.32 13.62 -117 13.62 h 0 c -36.7 0 -74.19 -4.25 -117 -13.62 h 11.88 c 38 7.67 71.9 11.18 105.14 11.18 h 0 c 33.25 0 67.16 -3.51 105.15 -11.18 Z" fill="#fff"/><path d="M 2160.19 0 c 32.54 104.55 31.77 165.06 -2.31 271.7 c 57.27 -18.3 99.11 -26.13 139.52 -26.13 s 82.25 7.83 139.52 26.13 c -34.09 -106.65 -34.86 -167.16 -2.32 -271.7 h 2.57 c -32.82 105.15 -31.88 165.48 2.81 273.22 l .73 2.28 l -2.27 -.75 C 2380.25 256 2338.07 248 2297.4 248 s -82.85 8 -141 26.74 l -2.28 .75 h 0 l .74 -2.28 c 34.69 -107.72 35.62 -168 2.82 -273.22 h 2.55 Z m 252.58 0 c -45.31 13.06 -80.86 18.76 -115.37 18.76 h 0 c -34.5 0 -70 -5.7 -115.36 -18.76 h 9.05 c 41.15 11.32 74.2 16.3 106.32 16.3 h 0 c 32.12 0 65.18 -5 106.32 -16.3 Z" fill="#fff"/><path d="M 1600 935 c 28.13 14.3 57.63 31.59 89.89 52.35 c -8.46 -174.91 15.46 -264.18 110.24 -411.45 c -21.9 1.08 -41.61 1.59 -60.18 1.59 c -134.13 0 -219.77 -27.2 -351.24 -111.82 c 7.92 163.94 -12.59 252.63 -93.22 384.36 h -2.88 c 81.37 -132.58 101.77 -221.19 93.54 -386.62 l -.13 -2.37 l 2 1.29 c 132.14 85.32 217.65 112.72 351.91 112.72 c 19.2 0 39.63 -.56 62.44 -1.7 l 2.38 -.12 l -1.3 2 c -96 148.6 -119.82 237.66 -111 414.36 l .12 2.38 h 0 l -2 -1.29 c -32.54 -21 -62.24 -38.51 -90.56 -53 v -2.75 Z" fill="#fff"/><path d="M 1572.38 850.06 c 6.13 -64.81 26.78 -114.58 71.19 -183.68 c -14.09 .65 -26.8 1 -38.8 1 c -88.14 0 -144.52 -17.84 -230.73 -73.23 c 5.18 108.94 -8.84 167.41 -63.64 255.93 h -2.87 c 55.54 -89.4 69.44 -147.79 63.94 -258.19 l -.12 -2.38 l 2 1.29 c 86.91 56.11 143.14 74.14 231.42 74.14 c 12.63 0 26 -.36 41.06 -1.11 l 2.38 -.13 l -1.29 2 c -45 69.67 -65.87 119.44 -72.06 184.37 Z" fill="#fff"/><path d="M 2113.41 428.24 c 134.13 0 219.79 27.23 351.25 111.83 c -8.44 -174.91 15.47 -264.18 110.25 -411.43 c -21.88 1.05 -41.57 1.57 -60.14 1.57 c -134.14 0 -219.81 -27.21 -351.28 -111.82 c 8.44 174.92 -15.47 264.19 -110.25 411.43 c 21.89 -1.05 41.6 -1.58 60.17 -1.58 Z m 353.93 116.47 l -2 -1.29 C 2333.2 458.09 2247.68 430.7 2113.41 430.7 c -19.21 0 -39.62 .56 -62.43 1.69 l -2.37 .11 l 1.28 -2 c 96 -148.61 119.83 -237.69 111 -414.37 l -.12 -2.39 l 2 1.29 c 132.16 85.33 217.68 112.72 352 112.72 c 19.2 0 39.6 -.56 62.4 -1.69 l 2.37 -.11 l -1.29 2 c -96 148.63 -119.82 237.7 -111 414.39 l .12 2.37 Z" fill="#fff"/><path d="M 2248.63 338.42 c 88.15 0 144.52 17.84 230.73 73.23 c -5.44 -114.43 10.3 -173.18 72.24 -269.54 c -14.08 .65 -26.8 1 -38.82 1 c -88.13 0 -144.51 -17.84 -230.73 -73.23 c 5.44 114.45 -10.3 173.2 -72.22 269.56 c 14.08 -.67 26.8 -1 38.8 -1 Z M 2482 416.28 l -2 -1.28 c -86.9 -56.11 -143.12 -74.13 -231.41 -74.13 c -12.63 0 -26.07 .37 -41.06 1.1 l -2.38 .13 l 1.29 -2 c 63.1 -97.72 78.79 -156.29 73 -272.49 l -.12 -2.37 l 2 1.29 c 86.89 56.1 143.12 74.11 231.38 74.11 h 0 c 12.65 0 26.09 -.36 41.07 -1.11 l 2.38 -.11 l -1.3 2 c -63.09 97.72 -78.78 156.29 -73 272.49 l .12 2.37 Z" fill="#fff"/><path d="M 1203.72 696.62 c 141.89 30.76 221.16 67.79 311.19 153.44 h -3.57 c -89.41 -84.5 -168.63 -121 -310.46 -151.55 l -2.34 -.51 l 1.77 -1.61 c 131.15 -118.7 177.26 -198.56 214.48 -371.49 l .5 -2.35 l 1.61 1.79 c 118.71 131.15 198.57 177.26 371.5 214.48 l 2.33 .5 l -1.77 1.61 c -114.29 103.45 -164 177.39 -199.52 309.13 h -2.54 c 35.49 -132 85 -206.19 198.64 -309.35 c -171.12 -37.11 -251.15 -83.31 -368.86 -213 c -37.11 171.14 -83.3 251.17 -213 368.88 h 0 Z" fill="#fff"/><path d="M 1229.73 689.64 c 111.94 24.38 164.6 54.78 241.66 139.53 c 24.36 -111.93 54.77 -164.59 139.53 -241.66 C 1499 563.14 1446.32 532.76 1369.25 448 c -24.34 111.94 -54.76 164.6 -139.51 241.66 h 0 Z m 243 144.72 l -1.6 -1.78 c -78.05 -86.25 -130.56 -116.55 -244.28 -141.05 l -2.34 -.51 l 1.76 -1.58 c 86.25 -78.07 116.57 -130.59 141 -244.31 l .5 -2.33 l 1.6 1.77 c 78.07 86.23 130.58 116.56 244.3 141.05 l 2.32 .49 l -1.77 1.61 c -86.24 78.06 -116.55 130.56 -141 244.29 l -.5 2.34 h 0 Z" fill="#fff"/><path d="M 2067.84 465.07 C 2239 502.17 2319 548.38 2436.71 678 c 37.1 -171.12 83.3 -251.16 213 -368.86 c -171.12 -37.11 -251.15 -83.31 -368.87 -213 c -37.11 171.15 -83.32 251.18 -213 368.88 Z M 2438.1 683.21 l -1.61 -1.76 C 2317.78 550.29 2237.92 504.18 2065 467 l -2.34 -.51 l 1.77 -1.61 c 131.15 -118.7 177.26 -198.57 214.49 -371.51 l .51 -2.33 l 1.6 1.78 C 2399.75 223.94 2479.6 270 2652.53 307.27 l 2.33 .51 l -1.77 1.59 C 2521.93 428.1 2475.83 508 2438.6 680.89 l -.5 2.33 h 0 Z" fill="#fff"/><path d="M 2242.49 418.27 c 111.93 24.35 164.6 54.76 241.66 139.53 c 24.35 -111.94 54.76 -164.61 139.53 -241.67 c -111.94 -24.36 -164.6 -54.76 -241.66 -139.54 c -24.36 112 -54.78 164.64 -139.53 241.68 Z m 243 144.71 l -1.6 -1.77 c -78.06 -86.25 -130.57 -116.56 -244.29 -141 l -2.33 -.49 l 1.76 -1.62 c 86.25 -78.05 116.56 -130.55 141 -244.3 l .51 -2.32 l 1.6 1.75 c 78.05 86.25 130.56 116.56 244.28 141.05 l 2.33 .51 l -1.76 1.61 c -86.24 78.06 -116.57 130.56 -141 244.29 l -.52 2.34 h 0 Z" fill="#fff"/><path d="M 1178.22 502.89 c 155.7 80.14 221 145.48 301.18 301.19 c 80.13 -155.71 145.47 -221.05 301.18 -301.19 c -155.71 -80.13 -221 -145.48 -301.18 -301.18 c -80.14 155.7 -145.48 221.05 -301.18 301.18 Z M 1479.4 809.44 l -1.09 -2.12 C 1397.58 649.91 1332.38 584.7 1175 504 l -2.13 -1.09 l 2.13 -1.08 c 157.4 -80.72 222.6 -145.95 303.33 -303.34 l 1.09 -2.14 l 1.08 2.14 c 80.73 157.41 145.93 222.62 303.33 303.34 l 2.13 1.08 l -2.13 1.09 c -157.4 80.72 -222.61 145.93 -303.33 303.34 l -1.08 2.12 Z" fill="#fff"/><path d="M 1205.15 502.89 C 1307 555.39 1350 598.4 1402.46 700.21 C 1455 598.4 1498 555.4 1599.78 502.89 C 1498 450.39 1455 407.39 1402.46 305.56 C 1350 407.39 1307 450.39 1205.15 502.89 Z m 197.31 202.68 l -1.09 -2.11 c -53.08 -103.52 -96 -146.39 -199.46 -199.49 l -2.13 -1.08 l 2.13 -1.09 c 103.51 -53.09 146.39 -96 199.46 -199.46 l 1.09 -2.12 l 1.08 2.12 c 53.09 103.5 96 146.37 199.48 199.46 l 2.11 1.09 L 1603 504 c -103.52 53.1 -146.39 96 -199.47 199.49 l -1.09 2.11 Z" fill="#fff"/><path d="M 2072.82 502.89 c 155.7 80.14 221 145.48 301.19 301.19 c 80.13 -155.71 145.46 -221 301.17 -301.19 c -155.69 -80.13 -221 -145.48 -301.17 -301.18 c -80.15 155.7 -145.49 221.05 -301.19 301.18 Z M 2374 809.44 l -1.1 -2.12 C 2292.19 649.91 2227 584.7 2069.58 504 l -2.12 -1.09 l 2.12 -1.08 c 157.4 -80.72 222.61 -145.93 303.33 -303.34 l 1.1 -2.14 l 1.09 2.14 c 80.72 157.41 145.92 222.62 303.32 303.34 l 2.12 1.08 l -2.12 1.1 C 2521 584.7 2455.82 649.91 2375.1 807.32 l -1.09 2.12 Z" fill="#fff"/><path d="M 2253.63 502.89 c 101.82 52.5 144.81 95.51 197.31 197.32 c 52.49 -101.81 95.5 -144.81 197.32 -197.32 c -101.82 -52.5 -144.81 -95.5 -197.31 -197.33 c -52.51 101.85 -95.51 144.83 -197.32 197.33 Z m 197.31 202.68 l -1.09 -2.11 c -53.08 -103.52 -96 -146.39 -199.46 -199.47 l -2.12 -1.1 l 2.12 -1.09 c 103.5 -53.07 146.38 -96 199.47 -199.46 l 1.09 -2.12 l 1.09 2.12 c 53.07 103.5 96 146.37 199.45 199.46 l 2.12 1.09 l -2.12 1.08 c -103.51 53.08 -146.38 96 -199.46 199.49 l -1.09 2.11 Z" fill="#fff"/><path d="M 1203.72 309.16 c 129.65 117.71 175.86 197.73 213 368.87 c 117.7 -129.65 197.73 -175.86 368.86 -213 C 1670.3 360.43 1621 285.57 1585.39 150 h 2.54 c 35.64 135.33 85.11 209.92 201 314.83 l 1.78 1.62 l -2.33 .51 c -172.94 37.2 -252.8 83.31 -371.5 214.48 l -1.61 1.75 h 0 l -.5 -2.33 c -37.23 -172.94 -83.34 -252.8 -214.49 -371.51 l -1.77 -1.6 l 2.34 -.51 c 145 -31.21 224.54 -68.67 316.42 -157.24 h 3.53 c -92.52 89.72 -172.12 127.69 -317.11 159.14 h 0 Z" fill="#fff"/><path d="M 1229.73 316.13 c 84.76 77.05 115.17 129.73 139.52 241.67 C 1446.31 473 1499 442.62 1610.91 418.26 c -84.75 -77.05 -115.16 -129.73 -139.53 -241.65 c -77.06 84.75 -129.71 115.16 -241.65 139.52 Z M 1367.86 563 l -.49 -2.34 c -24.49 -113.71 -54.81 -166.23 -141 -244.29 l -1.77 -1.61 l 2.34 -.51 c 113.72 -24.49 166.23 -54.8 244.29 -141 l 1.6 -1.75 l .5 2.32 c 24.49 113.73 54.81 166.25 141 244.3 l 1.77 1.62 l -2.32 .49 C 1500 444.65 1447.53 475 1369.47 561.21 l -1.6 1.77 h 0 Z" fill="#fff"/><path d="M 2067.84 540.71 c 129.66 117.71 175.86 197.74 213 368.88 c 117.7 -129.65 197.73 -175.87 368.87 -213 c -129.65 -117.7 -175.86 -197.74 -213 -368.88 C 2319 457.4 2239 503.61 2067.84 540.71 Z m 211.59 374.06 l -.51 -2.34 c -37.23 -172.94 -83.34 -252.78 -214.49 -371.5 l -1.77 -1.61 l 2.34 -.49 c 172.92 -37.25 252.77 -83.34 371.5 -214.49 l 1.6 -1.78 l .5 2.34 c 37.24 172.94 83.34 252.8 214.49 371.5 l 1.76 1.61 l -2.33 .51 C 2479.58 735.75 2399.73 781.86 2281 913 l -1.6 1.77 h 0 Z" fill="#fff"/><path d="M 2242.49 587.5 c 84.76 77.07 115.17 129.73 139.53 241.69 c 77.06 -84.78 129.72 -115.18 241.65 -139.55 C 2538.91 612.58 2508.5 559.92 2484.15 448 c -77.07 84.77 -129.74 115.18 -241.66 139.52 Z m 138.14 246.85 l -.51 -2.34 c -24.49 -113.71 -54.8 -166.23 -141 -244.29 l -1.76 -1.61 l 2.33 -.49 c 113.71 -24.48 166.22 -54.8 244.29 -141 l 1.6 -1.77 l .51 2.33 c 24.48 113.74 54.79 166.24 141 244.31 l 1.75 1.58 l -2.32 .51 c -113.72 24.5 -166.23 54.8 -244.29 141.05 l -1.6 1.78 h 0 Z" fill="#fff"/><path d="M 1292 150 c 83.54 134.88 104.77 223.75 96.74 390.05 c 131.45 -84.59 217.11 -111.83 351.25 -111.83 c 18.57 0 38.28 .53 60.17 1.58 c -94.78 -147.24 -118.7 -236.5 -110.24 -411.43 c -32.26 20.76 -61.76 38.06 -89.89 52.35 V 68 c 28.31 -14.44 58 -31.93 90.56 -52.94 l 2 -1.3 l -.12 2.39 c -8.8 176.69 15.07 265.77 111 414.37 l 1.3 2 l -2.38 -.11 c -22.8 -1.14 -43.23 -1.69 -62.43 -1.69 c -134.27 0 -219.79 27.39 -351.92 112.71 l -2 1.29 h 0 l .12 -2.37 c 8.35 -167.78 -12.75 -256.56 -97 -392.32 H 1292 Z" fill="#fff"/><path d="M 1306.84 150 c 57.74 91.75 72.49 150.37 67.2 261.63 c 86.22 -55.39 142.58 -73.23 230.73 -73.23 c 12 0 24.71 .34 38.8 1 c -45.7 -71.11 -66.24 -121.75 -71.68 -189.39 h 2.46 c 5.5 67.76 26.28 118.38 72.57 190.08 l 1.29 2 l -2.38 -.12 c -15 -.73 -28.42 -1.1 -41.07 -1.1 c -88.27 0 -144.51 18 -231.41 74.12 l -2 1.29 h 0 l .12 -2.38 c 5.6 -112.74 -9 -171.24 -67.52 -263.89 Z" fill="#fff"/><path d="M 2053.24 575.94 c 94.79 147.27 118.7 236.54 110.24 411.45 C 2295 902.78 2380.6 875.58 2514.74 875.58 c 18.57 0 38.28 .49 60.17 1.58 c -94.77 -147.25 -118.69 -236.53 -110.24 -411.43 c -131.47 84.57 -217.13 111.79 -351.26 111.79 c -18.57 0 -38.27 -.51 -60.17 -1.58 Z M 2160.81 992 l .11 -2.37 c 8.8 -176.7 -15.07 -265.78 -111 -414.37 l -1.28 -2 l 2.37 .13 c 22.82 1.13 43.24 1.7 62.43 1.7 c 134.28 0 219.78 -27.4 351.94 -112.73 l 2 -1.29 l -.12 2.38 c -8.79 176.7 15.08 265.75 111 414.36 l 1.29 2 l -2.37 -.13 c -22.81 -1.13 -43.22 -1.69 -62.43 -1.69 c -134.27 0 -219.79 27.39 -351.93 112.71 l -2 1.29 h 0 Z" fill="#fff"/><path d="M 2209.83 666.38 c 61.93 96.36 77.67 155.11 72.22 269.52 c 86.21 -55.39 142.58 -73.21 230.71 -73.21 c 12 0 24.74 .33 38.84 1 c -61.94 -96.38 -77.68 -155.12 -72.24 -269.54 c -86.21 55.38 -142.58 73.22 -230.73 73.22 h 0 c -12 0 -24.71 -.33 -38.78 -1 h 0 Z m 69.54 274.17 l .12 -2.37 c 5.78 -116.2 -9.91 -174.76 -73 -272.49 l -1.3 -2 l 2.39 .13 c 15 .75 28.42 1.12 41 1.12 h 0 c 88.28 0 144.52 -18 231.41 -74.13 l 2 -1.31 l -.11 2.4 c -5.79 116.16 9.91 174.74 73 272.47 l 1.3 2 l -2.38 -.13 c -15 -.73 -28.44 -1.1 -41.09 -1.1 c -88.26 0 -144.49 18 -231.37 74.12 l -2 1.29 Z" fill="#fff"/><path d="M 1436.11 150 c 6 77.71 -6.94 150.52 -38.66 249.54 c 87.56 -28.06 151.36 -40.05 213 -40.05 s 125.41 12 213 40.05 c -50.56 -157.74 -53.28 -249 -8.2 -399.55 h 2.56 c -45.35 151.17 -42.46 242.23 8.68 401.07 l .74 2.26 h 0 l -2.27 -.72 C 1736.43 374.13 1672.28 362 1610.41 362 s -126 12.16 -214.47 40.65 l -2.28 .72 l .73 -2.26 c 32.17 -99.9 45.25 -173 39.25 -251.06 h 2.47 Z M 1727.45 0 c -42.84 9.37 -80.33 13.62 -117 13.62 h 0 c -3.44 0 -6.9 0 -10.36 -.11 V 11.08 c 3.46 .07 6.92 .12 10.36 .12 h 0 c 33.27 0 67.19 -3.51 105.2 -11.19 Z" fill="#fff"/><path d="M 1442.12 150 c -2.09 36.75 -10.63 74.76 -25.63 121.69 c 57.27 -18.3 99.1 -26.13 139.52 -26.13 s 82.25 7.83 139.52 26.13 c -34.08 -106.64 -34.85 -167.16 -2.32 -271.7 h 2.57 c -32.81 105.15 -31.89 165.48 2.81 273.22 l .73 2.28 l -2.28 -.75 C 1638.86 256 1596.68 248 1556 248 s -82.86 8 -141 26.74 l -2.28 .75 h 0 l .74 -2.28 c 15.35 -47.7 24.09 -86.1 26.22 -123.21 Z M 1671.38 0 c -26.54 7.65 -49.74 12.78 -71.35 15.71 V 13.24 A 478.92 478.92 0 0 0 1662.33 0 Z" fill="#fff"/><path d="M 2243 992.13 a 508.77 508.77 0 0 1 88.15 8 h -15.47 a 483 483 0 0 0 -145.36 0 h -15.48 a 508.71 508.71 0 0 1 88.16 -8 Z m 203.09 8 c -43.31 -147.19 -40 -238.11 9.88 -393.86 c -87.55 28 -151.36 40 -213 40 h 0 c -61.59 0 -125.39 -12 -212.94 -40 c 49.91 155.74 53.2 246.66 9.88 393.86 h -2.56 c 43.58 -147.78 40.12 -238.55 -10.38 -395.38 l -.74 -2.28 l 2.28 .74 c 88.47 28.49 152.6 40.66 214.46 40.66 h 0 c 61.88 0 126 -12.17 214.49 -40.66 l 2.27 -.72 l -.73 2.26 c -50.51 156.85 -54 247.61 -10.39 395.38 h -2.55 Z" fill="#fff"/><path d="M 2297.4 987 c 29 0 58.74 4 94.4 13.07 h -10.34 c -31.2 -7.33 -57.95 -10.63 -84.06 -10.63 s -52.87 3.3 -84.08 10.63 H 2203 c 35.66 -9 65.41 -13.07 94.41 -13.07 h 0 Z m 135.44 13.07 c -30.73 -101.08 -29.38 -161.31 4.08 -266 c -57.28 18.3 -99.12 26.13 -139.52 26.13 s -82.26 -7.83 -139.53 -26.13 c 33.46 104.69 34.81 164.93 4.07 266 h -2.56 c 31 -101.69 29.49 -161.75 -4.57 -267.51 l -.73 -2.29 l 2.28 .74 c 58.18 18.73 100.36 26.72 141 26.72 s 82.84 -8 141 -26.72 l 2.28 -.74 l -.73 2.29 c -34.07 105.76 -35.59 165.82 -4.57 267.51 h -2.57 Z" fill="#fff"/><path d="M 1502.38 264.52 c 134.14 0 219.8 27.22 351.26 111.81 c -7.76 -160.58 11.77 -249 88.36 -376.32 h 2.86 c -77.31 128.19 -96.72 216.53 -88.65 378.59 l .11 2.38 h 0 l -2 -1.3 C 1722.17 294.35 1636.66 267 1502.38 267 c -19.2 0 -39.61 .55 -62.41 1.7 l -2.39 .11 l 1.3 -2 c 27.54 -42.66 49.14 -80.42 65.74 -116.75 h 2.69 c -16.45 36.17 -37.83 73.72 -65.08 116.06 c 21.88 -1.05 41.58 -1.56 60.15 -1.56 Z" fill="#fff"/><path d="M 1592.39 150 c 57.62 7.48 105.72 27.89 170.85 69.73 C 1758.79 126.32 1768.48 70 1805.9 0 h 2.78 c -38 70.69 -47.6 127.15 -42.89 222 l .12 2.38 h 0 l -2 -1.29 c -75.15 -48.54 -127.37 -68.56 -197.22 -73.08 Z m -99.71 0 l -1.23 .06 l -2.39 .13 l .12 -.19 Z" fill="#fff"/><path d="M 2304.63 1000.08 c 11.53 -89.48 43.21 -162 106.55 -260.38 c -21.88 1 -41.57 1.57 -60.13 1.57 c -134.16 0 -219.83 -27.21 -351.29 -111.82 c 7.64 158.16 -11.19 246.3 -85 370.63 H 1912 c 74.46 -125.15 93.18 -213.27 85.24 -372.9 l -.12 -2.37 l 2 1.29 c 132.14 85.33 217.66 112.71 352 112.71 c 19.19 0 39.6 -.55 62.39 -1.68 l 2.38 -.11 l -1.29 2 c -63.88 99 -95.8 171.5 -107.42 261.07 h -2.48 Z" fill="#fff"/><path d="M 2295 1000.08 c 10.18 -46.33 30.33 -88.27 64.74 -141.83 c -14.06 .69 -26.78 1 -38.78 1 h 0 c -88.15 0 -144.52 -17.83 -230.74 -73.22 c 4.33 90.9 -4.72 146.65 -39.66 214.05 h -2.77 c 35.51 -68.08 44.47 -124 39.87 -216.3 l -.12 -2.39 l 2 1.31 c 86.88 56.09 143.13 74.12 231.41 74.12 h 0 c 12.63 0 26 -.37 41 -1.12 l 2.38 -.12 l -1.3 2 c -34.88 54 -55.26 96.07 -65.55 142.5 H 2295 Z" fill="#fff"/><path d="M 1525.76 150 c 167.19 36.89 246.75 83.52 363.12 211.73 C 1925.23 194.09 1970.31 113.88 2094 0 h 3.63 C 1972.32 115 1927.27 195 1890.77 364.59 l -.5 2.34 h 0 l -1.6 -1.79 C 1770 234 1690.11 187.88 1517.17 150.66 l -2.33 -.51 l .14 -.13 h 10.78 Z m 126 -150 A 542.1 542.1 0 0 1 1600 68.66 V 64.94 A 538.24 538.24 0 0 0 1648.83 0 Z" fill="#fff"/><path d="M 1600.43 47.56 c 111.93 24.36 164.6 54.77 241.66 139.53 C 1860.35 103.16 1882 52.56 1927.43 0 h 3.26 c -46.5 53.3 -68.27 104.24 -86.7 189.93 l -.52 2.33 h 0 l -1.59 -1.77 C 1764.39 104.88 1712.05 74.37 1600 50 V 44.59 c 17.13 -15.62 32 -30.25 45 -44.59 h 3.32 c -13.76 15.27 -29.59 30.84 -48 47.56 Z" fill="#fff"/><path d="M 2205.29 1000.08 c 31 -47.64 71.61 -91.77 128.1 -143.06 c -171.15 -37.11 -251.17 -83.32 -368.87 -213 c -35.73 164.86 -79.93 245.16 -199 356 h -3.6 c 120.66 -111.93 164.82 -192.16 200.71 -358.88 l .5 -2.33 l 1.6 1.76 c 118.7 131.15 198.55 177.26 371.5 214.5 l 2.33 .5 l -1.77 1.6 c -56.69 51.33 -97.49 95.39 -128.55 142.85 h -2.95 Z" fill="#fff"/><path d="M 2210.22 1000.08 c 12.52 -13.46 26.65 -27.22 42.76 -41.87 c -111.94 -24.36 -164.61 -54.76 -241.66 -139.52 c -17.6 80.89 -38.37 130.83 -80.52 181.39 h -3.21 c 43.17 -51.29 64.05 -101.61 81.83 -184.24 l .51 -2.33 l 1.6 1.78 c 78.06 86.23 130.56 116.55 244.28 141 l 2.34 .51 l -1.77 1.61 c -16.11 14.58 -30.27 28.27 -42.8 41.64 Z" fill="#fff"/><path d="M 1625.52 55.57 c 155.71 80.12 221 145.48 301.18 301.2 c 80.13 -155.72 145.47 -221.08 301.17 -301.2 C 2191.19 36.68 2159.53 18.62 2131.5 0 H 2136 c 27.73 18.21 59 35.93 95.16 54.47 l 2.11 1.09 l -2.11 1.08 c -157.41 80.72 -222.61 146 -303.33 303.34 l -1.09 2.12 h 0 l -1.1 -2.12 c -80.71 -157.39 -145.9 -222.62 -303.32 -303.34 l -2.12 -1.08 l 2.12 -1.09 c 36.15 -18.54 67.43 -36.26 95.16 -54.47 h 4.46 c -28 18.61 -59.7 36.68 -96.38 55.56 Z" fill="#fff"/><path d="M 1768.37 0 c 74.88 44.11 113.08 88.17 158.33 175.93 C 1972 88.18 2010.15 44.12 2085 0 h 4.86 C 2012.46 44.94 1974 89.1 1927.79 179.19 l -1.09 2.12 h 0 l -1.1 -2.12 C 1879.42 89.1 1840.94 44.94 1763.52 0 Z" fill="#fff"/><path d="M 1625.52 950.21 c 32.94 16.95 61.82 33.25 87.67 49.87 h -4.55 c -25.51 -16.23 -54 -32.18 -86.36 -48.78 l -2.12 -1.09 l 2.12 -1.09 c 157.41 -80.71 222.61 -145.92 303.32 -303.34 l 1.1 -2.12 l 1.09 2.12 c 80.71 157.42 145.92 222.63 303.32 303.35 l 2.12 1.08 l -2.12 1.09 c -32.37 16.6 -60.83 32.55 -86.34 48.78 h -4.56 c 25.84 -16.62 54.72 -32.92 87.66 -49.87 c -155.7 -80.14 -221 -145.48 -301.17 -301.18 c -80.13 155.7 -145.47 221 -301.18 301.18 Z" fill="#fff"/><path d="M 2075.57 1000.08 c -68.72 -42.29 -105.56 -86.26 -148.86 -170.26 c -43.31 84 -80.16 128 -148.88 170.26 h -4.7 c 71.08 -43.06 108.24 -87.21 152.48 -173.48 l 1.1 -2.13 l 1.09 2.13 c 44.24 86.27 81.4 130.42 152.48 173.48 Z" fill="#fff"/><path d="M 1926.69 619.45 l -.85 -.83 c -35.15 -34.26 -63.51 -62.64 -132 -132 l 1.73 -1.72 c 67.9 68.77 96.35 97.22 131.09 131.1 c 34.72 -33.84 63.17 -62.29 131.1 -131.1 l 1.74 1.72 c -68.49 69.38 -96.87 97.75 -132 132 l -.86 .83 Z" fill="#fff"/><path d="M 2057.79 522.08 c -67.9 -68.77 -96.35 -97.23 -131.09 -131.11 c -35 34.13 -63.45 62.59 -131.1 131.1 l -1.73 -1.7 c 68.2 -69.09 96.56 -97.47 132 -132 l .85 -.84 l .85 .84 c 35.15 34.26 63.52 62.63 132 132 l -1.74 1.71 Z" fill="#fff"/><path d="M 2298.69 860.83 C 2111 675.51 2034.23 598.72 1941.6 503.73 l -.83 -.84 l .83 -.86 c 92.84 -95.2 169.59 -172 357.09 -357.08 l 1.73 1.73 c -186.93 184.56 -263.78 261.39 -356.24 356.21 c 92.24 94.59 169.1 171.44 356.22 356.19 l -1.71 1.75 Z" fill="#fff"/><path d="M 1562.12 850.06 c 180.59 -178.34 256.43 -254.2 347.08 -347.17 C 1817.6 409 1741.11 332.45 1556.37 150 h 3.48 c 184 181.75 260.25 258 351.94 352 l .82 .86 l -.82 .85 c -90.74 93.08 -166.31 168.7 -346.18 346.33 h -3.49 Z" fill="#fff"/><path d="M 1896.53 615.48 l -.61 -1 c -25.08 -42.2 -45.14 -77 -93.32 -161.65 l 2.13 -1.21 c 47.78 84 67.9 118.86 92.68 160.58 c 42.27 -23.7 77.13 -43.82 160.55 -92.72 l 1.24 2.12 c -84.13 49.31 -118.87 69.37 -161.63 93.31 l -1 .59 h 0 Z" fill="#fff"/><path d="M 2048.36 555.34 c -47.84 -84.08 -68 -118.94 -92.69 -160.56 c -42.59 23.89 -77.43 44 -160.55 92.72 l -1.24 -2.12 c 83.81 -49.12 118.55 -69.16 161.64 -93.33 l 1 -.58 l .6 1 c 25 42.09 45.08 76.85 93.32 161.65 l -2.12 1.2 Z" fill="#fff"/><path d="M 2193.37 944.92 c -133.32 -227.57 -187.6 -321.57 -252.49 -437.36 l -.59 -1 l 1 -.61 C 2055.65 438 2149.66 383.7 2378.65 253.41 l 1.22 2.14 c -228.3 129.89 -322.42 184.22 -436.28 251.87 c 64.64 115.27 119 209.39 251.9 436.26 l -2.12 1.25 h 0 Z" fill="#fff"/><path d="M 1474.75 752.36 l -1.21 -2.12 c 228.64 -130.08 322.76 -184.42 436.26 -251.87 c -64.53 -115.1 -118.87 -209.21 -251.88 -436.28 l 2.11 -1.23 c 133.42 227.75 187.69 321.76 252.48 437.35 l .58 1.05 l -1 .61 c -114 67.74 -208 122 -437.32 252.49 Z" fill="#fff"/><path d="M 1868.42 603.84 l -.33 -1.14 c -13.32 -47.34 -23.7 -86.08 -48.29 -180.31 l 2.37 -.62 c 24.38 93.44 34.8 132.31 48 179.11 c 47 -12 85.89 -22.4 179.08 -48 l .65 2.38 c -94 25.81 -132.72 36.19 -180.28 48.29 l -1.16 .3 Z" fill="#fff"/><path d="M 2030.63 585.05 c -24.42 -93.51 -34.83 -132.38 -48 -179.08 c -47.33 12.06 -86.19 22.47 -179.07 48 l -.65 -2.36 c 93.65 -25.74 132.41 -36.12 180.28 -48.3 l 1.16 -.29 l .32 1.15 c 13.29 47.22 23.68 86 48.3 180.29 l -2.37 .6 Z" fill="#fff"/><path d="M 2069.88 998.89 c -69.89 -254.36 -98 -359.22 -130.7 -487.81 l -.3 -1.16 l 1.16 -.32 c 127.94 -36 232.79 -64.12 487.79 -130.7 l .61 2.37 c -254.22 66.39 -359.18 94.5 -486.59 130.36 c 32.59 128.06 60.71 233 130.39 486.61 l -2.36 .65 Z" fill="#fff"/><path d="M 1425.58 626.88 l -.61 -2.37 c 254.57 -66.48 359.55 -94.61 486.58 -130.37 C 1879 366.3 1850.89 261.33 1781.16 7.55 l 2.36 -.66 c 70 254.57 98 359.43 130.69 487.81 l .29 1.15 l -1.15 .33 c -127.56 35.92 -232.41 64 -487.77 130.7 Z" fill="#fff"/><path d="M 1920.64 585.81 c -28.35 0 -50.64 -.17 -75.16 -.48 h -1.21 v -1.2 c -.61 -49.24 -.61 -89.35 0 -186.65 l 2.45 0 c -.62 96.49 -.62 136.75 0 185.4 c 48.49 .61 88.73 .61 185.4 0 v 2.45 c -48.72 .3 -83.13 .48 -111.47 .48 Z" fill="#fff"/><path d="M 2008.27 609.17 l -2.44 0 c .61 -96.65 .62 -136.89 0 -185.41 c -48.82 -.6 -89.06 -.59 -185.4 0 l 0 -2.46 c 97.14 -.62 137.26 -.62 186.64 0 h 1.2 l 0 1.2 c .62 49.09 .62 89.2 0 186.65 h 0 Z" fill="#fff"/><path d="M 1936.52 1000.08 c -1.56 -250.14 -1.52 -356.66 .12 -486.05 v -1.19 l 1.19 0 c 133 -1.67 241.5 -1.67 505 0 v 2.46 c -262.69 -1.69 -371.37 -1.69 -503.74 0 c -1.63 128.85 -1.67 235.45 -.11 484.83 Z" fill="#fff"/><path d="M 1712.13 494.22 c -76.66 0 -169.72 -.43 -301.56 -1.26 v -2.45 c 263.1 1.67 371.77 1.67 503.74 0 c 1.64 -129.6 1.66 -236.82 .08 -490.5 h 2.45 c 1.59 254.46 1.56 361.57 -.09 491.74 l 0 1.18 l -1.2 0 c -66.32 .83 -126.63 1.26 -203.41 1.26 Z" fill="#fff"/><path d="M 2007.18 609.81 c -94.31 -24.63 -133.07 -35 -180.27 -48.31 l -1.15 -.33 L 1826 560 c 12.16 -47.75 22.54 -86.51 48.32 -180.29 l 2.35 .66 c -25.56 93 -36 131.88 -48 179.08 c 46.69 13.15 85.55 23.54 179.09 48 l -.62 2.38 h 0 Z" fill="#fff"/><path d="M 1978 626.66 l -2.36 -.64 c 25.61 -93.17 36 -132 48 -179.09 c -47 -13.24 -85.88 -23.65 -179.08 -48 l .62 -2.37 c 94 24.54 132.73 34.93 180.27 48.32 l 1.15 .31 l -.29 1.16 C 2014.19 494 2003.81 532.7 1978 626.66 Z" fill="#fff"/><path d="M 1803.75 1000.08 c 65.92 -252.48 93.93 -356.93 129.66 -483.86 l .33 -1.15 l 1.16 .3 c 128.76 32.76 233.61 60.86 487.78 130.71 l -.65 2.35 c -253.39 -69.62 -358.36 -97.76 -486.58 -130.4 c -35.55 126.29 -63.56 230.78 -129.18 482 h -2.52 Z" fill="#fff"/><path d="M 1919.66 490.7 l -1.16 -.31 c -128.47 -32.67 -233.32 -60.77 -487.77 -130.68 l .65 -2.37 c 253.67 69.71 358.64 97.83 486.56 130.41 c 35.76 -127 63.87 -232 130.37 -486.62 l 2.37 .63 C 1984 257.17 1955.88 362 1920 489.55 l -.33 1.14 h 0 Z" fill="#fff"/><path d="M 1976.78 627 c -84.72 -48.19 -119.47 -68.25 -161.64 -93.33 l -1 -.6 l .6 -1 c 24 -42.91 44.1 -77.66 93.31 -161.65 l 2.12 1.24 c -48.8 83.29 -68.93 118.14 -92.72 160.55 C 1859.11 557 1894 577.08 1978 624.88 l -1.2 2.11 Z" fill="#fff"/><path d="M 1944.21 635.71 l -2.12 -1.24 c 48.84 -83.33 69 -118.19 92.72 -160.55 c -42 -24.94 -76.83 -45.06 -160.57 -92.69 l 1.21 -2.14 c 84.44 48 119.18 68.11 161.63 93.33 l 1 .62 l -.57 1 c -24 42.86 -44.09 77.6 -93.33 161.64 h 0 Z" fill="#fff"/><path d="M 1679.37 956.08 l -2.13 -1.21 c 130.51 -229.42 184.78 -323.45 252.5 -437.36 l .61 -1 l 1 .6 c 115.84 64.93 209.84 119.22 437.33 252.51 l -1.24 2.1 c -226.79 -132.85 -320.9 -187.2 -436.25 -251.89 c -67.42 113.44 -121.75 207.56 -251.86 436.29 Z" fill="#fff"/><path d="M 1923.05 489.29 l -1 -.59 c -115.58 -64.8 -209.59 -119.06 -437.32 -252.49 l 1.23 -2.12 c 227 133 321.15 187.36 436.25 251.89 C 1989.58 372.56 2043.9 278.44 2174 49.72 l 2.13 1.19 c -130.52 229.46 -184.8 323.46 -252.49 437.35 l -.62 1 Z" fill="#fff"/><path d="M 1943 635.71 c -69.31 -68.43 -97.69 -96.79 -132 -132 l -.83 -.84 l .83 -.86 c 34.33 -35.19 62.69 -63.57 132 -132 l 1.72 1.74 c -68.71 67.84 -97.18 96.3 -131.11 131.09 c 33.91 34.77 62.37 63.23 131.11 131.08 l -1.72 1.74 Z" fill="#fff"/><path d="M 1909.23 635.71 l -1.72 -1.74 c 68.7 -67.82 97.16 -96.26 131.11 -131.08 c -34.08 -34.95 -62.54 -63.39 -131.11 -131.09 l 1.73 -1.74 c 69.14 68.26 97.51 96.62 132 132 l .82 .86 l -.82 .86 c -34.35 35.2 -62.71 63.58 -132 132 Z" fill="#fff"/><path d="M 2282.89 876.62 c -184.66 -187 -261.5 -263.9 -356.19 -356.22 c -89.92 87.67 -163.84 161.49 -330 329.66 h -3.47 c 167.88 -169.93 242 -243.9 332.58 -332.26 l .86 -.85 l .85 .85 c 95.09 92.72 171.85 169.48 357.08 357.08 l -1.75 1.74 Z" fill="#fff"/><path d="M 1926.7 488.81 l -.85 -.84 c -91.6 -89.31 -166.33 -164 -338.19 -338 h 3.45 c 170.11 172.22 244.69 246.72 335.59 335.36 c 94.42 -92.08 171.25 -168.9 356.19 -356.22 l 1.74 1.72 C 2099.14 318.78 2022.37 395.52 1927.56 488 l -.85 .85 h 0 Z" fill="#fff"/><path d="M 1908 635.4 c -49.2 -84 -69.27 -118.73 -93.31 -161.64 l -.59 -1 l 1 -.61 c 42.23 -25.11 77 -45.17 161.64 -93.33 l 1.21 2.12 c -84 47.77 -118.82 67.89 -160.57 92.69 c 23.78 42.43 43.92 77.28 92.72 160.55 L 1908 635.4 Z" fill="#fff"/><path d="M 1875.45 626.68 l -1.2 -2.13 c 83.93 -47.76 118.78 -67.87 160.56 -92.69 c -23.86 -42.55 -44 -77.39 -92.71 -160.55 l 2.11 -1.25 c 49.14 83.87 69.19 118.61 93.32 161.63 l .58 1.06 l -1 .6 c -42.26 25.11 -77 45.17 -161.64 93.32 h 0 Z" fill="#fff"/><path d="M 2174 956.08 c -130 -228.45 -184.28 -322.57 -251.85 -436.29 C 1807 584.36 1712.9 638.7 1485.92 771.68 l -1.23 -2.11 C 1712.35 636.18 1806.37 581.9 1922 517.06 l 1 -.59 l .61 1 c 67.87 114.2 122.14 208.21 252.5 437.35 l -2.14 1.22 Z" fill="#fff"/><path d="M 1930.35 489.29 l -.61 -1 c -67.75 -114 -122 -208 -252.5 -437.35 l 2.13 -1.19 C 1809.45 278.36 1863.78 372.49 1931.23 486 c 115 -64.46 209.09 -118.81 436.25 -251.89 l 1.24 2.12 C 2140.87 369.7 2046.86 424 1931.38 488.7 l -1 .59 h 0 Z" fill="#fff"/><path d="M 1874.36 626.05 c -25.79 -93.82 -36.17 -132.58 -48.31 -180.29 l -.29 -1.16 l 1.15 -.32 c 47.25 -13.31 86 -23.69 180.27 -48.31 l .62 2.38 c -93.48 24.41 -132.36 34.82 -179.08 48 c 12 47.17 22.42 86 48 179.09 l -2.36 .65 Z" fill="#fff"/><path d="M 1845.17 609.2 l -.63 -2.39 c 93.37 -24.36 132.24 -34.79 179.09 -48 c -12 -47.16 -22.44 -86 -48 -179.09 l 2.37 -.65 c 25.78 93.84 36.16 132.58 48.3 180.3 l .29 1.17 l -1.14 .31 c -47.38 13.33 -86.13 23.71 -180.28 48.31 h 0 Z" fill="#fff"/><path d="M 2047.12 1000.08 c -65.55 -251 -93.55 -355.51 -129.17 -482 c -128 32.59 -233 60.71 -486.57 130.4 l -.65 -2.36 c 254.36 -69.9 359.21 -98 487.78 -130.7 l 1.16 -.31 l .32 1.15 c 35.8 127.18 63.8 231.62 129.66 483.86 Z" fill="#fff"/><path d="M 1933.74 490.7 l -.32 -1.15 c -35.92 -127.56 -64 -232.41 -130.7 -487.79 l 2.37 -.62 c 66.48 254.6 94.6 359.57 130.37 486.61 c 127.79 -32.52 232.76 -60.65 486.57 -130.4 l .65 2.36 c -254.6 70 -359.44 98 -487.78 130.69 l -1.16 .3 Z" fill="#fff"/><path d="M 1844.26 608.31 c -.62 -97.35 -.62 -137.47 0 -186.65 l 0 -1.2 h 1.2 c 49.12 -.62 89.23 -.62 186.63 0 v 2.44 c -96.59 -.6 -136.84 -.62 -185.4 0 c -.61 48.61 -.61 88.87 0 185.4 l -2.45 0 Z" fill="#fff"/><path d="M 1931.88 584.93 c -28.36 0 -62.73 -.16 -111.45 -.46 V 582 c 96.5 .64 136.75 .64 185.4 0 c .61 -48.63 .61 -88.86 0 -185.4 l 2.44 0 c .63 97.35 .63 137.47 0 186.65 v 1.2 h -1.2 c -24.57 .31 -46.88 .46 -75.18 .46 Z" fill="#fff"/><path d="M 1914.44 1000.08 c 1.56 -249.22 1.52 -355.84 -.11 -484.82 c -132.17 -1.67 -240.84 -1.67 -503.74 0 l 0 -2.46 c 263.71 -1.67 372.25 -1.67 505 0 l 1.2 0 V 514 c 1.65 129.55 1.67 236.06 .12 486.05 Z" fill="#fff"/><path d="M 2141.19 494.22 c -76.8 0 -137.07 -.43 -203.33 -1.26 l -1.2 0 v -1.18 C 1935 361.46 1935 254.33 1936.56 0 H 1939 c -1.59 253.53 -1.57 360.77 .07 490.5 c 131.84 1.67 240.51 1.67 503.75 0 V 493 c -131.89 .83 -225 1.26 -301.64 1.26 Z" fill="#fff"/><path d="M 1822.16 584 l -2.37 -.61 c 24.61 -94.26 35 -133 48.31 -180.3 l .32 -1.15 l 1.16 .3 c 47.62 12.1 86.38 22.5 180.27 48.29 l -.64 2.36 c -93.13 -25.59 -132 -36 -179.08 -48 c -13.16 46.76 -23.57 85.63 -48 179.1 Z" fill="#fff"/><path d="M 1984.38 602.78 l -1.16 -.29 c -47.67 -12.13 -86.42 -22.51 -180.29 -48.31 l .66 -2.37 c 93.08 25.58 132 36 179.07 48 c 13.18 -46.85 23.59 -85.73 48 -179.11 l 2.37 .62 c -24.58 94.16 -35 132.92 -48.31 180.29 l -.31 1.14 h 0 Z" fill="#fff"/><path d="M 1783.52 998.89 l -2.36 -.66 c 69.65 -253.51 97.79 -358.48 130.4 -486.61 c -127.2 -35.79 -232.18 -63.93 -486.6 -130.35 l .62 -2.37 c 255.2 66.64 360.05 94.73 487.79 130.7 l 1.15 .33 l -.3 1.15 c -32.73 128.65 -60.83 233.51 -130.7 487.8 h 0 Z" fill="#fff"/><path d="M 2427.82 626.88 c -255.35 -66.69 -360.21 -94.78 -487.78 -130.7 l -1.14 -.34 l .29 -1.15 c 32.69 -128.5 60.78 -233.33 130.7 -487.8 l 2.36 .65 c -69.7 253.68 -97.84 358.65 -130.4 486.59 c 127 35.78 232 63.89 486.58 130.39 l -.61 2.36 Z" fill="#fff"/><path d="M 1804.74 554.18 L 1802.6 553 c 48.16 -84.65 68.22 -119.4 93.33 -161.65 l .6 -1 l 1 .57 c 42.88 24.05 77.63 44.1 161.65 93.33 l -1.25 2.12 c -83.32 -48.83 -118.17 -68.95 -160.55 -92.72 c -24.81 41.75 -44.92 76.62 -92.68 160.58 Z" fill="#fff"/><path d="M 1956.55 614.32 l -1 -.61 c -42.89 -24 -77.63 -44.1 -161.64 -93.31 l 1.23 -2.11 c 83.31 48.81 118.17 68.94 160.56 92.71 c 24.87 -41.85 45 -76.72 92.68 -160.58 l 2.13 1.22 c -48.1 84.56 -68.16 119.3 -93.32 161.63 l -.61 1.06 h 0 Z" fill="#fff"/><path d="M 1660 944.92 l -2.11 -1.24 c 132.93 -226.91 187.28 -321 251.89 -436.26 c -113.58 -67.51 -207.7 -121.83 -436.26 -251.88 l 1.21 -2.13 C 1704 383.86 1798 438.13 1912.1 505.94 l 1 .58 l -.58 1.06 c -64.88 115.73 -119.16 209.73 -252.5 437.34 h 0 Z" fill="#fff"/><path d="M 2378.65 752.36 c -229.33 -130.47 -323.34 -184.75 -437.33 -252.49 l -1 -.61 l .59 -1 C 2005.74 382.52 2060 288.5 2193.37 60.86 l 2.12 1.25 c -133 226.94 -187.29 321.06 -251.88 436.26 c 113.51 67.45 207.62 121.79 436.26 251.87 l -1.22 2.12 Z" fill="#fff"/><path d="M 2057.79 520.86 c -67.85 -68.74 -96.31 -97.19 -131.09 -131.12 c -34.78 33.93 -63.24 62.39 -131.08 131.12 l -1.74 -1.72 c 68.41 -69.31 96.78 -97.67 132 -132 l .85 -.83 l .85 .83 c 35.19 34.31 63.57 62.67 132 132 l -1.75 1.72 Z" fill="#fff"/><path d="M 1926.7 618.24 l -.85 -.85 c -35.19 -34.29 -63.56 -62.67 -132 -132 l 1.74 -1.7 c 67.84 68.72 96.3 97.17 131.08 131.1 c 34.78 -33.93 63.24 -62.39 131.09 -131.1 l 1.75 1.7 c -68.42 69.31 -96.8 97.69 -132 132 l -.85 .85 Z" fill="#fff"/><path d="M 1562.13 850.06 c 180.51 -178.26 256.35 -254.12 347.09 -347.17 c -91.71 -94 -168.22 -170.56 -352.85 -352.87 h 3.48 c 183.93 181.62 260.15 257.86 352 352 l .83 .86 l -.83 .86 c -90.81 93.14 -166.39 168.76 -346.18 346.31 Z" fill="#fff"/><path d="M 2298.69 860.83 c -187.76 -185.39 -264.52 -262.14 -357.07 -357.08 l -.84 -.86 l .84 -.86 c 92.57 -95 169.34 -171.73 357.07 -357.08 l 1.71 1.73 c -187.15 184.8 -264 261.65 -356.2 356.21 c 92.18 94.54 169 171.37 356.2 356.19 l -1.71 1.75 Z" fill="#fff"/><path d="M 2214.39 4.93 c -2.53 0 -6.89 -1.36 -14.56 -4.92 h 6.34 c 4.78 2 8.08 3 8.94 2.21 c .2 -.41 0 -1.16 -.51 -2.21 h 2.67 c .64 1.74 .58 3 -.16 3.88 a 3.22 3.22 0 0 1 -2.71 1 h 0 Z" fill="#fff"/><path d="M 2334.75 96.54 c -5.14 0 -18.46 -10.84 -62.7 -54.91 l 1.83 -1.85 c 15.45 15.4 56.48 56.26 61 54.16 c 1.68 -2 -6.06 -18.39 -13.56 -34.27 c -7.95 -16.86 -17.83 -37.79 -25.95 -59.67 h 2.77 c 8 21.45 17.72 42 25.54 58.57 c 11.69 24.78 16.29 34.93 12.68 37.48 a 2.64 2.64 0 0 1 -1.6 .48 h 0 Z" fill="#fff"/><path d="M 2282.83 49.89 c -60.89 -35.3 -70.83 -43.6 -69.22 -48 A 3.25 3.25 0 0 1 2216 0 h 10 c 6.25 .7 15.07 2.26 27 4.42 c 46.7 8.44 122.46 22.15 159.66 -4.42 H 2417 c -37.11 30 -116.13 15.72 -164.4 7 c -17.27 -3.13 -35.13 -6.35 -36.59 -4.2 c -.85 4.88 49.23 33.93 68.09 44.87 l -1.31 2.23 Z" fill="#fff"/><path d="M 2426.79 216.11 c -4.67 0 -14.05 -12.34 -47.14 -69.38 l 2.26 -1.3 c 10.84 18.7 39.48 68.11 44.75 68.11 l .13 0 c 2.15 -1.45 -1.09 -19.32 -4.21 -36.59 C 2413.37 126 2398 41 2434.84 6.86 c .15 -2.35 .39 -4.63 .67 -6.85 h 2.62 c -.32 2.44 -.57 4.94 -.73 7.54 l 0 .52 l -.39 .37 c -36.28 32.88 -21 117.47 -11.84 168 c 4.88 27 6.69 38 2.55 39.49 a 2.6 2.6 0 0 1 -.89 .16 h 0 Z" fill="#fff"/><path d="M 1431.93 850.06 c -1.24 -7.35 -2.51 -14.33 -3.67 -20.76 c -4.87 -27 -6.68 -38 -2.54 -39.48 s 11.86 7.35 42.78 60.24 h -3 c -13.1 -22.42 -34.72 -58.54 -38.9 -57.8 c -2.13 1.45 1.1 19.33 4.22 36.58 c 1.19 6.56 2.48 13.7 3.75 21.22 Z" fill="#fff"/><path d="M 1600 998.66 l .73 .13 l 7.13 1.29 H 1600 v -1.42 Z m 35.37 1.42 c -5.25 -5.07 -20.28 -14.67 -35.37 -23.81 v -3 c 25.14 15.16 35.39 22.56 38.65 26.84 Z" fill="#fff"/><path d="M 2387.93 157.51 c -49.68 -49.85 -57.13 -60.46 -54.43 -64.28 c 2.54 -3.62 12.7 1 37.48 12.67 c 46.46 21.92 124.25 58.59 165.38 32 l .44 -.29 l .53 .11 c 64 12.92 91.34 -37.19 107.69 -67.13 c 7.13 -13 11.87 -21.68 17.27 -20.83 c 6 .91 11.4 12.07 22.45 68.28 l -2.54 .51 c -6.66 -33.8 -13.73 -65.21 -20.3 -66.22 c -3.63 -.57 -8.72 8.74 -14.6 19.5 c -16.68 30.48 -44.53 81.44 -110 68.54 c -42.48 26.8 -120.66 -10.09 -167.46 -32.17 c -15.87 -7.48 -32.28 -15.23 -34.25 -13.51 c -2.1 4.48 38.77 45.49 54.14 60.94 l -1.83 1.83 Z" fill="#fff"/><path d="M 2484.64 355.41 c -4.62 0 -10.2 -12.48 -28.23 -79.3 l 2.49 -.67 c 5.69 21.05 20.78 76.94 25.74 77.38 c 2.45 -.85 4 -18.95 5.41 -36.43 c 4.27 -51.55 11.42 -137.72 55.86 -161.1 c 21.55 -63.16 79.63 -61.79 114.34 -61 c 12.26 .3 22.84 .54 24.18 -2.88 c 2.41 -6.22 -21.25 -28 -47.18 -50.68 l 1.7 -2 c 43.13 37.69 50.13 47.9 47.91 53.58 c -2 5.12 -11.82 4.9 -26.68 4.54 c -34.1 -.79 -91.17 -2.15 -112 59.71 l -.16 .5 l -.48 .24 c -43.55 22.38 -50.67 108.05 -54.92 159.24 c -2.26 27.31 -3.36 38.42 -7.75 38.81 h -.24 Z" fill="#fff"/><path d="M 1304.87 850.06 l .31 -.88 l .18 -.51 l .47 -.24 c 43.56 -22.37 50.68 -108.07 54.94 -159.26 c 2.26 -27.3 3.36 -38.39 7.75 -38.79 c 4.64 -.48 10.12 11.33 28.46 79.27 l -2.51 .67 c -5.68 -21 -20.76 -76.93 -25.73 -77.36 c -2.44 .85 -3.94 18.94 -5.38 36.43 c -4.27 51.24 -11.38 136.68 -55.09 160.67 h -3.4 Z" fill="#fff"/><path d="M 1463.65 850.06 l 1.81 -1.8 l 1.8 1.8 Z" fill="#fff"/><path d="M 2758.5 327.4 l -2.6 -.17 c 2.33 -34.36 3.63 -66.53 -2.46 -69.22 c -3.41 -1.49 -10.7 6.19 -19.15 15.07 c -24 25.15 -64.09 67.16 -124 37.75 c -48 14.88 -113.94 -41 -153.41 -74.42 c -13.41 -11.33 -27.26 -23 -29.59 -21.93 c -3.19 3.79 25.66 54 36.52 72.89 l -2.25 1.29 c -35.07 -61 -39.53 -73.18 -35.93 -76.18 c 3.37 -2.83 12 4.25 32.91 21.94 c 39.22 33.2 104.83 88.76 151.45 73.78 l .51 -.18 l .48 .24 c 58.44 29 97.86 -12.28 121.39 -37 c 10.27 -10.75 17 -17.87 22.09 -15.64 c 5.57 2.45 7.87 14.62 4 71.76 h 0 Z" fill="#fff"/><path d="M 2504.45 505 a 2.1 2.1 0 0 1 -.43 -.05 c -4.62 -.8 -6.84 -13.57 -7 -84 h 2.59 c .05 21.79 .16 79.7 4.85 81.41 c 2.56 -.21 8.7 -17.28 14.63 -33.8 c 17.48 -48.67 46.68 -130 95.64 -141.15 c 37.18 -55.43 92.9 -39.08 126.23 -29.3 c 11.77 3.46 21.92 6.44 24.11 3.46 c 3.93 -5.36 -13.28 -32.57 -32.46 -61.16 l 2.15 -1.45 c 31.92 47.56 36 59.25 32.41 64.15 c -3.26 4.44 -12.67 1.68 -26.94 -2.52 c -32.73 -9.59 -87.51 -25.66 -123.63 28.7 l -.29 .43 l -.51 .11 c -47.86 10.33 -76.9 91.25 -94.27 139.6 c -8.94 24.94 -12.93 35.51 -17.11 35.52 h 0 Z" fill="#fff"/><path d="M 1118.59 766.83 c -31.91 -47.56 -36 -59.24 -32.4 -64.15 c 3.25 -4.44 12.68 -1.68 26.94 2.5 c 32.74 9.62 87.53 25.68 123.61 -28.68 l .3 -.43 l .52 -.11 c 47.87 -10.33 76.91 -91.26 94.28 -139.6 c 9.26 -25.79 13.22 -36.24 17.54 -35.47 c 4.62 .79 6.84 13.55 7 83.94 h -2.6 c 0 -21.8 -.16 -79.69 -4.83 -81.39 c -2.58 .2 -8.71 17.28 -14.63 33.78 c -17.48 48.69 -46.7 130.06 -95.68 141.16 c -37.15 55.44 -92.89 39.08 -126.2 29.31 c -11.79 -3.46 -22 -6.44 -24.13 -3.48 c -3.93 5.38 13.28 32.58 32.47 61.18 l -2.16 1.45 h 0 Z" fill="#fff"/><path d="M 1426 793.92 c -4.31 0 -13.2 -7.37 -31.16 -22.56 c -39.19 -33.2 -104.8 -88.72 -151.42 -73.76 l -.51 .16 l -.47 -.23 c -58.46 -29 -97.86 12.28 -121.4 37 c -10.26 10.75 -17 17.86 -22.08 15.66 c -5.58 -2.47 -7.87 -14.64 -4 -71.78 l 2.6 .18 c -2.32 34.36 -3.63 66.53 2.47 69.21 c 3.37 1.5 10.68 -6.18 19.15 -15.06 c 24 -25.13 64.06 -67.16 124 -37.72 c 48 -14.91 113.93 41 153.41 74.39 c 13.38 11.35 27.23 23.07 29.59 21.93 c 3.19 -3.79 -25.67 -54 -36.52 -72.89 l 2.25 -1.29 c 35.08 61 39.53 73.2 35.93 76.19 a 2.69 2.69 0 0 1 -1.78 .61 Z" fill="#fff"/><path d="M 2775.58 548.68 l -2.46 -.85 c 11.15 -32.59 20.73 -63.33 15.53 -67.48 c -2.87 -2.3 -11.93 3.2 -22.4 9.59 c -29.67 18.07 -79.27 48.29 -129.52 4.35 c -.67 0 -1.35 0 -2 0 c -49.47 0 -97.82 -69.69 -126.9 -111.62 c -9.84 -14.19 -20 -28.86 -22.78 -28.86 a .25 .25 0 0 0 -.12 0 c -4.06 2.84 10.81 58.8 16.42 79.86 l -2.52 .66 c -18.08 -68 -19.24 -80.92 -15 -82.88 c 4 -1.85 10.48 7.2 26.1 29.71 c 29.29 42.22 78.38 112.86 127.19 110.45 l .54 0 l .4 .35 c 48.95 43.16 97.7 13.46 126.84 -4.28 c 12.69 -7.74 21.07 -12.86 25.37 -9.42 c 4.74 3.83 3.8 16.16 -14.7 70.37 Z" fill="#fff"/><path d="M 2484.89 654.5 a 2.55 2.55 0 0 1 -1.06 -.22 c -4.26 -2 -3.1 -14.88 15 -82.91 l 2.52 .67 c -5.61 21.06 -20.48 77 -16.41 79.87 c 2.47 .42 12.9 -14.44 22.9 -28.85 c 29.08 -41.92 77.43 -111.62 126.88 -111.62 c .69 0 1.34 0 2 0 c 50.25 -43.91 99.85 -13.72 129.52 4.38 c 10.47 6.36 19.51 11.88 22.4 9.59 c 5.18 -4.18 -4.4 -34.92 -15.53 -67.51 l 2.45 -.83 c 18.51 54.19 19.45 66.53 14.69 70.36 c -4.29 3.44 -12.68 -1.68 -25.36 -9.41 c -29.15 -17.74 -77.9 -47.44 -126.85 -4.29 l -.38 .36 l -.54 0 c -.81 0 -1.63 0 -2.44 0 c -48.08 0 -95.94 69 -124.73 110.5 c -14.32 20.61 -21 30 -25.07 30 Z" fill="#fff"/><path d="M 1077.82 548.68 c -18.52 -54.21 -19.45 -66.55 -14.69 -70.36 c 4.28 -3.44 12.67 1.66 25.37 9.39 c 29.13 17.76 77.89 47.46 126.82 4.29 l .4 -.34 l .54 0 c 48.93 2.35 97.91 -68.24 127.2 -110.45 c 15.61 -22.51 22.09 -31.58 26.11 -29.71 c 4.25 2 3.1 14.86 -15 82.87 l -2.5 -.67 c 5.6 -21.05 20.47 -77 16.39 -79.86 c -2.51 -.43 -12.87 14.43 -22.88 28.86 c -29.48 42.5 -78.77 113.44 -128.93 111.57 c -50.24 43.94 -99.83 13.71 -129.51 -4.36 c -10.47 -6.39 -19.52 -11.89 -22.4 -9.59 c -5.19 4.16 4.4 34.9 15.53 67.49 l -2.45 .85 Z" fill="#fff"/><path d="M 1368.5 654.5 c -4.1 0 -10.74 -9.35 -25.06 -30 c -29.28 -42.2 -78.22 -112.86 -127.18 -110.44 l -.53 0 l -.39 -.35 c -48.95 -43.16 -97.71 -13.46 -126.84 4.29 c -12.7 7.73 -21.09 12.83 -25.37 9.39 c -4.76 -3.81 -3.82 -16.17 14.69 -70.36 l 2.45 .85 c -11.12 32.58 -20.71 63.32 -15.53 67.48 c 2.89 2.31 11.93 -3.2 22.4 -9.58 c 29.68 -18.08 79.27 -48.29 129.52 -4.37 c 50.16 -1.9 99.44 69.09 128.92 111.58 c 10 14.41 20.43 29.29 22.91 28.84 c 4.06 -2.84 -10.81 -58.8 -16.42 -79.86 l 2.51 -.67 c 18.09 68 19.24 80.93 15 82.91 a 2.63 2.63 0 0 1 -1.07 .22 Z" fill="#fff"/><path d="M 2734.79 766.83 l -2.15 -1.45 c 19.19 -28.6 36.41 -55.8 32.48 -61.16 c -2.19 -3 -12.36 0 -24.13 3.46 c -33.33 9.77 -89.07 26.11 -126.22 -29.31 c -49 -11.09 -78.19 -92.46 -95.66 -141.16 c -5.91 -16.5 -12.07 -33.57 -14.65 -33.77 c -4.66 1.69 -4.77 59.58 -4.82 81.38 h -2.59 c .13 -70.39 2.35 -83.15 7 -83.94 c 4.34 -.74 8.26 9.68 17.53 35.47 c 17.35 48.34 46.4 129.27 94.28 139.6 l .52 .11 l .29 .43 c 36.09 54.37 90.89 38.3 123.62 28.7 c 14.26 -4.2 23.69 -7 26.94 -2.52 c 3.6 4.91 -.49 16.6 -32.41 64.15 h 0 Z" fill="#fff"/><path d="M 2427.44 793.91 a 2.67 2.67 0 0 1 -1.77 -.6 c -3.6 -3 .85 -15.18 35.92 -76.21 l 2.26 1.31 c -10.87 18.89 -39.72 69.1 -36.51 72.91 c 2.32 1.07 16.17 -10.6 29.58 -22 C 2496.4 736 2562.38 680.08 2610.33 695 c 59.91 -29.42 100 12.61 124 37.74 c 8.47 8.88 15.79 16.55 19.15 15.06 c 6.11 -2.67 4.8 -34.85 2.47 -69.21 l 2.6 -.18 c 3.86 57.15 1.57 69.31 -4 71.77 c -5 2.21 -11.81 -4.9 -22.08 -15.65 c -23.55 -24.68 -63 -66 -121.4 -37 l -.46 .22 l -.51 -.16 c -46.61 -15 -112.24 40.57 -151.44 73.77 c -17.94 15.19 -26.84 22.54 -31.15 22.54 h 0 Z" fill="#fff"/><path d="M 1094.89 327.4 c -3.85 -57.14 -1.56 -69.3 4 -71.76 c 5 -2.23 11.81 4.9 22.08 15.64 c 23.55 24.69 63 66 121.39 37 l .47 -.24 l .5 .15 c 46.63 15 112.25 -40.56 151.46 -73.75 c 20.91 -17.69 29.53 -24.77 32.92 -21.94 c 3.6 3 -.86 15.16 -35.92 76.18 l -2.26 -1.29 c 10.85 -18.9 39.7 -69.1 36.51 -72.91 c -2.32 -1.15 -16.18 10.61 -29.57 21.95 c -35 29.62 -90.81 76.86 -136.44 76.86 a 57 57 0 0 1 -17 -2.45 c -59.89 29.41 -100 -12.6 -124 -37.74 c -8.47 -8.88 -15.8 -16.55 -19.15 -15.07 c -6.1 2.68 -4.8 34.85 -2.47 69.21 l -2.6 .18 Z" fill="#fff"/><path d="M 1348.93 505 c -4.17 0 -8.14 -10.59 -17.09 -35.52 c -17.37 -48.36 -46.41 -129.27 -94.27 -139.59 l -.51 -.11 l -.3 -.44 c -36.12 -54.37 -90.9 -38.3 -123.63 -28.69 c -14.26 4.18 -23.69 6.94 -26.93 2.51 c -3.61 -4.91 .48 -16.6 32.39 -64.16 l 2.16 1.45 c -19.19 28.61 -36.4 55.81 -32.46 61.18 c 2.17 3 12.34 0 24.12 -3.46 c 33.31 -9.79 89 -26.13 126.22 29.29 c 49 11.1 78.18 92.48 95.65 141.14 c 5.92 16.53 12.06 33.6 14.66 33.81 c 4.67 -1.69 4.77 -59.62 4.81 -81.41 h 2.6 c -.13 70.39 -2.36 83.16 -7 84 a 2.18 2.18 0 0 1 -.44 0 Z" fill="#fff"/><path d="M 2639 967 l -1.7 -2 c 25.92 -22.65 49.59 -44.48 47.19 -50.68 c -1.34 -3.43 -11.94 -3.17 -24.2 -2.89 c -34.74 .81 -92.79 2.19 -114.34 -61 c -44.43 -23.37 -51.59 -109.55 -55.87 -161.09 c -1.46 -17.49 -2.95 -35.57 -5.41 -36.43 c -4.94 .43 -20 56.33 -25.71 77.36 l -2.51 -.67 c 18.35 -68 23.9 -79.67 28.47 -79.28 c 4.38 .4 5.48 11.5 7.75 38.8 c 4.25 51.19 11.37 136.88 54.94 159.26 l .48 .24 l .16 .49 c 20.8 61.86 77.88 60.52 112 59.71 c 14.86 -.35 24.68 -.59 26.67 4.54 c 2.22 5.7 -4.76 15.91 -47.89 53.59 h 0 Z" fill="#fff"/><path d="M 2661.55 956 c -5.13 0 -9.74 -8.42 -16.53 -20.89 c -16.35 -29.93 -43.73 -80 -107.71 -67.13 l -.51 .09 l -.44 -.27 c -41.16 -26.55 -118.91 10.13 -165.37 32 c -24.78 11.68 -34.94 16.28 -37.49 12.69 c -2.7 -3.84 4.75 -14.45 54.43 -64.32 l 1.83 1.85 c -15.37 15.44 -56.25 56.46 -54.14 61 c 2 1.67 18.39 -6.06 34.26 -13.54 c 46.78 -22.08 125 -58.95 167.43 -32.17 c 65.5 -12.91 93.32 38 110 68.54 c 5.88 10.75 11 20.06 14.61 19.5 c 6.58 -1 13.64 -32.43 20.3 -66.21 l 2.54 .49 c -11.07 56.2 -16.42 67.36 -22.45 68.28 a 3.54 3.54 0 0 1 -.73 .07 Z" fill="#fff"/><path d="M 1465.47 157.51 l -1.84 -1.83 l 5.63 -5.66 h 3.64 l -7.43 7.49 Z" fill="#fff"/><path d="M 1368.76 355.41 h -.23 c -4.39 -.38 -5.5 -11.5 -7.76 -38.81 c -4.26 -51.19 -11.37 -136.86 -54.93 -159.23 l -.48 -.25 l -.16 -.49 c -.77 -2.29 -1.59 -4.48 -2.46 -6.6 h 2.8 c .68 1.71 1.33 3.46 2 5.28 c 44.42 23.39 51.58 109.54 55.86 161.09 c 1.46 17.49 3 35.58 5.42 36.43 c 4.94 -.43 20 -56.33 25.71 -77.37 l 2.52 .68 c -18 66.8 -23.62 79.29 -28.24 79.29 h 0 Z" fill="#fff"/><path d="M 2434.94 1000.08 l -.1 -1.16 c -36.86 -34.09 -21.47 -119.18 -12.28 -170.08 c 3.14 -17.25 6.36 -35.13 4.21 -36.58 a .3 .3 0 0 0 -.13 0 c -5.25 0 -33.88 49.4 -44.73 68.1 l -2.24 -1.31 c 35.3 -60.89 43.59 -70.85 48 -69.21 c 4.13 1.52 2.32 12.51 -2.56 39.48 c -9.14 50.57 -24.44 135.17 11.85 168.05 l .4 .35 l 0 .53 c 0 .62 .09 1.23 .14 1.84 h -2.6 Z" fill="#fff"/><path d="M 2403 1000.08 c -37.42 -17.68 -99.86 -7.69 -142.81 0 h -14.62 l 7.13 -1.29 c 44.87 -8.11 116.3 -21 155.95 1.29 H 2403 Z m -188.23 0 c 4.31 -5.68 20.89 -16.82 68.11 -44.21 l 1.31 2.25 c -16.48 9.56 -56.8 32.94 -66.14 42 h -3.28 Z" fill="#fff"/><path d="M 1600 29.51 C 1619 18 1637.87 5.8 1637.35 2.78 C 1635.88 .64 1618 3.86 1600.76 7 l -.73 .14 V 4.49 l .27 0 c 12 -2.16 20.8 -3.72 27 -4.42 h 10.05 a 3.21 3.21 0 0 1 2.4 1.88 c 1.3 3.56 -5 9.69 -39.76 30.64 v -3 Z" fill="#fff"/><path d="M 1426.6 216.11 a 2.85 2.85 0 0 1 -.88 -.15 c -4.14 -1.53 -2.33 -12.52 2.54 -39.5 c 1.46 -8.06 3.08 -17 4.62 -26.44 h 2.63 c -1.56 9.61 -3.21 18.7 -4.69 26.9 c -3.12 17.27 -6.35 35.14 -4.19 36.6 c 4.55 .75 29.83 -42.21 42.21 -63.5 h 3 c -31.53 54.22 -40.65 66.09 -45.23 66.09 Z" fill="#fff"/><path d="M 2297.52 1000.08 c 7.67 -19.81 16.53 -38.6 23.79 -54 c 7.49 -15.86 15.23 -32.27 13.53 -34.25 c -4.53 -2.18 -45.5 38.76 -61 54.15 l -1.83 -1.85 c 49.86 -49.66 60.47 -57.14 64.29 -54.41 c 3.6 2.53 -1 12.7 -12.68 37.48 c -7.12 15.09 -15.8 33.5 -23.36 52.87 h -2.79 Z" fill="#fff"/><path d="M 1639 4.93 a 3.25 3.25 0 0 1 -2.73 -1 c -.74 -.88 -.8 -2.14 -.16 -3.88 h 2.69 c -.52 1.05 -.72 1.81 -.52 2.23 c .86 .72 4.14 -.22 8.9 -2.23 h 6.36 c -7.67 3.56 -12 4.92 -14.54 4.92 Z" fill="#fff"/></g><ellipse cx="1927.36" cy="503.54" fill="#4a90e2" rx="136" ry="136.01"/><g id="_2398997165024" data-name=" 2398997165024"><path d="M 1940.61 499.5 a 13 13 0 0 1 -25.91 0 c 0 -9.72 -3.24 -13 -13 -13 s -13 3.24 -13 13 a 13 13 0 1 1 -13 -13 c 9.72 0 13 -3.24 13 -13 a 13 13 0 0 1 25.92 0 c 0 9.72 3.23 13 13 13 A 12.93 12.93 0 0 1 1940.61 499.5 Z" fill="#fff" fill-rule="evenodd"/><circle cx="1849.83" cy="525.45" fill="#fff" r="12.96"/><path d="M 2018.46 473.54 a 13 13 0 0 1 -13 13 c -9.72 0 -13 3.24 -13 13 a 12.94 12.94 0 0 1 -13 12.95 c -9.72 0 -13 3.24 -13 13 a 13 13 0 1 1 -13 -13 c 9.72 0 13 -3.24 13 -12.95 a 13 13 0 0 1 13 -13 c 9.72 0 13 -3.24 13 -13 a 13 13 0 0 1 25.91 0 Z" fill="#fff" fill-rule="evenodd"/></g><path d="M 1600 0 H 3700.08 V 1000.08 H 1600 v -150 H 0 V 150 H 1600 V 0 Z" fill="none" stroke="#4a90e2" stroke-miterlimit="2.61313" stroke-width=".188787"/></g><rect fill="#fff" height="483.66" width="483.66" x="99.21" y="257.21"/><path id="Rectangle" d="M 111 259 a 10 10 0 0 0 -10 10 V 729 a 10 10 0 0 0 10 10 H 571 a 10 10 0 0 0 10 -10 V 269 a 10 10 0 0 0 -10 -10 Z m 0 -10 H 571 a 20 20 0 0 1 20 20 V 729 a 20 20 0 0 1 -20 20 H 111 a 20 20 0 0 1 -20 -20 V 269 A 20 20 0 0 1 111 249 Z" fill="url(#linear-gradient)"/><g isolation="isolate"><path d="M 202.7 202.84 h 13 q 4.6 0 7.16 2.32 a 9.48 9.48 0 0 1 0 13 q -2.55 2.32 -7.16 2.32 h -6.72 V 231 H 202.7 Z m 12.16 12.88 q 4.68 0 4.68 -4 a 3.83 3.83 0 0 0 -1.16 -3.08 a 5.25 5.25 0 0 0 -3.52 -1 h -5.92 v 8.12 Z" fill="#2677ff"/><path d="M 253.86 231 h -6.8 l -4.88 -9 a 3.87 3.87 0 0 0 -1.44 -1.5 a 4.32 4.32 0 0 0 -2.12 -.46 h -3.08 v 11 h -6.16 v -28.2 h 13 q 5 0 7.5 2.18 a 7.82 7.82 0 0 1 2.54 6.3 a 8.14 8.14 0 0 1 -1.78 5.36 a 8.48 8.48 0 0 1 -5 2.84 a 6.17 6.17 0 0 1 3.72 3.16 Z m -8.56 -16.62 a 4.23 4.23 0 0 0 0 -5.9 a 6.46 6.46 0 0 0 -3.88 -.92 h -6 v 7.76 h 6 A 6.3 6.3 0 0 0 245.3 214.42 Z" fill="#2677ff"/><path d="M 257.38 231 v -28.2 h 6.24 V 231 Z" fill="#2677ff"/><path d="M 289.82 202.84 h 6.32 L 283.46 231 h -5 l -12.72 -28.2 h 6.48 l 8.8 20.44 Z" fill="#2677ff"/><path d="M 317 231 l -2.68 -6.24 H 301.18 L 298.5 231 h -6.28 l 13 -28.2 h 5 l 13 28.2 Z m -13.76 -11 h 9 l -4.52 -10.56 Z" fill="#2677ff"/><path d="M 328.38 231 V 207.92 h -8.84 v -5.08 h 23.92 v 5.08 h -8.84 V 231 Z" fill="#2677ff"/><path d="M 346.7 231 v -28.2 h 19.44 v 4.84 H 352.78 v 6.6 h 12.56 v 4.84 H 352.78 v 7.08 h 13.36 V 231 Z" fill="#2677ff"/><path d="M 385.22 230.54 a 14.65 14.65 0 0 1 -4.92 -2.38 l 2 -4.44 a 15.68 15.68 0 0 0 9.16 2.84 a 7.94 7.94 0 0 0 4.06 -.86 a 2.65 2.65 0 0 0 1.42 -2.38 a 2.34 2.34 0 0 0 -1.3 -2.12 a 17.34 17.34 0 0 0 -4.62 -1.48 a 25.76 25.76 0 0 1 -5.94 -1.84 a 7.78 7.78 0 0 1 -3.24 -2.66 a 7 7 0 0 1 -1 -3.9 a 7.64 7.64 0 0 1 1.42 -4.56 a 9.49 9.49 0 0 1 4 -3.14 a 14.44 14.44 0 0 1 5.92 -1.14 a 18.92 18.92 0 0 1 5.78 .88 a 11.85 11.85 0 0 1 4.42 2.36 l -2 4.44 a 13.64 13.64 0 0 0 -8.16 -2.84 a 6.77 6.77 0 0 0 -3.84 .94 a 3 3 0 0 0 -1.4 2.58 a 2.31 2.31 0 0 0 .54 1.58 a 4.52 4.52 0 0 0 1.8 1.1 a 27.89 27.89 0 0 0 3.58 1 c 3.63 .8 6.23 1.83 7.82 3.08 a 6.25 6.25 0 0 1 2.38 5.2 a 7.44 7.44 0 0 1 -3.08 6.3 q -3.08 2.29 -8.6 2.3 A 22.09 22.09 0 0 1 385.22 230.54 Z" fill="#2677ff"/><path d="M 407.5 231 v -28.2 h 19.44 v 4.84 H 413.58 v 6.6 h 12.56 v 4.84 H 413.58 v 7.08 h 13.36 V 231 Z" fill="#2677ff"/><path d="M 431.18 231 v -28.2 h 19.44 v 4.84 H 437.26 v 6.6 h 12.56 v 4.84 H 437.26 v 7.08 h 13.36 V 231 Z" fill="#2677ff"/><path d="M 454.86 202.84 h 11 a 17.34 17.34 0 0 1 7.92 1.68 a 11.71 11.71 0 0 1 5.08 4.84 a 15.36 15.36 0 0 1 1.76 7.56 a 15.58 15.58 0 0 1 -1.74 7.58 a 11.6 11.6 0 0 1 -5.06 4.86 a 17.45 17.45 0 0 1 -8 1.68 h -11 Z M 465.38 226 q 9 0 9 -9.08 t -9 -9 H 461.1 V 226 Z" fill="#2677ff"/></g><g id="DO-NOT-SHARE-THIS-WI" isolation="isolate"><g isolation="isolate"><path d="M 103.76 772.71 h 7.12 A 11.25 11.25 0 0 1 116 773.8 a 7.61 7.61 0 0 1 3.3 3.15 a 9.88 9.88 0 0 1 1.15 4.91 a 10.17 10.17 0 0 1 -1.13 4.93 a 7.56 7.56 0 0 1 -3.29 3.16 a 11.35 11.35 0 0 1 -5.18 1.09 h -7.12 Z m 6.84 15 c 3.9 0 5.85 -2 5.85 -5.9 s -2 -5.87 -5.85 -5.87 h -2.78 v 11.77 Z" fill="#2677ff"/><path d="M 127.25 790.12 a 7.88 7.88 0 0 1 -3.11 -3.28 a 11.92 11.92 0 0 1 0 -10 a 7.77 7.77 0 0 1 3.11 -3.26 a 10.45 10.45 0 0 1 9.49 0 a 7.77 7.77 0 0 1 3.11 3.26 a 11.92 11.92 0 0 1 0 10 a 7.88 7.88 0 0 1 -3.11 3.28 a 10.36 10.36 0 0 1 -9.49 0 Z m 8.35 -3.6 a 7.27 7.27 0 0 0 1.31 -4.66 a 7.19 7.19 0 0 0 -1.3 -4.64 a 4.87 4.87 0 0 0 -7.22 0 a 9 9 0 0 0 0 9.3 a 4.36 4.36 0 0 0 3.59 1.61 A 4.42 4.42 0 0 0 135.6 786.52 Z" fill="#2677ff"/><path d="M 163.35 772.71 h 3.8 V 791 h -3 L 155 779.37 V 791 h -3.76 V 772.71 h 3 l 9.12 11.62 Z" fill="#2677ff"/><path d="M 174.44 790.12 a 7.88 7.88 0 0 1 -3.11 -3.28 a 11.92 11.92 0 0 1 0 -10 a 7.77 7.77 0 0 1 3.11 -3.26 a 10.45 10.45 0 0 1 9.49 0 a 7.77 7.77 0 0 1 3.11 3.26 a 11.92 11.92 0 0 1 0 10 a 7.88 7.88 0 0 1 -3.11 3.28 a 10.36 10.36 0 0 1 -9.49 0 Z m 8.35 -3.6 a 7.27 7.27 0 0 0 1.31 -4.66 a 7.19 7.19 0 0 0 -1.3 -4.64 a 4.87 4.87 0 0 0 -7.22 0 a 9 9 0 0 0 0 9.3 a 4.36 4.36 0 0 0 3.59 1.61 A 4.42 4.42 0 0 0 182.79 786.52 Z" fill="#2677ff"/><path d="M 194.4 791 V 776 h -5.75 v -3.3 H 204.2 V 776 h -5.75 v 15 Z" fill="#2677ff"/><path d="M 216 790.72 a 9.64 9.64 0 0 1 -3.2 -1.55 l 1.3 -2.89 a 10.18 10.18 0 0 0 5.95 1.85 a 5.13 5.13 0 0 0 2.64 -.56 a 1.73 1.73 0 0 0 .93 -1.55 a 1.52 1.52 0 0 0 -.85 -1.38 a 11.49 11.49 0 0 0 -3 -1 a 17.08 17.08 0 0 1 -3.86 -1.19 a 5.11 5.11 0 0 1 -2.11 -1.73 a 4.61 4.61 0 0 1 -.66 -2.54 a 5 5 0 0 1 .92 -3 a 6.13 6.13 0 0 1 2.59 -2 a 9.28 9.28 0 0 1 3.85 -.74 a 12.35 12.35 0 0 1 3.75 .57 a 7.68 7.68 0 0 1 2.88 1.53 l -1.3 2.89 a 8.85 8.85 0 0 0 -5.31 -1.85 a 4.45 4.45 0 0 0 -2.49 .61 a 1.92 1.92 0 0 0 -.91 1.68 a 1.48 1.48 0 0 0 .35 1 a 2.86 2.86 0 0 0 1.17 .71 a 16.6 16.6 0 0 0 2.32 .65 a 13 13 0 0 1 5.09 2 a 4.08 4.08 0 0 1 1.54 3.38 a 4.82 4.82 0 0 1 -2 4.1 a 9.15 9.15 0 0 1 -5.59 1.49 A 14.36 14.36 0 0 1 216 790.72 Z" fill="#2677ff"/><path d="M 242.86 772.71 h 4 V 791 h -4 v -7.7 h -8.45 V 791 h -4 V 772.71 h 4 v 7.41 h 8.45 Z" fill="#2677ff"/><path d="M 264.44 791 L 262.7 787 h -8.53 L 252.43 791 h -4.09 l 8.43 -18.33 H 260 L 268.44 791 Z m -8.95 -7.12 h 5.88 l -2.94 -6.87 Z" fill="#2677ff"/><path d="M 285.86 791 h -4.42 l -3.17 -5.85 a 2.38 2.38 0 0 0 -.94 -1 a 2.81 2.81 0 0 0 -1.37 -.3 h -2 V 791 h -4 V 772.71 h 8.42 a 7.29 7.29 0 0 1 4.88 1.42 a 5.09 5.09 0 0 1 1.65 4.09 a 5.32 5.32 0 0 1 -1.16 3.49 a 5.54 5.54 0 0 1 -3.26 1.84 a 4.06 4.06 0 0 1 2.42 2.06 Z m -5.56 -10.8 a 2.75 2.75 0 0 0 0 -3.84 a 4.17 4.17 0 0 0 -2.52 -.6 H 273.9 v 5.05 h 3.88 A 4.16 4.16 0 0 0 280.3 780.24 Z" fill="#2677ff"/><path d="M 288.15 791 V 772.71 h 12.64 v 3.15 H 292.1 v 4.29 h 8.17 v 3.14 H 292.1 v 4.6 h 8.69 V 791 Z" fill="#2677ff"/><path d="M 315 791 V 776 h -5.75 v -3.3 h 15.55 V 776 h -5.75 v 15 Z" fill="#2677ff"/><path d="M 339.34 772.71 h 4 V 791 h -4 v -7.7 h -8.45 V 791 h -4 V 772.71 h 4 v 7.41 h 8.45 Z" fill="#2677ff"/><path d="M 346.93 791 V 772.71 H 351 V 791 Z" fill="#2677ff"/><path d="M 357 790.72 a 9.49 9.49 0 0 1 -3.19 -1.55 l 1.29 -2.89 a 10.21 10.21 0 0 0 6 1.85 a 5.18 5.18 0 0 0 2.64 -.56 a 1.74 1.74 0 0 0 .92 -1.55 a 1.53 1.53 0 0 0 -.84 -1.38 a 11.74 11.74 0 0 0 -3 -1 a 17.08 17.08 0 0 1 -3.86 -1.19 a 5.07 5.07 0 0 1 -2.1 -1.73 a 4.54 4.54 0 0 1 -.67 -2.54 a 5 5 0 0 1 .93 -3 a 6 6 0 0 1 2.58 -2 a 9.28 9.28 0 0 1 3.85 -.74 a 12.46 12.46 0 0 1 3.76 .57 a 7.71 7.71 0 0 1 2.87 1.53 l -1.3 2.89 a 8.85 8.85 0 0 0 -5.3 -1.85 a 4.51 4.51 0 0 0 -2.5 .61 a 1.92 1.92 0 0 0 -.91 1.68 a 1.53 1.53 0 0 0 .35 1 a 3 3 0 0 0 1.17 .71 a 16.81 16.81 0 0 0 2.33 .65 a 13 13 0 0 1 5.08 2 a 4.09 4.09 0 0 1 1.55 3.38 a 4.85 4.85 0 0 1 -2 4.1 a 9.17 9.17 0 0 1 -5.59 1.49 A 14.43 14.43 0 0 1 357 790.72 Z" fill="#2677ff"/><path d="M 401.59 772.71 h 3.84 L 398.91 791 h -3.25 l -4.24 -12.14 L 387.13 791 h -3.25 l -6.5 -18.33 h 4.11 l 4.18 12.66 l 4.45 -12.66 H 393 l 4.29 12.79 Z" fill="#2677ff"/><path d="M 407.7 791 V 772.71 h 4.05 V 791 Z" fill="#2677ff"/><path d="M 419.6 791 V 776 h -5.74 v -3.3 h 15.55 V 776 h -5.75 v 15 Z" fill="#2677ff"/><path d="M 443.94 772.71 h 4 V 791 h -4 v -7.7 h -8.45 V 791 h -4 V 772.71 h 4 v 7.41 h 8.45 Z" fill="#2677ff"/><path d="M 472.75 791 L 471 787 h -8.53 L 460.74 791 h -4.09 l 8.43 -18.33 h 3.25 L 476.75 791 Z m -8.95 -7.12 h 5.88 l -2.94 -6.87 Z" fill="#2677ff"/><path d="M 490.37 772.71 h 3.8 V 791 h -3 L 482 779.37 V 791 h -3.77 V 772.71 h 3 l 9.12 11.62 Z" fill="#2677ff"/><path d="M 513.85 772.71 l -7.59 10 V 791 h -4.05 v -8.29 l -7.57 -10 h 4.6 l 5 6.79 l 5 -6.79 Z" fill="#2677ff"/><path d="M 516.93 790.12 a 7.79 7.79 0 0 1 -3.1 -3.28 a 11.82 11.82 0 0 1 0 -10 a 7.69 7.69 0 0 1 3.1 -3.26 a 10.45 10.45 0 0 1 9.49 0 a 7.71 7.71 0 0 1 3.11 3.26 a 11.92 11.92 0 0 1 0 10 a 7.82 7.82 0 0 1 -3.11 3.28 a 10.36 10.36 0 0 1 -9.49 0 Z m 8.35 -3.6 a 7.27 7.27 0 0 0 1.31 -4.66 a 7.19 7.19 0 0 0 -1.3 -4.64 a 4.86 4.86 0 0 0 -7.21 0 a 9 9 0 0 0 0 9.3 a 4.37 4.37 0 0 0 3.59 1.61 A 4.42 4.42 0 0 0 525.28 786.52 Z" fill="#2677ff"/><path d="M 545.81 772.71 h 3.79 V 791 h -3 l -9.13 -11.67 V 791 h -3.77 V 772.71 h 3 l 9.13 11.62 Z" fill="#2677ff"/><path d="M 553.22 791 V 772.71 h 12.63 v 3.15 h -8.68 v 4.29 h 8.16 v 3.14 h -8.16 v 4.6 h 8.68 V 791 Z" fill="#2677ff"/><path d="M 576.2 785.11 L 575 772.68 l 4.83 0 l -1.24 12.4 Z m -.91 1.77 h 4.21 V 791 h -4.21 Z" fill="#2677ff"/></g></g><rect fill="#fff" height="483.66" width="483.66" x="3134.84" y="258.46"/><path d="M 3146.67 260.29 a 10 10 0 0 0 -10 10 v 460 a 10 10 0 0 0 10 10 h 460 a 10 10 0 0 0 10 -10 v -460 a 10 10 0 0 0 -10 -10 Z m 0 -10 h 460 a 20 20 0 0 1 20 20 v 460 a 20 20 0 0 1 -20 20 h -460 a 20 20 0 0 1 -20 -20 v -460 A 20 20 0 0 1 3146.67 250.29 Z" fill="url(#linear-gradient-2)"/><g id="PUBLIC-ADDRESS" isolation="isolate"><g isolation="isolate"><path d="M 3204.25 197.34 h 13 q 4.61 0 7.16 2.32 a 9.48 9.48 0 0 1 0 13 q -2.55 2.32 -7.16 2.32 h -6.72 v 10.6 h -6.24 Z m 12.16 12.88 q 4.68 0 4.68 -4 a 3.83 3.83 0 0 0 -1.16 -3.08 a 5.25 5.25 0 0 0 -3.52 -1 h -5.92 v 8.12 Z" fill="#2677ff"/><path d="M 3233.87 222.84 q -3.09 -3.06 -3.1 -8.94 V 197.34 h 6.12 v 16.84 a 7.58 7.58 0 0 0 1.54 5.12 a 6.53 6.53 0 0 0 8.94 0 a 7.51 7.51 0 0 0 1.56 -5.1 V 197.34 h 6.12 V 213.9 q 0 5.83 -3.12 8.92 t -9 3.08 Q 3237 225.9 3233.87 222.84 Z" fill="#2677ff"/><path d="M 3282.35 213.44 a 7 7 0 0 1 1.34 4.38 a 6.82 6.82 0 0 1 -2.62 5.64 a 11.28 11.28 0 0 1 -7.22 2.08 h -13.4 v -28.2 h 13 a 11.24 11.24 0 0 1 7 2 a 6.37 6.37 0 0 1 2.58 5.36 a 6.47 6.47 0 0 1 -1.18 3.86 a 6.65 6.65 0 0 1 -3.26 2.42 A 7 7 0 0 1 3282.35 213.44 Z m -15.82 -4.62 h 5.88 A 6.08 6.08 0 0 0 3276 208 a 2.88 2.88 0 0 0 1.14 -2.5 a 3 3 0 0 0 -1.14 -2.58 a 6.08 6.08 0 0 0 -3.54 -.82 h -5.88 Z m 10.2 11.12 a 3.17 3.17 0 0 0 1.12 -2.72 a 3.29 3.29 0 0 0 -1.12 -2.76 a 5.8 5.8 0 0 0 -3.6 -.88 h -6.6 v 7.2 h 6.6 A 6 6 0 0 0 3276.73 219.94 Z" fill="#2677ff"/><path d="M 3288 225.54 v -28.2 h 6.24 v 23.12 h 12.6 v 5.08 Z" fill="#2677ff"/><path d="M 3310.45 225.54 v -28.2 h 6.24 v 28.2 Z" fill="#2677ff"/><path d="M 3328 224.1 a 12.14 12.14 0 0 1 -4.88 -5.08 a 17.84 17.84 0 0 1 0 -15.2 a 12 12 0 0 1 4.88 -5.06 a 15 15 0 0 1 7.46 -1.78 a 16.77 16.77 0 0 1 5.36 .86 a 11.38 11.38 0 0 1 4.2 2.38 l -2 4.44 a 13.46 13.46 0 0 0 -3.66 -2 a 11.2 11.2 0 0 0 -3.78 -.64 a 7.15 7.15 0 0 0 -5.78 2.4 c -1.34 1.6 -2 4 -2 7 s .68 5.45 2 7.06 a 7.13 7.13 0 0 0 5.78 2.42 a 11.2 11.2 0 0 0 3.78 -.64 a 13.46 13.46 0 0 0 3.66 -2 l 2 4.44 a 11.38 11.38 0 0 1 -4.2 2.38 a 16.77 16.77 0 0 1 -5.36 .86 A 14.9 14.9 0 0 1 3328 224.1 Z" fill="#2677ff"/><path d="M 3382 225.54 l -2.68 -6.24 h -13.12 l -2.68 6.24 h -6.28 l 13 -28.2 h 5 l 13 28.2 Z m -13.76 -11 h 9 L 3372.73 204 Z" fill="#2677ff"/><path d="M 3390.45 197.34 h 11 a 17.34 17.34 0 0 1 7.92 1.68 a 11.71 11.71 0 0 1 5.08 4.84 a 15.36 15.36 0 0 1 1.76 7.56 a 15.58 15.58 0 0 1 -1.74 7.58 a 11.6 11.6 0 0 1 -5.06 4.86 a 17.45 17.45 0 0 1 -8 1.68 h -11 Z M 3401 220.5 q 9 0 9 -9.08 t -9 -9 h -4.28 V 220.5 Z" fill="#2677ff"/><path d="M 3420.93 197.34 h 11 a 17.34 17.34 0 0 1 7.92 1.68 a 11.71 11.71 0 0 1 5.08 4.84 a 15.36 15.36 0 0 1 1.76 7.56 a 15.58 15.58 0 0 1 -1.74 7.58 a 11.6 11.6 0 0 1 -5.06 4.86 a 17.45 17.45 0 0 1 -8 1.68 h -11 Z m 10.52 23.16 q 9 0 9 -9.08 t -9 -9 h -4.28 V 220.5 Z" fill="#2677ff"/><path d="M 3475.89 225.54 h -6.8 l -4.88 -9 a 3.87 3.87 0 0 0 -1.44 -1.5 a 4.35 4.35 0 0 0 -2.12 -.46 h -3.08 v 11 h -6.16 v -28.2 h 13 q 5 0 7.5 2.18 a 7.85 7.85 0 0 1 2.54 6.3 a 8.14 8.14 0 0 1 -1.78 5.36 a 8.51 8.51 0 0 1 -5 2.84 a 6.17 6.17 0 0 1 3.72 3.16 Z m -8.56 -16.62 a 4.23 4.23 0 0 0 0 -5.9 a 6.46 6.46 0 0 0 -3.88 -.92 h -6 v 7.76 h 6 A 6.3 6.3 0 0 0 3467.33 208.92 Z" fill="#2677ff"/><path d="M 3479.41 225.54 v -28.2 h 19.44 v 4.84 h -13.36 v 6.6 h 12.56 v 4.84 h -12.56 v 7.08 h 13.36 v 4.84 Z" fill="#2677ff"/><path d="M 3506.41 225 a 14.65 14.65 0 0 1 -4.92 -2.38 l 2 -4.44 a 15.68 15.68 0 0 0 9.16 2.84 a 7.94 7.94 0 0 0 4.06 -.86 a 2.65 2.65 0 0 0 1.42 -2.38 a 2.34 2.34 0 0 0 -1.3 -2.12 a 17.34 17.34 0 0 0 -4.62 -1.48 a 25.76 25.76 0 0 1 -5.94 -1.84 a 7.78 7.78 0 0 1 -3.24 -2.66 a 7 7 0 0 1 -1 -3.9 a 7.64 7.64 0 0 1 1.42 -4.56 a 9.49 9.49 0 0 1 4 -3.14 a 14.44 14.44 0 0 1 5.92 -1.14 a 18.92 18.92 0 0 1 5.78 .88 a 11.85 11.85 0 0 1 4.42 2.36 l -2 4.44 a 13.64 13.64 0 0 0 -8.16 -2.84 a 6.77 6.77 0 0 0 -3.84 .94 a 3 3 0 0 0 -1.4 2.58 a 2.31 2.31 0 0 0 .54 1.58 a 4.52 4.52 0 0 0 1.8 1.1 a 27.89 27.89 0 0 0 3.58 1 c 3.63 .8 6.23 1.83 7.82 3.08 a 6.25 6.25 0 0 1 2.38 5.2 a 7.44 7.44 0 0 1 -3.08 6.3 q -3.08 2.29 -8.6 2.3 A 22.09 22.09 0 0 1 3506.41 225 Z" fill="#2677ff"/><path d="M 3532.41 225 a 14.56 14.56 0 0 1 -4.92 -2.38 l 2 -4.44 a 15.68 15.68 0 0 0 9.16 2.84 a 7.94 7.94 0 0 0 4.06 -.86 a 2.65 2.65 0 0 0 1.42 -2.38 a 2.34 2.34 0 0 0 -1.3 -2.12 a 17.34 17.34 0 0 0 -4.62 -1.48 a 25.76 25.76 0 0 1 -5.94 -1.84 a 7.78 7.78 0 0 1 -3.24 -2.66 a 7 7 0 0 1 -1 -3.9 a 7.64 7.64 0 0 1 1.42 -4.56 a 9.43 9.43 0 0 1 4 -3.14 a 14.44 14.44 0 0 1 5.92 -1.14 a 19 19 0 0 1 5.78 .88 a 11.93 11.93 0 0 1 4.42 2.36 l -2 4.44 a 13.64 13.64 0 0 0 -8.16 -2.84 a 6.77 6.77 0 0 0 -3.84 .94 a 2.94 2.94 0 0 0 -1.4 2.58 a 2.31 2.31 0 0 0 .54 1.58 a 4.52 4.52 0 0 0 1.8 1.1 a 27.89 27.89 0 0 0 3.58 1 q 5.43 1.2 7.82 3.08 a 6.25 6.25 0 0 1 2.38 5.2 a 7.44 7.44 0 0 1 -3.08 6.3 q -3.08 2.29 -8.6 2.3 A 22 22 0 0 1 3532.41 225 Z" fill="#2677ff"/></g></g><path id="nanopaperwallet.com" d="M 3146 910.24 c 2.93 0 5.12 .83 6.55 2.5 s 2.15 4.18 2.15 7.55 v 15 h -6.25 V 920.64 a 6.47 6.47 0 0 0 -1.08 -4.15 a 4.11 4.11 0 0 0 -3.37 -1.3 a 5.74 5.74 0 0 0 -4.33 1.7 a 6.32 6.32 0 0 0 -1.62 4.55 v 13.85 h -6.25 V 910.84 h 6.1 v 3.65 a 8.39 8.39 0 0 1 3.35 -3.15 A 10.11 10.11 0 0 1 3146 910.24 Z m 25.46 0 q 5.14 0 7.65 2.5 c 1.67 1.67 2.5 4.23 2.5 7.7 v 14.85 h -6 v -3.75 a 6.55 6.55 0 0 1 -2.67 3.05 a 8.08 8.08 0 0 1 -4.23 1.1 a 9.77 9.77 0 0 1 -4.45 -1 a 8 8 0 0 1 -3.15 -2.75 a 6.94 6.94 0 0 1 -1.15 -3.9 a 6.16 6.16 0 0 1 1.38 -4.25 a 8.25 8.25 0 0 1 4.47 -2.25 a 40.57 40.57 0 0 1 8.55 -.7 h 1.25 v -1.15 a 5 5 0 0 0 -1.07 -3.6 a 4.88 4.88 0 0 0 -3.58 -1.1 a 13.1 13.1 0 0 0 -4.07 .68 a 20.09 20.09 0 0 0 -4.18 1.87 l -1.75 -4.3 a 21.43 21.43 0 0 1 10.45 -3 Z m -1.45 21 a 5.37 5.37 0 0 0 4.08 -1.67 a 6.07 6.07 0 0 0 1.57 -4.33 v -1.05 h -.9 a 34.49 34.49 0 0 0 -5.2 .3 a 5 5 0 0 0 -2.65 1 a 2.68 2.68 0 0 0 -.8 2 a 3.46 3.46 0 0 0 1.1 2.63 A 4 4 0 0 0 3170.05 931.19 Z m 32.06 -21 q 4.41 0 6.55 2.5 c 1.44 1.67 2.15 4.18 2.15 7.55 v 15 h -6.25 V 920.64 a 6.53 6.53 0 0 0 -1.07 -4.15 a 4.13 4.13 0 0 0 -3.38 -1.3 a 5.7 5.7 0 0 0 -4.32 1.7 a 6.28 6.28 0 0 0 -1.63 4.55 v 13.85 h -6.25 V 910.84 h 6.1 v 3.65 a 8.45 8.45 0 0 1 3.35 -3.15 A 10.14 10.14 0 0 1 3202.11 910.24 Z m 26.12 25.45 a 13.5 13.5 0 0 1 -6.58 -1.55 a 10.71 10.71 0 0 1 -4.37 -4.45 a 15.43 15.43 0 0 1 0 -13.48 a 10.76 10.76 0 0 1 4.37 -4.42 a 14.72 14.72 0 0 1 13.15 0 a 10.65 10.65 0 0 1 4.35 4.42 a 15.61 15.61 0 0 1 0 13.48 a 10.61 10.61 0 0 1 -4.35 4.45 A 13.46 13.46 0 0 1 3228.23 935.69 Z m -.05 -4.85 a 5.59 5.59 0 0 0 4.64 -2 a 11.56 11.56 0 0 0 0 -11.77 a 5.46 5.46 0 0 0 -4.59 -2 a 5.57 5.57 0 0 0 -4.63 2 a 9.2 9.2 0 0 0 -1.62 5.87 a 9.33 9.33 0 0 0 1.59 5.9 A 5.58 5.58 0 0 0 3228.18 930.84 Z m 31.61 -20.6 a 10.09 10.09 0 0 1 5.62 1.6 a 10.63 10.63 0 0 1 3.85 4.52 a 15.65 15.65 0 0 1 1.38 6.73 a 15.11 15.11 0 0 1 -1.38 6.65 a 10.08 10.08 0 0 1 -9.47 6 a 9.68 9.68 0 0 1 -4.65 -1.1 a 7.66 7.66 0 0 1 -3.15 -3.05 v 12.75 h -6.25 V 910.84 h 6.15 v 3.7 a 7.65 7.65 0 0 1 3.17 -3.18 A 9.78 9.78 0 0 1 3259.79 910.24 Z m -1.65 20.6 a 5.61 5.61 0 0 0 4.6 -2 a 8.87 8.87 0 0 0 1.65 -5.73 a 9.35 9.35 0 0 0 -1.65 -5.9 a 6.17 6.17 0 0 0 -9.23 -.05 a 9.26 9.26 0 0 0 -1.62 5.85 a 9.16 9.16 0 0 0 1.62 5.8 A 5.57 5.57 0 0 0 3258.14 930.84 Z m 28.06 -20.6 q 5.15 0 7.65 2.5 c 1.67 1.67 2.5 4.23 2.5 7.7 v 14.85 h -5.95 v -3.75 a 6.52 6.52 0 0 1 -2.68 3.05 a 8 8 0 0 1 -4.22 1.1 a 9.77 9.77 0 0 1 -4.45 -1 a 8 8 0 0 1 -3.15 -2.75 a 6.94 6.94 0 0 1 -1.15 -3.9 a 6.2 6.2 0 0 1 1.37 -4.25 a 8.33 8.33 0 0 1 4.48 -2.25 a 40.57 40.57 0 0 1 8.55 -.7 h 1.25 v -1.15 a 5 5 0 0 0 -1.08 -3.6 a 4.84 4.84 0 0 0 -3.57 -1.1 a 13.21 13.21 0 0 0 -4.08 .68 a 20.25 20.25 0 0 0 -4.17 1.87 l -1.75 -4.3 a 21.43 21.43 0 0 1 10.45 -3 Z m -1.45 21 a 5.34 5.34 0 0 0 4.07 -1.67 a 6.07 6.07 0 0 0 1.58 -4.33 v -1.05 h -.9 a 34.49 34.49 0 0 0 -5.2 .3 a 5 5 0 0 0 -2.65 1 a 2.68 2.68 0 0 0 -.8 2 a 3.46 3.46 0 0 0 1.1 2.63 A 4 4 0 0 0 3284.75 931.19 Z m 31.91 -21 a 10.12 10.12 0 0 1 5.63 1.6 a 10.7 10.7 0 0 1 3.85 4.52 a 15.8 15.8 0 0 1 1.37 6.73 a 15.25 15.25 0 0 1 -1.37 6.65 a 10.11 10.11 0 0 1 -9.48 6 a 9.74 9.74 0 0 1 -4.65 -1.1 a 7.66 7.66 0 0 1 -3.15 -3.05 v 12.75 h -6.25 V 910.84 h 6.15 v 3.7 a 7.62 7.62 0 0 1 3.18 -3.18 A 9.71 9.71 0 0 1 3316.66 910.24 Z m -1.65 20.6 a 5.6 5.6 0 0 0 4.6 -2 a 8.87 8.87 0 0 0 1.65 -5.73 a 9.35 9.35 0 0 0 -1.65 -5.9 a 6.16 6.16 0 0 0 -9.22 -.05 a 9.2 9.2 0 0 0 -1.63 5.85 a 9.1 9.1 0 0 0 1.63 5.8 A 5.54 5.54 0 0 0 3315 930.84 Z m 39 -6.65 h -16.65 a 7.63 7.63 0 0 0 2.05 5 a 7 7 0 0 0 5 1.65 a 11.8 11.8 0 0 0 7.4 -2.6 l 1.8 4.3 a 13.26 13.26 0 0 1 -4.27 2.25 a 16.34 16.34 0 0 1 -5.18 .85 q -6 0 -9.47 -3.4 t -3.48 -9.3 a 14.26 14.26 0 0 1 1.5 -6.65 a 10.94 10.94 0 0 1 4.23 -4.5 a 11.9 11.9 0 0 1 6.17 -1.6 a 10.18 10.18 0 0 1 8 3.25 q 2.93 3.25 2.92 9 Z m -10.75 -9.55 a 5.28 5.28 0 0 0 -4 1.6 a 7.81 7.81 0 0 0 -1.88 4.6 h 11.3 a 7.1 7.1 0 0 0 -1.5 -4.63 A 5 5 0 0 0 3343.27 914.64 Z m 31.86 .8 l -3.65 .35 q -6.2 .65 -6.2 6.3 v 13.2 H 3359 V 910.84 H 3365 v 4.3 q 1.91 -4.39 7.85 -4.8 l 1.9 -.15 Z m 37.47 -4.6 h 6.1 l -9.6 24.45 h -5.45 l -6 -15.75 l -5.85 15.75 h -5.4 l -9.65 -24.45 h 6.4 l 6.25 17 l 6.25 -17 h 4.5 l 6.25 17.1 Z m 19.86 -.6 q 5.14 0 7.65 2.5 c 1.66 1.67 2.5 4.23 2.5 7.7 v 14.85 h -6 v -3.75 a 6.52 6.52 0 0 1 -2.68 3.05 a 8 8 0 0 1 -4.22 1.1 a 9.74 9.74 0 0 1 -4.45 -1 a 7.83 7.83 0 0 1 -3.15 -2.75 A 6.94 6.94 0 0 1 3421 928 a 6.2 6.2 0 0 1 1.37 -4.25 a 8.33 8.33 0 0 1 4.48 -2.25 a 40.44 40.44 0 0 1 8.55 -.7 h 1.25 v -1.15 a 5 5 0 0 0 -1.08 -3.6 A 4.86 4.86 0 0 0 3432 915 a 13.21 13.21 0 0 0 -4.08 .68 a 20 20 0 0 0 -4.17 1.87 l -1.75 -4.3 a 21.43 21.43 0 0 1 10.45 -3 Z m -1.45 21 a 5.36 5.36 0 0 0 4.07 -1.67 a 6.07 6.07 0 0 0 1.58 -4.33 v -1.05 h -.9 a 34.4 34.4 0 0 0 -5.2 .3 a 5 5 0 0 0 -2.65 1 a 2.65 2.65 0 0 0 -.8 2 a 3.42 3.42 0 0 0 1.1 2.63 A 3.94 3.94 0 0 0 3431 931.19 Z m 17.86 4.1 V 900 h 6.25 v 35.25 Z m 12.61 0 V 900 h 6.25 v 35.25 Z m 34.06 -11.1 h -16.65 a 7.63 7.63 0 0 0 2.05 5 a 7 7 0 0 0 5 1.65 a 11.8 11.8 0 0 0 7.4 -2.6 l 1.8 4.3 a 13.26 13.26 0 0 1 -4.27 2.25 a 16.34 16.34 0 0 1 -5.18 .85 q -6 0 -9.47 -3.4 t -3.48 -9.3 a 14.26 14.26 0 0 1 1.5 -6.65 a 10.94 10.94 0 0 1 4.23 -4.5 a 11.9 11.9 0 0 1 6.17 -1.6 a 10.18 10.18 0 0 1 8 3.25 q 2.93 3.25 2.92 9 Z m -10.75 -9.55 a 5.28 5.28 0 0 0 -4 1.6 a 7.81 7.81 0 0 0 -1.88 4.6 h 11.3 a 7.1 7.1 0 0 0 -1.5 -4.63 A 5 5 0 0 0 3484.79 914.64 Z M 3512.7 931 a 18.48 18.48 0 0 0 2.3 -.15 l -.3 4.65 c -1 .1 -1.91 .15 -2.75 .15 q -5.14 0 -7.6 -2.37 t -2.45 -7.08 V 915.54 h -4.7 v -4.7 h 4.7 v -7.3 h 6.25 v 7.3 h 6.45 v 4.7 h -6.45 v 10.55 Q 3508.15 931 3512.7 931 Z m 6.32 -2.6 h 7 v 6.9 h -7 Z m 23.36 7.3 a 13.74 13.74 0 0 1 -6.68 -1.55 a 10.47 10.47 0 0 1 -4.32 -4.4 a 15.35 15.35 0 0 1 .07 -13.38 a 11.08 11.08 0 0 1 4.48 -4.52 a 13.58 13.58 0 0 1 6.7 -1.6 a 15.94 15.94 0 0 1 5.07 .83 a 10.62 10.62 0 0 1 4 2.22 l -1.8 4.4 a 12 12 0 0 0 -3.28 -1.9 a 9.72 9.72 0 0 0 -3.42 -.65 a 6.37 6.37 0 0 0 -5 2 a 10.24 10.24 0 0 0 0 11.6 a 6.43 6.43 0 0 0 5 2 a 9.72 9.72 0 0 0 3.42 -.65 a 12 12 0 0 0 3.28 -1.9 l 1.8 4.35 a 11.16 11.16 0 0 1 -4.1 2.27 A 16.22 16.22 0 0 1 3542.38 935.69 Z m 24.31 0 a 13.53 13.53 0 0 1 -6.58 -1.55 a 10.71 10.71 0 0 1 -4.37 -4.45 a 15.43 15.43 0 0 1 0 -13.48 a 10.76 10.76 0 0 1 4.37 -4.42 a 14.72 14.72 0 0 1 13.15 0 a 10.53 10.53 0 0 1 4.35 4.42 a 15.61 15.61 0 0 1 0 13.48 a 10.49 10.49 0 0 1 -4.35 4.45 A 13.46 13.46 0 0 1 3566.69 935.69 Z m -.05 -4.85 a 5.62 5.62 0 0 0 4.65 -2 q 1.61 -2 1.6 -5.9 a 9.27 9.27 0 0 0 -1.6 -5.87 a 5.5 5.5 0 0 0 -4.6 -2 a 5.58 5.58 0 0 0 -4.63 2 a 9.2 9.2 0 0 0 -1.62 5.87 q 0 3.9 1.6 5.9 A 5.56 5.56 0 0 0 3566.64 930.84 Z m 46.61 -20.6 c 2.77 0 4.83 .82 6.2 2.47 s 2.05 4.18 2.05 7.58 v 15 h -6.25 V 920.54 a 7 7 0 0 0 -.95 -4.08 a 3.55 3.55 0 0 0 -3.05 -1.27 a 4.77 4.77 0 0 0 -3.9 1.7 a 7.29 7.29 0 0 0 -1.4 4.75 v 13.65 h -6.25 V 920.54 a 7.13 7.13 0 0 0 -.92 -4.08 a 3.56 3.56 0 0 0 -3.08 -1.27 a 4.73 4.73 0 0 0 -3.85 1.7 a 7.29 7.29 0 0 0 -1.4 4.75 v 13.65 h -6.25 V 910.84 h 6.1 v 3.45 a 7.28 7.28 0 0 1 3 -3 a 9.33 9.33 0 0 1 4.45 -1 q 5.55 0 7.35 4.6 a 8.45 8.45 0 0 1 3.3 -3.38 A 9.57 9.57 0 0 1 3613.25 910.24 Z" fill="url(#linear-gradient-3)"/><path d="M 2942 60.26 h 12.08 q 4.8 0 7.47 2.34 a 8.37 8.37 0 0 1 2.66 6.63 a 8.43 8.43 0 0 1 -2.69 6.66 a 10.82 10.82 0 0 1 -7.44 2.39 h -8.53 V 90.79 H 2942 Z m 11.73 15.07 q 7 0 7 -6.1 t -7 -6 h -8.18 V 75.33 Z m 39.53 15.46 L 2989.89 83 H 2974 l -3.38 7.84 H 2967 l 13.42 -30.53 h 3.07 l 13.42 30.53 Z M 2975.22 80 h 13.42 l -6.71 -15.63 Z m 26.19 -19.75 h 12.08 q 4.8 0 7.47 2.34 a 8.37 8.37 0 0 1 2.66 6.63 a 8.43 8.43 0 0 1 -2.68 6.66 a 10.84 10.84 0 0 1 -7.45 2.39 H 3005 V 90.79 h -3.55 Z m 11.73 15.07 q 7 0 7 -6.1 t -7 -6 H 3005 V 75.33 Z m 16.2 15.46 V 60.26 h 19.31 v 3 h -15.81 V 73.82 h 14.94 v 2.94 h -14.94 V 87.84 h 15.81 v 3 Z m 49.22 0 h -3.89 l -5.2 -9.79 a 5.59 5.59 0 0 0 -2.23 -2.44 a 7.5 7.5 0 0 0 -3.48 -.67 H 3058 v 12.9 h -3.51 V 60.26 h 12.56 q 5 0 7.6 2.21 a 8 8 0 0 1 2.62 6.5 a 8.09 8.09 0 0 1 -2 5.73 a 9.36 9.36 0 0 1 -5.73 2.75 a 5.06 5.06 0 0 1 2.05 1.17 a 8.18 8.18 0 0 1 1.63 2.21 Z m -11.77 -15.85 a 8.11 8.11 0 0 0 5.3 -1.47 a 5.49 5.49 0 0 0 1.75 -4.46 a 5.32 5.32 0 0 0 -1.73 -4.37 c -1.15 -1 -2.93 -1.43 -5.32 -1.43 H 3058 V 74.94 Z M 2971 100.39 h 4.94 l -8.37 23.53 h -4.17 l -5.44 -15.59 l -5.51 15.59 h -4.17 l -8.34 -23.53 h 5.27 l 5.37 16.25 l 5.71 -16.25 h 3.64 l 5.5 16.42 Z m 25.83 23.53 l -2.23 -5.21 h -10.95 l -2.23 5.21 h -5.24 L 2987 100.39 h 4.17 l 10.81 23.53 Z m -11.48 -9.14 h 7.55 l -3.77 -8.81 Z m 18.59 9.14 V 100.39 h 5.21 v 19.29 h 10.51 v 4.24 Z m 18.79 0 V 100.39 h 5.21 v 19.29 h 10.51 v 4.24 Z m 18.79 0 V 100.39 h 16.22 v 4 h -11.15 v 5.51 H 3057 v 4 h -10.48 v 5.91 h 11.15 v 4 Z m 25.23 0 V 104.63 h -7.38 v -4.24 h 20 v 4.24 h -7.38 v 19.29 Z" fill="#36363c"/><path d="M 2847 90.54 a 11.62 11.62 0 0 1 -23.23 0 c 0 -8.62 -2.9 -11.49 -11.61 -11.49 s -11.62 2.87 -11.62 11.49 A 11.62 11.62 0 1 1 2789 79.05 c 8.71 0 11.61 -2.87 11.61 -11.49 a 11.62 11.62 0 0 1 23.23 0 c 0 8.62 2.9 11.49 11.62 11.49 A 11.52 11.52 0 0 1 2847 90.54 Z M 2765.66 125 a 11.49 11.49 0 1 1 11.61 -11.49 A 11.55 11.55 0 0 1 2765.66 125 Z m 151.17 -57.5 A 11.55 11.55 0 0 1 2905.21 79 c -8.71 0 -11.61 2.88 -11.61 11.49 A 11.55 11.55 0 0 1 2882 102 c -8.71 0 -11.61 2.87 -11.61 11.49 A 11.62 11.62 0 1 1 2858.75 102 c 8.71 0 11.62 -2.87 11.62 -11.49 A 11.55 11.55 0 0 1 2882 79 c 8.71 0 11.62 -2.87 11.62 -11.48 a 11.62 11.62 0 0 1 23.23 0 Z" fill="url(#linear-gradient-4)"/></g><path d="M 3692.17 8.09 V 992.17 h -2084 v -150 H 8.09 V 158.1 h 1600 V 8.09 h 2084 m 8 -8 h -2100 v 150 H .09 V 850.16 h 1600 v 150 h 2100 V .09 Z" fill="#4a90e2"/></svg>