<svg id="Layer_1" data-name="Layer 1" xmlns="http://www.w3.org/2000/svg" xmlns:xlink="http://www.w3.org/1999/xlink" viewBox="0 0 3700.08 1000.08"><defs><radialGradient id="radial-gradient" cx="34409.88" cy="-104900.06" r="26083.98" gradientTransform="matrix(0.07, 0, 0, -0.07, -579.82, -6907.42)" gradientUnits="userSpaceOnUse"><stop offset="0.06" stop-color="#4a90e2"/><stop offset="0.17" stop-color="#5697e4"/><stop offset="0.37" stop-color="#76abe9"/><stop offset="0.63" stop-color="#aacbf1"/><stop offset="0.94" stop-color="#f1f6fd"/><stop offset="1" stop-color="#fff"/></radialGradient><linearGradient id="linear-gradient" x1="-648.58" y1="-5976.56" x2="-649.58" y2="-5977.56" gradientTransform="matrix(500, 0, 0, -500, 324880.15, -2988032.9)" gradientUnits="userSpaceOnUse"><stop offset="0" stop-color="#2020b5"/><stop offset="1" stop-color="#2677ff"/></linearGradient><linearGradient id="linear-gradient-2" x1="-648.54" y1="-5976.56" x2="-649.54" y2="-5977.56" gradientTransform="matrix(500, 0, 0, -500, 327898.15, -2988031.65)" xlink:href="#linear-gradient"/><linearGradient id="linear-gradient-3" x1="-647.92" y1="-6105.84" x2="-650.06" y2="-6105.86" gradientTransform="matrix(489.66, 0, 0, -44.25, 321204.39, -269261.7)" xlink:href="#linear-gradient"/><linearGradient id="linear-gradient-4" x1="-645.88" y1="-6055.09" x2="-646.88" y2="-6055.27" gradientTransform="matrix(162.79, 0, 0, -68.99, 108057.53, -417668.45)" xlink:href="#linear-gradient"/></defs><title>paperwalletemptyE</title><path d="M1600,.09H3700.08V1000.16H1600v-150H0v-700H1600V.09Z" style="fill-rule:evenodd;fill:url(#radial-gradient)"/><path d="M1964.21,0l.21,39.89L1965.7,0h12.09l-.87,40.23L1979.3,0h12.1l-2,40.91L1992.94,0h12.11l-3.18,41.92L2006.63,0h12.12l-4.46,43.26L2020.39,0h12.15l-5.86,44.94L2034.26,0h12.16L2039,47l9.23-47h12.22l-9.15,49.31L2062.38,0h12.24l-11.11,52,13.16-52H2089l-13.3,55,15.51-55h12.32l-15.79,58.33L2105.85,0h12.4l-18.58,62,21.14-62h12.43l-21.73,66L2136,0h12.49l-25.27,70.24L2151.52,0h12.58l-29.23,74.85L2167.38,0H2180l-33.66,79.77L2183.6,0h12.72l-38.6,85,42.51-85H2213l-44.08,90.53L2217.29,0h12.89L2180,96.36,2234.86,0h13l-56.95,102.5L2253,0H2266l-64.41,108.91L2271.67,0h13.16l-72.66,115.63L2291,0h13.27l-81.75,122.63L2311.09,0h13.35L2232.7,129.89,2331.93,0h13.48L2242.68,137.42,2353.66,0h13.57L2252.44,145.22,2376.34,0H2390L2262,153.29,2400.09,0h13.8L2271.33,161.62,2425,0h13.89L2280.44,170.18,2451.26,0h14L2289.32,179,2478.93,0H2493L2297.94,188,2508.23,0h14.15L2306.33,197.31,2539.33,0h14.23l-239.1,206.82L2572.48,0h14.25L2322.32,216.53,2607.92,0h14.28L2329.93,226.46,2646,0h14.25l-323,236.58L2687,0h14.2L2344.33,246.91,2731.38,0h14.07L2351.11,257.41,2779.7,0h13.86l-436,268.1L2832.54,0h13.55L2363.81,278.94,2890.69,0h13.11L2369.72,290,2955.05,0h12.47l-592.2,301.15L3026.82,0h11.59L2380.62,312.47,3107.44,0h10.4L2385.62,323.93,3198.88,0h8.76L2390.31,335.53,3303.57,0h6.48L2394.7,347.22,3424.8,0h3.36L2398.74,359.05,3538.57,8.78,2402.48,371,3551.34,51.58,2405.89,383,3563,94.7,2409,395.13l1164.42-257L2411.73,407.34,3582.65,181.82,2414.16,419.6,3590.73,225.74,2416.26,431.92,3597.62,269.85,2418,444.3,3603.33,314.14,2419.45,456.73l1188.39-98.16L2420.55,469.17l1190.6-66.07L2421.29,481.65l1192-33.94L2421.73,494.15l1192.43-1.78L2421.8,506.66l1192,30.36-1192.3-17.86,1190.79,62.5L2421,531.64l1188.69,94.59L2420,544.12l1185.69,126.6-1187-114.16L3600.63,715.09,2417.18,569,3594.32,759.3l-1179.08-178,1171.59,222L2413,593.6,3578.15,847.12,2410.38,605.84,3568.29,890.68,2407.47,618,3557.29,934,2404.21,630.05,3545.1,976.93,2400.64,642l1072.79,358h-2.1L2396.75,653.93l951,346.15h-5.7L2392.53,665.7l846.89,334.38h-8.27L2388,677.35l757,322.73h-10.14l-751.67-311.2,678.6,311.2h-11.48L2378,700.28l609.8,299.8h-12.46L2372.55,711.52l549,288.56h-13.16L2366.8,722.62l495,277.46h-13.67L2360.73,733.57l446.79,266.51h-14L2354.39,744.32,2758,1000.08h-14.24l-396-245.16,364.74,245.16h-14.37L2340.82,765.33l329.68,234.75h-14.45L2333.63,775.56l298,224.52h-14.48l-291-214.5,269.25,214.5h-14.47L2318.42,795.41l243.16,204.67h-14.42L2310.41,805l219.46,195.07h-14.35L2302.15,814.39,2500,1000.08h-14.27L2293.66,823.56l178.23,176.52H2457.7L2284.9,832.49l160.33,167.59h-14.08l-155.24-158.9,144,158.9h-14L2266.69,849.64l129.14,150.44H2382L2257.26,857.83l115.59,142.25h-13.76L2247.58,865.76l103.26,134.32H2337.2l-99.49-126.64,92,126.64h-13.53l-88.58-119.24,81.84,119.24h-13.42L2217.38,888,2290,1000.08h-13.32L2206.9,894.81l64.19,105.27h-13.21l-61.61-98.7,56.58,98.7h-13.11l-54.28-92.43,49.73,92.43h-13l-47.69-86.43,43.55,86.43h-12.94l-41.74-80.75,38,80.75h-12.84L2152,924.71l33,75.37h-12.76l-31.67-70.3,28.55,70.3h-12.68l-27.42-65.53,24.58,65.53H2141L2117.38,939l21,61.08h-12.54l-20.29-57,17.92,57H2111L2093.67,947l15.16,53.13h-12.44l-14.73-49.63,12.72,49.63H2082l-12.43-46.46,10.58,46.46h-12.33l-10.43-43.64,8.71,43.64h-12.29L2045.15,959l7.06,41.12H2040l-7.11-39,5.61,39h-12.24L2020.47,963l4.32,37.08h-12.2l-4.53-35.58,3.18,35.58h-12.18l-3.44-34.4,2.14,34.4h-12.18l-2.44-33.55,1.18,33.55h-12.17l-1.51-33,.27,33h-12.15l-.61-32.88-.62,32.88h-12.15l.27-33-1.51,33H1932l1.18-33.55-2.44,33.55h-12.17l2.14-34.4-3.44,34.4h-12.18l3.17-35.58-4.52,35.58h-12.2l4.32-37.08-5.74,37.08h-12.24l5.61-39-7.11,39h-12.27l7.06-41.12-8.65,41.12h-12.3l8.71-43.64-10.42,43.64h-12.33l10.58-46.46-12.43,46.46h-12.39l12.73-49.63-14.73,49.63h-12.44L1822.63,947l-17.34,53.13h-12.5l17.92-57-20.29,57h-12.54l21-61.08-23.64,61.08h-12.62l24.58-65.53-27.42,65.53h-12.69l28.55-70.3-31.66,70.3h-12.77l33-75.37-36.42,75.37H1715l38-80.75-41.74,80.75h-12.94l43.54-86.43-47.68,86.43h-13l49.73-92.43-54.28,92.43h-13.11l56.58-98.7-61.61,98.7h-13.21l64.18-105.27-69.72,105.27h-13.32L1698.92,888l-78.68,112.11h-13.42l81.84-119.24-88.58,119.24H1600v-18.5l78.58-108.14-78.58,100V955.15l68.71-89.39L1600,948.53v-18l59-72.66-59,67.34V907.43l49.61-57.79L1600,903.23V885.74l40.39-44.56L1600,882.52V865.31l31.4-32.82L1600,862.94V850.06h-4.12l26.76-26.5-28.85,26.5h-17.65l38-35.67-41,35.67h-18l50.68-45-54.68,45H1533l64.94-54.65-70.1,54.65h-18.58l80.94-64.48-87.47,64.48H1483.8l98.87-74.5-107,74.5h-19.2l119-84.73-129,84.73H1427l141.56-95.14-153.69,95.14h-19.82l166.87-105.74L1380.35,850.06h-20.07l195.3-116.5-213,116.5h-20.38l227.36-127.44L1300.75,850.06h-20.58l263.59-138.54L1254.34,850.06h-20.7L1538.3,700.27,1202.42,850.06h-20.74l351.48-161.18L1143.84,850.06H1123.2l405.11-172.72L1077.08,850.06h-20.24l467-184.37L1000.25,850.06H980.7l538.86-196.14L910.68,850.06H892.37l623.3-208-710.9,208h-16.3l723.63-220-834.74,220h-13L1508.84,618,520.92,850.06h-7.79l992.79-244.22L338.16,847.12,1503.33,593.59,329.48,803.31l1171.59-222L322,759.29,1499.13,568.94,315.68,715.09,1497.54,556.55l-1187,114.16,1185.69-126.6L306.66,626.23l1188.68-94.6L304,581.66l1190.8-62.51L302.46,537l1192.05-30.35L302.15,492.37l1192.43,1.77L303.05,447.7l1192,33.95L305.16,403.1l1190.6,66.07L308.47,358.56l1188.39,98.16L313,314.13,1498.29,444.3,318.68,269.85,1500.05,431.91,325.58,225.73,1502.15,419.6,333.66,181.81,1504.57,407.34,394.29,150h2.57L1507.35,395.13,565.84,150h9.51l935.07,233L705.18,150H719l794.79,221L820.74,150h16.61l680.23,209L918.25,150h18.3l585.07,197.21L1001.72,150h19.34L1526,335.52,1074.1,150h20l436.64,173.92L1137.56,150h20.25l377.88,162.46L1193.7,150H1214l327,151.14L1243.79,150h20.28l282.52,140L1288.81,150H1309L1552.5,278.94,1329.58,150h19.94l209.19,118.08L1366.69,150h19.69l178.82,107.4L1400.67,150h19.43L1572,246.9,1432,150h19.14l128,86.57L1460.87,150h18.83l106.68,76.45L1487.72,150h18.54L1594,216.53,1512.76,150H1531l70.87,56.81L1536.17,150h17.95l55.86,47.3-51.8-47.3h17.66l42.53,38-39.45-38h17.38L1627,179l-28.48-29H1600V134.45l35.87,35.73L1600,131.67V114.33l45,47.29-45-51V93l54.3,60.27-54.3-65V70.38l63.87,74.85L1600,64.44V46.26l73.63,91.16L1600,38.94V20.46l83.61,109.43L1600,11.53V0h5.21l88.55,122.63L1612,0h13.27l78.85,115.63L1631.48,0h13.16l70,108.91L1650.27,0h13.07l62.08,102.5L1668.48,0h13l54.86,96.36L1686.12,0H1699l48.36,90.53L1703.28,0h12.8l42.5,85L1720,0h12.71l37.23,79.77L1736.28,0h12.65l32.5,74.85L1752.21,0h12.57l28.28,70.24L1767.79,0h12.5l24.51,66L1783.06,0h12.43l21.15,62L1798.05,0h12.4l18.16,58.33L1812.82,0h12.33l15.51,55L1827.35,0h12.28l13.16,52-11.1-52h12.23L1865,49.31,1855.84,0h12.23l9.22,47-7.41-47h12.17l7.58,44.94L1883.77,0h12.14l6.1,43.26L1897.56,0h12.11l4.76,41.92L1911.25,0h12.11l3.53,40.91L1924.9,0H1937l2.39,40.23L1938.51,0h12.09l1.29,39.89.2-39.89h12.12Z" style="fill:#fff;fill-rule:evenodd"/><path d="M2511,859.12c5.14,38.19-21.88,73.91-60,79.39l-24.5,3.5c-31.31,4.5-63.4,28.87-79.34,58.07H1600v-150h-221.8a70.65,70.65,0,0,1-10.52-57.72l6.12-24c9.56-37.33-7.7-87-38.33-110.4l-19.67-15c-30.64-23.35-36.8-67.74-13.7-98.58l14.84-19.8c23.1-30.83,26.17-83.34,6.81-116.66l-12.43-21.39c-19.35-33.34-8.06-76.67,25.08-96.34l21.28-12.6c33.15-19.65,56.07-67,50.93-105.19l-3-22.39H1600V0h790.72a70.88,70.88,0,0,1,2.4,10.69l3.51,24.49c5.48,38.15,40.43,77.43,77.67,87.32l23.9,6.33c37.25,9.88,59.92,48.51,50.37,85.85l-6.1,24c-9.55,37.35,7.7,87,38.33,110.4l19.67,15c30.63,23.38,36.79,67.73,13.69,98.6l-14.84,19.78c-23.09,30.86-26.15,83.36-6.81,116.67L2605,620.5c19.36,33.31,8.08,76.66-25.07,96.3l-21.27,12.63c-33.16,19.66-56.08,67-50.94,105.17l3.29,24.53Z" style="fill:#4a90e2"/><path d="M2335.89,1000.08c16.5-34,53.19-62.8,89.15-68l24.51-3.52a60.86,60.86,0,0,0,51.52-68.14l-3.31-24.54c-5.62-41.89,19.39-93.55,55.77-115.11l21.26-12.61a60.87,60.87,0,0,0,21.53-82.69l-12.43-21.4c-21.23-36.57-17.9-93.84,7.46-127.69l14.84-19.79A60.89,60.89,0,0,0,2594.43,372l-19.66-15c-33.61-25.64-52.44-79.84-42-120.81l6.12-24a60.88,60.88,0,0,0-43.25-73.69l-23.91-6.33c-40.87-10.86-79-53.72-85-95.57l-3.52-24.49A59.37,59.37,0,0,0,2380.17,0h21a78.46,78.46,0,0,1,1.9,9.27l3.51,24.48c4.89,34.05,37.1,70.25,70.34,79.06l23.9,6.34a81,81,0,0,1,57.5,98l-6.11,24c-8.53,33.32,7.37,79.09,34.71,99.95l19.67,15a81,81,0,0,1,15.64,112.56l-14.85,19.79c-20.6,27.53-23.43,75.89-6.17,105.63l12.44,21.4A80.92,80.92,0,0,1,2585,725.4L2563.71,738c-29.56,17.55-50.7,61.15-46.11,95.24l3.29,24.53a81,81,0,0,1-68.53,90.63l-24.5,3.5c-26.29,3.77-53.89,23.87-69.14,48.15h-22.83ZM1415.74,150l2.83,21.06c5.63,41.92-19.38,93.55-55.74,115.13l-21.3,12.6A60.88,60.88,0,0,0,1320,381.51l12.42,21.37c21.22,36.57,17.89,93.85-7.47,127.69l-14.82,19.81A60.85,60.85,0,0,0,1321.9,635l19.67,15c33.61,25.65,52.44,79.85,42,120.82l-6.12,24a60.71,60.71,0,0,0,13.42,55.25h-24.48a80.48,80.48,0,0,1-8.34-60.22l6.12-24c8.51-33.31-7.37-79.1-34.72-100l-19.67-15a81,81,0,0,1-15.63-112.55l14.83-19.8c20.62-27.52,23.44-75.88,6.18-105.63l-12.43-21.38a81,81,0,0,1,28.62-110L1352.61,269c29.57-17.54,50.69-61.14,46.12-95.23L1395.54,150Z" style="fill:#fff8eb"/><path d="M1855.93,0A513.12,513.12,0,0,0,1600,135.58V94.86A544.62,544.62,0,0,1,1753.21,0ZM1585.75,150c-87.51,92.16-141.29,216.66-141.29,353.49,0,133.43,51.14,255.14,134.84,346.56h-39.68a542.6,542.6,0,0,1,5.88-700ZM1600,871.42a513.85,513.85,0,0,0,226.37,128.66h-89.46A545.3,545.3,0,0,1,1600,912.16V871.42Zm489.9,128.66c219.62-58.33,381.94-258.84,381.94-496.58,0-248.27-177-456-411.46-503.5h102.72c198.46,81.09,338.67,276.21,338.67,503.5,0,221-132.59,411.67-322.41,496.58Z" style="fill:#fff"/><path d="M1603.25,520.26c.12,2.81.29,5.59.48,8.36l30-2.08q-.29-3.82-.46-7.68Zm1.16,16.74c.27,2.79.55,5.58.87,8.34l29.86-3.5c-.29-2.55-.58-5.09-.81-7.64Zm1.95,16.66c.39,2.77.81,5.54,1.27,8.29l29.66-4.9q-.61-3.78-1.19-7.59l-29.74,4.21Zm2.74,16.55q.8,4.13,1.66,8.23l29.4-6.31c-.56-2.51-1.07-5-1.53-7.52Zm3.54,16.41c.63,2.73,1.31,5.45,2,8.14l29-7.7q-1-3.7-1.87-7.44Zm4.28,16.23c.79,2.68,1.58,5.37,2.43,8l28.67-9.08c-.79-2.42-1.53-4.88-2.23-7.36l-28.87,8.39Zm5.08,16c.9,2.66,1.85,5.31,2.82,7.93l28.2-10.43c-.9-2.4-1.76-4.82-2.61-7.26L1622,618.87Zm5.85,15.78c1,2.63,2.1,5.21,3.2,7.78l27.64-11.75c-1-2.35-2-4.74-2.93-7.12l-27.92,11.09Zm6.58,15.49c1.16,2.57,2.34,5.09,3.56,7.62l27.06-13c-1.1-2.31-2.2-4.64-3.25-7l-27.37,12.41Zm7.3,15.16c1.27,2.49,2.58,5,3.93,7.43l26.42-14.33c-1.23-2.25-2.42-4.52-3.6-6.81l-26.75,13.71Zm8,14.77c1.38,2.43,2.82,4.85,4.26,7.24l25.72-15.56c-1.33-2.2-2.62-4.39-3.93-6.63Zm8.7,14.37c1.52,2.36,3,4.7,4.61,7l25-16.76c-1.44-2.12-2.84-4.27-4.23-6.43l-25.34,16.16Zm9.38,13.93c1.61,2.31,3.26,4.56,4.92,6.82l24.13-17.92c-1.54-2.06-3-4.13-4.51-6.23Zm10,13.49c1.72,2.22,3.46,4.39,5.23,6.56l23.24-19c-1.61-2-3.21-4-4.78-6l-23.7,18.47Zm10.63,13c1.83,2.13,3.66,4.23,5.53,6.3l22.34-20.09c-1.71-1.92-3.4-3.84-5.08-5.8l-22.8,19.59Zm11.22,12.46c1.93,2,3.86,4,5.83,6l21.37-21.14c-1.8-1.81-3.59-3.66-5.34-5.51l-21.86,20.6Zm11.79,11.95c2,1.93,4,3.83,6.1,5.73l20.36-22.11c-1.88-1.73-3.76-3.48-5.59-5.26l-20.87,21.64Zm12.34,11.34c2.1,1.84,4.23,3.67,6.35,5.46l19.31-23c-2-1.65-3.92-3.3-5.83-5l-19.83,22.58Zm12.84,10.76c2.2,1.74,4.4,3.46,6.62,5.15l18.19-23.92c-2-1.54-4.06-3.11-6-4.7ZM1750,791.53c2.26,1.63,4.53,3.24,6.85,4.82l17-24.75c-2.08-1.44-4.19-2.92-6.25-4.42L1750,791.53Zm13.79,9.5c2.35,1.52,4.69,3,7,4.49L1786.7,780c-2.14-1.34-4.31-2.72-6.44-4.12L1763.8,801Zm14.22,8.83q3.63,2.13,7.26,4.16l14.64-26.23c-2.22-1.26-4.45-2.53-6.65-3.81L1778,809.86Zm14.61,8.16c2.47,1.29,5,2.57,7.45,3.81l13.39-26.9c-2.29-1.15-4.55-2.3-6.82-3.5Zm15,7.45q3.78,1.77,7.62,3.45l12.09-27.5c-2.33-1-4.66-2.07-7-3.17l-12.73,27.22Zm15.31,6.74q3.88,1.6,7.8,3.1l10.78-28.06c-2.38-.92-4.77-1.86-7.13-2.82Zm15.68,6c2.64.92,5.27,1.85,7.92,2.72l9.44-28.53c-2.44-.8-4.85-1.64-7.26-2.5Zm15.93,5.26c2.66.8,5.35,1.61,8,2.35l8.08-29c-2.49-.68-4.92-1.39-7.38-2.15Zm16.16,4.5c2.69.69,5.43,1.34,8.15,2l6.68-29.31q-3.74-.84-7.47-1.79L1870.69,848Zm16.36,3.74c2.74.56,5.48,1.08,8.25,1.58l5.28-29.59c-2.52-.44-5-.93-7.54-1.43l-6,29.44Zm16.52,2.95c2.75.43,5.52.81,8.29,1.17l3.89-29.79c-2.56-.33-5.09-.69-7.61-1.08Zm16.63,2.17c2.77.3,5.55.55,8.34.79l2.47-30c-2.55-.21-5.1-.44-7.63-.72l-3.18,29.89Zm16.71,1.37c2.79.18,5.58.3,8.37.4l1.06-30c-2.55-.08-5.12-.21-7.67-.36Zm16.76.59c1.47,0,3,0,4.5,0l3.85,0-.3-30h-3.55c-1.4,0-2.75,0-4.13,0l-.37,30Zm16.76-.17c2.78-.1,5.57-.22,8.37-.38l-1.71-30c-2.57.13-5.12.26-7.69.34l1,30Zm16.73-1c2.79-.23,5.59-.48,8.36-.78L1992.39,827c-2.54.27-5.09.5-7.65.71l2.42,29.95Zm16.68-1.75c2.78-.34,5.56-.74,8.31-1.16l-4.54-29.7c-2.51.37-5.06.74-7.6,1l3.83,29.81Zm16.58-2.53c2.77-.49,5.51-1,8.25-1.55l-5.93-29.47c-2.49.51-5,1-7.54,1.44l5.22,29.58Zm16.46-3.32c2.74-.6,5.44-1.25,8.16-1.93L2037.73,819c-2.49.62-5,1.21-7.49,1.79l6.64,29.29Zm16.28-4.08c2.7-.76,5.37-1.52,8.05-2.33l-8.7-28.76c-2.43.73-4.9,1.45-7.36,2.14Zm16.08-4.87c2.69-.87,5.32-1.78,8-2.73l-10.07-28.32c-2.43.88-4.85,1.71-7.29,2.51l9.37,28.54Zm15.89-5.64c2.62-1,5.21-2,7.81-3.11l-11.42-27.79c-2.37,1-4.75,1.93-7.15,2.84l10.75,28.06Zm15.55-6.38c2.58-1.14,5.12-2.29,7.66-3.47l-12.7-27.23c-2.34,1.08-4.67,2.15-7,3.17l12.06,27.53Zm15.25-7.11c2.5-1.26,5-2.54,7.5-3.85l-14-26.58c-2.28,1.19-4.56,2.36-6.87,3.51L2115.93,822Zm14.88-7.85c2.43-1.35,4.88-2.75,7.29-4.18l-15.23-25.88c-2.22,1.29-4.44,2.57-6.69,3.82Zm14.47-8.52c2.38-1.48,4.75-3,7.09-4.52L2135.93,776c-2.15,1.41-4.31,2.78-6.48,4.14l15.83,25.53Zm14.07-9.18c2.3-1.59,4.58-3.21,6.84-4.84l-17.6-24.35c-2.08,1.49-4.17,3-6.28,4.42Zm13.58-9.86c2.22-1.69,4.43-3.41,6.63-5.13l-18.73-23.52c-2,1.61-4,3.19-6.08,4.73Zm13.13-10.46q3.21-2.7,6.38-5.46l-19.82-22.59c-1.93,1.69-3.86,3.36-5.84,5Zm12.62-11.08q3.09-2.84,6.1-5.74l-20.86-21.63c-1.83,1.77-3.72,3.54-5.59,5.27l20.35,22.11Zm12.06-11.62q3-3,5.83-6l-21.84-20.63c-1.75,1.85-3.54,3.69-5.33,5.52l21.34,21.14Zm11.52-12.21c1.86-2.06,3.7-4.17,5.52-6.3L2205,715.34c-1.66,1.95-3.36,3.88-5.06,5.77Zm10.92-12.72c1.75-2.16,3.5-4.34,5.22-6.52l-23.68-18.5c-1.57,2-3.17,4-4.78,6l23.25,19Zm10.3-13.2c1.66-2.23,3.31-4.51,4.92-6.78l-24.53-17.36c-1.49,2.08-3,4.16-4.49,6.21l24.1,17.93Zm9.67-13.68c1.56-2.31,3.1-4.66,4.6-7l-25.32-16.17c-1.38,2.16-2.78,4.29-4.2,6.41Zm9-14.11c1.44-2.39,2.88-4.79,4.26-7.22l-26.06-15c-1.27,2.21-2.56,4.42-3.89,6.58l25.69,15.6Zm8.35-14.51c1.33-2.46,2.64-4.93,3.91-7.42l-26.73-13.71c-1.16,2.27-2.36,4.53-3.58,6.77l26.4,14.36Zm7.63-14.9c1.22-2.51,2.42-5,3.58-7.57l-27.37-12.44c-1.05,2.32-2.14,4.62-3.26,6.92l27.05,13.09Zm6.92-15.22c1.1-2.57,2.17-5.13,3.2-7.74L2260.36,624q-1.4,3.57-2.9,7.06Zm6.22-15.57c1-2.61,1.91-5.24,2.85-7.9l-28.42-9.79c-.83,2.43-1.7,4.82-2.59,7.23l28.16,10.46Zm5.48-15.86c.83-2.67,1.65-5.34,2.43-8L2270.39,595c-.74,2.46-1.49,4.9-2.26,7.35Zm4.71-16.1c.73-2.71,1.4-5.4,2.06-8.13l-29.22-7.07c-.58,2.49-1.22,5-1.87,7.45Zm3.93-16.31c.6-2.74,1.16-5.47,1.68-8.23l-29.52-5.67q-.71,3.79-1.53,7.53Zm3.15-16.49c.45-2.75.89-5.51,1.3-8.29L2280.12,550c-.34,2.53-.76,5-1.18,7.58l29.63,5Zm2.37-16.61c.35-2.77.66-5.55.91-8.34l-29.91-2.84c-.24,2.54-.51,5.09-.83,7.62l29.83,3.56Zm1.61-16.7c.19-2.79.38-5.56.49-8.36l-30-1.45c-.11,2.56-.27,5.12-.44,7.66Zm.81-16.76c.06-2.78.1-5.58.1-8.37l-30-.05c0,2.57,0,5.14-.12,7.69l30.05.73Zm0-16.75c-.07-2.8-.15-5.61-.29-8.38l-30,1.35c.12,2.55.2,5.1.27,7.67l30-.64Zm-.76-16.76c-.19-2.8-.4-5.58-.65-8.35L2282,473.36c.22,2.56.44,5.09.61,7.66l30-2Zm-1.5-16.7c-.34-2.79-.69-5.56-1.08-8.33l-29.76,4.16q.53,3.81,1,7.62l29.85-3.45Zm-2.34-16.61q-.69-4.17-1.45-8.28L2277.78,443c.48,2.51.93,5,1.33,7.56Zm-3.1-16.51c-.6-2.73-1.2-5.45-1.84-8.19l-29.25,7c.61,2.49,1.16,5,1.7,7.5l29.39-6.27Zm-3.88-16.32c-.72-2.71-1.47-5.4-2.24-8.1l-28.86,8.35c.7,2.45,1.39,4.92,2,7.39Zm-4.67-16.13q-1.26-4-2.62-8l-28.45,9.69c.85,2.45,1.65,4.88,2.41,7.33l28.65-9Zm-5.43-15.94q-1.47-3.94-3-7.87l-28,11.07c1,2.37,1.86,4.78,2.77,7.18l28.19-10.37Zm-6.19-15.65c-1.09-2.59-2.22-5.15-3.38-7.72l-27.4,12.39q1.61,3.48,3.1,7l27.68-11.71Zm-6.94-15.33c-1.22-2.53-2.44-5-3.72-7.55l-26.76,13.66q1.74,3.44,3.41,6.91l27.07-13Zm-7.65-15q-2-3.72-4-7.36l-26.1,14.91c1.28,2.23,2.52,4.48,3.73,6.72l26.42-14.27Zm-8.32-14.59c-1.44-2.42-2.92-4.79-4.41-7.15l-25.36,16.13c1.37,2.17,2.72,4.34,4.06,6.54l25.71-15.52Zm-9-14.19c-1.56-2.33-3.14-4.63-4.74-6.93l-24.57,17.31c1.46,2.1,2.92,4.21,4.36,6.34l25-16.72Zm-9.66-13.72c-1.66-2.26-3.37-4.48-5.08-6.69L2215.11,304c1.57,2,3.13,4.07,4.66,6.13ZM2233.61,279c-1.76-2.17-3.57-4.31-5.38-6.44l-22.84,19.55c1.66,1.93,3.31,3.9,4.94,5.88l23.28-19Zm-10.91-12.76q-2.79-3.11-5.67-6.17l-21.89,20.58c1.75,1.87,3.47,3.76,5.2,5.66l22.36-20.07Zm-11.5-12.22c-1.94-2-3.94-4-5.93-5.9l-20.92,21.6c1.86,1.77,3.66,3.58,5.46,5.39l21.39-21.1Zm-12-11.65c-2.05-1.9-4.13-3.77-6.22-5.63l-19.88,22.57q2.89,2.52,5.71,5.13Zm-12.59-11.08c-2.14-1.8-4.3-3.56-6.47-5.33l-18.8,23.48c2,1.58,4,3.21,5.94,4.85l19.34-23Zm-13.09-10.49c-2.2-1.69-4.45-3.36-6.69-5l-17.68,24.32c2.06,1.49,4.11,3,6.16,4.58ZM2160,211c-2.3-1.58-4.61-3.14-6.95-4.69l-16.5,25.11c2.16,1.41,4.28,2.85,6.37,4.29L2159.94,211Zm-14-9.19c-2.36-1.49-4.75-2.92-7.13-4.35l-15.31,25.87c2.18,1.28,4.39,2.61,6.56,4L2146,201.81Zm-14.4-8.52c-2.43-1.37-4.86-2.72-7.34-4l-14.07,26.55c2.27,1.2,4.49,2.42,6.73,3.67l14.68-26.21Zm-14.79-7.84c-2.51-1.26-5-2.46-7.51-3.66L2096.44,209c2.33,1.09,4.6,2.2,6.88,3.36l13.44-26.9Zm-15.15-7.12c-2.53-1.13-5.1-2.23-7.67-3.3l-11.51,27.77c2.36,1,4.72,2,7.05,3l12.13-27.48Zm-15.46-6.41c-2.63-1-5.23-2-7.88-2.92l-10.14,28.27c2.39.87,4.8,1.77,7.2,2.67Zm-15.79-5.69c-2.67-.86-5.32-1.71-8-2.54l-8.8,28.72c2.43.75,4.88,1.53,7.3,2.35Zm-16.05-4.9c-2.7-.77-5.38-1.49-8.11-2.18l-7.41,29.12c2.46.63,5,1.3,7.41,2ZM2038,157.18c-2.71-.63-5.45-1.23-8.21-1.77l-6,29.44c2.51.49,5,1.05,7.5,1.62l6.72-29.29Zm-16.45-3.37c-2.74-.5-5.49-1-8.25-1.39l-4.64,29.68c2.54.4,5.08.82,7.57,1.29l5.32-29.58ZM2005,151.23c-2.77-.36-5.54-.71-8.33-1l-3.21,29.87c2.53.29,5.09.59,7.62.93l3.92-29.79Zm-16.67-1.8c-2.77-.24-5.58-.44-8.37-.6l-1.8,30c2.55.16,5.12.35,7.65.55l2.52-29.93Zm-16.73-1c-2.8-.09-5.57-.16-8.36-.2l-.44,30.05c2.55,0,5.13.11,7.67.2Zm-16.76-.22c-2.82,0-5.6.08-8.37.17l1,30q3.81-.13,7.68-.17Zm-16.77.53c-2.79.16-5.56.35-8.36.57l2.38,29.95c2.54-.2,5.11-.37,7.65-.51ZM1921.38,150c-2.77.29-5.56.6-8.33,1l3.78,29.81c2.53-.34,5.08-.62,7.62-.86Zm-16.63,2.1c-2.78.42-5.54.88-8.3,1.35l5.19,29.61c2.53-.44,5-.86,7.57-1.24l-4.46-29.72Zm-16.54,2.9c-2.73.56-5.48,1.14-8.2,1.74l6.59,29.33c2.47-.56,5-1.1,7.5-1.6L1888.21,155Zm-16.36,3.67q-4.06,1-8.14,2.14l8,29c2.46-.67,4.94-1.31,7.41-1.94l-7.27-29.17Zm-16.19,4.46q-4,1.22-8,2.53l9.32,28.55c2.45-.79,4.89-1.56,7.37-2.3Zm-16,5.23c-2.66.94-5.28,1.91-7.93,2.92l10.7,28.08c2.39-.91,4.81-1.8,7.24-2.66Zm-15.74,6c-2.61,1.07-5.19,2.14-7.76,3.26l12,27.56c2.33-1,4.7-2,7.09-3l-11.36-27.81Zm-15.43,6.73c-2.54,1.19-5.06,2.4-7.59,3.63l13.31,27c2.31-1.15,4.62-2.26,7-3.34Zm-15.07,7.44c-2.48,1.3-5,2.64-7.41,4l14.58,26.27c2.26-1.25,4.5-2.45,6.78-3.64l-13.94-26.63Zm-14.71,8.15q-3.6,2.13-7.19,4.34l15.8,25.56c2.2-1.34,4.37-2.67,6.59-4l-15.2-25.93Zm-14.28,8.84c-2.35,1.53-4.68,3.1-7,4.67l17,24.78c2.12-1.44,4.24-2.86,6.4-4.27l-16.4-25.18Zm-13.84,9.51c-2.28,1.63-4.54,3.3-6.76,5L1762,244c2-1.54,4.08-3.06,6.19-4.54l-17.58-24.39ZM1737.2,225.2c-2.2,1.74-4.36,3.51-6.52,5.29l19.26,23.08c2-1.63,4-3.26,6-4.86ZM1724.32,236c-2.12,1.83-4.19,3.7-6.26,5.57l20.32,22.17c1.89-1.74,3.79-3.45,5.72-5.14L1724.32,236Zm-12.38,11.33c-2,1.94-4,3.9-6,5.89l21.32,21.17c1.81-1.83,3.62-3.63,5.48-5.39Zm-11.81,11.9c-1.9,2-3.79,4.09-5.68,6.16l22.28,20.14c1.71-1.9,3.46-3.78,5.23-5.64l-21.83-20.66Zm-11.24,12.45c-1.81,2.1-3.62,4.25-5.39,6.41l23.22,19.07c1.63-2,3.26-3.93,4.93-5.86l-22.76-19.63Zm-10.63,12.95c-1.72,2.2-3.42,4.41-5.09,6.65l24.1,18c1.52-2.06,3.06-4.1,4.65-6.09l-23.66-18.53Zm-10,13.42c-1.62,2.27-3.21,4.58-4.78,6.89l24.91,16.82c1.45-2.13,2.88-4.22,4.38-6.32Zm-9.38,13.9c-1.5,2.34-3,4.7-4.43,7.08l25.67,15.63c1.34-2.18,2.67-4.35,4.07-6.48l-25.31-16.23Zm-8.69,14.28c-1.42,2.42-2.77,4.86-4.11,7.31l26.37,14.41c1.24-2.26,2.49-4.48,3.76-6.7Zm-8,14.7c-1.27,2.48-2.52,5-3.74,7.49l27,13.12c1.13-2.29,2.27-4.57,3.45-6.85l-26.72-13.76ZM1634.83,356c-1.15,2.52-2.3,5.07-3.38,7.65l27.61,11.84c1-2.36,2-4.7,3.09-7Zm-6.59,15.36c-1,2.6-2,5.2-3,7.83l28.14,10.52c.91-2.41,1.81-4.79,2.77-7.17l-27.89-11.19ZM1622.37,387c-.92,2.64-1.79,5.29-2.65,8l28.61,9.18c.78-2.45,1.58-4.87,2.42-7.28L1622.37,387Zm-5.12,16c-.8,2.68-1.54,5.37-2.26,8.07l29,7.8c.67-2.46,1.38-4.93,2.08-7.38L1617.25,403Zm-4.36,16.2c-.66,2.73-1.29,5.44-1.86,8.18l29.33,6.41c.56-2.51,1.12-5,1.73-7.48l-29.2-7.11Zm-3.57,16.41c-.52,2.73-1,5.49-1.5,8.26l29.63,5c.43-2.53.88-5,1.37-7.56Zm-2.79,16.53c-.39,2.76-.77,5.54-1.11,8.33l29.85,3.6c.28-2.54.63-5.08,1-7.61l-29.72-4.31Zm-2,16.67c-.28,2.77-.5,5.55-.71,8.35l30,2.21c.19-2.57.42-5.12.66-7.66l-29.91-2.9Zm-1.21,16.72c-.16,2.78-.27,5.58-.34,8.37l30,.81c.06-2.57.15-5.13.3-7.69l-30-1.49Zm-.45,16.76v1.19c0,2.81,0,5.61.1,8.39l30-.71c-.06-2.55-.08-5.1-.08-7.68v-1.1l-30.05-.09Z" style="fill:#fff"/><path d="M2235.44,503.5c0,153.15-124.14,277.29-277.28,277.29S1680.89,656.64,1680.89,503.5,1805,226.21,1958.16,226.21s277.28,124.16,277.28,277.29Z" style="fill:#4a90e2"/><path d="M2081.76,507.87l123.3-16.95-124.39-4,118.65-37.53-123.26,17.1,110.61-57.05L2068,447.14l99.37-74.93-110.53,57.2,85.28-90.67-99.27,75.05L2111.62,310l-85.17,90.77,50.2-113.88-68.6,103.83L2038.29,270l-50,113.94,9.39-124.11-30.1,120.78-11.69-123.92-9.26,124.13-32.47-120.17L1926,384.57l-52.3-112.93,32.61,120.11-70.63-102.46,52.44,112.86-86.95-89,70.76,102.38L1771.16,342.4l87,89-111.64-55,100.83,73L1728.07,414l111.7,54.84-123.58-14.65,119.37,35.19-124.28,6.43,123.6,14.51-121.41,27.36,124.28-6.59-115,47.48,121.38-27.5-105.38,66.23,115-47.61-92.66,83.08,105.29-66.35L1789.05,684l92.56-83.2L1821.93,710l77.17-97.64-40.38,117.74,59.55-109.29-19.88,122.86,40.21-117.79,1.15,124.47,19.75-122.89,22.16,122.47-1.31-124.46,42.55,117-22.31-122.45,61.7,108.11-42.7-116.92,79.09,96.09-61.83-108L2131,680.58l-79.18-96,106.57,64.27-94.28-81.25L2180,612.91l-106.65-64.14,121.89,25.1-115.94-45.19,124.37,4.13-121.93-24.94Z" style="fill:#fff"/><path d="M1520.71,487.77l5.13,58.76,12.28-18.77-17.41-40Z" style="fill:#fff;fill-rule:evenodd"/><path d="M1525.84,546.53l2.2,25,37.59,22.14-39.79-47.1Z" style="fill:#fff;fill-rule:evenodd"/><path d="M1549,553.3l-23.11-6.77,39.78,47.1Z" style="fill:#fff;fill-rule:evenodd"/><path d="M1538.12,527.76l-12.28,18.77,55.79-22.15-43.51,3.39Z" style="fill:#fff;fill-rule:evenodd"/><path d="M1525.84,546.53,1549,553.3l32.68-28.92Z" style="fill:#fff;fill-rule:evenodd"/><path d="M1520.71,487.77l5.13,58.76-15.35-16.33Z" style="fill:#fff;fill-rule:evenodd"/><path d="M1525.84,546.53l2.2,25-33.21,28.33,31-53.29Z" style="fill:#fff;fill-rule:evenodd"/><path d="M1504.25,557.21l21.59-10.68-31,53.28,9.43-42.6Z" style="fill:#fff;fill-rule:evenodd"/><path d="M1510.49,530.2l15.35,16.33-58.78-12.13,43.43-4.21Z" style="fill:#fff;fill-rule:evenodd"/><path d="M1525.84,546.53l-21.59,10.69-37.19-22.81,58.78,12.12Z" style="fill:#fff;fill-rule:evenodd"/><path d="M1542.67,353.79l-10.25,58.08,16.71-14.93-6.46-43.15Z" style="fill:#fff;fill-rule:evenodd"/><path d="M1532.42,411.87l-4.36,24.69,30.59,31.1-26.23-55.79Z" style="fill:#fff;fill-rule:evenodd"/><path d="M1553,424.4l-20.56-12.53,26.23,55.79L1553,424.4Z" style="fill:#fff;fill-rule:evenodd"/><path d="M1549.13,396.94l-16.71,14.93,59.62-7Z" style="fill:#fff;fill-rule:evenodd"/><path d="M1532.42,411.87,1553,424.4l39-19.5-59.62,7Z" style="fill:#fff;fill-rule:evenodd"/><path d="M1542.67,353.79l-10.25,58.08-10.61-19.74,20.86-38.34Z" style="fill:#fff;fill-rule:evenodd"/><path d="M1532.42,411.87l-4.36,24.69-39.39,18.76,43.75-43.45Z" style="fill:#fff;fill-rule:evenodd"/><path d="M1508.8,416.61l23.62-4.74-43.75,43.45,20.13-38.71Z" style="fill:#fff;fill-rule:evenodd"/><path d="M1521.81,392.13l10.61,19.74L1478.77,385l43,7.18Z" style="fill:#fff;fill-rule:evenodd"/><path d="M1532.42,411.87l-23.62,4.74-30-31.66Z" style="fill:#fff;fill-rule:evenodd"/><path d="M1540.87,629.92,1561,685.35l7-21.3-27.18-34.13Z" style="fill:#fff;fill-rule:evenodd"/><path d="M1561,685.34l8.58,23.56,42.05,11.64Z" style="fill:#fff;fill-rule:evenodd"/><path d="M1585.12,685.91l-24.08-.57,50.62,35.2Z" style="fill:#fff;fill-rule:evenodd"/><path d="M1568,664.05l-7,21.29,48.15-35.84L1568,664.05Z" style="fill:#fff;fill-rule:evenodd"/><path d="M1561,685.34l24.08.57,24.07-36.41L1561,685.34Z" style="fill:#fff;fill-rule:evenodd"/><path d="M1540.87,629.92,1561,685.35l-19-11.81-1.12-43.62Z" style="fill:#fff;fill-rule:evenodd"/><path d="M1561,685.34l8.58,23.56-24.74,35.94,16.16-59.5Z" style="fill:#fff;fill-rule:evenodd"/><path d="M1543,701.25,1561,685.34l-16.16,59.5-1.91-43.6Z" style="fill:#fff;fill-rule:evenodd"/><path d="M1542,673.54l19,11.81-59.92,3.51Z" style="fill:#fff;fill-rule:evenodd"/><path d="M1561,685.34,1543,701.25l-41.84-12.39,59.91-3.51Z" style="fill:#fff;fill-rule:evenodd"/><path d="M2390.49,546.53l-23.11,6.77-32.68-28.92Z" style="fill:#fff;fill-rule:evenodd"/><path d="M2390.49,546.53l-2.2,25,33.2,28.32Z" style="fill:#fff;fill-rule:evenodd"/><path d="M2383.9,411.87l-20.56,12.53-39.05-19.5,59.61,7Z" style="fill:#fff;fill-rule:evenodd"/><path d="M2383.9,411.87l4.36,24.69,39.4,18.76Z" style="fill:#fff;fill-rule:evenodd"/><path d="M2355.3,685.34l-24.09.57-24.07-36.41,48.16,35.84Z" style="fill:#fff;fill-rule:evenodd"/><path d="M2355.3,685.34l-8.58,23.56,24.74,35.94-16.16-59.5Z" style="fill:#fff;fill-rule:evenodd"/><path d="M2179.39,1000.08C2369.2,915.17,2501.8,724.54,2501.8,503.5c0-227.29-140.21-422.41-338.67-503.5h217.06a59.36,59.36,0,0,1,3,12.11l3.52,24.49c6,41.85,44.14,84.71,85,95.57l23.91,6.33a60.87,60.87,0,0,1,43.24,73.69l-6.11,24c-10.47,41,8.36,95.17,42,120.81l19.65,15a60.89,60.89,0,0,1,11.77,84.64l-14.85,19.79c-25.35,33.85-28.69,91.12-7.45,127.69l12.43,21.4a60.88,60.88,0,0,1-21.53,82.69l-21.27,12.61c-36.38,21.56-61.39,73.22-55.76,115.11l3.3,24.54a60.86,60.86,0,0,1-51.51,68.14l-24.51,3.52c-36,5.16-72.65,34-89.15,68H2179.39Z" style="fill:#4a90e2"/><path d="M2335.89,1000.08c16.5-34,53.19-62.8,89.15-68l24.51-3.52a60.86,60.86,0,0,0,51.52-68.14l-3.31-24.54c-5.62-41.89,19.39-93.55,55.77-115.11l21.26-12.61a60.87,60.87,0,0,0,21.53-82.69l-12.43-21.4c-21.23-36.57-17.9-93.84,7.46-127.69l14.84-19.79A60.89,60.89,0,0,0,2594.43,372l-19.66-15c-33.61-25.64-52.44-79.84-42-120.81l6.12-24a60.88,60.88,0,0,0-43.25-73.69l-23.91-6.33c-40.87-10.86-79-53.72-85-95.57l-3.52-24.49A59.36,59.36,0,0,0,2380.18,0h21a78.46,78.46,0,0,1,1.9,9.27l3.51,24.48c4.89,34.05,37.1,70.25,70.34,79.06l23.9,6.34c36,9.55,60.06,42.48,60,78.27,0,1,0,2-.06,3a79.83,79.83,0,0,1-2.45,16.7l-6.11,24a78.66,78.66,0,0,0-2.31,19.38c0,29.91,14.71,63.54,37,80.57l19.67,15a80.68,80.68,0,0,1,31.65,64.37c0,2.49-.11,5-.35,7.49a80.22,80.22,0,0,1-15.66,40.7l-14.85,19.79c-.68.92-1.36,1.87-2,2.85q-2.13,3.2-4,6.67c-7.57,14.23-11.46,31.86-11.47,49.23,0,17,3.7,33.75,11.32,46.87l12.43,21.4A80.88,80.88,0,0,1,2585,725.4l-9.1,5.39-5.87,3.49-6.31,3.74c-26.79,15.9-46.66,53.22-46.73,85.43a72.12,72.12,0,0,0,.62,9.82l3.29,24.53a80.68,80.68,0,0,1-62,89.41c-2.14.5-4.31.91-6.53,1.21l-.72.11-23.77,3.39c-26.3,3.78-53.89,23.87-69.14,48.15h-22.84Z" style="fill:#fff"/><path d="M2089.93,1000.08c219.62-58.33,381.94-258.84,381.94-496.58,0-248.27-177-456-411.46-503.5h102.72c198.46,81.09,338.67,276.21,338.67,503.5,0,221-132.59,411.67-322.41,496.58Z" style="fill:#fff"/><path d="M1958.18,858.85h0V828.79h3.57l.3,30-3.85,0Zm12.26-.21-1-30c2.57-.08,5.11-.21,7.69-.35l1.71,30q-4.2.24-8.37.38Zm16.73-1-2.42-29.95c2.56-.21,5.11-.44,7.65-.71l3.13,29.88c-2.78.3-5.58.55-8.36.78Zm16.68-1.75L2000,826.12c2.54-.31,5.08-.68,7.6-1l4.53,29.7c-2.74.42-5.52.82-8.3,1.16Zm16.57-2.53-5.21-29.58c2.52-.46,5-.93,7.54-1.44l5.93,29.47c-2.74.55-5.48,1.06-8.26,1.55Zm16.47-3.32-6.63-29.29c2.51-.57,5-1.17,7.48-1.79l7.31,29.15c-2.72.68-5.42,1.33-8.16,1.93Zm16.27-4.08-8-29c2.46-.69,4.92-1.41,7.36-2.14l8.7,28.76C2058.54,844.48,2055.87,845.24,2053.16,846Zm16.09-4.87-9.37-28.54c2.44-.8,4.86-1.63,7.29-2.51l10.07,28.32c-2.67,1-5.3,1.86-8,2.73Zm15.88-5.64-10.75-28.06c2.4-.91,4.78-1.87,7.15-2.84L2093,832.38c-2.6,1.07-5.19,2.11-7.81,3.11Zm15.56-6.38-12.06-27.53c2.35-1,4.68-2.09,7-3.17l12.7,27.23C2105.81,826.82,2103.27,828,2100.69,829.11Zm15.24-7.11-13.37-26.92c2.32-1.15,4.6-2.32,6.87-3.51l14,26.58q-3.73,2-7.5,3.85Zm14.88-7.85-14.62-26.24q3.38-1.89,6.69-3.82L2138.1,810C2135.7,811.4,2133.25,812.8,2130.81,814.15Zm14.47-8.52h0l-15.82-25.53c2.17-1.36,4.33-2.73,6.48-4.14l16.44,25.15c-2.35,1.55-4.71,3-7.1,4.52Zm14.08-9.18-17-24.77q3.15-2.17,6.28-4.42l17.6,24.35C2163.94,793.24,2161.66,794.86,2159.36,796.45Zm13.58-9.86-18.18-23.93c2-1.53,4.06-3.11,6.07-4.72l18.73,23.52Q2176.27,784.06,2172.94,786.59Zm13.13-10.46-19.28-23c2-1.64,3.9-3.31,5.84-5l19.82,22.59Q2189.29,773.43,2186.07,776.13Zm12.62-11.08L2178.34,743c1.87-1.74,3.76-3.5,5.59-5.28l20.86,21.64c-2,1.94-4.05,3.85-6.1,5.74Zm12.06-11.62-21.34-21.14c1.79-1.84,3.57-3.67,5.32-5.52l21.85,20.62q-2.88,3-5.83,6Zm11.51-12.21-22.32-20.11c1.69-1.89,3.4-3.82,5.06-5.77l22.79,19.58C2226,737.05,2224.13,739.16,2222.26,741.22Zm10.93-12.72-23.25-19c1.61-2,3.21-4,4.78-6l23.69,18.5c-1.72,2.18-3.48,4.37-5.22,6.52Zm10.3-13.2-24.09-17.93c1.51-2,3-4.13,4.48-6.21l24.53,17.36c-1.61,2.27-3.26,4.55-4.92,6.78Zm9.67-13.68-24.92-16.77q2.13-3.18,4.2-6.41l25.32,16.17Q2255.5,698.14,2253.16,701.62Zm9-14.11-25.7-15.59q2-3.25,3.89-6.59l26.06,15c-1.38,2.43-2.82,4.84-4.26,7.23Zm8.35-14.51-26.4-14.36c1.22-2.24,2.42-4.5,3.58-6.78l26.73,13.72c-1.27,2.49-2.58,5-3.91,7.41Zm7.63-14.9-27-13.09c1.12-2.3,2.21-4.6,3.26-6.92l27.37,12.44c-1.16,2.55-2.36,5.06-3.58,7.57Zm6.92-15.22-27.61-11.81q1.5-3.5,2.9-7.06l27.91,11.13C2287.25,637.74,2286.18,640.31,2285.08,642.88Zm6.21-15.57-28.15-10.46c.88-2.41,1.76-4.8,2.59-7.23l28.41,9.79c-.93,2.66-1.85,5.29-2.85,7.91Zm5.49-15.86-28.64-9.11c.77-2.45,1.52-4.89,2.26-7.35l28.81,8.43C2298.42,606.11,2297.61,608.78,2296.78,611.45Zm4.71-16.1-29-7.75c.65-2.47,1.29-5,1.87-7.45l29.22,7.07C2302.89,590,2302.21,592.64,2301.49,595.35Zm3.93-16.31-29.37-6.37q.81-3.74,1.53-7.53l29.52,5.67C2306.58,573.57,2306,576.3,2305.42,579Zm3.15-16.49-29.63-5c.42-2.52.84-5.05,1.19-7.58l29.73,4.25c-.4,2.78-.84,5.54-1.29,8.29Zm2.36-16.61-29.82-3.55c.32-2.54.59-5.08.83-7.63l29.91,2.84c-.25,2.79-.57,5.58-.92,8.35Zm1.62-16.7-30-2.15c.17-2.54.32-5.1.43-7.66l30,1.45C2312.92,523.68,2312.74,526.45,2312.55,529.24Zm.8-16.76-30-.73c.08-2.55.09-5.12.12-7.69l30,.05c0,2.79,0,5.59-.1,8.37Zm-30-16.11c-.07-2.57-.14-5.12-.27-7.67l30-1.36c.14,2.78.22,5.58.29,8.39l-30,.64Zm-.69-15.35c-.18-2.56-.39-5.1-.62-7.65l29.93-2.75c.25,2.77.46,5.56.65,8.35l-30,2.06Zm-1.4-15.3q-.47-3.81-1-7.62l29.76-4.16c.38,2.77.73,5.54,1.07,8.33l-29.85,3.45Zm-2.14-15.21q-.61-3.79-1.33-7.56l29.54-5.57q.77,4.11,1.45,8.28Zm-2.84-15.09c-.54-2.51-1.09-5-1.7-7.5l29.25-7c.64,2.74,1.24,5.46,1.84,8.19l-29.39,6.27Zm-3.56-14.95c-.64-2.47-1.32-4.94-2-7.39l28.87-8.35c.77,2.7,1.52,5.39,2.23,8.1Zm-4.25-14.75c-.77-2.45-1.57-4.88-2.42-7.32l28.46-9.7q1.35,4,2.61,8l-28.65,9Zm-5-14.57c-.91-2.41-1.81-4.82-2.77-7.19l28-11.07c1,2.63,2,5.24,3,7.87h0l-28.19,10.38Zm-5.67-14.33q-1.5-3.56-3.1-7l27.4-12.39c1.16,2.57,2.29,5.13,3.38,7.72l-27.68,11.7Zm-6.34-14c-1.1-2.32-2.25-4.62-3.4-6.91l26.76-13.66c1.27,2.51,2.5,5,3.72,7.55l-27.07,13Zm-7-13.73c-1.2-2.25-2.45-4.49-3.73-6.72l26.1-14.91q2.08,3.65,4,7.36l-26.42,14.27Zm-7.61-13.34c-1.34-2.2-2.69-4.37-4.06-6.54l25.36-16.13c1.49,2.36,3,4.73,4.41,7.15l-25.72,15.51Zm-8.25-13c-1.44-2.13-2.89-4.23-4.36-6.34l24.57-17.31c1.6,2.3,3.19,4.6,4.74,6.93l-25,16.72Zm-8.85-12.56q-2.31-3.1-4.67-6.13l23.74-18.44c1.7,2.21,3.41,4.44,5.07,6.69ZM2210.33,298c-1.63-2-3.27-4-4.93-5.89l22.84-19.55c1.81,2.14,3.61,4.27,5.37,6.45l-23.28,19Zm-10-11.69c-1.73-1.9-3.45-3.78-5.21-5.66L2217,260.11c1.92,2,3.82,4.09,5.67,6.17l-22.35,20.07Zm-10.54-11.2c-1.79-1.81-3.59-3.61-5.45-5.39l20.92-21.6c2,1.94,4,3.93,5.93,5.9l-21.4,21.09Zm-11-10.67c-1.87-1.74-3.78-3.46-5.7-5.13L2193,236.78c2.08,1.86,4.16,3.73,6.22,5.63Zm-11.52-10.15c-1.94-1.64-4-3.27-5.94-4.86L2180.11,226c2.18,1.78,4.34,3.54,6.48,5.33h0l-19.34,23Zm-12-9.59c-2.05-1.55-4.1-3.09-6.17-4.58l17.68-24.32c2.25,1.64,4.49,3.31,6.69,5Zm-12.42-9c-2.08-1.44-4.21-2.88-6.36-4.29l16.5-25.11c2.34,1.55,4.65,3.1,6.95,4.69l-17.08,24.71Zm-12.8-8.42c-2.17-1.35-4.37-2.68-6.55-4l15.3-25.87c2.38,1.42,4.77,2.86,7.13,4.35l-15.88,25.48Zm-13.2-7.8c-2.24-1.24-4.46-2.46-6.73-3.66l14.07-26.56c2.48,1.3,4.91,2.64,7.34,4l-14.68,26.2Zm-13.54-7.15c-2.28-1.16-4.56-2.26-6.89-3.35l12.81-27.2c2.51,1.2,5,2.4,7.52,3.66l-13.44,26.89Zm-13.84-6.53q-3.51-1.55-7-3l11.5-27.77c2.57,1.07,5.14,2.17,7.68,3.3l-12.13,27.48Zm-14.16-5.87c-2.39-.9-4.8-1.79-7.2-2.67L2078.28,169c2.64.94,5.25,1.91,7.88,2.92Zm-14.45-5.17c-2.42-.82-4.87-1.59-7.3-2.36l8.79-28.71c2.68.82,5.33,1.67,8,2.54Zm-14.67-4.51c-2.47-.69-5-1.35-7.42-2l7.42-29.13c2.72.7,5.4,1.41,8.1,2.18Zm-14.89-3.79c-2.5-.56-5-1.12-7.49-1.62l6-29.44q4.13.83,8.21,1.77l-6.73,29.29Zm-15-3.08c-2.49-.47-5-.88-7.56-1.29l4.63-29.68c2.76.43,5.51.9,8.26,1.39l-5.33,29.58ZM2001.1,181c-2.53-.34-5.09-.64-7.62-.93l3.21-29.87c2.8.31,5.56.64,8.34,1L2001.1,181Zm-15.27-1.66c-2.53-.21-5.1-.39-7.65-.55l1.8-30c2.79.16,5.6.37,8.37.6l-2.52,29.94Zm-15.34-.93c-2.54-.08-5.12-.16-7.67-.19l.44-30.05c2.79,0,5.57.11,8.36.2Z" style="fill:#fff"/><path d="M1958.16,780.79V635.69l1.33-8.28,22.17,122.48-1.31-124.47,42.55,117-18.41-101,14.08,10,43.71,76.58-22.42-61.41L2107.63,715,2084,640l47,40.58-55.29-67-5.66-18,88.33,53.27-94.27-81.25L2180,612.92l-106.66-64.14,121.9,25.1-115.94-45.19,124.37,4.12-111-22.7,6.2-4.6,106.16-14.59-82.88-2.65L2156.25,463l43.06-13.63L2169,453.61l31.09-23-53.44-.49,40-20.66-64.35,20.44-31-.28,76.12-57.4-110.31,57.08H2057l85.17-90.55-99.27,75.05L2111.61,310l-85.17,90.77,50.2-113.88L2008,390.75,2038.28,270l-42.57,96.91-5-15.08,7-92-16.12,64.69-23.34-69.68V226.22c153.13,0,277.27,124.15,277.27,277.29S2111.29,780.8,1958.16,780.8Z" style="fill:#4a90e2"/><path d="M2390.49,546.53l-12.28-18.75,13.56-31.19,3.84-8.82-.81,9.29-4.31,49.47Z" style="fill:#fff;fill-rule:evenodd"/><path d="M2350.7,593.63Zm0,0,39.79-47.1-2.2,25Z" style="fill:#fff;fill-rule:evenodd"/><path d="M2350.7,593.63h0l16.68-40.33,23.11-6.77Zm39.79-47.1Zm0,0Z" style="fill:#fff;fill-rule:evenodd"/><path d="M2390.49,546.53Zm0,0-52.65-20.91-3.14-1.25,32.71,2.56,10.8.85,12.28,18.75Z" style="fill:#fff;fill-rule:evenodd"/><path d="M2367.38,553.3h0l-31.33-27.73-1.35-1.2,3.14,1.25,52.65,20.91-23.11,6.77Z" style="fill:#fff;fill-rule:evenodd"/><path d="M2390.49,546.53l4.31-49.46.81-9.3,2.58,10.69,7.65,31.74Z" style="fill:#fff;fill-rule:evenodd"/><path d="M2421.49,599.82Zm0,0-.25-.21-32.95-28.11,2.2-25Z" style="fill:#fff;fill-rule:evenodd"/><path d="M2421.49,599.82h0l-31-53.29,21.58,10.69,8.37,37.86,1,4.74Zm-31-53.29Z" style="fill:#fff;fill-rule:evenodd"/><path d="M2390.49,546.53l15.35-16.33,3.23.31,40.21,3.88-19.8,4.09-39,8Z" style="fill:#fff;fill-rule:evenodd"/><path d="M2412.07,557.21l-21.58-10.68,39-8,19.8-4.09-9.4,5.76-27.81,17.06Z" style="fill:#fff;fill-rule:evenodd"/><path d="M2383.9,411.87l-16.72-14.93,6.47-43.15,10.25,58.08Z" style="fill:#fff;fill-rule:evenodd"/><path d="M2357.69,467.66Zm0,0,26.21-55.79,4.36,24.69Z" style="fill:#fff;fill-rule:evenodd"/><path d="M2357.69,467.66h0l5.65-43.26,20.56-12.53Z" style="fill:#fff;fill-rule:evenodd"/><path d="M2383.9,411.87l-59.61-7,42.89-8Z" style="fill:#fff;fill-rule:evenodd"/><path d="M2363.34,424.4h0l-39.05-19.5,59.61,7-20.56,12.53Z" style="fill:#fff;fill-rule:evenodd"/><path d="M2383.9,411.87h0l-10.25-58.08,20.86,38.33-10.61,19.74Z" style="fill:#fff;fill-rule:evenodd"/><path d="M2427.66,455.32Zm0,0-39.4-18.76-4.36-24.69Zm-43.76-43.45Z" style="fill:#fff;fill-rule:evenodd"/><path d="M2427.66,455.32h0l-43.76-43.45,23.64,4.73,20.13,38.72Zm-43.76-43.45Z" style="fill:#fff;fill-rule:evenodd"/><path d="M2383.9,411.87l10.61-19.74,43-7.18Z" style="fill:#fff;fill-rule:evenodd"/><path d="M2407.53,416.6l-23.63-4.73L2437.55,385l-30,31.65Z" style="fill:#fff;fill-rule:evenodd"/><path d="M2355.3,685.34l-7-21.29,27.18-34.13-20.17,55.43Z" style="fill:#fff;fill-rule:evenodd"/><path d="M2304.67,720.54Zm0,0,50.63-35.2-8.58,23.56-42,11.64Z" style="fill:#fff;fill-rule:evenodd"/><path d="M2304.67,720.54h0l26.54-34.63,24.09-.57-50.63,35.2Zm50.63-35.2Zm0,0Z" style="fill:#fff;fill-rule:evenodd"/><path d="M2355.3,685.34Zm0,0-48.16-35.84,41.15,14.55Z" style="fill:#fff;fill-rule:evenodd"/><path d="M2331.21,685.91h0l-24.08-36.41,48.16,35.84-24.08.57Z" style="fill:#fff;fill-rule:evenodd"/><path d="M2355.3,685.34l20.17-55.43-1.12,43.63Z" style="fill:#fff;fill-rule:evenodd"/><path d="M2371.46,744.85l-24.74-36,8.58-23.55,16.16,59.5Z" style="fill:#fff;fill-rule:evenodd"/><path d="M2371.46,744.85h0l-16.16-59.5,18.07,15.9-1.91,43.6Zm-16.16-59.5Zm0,0Z" style="fill:#fff;fill-rule:evenodd"/><path d="M2415.21,688.86l-59.92-3.51,19.05-11.81Z" style="fill:#fff;fill-rule:evenodd"/><path d="M2373.38,701.25h0l-18.08-15.91,59.92,3.51-41.84,12.39Z" style="fill:#fff;fill-rule:evenodd"/><path d="M1971.72,502.37a14.82,14.82,0,0,1-29.64,0c0-11.11-3.7-14.82-14.81-14.82s-14.81,3.71-14.81,14.82a14.82,14.82,0,1,1-14.82-14.82c11.11,0,14.82-3.7,14.82-14.81a14.81,14.81,0,1,1,29.62,0c0,11.11,3.71,14.81,14.82,14.81A14.79,14.79,0,0,1,1971.72,502.37Z" style="fill:#4a90e2;fill-rule:evenodd"/><path d="M1882.74,532a14.82,14.82,0,1,0-14.82,14.82A14.82,14.82,0,0,0,1882.74,532Z" style="fill:#4a90e2;fill-rule:evenodd"/><path d="M2060.74,472.69a14.81,14.81,0,0,1-14.82,14.82c-11.11,0-14.81,3.7-14.81,14.81a14.81,14.81,0,0,1-14.82,14.82c-11.11,0-14.81,3.7-14.81,14.82a14.82,14.82,0,1,1-14.82-14.82c11.11,0,14.82-3.71,14.82-14.82a14.8,14.8,0,0,1,14.81-14.81c11.11,0,14.82-3.71,14.82-14.82a14.82,14.82,0,1,1,29.63,0Z" style="fill:#4a90e2;fill-rule:evenodd"/><ellipse cx="1958.1" cy="504.8" rx="403.11" ry="403.13" style="fill:none"/><path d="M1604.3,310.4l-53.17-34.09,23-35.87,6.24,4-18.47,28.82,16.56,10.61,16-24.95,6.24,4-16,24.95,24.14,15.48-4.52,7Zm29-45.93-47.74-41.36,29.86-34.47,5.6,4.86-24.38,28.14,14.67,12.7L1634.08,208l5.6,4.85-22.81,26.34,16.27,14.09L1658.49,224l5.6,4.85-30.84,35.6Zm38.37-44.29-41.36-47.74,34.47-29.86,4.86,5.6-28.14,24.38,12.71,14.67,26.33-22.82,4.85,5.6L1659,192.83l14.09,16.27,29.27-25.36,4.85,5.6-35.6,30.84Zm44.7-38-36.6-51.48,6.83-4.85,32.31,45.43,25.31-18,4.29,6-32.13,22.86Zm41.2-27.67-28.8-56.22,40.6-20.79,3.37,6.59-33.13,17,8.85,17.28,31-15.89,3.38,6.6-31,15.88,9.81,19.16,34.46-17.66,3.38,6.6-41.92,21.48Zm43.8-43.81,7.21-3.19a17.49,17.49,0,0,0,5,6.58,14.44,14.44,0,0,0,7.6,2.64,24,24,0,0,0,9.78-1.32,23,23,0,0,0,7.54-4.06,11.72,11.72,0,0,0,3.9-5.46,9.17,9.17,0,0,0,0-5.7,8.25,8.25,0,0,0-3.29-4.35,12.92,12.92,0,0,0-6.58-1.7,115.65,115.65,0,0,0-11.64.69c-6,.54-10.21.6-12.81.17a17,17,0,0,1-8.25-3.42,14.38,14.38,0,0,1-4.63-6.75,16.16,16.16,0,0,1-.29-9.35,16.78,16.78,0,0,1,5.48-8.53,30.12,30.12,0,0,1,10.28-5.76A31.49,31.49,0,0,1,1823,59.39a17.76,17.76,0,0,1,9.94,3.66,19.24,19.24,0,0,1,6.13,8.44l-7.4,3.15q-2.54-5.44-7-7.15t-11.41.64q-7.2,2.43-9.59,6.17a8.34,8.34,0,0,0-1.13,7.46,7.18,7.18,0,0,0,4.12,4.52c2,.86,6.45,1,13.38.23s11.77-1,14.53-.67a19.16,19.16,0,0,1,9.76,3.48,15.56,15.56,0,0,1,5.35,7.64,17.11,17.11,0,0,1,.31,9.91,18.86,18.86,0,0,1-5.62,9.21,28.89,28.89,0,0,1-10.73,6.24,36.15,36.15,0,0,1-14.38,2.22,19.87,19.87,0,0,1-11-4.21,21.26,21.26,0,0,1-6.92-9.62ZM1859.72,92l7.61-2.08a17.55,17.55,0,0,0,3.93,7.24,14.36,14.36,0,0,0,7.12,3.75,24,24,0,0,0,9.87.15,23.06,23.06,0,0,0,8.06-2.89,11.68,11.68,0,0,0,4.66-4.82,9.12,9.12,0,0,0,.82-5.64,8.23,8.23,0,0,0-2.6-4.79,12.82,12.82,0,0,0-6.26-2.66,114.79,114.79,0,0,0-11.61-1.05c-6-.35-10.18-.93-12.69-1.73a17.16,17.16,0,0,1-7.65-4.63,14.4,14.4,0,0,1-3.57-7.35,16,16,0,0,1,1.1-9.29,16.67,16.67,0,0,1,6.69-7.61,30,30,0,0,1,11-4.17,31.63,31.63,0,0,1,12.59,0,17.75,17.75,0,0,1,9.29,5.11,19.11,19.11,0,0,1,4.8,9.25l-7.79,2c-1.12-3.84-3.08-6.56-5.89-8.11s-6.6-1.93-11.37-1.08q-7.47,1.34-10.4,4.68a8.35,8.35,0,0,0-2.24,7.21,7.24,7.24,0,0,0,3.4,5.09c1.85,1.15,6.24,1.9,13.2,2.21s11.78.83,14.47,1.51a19.16,19.16,0,0,1,9.14,4.89,15.7,15.7,0,0,1,4.15,8.36,17.13,17.13,0,0,1-1.17,9.84,19,19,0,0,1-6.93,8.28,28.89,28.89,0,0,1-11.54,4.56,36.09,36.09,0,0,1-14.55.06,20,20,0,0,1-10.25-5.8A21.14,21.14,0,0,1,1859.72,92Zm124.18,2.78a26.61,26.61,0,0,1-8.52,6.13,22.75,22.75,0,0,1-9.85,1.87q-9.69-.24-15.22-6.91a17.73,17.73,0,0,1-4.32-12,16.39,16.39,0,0,1,4-10.44c2.6-3.09,6.43-5.74,11.47-8a37.64,37.64,0,0,1-5.53-8.11,14,14,0,0,1-1.29-5.92,13.13,13.13,0,0,1,4.72-9.77,15.74,15.74,0,0,1,11.35-3.92,14.69,14.69,0,0,1,10.5,4.23,12.77,12.77,0,0,1,3.87,9.65q-.22,9-12.4,15.1l11.07,14.63a35.34,35.34,0,0,0,3.27-8.71l8,1.93a42.8,42.8,0,0,1-6,13.37,45.55,45.55,0,0,0,9.6,9.92l-5.36,6a44.91,44.91,0,0,1-9.41-9.06Zm-15.05-33.19c3.43-1.92,5.65-3.6,6.69-5.07a8.7,8.7,0,0,0,1.62-4.94,7.18,7.18,0,0,0-1.92-5.35,7,7,0,0,0-5.08-2.18,7.27,7.27,0,0,0-5.31,1.89,6.68,6.68,0,0,0-2.23,4.93,7.24,7.24,0,0,0,.69,3.11,15.44,15.44,0,0,0,2.17,3.49l3.37,4.12Zm10.26,27-13.69-18q-6.4,3.55-8.67,6.71a11.16,11.16,0,0,0-2.37,6.26,13.48,13.48,0,0,0,2.86,8,10.07,10.07,0,0,0,8.52,4.33,14.29,14.29,0,0,0,7.25-2,17.4,17.4,0,0,0,6.1-5.35Zm54.07,20.23,11.1-62.18,8.25,1.48-11.1,62.17Zm22.78,3.35,20.24-59.83,8.14,2.75,15.5,57.58,15.89-47,7.6,2.58-20.24,59.83-8.14-2.75-15.5-57.59-15.89,47Zm67.57,1.94,7.31,2.95a17.44,17.44,0,0,0-1.25,8.15,14.35,14.35,0,0,0,3.4,7.29,23.93,23.93,0,0,0,7.76,6.09,22.86,22.86,0,0,0,8.16,2.58,11.66,11.66,0,0,0,6.63-1,9.09,9.09,0,0,0,4.07-4,8.23,8.23,0,0,0,.82-5.39,12.89,12.89,0,0,0-3.37-5.91,111.87,111.87,0,0,0-8.61-7.86q-6.79-5.83-9-9.06a17.05,17.05,0,0,1-3.29-8.31,14.46,14.46,0,0,1,1.61-8,16.08,16.08,0,0,1,6.5-6.73,16.72,16.72,0,0,1,9.94-2,29.9,29.9,0,0,1,11.29,3.36,31.49,31.49,0,0,1,10,7.66,17.76,17.76,0,0,1,4.3,9.68,19.17,19.17,0,0,1-1.77,10.27l-7.43-3.1q2.16-5.62.23-10T2162.36,93q-6.75-3.47-11.1-2.57a8.38,8.38,0,0,0-6.15,4.39,7.22,7.22,0,0,0-.37,6.1c.78,2,3.82,5.3,9.17,9.75s8.88,7.79,10.61,10a19.25,19.25,0,0,1,4.31,9.42,15.66,15.66,0,0,1-1.76,9.16,17.07,17.07,0,0,1-6.89,7.13,18.88,18.88,0,0,1-10.52,2.39,28.79,28.79,0,0,1-11.95-3.34,36.49,36.49,0,0,1-11.62-8.76,20,20,0,0,1-4.64-10.83,21.11,21.11,0,0,1,2.07-11.67Zm58.15,55,30.09-46.93L2194.24,111l4-6.24,42.11,27-4,6.23-17.52-11.23-30.09,46.93-7-4.52Zm21,14,59.66-31.88,6.95,6-21.92,64.58-7.18-6.23,7-19.25L2227.05,179l-17.72,10Zm30.72-7.7,16.27,14.09L2256.1,172q3-8,5.21-12.93a90.39,90.39,0,0,1-10.59,6.91ZM2251,227.17l47.74-41.36,5.62,6.49-15.77,57.51L2326,217.36l5.26,6.06-47.74,41.36-5.62-6.49,15.77-57.51-37.47,32.46-5.26-6.06Zm48.71,63.57,46.93-30.09-11.23-17.53,6.24-4,27,42.11-6.24,4-11.23-17.53-46.94,30.1-4.52-7.06Z" style="fill:#fff;fill-rule:evenodd"/><path d="M2279.25,749.58,2327,790.93l-5.62,6.49L2262.2,790l37.47,32.46-5.26,6.07-47.74-41.35,5.62-6.49,59.17,7.4L2274,755.65Zm-37.58,42.77,23,63.6-6.95,6L2197,831.07l7.19-6.24,18.06,9.69,20.1-17.41-7.35-19,6.7-5.8Zm3.25,31.5L2228.65,838l16.44,8.92q7.47,4.08,12,7a89.23,89.23,0,0,1-5.32-11.47l-6.91-18.55Zm-53.85,10.37,34.08,53.17-7.23,4.64-54.65-23.86L2190,909.91l-6.76,4.33-34.08-53.17,7.23-4.64,54.65,23.86-26.76-41.74,6.76-4.33Zm-40.78,61.16q5.76,14.61,1.16,26t-17,16.26a30.3,30.3,0,0,1-16.21,1.9,27.29,27.29,0,0,1-14.23-6.91,37.84,37.84,0,0,1-9.64-14.39,37.12,37.12,0,0,1-2.68-17.4,26.4,26.4,0,0,1,6-14.69,31.35,31.35,0,0,1,12.85-9.26,30,30,0,0,1,16.42-1.84,27.67,27.67,0,0,1,14.21,7,35.61,35.61,0,0,1,9.14,13.32Zm-8.1,3Q2138,887.82,2129.9,884a21.43,21.43,0,0,0-28.74,11.39q-3.22,8.39,1.24,19.72a32.31,32.31,0,0,0,7.34,11.54,20,20,0,0,0,10.35,5.48,20.7,20.7,0,0,0,11.64-1.19,21.35,21.35,0,0,0,12-11.25q3.72-8-1.49-21.24ZM2033.6,923.8l-8.64-.18q.24-10.62,5.66-17.41a26,26,0,0,1,15-9q9.93-2.28,17.09.33a25.82,25.82,0,0,1,12.18,9.53,43.11,43.11,0,0,1,7,15.74,37.1,37.1,0,0,1,.2,17.6,25.75,25.75,0,0,1-7.93,13.29,31.21,31.21,0,0,1-14,7.15q-9.24,2.13-16.6-1.12a25,25,0,0,1-11.81-11.18l7.55-3.74c2.45,4.14,5.28,6.93,8.46,8.34a16.9,16.9,0,0,0,10.93.7,20.32,20.32,0,0,0,11.05-6.13,18.3,18.3,0,0,0,4.57-10.66,37.79,37.79,0,0,0-.79-12.27,38.67,38.67,0,0,0-5.44-13.17,17.5,17.5,0,0,0-9.11-7.12,20.37,20.37,0,0,0-11.08-.49,17.9,17.9,0,0,0-10.64,6.61c-2.54,3.36-3.78,7.75-3.7,13.2Zm-60,47.35-8.35.63-2.77-36.37q-.72-9.49,1-15.25a18.57,18.57,0,0,1,7-9.66c3.56-2.62,8.35-4.16,14.42-4.62,5.88-.45,10.78.19,14.68,2a17.46,17.46,0,0,1,8.69,8.21c1.89,3.74,3.1,8.93,3.6,15.61l2.77,36.37-8.36.63-2.77-36.35c-.41-5.47-1.23-9.48-2.44-12a11.49,11.49,0,0,0-5.68-5.59,17.93,17.93,0,0,0-9.2-1.43c-6.1.46-10.35,2.19-12.73,5.16s-3.27,8.42-2.67,16.33l2.77,36.36Zm-27.34-63.07-4.79,63-27.92-2.13q-8.41-.64-12.66-2.67a14.06,14.06,0,0,1-6.54-6.52,17.9,17.9,0,0,1-1.89-9.68,15.9,15.9,0,0,1,5.2-11c3.12-2.85,7.73-4.44,13.83-4.82a21.19,21.19,0,0,1-4.79-3.52,42.45,42.45,0,0,1-6.26-8.91l-9.59-18,10.41.8,7.33,13.74q3.21,6,5.34,9.14a19,19,0,0,0,3.92,4.53,12.53,12.53,0,0,0,3.66,2,26.87,26.87,0,0,0,4.61.65l9.65.73,2.13-28,8.35.64Zm-11,34.55-17.89-1.37a26.58,26.58,0,0,0-9,.51,9.35,9.35,0,0,0-5.16,3.42,10.22,10.22,0,0,0-2.09,5.51,9.45,9.45,0,0,0,2.66,7.61q3,3.12,10,3.65l19.91,1.51,1.59-20.85ZM1883,901.14l-14.21,61.55-27.27-6.3q-8.24-1.9-12.13-4.55a14,14,0,0,1-5.48-7.42,17.92,17.92,0,0,1-.41-9.86,15.9,15.9,0,0,1,6.79-10.06q5.28-3.51,14.4-2.68a21.24,21.24,0,0,1-4.21-4.21,42.54,42.54,0,0,1-4.84-9.74l-6.77-19.22L1839,891l5.18,14.68c1.51,4.26,2.82,7.54,3.9,9.85a19.47,19.47,0,0,0,3.19,5.07,13,13,0,0,0,3.34,2.49,25.07,25.07,0,0,0,4.46,1.33l9.42,2.18,6.31-27.34,8.17,1.89Zm-16.1,32.5-17.48-4a26.65,26.65,0,0,0-9-.85,9.36,9.36,0,0,0-5.61,2.59,10.24,10.24,0,0,0-2.9,5.14,9.42,9.42,0,0,0,1.49,7.93q2.5,3.54,9.32,5.1l19.45,4.5,4.71-20.37Zm-45.71-48.37-26,57.56L1753.58,924l3.05-6.75,33.92,15.33,8-17.69-31.75-14.35,3-6.75,31.75,14.35,8.86-19.61-35.28-16,3-6.75,42.93,19.4Zm-53.62-23.87-34.08,53.17-7.23-4.63-1.15-59.62-26.75,41.73-6.76-4.33,34.09-53.17,7.23,4.63,1.14,59.63,26.75-41.74,6.76,4.33Zm-102-47.55-5-7.09c5.82-4,11.61-5.92,17.41-5.67s11.17,2.52,16.14,6.82q7.71,6.68,9.81,14a25.86,25.86,0,0,1-.53,15.45,43.25,43.25,0,0,1-8.55,15,37.29,37.29,0,0,1-14.11,10.53,25.83,25.83,0,0,1-15.41,1.42,31.2,31.2,0,0,1-14-7.13q-7.17-6.21-8.87-14.07a25,25,0,0,1,2.07-16.14l7.47,3.9q-2.87,6.64-1.76,11.76a16.94,16.94,0,0,0,5.88,9.25,20.45,20.45,0,0,0,11.45,5.32,18.43,18.43,0,0,0,11.32-2.6,37.7,37.7,0,0,0,9.44-7.87,38.6,38.6,0,0,0,7.43-12.15,17.37,17.37,0,0,0,.38-11.55,20.36,20.36,0,0,0-6.13-9.25,18,18,0,0,0-11.61-4.7q-6.31-.11-12.84,4.79ZM1655,770.45,1634.81,788l-11.57,42.24-6.58-7.6,6.27-22c1.16-4.08,2.42-8,3.81-11.84-3.76.71-8.09,1.37-13,2l-22.07,2.94-6.38-7.37,44-4.77,20.22-17.52,5.49,6.34Z" style="fill:#fff;fill-rule:evenodd"/><rect x="99.21" y="257.12" width="483.66" height="483.66" style="fill:#fff"/><path id="Rectangle" d="M111,259a10,10,0,0,0-10,10V729a10,10,0,0,0,10,10H571a10,10,0,0,0,10-10V269a10,10,0,0,0-10-10Zm0-10H571a20,20,0,0,1,20,20V729a20,20,0,0,1-20,20H111a20,20,0,0,1-20-20V269A20,20,0,0,1,111,249Z" style="fill:url(#linear-gradient)"/><g style="isolation:isolate"><path d="M202.7,202.75h13a10.3,10.3,0,0,1,7.16,2.32,9.48,9.48,0,0,1,0,13q-2.55,2.33-7.16,2.32h-6.72V231H202.7Zm12.16,12.88c3.12,0,4.68-1.34,4.68-4a3.84,3.84,0,0,0-1.16-3.08,5.3,5.3,0,0,0-3.52-1h-5.92v8.12Z" style="fill:#2677ff"/><path d="M253.86,231h-6.8l-4.88-9a3.87,3.87,0,0,0-1.44-1.5,4.44,4.44,0,0,0-2.12-.46h-3.08v11h-6.16v-28.2h13q5,0,7.5,2.18a7.84,7.84,0,0,1,2.54,6.3,8.12,8.12,0,0,1-1.78,5.36,8.48,8.48,0,0,1-5,2.84,6.2,6.2,0,0,1,3.72,3.16Zm-8.56-16.62a4.23,4.23,0,0,0,0-5.9,6.46,6.46,0,0,0-3.88-.92h-6v7.76h6A6.3,6.3,0,0,0,245.3,214.33Z" style="fill:#2677ff"/><path d="M257.38,231v-28.2h6.24V231Z" style="fill:#2677ff"/><path d="M289.82,202.75h6.32L283.46,231h-5l-12.72-28.2h6.48l8.8,20.44Z" style="fill:#2677ff"/><path d="M317,231l-2.68-6.24H301.18L298.5,231h-6.28l13-28.2h5l13,28.2Zm-13.76-11h9l-4.52-10.56Z" style="fill:#2677ff"/><path d="M328.38,231V207.83h-8.84v-5.08h23.92v5.08h-8.84V231Z" style="fill:#2677ff"/><path d="M346.7,231v-28.2h19.44v4.84H352.78v6.6h12.56V219H352.78v7.08h13.36V231Z" style="fill:#2677ff"/><path d="M385.22,230.45a14.47,14.47,0,0,1-4.92-2.38l2-4.44a15.61,15.61,0,0,0,9.16,2.84,7.83,7.83,0,0,0,4.06-.86,2.64,2.64,0,0,0,1.42-2.38,2.35,2.35,0,0,0-1.3-2.12,17.72,17.72,0,0,0-4.62-1.48,25.28,25.28,0,0,1-5.94-1.84,7.71,7.71,0,0,1-3.24-2.66,7,7,0,0,1-1-3.9,7.69,7.69,0,0,1,1.42-4.56,9.49,9.49,0,0,1,4-3.14,14.44,14.44,0,0,1,5.92-1.14,19.23,19.23,0,0,1,5.78.88,12,12,0,0,1,4.42,2.36l-2,4.44a13.64,13.64,0,0,0-8.16-2.84,6.86,6.86,0,0,0-3.84.94,3,3,0,0,0-1.4,2.58,2.31,2.31,0,0,0,.54,1.58,4.41,4.41,0,0,0,1.8,1.1,26.33,26.33,0,0,0,3.58,1c3.63.8,6.23,1.83,7.82,3.08a6.26,6.26,0,0,1,2.38,5.2A7.44,7.44,0,0,1,400,229c-2.05,1.54-4.92,2.3-8.6,2.3A21.73,21.73,0,0,1,385.22,230.45Z" style="fill:#2677ff"/><path d="M407.5,231v-28.2h19.44v4.84H413.58v6.6h12.56V219H413.58v7.08h13.36V231Z" style="fill:#2677ff"/><path d="M431.18,231v-28.2h19.44v4.84H437.26v6.6h12.56V219H437.26v7.08h13.36V231Z" style="fill:#2677ff"/><path d="M454.86,202.75h11a17.34,17.34,0,0,1,7.92,1.68,11.77,11.77,0,0,1,5.08,4.84,15.36,15.36,0,0,1,1.76,7.56,15.55,15.55,0,0,1-1.74,7.58,11.6,11.6,0,0,1-5.06,4.86,17.45,17.45,0,0,1-8,1.68h-11Zm10.52,23.16q9,0,9-9.08t-9-9H461.1v18.12Z" style="fill:#2677ff"/></g><g id="DO-NOT-SHARE-THIS-WI" style="isolation:isolate"><g style="isolation:isolate"><path d="M103.76,772.62h7.12a11.38,11.38,0,0,1,5.15,1.09,7.61,7.61,0,0,1,3.3,3.15,9.88,9.88,0,0,1,1.15,4.91,10.17,10.17,0,0,1-1.13,4.93,7.56,7.56,0,0,1-3.29,3.16,11.35,11.35,0,0,1-5.18,1.09h-7.12Zm6.84,15.06q5.85,0,5.85-5.91t-5.85-5.87h-2.78v11.78Z" style="fill:#2677ff"/><path d="M127.25,790a7.82,7.82,0,0,1-3.11-3.28,11.92,11.92,0,0,1,0-10,7.77,7.77,0,0,1,3.11-3.26,10.45,10.45,0,0,1,9.49,0,7.77,7.77,0,0,1,3.11,3.26,11.92,11.92,0,0,1,0,10,7.82,7.82,0,0,1-3.11,3.28,10.28,10.28,0,0,1-9.49,0Zm8.35-3.6a8.94,8.94,0,0,0,0-9.3,4.87,4.87,0,0,0-7.22,0,9,9,0,0,0,0,9.3A4.36,4.36,0,0,0,132,788,4.42,4.42,0,0,0,135.6,786.43Z" style="fill:#2677ff"/><path d="M163.35,772.62h3.8V791h-3L155,779.28V791h-3.76V772.62h3l9.12,11.62Z" style="fill:#2677ff"/><path d="M174.44,790a7.82,7.82,0,0,1-3.11-3.28,11.92,11.92,0,0,1,0-10,7.77,7.77,0,0,1,3.11-3.26,10.45,10.45,0,0,1,9.49,0,7.77,7.77,0,0,1,3.11,3.26,11.92,11.92,0,0,1,0,10,7.82,7.82,0,0,1-3.11,3.28,10.28,10.28,0,0,1-9.49,0Zm8.35-3.6a8.94,8.94,0,0,0,0-9.3,4.87,4.87,0,0,0-7.22,0,9,9,0,0,0,0,9.3,4.36,4.36,0,0,0,3.59,1.61A4.42,4.42,0,0,0,182.79,786.43Z" style="fill:#2677ff"/><path d="M194.4,791v-15h-5.75v-3.3H204.2v3.3h-5.75v15Z" style="fill:#2677ff"/><path d="M216,790.63a9.64,9.64,0,0,1-3.2-1.55l1.3-2.89A10.18,10.18,0,0,0,220,788a5.13,5.13,0,0,0,2.64-.56,1.73,1.73,0,0,0,.93-1.55,1.51,1.51,0,0,0-.85-1.37,11.42,11.42,0,0,0-3-1,16.59,16.59,0,0,1-3.86-1.19,5.11,5.11,0,0,1-2.11-1.73,4.61,4.61,0,0,1-.66-2.54,5,5,0,0,1,.92-3,6.13,6.13,0,0,1,2.59-2,9.28,9.28,0,0,1,3.85-.74,12.35,12.35,0,0,1,3.75.57,7.68,7.68,0,0,1,2.88,1.53l-1.3,2.89a8.85,8.85,0,0,0-5.31-1.85,4.39,4.39,0,0,0-2.49.62,1.89,1.89,0,0,0-.91,1.67,1.48,1.48,0,0,0,.35,1,2.76,2.76,0,0,0,1.17.71,16.41,16.41,0,0,0,2.33.65,12.86,12.86,0,0,1,5.08,2,4.06,4.06,0,0,1,1.54,3.38,4.82,4.82,0,0,1-2,4.09,9.15,9.15,0,0,1-5.59,1.5A14.37,14.37,0,0,1,216,790.63Z" style="fill:#2677ff"/><path d="M242.86,772.62h4V791h-4v-7.69h-8.45V791h-4V772.62h4V780h8.45Z" style="fill:#2677ff"/><path d="M264.44,791l-1.74-4.05h-8.53L252.43,791h-4.09l8.43-18.33H260L268.44,791Zm-8.95-7.12h5.88L258.43,777Z" style="fill:#2677ff"/><path d="M285.86,791h-4.42l-3.17-5.85a2.44,2.44,0,0,0-.94-1,2.81,2.81,0,0,0-1.37-.3h-2V791h-4V772.62h8.42a7.29,7.29,0,0,1,4.88,1.42,5.09,5.09,0,0,1,1.65,4.09,5.32,5.32,0,0,1-1.16,3.49,5.54,5.54,0,0,1-3.26,1.84,4.06,4.06,0,0,1,2.42,2.06Zm-5.56-10.8a2.75,2.75,0,0,0,0-3.84,4.25,4.25,0,0,0-2.52-.59H273.9v5h3.88A4.09,4.09,0,0,0,280.3,780.15Z" style="fill:#2677ff"/><path d="M288.15,791V772.62h12.64v3.15H292.1v4.29h8.17v3.14H292.1v4.61h8.69V791Z" style="fill:#2677ff"/><path d="M315,791v-15h-5.75v-3.3h15.55v3.3h-5.75v15Z" style="fill:#2677ff"/><path d="M339.34,772.62h4V791h-4v-7.69h-8.45V791h-4V772.62h4V780h8.45Z" style="fill:#2677ff"/><path d="M346.93,791V772.62H351V791Z" style="fill:#2677ff"/><path d="M357,790.63a9.49,9.49,0,0,1-3.19-1.55l1.29-2.89a10.21,10.21,0,0,0,6,1.85,5.18,5.18,0,0,0,2.64-.56,1.74,1.74,0,0,0,.92-1.55,1.52,1.52,0,0,0-.84-1.37,11.66,11.66,0,0,0-3-1,16.59,16.59,0,0,1-3.86-1.19,5.07,5.07,0,0,1-2.1-1.73,4.54,4.54,0,0,1-.67-2.54,5,5,0,0,1,.93-3,6,6,0,0,1,2.58-2,9.28,9.28,0,0,1,3.85-.74,12.46,12.46,0,0,1,3.76.57,7.71,7.71,0,0,1,2.87,1.53l-1.3,2.89a8.85,8.85,0,0,0-5.3-1.85,4.42,4.42,0,0,0-2.5.62,1.89,1.89,0,0,0-.91,1.67,1.53,1.53,0,0,0,.35,1,2.9,2.9,0,0,0,1.17.71,16.81,16.81,0,0,0,2.33.65,12.79,12.79,0,0,1,5.08,2,4.07,4.07,0,0,1,1.55,3.38,4.84,4.84,0,0,1-2,4.09,9.17,9.17,0,0,1-5.59,1.5A14.44,14.44,0,0,1,357,790.63Z" style="fill:#2677ff"/><path d="M401.59,772.62h3.84L398.91,791h-3.25l-4.24-12.14L387.13,791h-3.25l-6.5-18.33h4.11l4.18,12.66,4.45-12.66H393l4.29,12.79Z" style="fill:#2677ff"/><path d="M407.7,791V772.62h4.05V791Z" style="fill:#2677ff"/><path d="M419.6,791v-15h-5.74v-3.3h15.55v3.3h-5.75v15Z" style="fill:#2677ff"/><path d="M443.94,772.62h4V791h-4v-7.69h-8.45V791h-4V772.62h4V780h8.45Z" style="fill:#2677ff"/><path d="M472.75,791,471,786.9h-8.53L460.74,791h-4.09l8.43-18.33h3.25L476.75,791Zm-8.95-7.12h5.88L466.74,777Z" style="fill:#2677ff"/><path d="M490.37,772.62h3.8V791h-3L482,779.28V791h-3.77V772.62h3l9.12,11.62Z" style="fill:#2677ff"/><path d="M513.85,772.62l-7.59,10V791h-4.05v-8.29l-7.57-10h4.6l5,6.79,5-6.79Z" style="fill:#2677ff"/><path d="M516.93,790a7.74,7.74,0,0,1-3.1-3.28,11.82,11.82,0,0,1,0-10,7.69,7.69,0,0,1,3.1-3.26,10.45,10.45,0,0,1,9.49,0,7.71,7.71,0,0,1,3.11,3.26,11.92,11.92,0,0,1,0,10,7.76,7.76,0,0,1-3.11,3.28,10.28,10.28,0,0,1-9.49,0Zm8.35-3.6a8.94,8.94,0,0,0,0-9.3,4.86,4.86,0,0,0-7.21,0,9,9,0,0,0,0,9.3,4.37,4.37,0,0,0,3.59,1.61A4.42,4.42,0,0,0,525.28,786.43Z" style="fill:#2677ff"/><path d="M545.81,772.62h3.79V791h-3l-9.13-11.67V791h-3.77V772.62h3l9.13,11.62Z" style="fill:#2677ff"/><path d="M553.22,791V772.62h12.63v3.15h-8.68v4.29h8.16v3.14h-8.16v4.61h8.68V791Z" style="fill:#2677ff"/><path d="M576.2,785,575,772.6l4.83,0L578.57,785Zm-.91,1.77h4.21V791h-4.21Z" style="fill:#2677ff"/></g></g><rect x="3134.84" y="258.37" width="483.66" height="483.66" style="fill:#fff"/><path d="M3146.67,260.2a10,10,0,0,0-10,10v460a10,10,0,0,0,10,10h460a10,10,0,0,0,10-10v-460a10,10,0,0,0-10-10Zm0-10h460a20,20,0,0,1,20,20v460a20,20,0,0,1-20,20h-460a20,20,0,0,1-20-20v-460A20,20,0,0,1,3146.67,250.2Z" style="fill:url(#linear-gradient-2)"/><g id="PUBLIC-ADDRESS" style="isolation:isolate"><g style="isolation:isolate"><path d="M3204.25,197.25h13a10.3,10.3,0,0,1,7.16,2.32,9.48,9.48,0,0,1,0,13q-2.55,2.33-7.16,2.32h-6.72v10.6h-6.24Zm12.16,12.88c3.12,0,4.68-1.34,4.68-4a3.84,3.84,0,0,0-1.16-3.08,5.3,5.3,0,0,0-3.52-1h-5.92v8.12Z" style="fill:#2677ff"/><path d="M3233.87,222.75q-3.09-3.06-3.1-8.94V197.25h6.12v16.84a7.58,7.58,0,0,0,1.54,5.12,6.53,6.53,0,0,0,8.94,0,7.48,7.48,0,0,0,1.56-5.1V197.25h6.12v16.56q0,5.85-3.12,8.92t-9,3.08Q3237,225.81,3233.87,222.75Z" style="fill:#2677ff"/><path d="M3282.35,213.35a7,7,0,0,1,1.34,4.38,6.79,6.79,0,0,1-2.62,5.64,11.28,11.28,0,0,1-7.22,2.08h-13.4v-28.2h13a11.3,11.3,0,0,1,7,2,6.38,6.38,0,0,1,2.58,5.36,6.45,6.45,0,0,1-1.18,3.86,6.6,6.6,0,0,1-3.26,2.42A7.08,7.08,0,0,1,3282.35,213.35Zm-15.82-4.62h5.88a6.08,6.08,0,0,0,3.54-.82,2.87,2.87,0,0,0,1.14-2.5,3,3,0,0,0-1.14-2.58,6.16,6.16,0,0,0-3.54-.82h-5.88Zm10.2,11.12a3.16,3.16,0,0,0,1.12-2.72,3.29,3.29,0,0,0-1.12-2.76,5.87,5.87,0,0,0-3.6-.88h-6.6v7.2h6.6A6,6,0,0,0,3276.73,219.85Z" style="fill:#2677ff"/><path d="M3288,225.45v-28.2h6.24v23.12h12.6v5.08Z" style="fill:#2677ff"/><path d="M3310.45,225.45v-28.2h6.24v28.2Z" style="fill:#2677ff"/><path d="M3328,224a12.14,12.14,0,0,1-4.88-5.08,17.84,17.84,0,0,1,0-15.2,12.09,12.09,0,0,1,4.88-5.06,15.11,15.11,0,0,1,7.46-1.78,16.77,16.77,0,0,1,5.36.86,11.53,11.53,0,0,1,4.2,2.38l-2,4.44a13.46,13.46,0,0,0-3.66-2,11.45,11.45,0,0,0-3.78-.64,7.15,7.15,0,0,0-5.78,2.4c-1.34,1.6-2,4-2,7s.68,5.45,2,7.06a7.1,7.1,0,0,0,5.78,2.42,11.2,11.2,0,0,0,3.78-.64,12.94,12.94,0,0,0,3.66-2l2,4.44a11.25,11.25,0,0,1-4.2,2.38,16.49,16.49,0,0,1-5.36.86A14.9,14.9,0,0,1,3328,224Z" style="fill:#2677ff"/><path d="M3382,225.45l-2.68-6.24h-13.12l-2.68,6.24h-6.28l13-28.2h5l13,28.2Zm-13.76-11h9l-4.52-10.56Z" style="fill:#2677ff"/><path d="M3390.45,197.25h11a17.34,17.34,0,0,1,7.92,1.68,11.77,11.77,0,0,1,5.08,4.84,15.36,15.36,0,0,1,1.76,7.56,15.55,15.55,0,0,1-1.74,7.58,11.6,11.6,0,0,1-5.06,4.86,17.45,17.45,0,0,1-8,1.68h-11ZM3401,220.41q9,0,9-9.08t-9-9h-4.28v18.12Z" style="fill:#2677ff"/><path d="M3420.93,197.25h11a17.34,17.34,0,0,1,7.92,1.68,11.77,11.77,0,0,1,5.08,4.84,15.36,15.36,0,0,1,1.76,7.56,15.55,15.55,0,0,1-1.74,7.58,11.6,11.6,0,0,1-5.06,4.86,17.45,17.45,0,0,1-8,1.68h-11Zm10.52,23.16q9,0,9-9.08t-9-9h-4.28v18.12Z" style="fill:#2677ff"/><path d="M3475.89,225.45h-6.8l-4.88-9a3.87,3.87,0,0,0-1.44-1.5,4.46,4.46,0,0,0-2.12-.46h-3.08v11h-6.16v-28.2h13q5,0,7.5,2.18a7.88,7.88,0,0,1,2.54,6.3,8.12,8.12,0,0,1-1.78,5.36,8.51,8.51,0,0,1-5,2.84,6.2,6.2,0,0,1,3.72,3.16Zm-8.56-16.62a4.23,4.23,0,0,0,0-5.9,6.46,6.46,0,0,0-3.88-.92h-6v7.76h6A6.3,6.3,0,0,0,3467.33,208.83Z" style="fill:#2677ff"/><path d="M3479.41,225.45v-28.2h19.44v4.84h-13.36v6.6h12.56v4.84h-12.56v7.08h13.36v4.84Z" style="fill:#2677ff"/><path d="M3506.41,225a14.47,14.47,0,0,1-4.92-2.38l2-4.44a15.61,15.61,0,0,0,9.16,2.84,7.83,7.83,0,0,0,4.06-.86,2.64,2.64,0,0,0,1.42-2.38,2.35,2.35,0,0,0-1.3-2.12,17.72,17.72,0,0,0-4.62-1.48,25.28,25.28,0,0,1-5.94-1.84,7.71,7.71,0,0,1-3.24-2.66,7,7,0,0,1-1-3.9,7.69,7.69,0,0,1,1.42-4.56,9.49,9.49,0,0,1,4-3.14,14.44,14.44,0,0,1,5.92-1.14,19.23,19.23,0,0,1,5.78.88,12,12,0,0,1,4.42,2.36l-2,4.44a13.64,13.64,0,0,0-8.16-2.84,6.86,6.86,0,0,0-3.84.94,3,3,0,0,0-1.4,2.58,2.31,2.31,0,0,0,.54,1.58,4.41,4.41,0,0,0,1.8,1.1,26.33,26.33,0,0,0,3.58,1c3.63.8,6.23,1.83,7.82,3.08a6.26,6.26,0,0,1,2.38,5.2,7.44,7.44,0,0,1-3.08,6.3c-2.05,1.54-4.92,2.3-8.6,2.3A21.73,21.73,0,0,1,3506.41,225Z" style="fill:#2677ff"/><path d="M3532.41,225a14.38,14.38,0,0,1-4.92-2.38l2-4.44a15.61,15.61,0,0,0,9.16,2.84,7.83,7.83,0,0,0,4.06-.86,2.64,2.64,0,0,0,1.42-2.38,2.35,2.35,0,0,0-1.3-2.12,17.72,17.72,0,0,0-4.62-1.48,25.28,25.28,0,0,1-5.94-1.84,7.71,7.71,0,0,1-3.24-2.66,7,7,0,0,1-1-3.9,7.69,7.69,0,0,1,1.42-4.56,9.43,9.43,0,0,1,4-3.14,14.44,14.44,0,0,1,5.92-1.14,19.28,19.28,0,0,1,5.78.88,12.07,12.07,0,0,1,4.42,2.36l-2,4.44a13.64,13.64,0,0,0-8.16-2.84,6.86,6.86,0,0,0-3.84.94,2.94,2.94,0,0,0-1.4,2.58,2.31,2.31,0,0,0,.54,1.58,4.41,4.41,0,0,0,1.8,1.1,26.33,26.33,0,0,0,3.58,1q5.43,1.2,7.82,3.08a6.26,6.26,0,0,1,2.38,5.2,7.44,7.44,0,0,1-3.08,6.3c-2.05,1.54-4.92,2.3-8.6,2.3A21.68,21.68,0,0,1,3532.41,225Z" style="fill:#2677ff"/></g></g><path id="nanopaperwallet.com" d="M3146,910.15c2.93,0,5.12.83,6.55,2.5s2.15,4.18,2.15,7.55v15h-6.25V920.55a6.47,6.47,0,0,0-1.08-4.15,4.11,4.11,0,0,0-3.37-1.3,5.74,5.74,0,0,0-4.33,1.7,6.32,6.32,0,0,0-1.62,4.55V935.2h-6.25V910.75h6.1v3.65a8.39,8.39,0,0,1,3.35-3.15A10.11,10.11,0,0,1,3146,910.15Zm25.46,0q5.14,0,7.65,2.5c1.67,1.67,2.5,4.23,2.5,7.7V935.2h-6v-3.75a6.55,6.55,0,0,1-2.67,3,8.08,8.08,0,0,1-4.23,1.1,9.77,9.77,0,0,1-4.45-1,8,8,0,0,1-3.15-2.75,6.94,6.94,0,0,1-1.15-3.9,6.16,6.16,0,0,1,1.38-4.25,8.25,8.25,0,0,1,4.47-2.25,40.57,40.57,0,0,1,8.55-.7h1.25V919.6a5,5,0,0,0-1.07-3.6,4.88,4.88,0,0,0-3.58-1.1,13.4,13.4,0,0,0-4.07.68,20.62,20.62,0,0,0-4.18,1.87l-1.75-4.3a21.43,21.43,0,0,1,10.45-3Zm-1.45,21a5.37,5.37,0,0,0,4.08-1.67,6.07,6.07,0,0,0,1.57-4.33v-1.05h-.9a34.49,34.49,0,0,0-5.2.3,5,5,0,0,0-2.65,1,2.68,2.68,0,0,0-.8,2.05,3.46,3.46,0,0,0,1.1,2.63A4,4,0,0,0,3170.05,931.1Zm32.06-21q4.41,0,6.55,2.5c1.44,1.67,2.15,4.18,2.15,7.55v15h-6.25V920.55a6.53,6.53,0,0,0-1.07-4.15,4.13,4.13,0,0,0-3.38-1.3,5.7,5.7,0,0,0-4.32,1.7,6.28,6.28,0,0,0-1.63,4.55V935.2h-6.25V910.75h6.1v3.65a8.45,8.45,0,0,1,3.35-3.15A10.14,10.14,0,0,1,3202.11,910.15Zm26.12,25.45a13.5,13.5,0,0,1-6.58-1.55,10.71,10.71,0,0,1-4.37-4.45,14,14,0,0,1-1.55-6.75,13.84,13.84,0,0,1,1.55-6.72,10.72,10.72,0,0,1,4.37-4.43,14.72,14.72,0,0,1,13.15,0,10.62,10.62,0,0,1,4.35,4.43,14.06,14.06,0,0,1,1.53,6.72,14.24,14.24,0,0,1-1.53,6.75,10.61,10.61,0,0,1-4.35,4.45A13.46,13.46,0,0,1,3228.23,935.6Zm-.05-4.85a5.59,5.59,0,0,0,4.64-2,11.56,11.56,0,0,0,0-11.77,5.49,5.49,0,0,0-4.59-2,5.6,5.6,0,0,0-4.63,2,9.2,9.2,0,0,0-1.62,5.87,9.33,9.33,0,0,0,1.59,5.9A5.58,5.58,0,0,0,3228.18,930.75Zm31.61-20.6a10.09,10.09,0,0,1,5.62,1.6,10.6,10.6,0,0,1,3.85,4.53,15.58,15.58,0,0,1,1.38,6.72,15.11,15.11,0,0,1-1.38,6.65,10.08,10.08,0,0,1-9.47,6,9.68,9.68,0,0,1-4.65-1.1,7.66,7.66,0,0,1-3.15-3V944.2h-6.25V910.75h6.15v3.7a7.63,7.63,0,0,1,3.17-3.17A9.78,9.78,0,0,1,3259.79,910.15Zm-1.65,20.6a5.61,5.61,0,0,0,4.6-2,8.85,8.85,0,0,0,1.65-5.73,9.35,9.35,0,0,0-1.65-5.9,6.17,6.17,0,0,0-9.23-.05,9.26,9.26,0,0,0-1.62,5.85,9.16,9.16,0,0,0,1.62,5.8A5.57,5.57,0,0,0,3258.14,930.75Zm28.06-20.6q5.15,0,7.65,2.5c1.67,1.67,2.5,4.23,2.5,7.7V935.2h-5.95v-3.75a6.52,6.52,0,0,1-2.68,3,8,8,0,0,1-4.22,1.1,9.77,9.77,0,0,1-4.45-1,8,8,0,0,1-3.15-2.75,6.94,6.94,0,0,1-1.15-3.9,6.2,6.2,0,0,1,1.37-4.25,8.33,8.33,0,0,1,4.48-2.25,40.57,40.57,0,0,1,8.55-.7h1.25V919.6a5,5,0,0,0-1.08-3.6,4.84,4.84,0,0,0-3.57-1.1,13.51,13.51,0,0,0-4.08.68,20.79,20.79,0,0,0-4.17,1.87l-1.75-4.3a21.43,21.43,0,0,1,10.45-3Zm-1.45,21a5.34,5.34,0,0,0,4.07-1.67,6.07,6.07,0,0,0,1.58-4.33v-1.05h-.9a34.49,34.49,0,0,0-5.2.3,5,5,0,0,0-2.65,1,2.68,2.68,0,0,0-.8,2.05,3.46,3.46,0,0,0,1.1,2.63A4,4,0,0,0,3284.75,931.1Zm31.91-21a10.12,10.12,0,0,1,5.63,1.6,10.67,10.67,0,0,1,3.85,4.53,15.72,15.72,0,0,1,1.37,6.72,15.25,15.25,0,0,1-1.37,6.65,10.11,10.11,0,0,1-9.48,6,9.74,9.74,0,0,1-4.65-1.1,7.66,7.66,0,0,1-3.15-3V944.2h-6.25V910.75h6.15v3.7a7.59,7.59,0,0,1,3.18-3.17A9.72,9.72,0,0,1,3316.66,910.15Zm-1.65,20.6a5.6,5.6,0,0,0,4.6-2,8.85,8.85,0,0,0,1.65-5.73,9.35,9.35,0,0,0-1.65-5.9,6.16,6.16,0,0,0-9.22-.05,9.2,9.2,0,0,0-1.63,5.85,9.1,9.1,0,0,0,1.63,5.8A5.54,5.54,0,0,0,3315,930.75Zm39-6.65h-16.65a7.63,7.63,0,0,0,2.05,5,7,7,0,0,0,5,1.65,11.8,11.8,0,0,0,7.4-2.6l1.8,4.3a13.26,13.26,0,0,1-4.27,2.25,16.34,16.34,0,0,1-5.18.85q-6,0-9.47-3.4t-3.48-9.3a14.26,14.26,0,0,1,1.5-6.65,10.94,10.94,0,0,1,4.23-4.5,11.9,11.9,0,0,1,6.17-1.6,10.18,10.18,0,0,1,8,3.25q2.93,3.26,2.92,9Zm-10.75-9.55a5.28,5.28,0,0,0-4,1.6,7.81,7.81,0,0,0-1.88,4.6h11.3a7,7,0,0,0-1.5-4.62A4.94,4.94,0,0,0,3343.27,914.55Zm31.86.8-3.65.35q-6.2.64-6.2,6.3v13.2H3359V910.75H3365v4.3q1.91-4.39,7.85-4.8l1.9-.15Zm37.47-4.6h6.1l-9.6,24.45h-5.45l-6-15.75-5.85,15.75h-5.4l-9.65-24.45h6.4l6.25,17,6.25-17h4.5l6.25,17.1Zm19.86-.6q5.14,0,7.65,2.5c1.66,1.67,2.5,4.23,2.5,7.7V935.2h-6v-3.75a6.52,6.52,0,0,1-2.68,3,8,8,0,0,1-4.22,1.1,9.74,9.74,0,0,1-4.45-1,7.83,7.83,0,0,1-3.15-2.75A6.94,6.94,0,0,1,3421,928a6.2,6.2,0,0,1,1.37-4.25,8.33,8.33,0,0,1,4.48-2.25,40.44,40.44,0,0,1,8.55-.7h1.25V919.6a5,5,0,0,0-1.08-3.6,4.86,4.86,0,0,0-3.57-1.1,13.51,13.51,0,0,0-4.08.68,20.55,20.55,0,0,0-4.17,1.87l-1.75-4.3a21.43,21.43,0,0,1,10.45-3Zm-1.45,21a5.36,5.36,0,0,0,4.07-1.67,6.07,6.07,0,0,0,1.58-4.33v-1.05h-.9a34.4,34.4,0,0,0-5.2.3,5,5,0,0,0-2.65,1,2.65,2.65,0,0,0-.8,2.05,3.42,3.42,0,0,0,1.1,2.63A3.94,3.94,0,0,0,3431,931.1Zm17.86,4.1V900h6.25V935.2Zm12.61,0V900h6.25V935.2Zm34.06-11.1h-16.65a7.63,7.63,0,0,0,2.05,5,7,7,0,0,0,5,1.65,11.8,11.8,0,0,0,7.4-2.6l1.8,4.3a13.26,13.26,0,0,1-4.27,2.25,16.34,16.34,0,0,1-5.18.85q-6,0-9.47-3.4t-3.48-9.3a14.26,14.26,0,0,1,1.5-6.65,10.94,10.94,0,0,1,4.23-4.5,11.9,11.9,0,0,1,6.17-1.6,10.18,10.18,0,0,1,8,3.25q2.93,3.26,2.92,9Zm-10.75-9.55a5.28,5.28,0,0,0-4,1.6,7.81,7.81,0,0,0-1.88,4.6h11.3a7,7,0,0,0-1.5-4.62A4.94,4.94,0,0,0,3484.79,914.55Zm27.91,16.35a18.48,18.48,0,0,0,2.3-.15l-.3,4.65c-1,.1-1.91.15-2.75.15q-5.14,0-7.6-2.37t-2.45-7.08V915.45h-4.7v-4.7h4.7v-7.3h6.25v7.3h6.45v4.7h-6.45V926Q3508.15,930.91,3512.7,930.9Zm6.32-2.6h7v6.9h-7Zm23.36,7.3a13.74,13.74,0,0,1-6.68-1.55,10.47,10.47,0,0,1-4.32-4.4,15.33,15.33,0,0,1,.07-13.37,11,11,0,0,1,4.48-4.53,13.58,13.58,0,0,1,6.7-1.6,15.94,15.94,0,0,1,5.07.83,10.76,10.76,0,0,1,4,2.22l-1.8,4.4a12,12,0,0,0-3.28-1.9,9.72,9.72,0,0,0-3.42-.65,6.4,6.4,0,0,0-5,2,10.24,10.24,0,0,0,0,11.6,6.4,6.4,0,0,0,5,2,9.72,9.72,0,0,0,3.42-.65,12,12,0,0,0,3.28-1.9l1.8,4.35a11.32,11.32,0,0,1-4.1,2.28A16.5,16.5,0,0,1,3542.38,935.6Zm24.31,0a13.53,13.53,0,0,1-6.58-1.55,10.71,10.71,0,0,1-4.37-4.45,14.13,14.13,0,0,1-1.55-6.75,14,14,0,0,1,1.55-6.72,10.72,10.72,0,0,1,4.37-4.43,14.72,14.72,0,0,1,13.15,0,10.5,10.5,0,0,1,4.35,4.43,14.06,14.06,0,0,1,1.53,6.72,14.24,14.24,0,0,1-1.53,6.75,10.49,10.49,0,0,1-4.35,4.45A13.46,13.46,0,0,1,3566.69,935.6Zm-.05-4.85a5.62,5.62,0,0,0,4.65-2q1.61-2,1.6-5.9a9.27,9.27,0,0,0-1.6-5.87,5.52,5.52,0,0,0-4.6-2,5.61,5.61,0,0,0-4.63,2,9.2,9.2,0,0,0-1.62,5.87q0,3.9,1.6,5.9A5.56,5.56,0,0,0,3566.64,930.75Zm46.61-20.6c2.77,0,4.83.83,6.2,2.48s2.05,4.17,2.05,7.57v15h-6.25V920.45a6.89,6.89,0,0,0-.95-4.07,3.55,3.55,0,0,0-3.05-1.28,4.77,4.77,0,0,0-3.9,1.7,7.29,7.29,0,0,0-1.4,4.75V935.2h-6.25V920.45a7.07,7.07,0,0,0-.92-4.07,3.56,3.56,0,0,0-3.08-1.28,4.73,4.73,0,0,0-3.85,1.7,7.29,7.29,0,0,0-1.4,4.75V935.2h-6.25V910.75h6.1v3.45a7.28,7.28,0,0,1,3-3,9.33,9.33,0,0,1,4.45-1q5.55,0,7.35,4.6a8.36,8.36,0,0,1,3.3-3.37A9.48,9.48,0,0,1,3613.25,910.15Z" style="fill:url(#linear-gradient-3)"/><path d="M2942,60.18h12.08c3.2,0,5.69.77,7.47,2.33a8.37,8.37,0,0,1,2.66,6.63,8.46,8.46,0,0,1-2.69,6.67,10.86,10.86,0,0,1-7.44,2.38h-8.53V90.7H2942Zm11.73,15.06q7,0,7-6.1t-7-6h-8.18V75.24Zm39.53,15.46-3.38-7.84H2974l-3.38,7.84H2967l13.42-30.52h3.07l13.42,30.52Zm-18.05-10.78h13.42l-6.71-15.63Zm26.19-19.74h12.08c3.2,0,5.69.77,7.47,2.33a8.37,8.37,0,0,1,2.66,6.63,8.45,8.45,0,0,1-2.68,6.67,10.89,10.89,0,0,1-7.45,2.38H3005V90.7h-3.55Zm11.73,15.06q7,0,7-6.1t-7-6H3005V75.24Zm16.2,15.46V60.18h19.31v2.94h-15.81V73.73h14.94v2.94h-14.94V87.76h15.81V90.7Zm49.22,0h-3.89l-5.2-9.79a5.64,5.64,0,0,0-2.23-2.44,7.5,7.5,0,0,0-3.48-.67H3058V90.7h-3.51V60.18h12.56q5,0,7.6,2.2a8.05,8.05,0,0,1,2.62,6.5,8.09,8.09,0,0,1-2,5.73,9.36,9.36,0,0,1-5.73,2.75,5.06,5.06,0,0,1,2.05,1.17,8.18,8.18,0,0,1,1.63,2.21Zm-11.77-15.85a8.11,8.11,0,0,0,5.3-1.47,5.49,5.49,0,0,0,1.75-4.46,5.32,5.32,0,0,0-1.73-4.37c-1.15-.95-2.93-1.43-5.32-1.43H3058V74.85ZM2971,100.3h4.94l-8.37,23.53h-4.17l-5.44-15.58-5.51,15.58h-4.17l-8.34-23.53h5.27l5.37,16.26,5.71-16.26h3.64l5.5,16.42Zm25.83,23.53-2.23-5.21h-10.95l-2.23,5.21h-5.24L2987,100.3h4.17l10.81,23.53Zm-11.48-9.14h7.55l-3.77-8.81Zm18.59,9.14V100.3h5.21v19.29h10.51v4.24Zm18.79,0V100.3h5.21v19.29h10.51v4.24Zm18.79,0V100.3h16.22v4h-11.15v5.51H3057v4h-10.48v5.9h11.15v4Zm25.23,0V104.54h-7.38V100.3h20v4.24h-7.38v19.29Z" style="fill:#36363c"/><path d="M2847,90.45a11.62,11.62,0,0,1-23.23,0c0-8.62-2.9-11.49-11.61-11.49s-11.62,2.87-11.62,11.49A11.62,11.62,0,1,1,2789,79c8.71,0,11.61-2.87,11.61-11.49a11.62,11.62,0,0,1,23.23,0c0,8.62,2.9,11.49,11.62,11.49A11.52,11.52,0,0,1,2847,90.45Zm-81.37,34.49a11.49,11.49,0,1,1,11.61-11.48A11.55,11.55,0,0,1,2765.66,124.94Zm151.17-57.5a11.55,11.55,0,0,1-11.62,11.49c-8.71,0-11.61,2.87-11.61,11.48A11.55,11.55,0,0,1,2882,101.9c-8.71,0-11.61,2.87-11.61,11.49a11.62,11.62,0,1,1-11.62-11.49c8.71,0,11.62-2.87,11.62-11.49A11.54,11.54,0,0,1,2882,78.93c8.71,0,11.62-2.88,11.62-11.49a11.62,11.62,0,0,1,23.23,0Z" style="fill:url(#linear-gradient-4)"/><path d="M3692.17,8.09V992.17h-2084v-150H8.09V158.1h1600V8.09h2084m8-8h-2100v150H.09V850.16h1600v150h2100V.09Z" style="fill:#4a90e2"/></svg>