<svg xmlns="http://www.w3.org/2000/svg" xmlns:xlink="http://www.w3.org/1999/xlink" viewBox="0 0 3700 1000"><defs><linearGradient id="A" x1="-.04" y1="500" x2="3700.04" y2="500" gradientUnits="userSpaceOnUse"><stop offset=".3" stop-color="#44ea96"/><stop offset="1" stop-color="#02b799"/></linearGradient><linearGradient id="B" x1="590.11" y1="249.53" x2="90.11" y2="749.53" gradientUnits="userSpaceOnUse"><stop offset="0" stop-color="#02b799"/><stop offset="1" stop-color="#44ea96"/></linearGradient><linearGradient id="C" x1="3628.11" y1="250.78" x2="3128.11" y2="750.78" xlink:href="#B"/><linearGradient id="D" x1="3943.846" y1="921.763" x2="2895.974" y2="922.647" xlink:href="#B"/><linearGradient id="E" x1="2914.683" y1="54.126" x2="2751.893" y2="123.268" xlink:href="#B"/><path id="F" d="M127.2 790.08a7.88 7.88 0 0 1-3.11-3.28 11.92 11.92 0 0 1 0-10 7.77 7.77 0 0 1 3.11-3.26 10.45 10.45 0 0 1 9.49 0 7.77 7.77 0 0 1 3.11 3.26 11.92 11.92 0 0 1 0 10 7.88 7.88 0 0 1-3.11 3.28 10.36 10.36 0 0 1-9.49 0zm8.35-3.6a7.27 7.27 0 0 0 1.31-4.66 7.19 7.19 0 0 0-1.3-4.64 4.87 4.87 0 0 0-7.22 0 9 9 0 0 0 0 9.3 4.36 4.36 0 0 0 3.59 1.61 4.42 4.42 0 0 0 3.62-1.61z"/><path id="G" d="M242.82 772.67h4V791h-4v-7.7h-8.45v7.7h-4v-18.33h4v7.4h8.45z"/><path id="H" d="M3390.41,197.3h11a17.34,17.34,0,0,1,7.92,1.68,11.71,11.71,0,0,1,5.08,4.84,15.36,15.36,0,0,1,1.76,7.56,15.58,15.58,0,0,1-1.74,7.58,11.6,11.6,0,0,1-5.06,4.86,17.45,17.45,0,0,1-8,1.68h-11Zm10.52,23.16q9,0,9-9.08t-9-9h-4.28v18.12Z"/></defs><path d="M1600,0V150H0V850H1600v150H3700V0ZM20,830V170H780.77L1088.5,830ZM3680,980H3102L2654,20H3680Z" fill="url(#A)"/><path d="M111 259a10 10 0 0 0-10 10v460a10 10 0 0 0 10 10h460a10 10 0 0 0 10-10V269a10 10 0 0 0-10-10zm0-10h460a20 20 0 0 1 20 20v460a20 20 0 0 1-20 20H111a20 20 0 0 1-20-20V269a20 20 0 0 1 20-20z" fill="url(#B)"/><g fill="#02b799"><path d="M202.66 202.8h13q4.6 0 7.16 2.32a9.48 9.48 0 0 1 0 13q-2.55 2.32-7.16 2.32h-6.76V231h-6.24zm12.16 12.88q4.68 0 4.68-4a3.83 3.83 0 0 0-1.16-3.08 5.25 5.25 0 0 0-3.52-1h-5.92v8.12zm39 15.32H247l-4.88-9a3.87 3.87 0 0 0-1.44-1.5 4.32 4.32 0 0 0-2.12-.46h-3.06v11h-6.16V202.8h13q5 0 7.5 2.18a7.82 7.82 0 0 1 2.54 6.3 8.14 8.14 0 0 1-1.78 5.36 8.48 8.48 0 0 1-5 2.84 6.17 6.17 0 0 1 3.72 3.16zm-8.56-16.62a4.23 4.23 0 0 0 0-5.9 6.46 6.46 0 0 0-3.88-.92h-6v7.76h6a6.3 6.3 0 0 0 3.88-.94zM257.34 231v-28.2h6.24V231zm32.44-28.2h6.32L283.42 231h-5l-12.72-28.2h6.48l8.8 20.44zm27.16 28.2l-2.68-6.24h-13.12l-2.68 6.24h-6.28l13-28.2h5l13 28.2zm-13.76-11h9l-4.52-10.56zm25.16 11v-23.12h-8.84v-5.08h23.92v5.08h-8.84V231zm18.32 0v-28.2h19.44v4.84h-13.36v6.6h12.56v4.84h-12.56v7.08h13.36V231zm38.52-.5a14.65 14.65 0 0 1-4.92-2.38l2-4.44a15.68 15.68 0 0 0 9.16 2.84 7.94 7.94 0 0 0 4.06-.86 2.65 2.65 0 0 0 1.42-2.38 2.34 2.34 0 0 0-1.3-2.12 17.34 17.34 0 0 0-4.62-1.48 25.76 25.76 0 0 1-5.94-1.84 7.78 7.78 0 0 1-3.24-2.66 7 7 0 0 1-1-3.9 7.64 7.64 0 0 1 1.42-4.56 9.49 9.49 0 0 1 4-3.14 14.44 14.44 0 0 1 5.92-1.14 18.92 18.92 0 0 1 5.78.88 11.85 11.85 0 0 1 4.42 2.36l-2 4.44a13.64 13.64 0 0 0-8.16-2.84 6.77 6.77 0 0 0-3.84.94 3 3 0 0 0-1.4 2.58 2.31 2.31 0 0 0 .54 1.58 4.52 4.52 0 0 0 1.8 1.1 27.89 27.89 0 0 0 3.58 1c3.63.8 6.23 1.83 7.82 3.08a6.25 6.25 0 0 1 2.38 5.2 7.44 7.44 0 0 1-3.08 6.3q-3.07 2.3-8.6 2.3a22.09 22.09 0 0 1-6.2-.86zm22.28.5v-28.2h19.44v4.84h-13.36v6.6h12.56v4.84h-12.56v7.08h13.36V231zm23.68 0v-28.2h19.44v4.84h-13.36v6.6h12.56v4.84h-12.56v7.08h13.36V231zm23.68-28.2h11a17.34 17.34 0 0 1 7.92 1.68 11.71 11.71 0 0 1 5.08 4.84 15.36 15.36 0 0 1 1.76 7.56 15.58 15.58 0 0 1-1.74 7.58 11.6 11.6 0 0 1-5.06 4.86 17.45 17.45 0 0 1-8 1.68h-11zm10.52 23.2q9 0 9-9.08 0-9.08-9-9h-4.28V226zM103.72 772.67h7.12a11.25 11.25 0 0 1 5.15 1.09 7.61 7.61 0 0 1 3.3 3.15 9.88 9.88 0 0 1 1.15 4.91 10.17 10.17 0 0 1-1.13 4.93 7.56 7.56 0 0 1-3.29 3.16 11.35 11.35 0 0 1-5.18 1.09h-7.12zm6.84 15.05c3.9 0 5.85-2 5.85-5.9s-2-5.87-5.85-5.87h-2.78v11.77z"/><use xlink:href="#F"/><path d="M163.3 772.67h3.8V791h-3l-9.1-11.67V791h-3.8v-18.33h3l9.12 11.62z"/><use xlink:href="#F" x="47.2"/><path d="M194.36 791v-15h-5.75v-3.3h15.55v3.3h-5.75v15zm21.54-.32a9.64 9.64 0 0 1-3.2-1.55l1.3-2.9a10.18 10.18 0 0 0 6 1.85 5.13 5.13 0 0 0 2.64-.56 1.73 1.73 0 0 0 .93-1.55 1.52 1.52 0 0 0-.85-1.38 11.49 11.49 0 0 0-3-1 17.08 17.08 0 0 1-3.86-1.19 5.11 5.11 0 0 1-2.11-1.73 4.61 4.61 0 0 1-.66-2.54 5 5 0 0 1 .92-3 6.13 6.13 0 0 1 2.59-2 9.28 9.28 0 0 1 3.85-.74 12.35 12.35 0 0 1 3.75.57 7.68 7.68 0 0 1 2.88 1.53l-1.3 2.9a8.85 8.85 0 0 0-5.31-1.85 4.47 4.47 0 0 0-2.49.61 1.92 1.92 0 0 0-.91 1.68 1.48 1.48 0 0 0 .35 1 2.86 2.86 0 0 0 1.17.71 16.41 16.41 0 0 0 2.33.65 13 13 0 0 1 5.08 2 4.08 4.08 0 0 1 1.54 3.38 4.82 4.82 0 0 1-2 4.1 9.15 9.15 0 0 1-5.59 1.49 14.36 14.36 0 0 1-4.05-.48z"/><use xlink:href="#G"/><path d="M264.4 791l-1.74-4.06h-8.53L252.4 791h-4.1l8.43-18.33H260l8.4 18.33zm-8.95-7.12h5.88L258.4 777zm30.37 7.12h-4.42l-3.17-5.85a2.38 2.38 0 0 0-.94-1 2.81 2.81 0 0 0-1.37-.3h-2V791h-4v-18.33h8.42a7.29 7.29 0 0 1 4.88 1.42 5.09 5.09 0 0 1 1.65 4.09 5.32 5.32 0 0 1-1.16 3.49 5.54 5.54 0 0 1-3.26 1.84 4.06 4.06 0 0 1 2.42 2.06zm-5.56-10.8a2.75 2.75 0 0 0 0-3.84 4.17 4.17 0 0 0-2.52-.6h-3.88v5h3.88a4.16 4.16 0 0 0 2.52-.56zm7.84 10.8v-18.33h12.64v3.15h-8.7v4.3h8.17v3.14h-8.17v4.6h8.7V791zm26.9 0v-15h-5.75v-3.3h15.55v3.3H319v15z"/><use xlink:href="#G" x="96.48"/><path d="M346.9 791v-18.33h4.1V791zm10.1-.32a9.49 9.49 0 0 1-3.19-1.55l1.3-2.9a10.21 10.21 0 0 0 6 1.85 5.18 5.18 0 0 0 2.64-.56 1.74 1.74 0 0 0 .92-1.55 1.53 1.53 0 0 0-.84-1.38 11.74 11.74 0 0 0-3-1 17.08 17.08 0 0 1-3.86-1.19 5.07 5.07 0 0 1-2.1-1.73 4.54 4.54 0 0 1-.67-2.54 5 5 0 0 1 .93-3 6 6 0 0 1 2.58-2 9.28 9.28 0 0 1 3.85-.74 12.46 12.46 0 0 1 3.76.57 7.71 7.71 0 0 1 2.87 1.53l-1.3 2.9a8.85 8.85 0 0 0-5.3-1.85 4.51 4.51 0 0 0-2.5.61 1.92 1.92 0 0 0-.91 1.68 1.53 1.53 0 0 0 .35 1 3 3 0 0 0 1.17.71 16.81 16.81 0 0 0 2.33.65 13 13 0 0 1 5.08 2 4.09 4.09 0 0 1 1.55 3.38 4.85 4.85 0 0 1-2 4.1 9.17 9.17 0 0 1-5.59 1.49 14.43 14.43 0 0 1-4.06-.48zm44.55-18h3.84L398.87 791h-3.25l-4.24-12.14-4.3 12.14h-3.25l-6.5-18.33h4.1l4.18 12.66 4.45-12.66h2.83l4.3 12.8zm6.1 18.33v-18.33h4V791zm11.9 0v-15h-5.74v-3.3h15.55v3.3h-5.75v15z"/><use xlink:href="#G" x="201.08"/><path d="M472.7 791l-1.7-4.06h-8.53L460.7 791h-4.1l8.4-18.33h3.25L476.7 791zm-8.95-7.12h5.88L466.7 777zm26.58-11.2h3.8V791h-3L482 779.33V791h-3.77v-18.33h3l9.12 11.62zm23.47 0l-7.6 10V791h-4.05v-8.3l-7.57-10h4.6l5 6.8 5-6.8zm3.1 17.4a7.79 7.79 0 0 1-3.1-3.28 11.82 11.82 0 0 1 0-10 7.69 7.69 0 0 1 3.1-3.26 10.45 10.45 0 0 1 9.49 0 7.71 7.71 0 0 1 3.11 3.26 11.92 11.92 0 0 1 0 10 7.82 7.82 0 0 1-3.11 3.28 10.36 10.36 0 0 1-9.49 0zm8.35-3.6a7.27 7.27 0 0 0 1.31-4.66 7.19 7.19 0 0 0-1.3-4.64 4.86 4.86 0 0 0-7.21 0 9 9 0 0 0 0 9.3 4.37 4.37 0 0 0 3.59 1.61 4.42 4.42 0 0 0 3.61-1.61zm20.52-13.8h3.8V791h-3l-9.13-11.67V791h-3.77v-18.33h3l9.13 11.62zm7.4 18.33v-18.33h12.63v3.15h-8.68v4.3h8.16v3.14h-8.16v4.6h8.68V791zm22.98-5.93l-1.22-12.43h4.83l-1.24 12.4zm-.9 1.77h4.2V791h-4.2z"/></g><path d="M3146.63 260.25a10 10 0 0 0-10 10v460a10 10 0 0 0 10 10h460a10 10 0 0 0 10-10v-460a10 10 0 0 0-10-10zm0-10h460a20 20 0 0 1 20 20v460a20 20 0 0 1-20 20h-460a20 20 0 0 1-20-20v-460a20 20 0 0 1 20-20z" fill="url(#C)"/><g fill="#02b799"><path d="M3204.2 197.3h13q4.6 0 7.16 2.32a9.48 9.48 0 0 1 0 13q-2.55 2.32-7.16 2.32h-6.72v10.6h-6.24zm12.16 12.88q4.68 0 4.68-4a3.83 3.83 0 0 0-1.16-3.08 5.25 5.25 0 0 0-3.52-1h-5.92v8.12zm17.47 12.62q-3.1-3.06-3.1-8.94V197.3h6.12v16.84a7.58 7.58 0 0 0 1.54 5.12 6.53 6.53 0 0 0 8.94 0 7.51 7.51 0 0 0 1.56-5.1V197.3h6.1v16.56q0 5.83-3.12 8.92-3.12 3.1-9 3.08-5.94 0-9.05-3.06zm48.47-9.4a7 7 0 0 1 1.34 4.38 6.82 6.82 0 0 1-2.62 5.64 11.28 11.28 0 0 1-7.22 2.08h-13.4v-28.2h13a11.24 11.24 0 0 1 7 2 6.37 6.37 0 0 1 2.58 5.36 6.47 6.47 0 0 1-1.18 3.86 6.65 6.65 0 0 1-3.26 2.42 7 7 0 0 1 3.76 2.46zm-15.82-4.62h5.88a6.08 6.08 0 0 0 3.54-.82 2.88 2.88 0 0 0 1.14-2.5 3 3 0 0 0-1.14-2.58 6.08 6.08 0 0 0-3.54-.82h-5.88zm10.2 11.12a3.17 3.17 0 0 0 1.12-2.72 3.29 3.29 0 0 0-1.12-2.76 5.8 5.8 0 0 0-3.6-.88h-6.6v7.2h6.6a6 6 0 0 0 3.6-.84zm11.25 5.6v-28.2h6.24v23.12h12.6v5.08zm22.47 0v-28.2h6.24v28.2zm17.6-1.44a12.14 12.14 0 0 1-4.88-5.08 17.84 17.84 0 0 1 0-15.2 12 12 0 0 1 4.88-5.06 15 15 0 0 1 7.46-1.78 16.77 16.77 0 0 1 5.36.86 11.38 11.38 0 0 1 4.2 2.38l-2 4.44a13.46 13.46 0 0 0-3.66-2 11.2 11.2 0 0 0-3.78-.64 7.15 7.15 0 0 0-5.78 2.4c-1.34 1.6-2 3.95-2 7s.68 5.45 2 7.06a7.13 7.13 0 0 0 5.78 2.42 11.2 11.2 0 0 0 3.78-.64 13.46 13.46 0 0 0 3.66-2l2 4.44a11.38 11.38 0 0 1-4.2 2.38 16.77 16.77 0 0 1-5.36.86 14.9 14.9 0 0 1-7.46-1.84zm53.93 1.44l-2.68-6.24h-13.12l-2.68 6.24h-6.28l13-28.2h5l13 28.2zm-13.76-11h9l-4.48-10.5z"/><use xlink:href="#H"/><use xlink:href="#H" x="30.48"/><path d="M3475.85 225.5h-6.8l-4.88-9a3.87 3.87 0 0 0-1.44-1.5 4.35 4.35 0 0 0-2.12-.46h-3.08v11h-6.16V197.3h13q5 0 7.5 2.18a7.85 7.85 0 0 1 2.54 6.3 8.14 8.14 0 0 1-1.78 5.36 8.51 8.51 0 0 1-5 2.84 6.17 6.17 0 0 1 3.72 3.16zm-8.56-16.62a4.23 4.23 0 0 0 0-5.9 6.46 6.46 0 0 0-3.88-.92h-6v7.76h6a6.3 6.3 0 0 0 3.88-.94zm12.08 16.62v-28.2h19.44v4.84h-13.36v6.6H3498v4.84h-12.56v7.08h13.36v4.84zm27-.5a14.65 14.65 0 0 1-4.92-2.38l2-4.44a15.68 15.68 0 0 0 9.16 2.84 7.94 7.94 0 0 0 4.06-.86 2.65 2.65 0 0 0 1.42-2.38 2.34 2.34 0 0 0-1.3-2.12 17.34 17.34 0 0 0-4.62-1.48 25.76 25.76 0 0 1-5.94-1.84 7.78 7.78 0 0 1-3.24-2.66 7 7 0 0 1-1-3.9 7.64 7.64 0 0 1 1.42-4.56 9.49 9.49 0 0 1 4-3.14 14.44 14.44 0 0 1 5.92-1.14 18.92 18.92 0 0 1 5.78.88 11.85 11.85 0 0 1 4.42 2.36l-2 4.44a13.64 13.64 0 0 0-8.16-2.84 6.77 6.77 0 0 0-3.84.94 3 3 0 0 0-1.4 2.58 2.31 2.31 0 0 0 .54 1.58 4.52 4.52 0 0 0 1.8 1.1 27.89 27.89 0 0 0 3.58 1c3.63.8 6.23 1.83 7.82 3.08a6.25 6.25 0 0 1 2.38 5.2 7.44 7.44 0 0 1-3.08 6.3q-3.08 2.3-8.6 2.3a22.09 22.09 0 0 1-6.2-.86zm26 0a14.56 14.56 0 0 1-4.92-2.38l2-4.44a15.68 15.68 0 0 0 9.16 2.84 7.94 7.94 0 0 0 4.06-.86 2.65 2.65 0 0 0 1.42-2.38 2.34 2.34 0 0 0-1.3-2.12 17.34 17.34 0 0 0-4.62-1.48 25.76 25.76 0 0 1-5.94-1.84 7.78 7.78 0 0 1-3.24-2.66 7 7 0 0 1-1-3.9 7.64 7.64 0 0 1 1.42-4.56 9.43 9.43 0 0 1 4-3.14 14.44 14.44 0 0 1 5.92-1.14 19 19 0 0 1 5.78.88 11.93 11.93 0 0 1 4.42 2.36l-2 4.44a13.64 13.64 0 0 0-8.16-2.84 6.77 6.77 0 0 0-3.84.94 2.94 2.94 0 0 0-1.4 2.58 2.31 2.31 0 0 0 .54 1.58 4.52 4.52 0 0 0 1.8 1.1 27.89 27.89 0 0 0 3.58 1q5.43 1.2 7.82 3.08a6.25 6.25 0 0 1 2.38 5.2 7.44 7.44 0 0 1-3.08 6.3q-3.08 2.3-8.6 2.3a22 22 0 0 1-6.2-.86z"/></g><path d="M3146 910.2c2.93 0 5.12.83 6.55 2.5s2.15 4.18 2.15 7.55v15h-6.25V920.6a6.47 6.47 0 0 0-1.08-4.15 4.11 4.11 0 0 0-3.37-1.3 5.74 5.74 0 0 0-4.33 1.7 6.32 6.32 0 0 0-1.62 4.55v13.85h-6.25V910.8h6.1v3.65a8.39 8.39 0 0 1 3.35-3.15 10.11 10.11 0 0 1 4.75-1.1zm25.46 0q5.14 0 7.65 2.5c1.67 1.67 2.5 4.23 2.5 7.7v14.85h-6v-3.75a6.55 6.55 0 0 1-2.67 3 8.08 8.08 0 0 1-4.23 1.1 9.77 9.77 0 0 1-4.45-1 8 8 0 0 1-3.15-2.75A6.94 6.94 0 0 1 3160 928a6.16 6.16 0 0 1 1.38-4.25 8.25 8.25 0 0 1 4.47-2.25 40.57 40.57 0 0 1 8.55-.7h1.25v-1.15a5 5 0 0 0-1.07-3.6A4.88 4.88 0 0 0 3171 915a13.1 13.1 0 0 0-4.07.68 20.09 20.09 0 0 0-4.18 1.87l-1.75-4.3a21.43 21.43 0 0 1 10.45-3zm-1.46 20.95a5.37 5.37 0 0 0 4.08-1.67 6.07 6.07 0 0 0 1.57-4.33v-1h-.9a34.49 34.49 0 0 0-5.2.3 5 5 0 0 0-2.65 1.05 2.68 2.68 0 0 0-.8 2 3.46 3.46 0 0 0 1.1 2.63 4 4 0 0 0 2.8 1.02zm32.06-20.95q4.4 0 6.55 2.5c1.44 1.67 2.15 4.18 2.15 7.55v15h-6.25V920.6a6.53 6.53 0 0 0-1.07-4.15 4.13 4.13 0 0 0-3.38-1.3 5.7 5.7 0 0 0-4.32 1.7 6.28 6.28 0 0 0-1.63 4.55v13.85h-6.25V910.8h6.1v3.65a8.45 8.45 0 0 1 3.35-3.15 10.14 10.14 0 0 1 4.76-1.1zm26.12 25.45a13.5 13.5 0 0 1-6.58-1.55 10.71 10.71 0 0 1-4.37-4.45 15.43 15.43 0 0 1 0-13.48 10.76 10.76 0 0 1 4.37-4.42 14.72 14.72 0 0 1 13.15 0 10.65 10.65 0 0 1 4.35 4.42 15.61 15.61 0 0 1 0 13.48 10.61 10.61 0 0 1-4.35 4.45 13.46 13.46 0 0 1-6.56 1.55zm-.05-4.85a5.59 5.59 0 0 0 4.64-2 11.56 11.56 0 0 0 0-11.77 5.46 5.46 0 0 0-4.59-2 5.57 5.57 0 0 0-4.63 2 9.2 9.2 0 0 0-1.62 5.87 9.33 9.33 0 0 0 1.59 5.9 5.58 5.58 0 0 0 4.62 2zm31.6-20.6a10.09 10.09 0 0 1 5.62 1.6 10.63 10.63 0 0 1 3.85 4.52 15.65 15.65 0 0 1 1.38 6.73 15.11 15.11 0 0 1-1.38 6.65 10.08 10.08 0 0 1-9.47 5.95 9.68 9.68 0 0 1-4.65-1.1 7.66 7.66 0 0 1-3.15-3v12.75h-6.25v-33.5h6.15v3.7a7.65 7.65 0 0 1 3.17-3.18 9.78 9.78 0 0 1 4.74-1.12zm-1.65 20.6a5.61 5.61 0 0 0 4.6-2 8.87 8.87 0 0 0 1.65-5.73 9.35 9.35 0 0 0-1.65-5.9 6.17 6.17 0 0 0-9.23 0 9.26 9.26 0 0 0-1.62 5.85 9.16 9.16 0 0 0 1.62 5.8 5.57 5.57 0 0 0 4.64 1.98zm28.06-20.6q5.15 0 7.65 2.5c1.67 1.67 2.5 4.23 2.5 7.7v14.85h-5.95v-3.75a6.52 6.52 0 0 1-2.68 3 8 8 0 0 1-4.22 1.1 9.77 9.77 0 0 1-4.45-1 8 8 0 0 1-3.15-2.75 6.94 6.94 0 0 1-1.15-3.9 6.2 6.2 0 0 1 1.37-4.25 8.33 8.33 0 0 1 4.48-2.25 40.57 40.57 0 0 1 8.55-.7h1.25v-1.15a5 5 0 0 0-1.08-3.6 4.84 4.84 0 0 0-3.57-1.1 13.21 13.21 0 0 0-4.08.68 20.25 20.25 0 0 0-4.17 1.87l-1.75-4.3a21.43 21.43 0 0 1 10.45-3zm-1.45 20.95a5.34 5.34 0 0 0 4.07-1.67 6.07 6.07 0 0 0 1.58-4.33v-1h-.9a34.49 34.49 0 0 0-5.2.3 5 5 0 0 0-2.65 1.05 2.68 2.68 0 0 0-.8 2 3.46 3.46 0 0 0 1.1 2.63 4 4 0 0 0 2.81 1.02zm31.9-20.95a10.12 10.12 0 0 1 5.63 1.6 10.7 10.7 0 0 1 3.85 4.52 15.8 15.8 0 0 1 1.37 6.73 15.25 15.25 0 0 1-1.37 6.65 10.11 10.11 0 0 1-9.48 5.95 9.74 9.74 0 0 1-4.65-1.1 7.66 7.66 0 0 1-3.15-3v12.75h-6.25v-33.5h6.15v3.7a7.62 7.62 0 0 1 3.18-3.18 9.71 9.71 0 0 1 4.73-1.12zm-1.6 20.6a5.6 5.6 0 0 0 4.6-2 8.87 8.87 0 0 0 1.65-5.73 9.35 9.35 0 0 0-1.65-5.9 6.16 6.16 0 0 0-9.22 0 9.2 9.2 0 0 0-1.63 5.85 9.1 9.1 0 0 0 1.63 5.8 5.54 5.54 0 0 0 4.62 1.98zm39-6.65h-16.65a7.63 7.63 0 0 0 2.05 5.05 7 7 0 0 0 5 1.65 11.8 11.8 0 0 0 7.4-2.6l1.8 4.3a13.26 13.26 0 0 1-4.27 2.25 16.34 16.34 0 0 1-5.18.85q-6 0-9.47-3.4-3.47-3.4-3.48-9.3a14.26 14.26 0 0 1 1.5-6.65 10.94 10.94 0 0 1 4.23-4.5 11.9 11.9 0 0 1 6.17-1.6 10.18 10.18 0 0 1 8 3.25q2.93 3.25 2.92 8.95zm-10.75-9.55a5.28 5.28 0 0 0-4 1.6 7.81 7.81 0 0 0-1.88 4.6h11.3a7.1 7.1 0 0 0-1.5-4.63 5 5 0 0 0-3.94-1.57zm31.86.8l-3.65.35q-6.2.64-6.2 6.3v13.2H3359V910.8h6v4.3q1.9-4.4 7.85-4.8l1.9-.15zm37.47-4.6h6.1l-9.6 24.45h-5.45l-6-15.75-5.85 15.75h-5.4l-9.65-24.45h6.4l6.25 17 6.25-17h4.5l6.25 17.1zm19.86-.6q5.14 0 7.65 2.5c1.66 1.67 2.5 4.23 2.5 7.7v14.85h-6v-3.75a6.52 6.52 0 0 1-2.68 3 8 8 0 0 1-4.22 1.1 9.74 9.74 0 0 1-4.45-1 7.83 7.83 0 0 1-3.15-2.75A6.94 6.94 0 0 1 3421 928a6.2 6.2 0 0 1 1.37-4.25 8.33 8.33 0 0 1 4.48-2.25 40.44 40.44 0 0 1 8.55-.7h1.25v-1.15a5 5 0 0 0-1.08-3.6A4.86 4.86 0 0 0 3432 915a13.21 13.21 0 0 0-4.08.68 20 20 0 0 0-4.17 1.87l-1.75-4.3a21.43 21.43 0 0 1 10.45-3zm-1.44 20.95a5.36 5.36 0 0 0 4.07-1.67 6.07 6.07 0 0 0 1.58-4.33v-1h-.9a34.4 34.4 0 0 0-5.2.3 5 5 0 0 0-2.65 1.05 2.65 2.65 0 0 0-.8 2 3.42 3.42 0 0 0 1.1 2.63 3.94 3.94 0 0 0 2.8 1.02zm17.86 4.1V900h6.25v35.25zm12.6 0V900h6.25v35.25zm34.06-11.1h-16.65a7.63 7.63 0 0 0 2.05 5.05 7 7 0 0 0 5 1.65 11.8 11.8 0 0 0 7.4-2.6l1.8 4.3a13.26 13.26 0 0 1-4.27 2.25 16.34 16.34 0 0 1-5.18.85q-6 0-9.47-3.4-3.47-3.4-3.48-9.3a14.26 14.26 0 0 1 1.5-6.65 10.94 10.94 0 0 1 4.23-4.5 11.9 11.9 0 0 1 6.17-1.6 10.18 10.18 0 0 1 8 3.25q2.93 3.25 2.92 8.95zm-10.75-9.55a5.28 5.28 0 0 0-4 1.6 7.81 7.81 0 0 0-1.88 4.6h11.3a7.1 7.1 0 0 0-1.5-4.63 5 5 0 0 0-3.95-1.57zm27.88 16.4a18.48 18.48 0 0 0 2.3-.15l-.3 4.65-2.75.15q-5.14 0-7.6-2.37-2.46-2.37-2.45-7.08v-10.7h-4.7v-4.7h4.7v-7.3h6.25v7.3h6.45v4.7h-6.45v10.55q0 4.95 4.55 4.95zm6.32-2.6h7v6.9h-7zm23.36 7.3a13.74 13.74 0 0 1-6.68-1.55 10.47 10.47 0 0 1-4.32-4.4 15.35 15.35 0 0 1 .07-13.38 11.08 11.08 0 0 1 4.48-4.52 13.58 13.58 0 0 1 6.7-1.6 15.94 15.94 0 0 1 5.07.83 10.62 10.62 0 0 1 4 2.22l-1.8 4.4a12 12 0 0 0-3.28-1.9 9.72 9.72 0 0 0-3.42-.65 6.37 6.37 0 0 0-5 2 10.24 10.24 0 0 0 0 11.6 6.43 6.43 0 0 0 5 2 9.72 9.72 0 0 0 3.42-.65 12 12 0 0 0 3.28-1.9l1.8 4.35a11.16 11.16 0 0 1-4.1 2.27 16.22 16.22 0 0 1-5.22.83zm24.3 0a13.53 13.53 0 0 1-6.58-1.55 10.71 10.71 0 0 1-4.37-4.45 15.43 15.43 0 0 1 0-13.48 10.76 10.76 0 0 1 4.37-4.42 14.72 14.72 0 0 1 13.15 0 10.53 10.53 0 0 1 4.35 4.42 15.61 15.61 0 0 1 0 13.48 10.49 10.49 0 0 1-4.35 4.45 13.46 13.46 0 0 1-6.57 1.5zm-.05-4.85a5.62 5.62 0 0 0 4.65-2q1.6-2 1.6-5.9a9.27 9.27 0 0 0-1.6-5.87 5.5 5.5 0 0 0-4.6-2 5.58 5.58 0 0 0-4.63 2 9.2 9.2 0 0 0-1.62 5.87q0 3.9 1.6 5.9a5.56 5.56 0 0 0 4.6 1.95zm46.6-20.6c2.77 0 4.83.82 6.2 2.47s2.05 4.18 2.05 7.58v15h-6.25v-14.8a7 7 0 0 0-.95-4.08 3.55 3.55 0 0 0-3.05-1.27 4.77 4.77 0 0 0-3.9 1.7 7.29 7.29 0 0 0-1.4 4.75v13.65h-6.25V920.5a7.13 7.13 0 0 0-.92-4.08 3.56 3.56 0 0 0-3.08-1.27 4.73 4.73 0 0 0-3.85 1.7 7.29 7.29 0 0 0-1.4 4.75v13.65h-6.25V910.8h6.1v3.45a7.28 7.28 0 0 1 3-3 9.33 9.33 0 0 1 4.45-1q5.55 0 7.35 4.6a8.45 8.45 0 0 1 3.3-3.38 9.57 9.57 0 0 1 4.85-1.27z" fill="url(#D)"/><path d="M2942 60.22h12.08q4.8 0 7.47 2.34a8.37 8.37 0 0 1 2.66 6.63 8.43 8.43 0 0 1-2.69 6.66 10.82 10.82 0 0 1-7.44 2.39h-8.53v12.5H2942zm11.73 15.07q7 0 7-6.1 0-6.1-7-6h-8.18v12.1zm39.53 15.46l-3.38-7.84h-15.93l-3.38 7.84h-3.63l13.42-30.53h3.07l13.42 30.53zM2975.18 80h13.42l-6.7-15.63zm26.2-19.75h12.08q4.8 0 7.47 2.34a8.37 8.37 0 0 1 2.66 6.63 8.43 8.43 0 0 1-2.68 6.66 10.84 10.84 0 0 1-7.45 2.39h-8.53v12.48h-3.55zm11.73 15.07q7 0 7-6.1 0-6.1-7-6h-8.18V75.3zm16.2 15.46V60.22h19.3v3h-15.8v10.56h14.94v2.94h-14.94V87.8h15.8v3zm49.22 0h-3.9l-5.2-9.8a5.59 5.59 0 0 0-2.23-2.44 7.5 7.5 0 0 0-3.48-.67H3058v12.9h-3.5V60.22h12.56q5 0 7.6 2.2a8 8 0 0 1 2.62 6.5 8.09 8.09 0 0 1-2 5.73 9.36 9.36 0 0 1-5.73 2.75 5.06 5.06 0 0 1 2.05 1.17 8.18 8.18 0 0 1 1.63 2.21zm-11.77-15.88a8.11 8.11 0 0 0 5.3-1.47 5.49 5.49 0 0 0 1.75-4.43 5.32 5.32 0 0 0-1.73-4.37c-1.15-1-2.93-1.43-5.32-1.43H3058v11.7zm-95.83 25.45h4.94l-8.37 23.53h-4.17l-5.44-15.6-5.5 15.6h-4.17l-8.34-23.53h5.27l5.37 16.25 5.7-16.25h3.64l5.5 16.42zm25.83 23.53l-2.23-5.2h-10.95l-2.23 5.2h-5.24l10.8-23.53h4.17l10.8 23.53zm-11.48-9.14h7.55l-3.77-8.8zm18.6 9.14v-23.53h5.2v19.3h10.5v4.24zm18.8 0v-23.53h5.2v19.3h10.5v4.24zm18.8 0v-23.53h16.22v4h-11.15v5.5h10.5v4h-10.48v5.9h11.15v4zm25.23 0v-19.3h-7.38v-4.24h20v4.24h-7.38v19.3z" fill="#36363c"/><path d="M2847 90.5a11.62 11.62 0 0 1-23.23 0c0-8.62-2.9-11.5-11.6-11.5s-11.62 2.87-11.62 11.5a11.62 11.62 0 1 1-11.62-11.5c8.7 0 11.6-2.87 11.6-11.5a11.62 11.62 0 0 1 23.23 0c0 8.62 2.9 11.5 11.62 11.5A11.52 11.52 0 0 1 2847 90.5zm-81.38 34.5a11.49 11.49 0 1 1 11.61-11.49 11.55 11.55 0 0 1-11.61 11.49zm151.17-57.5a11.55 11.55 0 0 1-11.62 11.5c-8.7 0-11.6 2.88-11.6 11.5a11.55 11.55 0 0 1-11.62 11.51c-8.7 0-11.6 2.87-11.6 11.5a11.62 11.62 0 1 1-11.62-11.49c8.7 0 11.62-2.87 11.62-11.5A11.55 11.55 0 0 1 2881.94 79c8.7 0 11.62-2.87 11.62-11.48a11.62 11.62 0 0 1 23.23 0z" fill="url(#E)"/><g fill="#fff"><path d="M2938.48 616.46l-5.66.07c-54 1.8-87.58 13.08-109.07 36.54s-31 59.25-31 116.17a153.68 153.68 0 0 1-46.26 110.22A157.73 157.73 0 0 1 2635.07 925c-75.53 0-116.62 16.48-137.2 55.1h-298.1l.76-.92a158.08 158.08 0 0 1 121.92-56.91c60.42 0 97.78-10.3 121.15-33.37s33.78-60 33.78-119.6a153.69 153.69 0 0 1 46.26-110.3 157.76 157.76 0 0 1 111.43-45.5c60.42 0 97.8-10.3 121.16-33.37S2790 520.2 2790 460.56a157.21 157.21 0 0 1 28.21-89l2.58-3.42zM2166 769.8c0 85.86-70.74 155.72-157.68 155.72s-157.68-69.86-157.68-155.72c0-59.66-10.42-96.55-33.78-119.62s-60.73-33.35-121.15-33.35-97.78 10.3-121.15 33.37-33.8 60-33.8 119.6a153.31 153.31 0 0 1-12.24 60.21h-290.85a152.72 152.72 0 0 1-12.29-60.24c0-85.86 70.73-155.7 157.67-155.7 60.42 0 97.8-10.3 121.16-33.37s33.78-60 33.78-119.6a153.66 153.66 0 0 1 46.26-110.21 157.72 157.72 0 0 1 111.42-45.5c86.94 0 157.67 69.85 157.67 155.7 0 59.66 10.42 96.55 33.8 119.62s60.73 33.35 121.15 33.35a157.75 157.75 0 0 1 111.62 45.49A153.83 153.83 0 0 1 2166 769.79zM820.14 170l-1.14 1-14.7 14.05-10.9 11-1.38 1.43-1.7-3.63.66-.67 10.68-10.77c4-4 8.3-8.06 12.95-12.42zm50.6 0l-1.28 1.08c-14.68 12.33-28.7 25.06-41.66 37.82a687.98 687.98 0 0 0-19.17 19.7l-.94 1-2.28-3 .76-.82a708.11 708.11 0 0 1 19-19.5c12.34-12.17 25.7-24.36 39.75-36.25zm53.75 0l-1.5 1.1a723 723 0 0 0-71.72 61.59c-9.15 9-18.35 18.65-27.34 28.64l-1.4 1.54-1.7-3.7.6-.67a660.43 660.43 0 0 1 27.2-28.47A724.61 724.61 0 0 1 918.31 170zM2334.13 20l-.57.8-10.65 15.3-1.53 2.27-1.56-2.27-10.7-15.3-.58-.8h4.6l8.2 11.73 8.18-11.73zm41.6 0l-.63.83A775.69 775.69 0 0 0 2323 98.46l-1.6 2.77-1.6-2.77a774.43 774.43 0 0 0-52.28-77.63l-.63-.83h4.7a782.2 782.2 0 0 1 49.82 73.84A779.76 779.76 0 0 1 2371 20zM982.44 170l-1.76 1.17C941.84 197 905.2 226.5 874.75 256.5c-11.93 11.76-23.84 24.5-35.4 37.83l-1.36 1.6-1.75-3.7.6-.68c11.48-13.25 23.35-25.94 35.3-37.7 30.27-29.83 65.12-58 103.6-83.87zm1435.9-150l-.7.87a737.51 737.51 0 0 0-85.4 130.37l-.26.52-.54.3-9.3 4.65-.83.45-.87-.46q-4.35-2.2-8.72-4.36l-.53-.26-.3-.54a738.13 738.13 0 0 0-85.95-130.66l-.7-.87h4.84a742.23 742.23 0 0 1 84.86 129.26q3.68 1.8 7.36 3.7l7.9-4a742.14 742.14 0 0 1 84.31-129zM1046.46 170l-2.15 1.22c-54.4 30.8-104.92 68.53-146.1 109.1-14.72 14.52-29.28 30.46-43.3 47.36l-.92 1.12-2.32-3 .67-.8c13.95-16.83 28.5-32.73 43.24-47.28 40.48-39.88 90-77.07 143.3-107.66zm61.92 0l-.32.64-3.1 6.27-.26.56-.6.3c-67.4 32-132.18 76.86-182.4 126.36a623.05 623.05 0 0 0-51.06 57.22l-1.38 1.76-1.75-3.83.52-.66a623.41 623.41 0 0 1 51.05-57.15c50.37-49.64 115.3-94.66 182.8-126.78q1.15-2.34 2.33-4.68zM2462.46 20l-.82.9A688.77 688.77 0 0 0 2357 176.42l-.3.58-.57.28c-11.9 5.67-23.33 11.46-34 17.22l-.86.5-.9-.5c-11.22-6-22.48-11.73-33.47-16.9l-.58-.26-.3-.6A691.47 691.47 0 0 0 2180.9 20.91l-.82-.9h5a695.92 695.92 0 0 1 104 154.5c10.53 5 21.36 10.44 32.17 16.24 10.23-5.52 21.22-11.08 32.66-16.54A693 693 0 0 1 2457.45 20zm46.14 0l-1 1c-49.88 49.74-94.5 113.92-125.62 180.72l-.3.65-.66.27c-19.5 8.8-39.84 19.23-58.78 30.12l-.9.54-.93-.53c-19.08-10.94-38.72-21-58.4-29.82l-.64-.3-.3-.62c-31.1-66.57-75.92-130.86-126.2-181l-1-1h5.3c49.76 50.08 94.1 113.87 125 179.8 19.25 8.7 38.47 18.5 57.14 29.17 18.52-10.6 38.43-20.8 57.58-29.48C2409.83 133.3 2454 69.63 2503.3 20zM1141.86 170a650.12 650.12 0 0 0-15 30c-68.35 31-133.8 75.5-184.3 125.34a599.73 599.73 0 0 0-58.63 67.44l-.5.65 1.77 3.85 1.37-1.84a601.21 601.21 0 0 1 58.6-67.44c50.4-49.7 115.7-94 183.88-124.88l.62-.3.3-.62a634.5 634.5 0 0 1 15.78-31.52l.36-.68zm38.14 0a609.84 609.84 0 0 0-28 55.44c-68.92 29.48-135 73.4-186 123.7a577.51 577.51 0 0 0-66 78.23l-.45.64 1.8 3.93 1.37-1.94a573.92 573.92 0 0 1 65.91-78.21c50.9-50.15 116.8-93.9 185.56-123.2l.66-.3.3-.67a607 607 0 0 1 28.75-56.91l.4-.7zM2557.5 20l-1.15 1a574.75 574.75 0 0 0-23 21.52c-51.16 50.44-96 116-126.14 184.57l-.3.67-.66.3a633.37 633.37 0 0 0-83.87 43.53l-1 .6-1-.6a632.3 632.3 0 0 0-83.51-43.16l-.68-.27-.3-.72c-31.26-70.9-78.16-138.44-132.06-190.07C2098 31.73 2092 26.23 2086.1 21l-1.17-1h5.65c5.36 4.77 10.7 9.7 15.88 14.67 54.05 51.8 101.13 119.5 132.55 190.63a638.46 638.46 0 0 1 82.35 42.52 636.31 636.31 0 0 1 82.7-42.89c30.36-68.77 75.32-134.48 126.63-185.06 6.88-6.78 14-13.46 21.17-19.87zm52.66 0l-1.4 1.08a565.61 565.61 0 0 0-51.92 45.27c-51.57 50.82-95.68 117-124.2 186.42l-.3.73-.73.3a586.94 586.94 0 0 0-109.16 57.55l-1 .67-1-.67a587.23 587.23 0 0 0-108.78-57.2l-.74-.3-.3-.74c-29.58-71.7-75.7-139.75-129.83-191.6a556.45 556.45 0 0 0-47-40.41l-1.5-1.08h6.14a560.91 560.91 0 0 1 44.88 38.79c54.3 52 100.6 120.27 130.4 192.16a592.79 592.79 0 0 1 107.69 56.58 592 592 0 0 1 108.08-56.92c28.73-69.57 73-136 124.74-186.93a569.51 569.51 0 0 1 49.82-43.7zm-1391.4 150a578.49 578.49 0 0 0-41.35 81.12c-69.76 27.9-136.5 71.15-187.93 121.82a552 552 0 0 0-73.11 89.64l-.52.78 2.4 3.14.9-1.35a547.45 547.45 0 0 1 73-89.54C1043.4 325 1110 282 1179.56 254.26l.68-.28.34-.73a573.58 573.58 0 0 1 42.13-82.53l.46-.75zm44.1 0l-.53.8a538.12 538.12 0 0 0-56 108.41l-.3.8-.8.3c-70.52 25.83-137.84 68.14-189.58 119.14A519.39 519.39 0 0 0 936 501.05l-.87 1.44-2.45-3.18.47-.77a522.37 522.37 0 0 1 79.85-101.8c51.9-51.16 119.4-93.66 190.1-119.7A542.46 542.46 0 0 1 1258.37 170zm1395.7-143.46l-1 .65a528.32 528.32 0 0 0-77.3 63c-52 51.2-95.3 118.14-122 188.53l-.3.8-.78.3a543.43 543.43 0 0 0-134.72 72.36l-1.12.83-1.1-.84a543.87 543.87 0 0 0-134.27-72l-.8-.3-.3-.78c-27.5-72.45-72.72-141.14-127.28-193.43a521.41 521.41 0 0 0-82.16-64.5l-1.77-1.15h6.92a524.1 524.1 0 0 1 79.65 63c54.74 52.47 100.15 121.35 127.88 194a547.26 547.26 0 0 1 133.3 71.38 547.54 547.54 0 0 1 133.72-71.75C2482 206 2525.5 138.88 2577.65 87.5a532.63 532.63 0 0 1 78-63.52l1.33-.9zM1303.72 170l-.62.84a506.79 506.79 0 0 0-70.75 134.69l-.3.87-.85.3c-71.58 23.6-139.8 65-192.12 116.55-33 32.5-62.66 72.2-85.83 114.8l-1.3 2.4-2-4.23.33-.6c23.28-42.67 53.06-82.44 86.13-115 52.48-51.72 120.9-93.3 192.67-117.14a510.36 510.36 0 0 1 70-133.44zM2672.87 57.24l-.95.65a494.46 494.46 0 0 0-68.16 56.11c-52.5 51.68-94.9 119.5-119.38 191l-.3.87-.88.3a501.36 501.36 0 0 0-160.53 88.35l-1.2 1-1.18-1A501 501 0 0 0 2160 306.64l-.88-.3-.3-.86c-25.2-73.47-69.38-142.94-124.38-195.6a486.12 486.12 0 0 0-128.04-88.65l-.83-.4.2-.84h6.6a489.67 489.67 0 0 1 124.69 87.18c55.18 52.85 99.57 122.52 125 196.2a504.82 504.82 0 0 1 159.4 87.27 505.41 505.41 0 0 1 159.67-87.75c24.7-71.7 67.3-139.7 120-191.55A497.65 497.65 0 0 1 2670 54.71l1.34-.92zm418.26 896.26l-.2.46a493.19 493.19 0 0 1-11.68 26.1h-4.15l.3-.64a499.61 499.61 0 0 0 12.38-27.63l1.2-2.9zM3071.3 911l-.14.44a464.88 464.88 0 0 1-29.3 68.64h-4.22l.36-.68a461 461 0 0 0 29.92-70.05l1.1-3.35zM1346.1 170l-.75.9a465.05 465.05 0 0 0-86.49 161.33l-.26 1-1 .3c-72.8 21-142.1 61.35-195.08 113.57-36.8 36.3-68.4 81-91.36 129.27l-1.24 2.63-2-4.4.28-.58c23.1-48.4 54.83-93.2 91.74-129.6 53.18-52.4 122.66-92.95 195.68-114.2A469 469 0 0 1 1341.27 170zm1341.1-82.06l-.93.66a460.55 460.55 0 0 0-59 49.19c-53.2 52.44-94.52 121.3-116.32 193.93l-.3 1-1 .27c-68.8 19.87-135.16 57.42-186.88 105.74l-1.27 1.2-1.28-1.2c-51.65-48.14-117.93-85.55-186.63-105.34l-1-.3-.3-.95c-22.4-74.5-65.38-144.9-121-198.2a455 455 0 0 0-202-112.61l-1-.25.13-1.07h10.32a459.18 459.18 0 0 1 195.16 111.22c55.8 53.5 99 124.12 121.68 198.84 68.3 19.86 134.3 57 185.9 104.74 51.67-47.9 117.75-85.2 186.16-105.13 22-72.83 63.58-141.9 117-194.54a464 464 0 0 1 59.67-49.69l1.33-.93zM1390.93 170l-.93 1c-49.57 52-86.48 118.9-103.93 188.54l-.27 1.1-1.12.26c-74.3 17.88-144.85 57-198.67 110-41.13 40.54-74.33 90.94-96 145.74l-1.17 3-2.17-4.7.18-.46c21.88-55 55.26-105.54 96.52-146.23 54-53.23 124.82-92.53 199.34-110.7 17.52-69.1 54.1-135.6 103-187.5zm1661.62 700.82l-1.6.4-3 .73A426.27 426.27 0 0 1 3003.88 980h-4.32l.43-.73a423.61 423.61 0 0 0 44.65-109.37l.3-1.1 1.07-.26 3.82-1 1.1-.28zm-350.97-752.07l-.9.66a428 428 0 0 0-49.91 42.18c-54 53.26-94 123.37-112.64 197.42l-.3 1.1-1.08.26c-74.27 17.88-144.8 56.94-198.63 110-5.06 5-10.17 10.3-15.18 15.75l-1.38 1.5-1.37-1.5a460.75 460.75 0 0 0-14.55-15.1c-53.83-53.17-124.52-92.3-199-110.22l-1.08-.26-.3-1.07a425.65 425.65 0 0 0-117-201.43 420.88 420.88 0 0 0-291.79-117.55h-.8a428.49 428.49 0 0 0-75.66 6.71v-3.8a434.1 434.1 0 0 1 75.67-6.64h.8a424.68 424.68 0 0 1 294.32 118.57 429.43 429.43 0 0 1 117.76 202.08c74.75 18.18 145.67 57.57 199.7 110.94 5.2 5.2 9.43 9.58 13.28 13.72a431.09 431.09 0 0 1 13.94-14.39c54-53.22 124.75-92.52 199.28-110.7 18.9-74.3 59.15-144.63 113.37-198.08a431.66 431.66 0 0 1 50.51-42.65l1.35-1zm336.54 721.13l-1.64.38a393.8 393.8 0 0 1-16.45 3.48A389 389 0 0 1 2964.88 980h-4.45l.5-.8a385.68 385.68 0 0 0 55.67-137.47l.26-1.25 1.24-.23c5.65-1 11.47-2.26 17.32-3.62l1.08-.25zM2716 149.6l-.9.67a394.53 394.53 0 0 0-40.93 35.13A387.52 387.52 0 0 0 2566 387.17l-.26 1.26-1.24.23A388.25 388.25 0 0 0 2323 538.27l-1.5 2-1.5-2a392.28 392.28 0 0 0-37.94-43.43c-54.87-54.2-127.07-91.74-203.4-105.75l-1.23-.22-.26-1.25A388.23 388.23 0 0 0 1696 74h-.36a395.39 395.39 0 0 0-75.64 7.25v-3.8a399.32 399.32 0 0 1 75.62-7.21h.36a392 392 0 0 1 384.62 315.41c76.56 14.32 149 52.14 204.1 106.53a395.61 395.61 0 0 1 36.82 41.87 392.32 392.32 0 0 1 241.1-148.85 391.21 391.21 0 0 1 108.94-202.44 395.59 395.59 0 0 1 41.44-35.61l1.34-1zM1439.3 170l-1.2 1.06c-5.37 4.73-10.75 9.74-16 14.87a387.33 387.33 0 0 0-108.1 201.7l-.26 1.26-1.25.23a387.66 387.66 0 0 0-302.19 270.76l-1 3.45-2.37-5.08.13-.42a391.35 391.35 0 0 1 303.55-272.16 391.24 391.24 0 0 1 108.93-202.43c4.6-4.54 9.35-9 14.14-13.27z"/><path d="M1723.5 980h-4.65c-3.58-4.85-7.06-9.82-10.36-14.8-4.45-6.72-8.72-13.67-12.72-20.7a356 356 0 0 1-23.09 35.49H1668l.64-.86a353.69 353.69 0 0 0 25.45-39.34l1.65-3 1.62 3a344.17 344.17 0 0 0 14.2 23.33c3.67 5.54 7.46 10.92 11.25 16zm1006.97-799.37l-.86.67a362.24 362.24 0 0 0-31.93 27.95 353.51 353.51 0 0 0-102.41 207.22l-.2 1.47-1.47.15a356.49 356.49 0 0 0-270.39 181.45l-1.64 2.94-1.64-2.94a355.85 355.85 0 0 0-270.26-181l-1.45-.2-.2-1.44a354.83 354.83 0 0 0-351.94-309.5h-.46a360.08 360.08 0 0 0-75.65 8v-3.8a364 364 0 0 1 75.65-7.92h.46A358.62 358.62 0 0 1 2051.56 415a359 359 0 0 1 270 179.8 359.54 359.54 0 0 1 270.17-180.24 357.41 357.41 0 0 1 103.31-208 363.2 363.2 0 0 1 32.44-28.38l1.36-1.05zM1493.66 170l-1.65 1.15a360.32 360.32 0 0 0-46.36 38.6 353.59 353.59 0 0 0-102.42 207.21l-.2 1.44-1.44.2a357.66 357.66 0 0 0-208.6 99.89 352 352 0 0 0-99.84 190.14l-.76 4.3-2.74-5.94.06-.36a354.2 354.2 0 0 1 100.65-190.81A361.59 361.59 0 0 1 1339.7 415a357.58 357.58 0 0 1 103.33-208 364.47 364.47 0 0 1 44.14-37zm1530.02 638.93l-1.7.36c-10.08 2.13-20.52 3.86-31 5.13A356.51 356.51 0 0 1 2924.37 980h-4.65l.64-.86a352.84 352.84 0 0 0 67.09-166.68l.2-1.47 1.47-.15a365.12 365.12 0 0 0 31.89-5.19l1.06-.22zM2745 211.75l-.82.67c-8 6.5-15.7 13.44-23 20.6a317.34 317.34 0 0 0-94.89 214.47l-.08 1.76h-1.74a321.38 321.38 0 0 0-301 239.6l-.7 2.73h-2.2l-.7-2.73a320.92 320.92 0 0 0-301-239.14h-1.77v-1.78c-3.25-82.72-38.23-160-98.48-217.66a321.12 321.12 0 0 0-222.93-89.45 326.2 326.2 0 0 0-75.66 8.85v-3.83a329.12 329.12 0 0 1 75.66-8.76A324.87 324.87 0 0 1 1921 227.43c60.6 57.9 96 135.53 99.72 218.65a324.78 324.78 0 0 1 300.91 235.2 325.2 325.2 0 0 1 301-235.67 321.1 321.1 0 0 1 95.93-215.24c7.46-7.35 15.36-14.42 23.46-21l1.36-1.1zm-1185.84-40.9l-.84.4a320.92 320.92 0 0 0-89.2 62.27A317.24 317.24 0 0 0 1374.24 448l-.08 1.76h-1.75a320.57 320.57 0 0 0-310.88 307.4l-.08 1.76h-1.75l-4.8.2h-.7l-2.1-3.64 2.2-.1 3.55-.15a324.38 324.38 0 0 1 312.73-309.2 321.09 321.09 0 0 1 95.92-215.24 324.94 324.94 0 0 1 85.79-60.77h6.7zM1766.52 980h-5a319.84 319.84 0 0 1-65.89-120.77A322.73 322.73 0 0 1 1629.91 980h-5l.83-.94a318.49 318.49 0 0 0 68.09-127.25l1.82-6.7 1.8 6.7a320.35 320.35 0 0 0 68.26 127.29zm1242.64-202.18l-1.74.32a322.68 322.68 0 0 1-47.35 5.15A317.83 317.83 0 0 1 2881.52 980h-5l.83-.94a315.75 315.75 0 0 0 79-197.69l.08-1.72 1.7-.08a319.41 319.41 0 0 0 48.28-5.1l1-.2zm-14.56-31.2l-1.8.28a290.85 290.85 0 0 1-44.18 3.38h-1c-7.4 0-14.2.2-20.2.64-.33 5.4-.5 11.5-.5 18.1 0 77.9-30.64 151-86.27 205.88-1.75 1.74-3.54 3.46-5.33 5.13h-5.5l1.14-1a277.4 277.4 0 0 0 7.07-6.73c54.9-54.17 85.15-126.34 85.15-203.23 0-7.4.2-14.1.6-20l.1-1.6 1.58-.14c6.45-.52 13.9-.78 22.14-.78h1a287.3 287.3 0 0 0 43.31-3.28l1-.16zM1813.48 980H1808a289.7 289.7 0 0 1-66.69-93.48 285.64 285.64 0 0 1-25-117.31c0-6.5-.16-12.6-.48-18.1-6-.43-12.8-.64-20.22-.64s-14.1.2-20.2.64c-.33 5.4-.5 11.5-.5 18.1a286.14 286.14 0 0 1-54.84 169.36l-.12.17v-6.45a282.53 282.53 0 0 0 51.22-163.08c0-7.4.2-14.1.6-20l.1-1.62 1.62-.12c6.54-.5 14-.77 22.1-.77s15.7.26 22.13.78l1.6.1.1 1.6c.4 6 .6 12.72.6 20A281.73 281.73 0 0 0 1745 885.53a285.83 285.83 0 0 0 67.4 93.46zm-719.93-186.73a328.31 328.31 0 0 0-23.26-1h-.87l-1.75-3.75h2.15c7.25 0 14.6.3 21.87.82-.46-6.67-.7-13.4-.7-20 0-77.9 30.65-151 86.3-205.87A291.13 291.13 0 0 1 1382 479.36h1c7.4 0 14.2-.2 20.2-.64.33-5.54.5-11.63.5-18.12 0-77.9 30.64-151 86.28-205.87a291.22 291.22 0 0 1 204.72-84.1h.95c161 0 292 130.1 292 290 0 6.6.16 12.7.5 18.12 6 .43 12.8.64 20.2.64 77.82 0 151 29.92 205.95 84.24a287.09 287.09 0 0 1 86 205.8c0 6.4-.2 12.84-.63 19.14 7.33-.54 15-.82 22.74-.82 7.53 0 14.32-.2 20.2-.64.33-5.38.5-11.47.5-18.1 0-77.9 30.64-151 86.28-205.86A291.17 291.17 0 0 1 2634.05 479h.95c7.3 0 14.1-.2 20.2-.64.33-5.4.5-11.48.5-18.1 0-77.88 30.64-151 86.27-205.87a289.64 289.64 0 0 1 14.69-13.56l1.37-1.18 1.64 3.53-.8.68a305.15 305.15 0 0 0-14.3 13.18c-54.9 54.17-85.15 126.34-85.15 203.22 0 7.4-.2 14.12-.6 20l-.1 1.62-1.6.1c-6.56.52-14 .78-22.1.78h-.95a287.52 287.52 0 0 0-202.11 83C2377 620 2346.78 692.1 2346.78 769c0 7.4-.2 14.12-.6 20l-.1 1.62-1.62.1c-6.4.52-13.85.78-22.1.78-8.47 0-16.74.33-24.6 1l-2.2.2.2-2.2c.5-6.9.75-14 .75-21a283.38 283.38 0 0 0-84.89-203.14c-54.3-53.63-126.5-83.16-203.33-83.16-8.25 0-15.7-.26-22.12-.78l-1.6-.15-.1-1.58c-.4-5.88-.6-12.6-.6-20 0-157.85-129.3-286.26-288.22-286.26h-.95a287.57 287.57 0 0 0-202.1 83c-54.92 54.17-85.16 126.34-85.16 203.22 0 7.24-.2 14-.6 20l-.12 1.63-1.6.1c-6.42.52-13.87.78-22.12.78h-1a287.57 287.57 0 0 0-202.1 83c-54.92 54.16-85.17 126.33-85.17 203.22 0 7.2.28 14.58.84 21.94l.15 2.2zM1867.65 980H1861c-69.67-48.12-111.2-126.76-111.2-210.74 0-27.1-2.44-40.6-4.53-47.16-7.13-2.32-21.5-5-49.63-5s-42.48 2.7-49.64 5c-3 9.37-4.53 25.66-4.53 47.16a252.28 252.28 0 0 1-21.21 102.2l-.26.6v-9.67a249 249 0 0 0 17.73-93.13c0-22.63 1.74-39.66 5-49.24l.26-.84.88-.3c10.4-3.62 28.3-5.54 51.74-5.54 29.63 0 44.5 3 51.73 5.54l.85.3.3.85c3.28 9.54 5 26.56 5 49.24 0 84 42 162.34 112.37 209.56zm914.35 0a258 258 0 0 0 35.22-29.11 253.85 253.85 0 0 0 76.33-182.07c0-27.14 2.44-40.6 4.52-47.15 7.18-2.32 21.57-5 49.64-5h.78a259.89 259.89 0 0 0 29.41-1.68l1.9-.22-1.68-3.57-1 .1a251.51 251.51 0 0 1-28.63 1.62h-.8c-23.4 0-41.3 1.92-51.73 5.55l-.85.3-.3.86c-2.3 6.62-5 20.53-5 49.23a250.17 250.17 0 0 1-75.21 179.41 255.19 255.19 0 0 1-37.51 30.59l-1.76 1.18zM1131.7 830c0-.2-.1-.38-.13-.57a257.35 257.35 0 0 1 250.56-316.67h.83c28.1 0 42.48-2.72 49.64-5 2.08-6.5 4.52-19.94 4.52-47.16a253.93 253.93 0 0 1 76.31-182.06A258.05 258.05 0 0 1 1694.79 204h.83c142.54 0 258.5 115.1 258.5 256.56 0 27.1 2.44 40.6 4.53 47.16 7.14 2.32 21.5 5 49.64 5 69 0 133.75 26.5 182.46 74.6a253.92 253.92 0 0 1 76.06 182 257.65 257.65 0 0 1-6.83 59.17 261.65 261.65 0 0 1 62-7.44h.36c28.07 0 42.46-2.72 49.64-5 2.08-6.55 4.52-20 4.52-47.16a253.81 253.81 0 0 1 76.31-182.1 258 258 0 0 1 181.36-74.5h.83c22.28 0 39.43-1.74 49.65-5 2.08-6.54 4.5-20 4.5-47.16a253.83 253.83 0 0 1 76.26-182c2-2 4-3.9 5.9-5.65l1.38-1.27 1.65 3.55-.73.68a236.13 236.13 0 0 0-5.59 5.35 250.16 250.16 0 0 0-75.14 179.39c0 28.7-2.73 42.63-5 49.25l-.3.85-.86.3c-10.47 3.62-28.36 5.54-51.73 5.54h-.83a254.19 254.19 0 0 0-178.74 73.42 250.09 250.09 0 0 0-75.19 179.44c0 28.7-2.73 42.62-5 49.25l-.3.9-.9.27c-10.4 3.6-28.27 5.53-51.68 5.53h-.4a258.49 258.49 0 0 0-64.06 8.06l-3 .8.75-3a253.32 253.32 0 0 0 7.45-61.28 250.2 250.2 0 0 0-75-179.48c-48-47.4-111.9-73.5-179.84-73.5-29.6 0-44.47-3-51.73-5.54l-.85-.3-.3-.85c-3.3-9.53-5-26.56-5-49.25 0-139.4-114.3-252.82-254.77-252.82h-.84A254.31 254.31 0 0 0 1516 281.2a250.06 250.06 0 0 0-75.19 179.39c0 28.78-2.73 42.67-5 49.25l-.3.85-.85.3c-10.4 3.62-28.3 5.54-51.74 5.54h-.83a253.05 253.05 0 0 0-246.66 313.14l.1.36h-3.85z"/><path d="M1132.68 830v-.3l-1.1-.26-3.36-.8a260 260 0 0 0-42.48-6.17l-2.3-.14 1.8 3.86h.8a259.69 259.69 0 0 1 30.35 3.81h16.28zm1832.05-147.36l-2 .12a222.6 222.6 0 0 1-14.26.47h-.84c-22.95 0-41.38 1.73-54.78 5.15-9.08 2.32-15.48 5.28-19 8.8-9.13 9-13.76 33.14-13.76 71.7a220.57 220.57 0 0 1-66.34 158.25A225.69 225.69 0 0 1 2708 980h-8.76l-.16-1.06.95-.3a221.88 221.88 0 0 0 91-54.24 216.85 216.85 0 0 0 65.22-155.59c0-39.6 5-64.6 14.88-74.35 4-4 11-7.27 20.73-9.75 13.67-3.5 32.42-5.27 55.7-5.27h.86a217.84 217.84 0 0 0 13.62-.43h.93zM1943.08 979l-.16 1h-8.6A224.31 224.31 0 0 1 1827 901.32a219.94 219.94 0 0 1-43.71-132c0-38.56-4.62-62.7-13.75-71.7-3.55-3.5-10-6.46-19-8.8-13.42-3.4-31.85-5.14-54.8-5.14s-41.38 1.73-54.8 5.14c-9.1 2.33-15.5 5.3-19 8.8-9.12 9-13.75 33.15-13.75 71.7a220.09 220.09 0 0 1-8.38 60.71h-3.9l.12-.4a216.54 216.54 0 0 0 8.41-60.3c0-39.6 5-64.6 14.87-74.35 4-4 11-7.26 20.73-9.76 13.7-3.5 32.43-5.26 55.72-5.26s42 1.77 55.7 5.26c9.74 2.5 16.72 5.77 20.74 9.76 9.87 9.74 14.87 34.75 14.87 74.35a216.09 216.09 0 0 0 43.88 131 223.5 223.5 0 0 0 111.24 78.38zm204.05-35.6l-2.7 3.6a218.27 218.27 0 0 0-20.43 33h-4.17l.32-.65a220.72 220.72 0 0 1 14.85-25.48 224.56 224.56 0 0 1-52.32 26.13h-8l-2-.67 2.17-.68a220.5 220.5 0 0 0 67-34.29l3.6-2.72zm642.17-636.67l-.67.68a216.87 216.87 0 0 0-62.33 152.69c0 39.6-5 64.6-14.87 74.35-4 4-11 7.27-20.74 9.75-13.68 3.5-32.42 5.27-55.7 5.27h-.68a221.12 221.12 0 0 0-155.39 63.81 217 217 0 0 0-65.22 155.58c0 39.6-5 64.63-14.88 74.36-4 4-11 7.25-20.73 9.74-13.68 3.5-32.42 5.27-55.7 5.27h-.74a222.56 222.56 0 0 0-132.82 44.31l-3.57 2.7-1.72-1.7 2.67-3.6a218.47 218.47 0 0 0-21.59-286.09c-41.7-41.18-97.23-63.84-156.34-63.84-23.26 0-42-1.78-55.7-5.28-9.72-2.47-16.7-5.75-20.74-9.74-9.87-9.74-14.87-34.76-14.87-74.36 0-121-99.3-219.38-221.34-219.38h-.76A221 221 0 0 0 1539.5 305a216.91 216.91 0 0 0-65.23 155.58c0 39.6-5 64.62-14.87 74.36-4 4-11 7.26-20.73 9.74C1425 548.2 1406.2 550 1383 550h-.76a219.88 219.88 0 0 0-212.08 279.63l.12.4h-3.88a223.31 223.31 0 0 1 130.41-266.94 223.75 223.75 0 0 1 85.39-16.85h.76c23 0 41.4-1.73 54.78-5.16 9.08-2.3 15.5-5.27 19-8.77 9.12-9 13.75-33.14 13.75-71.7a220.63 220.63 0 0 1 66.35-158.24 224.77 224.77 0 0 1 158-64.88h.76c124.1 0 225.08 100.1 225.08 223.12 0 38.56 4.63 62.7 13.76 71.7 3.55 3.5 10 6.46 19 8.77 13.4 3.43 31.82 5.16 54.78 5.16 60.1 0 116.55 23.06 159 64.94a222.17 222.17 0 0 1 28.38 281.92 223.66 223.66 0 0 1 126-38.62h.75c23 0 41.42-1.73 54.78-5.15 9.08-2.3 15.5-5.26 19-8.77 9.13-9 13.76-33.15 13.76-71.7a220.57 220.57 0 0 1 66.34-158.24 224.81 224.81 0 0 1 158-64.89h.68c23 0 41.42-1.73 54.78-5.15 9.08-2.32 15.5-5.28 19-8.78 9.13-9 13.76-33.13 13.76-71.7a220.67 220.67 0 0 1 63.68-155.58l1.38-1.4zM2200 769.34A190.64 190.64 0 0 1 2013 959l-.64.06h-4.08c-105.65 0-191.6-85.1-191.6-189.7 0-49.86-7.3-79.3-23.7-95.5s-47.22-23.58-97.33-23.58-81 7.5-97.32 23.58-23.7 45.64-23.7 95.5a186.66 186.66 0 0 1-10 60.69h-4l.17-.48a183 183 0 0 0 10-60.21c0-50.93 7.65-81.2 24.8-98.14s48.8-24.67 100-24.67 82.9 7.84 100 24.67 24.8 47.2 24.8 98.14a183.82 183.82 0 0 0 54.16 130.51 187.62 187.62 0 0 0 130.91 55.42h3.5a185.74 185.74 0 0 0 132.2-317.73c-35.4-35-82.6-54.2-132.84-54.2-51.16 0-82.92-7.84-99.95-24.67s-24.8-47.2-24.8-98.15c0-102.5-84.28-185.9-187.87-185.9h-.73a186.67 186.67 0 0 0-132 54.18 184.71 184.71 0 0 0-55.25 131.76c0 50.92-7.66 81.2-24.82 98.15s-48.8 24.67-100 24.67h-.68a186.83 186.83 0 0 0-187.22 186 183.42 183.42 0 0 0 10.1 60.21l.17.48h-4a188.35 188.35 0 0 1 46.32-195.12 190.41 190.41 0 0 1 134.58-55.26h.68c50.1 0 81-7.5 97.32-23.58s23.7-45.65 23.7-95.5a188.43 188.43 0 0 1 56.37-134.42 190.41 190.41 0 0 1 134.58-55.26h.68c105.65 0 191.6 85.07 191.6 189.63 0 49.85 7.3 79.3 23.7 95.5s47.2 23.58 97.33 23.58c51.24 0 99.35 19.64 135.46 55.3a189.87 189.87 0 0 1 56.4 134.38zm604.57-429.94l-.57.67a183.77 183.77 0 0 0-44.26 120c0 50.94-7.65 81.2-24.8 98.15s-48.8 24.67-99.94 24.67h-.65a186.59 186.59 0 0 0-131.94 54.2 184.72 184.72 0 0 0-55.26 131.76c0 50.95-7.65 81.22-24.8 98.15s-48.8 24.67-99.95 24.67h-.6a186.62 186.62 0 0 0-132 54.24 183.71 183.71 0 0 0-27.41 34.08h-4.4l.46-.76a187.79 187.79 0 0 1 28.73-36 190.3 190.3 0 0 1 134.61-55.32h.6c50.1 0 81-7.5 97.33-23.58s23.7-45.63 23.7-95.5a188.42 188.42 0 0 1 56.38-134.42 190.35 190.35 0 0 1 134.57-55.26h.64c50.1 0 81-7.5 97.32-23.58S2756 510 2756 460.1a187.44 187.44 0 0 1 45.46-122.79l1.4-1.6zm144.85 310.4h-2.15c-49.92 0-80.74 7.52-97 23.58s-23.7 45.64-23.7 95.48a190.58 190.58 0 0 1-190.94 189.69h-.64c-47.94 0-78.23 6.83-95.06 21.5h-5.48l1.07-1c17.16-16.5 48.77-24.2 99.47-24.2h.65a186.63 186.63 0 0 0 131.94-54.18 184.7 184.7 0 0 0 55.26-131.77c0-50.92 7.65-81.2 24.8-98.14 16.95-16.74 48.46-24.58 99.15-24.66h.87z"/></g></svg>