<svg id="Layer_1" data-name="Layer 1" xmlns="http://www.w3.org/2000/svg" xmlns:xlink="http://www.w3.org/1999/xlink" viewBox="0 0 3700.08 1000.08"><defs><radialGradient id="radial-gradient" cx="-4399.01" cy="-3242.24" r="26.2" gradientTransform="matrix(82.45, 0, 0, -82.45, 364637.89, -266703.07)" gradientUnits="userSpaceOnUse"><stop offset="0" stop-color="#4a90e2"/><stop offset="0.51" stop-color="#a5c8f1"/><stop offset="1" stop-color="#fff"/></radialGradient><linearGradient id="linear-gradient" x1="-4502.69" y1="-3469.39" x2="-4503.69" y2="-3470.39" gradientTransform="matrix(500, 0, 0, -500, 2251936.36, -1734444.15)" gradientUnits="userSpaceOnUse"><stop offset="0" stop-color="#2020b5"/><stop offset="1" stop-color="#2677ff"/></linearGradient><linearGradient id="linear-gradient-2" x1="-4502.66" y1="-3469.39" x2="-4503.66" y2="-3470.39" gradientTransform="matrix(500, 0, 0, -500, 2254954.36, -1734442.9)" xlink:href="#linear-gradient"/><linearGradient id="linear-gradient-3" x1="-4501.87" y1="-3547.12" x2="-4504.01" y2="-3547.14" gradientTransform="matrix(489.66, 0, 0, -44.25, 2208335.48, -156038.37)" xlink:href="#linear-gradient"/><linearGradient id="linear-gradient-4" x1="-4480.65" y1="-3516.65" x2="-4481.65" y2="-3516.83" gradientTransform="matrix(162.79, 0, 0, -68.99, 732850, -242536.35)" xlink:href="#linear-gradient"/></defs><title>paperwalletemptyF</title><polygon points="1600.04 0.03 3700.08 0.03 3700.08 1000.05 1600.04 1000.05 1600.04 850.05 1600.03 850.05 1600.03 850.04 0 850.04 0 150.03 1600.03 150.03 1600.04 150.03 1600.04 0.03" style="fill-rule:evenodd;fill:url(#radial-gradient)"/><polygon points="2377.73 0.03 2379.13 289.32 2395.33 0.03 2402.61 0.03 2389.21 289.83 2420.35 0.03 2427.64 0.03 2399.25 290.86 2445.62 0.03 2452.93 0.03 2409.23 292.4 2471.3 0.03 2478.63 0.03 2419.11 294.45 2497.52 0.03 2504.88 0.03 2428.88 297 2524.45 0.03 2531.84 0.03 2438.5 300.05 2552.26 0.03 2559.69 0.03 2447.95 303.58 2581.16 0.03 2588.63 0.03 2457.21 307.59 2611.36 0.03 2618.87 0.03 2466.26 312.07 2643.14 0.03 2650.69 0.03 2475.06 317 2676.79 0.03 2684.38 0.03 2483.6 322.38 2712.69 0.03 2720.3 0.03 2491.86 328.19 2751.27 0.03 2758.9 0.03 2499.8 334.4 2793.09 0.03 2800.7 0.03 2507.43 341.02 2838.81 0.03 2846.36 0.03 2514.7 348.02 2889.29 0.03 2896.73 0.03 2521.6 355.38 2945.62 0.03 2952.87 0.03 2528.12 363.09 3009.24 0.03 3016.18 0.03 2534.24 371.11 3082.09 0.03 3088.52 0.03 2539.94 379.44 3166.8 0.03 3172.44 0.03 2545.21 388.05 3267.11 0.03 3271.52 0.03 2550.03 396.92 3388.48 0.03 3390.93 0.03 2554.39 406.02 3513.91 10.45 2558.28 415.33 3536.76 69.27 2561.7 424.83 3556.56 129.18 2564.62 434.49 3573.28 190.02 2567.05 444.29 3586.87 251.65 2568.97 454.19 3597.3 313.88 2570.38 464.19 3604.54 376.56 2571.28 474.24 3608.56 439.53 2571.67 484.33 3609.37 502.63 2571.54 494.42 3606.95 565.68 2570.89 504.49 3601.32 628.53 2569.74 514.52 3592.48 691.01 2568.07 524.47 3580.47 752.95 2565.89 534.32 3565.31 814.21 2563.22 544.06 3547.04 874.6 2560.05 553.64 3525.71 933.99 2556.4 563.05 3501.38 992.2 2552.27 572.26 3379.27 1000.05 3376.97 1000.05 2547.68 581.25 3264.99 1000.05 3260.93 1000.05 2542.63 589.99 3169.15 1000.05 3163.94 1000.05 2537.14 598.46 3087.22 1000.05 3081.25 1000.05 2531.24 606.64 3016.04 1000.05 3009.58 1000.05 2524.91 614.51 2953.32 1000.05 2946.53 1000.05 2518.2 622.04 2897.36 1000.05 2890.37 1000.05 2511.11 629.22 2846.89 1000.05 2839.77 1000.05 2503.66 636.03 2800.9 1000.05 2793.71 1000.05 2495.87 642.45 2758.62 1000.05 2751.4 1000.05 2487.77 648.47 2719.42 1000.05 2712.19 1000.05 2479.37 654.06 2682.79 1000.05 2675.56 1000.05 2470.69 659.22 2648.31 1000.05 2641.11 1000.05 2461.76 663.93 2615.65 1000.05 2608.47 1000.05 2452.61 668.17 2584.5 1000.05 2577.34 1000.05 2443.25 671.95 2554.6 1000.05 2547.47 1000.05 2433.7 675.24 2525.74 1000.05 2518.64 1000.05 2424.01 678.03 2497.72 1000.05 2490.64 1000.05 2414.18 680.33 2470.36 1000.05 2463.3 1000.05 2404.25 682.13 2443.5 1000.05 2436.46 1000.05 2394.24 683.42 2417 1000.05 2409.97 1000.05 2384.18 684.19 2390.71 1000.05 2383.68 1000.05 2374.09 684.45 2364.49 1000.05 2357.47 1000.05 2364 684.19 2338.2 1000.05 2331.17 1000.05 2353.93 683.42 2311.71 1000.05 2304.67 1000.05 2343.92 682.13 2284.87 1000.05 2277.82 1000.05 2333.99 680.33 2257.53 1000.05 2250.46 1000.05 2324.17 678.03 2229.54 1000.05 2222.44 1000.05 2314.47 675.24 2200.7 1000.05 2193.58 1000.05 2304.93 671.95 2170.83 1000.05 2163.68 1000.05 2295.57 668.17 2139.7 1000.05 2132.53 1000.05 2286.41 663.93 2107.06 1000.05 2099.86 1000.05 2277.48 659.22 2072.61 1000.05 2065.38 1000.05 2268.81 654.06 2035.99 1000.05 2028.76 1000.05 2260.4 648.47 1996.78 1000.05 1989.55 1000.05 2252.3 642.45 1954.46 1000.05 1947.27 1000.05 2244.51 636.03 1908.4 1000.05 1901.29 1000.05 2237.07 629.22 1857.8 1000.05 1850.81 1000.05 2229.98 622.04 1801.64 1000.05 1794.86 1000.05 2223.26 614.51 1738.59 1000.05 1732.14 1000.05 2216.94 606.64 1666.92 1000.05 1660.96 1000.05 2211.03 598.46 1600.04 989.93 1600.04 986.3 2205.54 589.99 1600.04 935.66 1600.04 931.83 2200.49 581.25 1600.04 884.49 1600.04 880.49 2195.9 572.26 1568.09 850.04 1559.83 850.04 2191.77 563.05 1441.81 850.04 1435.58 850.04 2188.12 553.64 1276.64 850.04 1274.22 850.04 2184.95 544.06 1182.87 814.21 2182.28 534.32 1167.7 752.95 2180.11 524.47 1155.69 691.01 2178.44 514.52 1146.86 628.53 2177.28 504.49 1141.22 565.68 2176.63 494.42 1138.81 502.63 2176.51 484.33 1139.61 439.53 2176.89 474.24 1143.64 376.56 2177.79 464.19 1150.87 313.88 2179.21 454.2 1161.3 251.65 2181.13 444.29 1174.89 190.02 2183.55 434.49 1259.37 150.03 1261.79 150.03 2186.48 424.83 1432.9 150.03 1439.77 150.03 2189.89 415.33 1563.71 150.03 1572.84 150.03 2193.78 406.02 1600.04 117.86 1600.04 113.8 2198.14 396.92 1600.04 67.9 1600.04 63.98 2202.97 388.05 1600.04 15.06 1600.04 11.32 2208.23 379.44 1659.65 0.03 1666.09 0.03 2213.93 371.11 1731.99 0.03 1738.93 0.03 2220.05 363.09 1795.3 0.03 1802.56 0.03 2226.57 355.38 1851.44 0.03 1858.89 0.03 2233.47 348.02 1901.81 0.03 1909.36 0.03 2240.75 341.02 1947.48 0.03 1955.08 0.03 2248.37 334.4 1989.28 0.03 1996.9 0.03 2256.31 328.19 2027.88 0.03 2035.49 0.03 2264.57 322.38 2063.8 0.03 2071.38 0.03 2273.11 317 2097.49 0.03 2105.03 0.03 2281.91 312.07 2129.3 0.03 2136.81 0.03 2290.96 307.59 2159.55 0.03 2167.02 0.03 2300.22 303.58 2188.48 0.03 2195.91 0.03 2309.68 300.05 2216.34 0.03 2223.72 0.03 2319.3 297 2243.3 0.03 2250.66 0.03 2329.06 294.45 2269.54 0.03 2276.87 0.03 2338.95 292.4 2295.24 0.03 2302.55 0.03 2348.92 290.86 2320.53 0.03 2327.83 0.03 2358.96 289.83 2345.56 0.03 2352.84 0.03 2369.04 289.32 2370.45 0.03 2377.73 0.03" style="fill:#1e7be6;fill-rule:evenodd"/><path d="M2883.22,906.56H1864.84a121.89,121.89,0,0,1-121.9-121.92l.08-575.19A121.94,121.94,0,0,1,1865,87.53H2883.34a121.9,121.9,0,0,1,121.9,121.92l-.08,575.19A122,122,0,0,1,2883.22,906.56Z" style="fill:#fff"/><path d="M2874.11,873H1873.94a98.59,98.59,0,0,1-98.59-98.62l.08-554.62a98.63,98.63,0,0,1,98.63-98.61H2874.23a98.6,98.6,0,0,1,98.6,98.61l-.09,554.62A98.62,98.62,0,0,1,2874.12,873Z" style="fill:#3d6dc1;stroke:#3d6dc1;stroke-miterlimit:2.6131300926208496;stroke-width:0.15733672859886466px"/><path d="M2874.11,873H1873.94a98.59,98.59,0,0,1-98.59-98.62l.08-554.62a98.63,98.63,0,0,1,98.63-98.61H2874.23a98.6,98.6,0,0,1,98.6,98.61l-.09,554.62A98.62,98.62,0,0,1,2874.12,873Z" style="fill:#fff"/><path d="M2874.11,878.41H1873.94a104,104,0,0,1-104-104l.09-554.63a104.08,104.08,0,0,1,104.07-104H2874.24a104,104,0,0,1,104,104l-.08,554.63a104.08,104.08,0,0,1-104.08,104ZM1874,867.53H2874.12a93.19,93.19,0,0,0,93.18-93.17l.09-554.63a93.16,93.16,0,0,0-93.16-93.17H1874.06a93.17,93.17,0,0,0-93.18,93.17l-.09,554.63A93.16,93.16,0,0,0,1874,867.53Z" style="fill:#4a90e2"/><path d="M1780.86,310.88c179.8,10.82,380.92,18.85,593.23,18.85s413.46-8,593.28-18.85v-102c0-22.74-10.42-43.33-27.27-58.24s-40.15-24.12-65.88-24.12H1874.06c-25.73,0-49,9.22-65.89,24.12s-27.29,35.5-27.3,58.24v102Z" style="fill:#4a90e2;stroke:#4a90e2;stroke-miterlimit:2.6131300926208496;stroke-width:0.15733672859886466px"/><g id="_1933607174800" data-name=" 1933607174800"><path d="M2019.54,227.87a20.77,20.77,0,1,1-41.53,0c0-15.57-5.18-20.76-20.76-20.76s-20.76,5.19-20.76,20.76a20.77,20.77,0,1,1-20.76-20.76c15.57,0,20.76-5.19,20.76-20.77a20.76,20.76,0,0,1,41.52,0c0,15.58,5.2,20.77,20.77,20.77A20.7,20.7,0,0,1,2019.54,227.87Z" style="fill:#619fe6;fill-rule:evenodd"/><path d="M1894.83,269.46a20.76,20.76,0,1,0-20.76,20.77A20.75,20.75,0,0,0,1894.83,269.46Z" style="fill:#619fe6;fill-rule:evenodd"/><path d="M2144.32,186.28A20.75,20.75,0,0,1,2123.55,207c-15.57,0-20.76,5.19-20.76,20.77A20.75,20.75,0,0,1,2082,248.57c-15.57,0-20.76,5.19-20.76,20.76a20.77,20.77,0,1,1-20.76-20.76c15.57,0,20.76-5.19,20.76-20.76A20.76,20.76,0,0,1,2082,207c15.58,0,20.77-5.19,20.77-20.76a20.77,20.77,0,0,1,41.53,0Z" style="fill:#619fe6;fill-rule:evenodd"/></g><g id="_1933607177712" data-name=" 1933607177712"><path d="M2765,227.87a20.77,20.77,0,1,1-41.53,0c0-15.57-5.19-20.76-20.76-20.76S2682,212.3,2682,227.87a20.77,20.77,0,1,1-20.76-20.76c15.57,0,20.76-5.19,20.76-20.77a20.76,20.76,0,0,1,41.52,0c0,15.58,5.2,20.77,20.77,20.77A20.7,20.7,0,0,1,2765,227.87Z" style="fill:#619fe6;fill-rule:evenodd"/><path d="M2640.32,269.46a20.76,20.76,0,1,0-20.76,20.77A20.75,20.75,0,0,0,2640.32,269.46Z" style="fill:#619fe6;fill-rule:evenodd"/><path d="M2889.81,186.28A20.75,20.75,0,0,1,2869,207c-15.57,0-20.76,5.19-20.76,20.77a20.75,20.75,0,0,1-20.77,20.76c-15.57,0-20.76,5.19-20.76,20.76A20.77,20.77,0,1,1,2786,248.57c15.57,0,20.76-5.19,20.76-20.76A20.76,20.76,0,0,1,2827.51,207c15.58,0,20.77-5.19,20.77-20.76a20.77,20.77,0,0,1,41.53,0Z" style="fill:#619fe6;fill-rule:evenodd"/></g><path d="M2204.57,233V152.67h10.65v33.09h41.51V152.67h10.65V233h-10.65v-37.8h-41.51V233Zm80.78,0V152.67h58v9.43H2296v24.67h44.31v9.43H2296v27.36h49.24V233h-59.89Zm74.14,0V152.67h10.65v70.89h39.49V233Zm62.38,0V152.67h10.65v70.89H2472V233Zm59.58-39.09q0-20,10.75-31.27t27.72-11.29a38.58,38.58,0,0,1,20.06,5.3,34.64,34.64,0,0,1,13.61,14.81,47.87,47.87,0,0,1,4.7,21.52,47.23,47.23,0,0,1-4.94,21.84,33.52,33.52,0,0,1-14,14.58,40,40,0,0,1-19.51,5,38.11,38.11,0,0,1-20.28-5.47,35.24,35.24,0,0,1-13.54-14.94,45.1,45.1,0,0,1-4.6-20Zm11,.19q0,14.49,7.8,22.82a27.25,27.25,0,0,0,39.31-.07q7.74-8.4,7.74-23.89a41.16,41.16,0,0,0-3.3-17.09,25.53,25.53,0,0,0-9.69-11.31,26.4,26.4,0,0,0-14.32-4,27.17,27.17,0,0,0-19.4,7.74q-8.13,7.74-8.13,25.81Z" style="fill:#fff"/><path d="M2204.41,295.13V258.84h5.52V264a12.76,12.76,0,0,1,4.54-4.27,12.6,12.6,0,0,1,6.44-1.62,12,12,0,0,1,6.6,1.66,9,9,0,0,1,3.63,4.68c2.89-4.24,6.63-6.34,11.24-6.34q5.43,0,8.34,3t2.92,9.2v24.88h-6.15V272.29a16.77,16.77,0,0,0-.61-5.31,5.11,5.11,0,0,0-2.18-2.61,6.8,6.8,0,0,0-3.7-1,8.64,8.64,0,0,0-6.37,2.54q-2.53,2.55-2.53,8.15v21.06h-6.16V271.58q0-4.09-1.5-6.15c-1-1.36-2.64-2.05-4.92-2.05a8.91,8.91,0,0,0-4.79,1.36,7.75,7.75,0,0,0-3.19,4,22.78,22.78,0,0,0-1,7.58v18.81Zm58,13.95-.7-5.68a14,14,0,0,0,3.52.55,6.82,6.82,0,0,0,3.29-.69,5.71,5.71,0,0,0,2-1.91,31,31,0,0,0,1.87-4.6c.12-.33.29-.84.55-1.5l-13.78-36.41h6.58l7.57,21c1,2.64,1.86,5.44,2.65,8.38a83.81,83.81,0,0,1,2.53-8.17l7.74-21.17h6.14l-13.72,36.93a71.64,71.64,0,0,1-3.46,8.2,12.09,12.09,0,0,1-3.77,4.44,9,9,0,0,1-5.06,1.41,12.66,12.66,0,0,1-4-.74Zm54.68-13.95V258.84h5.52V264a13.05,13.05,0,0,1,11.53-5.92,15.14,15.14,0,0,1,6,1.17,9.52,9.52,0,0,1,4.12,3.1,11.74,11.74,0,0,1,1.91,4.53,36.21,36.21,0,0,1,.34,6v22.29h-6.16V273.09a16.5,16.5,0,0,0-.71-5.62,6,6,0,0,0-2.54-3,8,8,0,0,0-4.28-1.11,9.93,9.93,0,0,0-6.76,2.49q-2.84,2.49-2.84,9.46v19.8h-6.15Zm62.6-4.54a23.36,23.36,0,0,1-6.6,4.11,18.78,18.78,0,0,1-6.8,1.2c-4,0-7.05-1-9.19-2.91a9.57,9.57,0,0,1-3.22-7.44,10,10,0,0,1,1.21-4.86,10.21,10.21,0,0,1,3.18-3.52,15.17,15.17,0,0,1,4.43-2,47.35,47.35,0,0,1,5.48-.92,55.42,55.42,0,0,0,11-2.11c0-.84,0-1.37,0-1.6,0-2.49-.59-4.25-1.75-5.28-1.58-1.39-3.92-2.07-7-2.07-2.9,0-5.05.51-6.42,1.52s-2.4,2.81-3.06,5.4l-6-.84a14.88,14.88,0,0,1,2.7-6.24,11.9,11.9,0,0,1,5.46-3.66,24.35,24.35,0,0,1,8.25-1.29,21.64,21.64,0,0,1,7.57,1.1,9.92,9.92,0,0,1,4.28,2.75,9.77,9.77,0,0,1,1.92,4.2,35.2,35.2,0,0,1,.3,5.65v8.16a87.69,87.69,0,0,0,.39,10.83,14.05,14.05,0,0,0,1.5,4.38h-6.43a13.49,13.49,0,0,1-1.19-4.55Zm-.49-13.64a45,45,0,0,1-10.07,2.31,23.34,23.34,0,0,0-5.38,1.22,5.45,5.45,0,0,0-2.43,2,5.23,5.23,0,0,0-.86,2.92,5.17,5.17,0,0,0,1.86,4.07,8.13,8.13,0,0,0,5.46,1.63,12.71,12.71,0,0,0,6.33-1.55,9.63,9.63,0,0,0,4.07-4.22,14.77,14.77,0,0,0,1-6.12l0-2.24Zm15.68,18.18V258.84h5.52V264a12.8,12.8,0,0,1,11-5.89,12,12,0,0,1,6.6,1.66,9,9,0,0,1,3.63,4.68c2.89-4.24,6.63-6.34,11.24-6.34q5.43,0,8.34,3t2.92,9.2v24.88h-6.15V272.29a16.77,16.77,0,0,0-.61-5.31,5.11,5.11,0,0,0-2.18-2.61,6.82,6.82,0,0,0-3.7-1,8.64,8.64,0,0,0-6.37,2.54q-2.54,2.55-2.53,8.15v21.06h-6.16V271.58q0-4.09-1.5-6.15c-1-1.36-2.65-2.05-4.92-2.05a8.91,8.91,0,0,0-4.79,1.36,7.75,7.75,0,0,0-3.19,4,22.52,22.52,0,0,0-1,7.58v18.81h-6.15Zm83-11.75,6.36.84a15.31,15.31,0,0,1-5.55,8.61,16.71,16.71,0,0,1-10.36,3.07q-7.93,0-12.59-4.9t-4.65-13.72q0-9.12,4.7-14.17a15.89,15.89,0,0,1,12.2-5.05,15.43,15.43,0,0,1,11.85,4.95q4.6,5,4.61,13.91c0,.36,0,.91,0,1.63h-27q.35,6,3.37,9.14a10.06,10.06,0,0,0,7.57,3.17,9.34,9.34,0,0,0,5.76-1.78,11.92,11.92,0,0,0,3.79-5.7Zm-20.14-9.86h20.2c-.26-3-1-5.33-2.32-6.86a9.36,9.36,0,0,0-7.59-3.56,9.73,9.73,0,0,0-7.11,2.84A11.26,11.26,0,0,0,2457.72,273.52Zm53.7-21.47v-7h6.16v7Zm0,43.08v-36.3h6.16v36.3Zm13.09-10.84,6.09-1a8.49,8.49,0,0,0,2.86,5.61,10,10,0,0,0,6.55,1.94c2.83,0,4.92-.57,6.3-1.72a5.15,5.15,0,0,0,2.05-4.05,3.72,3.72,0,0,0-1.84-3.28,28.19,28.19,0,0,0-6.29-2.08,57.19,57.19,0,0,1-9.36-2.94,9,9,0,0,1-5.3-8.3,9.33,9.33,0,0,1,1.11-4.49,10,10,0,0,1,3-3.42,12.57,12.57,0,0,1,3.9-1.78,18.55,18.55,0,0,1,5.3-.74,20.7,20.7,0,0,1,7.49,1.24,10.2,10.2,0,0,1,4.77,3.33,13.41,13.41,0,0,1,2.11,5.65l-6,.84a6.7,6.7,0,0,0-2.36-4.43,8.52,8.52,0,0,0-5.54-1.59q-4.21,0-6,1.4a4.09,4.09,0,0,0-1.81,3.27,3.42,3.42,0,0,0,.75,2.16,5.44,5.44,0,0,0,2.35,1.63c.62.23,2.41.76,5.42,1.58a76.77,76.77,0,0,1,9.09,2.84,9.33,9.33,0,0,1,4.06,3.22,9,9,0,0,1,1.47,5.25,10.22,10.22,0,0,1-1.79,5.77,11.65,11.65,0,0,1-5.18,4.2,18.89,18.89,0,0,1-7.66,1.48q-7.05,0-10.78-2.92t-4.73-8.69Z" style="fill:#fff"/><rect x="99.21" y="257.21" width="483.66" height="483.66" style="fill:#fff"/><path id="Rectangle" d="M111,259a10,10,0,0,0-10,10V729a10,10,0,0,0,10,10H571a10,10,0,0,0,10-10V269a10,10,0,0,0-10-10Zm0-10H571a20,20,0,0,1,20,20V729a20,20,0,0,1-20,20H111a20,20,0,0,1-20-20V269A20,20,0,0,1,111,249Z" style="fill:url(#linear-gradient)"/><g style="isolation:isolate"><path d="M202.7,202.84h13q4.6,0,7.16,2.32a9.48,9.48,0,0,1,0,13q-2.55,2.32-7.16,2.32h-6.72V231H202.7Zm12.16,12.88q4.68,0,4.68-4a3.83,3.83,0,0,0-1.16-3.08,5.25,5.25,0,0,0-3.52-1h-5.92v8.12Z" style="fill:#2677ff"/><path d="M253.86,231h-6.8l-4.88-9a3.87,3.87,0,0,0-1.44-1.5,4.32,4.32,0,0,0-2.12-.46h-3.08v11h-6.16v-28.2h13q5,0,7.5,2.18a7.82,7.82,0,0,1,2.54,6.3,8.14,8.14,0,0,1-1.78,5.36,8.48,8.48,0,0,1-5,2.84,6.17,6.17,0,0,1,3.72,3.16Zm-8.56-16.62a4.23,4.23,0,0,0,0-5.9,6.46,6.46,0,0,0-3.88-.92h-6v7.76h6A6.3,6.3,0,0,0,245.3,214.42Z" style="fill:#2677ff"/><path d="M257.38,231v-28.2h6.24V231Z" style="fill:#2677ff"/><path d="M289.82,202.84h6.32L283.46,231h-5l-12.72-28.2h6.48l8.8,20.44Z" style="fill:#2677ff"/><path d="M317,231l-2.68-6.24H301.18L298.5,231h-6.28l13-28.2h5l13,28.2Zm-13.76-11h9l-4.52-10.56Z" style="fill:#2677ff"/><path d="M328.38,231V207.92h-8.84v-5.08h23.92v5.08h-8.84V231Z" style="fill:#2677ff"/><path d="M346.7,231v-28.2h19.44v4.84H352.78v6.6h12.56v4.84H352.78v7.08h13.36V231Z" style="fill:#2677ff"/><path d="M385.22,230.54a14.65,14.65,0,0,1-4.92-2.38l2-4.44a15.68,15.68,0,0,0,9.16,2.84,7.94,7.94,0,0,0,4.06-.86,2.65,2.65,0,0,0,1.42-2.38,2.34,2.34,0,0,0-1.3-2.12,17.34,17.34,0,0,0-4.62-1.48,25.76,25.76,0,0,1-5.94-1.84,7.78,7.78,0,0,1-3.24-2.66,7,7,0,0,1-1-3.9,7.64,7.64,0,0,1,1.42-4.56,9.49,9.49,0,0,1,4-3.14,14.44,14.44,0,0,1,5.92-1.14,18.92,18.92,0,0,1,5.78.88,11.85,11.85,0,0,1,4.42,2.36l-2,4.44a13.64,13.64,0,0,0-8.16-2.84,6.77,6.77,0,0,0-3.84.94,3,3,0,0,0-1.4,2.58,2.31,2.31,0,0,0,.54,1.58,4.52,4.52,0,0,0,1.8,1.1,27.89,27.89,0,0,0,3.58,1c3.63.8,6.23,1.83,7.82,3.08a6.25,6.25,0,0,1,2.38,5.2,7.44,7.44,0,0,1-3.08,6.3q-3.08,2.29-8.6,2.3A22.09,22.09,0,0,1,385.22,230.54Z" style="fill:#2677ff"/><path d="M407.5,231v-28.2h19.44v4.84H413.58v6.6h12.56v4.84H413.58v7.08h13.36V231Z" style="fill:#2677ff"/><path d="M431.18,231v-28.2h19.44v4.84H437.26v6.6h12.56v4.84H437.26v7.08h13.36V231Z" style="fill:#2677ff"/><path d="M454.86,202.84h11a17.34,17.34,0,0,1,7.92,1.68,11.71,11.71,0,0,1,5.08,4.84,15.36,15.36,0,0,1,1.76,7.56,15.58,15.58,0,0,1-1.74,7.58,11.6,11.6,0,0,1-5.06,4.86,17.45,17.45,0,0,1-8,1.68h-11ZM465.38,226q9,0,9-9.08t-9-9H461.1V226Z" style="fill:#2677ff"/></g><g id="DO-NOT-SHARE-THIS-WI" style="isolation:isolate"><g style="isolation:isolate"><path d="M103.76,772.71h7.12A11.25,11.25,0,0,1,116,773.8a7.61,7.61,0,0,1,3.3,3.15,9.88,9.88,0,0,1,1.15,4.91,10.17,10.17,0,0,1-1.13,4.93,7.56,7.56,0,0,1-3.29,3.16,11.35,11.35,0,0,1-5.18,1.09h-7.12Zm6.84,15c3.9,0,5.85-2,5.85-5.9s-2-5.87-5.85-5.87h-2.78v11.77Z" style="fill:#2677ff"/><path d="M127.25,790.12a7.88,7.88,0,0,1-3.11-3.28,11.92,11.92,0,0,1,0-10,7.77,7.77,0,0,1,3.11-3.26,10.45,10.45,0,0,1,9.49,0,7.77,7.77,0,0,1,3.11,3.26,11.92,11.92,0,0,1,0,10,7.88,7.88,0,0,1-3.11,3.28,10.36,10.36,0,0,1-9.49,0Zm8.35-3.6a7.27,7.27,0,0,0,1.31-4.66,7.19,7.19,0,0,0-1.3-4.64,4.87,4.87,0,0,0-7.22,0,9,9,0,0,0,0,9.3,4.36,4.36,0,0,0,3.59,1.61A4.42,4.42,0,0,0,135.6,786.52Z" style="fill:#2677ff"/><path d="M163.35,772.71h3.8V791h-3L155,779.37V791h-3.76V772.71h3l9.12,11.62Z" style="fill:#2677ff"/><path d="M174.44,790.12a7.88,7.88,0,0,1-3.11-3.28,11.92,11.92,0,0,1,0-10,7.77,7.77,0,0,1,3.11-3.26,10.45,10.45,0,0,1,9.49,0,7.77,7.77,0,0,1,3.11,3.26,11.92,11.92,0,0,1,0,10,7.88,7.88,0,0,1-3.11,3.28,10.36,10.36,0,0,1-9.49,0Zm8.35-3.6a7.27,7.27,0,0,0,1.31-4.66,7.19,7.19,0,0,0-1.3-4.64,4.87,4.87,0,0,0-7.22,0,9,9,0,0,0,0,9.3,4.36,4.36,0,0,0,3.59,1.61A4.42,4.42,0,0,0,182.79,786.52Z" style="fill:#2677ff"/><path d="M194.4,791V776h-5.75v-3.3H204.2V776h-5.75v15Z" style="fill:#2677ff"/><path d="M216,790.72a9.64,9.64,0,0,1-3.2-1.55l1.3-2.89a10.18,10.18,0,0,0,5.95,1.85,5.13,5.13,0,0,0,2.64-.56,1.73,1.73,0,0,0,.93-1.55,1.52,1.52,0,0,0-.85-1.38,11.49,11.49,0,0,0-3-1,17.08,17.08,0,0,1-3.86-1.19,5.11,5.11,0,0,1-2.11-1.73,4.61,4.61,0,0,1-.66-2.54,5,5,0,0,1,.92-3,6.13,6.13,0,0,1,2.59-2,9.28,9.28,0,0,1,3.85-.74,12.35,12.35,0,0,1,3.75.57,7.68,7.68,0,0,1,2.88,1.53l-1.3,2.89a8.85,8.85,0,0,0-5.31-1.85,4.45,4.45,0,0,0-2.49.61,1.92,1.92,0,0,0-.91,1.68,1.48,1.48,0,0,0,.35,1,2.86,2.86,0,0,0,1.17.71,16.6,16.6,0,0,0,2.32.65,13,13,0,0,1,5.09,2,4.08,4.08,0,0,1,1.54,3.38,4.82,4.82,0,0,1-2,4.1,9.15,9.15,0,0,1-5.59,1.49A14.36,14.36,0,0,1,216,790.72Z" style="fill:#2677ff"/><path d="M242.86,772.71h4V791h-4v-7.7h-8.45V791h-4V772.71h4v7.41h8.45Z" style="fill:#2677ff"/><path d="M264.44,791,262.7,787h-8.53L252.43,791h-4.09l8.43-18.33H260L268.44,791Zm-8.95-7.12h5.88l-2.94-6.87Z" style="fill:#2677ff"/><path d="M285.86,791h-4.42l-3.17-5.85a2.38,2.38,0,0,0-.94-1,2.81,2.81,0,0,0-1.37-.3h-2V791h-4V772.71h8.42a7.29,7.29,0,0,1,4.88,1.42,5.09,5.09,0,0,1,1.65,4.09,5.32,5.32,0,0,1-1.16,3.49,5.54,5.54,0,0,1-3.26,1.84,4.06,4.06,0,0,1,2.42,2.06Zm-5.56-10.8a2.75,2.75,0,0,0,0-3.84,4.17,4.17,0,0,0-2.52-.6H273.9v5.05h3.88A4.16,4.16,0,0,0,280.3,780.24Z" style="fill:#2677ff"/><path d="M288.15,791V772.71h12.64v3.15H292.1v4.29h8.17v3.14H292.1v4.6h8.69V791Z" style="fill:#2677ff"/><path d="M315,791V776h-5.75v-3.3h15.55V776h-5.75v15Z" style="fill:#2677ff"/><path d="M339.34,772.71h4V791h-4v-7.7h-8.45V791h-4V772.71h4v7.41h8.45Z" style="fill:#2677ff"/><path d="M346.93,791V772.71H351V791Z" style="fill:#2677ff"/><path d="M357,790.72a9.49,9.49,0,0,1-3.19-1.55l1.29-2.89a10.21,10.21,0,0,0,6,1.85,5.18,5.18,0,0,0,2.64-.56,1.74,1.74,0,0,0,.92-1.55,1.53,1.53,0,0,0-.84-1.38,11.74,11.74,0,0,0-3-1,17.08,17.08,0,0,1-3.86-1.19,5.07,5.07,0,0,1-2.1-1.73,4.54,4.54,0,0,1-.67-2.54,5,5,0,0,1,.93-3,6,6,0,0,1,2.58-2,9.28,9.28,0,0,1,3.85-.74,12.46,12.46,0,0,1,3.76.57,7.71,7.71,0,0,1,2.87,1.53l-1.3,2.89a8.85,8.85,0,0,0-5.3-1.85,4.51,4.51,0,0,0-2.5.61,1.92,1.92,0,0,0-.91,1.68,1.53,1.53,0,0,0,.35,1,3,3,0,0,0,1.17.71,16.81,16.81,0,0,0,2.33.65,13,13,0,0,1,5.08,2,4.09,4.09,0,0,1,1.55,3.38,4.85,4.85,0,0,1-2,4.1,9.17,9.17,0,0,1-5.59,1.49A14.43,14.43,0,0,1,357,790.72Z" style="fill:#2677ff"/><path d="M401.59,772.71h3.84L398.91,791h-3.25l-4.24-12.14L387.13,791h-3.25l-6.5-18.33h4.11l4.18,12.66,4.45-12.66H393l4.29,12.79Z" style="fill:#2677ff"/><path d="M407.7,791V772.71h4.05V791Z" style="fill:#2677ff"/><path d="M419.6,791V776h-5.74v-3.3h15.55V776h-5.75v15Z" style="fill:#2677ff"/><path d="M443.94,772.71h4V791h-4v-7.7h-8.45V791h-4V772.71h4v7.41h8.45Z" style="fill:#2677ff"/><path d="M472.75,791,471,787h-8.53L460.74,791h-4.09l8.43-18.33h3.25L476.75,791Zm-8.95-7.12h5.88l-2.94-6.87Z" style="fill:#2677ff"/><path d="M490.37,772.71h3.8V791h-3L482,779.37V791h-3.77V772.71h3l9.12,11.62Z" style="fill:#2677ff"/><path d="M513.85,772.71l-7.59,10V791h-4.05v-8.29l-7.57-10h4.6l5,6.79,5-6.79Z" style="fill:#2677ff"/><path d="M516.93,790.12a7.79,7.79,0,0,1-3.1-3.28,11.82,11.82,0,0,1,0-10,7.69,7.69,0,0,1,3.1-3.26,10.45,10.45,0,0,1,9.49,0,7.71,7.71,0,0,1,3.11,3.26,11.92,11.92,0,0,1,0,10,7.82,7.82,0,0,1-3.11,3.28,10.36,10.36,0,0,1-9.49,0Zm8.35-3.6a7.27,7.27,0,0,0,1.31-4.66,7.19,7.19,0,0,0-1.3-4.64,4.86,4.86,0,0,0-7.21,0,9,9,0,0,0,0,9.3,4.37,4.37,0,0,0,3.59,1.61A4.42,4.42,0,0,0,525.28,786.52Z" style="fill:#2677ff"/><path d="M545.81,772.71h3.79V791h-3l-9.13-11.67V791h-3.77V772.71h3l9.13,11.62Z" style="fill:#2677ff"/><path d="M553.22,791V772.71h12.63v3.15h-8.68v4.29h8.16v3.14h-8.16v4.6h8.68V791Z" style="fill:#2677ff"/><path d="M576.2,785.11,575,772.68l4.83,0-1.24,12.4Zm-.91,1.77h4.21V791h-4.21Z" style="fill:#2677ff"/></g></g><rect x="3134.84" y="258.46" width="483.66" height="483.66" style="fill:#fff"/><path d="M3146.67,260.29a10,10,0,0,0-10,10v460a10,10,0,0,0,10,10h460a10,10,0,0,0,10-10v-460a10,10,0,0,0-10-10Zm0-10h460a20,20,0,0,1,20,20v460a20,20,0,0,1-20,20h-460a20,20,0,0,1-20-20v-460A20,20,0,0,1,3146.67,250.29Z" style="fill:url(#linear-gradient-2)"/><g id="PUBLIC-ADDRESS" style="isolation:isolate"><g style="isolation:isolate"><path d="M3204.25,197.34h13q4.61,0,7.16,2.32a9.48,9.48,0,0,1,0,13q-2.55,2.32-7.16,2.32h-6.72v10.6h-6.24Zm12.16,12.88q4.68,0,4.68-4a3.83,3.83,0,0,0-1.16-3.08,5.25,5.25,0,0,0-3.52-1h-5.92v8.12Z" style="fill:#2677ff"/><path d="M3233.87,222.84q-3.09-3.06-3.1-8.94V197.34h6.12v16.84a7.58,7.58,0,0,0,1.54,5.12,6.53,6.53,0,0,0,8.94,0,7.51,7.51,0,0,0,1.56-5.1V197.34h6.12V213.9q0,5.83-3.12,8.92t-9,3.08Q3237,225.9,3233.87,222.84Z" style="fill:#2677ff"/><path d="M3282.35,213.44a7,7,0,0,1,1.34,4.38,6.82,6.82,0,0,1-2.62,5.64,11.28,11.28,0,0,1-7.22,2.08h-13.4v-28.2h13a11.24,11.24,0,0,1,7,2,6.37,6.37,0,0,1,2.58,5.36,6.47,6.47,0,0,1-1.18,3.86,6.65,6.65,0,0,1-3.26,2.42A7,7,0,0,1,3282.35,213.44Zm-15.82-4.62h5.88A6.08,6.08,0,0,0,3276,208a2.88,2.88,0,0,0,1.14-2.5,3,3,0,0,0-1.14-2.58,6.08,6.08,0,0,0-3.54-.82h-5.88Zm10.2,11.12a3.17,3.17,0,0,0,1.12-2.72,3.29,3.29,0,0,0-1.12-2.76,5.8,5.8,0,0,0-3.6-.88h-6.6v7.2h6.6A6,6,0,0,0,3276.73,219.94Z" style="fill:#2677ff"/><path d="M3288,225.54v-28.2h6.24v23.12h12.6v5.08Z" style="fill:#2677ff"/><path d="M3310.45,225.54v-28.2h6.24v28.2Z" style="fill:#2677ff"/><path d="M3328,224.1a12.14,12.14,0,0,1-4.88-5.08,17.84,17.84,0,0,1,0-15.2,12,12,0,0,1,4.88-5.06,15,15,0,0,1,7.46-1.78,16.77,16.77,0,0,1,5.36.86,11.38,11.38,0,0,1,4.2,2.38l-2,4.44a13.46,13.46,0,0,0-3.66-2,11.2,11.2,0,0,0-3.78-.64,7.15,7.15,0,0,0-5.78,2.4c-1.34,1.6-2,4-2,7s.68,5.45,2,7.06a7.13,7.13,0,0,0,5.78,2.42,11.2,11.2,0,0,0,3.78-.64,13.46,13.46,0,0,0,3.66-2l2,4.44a11.38,11.38,0,0,1-4.2,2.38,16.77,16.77,0,0,1-5.36.86A14.9,14.9,0,0,1,3328,224.1Z" style="fill:#2677ff"/><path d="M3382,225.54l-2.68-6.24h-13.12l-2.68,6.24h-6.28l13-28.2h5l13,28.2Zm-13.76-11h9L3372.73,204Z" style="fill:#2677ff"/><path d="M3390.45,197.34h11a17.34,17.34,0,0,1,7.92,1.68,11.71,11.71,0,0,1,5.08,4.84,15.36,15.36,0,0,1,1.76,7.56,15.58,15.58,0,0,1-1.74,7.58,11.6,11.6,0,0,1-5.06,4.86,17.45,17.45,0,0,1-8,1.68h-11ZM3401,220.5q9,0,9-9.08t-9-9h-4.28V220.5Z" style="fill:#2677ff"/><path d="M3420.93,197.34h11a17.34,17.34,0,0,1,7.92,1.68,11.71,11.71,0,0,1,5.08,4.84,15.36,15.36,0,0,1,1.76,7.56,15.58,15.58,0,0,1-1.74,7.58,11.6,11.6,0,0,1-5.06,4.86,17.45,17.45,0,0,1-8,1.68h-11Zm10.52,23.16q9,0,9-9.08t-9-9h-4.28V220.5Z" style="fill:#2677ff"/><path d="M3475.89,225.54h-6.8l-4.88-9a3.87,3.87,0,0,0-1.44-1.5,4.35,4.35,0,0,0-2.12-.46h-3.08v11h-6.16v-28.2h13q5,0,7.5,2.18a7.85,7.85,0,0,1,2.54,6.3,8.14,8.14,0,0,1-1.78,5.36,8.51,8.51,0,0,1-5,2.84,6.17,6.17,0,0,1,3.72,3.16Zm-8.56-16.62a4.23,4.23,0,0,0,0-5.9,6.46,6.46,0,0,0-3.88-.92h-6v7.76h6A6.3,6.3,0,0,0,3467.33,208.92Z" style="fill:#2677ff"/><path d="M3479.41,225.54v-28.2h19.44v4.84h-13.36v6.6h12.56v4.84h-12.56v7.08h13.36v4.84Z" style="fill:#2677ff"/><path d="M3506.41,225a14.65,14.65,0,0,1-4.92-2.38l2-4.44a15.68,15.68,0,0,0,9.16,2.84,7.94,7.94,0,0,0,4.06-.86,2.65,2.65,0,0,0,1.42-2.38,2.34,2.34,0,0,0-1.3-2.12,17.34,17.34,0,0,0-4.62-1.48,25.76,25.76,0,0,1-5.94-1.84,7.78,7.78,0,0,1-3.24-2.66,7,7,0,0,1-1-3.9,7.64,7.64,0,0,1,1.42-4.56,9.49,9.49,0,0,1,4-3.14,14.44,14.44,0,0,1,5.92-1.14,18.92,18.92,0,0,1,5.78.88,11.85,11.85,0,0,1,4.42,2.36l-2,4.44a13.64,13.64,0,0,0-8.16-2.84,6.77,6.77,0,0,0-3.84.94,3,3,0,0,0-1.4,2.58,2.31,2.31,0,0,0,.54,1.58,4.52,4.52,0,0,0,1.8,1.1,27.89,27.89,0,0,0,3.58,1c3.63.8,6.23,1.83,7.82,3.08a6.25,6.25,0,0,1,2.38,5.2,7.44,7.44,0,0,1-3.08,6.3q-3.08,2.29-8.6,2.3A22.09,22.09,0,0,1,3506.41,225Z" style="fill:#2677ff"/><path d="M3532.41,225a14.56,14.56,0,0,1-4.92-2.38l2-4.44a15.68,15.68,0,0,0,9.16,2.84,7.94,7.94,0,0,0,4.06-.86,2.65,2.65,0,0,0,1.42-2.38,2.34,2.34,0,0,0-1.3-2.12,17.34,17.34,0,0,0-4.62-1.48,25.76,25.76,0,0,1-5.94-1.84,7.78,7.78,0,0,1-3.24-2.66,7,7,0,0,1-1-3.9,7.64,7.64,0,0,1,1.42-4.56,9.43,9.43,0,0,1,4-3.14,14.44,14.44,0,0,1,5.92-1.14,19,19,0,0,1,5.78.88,11.93,11.93,0,0,1,4.42,2.36l-2,4.44a13.64,13.64,0,0,0-8.16-2.84,6.77,6.77,0,0,0-3.84.94,2.94,2.94,0,0,0-1.4,2.58,2.31,2.31,0,0,0,.54,1.58,4.52,4.52,0,0,0,1.8,1.1,27.89,27.89,0,0,0,3.58,1q5.43,1.2,7.82,3.08a6.25,6.25,0,0,1,2.38,5.2,7.44,7.44,0,0,1-3.08,6.3q-3.08,2.29-8.6,2.3A22,22,0,0,1,3532.41,225Z" style="fill:#2677ff"/></g></g><path id="nanopaperwallet.com" d="M3146,910.24c2.93,0,5.12.83,6.55,2.5s2.15,4.18,2.15,7.55v15h-6.25V920.64a6.47,6.47,0,0,0-1.08-4.15,4.11,4.11,0,0,0-3.37-1.3,5.74,5.74,0,0,0-4.33,1.7,6.32,6.32,0,0,0-1.62,4.55v13.85h-6.25V910.84h6.1v3.65a8.39,8.39,0,0,1,3.35-3.15A10.11,10.11,0,0,1,3146,910.24Zm25.46,0q5.14,0,7.65,2.5c1.67,1.67,2.5,4.23,2.5,7.7v14.85h-6v-3.75a6.55,6.55,0,0,1-2.67,3.05,8.08,8.08,0,0,1-4.23,1.1,9.77,9.77,0,0,1-4.45-1,8,8,0,0,1-3.15-2.75,6.94,6.94,0,0,1-1.15-3.9,6.16,6.16,0,0,1,1.38-4.25,8.25,8.25,0,0,1,4.47-2.25,40.57,40.57,0,0,1,8.55-.7h1.25v-1.15a5,5,0,0,0-1.07-3.6,4.88,4.88,0,0,0-3.58-1.1,13.1,13.1,0,0,0-4.07.68,20.09,20.09,0,0,0-4.18,1.87l-1.75-4.3a21.43,21.43,0,0,1,10.45-3Zm-1.45,21a5.37,5.37,0,0,0,4.08-1.67,6.07,6.07,0,0,0,1.57-4.33v-1.05h-.9a34.49,34.49,0,0,0-5.2.3,5,5,0,0,0-2.65,1,2.68,2.68,0,0,0-.8,2,3.46,3.46,0,0,0,1.1,2.63A4,4,0,0,0,3170.05,931.19Zm32.06-21q4.41,0,6.55,2.5c1.44,1.67,2.15,4.18,2.15,7.55v15h-6.25V920.64a6.53,6.53,0,0,0-1.07-4.15,4.13,4.13,0,0,0-3.38-1.3,5.7,5.7,0,0,0-4.32,1.7,6.28,6.28,0,0,0-1.63,4.55v13.85h-6.25V910.84h6.1v3.65a8.45,8.45,0,0,1,3.35-3.15A10.14,10.14,0,0,1,3202.11,910.24Zm26.12,25.45a13.5,13.5,0,0,1-6.58-1.55,10.71,10.71,0,0,1-4.37-4.45,15.43,15.43,0,0,1,0-13.48,10.76,10.76,0,0,1,4.37-4.42,14.72,14.72,0,0,1,13.15,0,10.65,10.65,0,0,1,4.35,4.42,15.61,15.61,0,0,1,0,13.48,10.61,10.61,0,0,1-4.35,4.45A13.46,13.46,0,0,1,3228.23,935.69Zm-.05-4.85a5.59,5.59,0,0,0,4.64-2,11.56,11.56,0,0,0,0-11.77,5.46,5.46,0,0,0-4.59-2,5.57,5.57,0,0,0-4.63,2,9.2,9.2,0,0,0-1.62,5.87,9.33,9.33,0,0,0,1.59,5.9A5.58,5.58,0,0,0,3228.18,930.84Zm31.61-20.6a10.09,10.09,0,0,1,5.62,1.6,10.63,10.63,0,0,1,3.85,4.52,15.65,15.65,0,0,1,1.38,6.73,15.11,15.11,0,0,1-1.38,6.65,10.08,10.08,0,0,1-9.47,6,9.68,9.68,0,0,1-4.65-1.1,7.66,7.66,0,0,1-3.15-3.05v12.75h-6.25V910.84h6.15v3.7a7.65,7.65,0,0,1,3.17-3.18A9.78,9.78,0,0,1,3259.79,910.24Zm-1.65,20.6a5.61,5.61,0,0,0,4.6-2,8.87,8.87,0,0,0,1.65-5.73,9.35,9.35,0,0,0-1.65-5.9,6.17,6.17,0,0,0-9.23-.05,9.26,9.26,0,0,0-1.62,5.85,9.16,9.16,0,0,0,1.62,5.8A5.57,5.57,0,0,0,3258.14,930.84Zm28.06-20.6q5.15,0,7.65,2.5c1.67,1.67,2.5,4.23,2.5,7.7v14.85h-5.95v-3.75a6.52,6.52,0,0,1-2.68,3.05,8,8,0,0,1-4.22,1.1,9.77,9.77,0,0,1-4.45-1,8,8,0,0,1-3.15-2.75,6.94,6.94,0,0,1-1.15-3.9,6.2,6.2,0,0,1,1.37-4.25,8.33,8.33,0,0,1,4.48-2.25,40.57,40.57,0,0,1,8.55-.7h1.25v-1.15a5,5,0,0,0-1.08-3.6,4.84,4.84,0,0,0-3.57-1.1,13.21,13.21,0,0,0-4.08.68,20.25,20.25,0,0,0-4.17,1.87l-1.75-4.3a21.43,21.43,0,0,1,10.45-3Zm-1.45,21a5.34,5.34,0,0,0,4.07-1.67,6.07,6.07,0,0,0,1.58-4.33v-1.05h-.9a34.49,34.49,0,0,0-5.2.3,5,5,0,0,0-2.65,1,2.68,2.68,0,0,0-.8,2,3.46,3.46,0,0,0,1.1,2.63A4,4,0,0,0,3284.75,931.19Zm31.91-21a10.12,10.12,0,0,1,5.63,1.6,10.7,10.7,0,0,1,3.85,4.52,15.8,15.8,0,0,1,1.37,6.73,15.25,15.25,0,0,1-1.37,6.65,10.11,10.11,0,0,1-9.48,6,9.74,9.74,0,0,1-4.65-1.1,7.66,7.66,0,0,1-3.15-3.05v12.75h-6.25V910.84h6.15v3.7a7.62,7.62,0,0,1,3.18-3.18A9.71,9.71,0,0,1,3316.66,910.24Zm-1.65,20.6a5.6,5.6,0,0,0,4.6-2,8.87,8.87,0,0,0,1.65-5.73,9.35,9.35,0,0,0-1.65-5.9,6.16,6.16,0,0,0-9.22-.05,9.2,9.2,0,0,0-1.63,5.85,9.1,9.1,0,0,0,1.63,5.8A5.54,5.54,0,0,0,3315,930.84Zm39-6.65h-16.65a7.63,7.63,0,0,0,2.05,5,7,7,0,0,0,5,1.65,11.8,11.8,0,0,0,7.4-2.6l1.8,4.3a13.26,13.26,0,0,1-4.27,2.25,16.34,16.34,0,0,1-5.18.85q-6,0-9.47-3.4t-3.48-9.3a14.26,14.26,0,0,1,1.5-6.65,10.94,10.94,0,0,1,4.23-4.5,11.9,11.9,0,0,1,6.17-1.6,10.18,10.18,0,0,1,8,3.25q2.93,3.25,2.92,9Zm-10.75-9.55a5.28,5.28,0,0,0-4,1.6,7.81,7.81,0,0,0-1.88,4.6h11.3a7.1,7.1,0,0,0-1.5-4.63A5,5,0,0,0,3343.27,914.64Zm31.86.8-3.65.35q-6.2.65-6.2,6.3v13.2H3359V910.84H3365v4.3q1.91-4.39,7.85-4.8l1.9-.15Zm37.47-4.6h6.1l-9.6,24.45h-5.45l-6-15.75-5.85,15.75h-5.4l-9.65-24.45h6.4l6.25,17,6.25-17h4.5l6.25,17.1Zm19.86-.6q5.14,0,7.65,2.5c1.66,1.67,2.5,4.23,2.5,7.7v14.85h-6v-3.75a6.52,6.52,0,0,1-2.68,3.05,8,8,0,0,1-4.22,1.1,9.74,9.74,0,0,1-4.45-1,7.83,7.83,0,0,1-3.15-2.75A6.94,6.94,0,0,1,3421,928a6.2,6.2,0,0,1,1.37-4.25,8.33,8.33,0,0,1,4.48-2.25,40.44,40.44,0,0,1,8.55-.7h1.25v-1.15a5,5,0,0,0-1.08-3.6A4.86,4.86,0,0,0,3432,915a13.21,13.21,0,0,0-4.08.68,20,20,0,0,0-4.17,1.87l-1.75-4.3a21.43,21.43,0,0,1,10.45-3Zm-1.45,21a5.36,5.36,0,0,0,4.07-1.67,6.07,6.07,0,0,0,1.58-4.33v-1.05h-.9a34.4,34.4,0,0,0-5.2.3,5,5,0,0,0-2.65,1,2.65,2.65,0,0,0-.8,2,3.42,3.42,0,0,0,1.1,2.63A3.94,3.94,0,0,0,3431,931.19Zm17.86,4.1V900h6.25v35.25Zm12.61,0V900h6.25v35.25Zm34.06-11.1h-16.65a7.63,7.63,0,0,0,2.05,5,7,7,0,0,0,5,1.65,11.8,11.8,0,0,0,7.4-2.6l1.8,4.3a13.26,13.26,0,0,1-4.27,2.25,16.34,16.34,0,0,1-5.18.85q-6,0-9.47-3.4t-3.48-9.3a14.26,14.26,0,0,1,1.5-6.65,10.94,10.94,0,0,1,4.23-4.5,11.9,11.9,0,0,1,6.17-1.6,10.18,10.18,0,0,1,8,3.25q2.93,3.25,2.92,9Zm-10.75-9.55a5.28,5.28,0,0,0-4,1.6,7.81,7.81,0,0,0-1.88,4.6h11.3a7.1,7.1,0,0,0-1.5-4.63A5,5,0,0,0,3484.79,914.64ZM3512.7,931a18.48,18.48,0,0,0,2.3-.15l-.3,4.65c-1,.1-1.91.15-2.75.15q-5.14,0-7.6-2.37t-2.45-7.08V915.54h-4.7v-4.7h4.7v-7.3h6.25v7.3h6.45v4.7h-6.45v10.55Q3508.15,931,3512.7,931Zm6.32-2.6h7v6.9h-7Zm23.36,7.3a13.74,13.74,0,0,1-6.68-1.55,10.47,10.47,0,0,1-4.32-4.4,15.35,15.35,0,0,1,.07-13.38,11.08,11.08,0,0,1,4.48-4.52,13.58,13.58,0,0,1,6.7-1.6,15.94,15.94,0,0,1,5.07.83,10.62,10.62,0,0,1,4,2.22l-1.8,4.4a12,12,0,0,0-3.28-1.9,9.72,9.72,0,0,0-3.42-.65,6.37,6.37,0,0,0-5,2,10.24,10.24,0,0,0,0,11.6,6.43,6.43,0,0,0,5,2,9.72,9.72,0,0,0,3.42-.65,12,12,0,0,0,3.28-1.9l1.8,4.35a11.16,11.16,0,0,1-4.1,2.27A16.22,16.22,0,0,1,3542.38,935.69Zm24.31,0a13.53,13.53,0,0,1-6.58-1.55,10.71,10.71,0,0,1-4.37-4.45,15.43,15.43,0,0,1,0-13.48,10.76,10.76,0,0,1,4.37-4.42,14.72,14.72,0,0,1,13.15,0,10.53,10.53,0,0,1,4.35,4.42,15.61,15.61,0,0,1,0,13.48,10.49,10.49,0,0,1-4.35,4.45A13.46,13.46,0,0,1,3566.69,935.69Zm-.05-4.85a5.62,5.62,0,0,0,4.65-2q1.61-2,1.6-5.9a9.27,9.27,0,0,0-1.6-5.87,5.5,5.5,0,0,0-4.6-2,5.58,5.58,0,0,0-4.63,2,9.2,9.2,0,0,0-1.62,5.87q0,3.9,1.6,5.9A5.56,5.56,0,0,0,3566.64,930.84Zm46.61-20.6c2.77,0,4.83.82,6.2,2.47s2.05,4.18,2.05,7.58v15h-6.25V920.54a7,7,0,0,0-.95-4.08,3.55,3.55,0,0,0-3.05-1.27,4.77,4.77,0,0,0-3.9,1.7,7.29,7.29,0,0,0-1.4,4.75v13.65h-6.25V920.54a7.13,7.13,0,0,0-.92-4.08,3.56,3.56,0,0,0-3.08-1.27,4.73,4.73,0,0,0-3.85,1.7,7.29,7.29,0,0,0-1.4,4.75v13.65h-6.25V910.84h6.1v3.45a7.28,7.28,0,0,1,3-3,9.33,9.33,0,0,1,4.45-1q5.55,0,7.35,4.6a8.45,8.45,0,0,1,3.3-3.38A9.57,9.57,0,0,1,3613.25,910.24Z" style="fill:url(#linear-gradient-3)"/><path d="M3485.82,60.26h12.08q4.82,0,7.47,2.34a8.35,8.35,0,0,1,2.67,6.63,8.43,8.43,0,0,1-2.69,6.66,10.83,10.83,0,0,1-7.45,2.39h-8.52V90.79h-3.56Zm11.74,15.07q7,0,7-6.1t-7-6h-8.18V75.33Zm39.53,15.46L3533.71,83h-15.93l-3.38,7.84h-3.64l13.43-30.53h3.07l13.42,30.53ZM3519,80h13.42l-6.71-15.63Zm26.2-19.75h12.08q4.8,0,7.47,2.34a8.37,8.37,0,0,1,2.66,6.63,8.43,8.43,0,0,1-2.69,6.66,10.82,10.82,0,0,1-7.44,2.39h-8.53V90.79h-3.55ZM3557,75.33q7,0,7-6.1t-7-6h-8.18V75.33Zm16.19,15.46V60.26h19.31v3h-15.8V73.82h14.94v2.94h-14.94V87.84h15.8v3Zm49.23,0h-3.9L3613.29,81a5.64,5.64,0,0,0-2.23-2.44,7.52,7.52,0,0,0-3.49-.67h-5.71v12.9h-3.51V60.26h12.56q5,0,7.6,2.21t2.61,6.5a8.12,8.12,0,0,1-2,5.73,9.36,9.36,0,0,1-5.74,2.75,5.1,5.1,0,0,1,2.06,1.17,8.62,8.62,0,0,1,1.63,2.21ZM3610.6,74.94a8.13,8.13,0,0,0,5.31-1.47,5.49,5.49,0,0,0,1.75-4.46,5.35,5.35,0,0,0-1.73-4.37c-1.16-1-2.93-1.43-5.33-1.43h-8.74V74.94Zm-95.82,25.45h4.94l-8.38,23.53h-4.17l-5.44-15.59-5.5,15.59h-4.17l-8.35-23.53H3489l5.37,16.25,5.7-16.25h3.64l5.51,16.42Zm25.83,23.53-2.24-5.21h-10.94l-2.24,5.21H3520l10.82-23.53h4.17l10.81,23.53Zm-11.48-9.14h7.54L3532.9,106Zm18.59,9.14V100.39h5.21v19.29h10.51v4.24Zm18.79,0V100.39h5.2v19.29h10.52v4.24Zm18.79,0V100.39h16.21v4h-11.14v5.51h10.48v4h-10.48v5.91h11.14v4Zm25.22,0V104.63h-7.37v-4.24h19.95v4.24h-7.37v19.29Z" style="fill:#36363c"/><path d="M3390.85,90.54a11.62,11.62,0,0,1-23.23,0c0-8.62-2.91-11.49-11.62-11.49s-11.61,2.87-11.61,11.49a11.62,11.62,0,1,1-11.62-11.49c8.71,0,11.62-2.87,11.62-11.49a11.62,11.62,0,0,1,23.23,0c0,8.62,2.9,11.49,11.61,11.49A11.53,11.53,0,0,1,3390.85,90.54ZM3309.47,125a11.49,11.49,0,1,1,11.62-11.49A11.55,11.55,0,0,1,3309.47,125Zm151.17-57.5A11.54,11.54,0,0,1,3449,79c-8.71,0-11.62,2.88-11.62,11.49A11.54,11.54,0,0,1,3425.8,102c-8.71,0-11.62,2.87-11.62,11.49A11.62,11.62,0,1,1,3402.57,102c8.71,0,11.61-2.87,11.61-11.49A11.56,11.56,0,0,1,3425.8,79c8.71,0,11.61-2.87,11.61-11.48a11.62,11.62,0,0,1,23.23,0Z" style="fill:url(#linear-gradient-4)"/><path d="M3692.17,8.09V992.17h-2084v-150H8.09V158.1h1600V8.09h2084m8-8h-2100v150H.09V850.16h1600v150h2100V.09Z" style="fill:#4a90e2"/></svg>