<?xml version="1.0" encoding="UTF-8"?>
<svg width="435px" height="118px" viewBox="0 0 435 118" version="1.1" xmlns="http://www.w3.org/2000/svg" xmlns:xlink="http://www.w3.org/1999/xlink">
    <!-- Generator: Sketch 53.2 (72643) - https://sketchapp.com -->
    <title>Group 12 Copy 6</title>
    <desc>Created with Sketch.</desc>
    <g id="Page-1" stroke="none" stroke-width="1" fill="none" fill-rule="evenodd">
        <g id="desktop-copy" transform="translate(-250.000000, -1861.000000)">
            <g id="Group-12" transform="translate(250.000000, 1655.000000)">
                <g id="Group-13" transform="translate(0.000000, 206.000000)">
                    <g id="Group-12-Copy-6">
                        <path d="M188.108108,94.4 L93.3394011,94.4 C92.9479915,95.2628 92.4028051,96.0573225 91.7212831,96.7413513 L84.6422119,103.84646 C83.1410854,105.353108 81.1018042,106.2 78.9749829,106.2 L15.0790712,106.2 C12.9522499,106.2 10.9129687,105.353108 9.41184215,103.84646 L2.33277099,96.7413513 C0.838828023,95.2419134 -9.71794901e-15,93.2115344 -6.21724894e-15,91.0948909 L-4.4408921e-15,26.9051091 C-3.76012763e-15,24.7884656 0.838828023,22.7580866 2.33277099,21.2586487 L9.41184215,14.1535396 C10.9129687,12.6468917 12.9522499,11.8 15.0790712,11.8 L78.9749829,11.8 C81.1018042,11.8 83.1410854,12.6468917 84.6422119,14.1535396 L91.7212831,21.2586487 C92.4028051,21.9426775 92.9479915,22.7372 93.3394011,23.6 L188.108108,23.6 L188.108108,8 C188.108108,3.581722 191.68983,8.11624501e-16 196.108108,0 L427,0 C431.418278,1.48852522e-14 435,3.581722 435,8 L435,110 C435,114.418278 431.418278,118 427,118 L196.108108,118 C191.68983,118 188.108108,114.418278 188.108108,110 L188.108108,94.4 Z" id="Combined-Shape-Copy" fill="#2677FF"></path>
                        <rect id="Rectangle" fill-opacity="0.2" fill="#000000" x="17.6351351" y="28.32" width="61.1351351" height="61.36" rx="3.528"></rect>
                        <rect id="Rectangle-Copy-3" fill-opacity="0.2" fill="#000000" x="351.527027" y="28.32" width="61.1351351" height="61.36" rx="3.528"></rect>
                        <g id="Group-11" transform="translate(216.794595, 21.240000)" fill="#000000" fill-opacity="0.2">
                            <path d="M1.4112,-5.99520433e-14 L96.0523135,-5.99520433e-14 C96.8316978,-5.2480659e-14 97.4635135,0.631815761 97.4635135,1.4112 L97.4635135,1.4208 C97.4635135,2.20018424 96.8316978,2.832 96.0523135,2.832 L1.4112,2.832 C0.631815761,2.832 5.0721617e-14,2.20018424 5.06261699e-14,1.4208 L4.97379915e-14,1.4112 C4.96425445e-14,0.631815761 0.631815761,-5.98088728e-14 1.4112,-5.99520433e-14 Z M1.4112,9.0624 L96.0523135,9.0624 C96.8316978,9.0624 97.4635135,9.69421576 97.4635135,10.4736 L97.4635135,10.4832 C97.4635135,11.2625842 96.8316978,11.8944 96.0523135,11.8944 L1.4112,11.8944 C0.631815761,11.8944 5.0721617e-14,11.2625842 5.06261699e-14,10.4832 L4.97379915e-14,10.4736 C4.96425445e-14,9.69421576 0.631815761,9.0624 1.4112,9.0624 Z M1.4112,18.2192 L96.0523135,18.2192 C96.8316978,18.2192 97.4635135,18.8510158 97.4635135,19.6304 L97.4635135,19.64 C97.4635135,20.4193842 96.8316978,21.0512 96.0523135,21.0512 L1.4112,21.0512 C0.631815761,21.0512 5.0721617e-14,20.4193842 5.06261699e-14,19.64 L4.97379915e-14,19.6304 C4.96425445e-14,18.8510158 0.631815761,18.2192 1.4112,18.2192 Z M1.4112,27.2816 L96.0523135,27.2816 C96.8316978,27.2816 97.4635135,27.9134158 97.4635135,28.6928 L97.4635135,28.7024 C97.4635135,29.4817842 96.8316978,30.1136 96.0523135,30.1136 L1.4112,30.1136 C0.631815761,30.1136 5.0721617e-14,29.4817842 5.06261699e-14,28.7024 L4.97379915e-14,28.6928 C4.96425445e-14,27.9134158 0.631815761,27.2816 1.4112,27.2816 Z M1.4112,36.344 L96.0523135,36.344 C96.8316978,36.344 97.4635135,36.9758158 97.4635135,37.7552 L97.4635135,37.7648 C97.4635135,38.5441842 96.8316978,39.176 96.0523135,39.176 L1.4112,39.176 C0.631815761,39.176 5.0721617e-14,38.5441842 5.06261699e-14,37.7648 L4.97379915e-14,37.7552 C4.96425445e-14,36.9758158 0.631815761,36.344 1.4112,36.344 Z M1.4112,45.4064 L96.0523135,45.4064 C96.8316978,45.4064 97.4635135,46.0382158 97.4635135,46.8176 L97.4635135,46.8272 C97.4635135,47.6065842 96.8316978,48.2384 96.0523135,48.2384 L1.4112,48.2384 C0.631815761,48.2384 5.04995724e-14,47.6065842 5.04041253e-14,46.8272 L4.95159469e-14,46.8176 C4.94204999e-14,46.0382158 0.631815761,45.4064 1.4112,45.4064 Z M1.4112,54.5632 L96.0523135,54.5632 C96.8316978,54.5632 97.4635135,55.1950158 97.4635135,55.9744 L97.4635135,55.984 C97.4635135,56.7633842 96.8316978,57.3952 96.0523135,57.3952 L1.4112,57.3952 C0.631815761,57.3952 5.0721617e-14,56.7633842 5.06261699e-14,55.984 L4.97379915e-14,55.9744 C4.96425445e-14,55.1950158 0.631815761,54.5632 1.4112,54.5632 Z M1.4112,63.6256 L96.0523135,63.6256 C96.8316978,63.6256 97.4635135,64.2574158 97.4635135,65.0368 L97.4635135,65.0464 C97.4635135,65.8257842 96.8316978,66.4576 96.0523135,66.4576 L1.4112,66.4576 C0.631815761,66.4576 5.0721617e-14,65.8257842 5.06261699e-14,65.0464 L4.97379915e-14,65.0368 C4.96425445e-14,64.2574158 0.631815761,63.6256 1.4112,63.6256 Z M1.4112,72.688 L96.0523135,72.688 C96.8316978,72.688 97.4635135,73.3198158 97.4635135,74.0992 L97.4635135,74.1088 C97.4635135,74.8881842 96.8316978,75.52 96.0523135,75.52 L1.4112,75.52 C0.631815761,75.52 5.0721617e-14,74.8881842 5.06261699e-14,74.1088 L4.97379915e-14,74.0992 C4.96425445e-14,73.3198158 0.631815761,72.688 1.4112,72.688 Z" id="Combined-Shape"></path>
                        </g>
                    </g>
                </g>
            </g>
        </g>
    </g>
</svg>