<svg id="Layer_1" data-name="Layer 1" xmlns="http://www.w3.org/2000/svg" xmlns:xlink="http://www.w3.org/1999/xlink" viewBox="0 0 3700 1000"><defs><linearGradient id="New_Gradient_Swatch_copy" x1="3730.8" y1="578.95" x2="-11.41" y2="305.59" gradientUnits="userSpaceOnUse"><stop offset="0" stop-color="#ff6c08"/><stop offset="1" stop-color="#ffac48"/></linearGradient><linearGradient id="New_Gradient_Swatch_copy-2" x1="3995.65" y1="-856.55" x2="3994.65" y2="-857.55" gradientTransform="matrix(500, 0, 0, -500, -1997236.36, -428025.47)" xlink:href="#New_Gradient_Swatch_copy"/><linearGradient id="New_Gradient_Swatch_copy-3" x1="3995.69" y1="-856.55" x2="3994.69" y2="-857.55" gradientTransform="matrix(500, 0, 0, -500, -1994218.36, -428024.22)" xlink:href="#New_Gradient_Swatch_copy"/><linearGradient id="New_Gradient_Swatch_copy-4" x1="3996.11" y1="-880.57" x2="3993.97" y2="-880.59" gradientTransform="matrix(489.66, 0, 0, -44.25, -1952802.06, -38043.46)" xlink:href="#New_Gradient_Swatch_copy"/><linearGradient id="New_Gradient_Swatch_copy-5" x1="3979.07" y1="-871.23" x2="3978.07" y2="-871.41" gradientTransform="matrix(162.79, 0, 0, -68.99, -644821.87, -60023.67)" xlink:href="#New_Gradient_Swatch_copy"/></defs><title>paperwalletemptyB</title><path d="M1600,0V150H0V850H1600v150H3700V0ZM20,830V170H780.77L1088.5,830ZM3680,980H3102L2654,20H3680Z" style="fill:url(#New_Gradient_Swatch_copy)"/><g id="Group-4"><path id="Rectangle" d="M111,259a10,10,0,0,0-10,10V729a10,10,0,0,0,10,10H571a10,10,0,0,0,10-10V269a10,10,0,0,0-10-10Zm0-10H571a20,20,0,0,1,20,20V729a20,20,0,0,1-20,20H111a20,20,0,0,1-20-20V269A20,20,0,0,1,111,249Z" style="fill:url(#New_Gradient_Swatch_copy-2)"/></g><path d="M202.66,202.8h13q4.6,0,7.16,2.32a9.48,9.48,0,0,1,0,13q-2.55,2.32-7.16,2.32H208.9V231h-6.24Zm12.16,12.88q4.68,0,4.68-4a3.83,3.83,0,0,0-1.16-3.08,5.25,5.25,0,0,0-3.52-1H208.9v8.12Z" style="fill:#ff6c08"/><path d="M253.82,231H247l-4.88-9a3.87,3.87,0,0,0-1.44-1.5,4.32,4.32,0,0,0-2.12-.46H235.5v11h-6.16V202.8h13q5,0,7.5,2.18a7.82,7.82,0,0,1,2.54,6.3,8.14,8.14,0,0,1-1.78,5.36,8.48,8.48,0,0,1-5,2.84,6.17,6.17,0,0,1,3.72,3.16Zm-8.56-16.62a4.23,4.23,0,0,0,0-5.9,6.46,6.46,0,0,0-3.88-.92h-6v7.76h6A6.3,6.3,0,0,0,245.26,214.38Z" style="fill:#ff6c08"/><path d="M257.34,231V202.8h6.24V231Z" style="fill:#ff6c08"/><path d="M289.78,202.8h6.32L283.42,231h-5L265.7,202.8h6.48l8.8,20.44Z" style="fill:#ff6c08"/><path d="M316.94,231l-2.68-6.24H301.14L298.46,231h-6.28l13-28.2h5l13,28.2Zm-13.76-11h9l-4.52-10.56Z" style="fill:#ff6c08"/><path d="M328.34,231V207.88H319.5V202.8h23.92v5.08h-8.84V231Z" style="fill:#ff6c08"/><path d="M346.66,231V202.8H366.1v4.84H352.74v6.6H365.3v4.84H352.74v7.08H366.1V231Z" style="fill:#ff6c08"/><path d="M385.18,230.5a14.65,14.65,0,0,1-4.92-2.38l2-4.44a15.68,15.68,0,0,0,9.16,2.84,7.94,7.94,0,0,0,4.06-.86,2.65,2.65,0,0,0,1.42-2.38,2.34,2.34,0,0,0-1.3-2.12,17.34,17.34,0,0,0-4.62-1.48,25.76,25.76,0,0,1-5.94-1.84,7.78,7.78,0,0,1-3.24-2.66,7,7,0,0,1-1-3.9,7.64,7.64,0,0,1,1.42-4.56,9.49,9.49,0,0,1,4-3.14,14.44,14.44,0,0,1,5.92-1.14,18.92,18.92,0,0,1,5.78.88,11.85,11.85,0,0,1,4.42,2.36l-2,4.44a13.64,13.64,0,0,0-8.16-2.84,6.77,6.77,0,0,0-3.84.94,3,3,0,0,0-1.4,2.58,2.31,2.31,0,0,0,.54,1.58,4.52,4.52,0,0,0,1.8,1.1,27.89,27.89,0,0,0,3.58,1c3.63.8,6.23,1.83,7.82,3.08a6.25,6.25,0,0,1,2.38,5.2,7.44,7.44,0,0,1-3.08,6.3q-3.07,2.3-8.6,2.3A22.09,22.09,0,0,1,385.18,230.5Z" style="fill:#ff6c08"/><path d="M407.46,231V202.8H426.9v4.84H413.54v6.6H426.1v4.84H413.54v7.08H426.9V231Z" style="fill:#ff6c08"/><path d="M431.14,231V202.8h19.44v4.84H437.22v6.6h12.56v4.84H437.22v7.08h13.36V231Z" style="fill:#ff6c08"/><path d="M454.82,202.8h11a17.34,17.34,0,0,1,7.92,1.68,11.71,11.71,0,0,1,5.08,4.84,15.36,15.36,0,0,1,1.76,7.56,15.58,15.58,0,0,1-1.74,7.58,11.6,11.6,0,0,1-5.06,4.86,17.45,17.45,0,0,1-8,1.68h-11ZM465.34,226q9,0,9-9.08t-9-9h-4.28V226Z" style="fill:#ff6c08"/><g id="DO-NOT-SHARE-THIS-WI"><g style="isolation:isolate"><path d="M103.72,772.67h7.12a11.25,11.25,0,0,1,5.15,1.09,7.61,7.61,0,0,1,3.3,3.15,9.88,9.88,0,0,1,1.15,4.91,10.17,10.17,0,0,1-1.13,4.93,7.56,7.56,0,0,1-3.29,3.16,11.35,11.35,0,0,1-5.18,1.09h-7.12Zm6.84,15.05c3.9,0,5.85-2,5.85-5.9s-2-5.87-5.85-5.87h-2.78v11.77Z" style="fill:#ff6c08"/><path d="M127.21,790.08a7.88,7.88,0,0,1-3.11-3.28,11.92,11.92,0,0,1,0-10,7.77,7.77,0,0,1,3.11-3.26,10.45,10.45,0,0,1,9.49,0,7.77,7.77,0,0,1,3.11,3.26,11.92,11.92,0,0,1,0,10,7.88,7.88,0,0,1-3.11,3.28,10.36,10.36,0,0,1-9.49,0Zm8.35-3.6a7.27,7.27,0,0,0,1.31-4.66,7.19,7.19,0,0,0-1.3-4.64,4.87,4.87,0,0,0-7.22,0,9,9,0,0,0,0,9.3,4.36,4.36,0,0,0,3.59,1.61A4.42,4.42,0,0,0,135.56,786.48Z" style="fill:#ff6c08"/><path d="M163.31,772.67h3.8V791h-3L155,779.33V791H151.2V772.67h3l9.12,11.62Z" style="fill:#ff6c08"/><path d="M174.4,790.08a7.88,7.88,0,0,1-3.11-3.28,11.92,11.92,0,0,1,0-10,7.77,7.77,0,0,1,3.11-3.26,10.45,10.45,0,0,1,9.49,0,7.77,7.77,0,0,1,3.11,3.26,11.92,11.92,0,0,1,0,10,7.88,7.88,0,0,1-3.11,3.28,10.36,10.36,0,0,1-9.49,0Zm8.35-3.6a7.27,7.27,0,0,0,1.31-4.66,7.19,7.19,0,0,0-1.3-4.64,4.87,4.87,0,0,0-7.22,0,9,9,0,0,0,0,9.3,4.36,4.36,0,0,0,3.59,1.61A4.42,4.42,0,0,0,182.75,786.48Z" style="fill:#ff6c08"/><path d="M194.36,791V776h-5.75v-3.3h15.55V776h-5.75v15Z" style="fill:#ff6c08"/><path d="M215.91,790.68a9.64,9.64,0,0,1-3.2-1.55l1.3-2.89a10.18,10.18,0,0,0,6,1.85,5.13,5.13,0,0,0,2.64-.56,1.73,1.73,0,0,0,.93-1.55,1.52,1.52,0,0,0-.85-1.38,11.49,11.49,0,0,0-3-1,17.08,17.08,0,0,1-3.86-1.19,5.11,5.11,0,0,1-2.11-1.73,4.61,4.61,0,0,1-.66-2.54,5,5,0,0,1,.92-3,6.13,6.13,0,0,1,2.59-2,9.28,9.28,0,0,1,3.85-.74,12.35,12.35,0,0,1,3.75.57,7.68,7.68,0,0,1,2.88,1.53l-1.3,2.89a8.85,8.85,0,0,0-5.31-1.85,4.45,4.45,0,0,0-2.49.61,1.92,1.92,0,0,0-.91,1.68,1.48,1.48,0,0,0,.35,1,2.86,2.86,0,0,0,1.17.71,16.6,16.6,0,0,0,2.32.65,13,13,0,0,1,5.09,2,4.08,4.08,0,0,1,1.54,3.38,4.82,4.82,0,0,1-2,4.1,9.15,9.15,0,0,1-5.59,1.49A14.36,14.36,0,0,1,215.91,790.68Z" style="fill:#ff6c08"/><path d="M242.82,772.67h4V791h-4v-7.7h-8.45V791h-4V772.67h4v7.41h8.45Z" style="fill:#ff6c08"/><path d="M264.4,791l-1.74-4.06h-8.53L252.39,791H248.3l8.43-18.33H260L268.4,791Zm-8.95-7.12h5.88L258.39,777Z" style="fill:#ff6c08"/><path d="M285.82,791H281.4l-3.17-5.85a2.38,2.38,0,0,0-.94-1,2.81,2.81,0,0,0-1.37-.3h-2V791h-4V772.67h8.42a7.29,7.29,0,0,1,4.88,1.42,5.09,5.09,0,0,1,1.65,4.09,5.32,5.32,0,0,1-1.16,3.49,5.54,5.54,0,0,1-3.26,1.84,4.06,4.06,0,0,1,2.42,2.06Zm-5.56-10.8a2.75,2.75,0,0,0,0-3.84,4.17,4.17,0,0,0-2.52-.6h-3.88v5h3.88A4.16,4.16,0,0,0,280.26,780.2Z" style="fill:#ff6c08"/><path d="M288.11,791V772.67h12.64v3.15h-8.69v4.29h8.17v3.14h-8.17v4.6h8.69V791Z" style="fill:#ff6c08"/><path d="M315,791V776h-5.75v-3.3h15.55V776H319v15Z" style="fill:#ff6c08"/><path d="M339.3,772.67h4V791h-4v-7.7h-8.45V791h-4V772.67h4v7.41h8.45Z" style="fill:#ff6c08"/><path d="M346.89,791V772.67H351V791Z" style="fill:#ff6c08"/><path d="M357,790.68a9.49,9.49,0,0,1-3.19-1.55l1.29-2.89a10.21,10.21,0,0,0,6,1.85,5.18,5.18,0,0,0,2.64-.56,1.74,1.74,0,0,0,.92-1.55,1.53,1.53,0,0,0-.84-1.38,11.74,11.74,0,0,0-3-1,17.08,17.08,0,0,1-3.86-1.19,5.07,5.07,0,0,1-2.1-1.73,4.54,4.54,0,0,1-.67-2.54,5,5,0,0,1,.93-3,6,6,0,0,1,2.58-2,9.28,9.28,0,0,1,3.85-.74,12.46,12.46,0,0,1,3.76.57,7.71,7.71,0,0,1,2.87,1.53l-1.3,2.89a8.85,8.85,0,0,0-5.3-1.85,4.51,4.51,0,0,0-2.5.61,1.92,1.92,0,0,0-.91,1.68,1.53,1.53,0,0,0,.35,1,3,3,0,0,0,1.17.71,16.81,16.81,0,0,0,2.33.65,13,13,0,0,1,5.08,2,4.09,4.09,0,0,1,1.55,3.38,4.85,4.85,0,0,1-2,4.1,9.17,9.17,0,0,1-5.59,1.49A14.43,14.43,0,0,1,357,790.68Z" style="fill:#ff6c08"/><path d="M401.55,772.67h3.84L398.87,791h-3.25l-4.24-12.14L387.09,791h-3.25l-6.5-18.33h4.11l4.18,12.66,4.45-12.66h2.83l4.29,12.79Z" style="fill:#ff6c08"/><path d="M407.66,791V772.67h4V791Z" style="fill:#ff6c08"/><path d="M419.56,791V776h-5.74v-3.3h15.55V776h-5.75v15Z" style="fill:#ff6c08"/><path d="M443.9,772.67h4V791h-4v-7.7h-8.45V791h-4V772.67h4v7.41h8.45Z" style="fill:#ff6c08"/><path d="M472.71,791,471,786.94h-8.53L460.7,791h-4.09L465,772.67h3.25L476.71,791Zm-8.95-7.12h5.88L466.7,777Z" style="fill:#ff6c08"/><path d="M490.33,772.67h3.8V791h-3L482,779.33V791h-3.77V772.67h3l9.12,11.62Z" style="fill:#ff6c08"/><path d="M513.81,772.67l-7.59,10V791h-4.05v-8.29l-7.57-10h4.6l5,6.79,5-6.79Z" style="fill:#ff6c08"/><path d="M516.89,790.08a7.79,7.79,0,0,1-3.1-3.28,11.82,11.82,0,0,1,0-10,7.69,7.69,0,0,1,3.1-3.26,10.45,10.45,0,0,1,9.49,0,7.71,7.71,0,0,1,3.11,3.26,11.92,11.92,0,0,1,0,10,7.82,7.82,0,0,1-3.11,3.28,10.36,10.36,0,0,1-9.49,0Zm8.35-3.6a7.27,7.27,0,0,0,1.31-4.66,7.19,7.19,0,0,0-1.3-4.64,4.86,4.86,0,0,0-7.21,0,9,9,0,0,0,0,9.3,4.37,4.37,0,0,0,3.59,1.61A4.42,4.42,0,0,0,525.24,786.48Z" style="fill:#ff6c08"/><path d="M545.77,772.67h3.79V791h-3l-9.13-11.67V791h-3.77V772.67h3l9.13,11.62Z" style="fill:#ff6c08"/><path d="M553.18,791V772.67h12.63v3.15h-8.68v4.29h8.16v3.14h-8.16v4.6h8.68V791Z" style="fill:#ff6c08"/><path d="M576.16,785.07l-1.22-12.43,4.83,0-1.24,12.4Zm-.91,1.77h4.21V791h-4.21Z" style="fill:#ff6c08"/></g></g><path d="M3146.63,260.25a10,10,0,0,0-10,10v460a10,10,0,0,0,10,10h460a10,10,0,0,0,10-10v-460a10,10,0,0,0-10-10Zm0-10h460a20,20,0,0,1,20,20v460a20,20,0,0,1-20,20h-460a20,20,0,0,1-20-20v-460A20,20,0,0,1,3146.63,250.25Z" style="fill:url(#New_Gradient_Swatch_copy-3)"/><g id="PUBLIC-ADDRESS"><g style="isolation:isolate"><path d="M3204.21,197.3h13q4.6,0,7.16,2.32a9.48,9.48,0,0,1,0,13q-2.55,2.32-7.16,2.32h-6.72v10.6h-6.24Zm12.16,12.88q4.68,0,4.68-4a3.83,3.83,0,0,0-1.16-3.08,5.25,5.25,0,0,0-3.52-1h-5.92v8.12Z" style="fill:#ff6c08"/><path d="M3233.83,222.8q-3.09-3.06-3.1-8.94V197.3h6.12v16.84a7.58,7.58,0,0,0,1.54,5.12,6.53,6.53,0,0,0,8.94,0,7.51,7.51,0,0,0,1.56-5.1V197.3H3255v16.56q0,5.83-3.12,8.92t-9,3.08Q3236.94,225.86,3233.83,222.8Z" style="fill:#ff6c08"/><path d="M3282.31,213.4a7,7,0,0,1,1.34,4.38,6.82,6.82,0,0,1-2.62,5.64,11.28,11.28,0,0,1-7.22,2.08h-13.4V197.3h13a11.24,11.24,0,0,1,7,2,6.37,6.37,0,0,1,2.58,5.36,6.47,6.47,0,0,1-1.18,3.86,6.65,6.65,0,0,1-3.26,2.42A7,7,0,0,1,3282.31,213.4Zm-15.82-4.62h5.88a6.08,6.08,0,0,0,3.54-.82,2.88,2.88,0,0,0,1.14-2.5,3,3,0,0,0-1.14-2.58,6.08,6.08,0,0,0-3.54-.82h-5.88Zm10.2,11.12a3.17,3.17,0,0,0,1.12-2.72,3.29,3.29,0,0,0-1.12-2.76,5.8,5.8,0,0,0-3.6-.88h-6.6v7.2h6.6A6,6,0,0,0,3276.69,219.9Z" style="fill:#ff6c08"/><path d="M3287.93,225.5V197.3h6.24v23.12h12.6v5.08Z" style="fill:#ff6c08"/><path d="M3310.41,225.5V197.3h6.24v28.2Z" style="fill:#ff6c08"/><path d="M3328,224.06a12.14,12.14,0,0,1-4.88-5.08,17.84,17.84,0,0,1,0-15.2,12,12,0,0,1,4.88-5.06,15,15,0,0,1,7.46-1.78,16.77,16.77,0,0,1,5.36.86,11.38,11.38,0,0,1,4.2,2.38l-2,4.44a13.46,13.46,0,0,0-3.66-2,11.2,11.2,0,0,0-3.78-.64,7.15,7.15,0,0,0-5.78,2.4c-1.34,1.6-2,3.95-2,7s.68,5.45,2,7.06a7.13,7.13,0,0,0,5.78,2.42,11.2,11.2,0,0,0,3.78-.64,13.46,13.46,0,0,0,3.66-2l2,4.44a11.38,11.38,0,0,1-4.2,2.38,16.77,16.77,0,0,1-5.36.86A14.9,14.9,0,0,1,3328,224.06Z" style="fill:#ff6c08"/><path d="M3381.93,225.5l-2.68-6.24h-13.12l-2.68,6.24h-6.28l13-28.2h5l13,28.2Zm-13.76-11h9L3372.69,204Z" style="fill:#ff6c08"/><path d="M3390.41,197.3h11a17.34,17.34,0,0,1,7.92,1.68,11.71,11.71,0,0,1,5.08,4.84,15.36,15.36,0,0,1,1.76,7.56,15.58,15.58,0,0,1-1.74,7.58,11.6,11.6,0,0,1-5.06,4.86,17.45,17.45,0,0,1-8,1.68h-11Zm10.52,23.16q9,0,9-9.08t-9-9h-4.28v18.12Z" style="fill:#ff6c08"/><path d="M3420.89,197.3h11a17.34,17.34,0,0,1,7.92,1.68,11.71,11.71,0,0,1,5.08,4.84,15.36,15.36,0,0,1,1.76,7.56,15.58,15.58,0,0,1-1.74,7.58,11.6,11.6,0,0,1-5.06,4.86,17.45,17.45,0,0,1-8,1.68h-11Zm10.52,23.16q9,0,9-9.08t-9-9h-4.28v18.12Z" style="fill:#ff6c08"/><path d="M3475.85,225.5h-6.8l-4.88-9a3.87,3.87,0,0,0-1.44-1.5,4.35,4.35,0,0,0-2.12-.46h-3.08v11h-6.16V197.3h13q5,0,7.5,2.18a7.85,7.85,0,0,1,2.54,6.3,8.14,8.14,0,0,1-1.78,5.36,8.51,8.51,0,0,1-5,2.84,6.17,6.17,0,0,1,3.72,3.16Zm-8.56-16.62a4.23,4.23,0,0,0,0-5.9,6.46,6.46,0,0,0-3.88-.92h-6v7.76h6A6.3,6.3,0,0,0,3467.29,208.88Z" style="fill:#ff6c08"/><path d="M3479.37,225.5V197.3h19.44v4.84h-13.36v6.6H3498v4.84h-12.56v7.08h13.36v4.84Z" style="fill:#ff6c08"/><path d="M3506.37,225a14.65,14.65,0,0,1-4.92-2.38l2-4.44a15.68,15.68,0,0,0,9.16,2.84,7.94,7.94,0,0,0,4.06-.86,2.65,2.65,0,0,0,1.42-2.38,2.34,2.34,0,0,0-1.3-2.12,17.34,17.34,0,0,0-4.62-1.48,25.76,25.76,0,0,1-5.94-1.84,7.78,7.78,0,0,1-3.24-2.66,7,7,0,0,1-1-3.9,7.64,7.64,0,0,1,1.42-4.56,9.49,9.49,0,0,1,4-3.14,14.44,14.44,0,0,1,5.92-1.14,18.92,18.92,0,0,1,5.78.88,11.85,11.85,0,0,1,4.42,2.36l-2,4.44a13.64,13.64,0,0,0-8.16-2.84,6.77,6.77,0,0,0-3.84.94,3,3,0,0,0-1.4,2.58,2.31,2.31,0,0,0,.54,1.58,4.52,4.52,0,0,0,1.8,1.1,27.89,27.89,0,0,0,3.58,1c3.63.8,6.23,1.83,7.82,3.08a6.25,6.25,0,0,1,2.38,5.2,7.44,7.44,0,0,1-3.08,6.3q-3.08,2.3-8.6,2.3A22.09,22.09,0,0,1,3506.37,225Z" style="fill:#ff6c08"/><path d="M3532.37,225a14.56,14.56,0,0,1-4.92-2.38l2-4.44a15.68,15.68,0,0,0,9.16,2.84,7.94,7.94,0,0,0,4.06-.86,2.65,2.65,0,0,0,1.42-2.38,2.34,2.34,0,0,0-1.3-2.12,17.34,17.34,0,0,0-4.62-1.48,25.76,25.76,0,0,1-5.94-1.84,7.78,7.78,0,0,1-3.24-2.66,7,7,0,0,1-1-3.9,7.64,7.64,0,0,1,1.42-4.56,9.43,9.43,0,0,1,4-3.14,14.44,14.44,0,0,1,5.92-1.14,19,19,0,0,1,5.78.88,11.93,11.93,0,0,1,4.42,2.36l-2,4.44a13.64,13.64,0,0,0-8.16-2.84,6.77,6.77,0,0,0-3.84.94,2.94,2.94,0,0,0-1.4,2.58,2.31,2.31,0,0,0,.54,1.58,4.52,4.52,0,0,0,1.8,1.1,27.89,27.89,0,0,0,3.58,1q5.43,1.2,7.82,3.08a6.25,6.25,0,0,1,2.38,5.2,7.44,7.44,0,0,1-3.08,6.3q-3.08,2.3-8.6,2.3A22,22,0,0,1,3532.37,225Z" style="fill:#ff6c08"/></g></g><path id="nanopaperwallet.com" d="M3146,910.2c2.93,0,5.12.83,6.55,2.5s2.15,4.18,2.15,7.55v15h-6.25V920.6a6.47,6.47,0,0,0-1.08-4.15,4.11,4.11,0,0,0-3.37-1.3,5.74,5.74,0,0,0-4.33,1.7,6.32,6.32,0,0,0-1.62,4.55v13.85h-6.25V910.8h6.1v3.65a8.39,8.39,0,0,1,3.35-3.15A10.11,10.11,0,0,1,3146,910.2Zm25.46,0q5.14,0,7.65,2.5c1.67,1.67,2.5,4.23,2.5,7.7v14.85h-6V931.5a6.55,6.55,0,0,1-2.67,3,8.08,8.08,0,0,1-4.23,1.1,9.77,9.77,0,0,1-4.45-1,8,8,0,0,1-3.15-2.75A6.94,6.94,0,0,1,3160,928a6.16,6.16,0,0,1,1.38-4.25,8.25,8.25,0,0,1,4.47-2.25,40.57,40.57,0,0,1,8.55-.7h1.25v-1.15a5,5,0,0,0-1.07-3.6A4.88,4.88,0,0,0,3171,915a13.4,13.4,0,0,0-4.07.68,20.62,20.62,0,0,0-4.18,1.87l-1.75-4.3a21.43,21.43,0,0,1,10.45-3ZM3170,931.15a5.37,5.37,0,0,0,4.08-1.67,6.07,6.07,0,0,0,1.57-4.33v-1h-.9a34.49,34.49,0,0,0-5.2.3,5,5,0,0,0-2.65,1.05,2.68,2.68,0,0,0-.8,2,3.46,3.46,0,0,0,1.1,2.63A4,4,0,0,0,3170,931.15Zm32.06-20.95q4.41,0,6.55,2.5c1.44,1.67,2.15,4.18,2.15,7.55v15h-6.25V920.6a6.53,6.53,0,0,0-1.07-4.15,4.13,4.13,0,0,0-3.38-1.3,5.7,5.7,0,0,0-4.32,1.7,6.28,6.28,0,0,0-1.63,4.55v13.85h-6.25V910.8h6.1v3.65a8.45,8.45,0,0,1,3.35-3.15A10.14,10.14,0,0,1,3202.07,910.2Zm26.12,25.45a13.5,13.5,0,0,1-6.58-1.55,10.71,10.71,0,0,1-4.37-4.45,14,14,0,0,1-1.55-6.75,13.84,13.84,0,0,1,1.55-6.72,10.72,10.72,0,0,1,4.37-4.43,14.72,14.72,0,0,1,13.15,0,10.62,10.62,0,0,1,4.35,4.43,14.06,14.06,0,0,1,1.53,6.72,14.24,14.24,0,0,1-1.53,6.75,10.61,10.61,0,0,1-4.35,4.45A13.46,13.46,0,0,1,3228.19,935.65Zm-.05-4.85a5.59,5.59,0,0,0,4.64-2,11.56,11.56,0,0,0,0-11.77,5.49,5.49,0,0,0-4.59-2,5.6,5.6,0,0,0-4.63,2,9.2,9.2,0,0,0-1.62,5.87,9.33,9.33,0,0,0,1.59,5.9A5.58,5.58,0,0,0,3228.14,930.8Zm31.61-20.6a10.09,10.09,0,0,1,5.62,1.6,10.6,10.6,0,0,1,3.85,4.53,15.58,15.58,0,0,1,1.38,6.72,15.11,15.11,0,0,1-1.38,6.65,10.08,10.08,0,0,1-9.47,5.95,9.68,9.68,0,0,1-4.65-1.1,7.66,7.66,0,0,1-3.15-3v12.75h-6.25V910.8h6.15v3.7a7.63,7.63,0,0,1,3.17-3.17A9.78,9.78,0,0,1,3259.75,910.2Zm-1.65,20.6a5.61,5.61,0,0,0,4.6-2,8.85,8.85,0,0,0,1.65-5.73,9.35,9.35,0,0,0-1.65-5.9,6.17,6.17,0,0,0-9.23,0,9.26,9.26,0,0,0-1.62,5.85,9.16,9.16,0,0,0,1.62,5.8A5.57,5.57,0,0,0,3258.1,930.8Zm28.06-20.6q5.15,0,7.65,2.5c1.67,1.67,2.5,4.23,2.5,7.7v14.85h-5.95V931.5a6.52,6.52,0,0,1-2.68,3,8,8,0,0,1-4.22,1.1,9.77,9.77,0,0,1-4.45-1,8,8,0,0,1-3.15-2.75,6.94,6.94,0,0,1-1.15-3.9,6.2,6.2,0,0,1,1.37-4.25,8.33,8.33,0,0,1,4.48-2.25,40.57,40.57,0,0,1,8.55-.7h1.25v-1.15a5,5,0,0,0-1.08-3.6,4.84,4.84,0,0,0-3.57-1.1,13.51,13.51,0,0,0-4.08.68,20.79,20.79,0,0,0-4.17,1.87l-1.75-4.3a21.43,21.43,0,0,1,10.45-3Zm-1.45,20.95a5.34,5.34,0,0,0,4.07-1.67,6.07,6.07,0,0,0,1.58-4.33v-1h-.9a34.49,34.49,0,0,0-5.2.3,5,5,0,0,0-2.65,1.05,2.68,2.68,0,0,0-.8,2,3.46,3.46,0,0,0,1.1,2.63A4,4,0,0,0,3284.71,931.15Zm31.91-20.95a10.12,10.12,0,0,1,5.63,1.6,10.67,10.67,0,0,1,3.85,4.53,15.72,15.72,0,0,1,1.37,6.72,15.25,15.25,0,0,1-1.37,6.65,10.11,10.11,0,0,1-9.48,5.95,9.74,9.74,0,0,1-4.65-1.1,7.66,7.66,0,0,1-3.15-3v12.75h-6.25V910.8h6.15v3.7a7.59,7.59,0,0,1,3.18-3.17A9.72,9.72,0,0,1,3316.62,910.2ZM3315,930.8a5.6,5.6,0,0,0,4.6-2,8.85,8.85,0,0,0,1.65-5.73,9.35,9.35,0,0,0-1.65-5.9,6.16,6.16,0,0,0-9.22,0,9.2,9.2,0,0,0-1.63,5.85,9.1,9.1,0,0,0,1.63,5.8A5.54,5.54,0,0,0,3315,930.8Zm39-6.65h-16.65a7.63,7.63,0,0,0,2.05,5.05,7,7,0,0,0,5,1.65,11.8,11.8,0,0,0,7.4-2.6l1.8,4.3a13.26,13.26,0,0,1-4.27,2.25,16.34,16.34,0,0,1-5.18.85q-6,0-9.47-3.4t-3.48-9.3a14.26,14.26,0,0,1,1.5-6.65,10.94,10.94,0,0,1,4.23-4.5,11.9,11.9,0,0,1,6.17-1.6,10.18,10.18,0,0,1,8,3.25q2.93,3.25,2.92,8.95Zm-10.75-9.55a5.28,5.28,0,0,0-4,1.6,7.81,7.81,0,0,0-1.88,4.6h11.3a7,7,0,0,0-1.5-4.62A4.94,4.94,0,0,0,3343.23,914.6Zm31.86.8-3.65.35q-6.2.64-6.2,6.3v13.2H3359V910.8h6v4.3q1.91-4.4,7.85-4.8l1.9-.15Zm37.47-4.6h6.1l-9.6,24.45h-5.45l-6-15.75-5.85,15.75h-5.4l-9.65-24.45h6.4l6.25,17,6.25-17h4.5l6.25,17.1Zm19.86-.6q5.14,0,7.65,2.5c1.66,1.67,2.5,4.23,2.5,7.7v14.85h-6V931.5a6.52,6.52,0,0,1-2.68,3,8,8,0,0,1-4.22,1.1,9.74,9.74,0,0,1-4.45-1,7.83,7.83,0,0,1-3.15-2.75A6.94,6.94,0,0,1,3421,928a6.2,6.2,0,0,1,1.37-4.25,8.33,8.33,0,0,1,4.48-2.25,40.44,40.44,0,0,1,8.55-.7h1.25v-1.15a5,5,0,0,0-1.08-3.6A4.86,4.86,0,0,0,3432,915a13.51,13.51,0,0,0-4.08.68,20.55,20.55,0,0,0-4.17,1.87l-1.75-4.3a21.43,21.43,0,0,1,10.45-3ZM3431,931.15a5.36,5.36,0,0,0,4.07-1.67,6.07,6.07,0,0,0,1.58-4.33v-1h-.9a34.4,34.4,0,0,0-5.2.3,5,5,0,0,0-2.65,1.05,2.65,2.65,0,0,0-.8,2,3.42,3.42,0,0,0,1.1,2.63A3.94,3.94,0,0,0,3431,931.15Zm17.86,4.1V900h6.25v35.25Zm12.61,0V900h6.25v35.25Zm34.06-11.1h-16.65a7.63,7.63,0,0,0,2.05,5.05,7,7,0,0,0,5,1.65,11.8,11.8,0,0,0,7.4-2.6l1.8,4.3a13.26,13.26,0,0,1-4.27,2.25,16.34,16.34,0,0,1-5.18.85q-6,0-9.47-3.4t-3.48-9.3a14.26,14.26,0,0,1,1.5-6.65,10.94,10.94,0,0,1,4.23-4.5,11.9,11.9,0,0,1,6.17-1.6,10.18,10.18,0,0,1,8,3.25q2.93,3.25,2.92,8.95Zm-10.75-9.55a5.28,5.28,0,0,0-4,1.6,7.81,7.81,0,0,0-1.88,4.6h11.3a7,7,0,0,0-1.5-4.62A4.94,4.94,0,0,0,3484.75,914.6ZM3512.66,931a18.48,18.48,0,0,0,2.3-.15l-.3,4.65c-1,.1-1.91.15-2.75.15q-5.14,0-7.6-2.37t-2.45-7.08V915.5h-4.7v-4.7h4.7v-7.3h6.25v7.3h6.45v4.7h-6.45v10.55Q3508.11,931,3512.66,931Zm6.32-2.6h7v6.9h-7Zm23.36,7.3a13.74,13.74,0,0,1-6.68-1.55,10.47,10.47,0,0,1-4.32-4.4,15.33,15.33,0,0,1,.07-13.37,11,11,0,0,1,4.48-4.53,13.58,13.58,0,0,1,6.7-1.6,15.94,15.94,0,0,1,5.07.83,10.76,10.76,0,0,1,4,2.22l-1.8,4.4a12,12,0,0,0-3.28-1.9,9.72,9.72,0,0,0-3.42-.65,6.37,6.37,0,0,0-5,2,10.24,10.24,0,0,0,0,11.6,6.4,6.4,0,0,0,5,2,9.72,9.72,0,0,0,3.42-.65,12,12,0,0,0,3.28-1.9l1.8,4.35a11.32,11.32,0,0,1-4.1,2.28A16.5,16.5,0,0,1,3542.34,935.65Zm24.31,0a13.53,13.53,0,0,1-6.58-1.55,10.71,10.71,0,0,1-4.37-4.45,14.13,14.13,0,0,1-1.55-6.75,14,14,0,0,1,1.55-6.72,10.72,10.72,0,0,1,4.37-4.43,14.72,14.72,0,0,1,13.15,0,10.5,10.5,0,0,1,4.35,4.43,14.06,14.06,0,0,1,1.53,6.72,14.24,14.24,0,0,1-1.53,6.75,10.49,10.49,0,0,1-4.35,4.45A13.46,13.46,0,0,1,3566.65,935.65Zm-.05-4.85a5.62,5.62,0,0,0,4.65-2q1.61-2,1.6-5.9a9.27,9.27,0,0,0-1.6-5.87,5.52,5.52,0,0,0-4.6-2,5.61,5.61,0,0,0-4.63,2,9.2,9.2,0,0,0-1.62,5.87q0,3.9,1.6,5.9A5.56,5.56,0,0,0,3566.6,930.8Zm46.61-20.6c2.77,0,4.83.82,6.2,2.48s2.05,4.17,2.05,7.57v15h-6.25V920.5a6.89,6.89,0,0,0-.95-4.07,3.55,3.55,0,0,0-3.05-1.28,4.77,4.77,0,0,0-3.9,1.7,7.29,7.29,0,0,0-1.4,4.75v13.65h-6.25V920.5a7.07,7.07,0,0,0-.92-4.07,3.56,3.56,0,0,0-3.08-1.28,4.73,4.73,0,0,0-3.85,1.7,7.29,7.29,0,0,0-1.4,4.75v13.65h-6.25V910.8h6.1v3.45a7.28,7.28,0,0,1,3-3,9.33,9.33,0,0,1,4.45-1q5.55,0,7.35,4.6a8.36,8.36,0,0,1,3.3-3.37A9.48,9.48,0,0,1,3613.21,910.2Z" style="fill:url(#New_Gradient_Swatch_copy-4)"/><path d="M2942,60.22h12.08q4.8,0,7.47,2.34a8.37,8.37,0,0,1,2.66,6.63,8.43,8.43,0,0,1-2.69,6.66,10.82,10.82,0,0,1-7.44,2.39h-8.53V90.75H2942Zm11.73,15.07q7,0,7-6.1t-7-6h-8.18V75.29Zm39.53,15.46-3.38-7.84h-15.93l-3.38,7.84h-3.63l13.42-30.53h3.07l13.42,30.53ZM2975.18,80h13.42l-6.71-15.63Zm26.19-19.75h12.08q4.8,0,7.47,2.34a8.37,8.37,0,0,1,2.66,6.63,8.43,8.43,0,0,1-2.68,6.66,10.84,10.84,0,0,1-7.45,2.39h-8.53V90.75h-3.55Zm11.73,15.07q7,0,7-6.1t-7-6h-8.18V75.29Zm16.2,15.46V60.22h19.31v3H3032.8V73.78h14.94v2.94H3032.8V87.8h15.81v3Zm49.22,0h-3.89l-5.2-9.79a5.59,5.59,0,0,0-2.23-2.44,7.5,7.5,0,0,0-3.48-.67H3058v12.9h-3.51V60.22h12.56q5,0,7.6,2.21a8,8,0,0,1,2.62,6.5,8.09,8.09,0,0,1-2,5.73,9.36,9.36,0,0,1-5.73,2.75,5.06,5.06,0,0,1,2.05,1.17,8.18,8.18,0,0,1,1.63,2.21ZM3066.75,74.9a8.11,8.11,0,0,0,5.3-1.47A5.49,5.49,0,0,0,3073.8,69a5.32,5.32,0,0,0-1.73-4.37c-1.15-1-2.93-1.43-5.32-1.43H3058V74.9Zm-95.83,25.45h4.94l-8.37,23.53h-4.17l-5.44-15.59-5.51,15.59h-4.17l-8.34-23.53h5.27l5.37,16.25,5.71-16.25h3.64l5.5,16.42Zm25.83,23.53-2.23-5.21h-10.95l-2.23,5.21h-5.24l10.81-23.53h4.17l10.81,23.53Zm-11.48-9.14h7.55l-3.77-8.81Zm18.59,9.14V100.35h5.21v19.29h10.51v4.24Zm18.79,0V100.35h5.21v19.29h10.51v4.24Zm18.79,0V100.35h16.22v4h-11.15v5.51H3057v4h-10.48v5.91h11.15v4Zm25.23,0V104.59h-7.38v-4.24h20v4.24h-7.38v19.29Z" style="fill:#36363c"/><path d="M2847,90.5a11.62,11.62,0,0,1-23.23,0c0-8.62-2.9-11.49-11.61-11.49s-11.62,2.87-11.62,11.49A11.62,11.62,0,1,1,2788.92,79c8.71,0,11.61-2.87,11.61-11.49a11.62,11.62,0,0,1,23.23,0c0,8.62,2.9,11.49,11.62,11.49A11.52,11.52,0,0,1,2847,90.5ZM2765.62,125a11.49,11.49,0,1,1,11.61-11.49A11.55,11.55,0,0,1,2765.62,125Zm151.17-57.5A11.55,11.55,0,0,1,2905.17,79c-8.71,0-11.61,2.88-11.61,11.49A11.55,11.55,0,0,1,2881.94,102c-8.71,0-11.61,2.87-11.61,11.49A11.62,11.62,0,1,1,2858.71,102c8.71,0,11.62-2.87,11.62-11.49A11.55,11.55,0,0,1,2881.94,79c8.71,0,11.62-2.87,11.62-11.48a11.62,11.62,0,0,1,23.23,0Z" style="fill:url(#New_Gradient_Swatch_copy-5)"/><path d="M2201.13,980.22l.29-.36a156.94,156.94,0,0,1,121-56.5c60.75,0,98.36-10.39,122-33.7s34.12-60.44,34.12-120.42a152.54,152.54,0,0,1,45.91-109.39,156.58,156.58,0,0,1,110.62-45.17c60.75,0,98.37-10.39,122-33.7s34.11-60.44,34.11-120.42a156,156,0,0,1,28-88.34l.21-.31L2933.1,615.36l-.32,0c-54.28,1.82-88.17,13.2-109.88,36.91s-31.31,59.72-31.31,117a152.55,152.55,0,0,1-45.92,109.4,156.57,156.57,0,0,1-110.6,45.16c-76.41,0-117.84,16.83-138.53,56.3l-.06.12Z" style="fill:#fff"/><path d="M2008.29,924.36c-86.31,0-156.53-69.34-156.53-154.57,0-60-10.52-97.13-34.12-120.43s-61.22-33.69-122-33.69-98.35,10.39-122,33.7-34.13,60.45-34.13,120.42a152.24,152.24,0,0,1-12.33,60.3l-.06.13H1239l-.06-.13a151.46,151.46,0,0,1-12.42-60.3c0-85.22,70.22-154.56,156.52-154.56,60.75,0,98.37-10.39,122-33.7s34.12-60.44,34.12-120.42a152.51,152.51,0,0,1,45.92-109.39,156.56,156.56,0,0,1,110.61-45.17c86.3,0,156.52,69.34,156.52,154.56,0,60,10.52,97.14,34.13,120.44s61.21,33.68,122,33.68a156.57,156.57,0,0,1,110.81,45.16,152.69,152.69,0,0,1,45.72,109.4C2164.82,855,2094.6,924.36,2008.29,924.36Z" style="fill:#fff"/><path d="M784.19,177.84l.11-.1q3.21-3.26,6.44-6.44l.37-.37,1.12-1.09.06-.06h2.05l-.38.37-2.22,2.17c-2.62,2.59-4.74,4.71-6.69,6.69l-.21.22Z" style="fill:#fff"/><path d="M791.75,194.07l.1-.11c3.38-3.48,7-7.1,10.67-10.74,4.34-4.29,8.91-8.66,14-13.38l.07-.06h2.1l-.4.38c-5.07,4.7-10,9.44-14.73,14.07-3.9,3.85-7.46,7.45-10.9,11l-.22.23Z" style="fill:#fff"/><path d="M799.32,210.31l.1-.11c5-5.25,10-10.33,14.84-15.08,8.55-8.44,17.66-16.94,27.09-25.28l.06-.06h2.15l-.43.38c-9.64,8.52-19,17.26-27.87,26-5,4.9-10,10.05-15.06,15.33l-.22.23Z" style="fill:#fff"/><path d="M806.92,226.61l.1-.11c6.29-6.7,12.67-13.25,19-19.46,12.67-12.49,26.42-25,40.89-37.2l.06-.06h2.24l-.45.39C854,182.52,840,195.26,827,208.05c-6.46,6.38-12.92,13-19.2,19.73Z" style="fill:#fff"/><path d="M814.56,243l.1-.11c7.61-8.27,15.39-16.32,23.11-23.93a724.65,724.65,0,0,1,55.44-49.11l.06-.05h2.34l-.49.39A720,720,0,0,0,838.77,220c-7.73,7.62-15.59,15.77-23.33,24.21l-.22.23Z" style="fill:#fff"/><path d="M822.2,259.38l.1-.1c9-9.95,18.12-19.51,27.17-28.43a723.88,723.88,0,0,1,70.93-61l.06-.05h2.37l-.52.39a725.45,725.45,0,0,0-71.84,61.69c-9.17,9-18.38,18.69-27.39,28.69l-.22.25Z" style="fill:#fff"/><path d="M2320.77,35.44c-3.54-5.19-7.14-10.35-10.71-15.31l-.24-.35h1.76l.07.09c3.28,4.6,6.55,9.27,9.71,13.9,3.15-4.62,6.41-9.3,9.68-13.9l.07-.09h1.76l-.24.35c-3.81,5.34-7.3,10.35-10.67,15.31l-.59.87Z" style="fill:#fff"/><path d="M829.89,275.86l.1-.1c10.19-11.53,20.69-22.64,31.22-33a723.27,723.27,0,0,1,87.38-72.93l.06,0h2.48l-.55.4a721.17,721.17,0,0,0-88.37,73.58C851.58,254.24,841,265.44,830.77,277l-.22.25Z" style="fill:#fff"/><path d="M2320.79,65.8c-9.87-15.5-20.42-30.86-31.35-45.67l-.26-.35H2291l.06.09c10.52,14.25,20.74,29.12,30.38,44.22,9.63-15.14,19.8-30,30.24-44.22l.06-.09h1.8l-.26.35c-10.88,14.79-21.39,30.16-31.23,45.68l-.61,1Z" style="fill:#fff"/><path d="M2320.8,97.88a776.72,776.72,0,0,0-52.35-77.75l-.27-.35H2270l.06.09a782.43,782.43,0,0,1,51.37,76.23,781.75,781.75,0,0,1,51.16-76.23l.06-.09h1.8l-.27.35A778,778,0,0,0,2322,97.88l-.62,1.06Z" style="fill:#fff"/><path d="M837.6,292.42l.1-.11c11.46-13.23,23.31-25.9,35.23-37.64,30.65-30.22,66-58.76,105.08-84.85l0,0h2.57l-.59.4c-38.9,25.87-75.58,55.43-106.1,85.5-12,11.78-23.88,24.53-35.45,37.9l-.21.25Z" style="fill:#fff"/><path d="M2320.84,132.09a751.43,751.43,0,0,0-73.56-112l-.28-.35h1.83l.07.09a751.64,751.64,0,0,1,72.57,110.36,752.82,752.82,0,0,1,72.29-110.36l.07-.09h1.83l-.28.35a751.52,751.52,0,0,0-73.28,112l-.63,1.18Z" style="fill:#fff"/><path d="M845.36,309l.09-.11c12.73-15,25.92-29.26,39.19-42.35,35.35-34.82,78.28-68.27,124.17-96.75l.05,0h2.7l-.65.4c-46.32,28.63-89.64,62.31-125.27,97.4-13.32,13.14-26.58,27.48-39.4,42.63l-.21.26Z" style="fill:#fff"/><path d="M2321,155.67q-4.38-2.22-8.74-4.37l-.2-.1-.11-.21a739.75,739.75,0,0,0-86.08-130.85l-.29-.36h1.86l.07.08a741.22,741.22,0,0,1,85.61,130.27c2.73,1.34,5.46,2.72,8.21,4.11q4.36-2.22,8.74-4.39a741.27,741.27,0,0,1,85.06-130l.07-.08H2417l-.29.36a739,739,0,0,0-85.54,130.58l-.1.2-.21.11c-2.93,1.44-6,3-9.27,4.64l-.32.17Z" style="fill:#fff"/><path d="M853.15,325.75l.08-.11c13.93-16.79,28.45-32.66,43.17-47.18,40.92-40.32,91.1-77.89,145.09-108.65l0,0h2.92l-.71.41C989.26,201,938.65,238.83,897.4,279.47A642.5,642.5,0,0,0,854,326.92Z" style="fill:#fff"/><path d="M861,342.55l.08-.11a634.08,634.08,0,0,1,47.09-52.05c46.56-45.89,106.4-88.71,168.5-120.58l0,0H1079l.1.41c-62.66,31.94-123,75-169.9,121.21a631.42,631.42,0,0,0-47.28,52.32Z" style="fill:#fff"/><path d="M2321,174.55c-6.95-3.64-14-7.21-21.11-10.61l-.22-.11-.11-.21A716.62,716.62,0,0,0,2204,20.14l-.31-.36h1.89l.06.08a717.45,717.45,0,0,1,95,142.9c6.77,3.26,13.7,6.74,20.6,10.35,6.94-3.64,14-7.22,21.1-10.63A716,716,0,0,1,2436.9,19.86l.06-.08h1.89l-.31.36a714.08,714.08,0,0,0-95,143.19l-.11.22-.22.11c-7.35,3.55-14.62,7.21-21.6,10.89l-.33.17Z" style="fill:#fff"/><path d="M868.85,359.4l.08-.1a619.92,619.92,0,0,1,51-57c50.38-49.66,115.32-94.67,182.86-126.74q1.38-2.82,2.79-5.62l.06-.12h1.59l-.16.32c-1,2.09-2.08,4.18-3.11,6.28l-.1.21-.22.11c-67.5,32-132.39,77-182.71,126.57a623.92,623.92,0,0,0-51.15,57.32l-.22.28Z" style="fill:#fff"/><path d="M2321,193.49c-11.23-6.05-22.52-11.75-33.53-16.93l-.23-.1-.11-.23A692.53,692.53,0,0,0,2181.76,20.14l-.33-.36h1.93l.06.08a694,694,0,0,1,104.85,155.51c10.82,5.1,21.93,10.71,33,16.67,10.47-5.66,21.75-11.37,33.52-17a691.63,691.63,0,0,1,104.3-155.21l.06-.08h1.92l-.32.36A690.53,690.53,0,0,0,2356,175.91l-.11.23-.22.11c-11.91,5.67-23.35,11.47-34,17.24l-.33.19Z" style="fill:#fff"/><path d="M2321,212.58c-15-8.34-30.48-16.2-46-23.36l-.23-.1-.11-.23C2245.09,127.16,2205.11,68.81,2159,20.15l-.34-.37h2l.07.07c45.84,48.57,85.64,106.72,115.1,168.18,15.31,7.07,30.61,14.84,45.49,23.1,15-8.33,30.44-16.21,46-23.4C2396.79,126.09,2436.4,68,2481.83,19.85l.07-.07h2l-.34.37c-45.66,48.28-85.45,106.52-115.07,168.42l-.1.23-.24.12c-15.71,7.27-31.34,15.23-46.45,23.65l-.33.2Z" style="fill:#fff"/><path d="M876.77,376.4l.08-.1a612.08,612.08,0,0,1,54.77-62.14c50.52-49.79,115.73-94.55,183.6-126,2.92-6.12,6-12.25,9.09-18.23l.06-.12h1.6l-.17.32c-3.22,6.23-6.39,12.58-9.41,18.87l-.11.25-.23.1c-67.81,31.43-132.95,76.12-183.42,125.85a611,611,0,0,0-55,62.41l-.22.28Z" style="fill:#fff"/><path d="M2321,231.74c-19.1-11-38.77-21-58.48-29.87l-.24-.12-.12-.24C2231,134.82,2186.08,70.41,2135.7,20.15l-.37-.37h2l.06.07c50.14,50.21,94.85,114.42,125.89,180.82,19.55,8.8,39.06,18.77,58,29.62,18.79-10.79,39-21.14,58.45-29.93,31.08-66.64,75.58-130.74,125.31-180.51l.06-.07h2l-.37.37c-50,49.83-94.66,114.13-125.84,181l-.12.25-.25.1c-19.57,8.83-39.94,19.27-58.91,30.19l-.35.2Z" style="fill:#fff"/><path d="M884.76,393.53l.08-.1a598.34,598.34,0,0,1,58.52-67.3c50.52-49.85,116-94.34,184.37-125.29,4.82-10.34,10-20.75,15.48-30.94l.06-.12h1.62l-.17.32c-5.56,10.38-10.88,21-15.8,31.58l-.12.24-.24.12c-68.3,30.88-133.71,75.31-184.2,125.1a602.62,602.62,0,0,0-58.71,67.57l-.21.29Z" style="fill:#fff"/><path d="M2321,251.06a661.67,661.67,0,0,0-71-36.51l-.25-.1-.12-.26C2217.35,143.35,2170,76,2116.22,24.46c-1.51-1.45-3-2.89-4.55-4.3l-.4-.38h2.1l.07.06c1.27,1.18,2.53,2.38,3.78,3.58,53.81,51.56,101.24,119,133.56,189.93a660,660,0,0,1,70.55,36.27,660.11,660.11,0,0,1,71-36.58c31-68.42,76.3-133.86,127.45-184.26,3.26-3.21,6.28-6.13,9.25-8.94l.06-.06h2.09l-.39.38c-3.28,3.08-6.65,6.32-10,9.63-51.1,50.38-96.3,115.75-127.26,184.09l-.12.25-.25.11a657,657,0,0,0-71.47,36.83l-.36.23Z" style="fill:#fff"/><path d="M892.78,410.74l.08-.11A588.14,588.14,0,0,1,955.09,338c50.87-50.12,116.64-94.33,185.2-124.48,6.6-14.55,14-29.23,21.92-43.62l.06-.12h1.63l-.18.32c-8,14.49-15.49,29.38-22.24,44.26l-.12.24-.24.12c-68.52,30.1-134.23,74.24-185,124.29a589.46,589.46,0,0,0-62.41,72.92l-.21.29Z" style="fill:#fff"/><path d="M900.88,428.11l.07-.1a576.51,576.51,0,0,1,65.88-78.08c51-50.3,117.12-94.21,186.07-123.63a608.3,608.3,0,0,1,28.47-56.41l.06-.11h1.65l-.18.33a606.89,606.89,0,0,0-28.8,57l-.12.25-.25.12c-68.86,29.35-134.88,73.19-185.9,123.44a576.75,576.75,0,0,0-66,78.36l-.22.31Z" style="fill:#fff"/><path d="M2321,270.62a635.77,635.77,0,0,0-83.66-43.23l-.26-.1L2237,227c-31.33-71.07-78.32-138.71-132.33-190.47-5.9-5.66-11.89-11.17-17.8-16.38l-.43-.38h2.18l.06.06c5.73,5.07,11.44,10.35,17,15.66,54.06,51.82,101.12,119.54,132.52,190.68a635.77,635.77,0,0,1,83.22,43A634.38,634.38,0,0,1,2405,225.82c30.31-68.8,75.26-134.54,126.57-185.12,7.24-7.14,14.73-14.15,22.27-20.86l.06-.06H2556l-.43.38c-7.81,6.93-15.56,14.18-23.06,21.56-51.26,50.54-96.14,116.21-126.38,184.93l-.12.25-.25.12a634.89,634.89,0,0,0-84,43.6l-.38.23Z" style="fill:#fff"/><path d="M2320.94,290.38a610.45,610.45,0,0,0-96.23-50.21l-.27-.12-.11-.27c-30.51-71.4-77.12-139.3-131.25-191.18-10.24-9.85-21-19.42-31.87-28.43l-.46-.39H2063l.06,0c10.55,8.77,21,18.1,31,27.73C2148.29,99.53,2195,167.5,2225.52,239a612.75,612.75,0,0,1,95.8,50,613.2,613.2,0,0,1,96.3-50.33c29.48-69.16,74.1-135.22,125.65-186,11.55-11.39,23.7-22.41,36.11-32.75l.06,0h2.26l-.46.39c-12.66,10.49-25.1,21.74-37,33.42-51.49,50.75-96.05,116.75-125.45,185.83l-.12.27-.27.11a610.36,610.36,0,0,0-96.71,50.58l-.39.24Z" style="fill:#fff"/><path d="M909,445.6l.07-.1a565.38,565.38,0,0,1,69.46-83.66c51.26-50.51,117.67-94.09,187-122.73a592.82,592.82,0,0,1,35.1-69.22l.07-.11h1.67l-.19.33a591.1,591.1,0,0,0-35.45,69.83l-.12.27-.27.11c-69.27,28.58-135.61,72.09-186.81,122.53A562.82,562.82,0,0,0,910,446.8l-.22.32Z" style="fill:#fff"/><path d="M2321,310.38a588.89,588.89,0,0,0-109-57.31l-.29-.11-.11-.29c-29.64-71.85-75.85-140-130.1-192a555.36,555.36,0,0,0-47.11-40.49l-.51-.39h2.36l.06,0a559.21,559.21,0,0,1,46.19,39.79c54.32,52,100.6,120.3,130.33,192.22a591.54,591.54,0,0,1,108.56,57.08,590.55,590.55,0,0,1,109-57.42c28.67-69.6,72.94-136,124.67-187a566.37,566.37,0,0,1,51.13-44.68l.06,0h2.35l-.51.39a566.62,566.62,0,0,0-52,45.36c-51.67,50.93-95.87,117.27-124.46,186.8l-.12.28-.28.11a588,588,0,0,0-109.37,57.66l-.4.26Z" style="fill:#fff"/><path d="M917.27,463.28l.07-.1a550.08,550.08,0,0,1,73-89.44c51.45-50.7,118.21-93.93,188-121.76a578.68,578.68,0,0,1,41.89-82.09l.06-.11h1.69l-.21.33a577.45,577.45,0,0,0-42.21,82.7l-.13.28-.27.11C1109.4,281,1042.71,324.12,991.3,374.76a548.28,548.28,0,0,0-73.1,89.73Z" style="fill:#fff"/><path d="M2321,330.63A566.41,566.41,0,0,0,2199.21,266l-.3-.1-.11-.3c-28.62-72.17-74.38-140.67-128.86-192.87a539.31,539.31,0,0,0-63.78-52.56l-.56-.4h2.47l0,0a540.22,540.22,0,0,1,62.81,51.87C2125.47,124,2171.31,192.54,2200,264.79a567.38,567.38,0,0,1,121.34,64.38,568,568,0,0,1,121.73-64.73c27.79-70.09,71.69-136.87,123.62-188a549,549,0,0,1,67.47-56.59l.06,0h2.48l-.56.4a547,547,0,0,0-68.45,57.24c-51.87,51.13-95.7,117.84-123.4,187.84l-.11.29-.29.11a566.38,566.38,0,0,0-122.14,65l-.41.28Z" style="fill:#fff"/><path d="M925.61,481.16l.07-.1A535.79,535.79,0,0,1,1002,385.65c51.62-50.9,118.76-93.77,189-120.72a561.29,561.29,0,0,1,48.79-95.05l.06-.1h1.7l-.21.34a558.55,558.55,0,0,0-49.12,95.63l-.11.29-.3.11C1121.69,293,1054.62,335.82,1003,386.66a534.76,534.76,0,0,0-76.5,95.72l-.21.33Z" style="fill:#fff"/><path d="M934,499.24l.06-.1a521.15,521.15,0,0,1,79.68-101.58C1065.7,346.39,1133.24,303.91,1204,278a541.67,541.67,0,0,1,55.84-108.07l.06-.1h1.72l-.22.34a539.44,539.44,0,0,0-56.17,108.65l-.11.3-.32.11c-70.66,25.89-138.14,68.29-190,119.4A521.37,521.37,0,0,0,935,500.45Z" style="fill:#fff"/><path d="M2321,351.22a545,545,0,0,0-134.57-72.14l-.31-.11-.11-.3c-27.58-72.6-72.88-141.45-127.56-193.85a522.13,522.13,0,0,0-82.35-64.64l-.62-.4h2.65l.06,0a524.39,524.39,0,0,1,81.25,64c54.76,52.48,100.14,121.39,127.79,194.07a545.74,545.74,0,0,1,134.19,71.91A546.24,546.24,0,0,1,2456,277.48c26.8-70.59,70.29-137.76,122.46-189.15A530.42,530.42,0,0,1,2656.28,25l.21-.14.6,1.32-.15.1a529.47,529.47,0,0,0-77.47,63.12c-52.09,51.3-95.51,118.4-122.25,189l-.11.3-.3.11a544.78,544.78,0,0,0-135,72.51l-.43.32Z" style="fill:#fff"/><path d="M942.62,517.63l0-.1a505.92,505.92,0,0,1,82.88-108.06C1077.76,358,1145.74,316,1217,291.07a522.06,522.06,0,0,1,63.07-121.19l.07-.1h1.75l-.24.34a521.32,521.32,0,0,0-63.42,121.75l-.11.33-.33.11c-71.16,24.82-139.06,66.79-191.21,118.17a504.47,504.47,0,0,0-83,108.38Z" style="fill:#fff"/><path d="M2321,372.16a523.52,523.52,0,0,0-147.54-80l-.33-.11-.11-.32c-26.45-73.06-71.25-142.28-126.17-194.9a504.71,504.71,0,0,0-103.35-76.66l-.72-.41h2.94l0,0a507.34,507.34,0,0,1,102.07,76c55,52.69,99.87,122,126.41,195.13a524.15,524.15,0,0,1,147.19,79.76,524.55,524.55,0,0,1,147.55-80.1c25.73-71.05,68.77-138.65,121.23-190.36a513.32,513.32,0,0,1,73.25-60l.21-.14.61,1.32-.15.1a513,513,0,0,0-72.92,59.7c-52.38,51.65-95.35,119.18-121,190.15l-.11.33-.32.11a523.26,523.26,0,0,0-147.91,80.32l-.44.35Z" style="fill:#fff"/><path d="M3094.73,980.22l.14-.31c1.11-2.36,2.23-4.81,3.43-7.5l.2-.43.8,1.72,0,.09c-.94,2.11-1.91,4.21-2.88,6.3l-.06.13Z" style="fill:#fff"/><path d="M951.29,536.22l.05-.09c23.23-42.58,52.94-82.26,85.93-114.76,52.5-51.74,121-93.3,192.76-117a509.3,509.3,0,0,1,70.57-134.46l.06-.09h1.77l-.26.35a508.22,508.22,0,0,0-70.91,135l-.11.33-.33.11c-71.73,23.66-140.11,65.15-192.55,116.82-33.06,32.58-62.81,72.37-86,115.07l-.21.38Z" style="fill:#fff"/><path d="M2321,393.62a502.06,502.06,0,0,0-160.64-88.07l-.34-.12-.11-.33c-25.27-73.64-69.54-143.26-124.67-196A487.36,487.36,0,0,0,1906.9,20.19l.09-.41h2.32a488.91,488.91,0,0,1,127,88.23c55.2,52.87,99.56,122.57,124.92,196.29a503.63,503.63,0,0,1,160.3,87.84,504,504,0,0,1,160.57-88.32c24.62-71.73,67.2-139.78,119.9-191.64a496.74,496.74,0,0,1,68.66-56.52l.21-.14.6,1.32-.15.1A495.45,495.45,0,0,0,2603,113.19C2550.33,165,2507.83,233,2483.29,304.62l-.11.33-.34.12a502.37,502.37,0,0,0-160.9,88.55l-.46.37Z" style="fill:#fff"/><path d="M3076.31,980.22l.15-.31c4.42-9.14,8.6-18.46,12.41-27.7l.19-.46.82,1.77,0,.08c-3.62,8.77-7.62,17.69-11.89,26.49l0,.13Z" style="fill:#fff"/><path d="M960.12,555.17l0-.1c23.25-45.32,54-87.44,88.81-121.78,52.88-52.08,121.86-93.16,194.22-115.68a488.73,488.73,0,0,1,78.24-147.74l.06-.09h1.82l-.27.35a486.84,486.84,0,0,0-78.6,148.27l-.12.36-.36.1c-72.26,22.43-141.15,63.43-194,115.44-34.93,34.44-65.67,76.66-88.89,122.13l-.2.39Z" style="fill:#fff"/><path d="M3057.64,980.22l.16-.32a483,483,0,0,0,21.31-48.6l.18-.48.84,1.82,0,.09a483.29,483.29,0,0,1-20.8,47.37l-.06.12Z" style="fill:#fff"/><path d="M2321,415.4c-49.26-42.82-111-77.13-173.81-96.6l-.35-.12-.12-.35c-23.92-74.12-67.62-144.19-123-197.3a469.35,469.35,0,0,0-159-100.83l.08-.42h2.8A470.72,470.72,0,0,1,2024.66,120c55.49,53.19,99.27,123.34,123.3,197.55a488,488,0,0,1,173.5,96.36,488.71,488.71,0,0,1,173.77-96.76c23.32-72.22,65.39-140.79,118.46-193.09a481.16,481.16,0,0,1,64.07-53l.21-.14.61,1.31-.15.11a478.94,478.94,0,0,0-63.74,52.78c-53,52.24-95,120.74-118.21,192.87l-.12.36-.35.1a487.21,487.21,0,0,0-174.08,97l-.47.4Z" style="fill:#fff"/><path d="M3038.84,980.22l.17-.32a461.33,461.33,0,0,0,30-70.23l.18-.51.87,1.88,0,.08a463.32,463.32,0,0,1-29.51,69l-.06.12Z" style="fill:#fff"/><path d="M969.16,574.55l.05-.09c23-48.28,54.69-93,91.51-129.27,53.2-52.43,122.73-92.95,195.79-114.1a468.07,468.07,0,0,1,86.33-161.23l.07-.08h1.86l-.29.36a466.25,466.25,0,0,0-86.71,161.73l-.1.37-.39.12c-73,21.06-142.43,61.5-195.56,113.85-36.9,36.38-68.57,81.19-91.59,129.59l-.19.42Z" style="fill:#fff"/><path d="M2321,437.88c-51.78-48.27-118.23-85.77-187.1-105.61l-.37-.12-.12-.37c-22.47-74.69-65.54-145.25-121.29-198.68A456.2,456.2,0,0,0,1809.55,20.21l0-.43h3.94a457.83,457.83,0,0,1,199.55,112.27c55.83,53.53,99,124.18,121.56,199,68.72,19.87,135.06,57.29,186.82,105.38,51.83-48.28,118.26-85.84,187.09-105.77,21.94-72.88,63.44-142,116.86-194.65a463.28,463.28,0,0,1,59.52-49.58l.21-.14.61,1.31-.15.11A463.45,463.45,0,0,0,2626.43,137c-53.34,52.57-94.76,121.62-116.61,194.42l-.12.38-.37.1c-69,19.92-135.53,57.57-187.37,106l-.49.46Z" style="fill:#fff"/><path d="M978.41,594.4l0-.09c22.6-51.43,55.11-98.86,94-137.15C1126,404.35,1196.14,364.43,1270,344.72a446.75,446.75,0,0,1,94.86-174.86l.06-.08h1.9l-.32.36a445.43,445.43,0,0,0-95.23,175.36l-.1.4-.41.1c-73.73,19.6-143.79,59.44-197.27,112.17-39,38.39-71.51,85.94-94.05,137.52l-.19.43Z" style="fill:#fff"/><path d="M3019.9,980.22l.18-.32a443.22,443.22,0,0,0,38.38-92.81l.16-.56.92,2,0,.08a443.33,443.33,0,0,1-37.93,91.51l-.06.12Z" style="fill:#fff"/><path d="M2318.15,458.36c-53.56-52.89-123.78-92.82-197.72-112.42l-.39-.1-.12-.4c-20.9-75.35-63.3-146.45-119.39-200.21A438.6,438.6,0,0,0,1696.42,22.72h-.81A448.12,448.12,0,0,0,1619,29.29l-.26.05V27.89l.18,0a449.5,449.5,0,0,1,76.65-6.58h.81a440.17,440.17,0,0,1,305.1,122.91c56.17,53.84,98.67,125,119.67,200.47,74,19.7,144.33,59.72,198,112.69l2.34,2.32c1-1,2-2,3-3C2378,403.88,2448.18,364,2522,344.25c20.43-73.55,61.3-143.28,115.09-196.33a447.87,447.87,0,0,1,55-46.13l.22-.15L2693,103l-.14.11a445.73,445.73,0,0,0-54.68,45.86c-53.71,53-94.49,122.62-114.83,196.1l-.12.4-.4.1C2449,365.13,2379,405,2325.51,457.69l-3.51,3.5-.51.52Z" style="fill:#fff"/><path d="M987.93,614.82l0-.09C1009.77,560,1043,509.56,1084.19,469c54.06-53.27,124.9-92.53,199.47-110.56,17.52-69.55,54.38-136.52,103.8-188.58l.07-.07h2l-.34.37c-49.71,52.09-86.72,119.23-104.22,189l-.1.42-.43.1c-74.5,17.93-145.25,57.1-199.22,110.29C1044,510.67,1010.67,561.2,989,616.15l-.19.47Z" style="fill:#fff"/><path d="M3000.79,980.22l.19-.33a424.25,424.25,0,0,0,44.78-109.67l.12-.42.41-.1c1.34-.32,2.59-.63,3.84-1l.17,0,.62,1.33-.26.06-3.61.89a426.2,426.2,0,0,1-44.53,109.12l-.07.11Z" style="fill:#fff"/><path d="M2321,485.33c-4.29-4.67-9.06-9.61-14.57-15.13-54-53.31-124.87-92.56-199.59-110.52l-.41-.1-.12-.41a426.55,426.55,0,0,0-117.32-202A421.91,421.91,0,0,0,1696.47,39.37h-.81A430.53,430.53,0,0,0,1619,46.22l-.26.05V44.81l.18,0a432.28,432.28,0,0,1,76.7-6.85h.81A423.43,423.43,0,0,1,1990,156.18a428.28,428.28,0,0,1,117.62,202.21c74.8,18.05,145.77,57.4,199.84,110.8,5.54,5.55,10,10.19,14.09,14.6,4.78-5.2,9.74-10.34,14.75-15.27,54-53.25,124.83-92.5,199.41-110.55,18.77-74.35,59-144.74,113.24-198.21a431.22,431.22,0,0,1,50.37-42.55l.22-.15.6,1.31-.14.11A428.55,428.55,0,0,0,2650,160.77c-54.18,53.4-94.29,123.71-112.95,198l-.11.43-.42.1c-74.47,17.93-145.2,57.1-199.17,110.27-5.07,5-10.19,10.32-15.22,15.8l-.53.57Z" style="fill:#fff"/><path d="M997.82,636l0-.08a412.34,412.34,0,0,1,98.07-155.07c54.53-53.74,126.1-92.26,201.54-108.48a409.27,409.27,0,0,1,111.15-200.24c.79-.78,1.58-1.56,2.38-2.32l.06-.06h2.06l-.39.38-3.1,3a407.85,407.85,0,0,0-110.86,200l-.1.44-.45.1c-75.34,16.11-146.82,54.53-201.28,108.19a410.94,410.94,0,0,0-98.07,155.5Z" style="fill:#fff"/><path d="M2981.32,980.22l.21-.33a407.79,407.79,0,0,0,50.32-123.66l.1-.44.44-.1c3.5-.75,7-1.55,10.53-2.4l.17,0,.62,1.32-.26.06c-3.28.8-6.66,1.58-10.3,2.36a408.92,408.92,0,0,1-50.08,123.12l-.06.11Z" style="fill:#fff"/><path d="M2321,510.7c-8.35-10-17.21-19.6-26.32-28.58-54.46-53.8-126.08-92.3-201.67-108.41l-.44-.1-.1-.44A406.18,406.18,0,0,0,1696,56.12h-.37A412.33,412.33,0,0,0,1619,63.26l-.26.05V61.84l.18,0a414.92,414.92,0,0,1,76.67-7.13h.37a407.59,407.59,0,0,1,397.72,317.73c75.69,16.22,147.4,54.82,201.93,108.7,8.93,8.8,17.63,18.22,25.86,28,8.45-10.05,17.36-19.69,26.48-28.66,54.51-53.74,126.07-92.26,201.52-108.48A409.15,409.15,0,0,1,2660.64,171.7a415,415,0,0,1,45.87-39.07l.21-.16.62,1.33-.14.1a414.14,414.14,0,0,0-45.56,38.81,407.78,407.78,0,0,0-110.84,200l-.1.44-.44.1c-75.35,16.11-146.83,54.53-201.27,108.19-9.37,9.24-18.43,19.07-26.92,29.23l-.56.66Z" style="fill:#fff"/><path d="M2961.69,980.22l.22-.34A386.78,386.78,0,0,0,3017.74,842l.1-.48.47-.08c5.67-1.05,11.52-2.28,17.38-3.64l.17,0,.62,1.32-.26.06c-5.78,1.35-11.55,2.57-17.17,3.62a388.22,388.22,0,0,1-55.59,137.36l-.06.1Z" style="fill:#fff"/><path d="M2320.94,537.58A393,393,0,0,0,2282.88,494c-55-54.34-127.49-92-204-106l-.47-.08-.1-.49A389.39,389.39,0,0,0,1696,72.83h-.36A397.11,397.11,0,0,0,1619,80.26l-.26,0V78.85l.18,0a397.85,397.85,0,0,1,76.65-7.43h.36a390.87,390.87,0,0,1,383.64,315.25c76.63,14.17,149.16,51.93,204.27,106.36a393.75,393.75,0,0,1,37.63,43A391,391,0,0,1,2563.6,386.19a390.52,390.52,0,0,1,150.12-238.11l.21-.16.63,1.33-.14.1a396.92,396.92,0,0,0-41.05,35.24A388.69,388.69,0,0,0,2564.91,387l-.1.49-.47.08a389.44,389.44,0,0,0-242.26,150.06l-.57.77Z" style="fill:#fff"/><path d="M1008.14,658.16l0-.08a390.24,390.24,0,0,1,303.41-271.42,390,390,0,0,1,108.76-202.6c4.94-4.87,10.05-9.66,15.21-14.22l.06-.06h2.17l-.43.38c-5.39,4.76-10.78,9.78-16,14.92a388.51,388.51,0,0,0-108.45,202.33l-.1.49-.48.08a388.81,388.81,0,0,0-303.09,271.57l-.17.55Z" style="fill:#fff"/><path d="M2320.94,566.64A373.81,373.81,0,0,0,2064.52,402.5l-.52-.07-.07-.52A372.87,372.87,0,0,0,1696,89.55h-.41A379.71,379.71,0,0,0,1619,97.33l-.26,0V95.92l.18,0a380.27,380.27,0,0,1,76.65-7.78h.41a374.27,374.27,0,0,1,369.23,313.06,375.37,375.37,0,0,1,256.29,163.77A376,376,0,0,1,2578,400.71a373,373,0,0,1,106.1-205.2A381,381,0,0,1,2721,163.58l.21-.16.63,1.33-.14.1a381.05,381.05,0,0,0-36.54,31.67,371.78,371.78,0,0,0-105.79,204.93l-.07.52-.51.08a374.47,374.47,0,0,0-256.6,164.59l-.6.9Z" style="fill:#fff"/><path d="M2941.53,980.22l.23-.34a368.93,368.93,0,0,0,61.58-152.37l.08-.52.5-.08c8.24-1.26,16.49-2.8,24.54-4.59l.17,0,.63,1.33-.26.06c-8,1.77-16.15,3.31-24.34,4.58a370.32,370.32,0,0,1-61.33,151.87l-.07.1Z" style="fill:#fff"/><path d="M1019.07,681.6l0-.07a374.55,374.55,0,0,1,306.82-280.34A373.54,373.54,0,0,1,1461.5,169.83l0-.05h2.29l-.49.39A382.55,382.55,0,0,0,1433.07,197a371.8,371.8,0,0,0-105.83,205l-.08.52-.52.07a375.29,375.29,0,0,0-206.23,103.23,371.16,371.16,0,0,0-100.22,177.34l-.15.6Z" style="fill:#fff"/><path d="M1699.79,980.22l-.07-.1c-1.31-1.88-2.65-3.84-4-5.83-1.25,1.89-2.59,3.85-4,5.83l-.07.1H1690l.23-.34c1.64-2.35,3.29-4.8,4.93-7.27l.59-.9.93,1.38c1.6,2.42,3.11,4.64,4.62,6.79l.24.34Z" style="fill:#fff"/><path d="M1720.39,980.22l-.06-.09c-3.77-5.08-7.43-10.31-10.89-15.52-4.81-7.27-9.41-14.8-13.68-22.4a357.79,357.79,0,0,1-24.58,37.92l-.06.09h-1.77l.26-.35a357.44,357.44,0,0,0,25.53-39.47l.63-1.13.62,1.14c4.45,8,9.25,15.86,14.25,23.41,3.68,5.55,7.48,10.95,11.28,16l.26.35Z" style="fill:#fff"/><path d="M2321,599A357,357,0,0,0,2049.82,417.4l-.56-.07-.07-.55A356,356,0,0,0,1696.1,106.27h-.46a361.58,361.58,0,0,0-76.59,8.17l-.27.06V113l.17,0a362.44,362.44,0,0,1,76.69-8.17h.46a357.47,357.47,0,0,1,354.43,311.22,357.8,357.8,0,0,1,271,181.11,358.38,358.38,0,0,1,271.2-181.56,356.11,356.11,0,0,1,103.09-208.18,361.06,361.06,0,0,1,32.34-28.3l.21-.17.62,1.34-.14.1a363.1,363.1,0,0,0-32,28,354.77,354.77,0,0,0-102.75,207.9l-.07.56-.56.05a357.7,357.7,0,0,0-271.28,182l-.63,1.13Z" style="fill:#fff"/><path d="M1030.84,706.83v-.07a352.85,352.85,0,0,1,100.31-190.12,360.33,360.33,0,0,1,209.57-100.58,356.25,356.25,0,0,1,103.11-208.18,362.29,362.29,0,0,1,45.53-38.06l.05,0h2.5l-.57.4a362.61,362.61,0,0,0-46.51,38.72,354.81,354.81,0,0,0-102.76,207.89l-.07.55-.55.07a358.81,358.81,0,0,0-209.29,100.25A353.3,353.3,0,0,0,1032,708.42l-.12.68Z" style="fill:#fff"/><path d="M2921,980.22l.26-.35a354.15,354.15,0,0,0,67.31-167.23l.07-.56.56-.05c10.7-1.25,21.47-3,32-5.21l.16,0,.62,1.32-.27.06c-10.34,2.19-21,4-31.81,5.22a355.35,355.35,0,0,1-67.06,166.75l-.06.09Z" style="fill:#fff"/><path d="M1043.76,734.56v-.06a337.22,337.22,0,0,1,99.11-206,340.82,340.82,0,0,1,213-97.19,336.67,336.67,0,0,1,99.65-211.58,343,343,0,0,1,64.44-50l0,0h2.79l-.68.41a341.39,341.39,0,0,0-65.6,50.6,335.38,335.38,0,0,0-99.27,211.3l-.06.6-.6.05a339.43,339.43,0,0,0-212.74,96.82A335.74,335.74,0,0,0,1045,736.31Z" style="fill:#fff"/><path d="M2899.9,980.22l.28-.36a333.76,333.76,0,0,0,73.19-182.53l.05-.61.62-.05a339.28,339.28,0,0,0,39.94-5.41l.16,0,.63,1.33-.27.05a339.35,339.35,0,0,1-39.75,5.45,335.54,335.54,0,0,1-72.93,182.08l-.07.08Z" style="fill:#fff"/><path d="M2320.91,637A339.29,339.29,0,0,0,2034.6,432.73l-.61-.05,0-.6A339,339,0,0,0,1696.27,123h-.66a344.44,344.44,0,0,0-76.56,8.57l-.27.06v-1.46l.17,0a345.92,345.92,0,0,1,76.66-8.57h.66a340.6,340.6,0,0,1,339,309.81A340.75,340.75,0,0,1,2321.57,635,341.23,341.23,0,0,1,2608,430.9a336.67,336.67,0,0,1,99.65-211.58,348.35,348.35,0,0,1,27.85-24.65l.21-.17.63,1.33-.14.11a342.76,342.76,0,0,0-27.55,24.39,335.33,335.33,0,0,0-99.27,211.3l-.05.6-.61,0A339.82,339.82,0,0,0,2322.23,637l-.66,1.52Z" style="fill:#fff"/><path d="M1741.41,980.22l-.07-.09c-6.35-7.93-12.41-16.25-18-24.72a339.31,339.31,0,0,1-27.63-50.57,340.67,340.67,0,0,1-45.62,75.29l-.07.09h-1.81l.28-.36a339.2,339.2,0,0,0,46.56-77.1l.66-1.5.65,1.5a337.92,337.92,0,0,0,28.18,51.86c5.75,8.67,12,17.17,18.45,25.24l.28.36Z" style="fill:#fff"/><path d="M2321.42,690.48l-.48-1.87a322.08,322.08,0,0,0-302-240l-.67,0,0-.68c-3.26-83-38.36-160.62-98.84-218.46a322.22,322.22,0,0,0-223.72-89.77,327.21,327.21,0,0,0-76.6,9l-.27.06v-1.47l.17,0a328.71,328.71,0,0,1,76.7-9,323.67,323.67,0,0,1,224.56,90c60.67,58,96,135.69,99.41,218.93a323.58,323.58,0,0,1,302,238.42,324,324,0,0,1,302.09-238.89,319.86,319.86,0,0,1,95.64-215.53c7.43-7.33,15.3-14.37,23.37-20.94l.22-.17.62,1.33-.13.11c-8,6.53-15.77,13.49-23.08,20.68a318.51,318.51,0,0,0-95.23,215.25l0,.67-.67,0a322.51,322.51,0,0,0-302.11,240.46l-.48,1.87Z" style="fill:#fff"/><path d="M1054,756.6l.32,0c1.53-.07,3.07-.13,4.6-.18a323.21,323.21,0,0,1,312.72-309.2,319.86,319.86,0,0,1,95.63-215.53,323.3,323.3,0,0,1,88-61.86l2.44,0,.09.42a321.92,321.92,0,0,0-89.52,62.49,318.38,318.38,0,0,0-95.22,215.23l0,.67-.68,0a321.72,321.72,0,0,0-312,308.51l0,.67-.68,0c-1.61.05-3.22.11-4.83.19Z" style="fill:#fff"/><path d="M1763.24,980.22l-.06-.08a318.5,318.5,0,0,1-67.5-125.09,321.33,321.33,0,0,1-67.38,125.09l-.06.08h-1.91l.32-.36A319.53,319.53,0,0,0,1695,852.14l.7-2.57.69,2.57a321.39,321.39,0,0,0,68.46,127.72l.32.36Z" style="fill:#fff"/><path d="M2877.92,980.22l.32-.36a317,317,0,0,0,79.32-198.41l0-.66.66,0a320.37,320.37,0,0,0,48.44-5.11l.16,0,.63,1.34-.27,0a321.37,321.37,0,0,1-48.24,5.17,316.7,316.7,0,0,1-79.07,198l-.06.08Z" style="fill:#fff"/><path d="M1076.16,774.51c-1.85-.07-3.32-.08-6.8-.08-2.56,0-4.8,0-6.83.08h-.15l-.65-1.42h.32c2.42-.06,4.88-.09,7.31-.09,2.86,0,4.46,0,6.1.06v-3.71c0-82.15,32.29-159.2,90.92-217,58-57.14,134.9-88.61,216.6-88.61,2.5,0,3.82,0,5.11,0v-3.17c0-82.12,32.29-159.17,90.93-216.95a304.41,304.41,0,0,1,121.6-73.83H1604l.06.43a307.12,307.12,0,0,0-124,74.42c-58.36,57.51-90.49,134.2-90.49,215.94v4.56l-.69,0c-1.56,0-2.82,0-5.86,0-81.33,0-157.9,31.32-215.6,88.18-58.35,57.52-90.48,134.21-90.48,216v5.18Z" style="fill:#fff"/><path d="M2855.18,980.22l.35-.37a301.39,301.39,0,0,0,85.56-211v-4.57h6.55a313.84,313.84,0,0,0,51.76-4.3l.17,0,.63,1.35-.28,0a313.59,313.59,0,0,1-52.28,4.38h-5.11v3.13a302.92,302.92,0,0,1-85.28,211.27l-.07.07Z" style="fill:#fff"/><path d="M1785.94,980.22l-.07-.07a303.09,303.09,0,0,1-85.13-210.84v-3.13l-2.17,0-3,0c-2.51,0-3.82,0-5.11,0v3.15a301.95,301.95,0,0,1-71.35,195.8l-.38.45v-2.21l0-.06a300.58,300.58,0,0,0,70.24-194v-4.55l.7,0c1.58,0,2.83,0,5.85,0l2.74,0,3.1,0h.72v4.57c0,78.8,30.32,153.57,85.4,210.54l.35.37Z" style="fill:#fff"/><path d="M2314.37,769.31a301.19,301.19,0,0,0-90.22-215.84c-57.7-56.92-134.37-88.26-215.89-88.26l-2.82,0h-.14l-2.87,0h-.72v-4.59c0-167.7-137.31-304.13-306.09-304.13a310.52,310.52,0,0,0-76.57,9.54l-.27.07v-1.48l.17,0a311.31,311.31,0,0,1,76.67-9.53c169.57,0,307.53,137.08,307.53,305.57v3.15l2.31,0,2.8,0c81.89,0,158.92,31.49,216.89,88.68a302.68,302.68,0,0,1,90.66,216.86v2.79c2.37-.05,4.52-.08,6.57-.08h5.11v-3.14c0-82.13,32.29-159.18,90.91-217,58-57.15,134.91-88.62,216.61-88.62h5.11v-3.13c0-82.14,32.29-159.19,90.92-217,6.09-6,12.49-11.81,19-17.26l.22-.18.63,1.36-.13.11c-6.38,5.33-12.68,11-18.72,17-58.36,57.5-90.49,134.19-90.49,215.94v4.57H2635c-81.32,0-157.89,31.32-215.61,88.2-58.34,57.51-90.47,134.2-90.47,215.94v4.58h-6.55c-2.39,0-4.84,0-7.27.09h-.74Z" style="fill:#fff"/><path d="M2831.37,980.22l.4-.38c2.38-2.19,4.77-4.46,7.1-6.76,55.13-54.39,85.49-126.85,85.49-204.05,0-7.36.21-14,.6-19.89l.05-.62.61-.06c6.41-.51,13.82-.77,22-.77h1a288.42,288.42,0,0,0,43.5-3.3l.16,0,.63,1.35-.29,0a288.49,288.49,0,0,1-44,3.37h-1c-7.86,0-15,.24-21.3.71-.37,5.69-.55,12.14-.55,19.19,0,77.58-30.52,150.41-85.93,205.06-2.07,2.06-4.2,4.1-6.33,6.07l-.07.06Z" style="fill:#fff"/><path d="M1809.87,980.22l-.07-.06a288.69,288.69,0,0,1-67.44-94.07,284.53,284.53,0,0,1-24.86-116.84c0-6.94-.18-13.4-.54-19.19-6.28-.47-13.45-.71-21.31-.71s-14.91.24-21.3.71c-.37,5.69-.55,12.14-.55,19.19a284.94,284.94,0,0,1-54.63,168.69l-.39.53V936l0-.06a283.57,283.57,0,0,0,53.54-166.72c0-7.35.21-14,.6-19.9l0-.62.61-.05c6.53-.51,13.94-.77,22-.77s15.63.26,22,.77l.61.05,0,.61c.39,6,.59,12.67.59,19.91a282.88,282.88,0,0,0,25,116.76,286.94,286.94,0,0,0,67.67,93.83l.4.38Z" style="fill:#fff"/><path d="M1093.65,792.13c-7.86-.63-15.72-1-23.36-1h-.14l-.67-1.45h.34c7.67,0,15.45.32,23.12.92-.53-7.07-.8-14.23-.8-21.3,0-77.6,30.53-150.42,85.95-205.05A290,290,0,0,1,1382,480.51h1c7.85,0,15-.24,21.3-.71.37-5.83.55-12.29.55-19.2,0-77.59,30.52-150.41,85.94-205a290,290,0,0,1,203.91-83.77h.95c160.35,0,290.81,129.58,290.81,288.85,0,7.05.18,13.51.55,19.2,6.27.47,13.43.71,21.3.71,77.51,0,150.37,29.8,205.14,83.91a286,286,0,0,1,85.67,205c0,6.84-.24,13.7-.72,20.39,7.71-.61,15.77-.92,24-.92,8,0,15.15-.24,21.3-.71.37-5.67.55-12.12.55-19.19,0-77.59,30.52-150.41,85.94-205a290.09,290.09,0,0,1,203.92-83.78h.95c7.74,0,14.9-.24,21.3-.71.37-5.67.55-12.12.55-19.19,0-77.57,30.52-150.4,85.93-205,4.69-4.65,9.61-9.19,14.63-13.5l.22-.19.62,1.36-.12.1c-4.89,4.22-9.72,8.67-14.35,13.24-55.13,54.39-85.49,126.85-85.49,204,0,7.37-.21,14.06-.6,19.9l-.05.62-.61.05c-6.53.51-13.94.77-22,.77h-.95A288.67,288.67,0,0,0,2431.13,565c-55.14,54.37-85.5,126.83-85.5,204,0,7.38-.21,14.07-.6,19.9l-.05.62-.61.05c-6.41.51-13.82.77-22,.77-8.5,0-16.8.33-24.68,1l-.85.07.07-.84c.51-6.93.76-14,.76-21.12a284.62,284.62,0,0,0-85.23-204c-54.51-53.83-127-83.48-204.14-83.48-8.22,0-15.63-.26-22-.77l-.61-.06-.05-.61c-.39-5.85-.6-12.54-.6-19.91,0-158.48-129.81-287.41-289.37-287.41h-.95a288.72,288.72,0,0,0-202.91,83.35c-55.14,54.38-85.5,126.84-85.5,204,0,7.22-.21,13.91-.6,19.9l-.05.63-.61.05c-6.41.51-13.82.77-22,.77h-1a288.72,288.72,0,0,0-202.91,83.35c-55.14,54.38-85.51,126.84-85.51,204,0,7.22.28,14.63.85,22l0,.85Z" style="fill:#fff"/><path d="M2805.69,980.22l.48-.39a269.4,269.4,0,0,0,21.12-18.8,267.85,267.85,0,0,0,80.52-192.17c0-14.42.72-26.18,2.14-35l.07-.51.5-.08c9.55-1.67,22.09-2.52,37.29-2.52h.89a272.63,272.63,0,0,0,36-2.39l.16,0,.64,1.35-.29,0a272.39,272.39,0,0,1-36.48,2.45h-.88c-14.84,0-27.13.8-36.53,2.4-1.35,8.68-2,20.19-2,34.22a269.33,269.33,0,0,1-81,193.19c-6.45,6.38-13.26,12.47-20.24,18.12l-.06.05Z" style="fill:#fff"/><path d="M1835.34,980.22l-.06-.05c-64.22-52-101.06-128.9-101.06-210.9,0-13.95-.68-25.47-2-34.22-9.41-1.6-21.7-2.4-36.54-2.4s-27.12.8-36.54,2.4c-1.35,8.68-2,20.19-2,34.22a270.31,270.31,0,0,1-37.89,138.37l-.41.67v-2.79l0,0a268.86,268.86,0,0,0,36.83-136.2c0-14.36.72-26.12,2.14-34.95l.08-.52.5-.08c9.59-1.66,22.13-2.51,37.29-2.51s27.72.85,37.29,2.51l.5.08.08.51c1.42,8.91,2.14,20.67,2.14,35,0,82,37,158.78,101.48,210.56l.47.39Z" style="fill:#fff"/><path d="M1112.6,811.24a278.89,278.89,0,0,0-34.46-3.22H1078l-.69-1.46h.36a283.37,283.37,0,0,1,34.17,3.11,273.5,273.5,0,0,1-3-40.32c0-73.09,28.75-141.7,81-193.18a273.44,273.44,0,0,1,192.23-79h1c14.91,0,27.2-.8,36.55-2.4,1.35-8.73,2-20.24,2-34.22a269.27,269.27,0,0,1,81-193.19,273.49,273.49,0,0,1,192.26-79h.87c151.13,0,274.09,122.08,274.09,272.13,0,14,.68,25.5,2,34.23,9.36,1.6,21.65,2.4,36.54,2.4,73.08,0,141.76,28.09,193.39,79.09a269.38,269.38,0,0,1,80.7,193,276.11,276.11,0,0,1-2.82,39.45,282.26,282.26,0,0,1,42.61-3.26h.2c14.78,0,27.07-.8,36.54-2.4,1.35-8.73,2-20.25,2-34.23a269.21,269.21,0,0,1,81-193.13,273.44,273.44,0,0,1,192.23-79h1c14.78,0,27.07-.8,36.54-2.4,1.35-8.75,2-20.27,2-34.23a269.24,269.24,0,0,1,81-193.13c3.25-3.22,6.65-6.41,10.11-9.49l.21-.19.63,1.33-.12.11c-3.4,3.05-6.7,6.16-9.83,9.25a267.8,267.8,0,0,0-80.51,192.12c0,14.28-.72,26.05-2.14,35l-.08.51-.5.08c-9.55,1.67-22.1,2.52-37.29,2.52h-1a272,272,0,0,0-191.23,78.58,267.81,267.81,0,0,0-80.52,192.12c0,14.31-.72,26.07-2.14,35l-.08.51-.5.08c-9.55,1.67-22.1,2.52-37.29,2.52h-.19a281.67,281.67,0,0,0-43.36,3.38l-1,.16.15-1a275.23,275.23,0,0,0,2.94-40.21,267.94,267.94,0,0,0-80.26-192c-51.37-50.73-119.7-78.66-192.39-78.66-15.22,0-27.77-.85-37.3-2.51l-.5-.08-.07-.52c-1.42-8.83-2.14-20.59-2.14-35,0-149.26-122.31-270.69-272.65-270.69h-.87a272,272,0,0,0-191.25,78.57A267.78,267.78,0,0,0,1423,460.54c0,14.3-.72,26.07-2.14,35l-.08.5-.5.1c-9.51,1.66-22.06,2.51-37.3,2.51h-.91a272.07,272.07,0,0,0-191.26,78.58c-51.93,51.22-80.52,119.47-80.52,192.17a271.77,271.77,0,0,0,3.1,41.08l.15,1Z" style="fill:#fff"/><path d="M1863.28,980.22l0,0c-70.31-47.78-112.29-126.62-112.29-210.88,0-27.9-2.58-41.53-4.76-48.07-7.11-2.41-21.63-5.27-50.55-5.27s-43.41,2.86-50.56,5.27c-3.12,9.39-4.76,26-4.76,48.07A251.2,251.2,0,0,1,1619.2,871l-.42-.09V868.4a250,250,0,0,0,20.09-99.1c0-22.5,1.72-39.4,5-48.86l.1-.33.33-.11c10.29-3.58,28-5.48,51.36-5.48,29.47,0,44.19,3,51.35,5.48l.33.11.11.33c3.24,9.42,5,26.31,5,48.86,0,84.38,42.2,163.08,112.88,210.52l.59.4Z" style="fill:#fff"/><path d="M2777.1,980.22l.59-.4a256.87,256.87,0,0,0,37.68-30.73,251.32,251.32,0,0,0,75.55-180.23c0-28.54,2.7-42.32,5-48.85l.11-.33.33-.11c10.31-3.59,28.07-5.49,51.35-5.49h.79a254,254,0,0,0,28.77-1.63l.15,0,.64,1.37-.3,0a257.16,257.16,0,0,1-29.27,1.68h-.78c-28.84,0-43.4,2.86-50.55,5.28-2.18,6.51-4.76,20.11-4.76,48.06a252.61,252.61,0,0,1-76,181.24,256.08,256.08,0,0,1-36.65,30.08l0,0Z" style="fill:#fff"/><path d="M2256.75,830.92a254.69,254.69,0,0,0,7.48-61.56A251.44,251.44,0,0,0,2189,589.21c-48.24-47.61-112.39-73.83-180.65-73.83-29.44,0-44.18-3-51.35-5.48l-.33-.11-.11-.33c-3.25-9.4-5-26.3-5-48.87,0-140-114.8-254-255.92-254h-.83a255.45,255.45,0,0,0-179.56,73.77,251.26,251.26,0,0,0-75.53,180.21c0,28.62-2.7,42.38-5,48.87l-.11.33-.33.11c-10.29,3.58-28,5.48-51.36,5.48h-.83A254.22,254.22,0,0,0,1134.33,830l.07.27h-1.48l0-.17a256.22,256.22,0,0,1,249.24-316.11h.83c28.86,0,43.41-2.86,50.55-5.28,2.18-6.47,4.76-20.05,4.76-48.07a252.74,252.74,0,0,1,76-181.23,256.92,256.92,0,0,1,180.56-74.18h.83c141.91,0,257.36,114.58,257.36,255.41,0,27.91,2.58,41.54,4.76,48.07,7.12,2.42,21.66,5.28,50.56,5.28,68.65,0,133.16,26.37,181.65,74.26a252.88,252.88,0,0,1,75.72,181.16,255.9,255.9,0,0,1-7.25,60.74,261.06,261.06,0,0,1,63.55-7.86h.36c28.84,0,43.4-2.86,50.55-5.28,2.18-6.51,4.76-20.12,4.76-48.07a252.72,252.72,0,0,1,76-181.27,256.76,256.76,0,0,1,180.55-74.18h.83c22.82,0,40.3-1.82,50.56-5.28,2.18-6.49,4.75-20.09,4.75-48.07a252.64,252.64,0,0,1,75.92-181.22c2-2,4-3.89,5.88-5.63l.22-.2.63,1.36-.11.11c-1.9,1.75-3.79,3.56-5.62,5.37a251.31,251.31,0,0,0-75.48,180.21c0,28.55-2.7,42.34-5,48.87l-.11.33-.33.11c-10.35,3.58-28.1,5.48-51.35,5.48h-.83a255.45,255.45,0,0,0-179.55,73.76,251.29,251.29,0,0,0-75.53,180.26c0,28.54-2.7,42.33-5,48.87l-.11.33-.34.11c-10.3,3.58-28.06,5.48-51.34,5.48H2322a259.47,259.47,0,0,0-64.35,8.1l-1.16.3Z" style="fill:#fff"/><path d="M1123.26,830.22a258.26,258.26,0,0,0-37.15-5.1H1086l-.69-1.48.36,0a259,259,0,0,1,42.29,6.14l0,.43Z" style="fill:#fff"/><path d="M2744.84,980.22l-.1-.41a238.65,238.65,0,0,0,58.91-42.67,234.61,234.61,0,0,0,70.56-168.32c0-21.41,1.54-38.18,4.56-49.82a45.84,45.84,0,0,1,3.24-9.13,11,11,0,0,1,1.77-2.69,11.27,11.27,0,0,1,2.7-1.66,50.09,50.09,0,0,1,9.58-3.38c12.29-3.2,29.65-4.82,51.6-4.82h.67c7.21,0,14.41-.32,21.39-1h.15l.65,1.38-.31,0c-7.22.65-14.59,1-21.9,1h-.65c-21.83,0-39.07,1.6-51.25,4.77a48.58,48.58,0,0,0-9.28,3.26,15.68,15.68,0,0,0-1.87,1.07,5.48,5.48,0,0,0-.49.35,10.29,10.29,0,0,0-1.49,2.32,44.71,44.71,0,0,0-3.13,8.82c-3,11.54-4.5,28.19-4.5,49.47a236.09,236.09,0,0,1-71,169.33,239.49,239.49,0,0,1-57.56,42l0,0Z" style="fill:#fff"/><path d="M2230.79,856.92a236.61,236.61,0,0,0-53.61-255.8c-45.06-44.5-105-69-168.9-69-22,0-39.44-1.63-51.73-4.85a50.14,50.14,0,0,1-9.47-3.35,12.47,12.47,0,0,1-2.69-1.66,11.52,11.52,0,0,1-1.75-2.68,45.49,45.49,0,0,1-3.26-9.12c-3-11.66-4.55-28.43-4.55-49.85,0-130.83-107.31-237.26-239.21-237.26h-.76a238.84,238.84,0,0,0-167.9,69,234.67,234.67,0,0,0-70.56,168.3c0,21.45-1.53,38.22-4.55,49.84a44.33,44.33,0,0,1-3.25,9.12,11.3,11.3,0,0,1-1.75,2.68,12.61,12.61,0,0,1-2.72,1.68,50,50,0,0,1-9.57,3.37c-12.29,3.2-29.66,4.82-51.61,4.82h-.8a237.84,237.84,0,0,0-230.52,297.84l.07.28h-1.49l0-.16a239.47,239.47,0,0,1,232-299.39h.8c21.84,0,39.08-1.6,51.24-4.77a49.21,49.21,0,0,0,9.29-3.26,18.36,18.36,0,0,0,1.86-1.06c.27-.18.45-.33.49-.36a9.79,9.79,0,0,0,1.49-2.31,44.71,44.71,0,0,0,3.13-8.82c3-11.5,4.5-28.15,4.5-49.49a236.11,236.11,0,0,1,71-169.31,240.25,240.25,0,0,1,168.9-69.39h.76c132.69,0,240.65,107.08,240.65,238.7,0,21.3,1.51,38,4.5,49.5a43.54,43.54,0,0,0,3.14,8.81,9.92,9.92,0,0,0,1.47,2.31c.07,0,.22.18.5.36a17.26,17.26,0,0,0,1.84,1.06,49.67,49.67,0,0,0,9.18,3.23c12.17,3.19,29.46,4.8,51.38,4.8,64.22,0,124.56,24.66,169.9,69.43a238.21,238.21,0,0,1,54.54,255.81,240.64,240.64,0,0,1,89-17h.62c21.83,0,39.07-1.6,51.25-4.77a49.21,49.21,0,0,0,9.29-3.26,18.06,18.06,0,0,0,1.87-1.06c.26-.18.44-.33.48-.36a10.29,10.29,0,0,0,1.49-2.32,43.78,43.78,0,0,0,3.13-8.82c3-11.5,4.5-28.15,4.5-49.48a236.11,236.11,0,0,1,71-169.32,240.3,240.3,0,0,1,168.87-69.37h.76c21.82,0,39.06-1.6,51.25-4.76a50,50,0,0,0,9.29-3.26,18.36,18.36,0,0,0,1.86-1.06l.49-.36a9.84,9.84,0,0,0,1.49-2.31,44.88,44.88,0,0,0,3.13-8.82c3-11.55,4.5-28.2,4.5-49.49a236,236,0,0,1,71-169.36l1.55-1.52.22-.2.64,1.37-1.4,1.36a234.67,234.67,0,0,0-70.58,168.35c0,21.4-1.53,38.17-4.55,49.84a45.94,45.94,0,0,1-3.25,9.12,10.61,10.61,0,0,1-1.77,2.69,12.69,12.69,0,0,1-2.7,1.67,50.46,50.46,0,0,1-9.58,3.37c-12.31,3.19-29.67,4.81-51.6,4.81h-.76a238.84,238.84,0,0,0-167.87,69,234.67,234.67,0,0,0-70.56,168.3c0,21.44-1.53,38.21-4.55,49.84a45.84,45.84,0,0,1-3.25,9.12,11.2,11.2,0,0,1-1.75,2.67,12.1,12.1,0,0,1-2.72,1.69,50.34,50.34,0,0,1-9.58,3.37c-12.29,3.2-29.65,4.82-51.6,4.82h-.62a239.24,239.24,0,0,0-90,17.49l-1.55.63Z" style="fill:#fff"/><path d="M1895.65,980.22l-.05,0c-78.94-41.66-128-122.46-128-210.88,0-21.34-1.51-38-4.5-49.49A43.24,43.24,0,0,0,1760,711a9.43,9.43,0,0,0-1.49-2.32,4.3,4.3,0,0,0-.48-.35,15.82,15.82,0,0,0-1.87-1.07,49.92,49.92,0,0,0-9.29-3.26c-12.22-3.17-29.46-4.77-51.25-4.77s-39,1.6-51.25,4.77a50,50,0,0,0-9.28,3.26,16.53,16.53,0,0,0-1.87,1.07c-.26.17-.44.31-.49.35a9.74,9.74,0,0,0-1.49,2.32,44.71,44.71,0,0,0-3.13,8.82c-3,11.54-4.5,28.19-4.5,49.48a236.16,236.16,0,0,1-7.8,60.75l0,.16h-1.48l.07-.28a234.71,234.71,0,0,0,7.81-60.63c0-21.4,1.53-38.17,4.55-49.83a46,46,0,0,1,3.25-9.13,7.43,7.43,0,0,1,4.47-4.35,50.66,50.66,0,0,1,9.58-3.38c12.29-3.2,29.65-4.82,51.6-4.82s39.31,1.62,51.6,4.82a50.66,50.66,0,0,1,9.58,3.38,12.06,12.06,0,0,1,2.72,1.68,11.41,11.41,0,0,1,1.75,2.67,44.55,44.55,0,0,1,3.25,9.12c3,11.62,4.55,28.39,4.55,49.84A235,235,0,0,0,1804.8,894,239.94,239.94,0,0,0,1898,979.81l-.1.41Z" style="fill:#fff"/><path d="M2700.46,980.22l-.06-.43a223.06,223.06,0,0,0,91.51-54.52,218,218,0,0,0,65.56-156.41c0-39.27,4.89-64,14.54-73.53,3.89-3.85,10.69-7,20.21-9.45,13.58-3.47,32.22-5.24,55.42-5.24h.86c4.47,0,9.07-.15,13.69-.44h.14l.65,1.39-.32,0c-4.77.3-9.54.46-14.18.46h-.84c-23,0-41.57,1.74-55.07,5.19-9.27,2.37-15.85,5.42-19.56,9.08-9.36,9.24-14.1,33.64-14.1,72.51a219.48,219.48,0,0,1-66,157.42,224.54,224.54,0,0,1-89,53.93h-3.42Z" style="fill:#fff"/><path d="M1938.43,980.22a223.29,223.29,0,0,1-110.52-79.58,218.83,218.83,0,0,1-43.48-131.32c0-38.88-4.74-63.28-14.09-72.52-3.69-3.65-10.28-6.7-19.56-9.08-13.51-3.44-32-5.18-55.08-5.18s-41.57,1.74-55.08,5.18c-9.28,2.38-15.87,5.43-19.56,9.08-9.35,9.25-14.09,33.65-14.09,72.52a219.12,219.12,0,0,1-8.43,60.74l0,.16H1597l.08-.28a217.71,217.71,0,0,0,8.45-60.62c0-39.27,4.89-64,14.53-73.53,3.88-3.84,10.67-7,20.21-9.46,13.59-3.47,32.24-5.23,55.43-5.23s41.84,1.76,55.42,5.23c9.54,2.44,16.34,5.62,20.22,9.46,9.64,9.51,14.53,34.26,14.53,73.53A217.26,217.26,0,0,0,1830,901a224.76,224.76,0,0,0,111.81,78.78l-.06.43Z" style="fill:#fff"/><path d="M2121,980.22l.16-.32a217.48,217.48,0,0,1,18.41-30.66,223.42,223.42,0,0,1-61,31h-3.33l-.06-.43a221.73,221.73,0,0,0,67.32-34.47l2.81-2.11.3.3-2.11,2.81a218.69,218.69,0,0,0-20.84,33.78l-.06.12Z" style="fill:#fff"/><path d="M2185.05,903.41l2.08-2.79A219.63,219.63,0,0,0,2165.42,613c-41.92-41.39-97.73-64.18-157.15-64.18-23.17,0-41.81-1.77-55.42-5.24-9.52-2.43-16.32-5.6-20.22-9.45-9.64-9.52-14.53-34.26-14.53-73.54,0-121.6-99.81-220.53-222.49-220.53h-.76a222.22,222.22,0,0,0-156.16,64.14,218.11,218.11,0,0,0-65.57,156.4c0,39.28-4.89,64-14.53,73.54-3.88,3.84-10.68,7-20.21,9.45-13.62,3.47-32.27,5.24-55.43,5.24h-.76A222.22,222.22,0,0,0,1226,613a218.86,218.86,0,0,0-57,217l.08.28h-1.49l0-.16a222.21,222.21,0,0,1,129.7-265.9,222.63,222.63,0,0,1,85-16.76h.76c23.06,0,41.58-1.74,55.07-5.19,9.28-2.37,15.86-5.42,19.56-9.07,9.35-9.24,14.09-33.64,14.09-72.53a219.55,219.55,0,0,1,66-157.41,223.48,223.48,0,0,1,157.16-64.56h.76c123.47,0,223.93,99.58,223.93,222,0,38.88,4.74,63.29,14.1,72.53,3.7,3.65,10.28,6.71,19.56,9.07,13.49,3.45,32,5.19,55.07,5.19,59.8,0,116,23,158.15,64.61A221,221,0,0,1,2191,897.73a222.26,222.26,0,0,1,130.62-42.09h.75c23.08,0,41.61-1.74,55.07-5.18,9.28-2.36,15.86-5.42,19.56-9.07,9.36-9.24,14.1-33.65,14.1-72.53a219.48,219.48,0,0,1,66-157.41,223.64,223.64,0,0,1,157.2-64.57h.68c23.08,0,41.61-1.74,55.07-5.18,9.28-2.37,15.86-5.43,19.56-9.08,9.36-9.23,14.1-33.63,14.1-72.52a219.47,219.47,0,0,1,63.35-154.77l.22-.22.64,1.38-.11.11a218,218,0,0,0-62.66,153.5c0,39.27-4.89,64-14.53,73.53-3.89,3.84-10.69,7-20.22,9.46-13.58,3.47-32.23,5.23-55.42,5.23h-.68a222.2,222.2,0,0,0-156.2,64.14,218,218,0,0,0-65.56,156.4c0,39.3-4.89,64-14.54,73.54-3.87,3.83-10.67,7-20.21,9.45-13.58,3.47-32.23,5.23-55.42,5.23h-.74a223.78,223.78,0,0,0-133.51,44.55l-2.78,2.09Z" style="fill:#fff"/><path d="M2008.09,974.59v-1.44h1a204.35,204.35,0,0,0,144.43-59.29,202.8,202.8,0,0,0,.2-289c-38.75-38.28-90.39-59.36-145.39-59.36-45.5,0-74.09-6.38-87.39-19.51s-19.5-40.29-19.5-85.44c0-112.38-92.29-203.81-205.73-203.81H1695a205.55,205.55,0,0,0-144.45,59.33,202.54,202.54,0,0,0-60.59,144.49c0,45.15-6.2,72.3-19.5,85.44s-41.89,19.51-87.39,19.51h-.72a204.7,204.7,0,0,0-205,203.82,201.4,201.4,0,0,0,9.29,60.61l.08.28h-1.5l-.05-.16a203.92,203.92,0,0,1,51.76-206.23,207,207,0,0,1,145.47-59.76h.72c45.11,0,73.37-6.24,86.39-19.09s19.06-39.66,19.06-84.42a204,204,0,0,1,61-145.5A207,207,0,0,1,1695,255.31h.72c114.23,0,207.16,92.08,207.16,205.25,0,44.75,6.06,71.57,19.07,84.42s41.26,19.09,86.38,19.09c55.37,0,107.36,21.24,146.4,59.79a204.21,204.21,0,0,1-.21,291,207,207,0,0,1-145.42,59.72Z" style="fill:#fff"/><path d="M2008.27,974.59c-114.2,0-207.12-92.1-207.12-205.26,0-44.73-6.05-71.56-19.06-84.42s-41.26-19.08-86.39-19.08-73.36,6.24-86.39,19.08-19,39.67-19,84.42a202.51,202.51,0,0,1-9.17,60.73l0,.16h-1.49l.08-.28a200.94,200.94,0,0,0,9.19-60.61c0-45.15,6.19-72.3,19.49-85.43s41.88-19.51,87.39-19.51,74.11,6.38,87.39,19.51,19.5,40.28,19.5,85.43c0,112.37,92.27,203.8,205.68,203.82h.22v1.44Z" style="fill:#fff"/><path d="M2570.59,980.22l-.06-.43c15.54-4.77,36.63-7.1,64.46-7.1h.68a205.53,205.53,0,0,0,144.5-59.33,202.54,202.54,0,0,0,60.59-144.5c0-45.15,6.2-72.29,19.5-85.42s41.86-19.51,87.38-19.51h.84c2.09,0,4.13,0,6.07-.11h.15l.65,1.42H2955c-2.28.07-4.52.11-6.66.11h-.73c-45.11,0-73.36,6.24-86.38,19.08s-19.06,39.66-19.06,84.41a206.42,206.42,0,0,1-206.52,205.27H2635c-25.76,0-45.63,2-60.72,6.08h-3.68Z" style="fill:#fff"/><path d="M2139.88,980.22l.17-.32a202.31,202.31,0,0,1,36.19-47.78,207,207,0,0,1,145.49-59.76h.65c45.12,0,73.37-6.24,86.39-19.08s19.06-39.67,19.06-84.42a206.37,206.37,0,0,1,206.45-205.25h.76c45.12,0,73.37-6.25,86.38-19.1s19.07-39.68,19.07-84.41a202.28,202.28,0,0,1,54.17-138.49l.22-.23.66,1.4-.1.11a200.78,200.78,0,0,0-53.51,137.21c0,45.13-6.2,72.28-19.51,85.42s-41.87,19.53-87.38,19.53h-.72a205.53,205.53,0,0,0-144.47,59.32,202.55,202.55,0,0,0-60.58,144.49c0,45.17-6.2,72.31-19.5,85.43s-41.89,19.51-87.39,19.51h-.65a205.55,205.55,0,0,0-144.49,59.34,200.81,200.81,0,0,0-35.67,47l-.06.12Z" style="fill:#fff"/><path d="M2008.31,957.88c-105,0-190.45-84.58-190.45-188.54,0-50.19-7.41-79.89-24-96.31s-47.71-23.91-98.14-23.91-81.61,7.6-98.13,23.91-24,46.12-24,96.31a185.6,185.6,0,0,1-10,60.73l0,.15h-1.51l.1-.29a184.19,184.19,0,0,0,10.06-60.59c0-50.6,7.55-80.62,24.47-97.32s48.31-24.34,99.14-24.34,82.33,7.74,99.14,24.34,24.47,46.72,24.47,97.32a185,185,0,0,0,54.49,131.32,188.76,188.76,0,0,0,131.71,55.76l3.49,0a186.9,186.9,0,0,0,133-319.71c-35.63-35.17-83.09-54.54-133.65-54.54-50.84,0-82.34-7.74-99.14-24.34s-24.47-46.71-24.47-97.33c0-103.14-84.79-187-189-187H1695A187.86,187.86,0,0,0,1562.28,328a185.84,185.84,0,0,0-55.59,132.58c0,50.59-7.55,80.61-24.48,97.33s-48.32,24.34-99.14,24.34h-.68A188,188,0,0,0,1194,769.34a184.67,184.67,0,0,0,10.16,60.59l.1.29h-1.51l0-.15a187.17,187.17,0,0,1,45.9-194.33,189.2,189.2,0,0,1,133.77-54.94h.68c50.43,0,81.61-7.6,98.13-23.91s24-46.14,24-96.32a187.2,187.2,0,0,1,56-133.59A189.2,189.2,0,0,1,1695.05,272h.68c105,0,190.45,84.55,190.45,188.48,0,50.19,7.41,79.89,24,96.32s47.7,23.91,98.14,23.91c50.94,0,98.76,19.52,134.65,55a188.64,188.64,0,0,1-130.62,322.11v0Z" style="fill:#fff"/><path d="M2159.21,980.22l.21-.33a185.49,185.49,0,0,1,28.55-35.8,189.09,189.09,0,0,1,133.8-55h.61c50.42,0,81.6-7.6,98.14-23.91s24-46.12,24-96.32a187.23,187.23,0,0,1,56-133.59,189.16,189.16,0,0,1,133.76-54.94h.64c50.42,0,81.6-7.6,98.13-23.91s24-46.13,24-96.32a186.27,186.27,0,0,1,45.19-122l.22-.25.65,1.42-.09.1a184.92,184.92,0,0,0-44.53,120.77c0,50.61-7.55,80.63-24.47,97.33s-48.31,24.34-99.13,24.34h-.64a187.79,187.79,0,0,0-132.76,54.52A185.89,185.89,0,0,0,2446,768.86c0,50.62-7.55,80.64-24.47,97.33s-48.32,24.34-99.14,24.34h-.61A187.78,187.78,0,0,0,2189,945.1a185.59,185.59,0,0,0-28,35l-.06.11Z" style="fill:#fff"/><path d="M2535.93,980.22l.39-.38C2553.25,963.55,2584.61,956,2635,956h.64a187.79,187.79,0,0,0,132.76-54.51A185.85,185.85,0,0,0,2824,768.86c0-50.59,7.55-80.61,24.47-97.32,16.72-16.52,48-24.25,98.34-24.33h.14l.67,1.44h-.34c-50.24,0-81.32,7.63-97.81,23.91-16.62,16.43-24,46.13-24,96.3A189.46,189.46,0,0,1,2635.64,957.4H2635c-49.29,0-80.08,7.23-96.92,22.76l-.07.06Z" style="fill:#fff"/><path d="M2008.31,941.16c-95.8,0-173.74-77.08-173.74-171.82,0-55-9-88.4-29-108.21s-54-28.73-109.88-28.73-89.74,8.86-109.88,28.73-29,53.19-29,108.21a169.05,169.05,0,0,1-11.1,60.74l0,.14h-1.53l.11-.3a167.39,167.39,0,0,0,11.13-60.58c0-55.44,9.08-89.12,29.45-109.22S1639.42,631,1695.68,631s90.47,9,110.89,29.16S1836,713.91,1836,769.34a168.39,168.39,0,0,0,49.68,119.6,172.18,172.18,0,0,0,120.08,50.77h3.11a170.15,170.15,0,0,0,121.25-291.05c-32.43-32.06-75.72-49.72-121.9-49.72-56.27,0-90.47-9-110.89-29.16s-29.43-53.78-29.43-109.23c0-93.92-77.29-170.33-172.3-170.33H1695a171.35,171.35,0,0,0-121.08,49.71,169.23,169.23,0,0,0-50.51,120.65c0,55.45-9.08,89.14-29.44,109.23S1439.32,599,1383.05,599h-.64a171.29,171.29,0,0,0-121.07,49.71A169.09,169.09,0,0,0,1222,829.92l.11.3h-1.52l0-.14a170.4,170.4,0,0,1,39.83-182.43,172.63,172.63,0,0,1,122.07-50.13h.64c55.87,0,89.76-8.86,109.89-28.74s29-53.19,29-108.21a170.61,170.61,0,0,1,51-121.66A172.69,172.69,0,0,1,1695,288.78h.64c95.8,0,173.74,77.06,173.74,171.77,0,55,8.94,88.41,29,108.21s54,28.74,109.89,28.74c46.56,0,90.21,17.81,122.9,50.15a171.89,171.89,0,0,1-118.75,293.46v0Z" style="fill:#fff"/><path d="M2179.18,980.22l.23-.34A168.22,168.22,0,0,1,2199.69,956a172.67,172.67,0,0,1,122.12-50.18h.57c55.87,0,89.76-8.86,109.88-28.74s29-53.18,29-108.21a170.59,170.59,0,0,1,51.05-121.69,172.71,172.71,0,0,1,122.08-50.12h.61c55.85,0,89.74-8.86,109.88-28.74s29-53.18,29-108.21a170.36,170.36,0,0,1,36.3-105.24l.22-.28.67,1.46-.08.1a169,169,0,0,0-35.67,104c0,55.45-9.08,89.13-29.43,109.22s-54.62,29.17-110.88,29.17h-.61a171.34,171.34,0,0,0-121.08,49.7,169.23,169.23,0,0,0-50.61,120.67c0,55.44-9.08,89.12-29.42,109.22s-54.61,29.17-110.89,29.17h-.57A171.28,171.28,0,0,0,2200.69,957a169.53,169.53,0,0,0-19.7,23.11l-.07.1Z" style="fill:#fff"/><path d="M2514.46,980.22l.22-.34a72.43,72.43,0,0,1,9.42-11.47c20.42-20.17,54.62-29.17,110.89-29.17h.61a171.39,171.39,0,0,0,121.07-49.7,169.23,169.23,0,0,0,50.62-120.69c0-55.42,9.09-89.11,29.48-109.25,19.45-19.22,51-28.19,102.24-29.09h.14l.66,1.42h-.34c-51.1.84-82.46,9.68-101.69,28.67-20.09,19.85-29.05,53.23-29.05,108.24a170.68,170.68,0,0,1-51.05,121.7,172.71,172.71,0,0,1-122.08,50.12H2635c-55.88,0-89.77,8.86-109.89,28.74a71.17,71.17,0,0,0-8.86,10.7l-.07.1Z" style="fill:#fff"/></svg>