<svg id="Layer_1" viewBox="0 0 3700.08 1000.08" xmlns="http://www.w3.org/2000/svg" xmlns:xlink="http://www.w3.org/1999/xlink" data-name="Layer 1"><defs><radialGradient id="radial-gradient" cx="34409.88" cy="-104900.06" gradientTransform="matrix(.07 0 0 -.07 -579.82 -6907.42)" gradientUnits="userSpaceOnUse" r="26083.98"><stop offset=".06" stop-color="#4a90e2"/><stop offset=".17" stop-color="#5697e4"/><stop offset=".37" stop-color="#76abe9"/><stop offset=".63" stop-color="#aacbf1"/><stop offset=".94" stop-color="#f1f6fd"/><stop offset="1" stop-color="#fff"/></radialGradient><linearGradient id="linear-gradient" gradientTransform="matrix(500 0 0 -500 324880.15 -2988032.9)" gradientUnits="userSpaceOnUse" x1="-648.58" x2="-649.58" y1="-5976.56" y2="-5977.56"><stop offset="0" stop-color="#2020b5"/><stop offset="1" stop-color="#2677ff"/></linearGradient><linearGradient id="linear-gradient-2" gradientTransform="matrix(500 0 0 -500 327898.15 -2988031.65)" x1="-648.54" x2="-649.54" xlink:href="#linear-gradient" y1="-5976.56" y2="-5977.56"/><linearGradient id="linear-gradient-3" gradientTransform="matrix(489.66 0 0 -44.25 321204.39 -269261.7)" x1="-647.92" x2="-650.06" xlink:href="#linear-gradient" y1="-6105.84" y2="-6105.86"/><linearGradient id="linear-gradient-4" gradientTransform="matrix(162.79 0 0 -68.99 108057.53 -417668.45)" x1="-645.88" x2="-646.88" xlink:href="#linear-gradient" y1="-6055.09" y2="-6055.27"/></defs><title>paperwalletemptyE</title><path d="M 1600 .09 H 3700.08 V 1000.16 H 1600 v -150 H 0 v -700 H 1600 V .09 Z" fill="url(#radial-gradient)" fill-rule="evenodd"/><g><path d="M 1964.21 0 l .21 39.89 L 1965.7 0 h 12.09 l -.87 40.23 L 1979.3 0 h 12.1 l -2 40.91 L 1992.94 0 h 12.11 l -3.18 41.92 L 2006.63 0 h 12.12 l -4.46 43.26 L 2020.39 0 h 12.15 l -5.86 44.94 L 2034.26 0 h 12.16 L 2039 47 l 9.23 -47 h 12.22 l -9.15 49.31 L 2062.38 0 h 12.24 l -11.11 52 l 13.16 -52 H 2089 l -13.3 55 l 15.51 -55 h 12.32 l -15.79 58.33 L 2105.85 0 h 12.4 l -18.58 62 l 21.14 -62 h 12.43 l -21.73 66 L 2136 0 h 12.49 l -25.27 70.24 L 2151.52 0 h 12.58 l -29.23 74.85 L 2167.38 0 H 2180 l -33.66 79.77 L 2183.6 0 h 12.72 l -38.6 85 l 42.51 -85 H 2213 l -44.08 90.53 L 2217.29 0 h 12.89 L 2180 96.36 L 2234.86 0 h 13 l -56.95 102.5 L 2253 0 H 2266 l -64.41 108.91 L 2271.67 0 h 13.16 l -72.66 115.63 L 2291 0 h 13.27 l -81.75 122.63 L 2311.09 0 h 13.35 L 2232.7 129.89 L 2331.93 0 h 13.48 L 2242.68 137.42 L 2353.66 0 h 13.57 L 2252.44 145.22 L 2376.34 0 H 2390 L 2262 153.29 L 2400.09 0 h 13.8 L 2271.33 161.62 L 2425 0 h 13.89 L 2280.44 170.18 L 2451.26 0 h 14 L 2289.32 179 L 2478.93 0 H 2493 L 2297.94 188 L 2508.23 0 h 14.15 L 2306.33 197.31 L 2539.33 0 h 14.23 l -239.1 206.82 L 2572.48 0 h 14.25 L 2322.32 216.53 L 2607.92 0 h 14.28 L 2329.93 226.46 L 2646 0 h 14.25 l -323 236.58 L 2687 0 h 14.2 L 2344.33 246.91 L 2731.38 0 h 14.07 L 2351.11 257.41 L 2779.7 0 h 13.86 l -436 268.1 L 2832.54 0 h 13.55 L 2363.81 278.94 L 2890.69 0 h 13.11 L 2369.72 290 L 2955.05 0 h 12.47 l -592.2 301.15 L 3026.82 0 h 11.59 L 2380.62 312.47 L 3107.44 0 h 10.4 L 2385.62 323.93 L 3198.88 0 h 8.76 L 2390.31 335.53 L 3303.57 0 h 6.48 L 2394.7 347.22 L 3424.8 0 h 3.36 L 2398.74 359.05 L 3538.57 8.78 L 2402.48 371 L 3551.34 51.58 L 2405.89 383 L 3563 94.7 L 2409 395.13 l 1164.42 -257 L 2411.73 407.34 L 3582.65 181.82 L 2414.16 419.6 L 3590.73 225.74 L 2416.26 431.92 L 3597.62 269.85 L 2418 444.3 L 3603.33 314.14 L 2419.45 456.73 l 1188.39 -98.16 L 2420.55 469.17 l 1190.6 -66.07 L 2421.29 481.65 l 1192 -33.94 L 2421.73 494.15 l 1192.43 -1.78 L 2421.8 506.66 l 1192 30.36 l -1192.3 -17.86 l 1190.79 62.5 L 2421 531.64 l 1188.69 94.59 L 2420 544.12 l 1185.69 126.6 l -1187 -114.16 L 3600.63 715.09 L 2417.18 569 L 3594.32 759.3 l -1179.08 -178 l 1171.59 222 L 2413 593.6 L 3578.15 847.12 L 2410.38 605.84 L 3568.29 890.68 L 2407.47 618 L 3557.29 934 L 2404.21 630.05 L 3545.1 976.93 L 2400.64 642 l 1072.79 358 h -2.1 L 2396.75 653.93 l 951 346.15 h -5.7 L 2392.53 665.7 l 846.89 334.38 h -8.27 L 2388 677.35 l 757 322.73 h -10.14 l -751.67 -311.2 l 678.6 311.2 h -11.48 L 2378 700.28 l 609.8 299.8 h -12.46 L 2372.55 711.52 l 549 288.56 h -13.16 L 2366.8 722.62 l 495 277.46 h -13.67 L 2360.73 733.57 l 446.79 266.51 h -14 L 2354.39 744.32 L 2758 1000.08 h -14.24 l -396 -245.16 l 364.74 245.16 h -14.37 L 2340.82 765.33 l 329.68 234.75 h -14.45 L 2333.63 775.56 l 298 224.52 h -14.48 l -291 -214.5 l 269.25 214.5 h -14.47 L 2318.42 795.41 l 243.16 204.67 h -14.42 L 2310.41 805 l 219.46 195.07 h -14.35 L 2302.15 814.39 L 2500 1000.08 h -14.27 L 2293.66 823.56 l 178.23 176.52 H 2457.7 L 2284.9 832.49 l 160.33 167.59 h -14.08 l -155.24 -158.9 l 144 158.9 h -14 L 2266.69 849.64 l 129.14 150.44 H 2382 L 2257.26 857.83 l 115.59 142.25 h -13.76 L 2247.58 865.76 l 103.26 134.32 H 2337.2 l -99.49 -126.64 l 92 126.64 h -13.53 l -88.58 -119.24 l 81.84 119.24 h -13.42 L 2217.38 888 L 2290 1000.08 h -13.32 L 2206.9 894.81 l 64.19 105.27 h -13.21 l -61.61 -98.7 l 56.58 98.7 h -13.11 l -54.28 -92.43 l 49.73 92.43 h -13 l -47.69 -86.43 l 43.55 86.43 h -12.94 l -41.74 -80.75 l 38 80.75 h -12.84 L 2152 924.71 l 33 75.37 h -12.76 l -31.67 -70.3 l 28.55 70.3 h -12.68 l -27.42 -65.53 l 24.58 65.53 H 2141 L 2117.38 939 l 21 61.08 h -12.54 l -20.29 -57 l 17.92 57 H 2111 L 2093.67 947 l 15.16 53.13 h -12.44 l -14.73 -49.63 l 12.72 49.63 H 2082 l -12.43 -46.46 l 10.58 46.46 h -12.33 l -10.43 -43.64 l 8.71 43.64 h -12.29 L 2045.15 959 l 7.06 41.12 H 2040 l -7.11 -39 l 5.61 39 h -12.24 L 2020.47 963 l 4.32 37.08 h -12.2 l -4.53 -35.58 l 3.18 35.58 h -12.18 l -3.44 -34.4 l 2.14 34.4 h -12.18 l -2.44 -33.55 l 1.18 33.55 h -12.17 l -1.51 -33 l .27 33 h -12.15 l -.61 -32.88 l -.62 32.88 h -12.15 l .27 -33 l -1.51 33 H 1932 l 1.18 -33.55 l -2.44 33.55 h -12.17 l 2.14 -34.4 l -3.44 34.4 h -12.18 l 3.17 -35.58 l -4.52 35.58 h -12.2 l 4.32 -37.08 l -5.74 37.08 h -12.24 l 5.61 -39 l -7.11 39 h -12.27 l 7.06 -41.12 l -8.65 41.12 h -12.3 l 8.71 -43.64 l -10.42 43.64 h -12.33 l 10.58 -46.46 l -12.43 46.46 h -12.39 l 12.73 -49.63 l -14.73 49.63 h -12.44 L 1822.63 947 l -17.34 53.13 h -12.5 l 17.92 -57 l -20.29 57 h -12.54 l 21 -61.08 l -23.64 61.08 h -12.62 l 24.58 -65.53 l -27.42 65.53 h -12.69 l 28.55 -70.3 l -31.66 70.3 h -12.77 l 33 -75.37 l -36.42 75.37 H 1715 l 38 -80.75 l -41.74 80.75 h -12.94 l 43.54 -86.43 l -47.68 86.43 h -13 l 49.73 -92.43 l -54.28 92.43 h -13.11 l 56.58 -98.7 l -61.61 98.7 h -13.21 l 64.18 -105.27 l -69.72 105.27 h -13.32 L 1698.92 888 l -78.68 112.11 h -13.42 l 81.84 -119.24 l -88.58 119.24 H 1600 v -18.5 l 78.58 -108.14 l -78.58 100 V 955.15 l 68.71 -89.39 L 1600 948.53 v -18 l 59 -72.66 l -59 67.34 V 907.43 l 49.61 -57.79 L 1600 903.23 V 885.74 l 40.39 -44.56 L 1600 882.52 V 865.31 l 31.4 -32.82 L 1600 862.94 V 850.06 h -4.12 l 26.76 -26.5 l -28.85 26.5 h -17.65 l 38 -35.67 l -41 35.67 h -18 l 50.68 -45 l -54.68 45 H 1533 l 64.94 -54.65 l -70.1 54.65 h -18.58 l 80.94 -64.48 l -87.47 64.48 H 1483.8 l 98.87 -74.5 l -107 74.5 h -19.2 l 119 -84.73 l -129 84.73 H 1427 l 141.56 -95.14 l -153.69 95.14 h -19.82 l 166.87 -105.74 L 1380.35 850.06 h -20.07 l 195.3 -116.5 l -213 116.5 h -20.38 l 227.36 -127.44 L 1300.75 850.06 h -20.58 l 263.59 -138.54 L 1254.34 850.06 h -20.7 L 1538.3 700.27 L 1202.42 850.06 h -20.74 l 351.48 -161.18 L 1143.84 850.06 H 1123.2 l 405.11 -172.72 L 1077.08 850.06 h -20.24 l 467 -184.37 L 1000.25 850.06 H 980.7 l 538.86 -196.14 L 910.68 850.06 H 892.37 l 623.3 -208 l -710.9 208 h -16.3 l 723.63 -220 l -834.74 220 h -13 L 1508.84 618 L 520.92 850.06 h -7.79 l 992.79 -244.22 L 338.16 847.12 L 1503.33 593.59 L 329.48 803.31 l 1171.59 -222 L 322 759.29 L 1499.13 568.94 L 315.68 715.09 L 1497.54 556.55 l -1187 114.16 l 1185.69 -126.6 L 306.66 626.23 l 1188.68 -94.6 L 304 581.66 l 1190.8 -62.51 L 302.46 537 l 1192.05 -30.35 L 302.15 492.37 l 1192.43 1.77 L 303.05 447.7 l 1192 33.95 L 305.16 403.1 l 1190.6 66.07 L 308.47 358.56 l 1188.39 98.16 L 313 314.13 L 1498.29 444.3 L 318.68 269.85 L 1500.05 431.91 L 325.58 225.73 L 1502.15 419.6 L 333.66 181.81 L 1504.57 407.34 L 394.29 150 h 2.57 L 1507.35 395.13 L 565.84 150 h 9.51 l 935.07 233 L 705.18 150 H 719 l 794.79 221 L 820.74 150 h 16.61 l 680.23 209 L 918.25 150 h 18.3 l 585.07 197.21 L 1001.72 150 h 19.34 L 1526 335.52 L 1074.1 150 h 20 l 436.64 173.92 L 1137.56 150 h 20.25 l 377.88 162.46 L 1193.7 150 H 1214 l 327 151.14 L 1243.79 150 h 20.28 l 282.52 140 L 1288.81 150 H 1309 L 1552.5 278.94 L 1329.58 150 h 19.94 l 209.19 118.08 L 1366.69 150 h 19.69 l 178.82 107.4 L 1400.67 150 h 19.43 L 1572 246.9 L 1432 150 h 19.14 l 128 86.57 L 1460.87 150 h 18.83 l 106.68 76.45 L 1487.72 150 h 18.54 L 1594 216.53 L 1512.76 150 H 1531 l 70.87 56.81 L 1536.17 150 h 17.95 l 55.86 47.3 l -51.8 -47.3 h 17.66 l 42.53 38 l -39.45 -38 h 17.38 L 1627 179 l -28.48 -29 H 1600 V 134.45 l 35.87 35.73 L 1600 131.67 V 114.33 l 45 47.29 l -45 -51 V 93 l 54.3 60.27 l -54.3 -65 V 70.38 l 63.87 74.85 L 1600 64.44 V 46.26 l 73.63 91.16 L 1600 38.94 V 20.46 l 83.61 109.43 L 1600 11.53 V 0 h 5.21 l 88.55 122.63 L 1612 0 h 13.27 l 78.85 115.63 L 1631.48 0 h 13.16 l 70 108.91 L 1650.27 0 h 13.07 l 62.08 102.5 L 1668.48 0 h 13 l 54.86 96.36 L 1686.12 0 H 1699 l 48.36 90.53 L 1703.28 0 h 12.8 l 42.5 85 L 1720 0 h 12.71 l 37.23 79.77 L 1736.28 0 h 12.65 l 32.5 74.85 L 1752.21 0 h 12.57 l 28.28 70.24 L 1767.79 0 h 12.5 l 24.51 66 L 1783.06 0 h 12.43 l 21.15 62 L 1798.05 0 h 12.4 l 18.16 58.33 L 1812.82 0 h 12.33 l 15.51 55 L 1827.35 0 h 12.28 l 13.16 52 l -11.1 -52 h 12.23 L 1865 49.31 L 1855.84 0 h 12.23 l 9.22 47 l -7.41 -47 h 12.17 l 7.58 44.94 L 1883.77 0 h 12.14 l 6.1 43.26 L 1897.56 0 h 12.11 l 4.76 41.92 L 1911.25 0 h 12.11 l 3.53 40.91 L 1924.9 0 H 1937 l 2.39 40.23 L 1938.51 0 h 12.09 l 1.29 39.89 l .2 -39.89 h 12.12 Z" fill="#fff" fill-rule="evenodd"/><g><path d="M 2511 859.12 c 5.14 38.19 -21.88 73.91 -60 79.39 l -24.5 3.5 c -31.31 4.5 -63.4 28.87 -79.34 58.07 H 1600 v -150 h -221.8 a 70.65 70.65 0 0 1 -10.52 -57.72 l 6.12 -24 c 9.56 -37.33 -7.7 -87 -38.33 -110.4 l -19.67 -15 c -30.64 -23.35 -36.8 -67.74 -13.7 -98.58 l 14.84 -19.8 c 23.1 -30.83 26.17 -83.34 6.81 -116.66 l -12.43 -21.39 c -19.35 -33.34 -8.06 -76.67 25.08 -96.34 l 21.28 -12.6 c 33.15 -19.65 56.07 -67 50.93 -105.19 l -3 -22.39 H 1600 V 0 h 790.72 a 70.88 70.88 0 0 1 2.4 10.69 l 3.51 24.49 c 5.48 38.15 40.43 77.43 77.67 87.32 l 23.9 6.33 c 37.25 9.88 59.92 48.51 50.37 85.85 l -6.1 24 c -9.55 37.35 7.7 87 38.33 110.4 l 19.67 15 c 30.63 23.38 36.79 67.73 13.69 98.6 l -14.84 19.78 c -23.09 30.86 -26.15 83.36 -6.81 116.67 L 2605 620.5 c 19.36 33.31 8.08 76.66 -25.07 96.3 l -21.27 12.63 c -33.16 19.66 -56.08 67 -50.94 105.17 l 3.29 24.53 Z" fill="#4a90e2"/><path d="M 2335.89 1000.08 c 16.5 -34 53.19 -62.8 89.15 -68 l 24.51 -3.52 a 60.86 60.86 0 0 0 51.52 -68.14 l -3.31 -24.54 c -5.62 -41.89 19.39 -93.55 55.77 -115.11 l 21.26 -12.61 a 60.87 60.87 0 0 0 21.53 -82.69 l -12.43 -21.4 c -21.23 -36.57 -17.9 -93.84 7.46 -127.69 l 14.84 -19.79 A 60.89 60.89 0 0 0 2594.43 372 l -19.66 -15 c -33.61 -25.64 -52.44 -79.84 -42 -120.81 l 6.12 -24 a 60.88 60.88 0 0 0 -43.25 -73.69 l -23.91 -6.33 c -40.87 -10.86 -79 -53.72 -85 -95.57 l -3.52 -24.49 A 59.37 59.37 0 0 0 2380.17 0 h 21 a 78.46 78.46 0 0 1 1.9 9.27 l 3.51 24.48 c 4.89 34.05 37.1 70.25 70.34 79.06 l 23.9 6.34 a 81 81 0 0 1 57.5 98 l -6.11 24 c -8.53 33.32 7.37 79.09 34.71 99.95 l 19.67 15 a 81 81 0 0 1 15.64 112.56 l -14.85 19.79 c -20.6 27.53 -23.43 75.89 -6.17 105.63 l 12.44 21.4 A 80.92 80.92 0 0 1 2585 725.4 L 2563.71 738 c -29.56 17.55 -50.7 61.15 -46.11 95.24 l 3.29 24.53 a 81 81 0 0 1 -68.53 90.63 l -24.5 3.5 c -26.29 3.77 -53.89 23.87 -69.14 48.15 h -22.83 Z M 1415.74 150 l 2.83 21.06 c 5.63 41.92 -19.38 93.55 -55.74 115.13 l -21.3 12.6 A 60.88 60.88 0 0 0 1320 381.51 l 12.42 21.37 c 21.22 36.57 17.89 93.85 -7.47 127.69 l -14.82 19.81 A 60.85 60.85 0 0 0 1321.9 635 l 19.67 15 c 33.61 25.65 52.44 79.85 42 120.82 l -6.12 24 a 60.71 60.71 0 0 0 13.42 55.25 h -24.48 a 80.48 80.48 0 0 1 -8.34 -60.22 l 6.12 -24 c 8.51 -33.31 -7.37 -79.1 -34.72 -100 l -19.67 -15 a 81 81 0 0 1 -15.63 -112.55 l 14.83 -19.8 c 20.62 -27.52 23.44 -75.88 6.18 -105.63 l -12.43 -21.38 a 81 81 0 0 1 28.62 -110 L 1352.61 269 c 29.57 -17.54 50.69 -61.14 46.12 -95.23 L 1395.54 150 Z" fill="#fff8eb"/><path d="M 1855.93 0 A 513.12 513.12 0 0 0 1600 135.58 V 94.86 A 544.62 544.62 0 0 1 1753.21 0 Z M 1585.75 150 c -87.51 92.16 -141.29 216.66 -141.29 353.49 c 0 133.43 51.14 255.14 134.84 346.56 h -39.68 a 542.6 542.6 0 0 1 5.88 -700 Z M 1600 871.42 a 513.85 513.85 0 0 0 226.37 128.66 h -89.46 A 545.3 545.3 0 0 1 1600 912.16 V 871.42 Z m 489.9 128.66 c 219.62 -58.33 381.94 -258.84 381.94 -496.58 c 0 -248.27 -177 -456 -411.46 -503.5 h 102.72 c 198.46 81.09 338.67 276.21 338.67 503.5 c 0 221 -132.59 411.67 -322.41 496.58 Z" fill="#fff"/><path d="M 1603.25 520.26 c .12 2.81 .29 5.59 .48 8.36 l 30 -2.08 q -.29 -3.82 -.46 -7.68 Z m 1.16 16.74 c .27 2.79 .55 5.58 .87 8.34 l 29.86 -3.5 c -.29 -2.55 -.58 -5.09 -.81 -7.64 Z m 1.95 16.66 c .39 2.77 .81 5.54 1.27 8.29 l 29.66 -4.9 q -.61 -3.78 -1.19 -7.59 l -29.74 4.21 Z m 2.74 16.55 q .8 4.13 1.66 8.23 l 29.4 -6.31 c -.56 -2.51 -1.07 -5 -1.53 -7.52 Z m 3.54 16.41 c .63 2.73 1.31 5.45 2 8.14 l 29 -7.7 q -1 -3.7 -1.87 -7.44 Z m 4.28 16.23 c .79 2.68 1.58 5.37 2.43 8 l 28.67 -9.08 c -.79 -2.42 -1.53 -4.88 -2.23 -7.36 l -28.87 8.39 Z m 5.08 16 c .9 2.66 1.85 5.31 2.82 7.93 l 28.2 -10.43 c -.9 -2.4 -1.76 -4.82 -2.61 -7.26 L 1622 618.87 Z m 5.85 15.78 c 1 2.63 2.1 5.21 3.2 7.78 l 27.64 -11.75 c -1 -2.35 -2 -4.74 -2.93 -7.12 l -27.92 11.09 Z m 6.58 15.49 c 1.16 2.57 2.34 5.09 3.56 7.62 l 27.06 -13 c -1.1 -2.31 -2.2 -4.64 -3.25 -7 l -27.37 12.41 Z m 7.3 15.16 c 1.27 2.49 2.58 5 3.93 7.43 l 26.42 -14.33 c -1.23 -2.25 -2.42 -4.52 -3.6 -6.81 l -26.75 13.71 Z m 8 14.77 c 1.38 2.43 2.82 4.85 4.26 7.24 l 25.72 -15.56 c -1.33 -2.2 -2.62 -4.39 -3.93 -6.63 Z m 8.7 14.37 c 1.52 2.36 3 4.7 4.61 7 l 25 -16.76 c -1.44 -2.12 -2.84 -4.27 -4.23 -6.43 l -25.34 16.16 Z m 9.38 13.93 c 1.61 2.31 3.26 4.56 4.92 6.82 l 24.13 -17.92 c -1.54 -2.06 -3 -4.13 -4.51 -6.23 Z m 10 13.49 c 1.72 2.22 3.46 4.39 5.23 6.56 l 23.24 -19 c -1.61 -2 -3.21 -4 -4.78 -6 l -23.7 18.47 Z m 10.63 13 c 1.83 2.13 3.66 4.23 5.53 6.3 l 22.34 -20.09 c -1.71 -1.92 -3.4 -3.84 -5.08 -5.8 l -22.8 19.59 Z m 11.22 12.46 c 1.93 2 3.86 4 5.83 6 l 21.37 -21.14 c -1.8 -1.81 -3.59 -3.66 -5.34 -5.51 l -21.86 20.6 Z m 11.79 11.95 c 2 1.93 4 3.83 6.1 5.73 l 20.36 -22.11 c -1.88 -1.73 -3.76 -3.48 -5.59 -5.26 l -20.87 21.64 Z m 12.34 11.34 c 2.1 1.84 4.23 3.67 6.35 5.46 l 19.31 -23 c -2 -1.65 -3.92 -3.3 -5.83 -5 l -19.83 22.58 Z m 12.84 10.76 c 2.2 1.74 4.4 3.46 6.62 5.15 l 18.19 -23.92 c -2 -1.54 -4.06 -3.11 -6 -4.7 Z M 1750 791.53 c 2.26 1.63 4.53 3.24 6.85 4.82 l 17 -24.75 c -2.08 -1.44 -4.19 -2.92 -6.25 -4.42 L 1750 791.53 Z m 13.79 9.5 c 2.35 1.52 4.69 3 7 4.49 L 1786.7 780 c -2.14 -1.34 -4.31 -2.72 -6.44 -4.12 L 1763.8 801 Z m 14.22 8.83 q 3.63 2.13 7.26 4.16 l 14.64 -26.23 c -2.22 -1.26 -4.45 -2.53 -6.65 -3.81 L 1778 809.86 Z m 14.61 8.16 c 2.47 1.29 5 2.57 7.45 3.81 l 13.39 -26.9 c -2.29 -1.15 -4.55 -2.3 -6.82 -3.5 Z m 15 7.45 q 3.78 1.77 7.62 3.45 l 12.09 -27.5 c -2.33 -1 -4.66 -2.07 -7 -3.17 l -12.73 27.22 Z m 15.31 6.74 q 3.88 1.6 7.8 3.1 l 10.78 -28.06 c -2.38 -.92 -4.77 -1.86 -7.13 -2.82 Z m 15.68 6 c 2.64 .92 5.27 1.85 7.92 2.72 l 9.44 -28.53 c -2.44 -.8 -4.85 -1.64 -7.26 -2.5 Z m 15.93 5.26 c 2.66 .8 5.35 1.61 8 2.35 l 8.08 -29 c -2.49 -.68 -4.92 -1.39 -7.38 -2.15 Z m 16.16 4.5 c 2.69 .69 5.43 1.34 8.15 2 l 6.68 -29.31 q -3.74 -.84 -7.47 -1.79 L 1870.69 848 Z m 16.36 3.74 c 2.74 .56 5.48 1.08 8.25 1.58 l 5.28 -29.59 c -2.52 -.44 -5 -.93 -7.54 -1.43 l -6 29.44 Z m 16.52 2.95 c 2.75 .43 5.52 .81 8.29 1.17 l 3.89 -29.79 c -2.56 -.33 -5.09 -.69 -7.61 -1.08 Z m 16.63 2.17 c 2.77 .3 5.55 .55 8.34 .79 l 2.47 -30 c -2.55 -.21 -5.1 -.44 -7.63 -.72 l -3.18 29.89 Z m 16.71 1.37 c 2.79 .18 5.58 .3 8.37 .4 l 1.06 -30 c -2.55 -.08 -5.12 -.21 -7.67 -.36 Z m 16.76 .59 c 1.47 0 3 0 4.5 0 l 3.85 0 l -.3 -30 h -3.55 c -1.4 0 -2.75 0 -4.13 0 l -.37 30 Z m 16.76 -.17 c 2.78 -.1 5.57 -.22 8.37 -.38 l -1.71 -30 c -2.57 .13 -5.12 .26 -7.69 .34 l 1 30 Z m 16.73 -1 c 2.79 -.23 5.59 -.48 8.36 -.78 L 1992.39 827 c -2.54 .27 -5.09 .5 -7.65 .71 l 2.42 29.95 Z m 16.68 -1.75 c 2.78 -.34 5.56 -.74 8.31 -1.16 l -4.54 -29.7 c -2.51 .37 -5.06 .74 -7.6 1 l 3.83 29.81 Z m 16.58 -2.53 c 2.77 -.49 5.51 -1 8.25 -1.55 l -5.93 -29.47 c -2.49 .51 -5 1 -7.54 1.44 l 5.22 29.58 Z m 16.46 -3.32 c 2.74 -.6 5.44 -1.25 8.16 -1.93 L 2037.73 819 c -2.49 .62 -5 1.21 -7.49 1.79 l 6.64 29.29 Z m 16.28 -4.08 c 2.7 -.76 5.37 -1.52 8.05 -2.33 l -8.7 -28.76 c -2.43 .73 -4.9 1.45 -7.36 2.14 Z m 16.08 -4.87 c 2.69 -.87 5.32 -1.78 8 -2.73 l -10.07 -28.32 c -2.43 .88 -4.85 1.71 -7.29 2.51 l 9.37 28.54 Z m 15.89 -5.64 c 2.62 -1 5.21 -2 7.81 -3.11 l -11.42 -27.79 c -2.37 1 -4.75 1.93 -7.15 2.84 l 10.75 28.06 Z m 15.55 -6.38 c 2.58 -1.14 5.12 -2.29 7.66 -3.47 l -12.7 -27.23 c -2.34 1.08 -4.67 2.15 -7 3.17 l 12.06 27.53 Z m 15.25 -7.11 c 2.5 -1.26 5 -2.54 7.5 -3.85 l -14 -26.58 c -2.28 1.19 -4.56 2.36 -6.87 3.51 L 2115.93 822 Z m 14.88 -7.85 c 2.43 -1.35 4.88 -2.75 7.29 -4.18 l -15.23 -25.88 c -2.22 1.29 -4.44 2.57 -6.69 3.82 Z m 14.47 -8.52 c 2.38 -1.48 4.75 -3 7.09 -4.52 L 2135.93 776 c -2.15 1.41 -4.31 2.78 -6.48 4.14 l 15.83 25.53 Z m 14.07 -9.18 c 2.3 -1.59 4.58 -3.21 6.84 -4.84 l -17.6 -24.35 c -2.08 1.49 -4.17 3 -6.28 4.42 Z m 13.58 -9.86 c 2.22 -1.69 4.43 -3.41 6.63 -5.13 l -18.73 -23.52 c -2 1.61 -4 3.19 -6.08 4.73 Z m 13.13 -10.46 q 3.21 -2.7 6.38 -5.46 l -19.82 -22.59 c -1.93 1.69 -3.86 3.36 -5.84 5 Z m 12.62 -11.08 q 3.09 -2.84 6.1 -5.74 l -20.86 -21.63 c -1.83 1.77 -3.72 3.54 -5.59 5.27 l 20.35 22.11 Z m 12.06 -11.62 q 3 -3 5.83 -6 l -21.84 -20.63 c -1.75 1.85 -3.54 3.69 -5.33 5.52 l 21.34 21.14 Z m 11.52 -12.21 c 1.86 -2.06 3.7 -4.17 5.52 -6.3 L 2205 715.34 c -1.66 1.95 -3.36 3.88 -5.06 5.77 Z m 10.92 -12.72 c 1.75 -2.16 3.5 -4.34 5.22 -6.52 l -23.68 -18.5 c -1.57 2 -3.17 4 -4.78 6 l 23.25 19 Z m 10.3 -13.2 c 1.66 -2.23 3.31 -4.51 4.92 -6.78 l -24.53 -17.36 c -1.49 2.08 -3 4.16 -4.49 6.21 l 24.1 17.93 Z m 9.67 -13.68 c 1.56 -2.31 3.1 -4.66 4.6 -7 l -25.32 -16.17 c -1.38 2.16 -2.78 4.29 -4.2 6.41 Z m 9 -14.11 c 1.44 -2.39 2.88 -4.79 4.26 -7.22 l -26.06 -15 c -1.27 2.21 -2.56 4.42 -3.89 6.58 l 25.69 15.6 Z m 8.35 -14.51 c 1.33 -2.46 2.64 -4.93 3.91 -7.42 l -26.73 -13.71 c -1.16 2.27 -2.36 4.53 -3.58 6.77 l 26.4 14.36 Z m 7.63 -14.9 c 1.22 -2.51 2.42 -5 3.58 -7.57 l -27.37 -12.44 c -1.05 2.32 -2.14 4.62 -3.26 6.92 l 27.05 13.09 Z m 6.92 -15.22 c 1.1 -2.57 2.17 -5.13 3.2 -7.74 L 2260.36 624 q -1.4 3.57 -2.9 7.06 Z m 6.22 -15.57 c 1 -2.61 1.91 -5.24 2.85 -7.9 l -28.42 -9.79 c -.83 2.43 -1.7 4.82 -2.59 7.23 l 28.16 10.46 Z m 5.48 -15.86 c .83 -2.67 1.65 -5.34 2.43 -8 L 2270.39 595 c -.74 2.46 -1.49 4.9 -2.26 7.35 Z m 4.71 -16.1 c .73 -2.71 1.4 -5.4 2.06 -8.13 l -29.22 -7.07 c -.58 2.49 -1.22 5 -1.87 7.45 Z m 3.93 -16.31 c .6 -2.74 1.16 -5.47 1.68 -8.23 l -29.52 -5.67 q -.71 3.79 -1.53 7.53 Z m 3.15 -16.49 c .45 -2.75 .89 -5.51 1.3 -8.29 L 2280.12 550 c -.34 2.53 -.76 5 -1.18 7.58 l 29.63 5 Z m 2.37 -16.61 c .35 -2.77 .66 -5.55 .91 -8.34 l -29.91 -2.84 c -.24 2.54 -.51 5.09 -.83 7.62 l 29.83 3.56 Z m 1.61 -16.7 c .19 -2.79 .38 -5.56 .49 -8.36 l -30 -1.45 c -.11 2.56 -.27 5.12 -.44 7.66 Z m .81 -16.76 c .06 -2.78 .1 -5.58 .1 -8.37 l -30 -.05 c 0 2.57 0 5.14 -.12 7.69 l 30.05 .73 Z m 0 -16.75 c -.07 -2.8 -.15 -5.61 -.29 -8.38 l -30 1.35 c .12 2.55 .2 5.1 .27 7.67 l 30 -.64 Z m -.76 -16.76 c -.19 -2.8 -.4 -5.58 -.65 -8.35 L 2282 473.36 c .22 2.56 .44 5.09 .61 7.66 l 30 -2 Z m -1.5 -16.7 c -.34 -2.79 -.69 -5.56 -1.08 -8.33 l -29.76 4.16 q .53 3.81 1 7.62 l 29.85 -3.45 Z m -2.34 -16.61 q -.69 -4.17 -1.45 -8.28 L 2277.78 443 c .48 2.51 .93 5 1.33 7.56 Z m -3.1 -16.51 c -.6 -2.73 -1.2 -5.45 -1.84 -8.19 l -29.25 7 c .61 2.49 1.16 5 1.7 7.5 l 29.39 -6.27 Z m -3.88 -16.32 c -.72 -2.71 -1.47 -5.4 -2.24 -8.1 l -28.86 8.35 c .7 2.45 1.39 4.92 2 7.39 Z m -4.67 -16.13 q -1.26 -4 -2.62 -8 l -28.45 9.69 c .85 2.45 1.65 4.88 2.41 7.33 l 28.65 -9 Z m -5.43 -15.94 q -1.47 -3.94 -3 -7.87 l -28 11.07 c 1 2.37 1.86 4.78 2.77 7.18 l 28.19 -10.37 Z m -6.19 -15.65 c -1.09 -2.59 -2.22 -5.15 -3.38 -7.72 l -27.4 12.39 q 1.61 3.48 3.1 7 l 27.68 -11.71 Z m -6.94 -15.33 c -1.22 -2.53 -2.44 -5 -3.72 -7.55 l -26.76 13.66 q 1.74 3.44 3.41 6.91 l 27.07 -13 Z m -7.65 -15 q -2 -3.72 -4 -7.36 l -26.1 14.91 c 1.28 2.23 2.52 4.48 3.73 6.72 l 26.42 -14.27 Z m -8.32 -14.59 c -1.44 -2.42 -2.92 -4.79 -4.41 -7.15 l -25.36 16.13 c 1.37 2.17 2.72 4.34 4.06 6.54 l 25.71 -15.52 Z m -9 -14.19 c -1.56 -2.33 -3.14 -4.63 -4.74 -6.93 l -24.57 17.31 c 1.46 2.1 2.92 4.21 4.36 6.34 l 25 -16.72 Z m -9.66 -13.72 c -1.66 -2.26 -3.37 -4.48 -5.08 -6.69 L 2215.11 304 c 1.57 2 3.13 4.07 4.66 6.13 Z M 2233.61 279 c -1.76 -2.17 -3.57 -4.31 -5.38 -6.44 l -22.84 19.55 c 1.66 1.93 3.31 3.9 4.94 5.88 l 23.28 -19 Z m -10.91 -12.76 q -2.79 -3.11 -5.67 -6.17 l -21.89 20.58 c 1.75 1.87 3.47 3.76 5.2 5.66 l 22.36 -20.07 Z m -11.5 -12.22 c -1.94 -2 -3.94 -4 -5.93 -5.9 l -20.92 21.6 c 1.86 1.77 3.66 3.58 5.46 5.39 l 21.39 -21.1 Z m -12 -11.65 c -2.05 -1.9 -4.13 -3.77 -6.22 -5.63 l -19.88 22.57 q 2.89 2.52 5.71 5.13 Z m -12.59 -11.08 c -2.14 -1.8 -4.3 -3.56 -6.47 -5.33 l -18.8 23.48 c 2 1.58 4 3.21 5.94 4.85 l 19.34 -23 Z m -13.09 -10.49 c -2.2 -1.69 -4.45 -3.36 -6.69 -5 l -17.68 24.32 c 2.06 1.49 4.11 3 6.16 4.58 Z M 2160 211 c -2.3 -1.58 -4.61 -3.14 -6.95 -4.69 l -16.5 25.11 c 2.16 1.41 4.28 2.85 6.37 4.29 L 2159.94 211 Z m -14 -9.19 c -2.36 -1.49 -4.75 -2.92 -7.13 -4.35 l -15.31 25.87 c 2.18 1.28 4.39 2.61 6.56 4 L 2146 201.81 Z m -14.4 -8.52 c -2.43 -1.37 -4.86 -2.72 -7.34 -4 l -14.07 26.55 c 2.27 1.2 4.49 2.42 6.73 3.67 l 14.68 -26.21 Z m -14.79 -7.84 c -2.51 -1.26 -5 -2.46 -7.51 -3.66 L 2096.44 209 c 2.33 1.09 4.6 2.2 6.88 3.36 l 13.44 -26.9 Z m -15.15 -7.12 c -2.53 -1.13 -5.1 -2.23 -7.67 -3.3 l -11.51 27.77 c 2.36 1 4.72 2 7.05 3 l 12.13 -27.48 Z m -15.46 -6.41 c -2.63 -1 -5.23 -2 -7.88 -2.92 l -10.14 28.27 c 2.39 .87 4.8 1.77 7.2 2.67 Z m -15.79 -5.69 c -2.67 -.86 -5.32 -1.71 -8 -2.54 l -8.8 28.72 c 2.43 .75 4.88 1.53 7.3 2.35 Z m -16.05 -4.9 c -2.7 -.77 -5.38 -1.49 -8.11 -2.18 l -7.41 29.12 c 2.46 .63 5 1.3 7.41 2 Z M 2038 157.18 c -2.71 -.63 -5.45 -1.23 -8.21 -1.77 l -6 29.44 c 2.51 .49 5 1.05 7.5 1.62 l 6.72 -29.29 Z m -16.45 -3.37 c -2.74 -.5 -5.49 -1 -8.25 -1.39 l -4.64 29.68 c 2.54 .4 5.08 .82 7.57 1.29 l 5.32 -29.58 Z M 2005 151.23 c -2.77 -.36 -5.54 -.71 -8.33 -1 l -3.21 29.87 c 2.53 .29 5.09 .59 7.62 .93 l 3.92 -29.79 Z m -16.67 -1.8 c -2.77 -.24 -5.58 -.44 -8.37 -.6 l -1.8 30 c 2.55 .16 5.12 .35 7.65 .55 l 2.52 -29.93 Z m -16.73 -1 c -2.8 -.09 -5.57 -.16 -8.36 -.2 l -.44 30.05 c 2.55 0 5.13 .11 7.67 .2 Z m -16.76 -.22 c -2.82 0 -5.6 .08 -8.37 .17 l 1 30 q 3.81 -.13 7.68 -.17 Z m -16.77 .53 c -2.79 .16 -5.56 .35 -8.36 .57 l 2.38 29.95 c 2.54 -.2 5.11 -.37 7.65 -.51 Z M 1921.38 150 c -2.77 .29 -5.56 .6 -8.33 1 l 3.78 29.81 c 2.53 -.34 5.08 -.62 7.62 -.86 Z m -16.63 2.1 c -2.78 .42 -5.54 .88 -8.3 1.35 l 5.19 29.61 c 2.53 -.44 5 -.86 7.57 -1.24 l -4.46 -29.72 Z m -16.54 2.9 c -2.73 .56 -5.48 1.14 -8.2 1.74 l 6.59 29.33 c 2.47 -.56 5 -1.1 7.5 -1.6 L 1888.21 155 Z m -16.36 3.67 q -4.06 1 -8.14 2.14 l 8 29 c 2.46 -.67 4.94 -1.31 7.41 -1.94 l -7.27 -29.17 Z m -16.19 4.46 q -4 1.22 -8 2.53 l 9.32 28.55 c 2.45 -.79 4.89 -1.56 7.37 -2.3 Z m -16 5.23 c -2.66 .94 -5.28 1.91 -7.93 2.92 l 10.7 28.08 c 2.39 -.91 4.81 -1.8 7.24 -2.66 Z m -15.74 6 c -2.61 1.07 -5.19 2.14 -7.76 3.26 l 12 27.56 c 2.33 -1 4.7 -2 7.09 -3 l -11.36 -27.81 Z m -15.43 6.73 c -2.54 1.19 -5.06 2.4 -7.59 3.63 l 13.31 27 c 2.31 -1.15 4.62 -2.26 7 -3.34 Z m -15.07 7.44 c -2.48 1.3 -5 2.64 -7.41 4 l 14.58 26.27 c 2.26 -1.25 4.5 -2.45 6.78 -3.64 l -13.94 -26.63 Z m -14.71 8.15 q -3.6 2.13 -7.19 4.34 l 15.8 25.56 c 2.2 -1.34 4.37 -2.67 6.59 -4 l -15.2 -25.93 Z m -14.28 8.84 c -2.35 1.53 -4.68 3.1 -7 4.67 l 17 24.78 c 2.12 -1.44 4.24 -2.86 6.4 -4.27 l -16.4 -25.18 Z m -13.84 9.51 c -2.28 1.63 -4.54 3.3 -6.76 5 L 1762 244 c 2 -1.54 4.08 -3.06 6.19 -4.54 l -17.58 -24.39 Z M 1737.2 225.2 c -2.2 1.74 -4.36 3.51 -6.52 5.29 l 19.26 23.08 c 2 -1.63 4 -3.26 6 -4.86 Z M 1724.32 236 c -2.12 1.83 -4.19 3.7 -6.26 5.57 l 20.32 22.17 c 1.89 -1.74 3.79 -3.45 5.72 -5.14 L 1724.32 236 Z m -12.38 11.33 c -2 1.94 -4 3.9 -6 5.89 l 21.32 21.17 c 1.81 -1.83 3.62 -3.63 5.48 -5.39 Z m -11.81 11.9 c -1.9 2 -3.79 4.09 -5.68 6.16 l 22.28 20.14 c 1.71 -1.9 3.46 -3.78 5.23 -5.64 l -21.83 -20.66 Z m -11.24 12.45 c -1.81 2.1 -3.62 4.25 -5.39 6.41 l 23.22 19.07 c 1.63 -2 3.26 -3.93 4.93 -5.86 l -22.76 -19.63 Z m -10.63 12.95 c -1.72 2.2 -3.42 4.41 -5.09 6.65 l 24.1 18 c 1.52 -2.06 3.06 -4.1 4.65 -6.09 l -23.66 -18.53 Z m -10 13.42 c -1.62 2.27 -3.21 4.58 -4.78 6.89 l 24.91 16.82 c 1.45 -2.13 2.88 -4.22 4.38 -6.32 Z m -9.38 13.9 c -1.5 2.34 -3 4.7 -4.43 7.08 l 25.67 15.63 c 1.34 -2.18 2.67 -4.35 4.07 -6.48 l -25.31 -16.23 Z m -8.69 14.28 c -1.42 2.42 -2.77 4.86 -4.11 7.31 l 26.37 14.41 c 1.24 -2.26 2.49 -4.48 3.76 -6.7 Z m -8 14.7 c -1.27 2.48 -2.52 5 -3.74 7.49 l 27 13.12 c 1.13 -2.29 2.27 -4.57 3.45 -6.85 l -26.72 -13.76 Z M 1634.83 356 c -1.15 2.52 -2.3 5.07 -3.38 7.65 l 27.61 11.84 c 1 -2.36 2 -4.7 3.09 -7 Z m -6.59 15.36 c -1 2.6 -2 5.2 -3 7.83 l 28.14 10.52 c .91 -2.41 1.81 -4.79 2.77 -7.17 l -27.89 -11.19 Z M 1622.37 387 c -.92 2.64 -1.79 5.29 -2.65 8 l 28.61 9.18 c .78 -2.45 1.58 -4.87 2.42 -7.28 L 1622.37 387 Z m -5.12 16 c -.8 2.68 -1.54 5.37 -2.26 8.07 l 29 7.8 c .67 -2.46 1.38 -4.93 2.08 -7.38 L 1617.25 403 Z m -4.36 16.2 c -.66 2.73 -1.29 5.44 -1.86 8.18 l 29.33 6.41 c .56 -2.51 1.12 -5 1.73 -7.48 l -29.2 -7.11 Z m -3.57 16.41 c -.52 2.73 -1 5.49 -1.5 8.26 l 29.63 5 c .43 -2.53 .88 -5 1.37 -7.56 Z m -2.79 16.53 c -.39 2.76 -.77 5.54 -1.11 8.33 l 29.85 3.6 c .28 -2.54 .63 -5.08 1 -7.61 l -29.72 -4.31 Z m -2 16.67 c -.28 2.77 -.5 5.55 -.71 8.35 l 30 2.21 c .19 -2.57 .42 -5.12 .66 -7.66 l -29.91 -2.9 Z m -1.21 16.72 c -.16 2.78 -.27 5.58 -.34 8.37 l 30 .81 c .06 -2.57 .15 -5.13 .3 -7.69 l -30 -1.49 Z m -.45 16.76 v 1.19 c 0 2.81 0 5.61 .1 8.39 l 30 -.71 c -.06 -2.55 -.08 -5.1 -.08 -7.68 v -1.1 l -30.05 -.09 Z" fill="#fff"/><path d="M 2235.44 503.5 c 0 153.15 -124.14 277.29 -277.28 277.29 S 1680.89 656.64 1680.89 503.5 S 1805 226.21 1958.16 226.21 s 277.28 124.16 277.28 277.29 Z" fill="#4a90e2"/><path d="M 2081.76 507.87 l 123.3 -16.95 l -124.39 -4 l 118.65 -37.53 l -123.26 17.1 l 110.61 -57.05 L 2068 447.14 l 99.37 -74.93 l -110.53 57.2 l 85.28 -90.67 l -99.27 75.05 L 2111.62 310 l -85.17 90.77 l 50.2 -113.88 l -68.6 103.83 L 2038.29 270 l -50 113.94 l 9.39 -124.11 l -30.1 120.78 l -11.69 -123.92 l -9.26 124.13 l -32.47 -120.17 L 1926 384.57 l -52.3 -112.93 l 32.61 120.11 l -70.63 -102.46 l 52.44 112.86 l -86.95 -89 l 70.76 102.38 L 1771.16 342.4 l 87 89 l -111.64 -55 l 100.83 73 L 1728.07 414 l 111.7 54.84 l -123.58 -14.65 l 119.37 35.19 l -124.28 6.43 l 123.6 14.51 l -121.41 27.36 l 124.28 -6.59 l -115 47.48 l 121.38 -27.5 l -105.38 66.23 l 115 -47.61 l -92.66 83.08 l 105.29 -66.35 L 1789.05 684 l 92.56 -83.2 L 1821.93 710 l 77.17 -97.64 l -40.38 117.74 l 59.55 -109.29 l -19.88 122.86 l 40.21 -117.79 l 1.15 124.47 l 19.75 -122.89 l 22.16 122.47 l -1.31 -124.46 l 42.55 117 l -22.31 -122.45 l 61.7 108.11 l -42.7 -116.92 l 79.09 96.09 l -61.83 -108 L 2131 680.58 l -79.18 -96 l 106.57 64.27 l -94.28 -81.25 L 2180 612.91 l -106.65 -64.14 l 121.89 25.1 l -115.94 -45.19 l 124.37 4.13 l -121.93 -24.94 Z" fill="#fff"/><path d="M 1520.71 487.77 l 5.13 58.76 l 12.28 -18.77 l -17.41 -40 Z" fill="#fff" fill-rule="evenodd"/><path d="M 1525.84 546.53 l 2.2 25 l 37.59 22.14 l -39.79 -47.1 Z" fill="#fff" fill-rule="evenodd"/><path d="M 1549 553.3 l -23.11 -6.77 l 39.78 47.1 Z" fill="#fff" fill-rule="evenodd"/><path d="M 1538.12 527.76 l -12.28 18.77 l 55.79 -22.15 l -43.51 3.39 Z" fill="#fff" fill-rule="evenodd"/><path d="M 1525.84 546.53 L 1549 553.3 l 32.68 -28.92 Z" fill="#fff" fill-rule="evenodd"/><path d="M 1520.71 487.77 l 5.13 58.76 l -15.35 -16.33 Z" fill="#fff" fill-rule="evenodd"/><path d="M 1525.84 546.53 l 2.2 25 l -33.21 28.33 l 31 -53.29 Z" fill="#fff" fill-rule="evenodd"/><path d="M 1504.25 557.21 l 21.59 -10.68 l -31 53.28 l 9.43 -42.6 Z" fill="#fff" fill-rule="evenodd"/><path d="M 1510.49 530.2 l 15.35 16.33 l -58.78 -12.13 l 43.43 -4.21 Z" fill="#fff" fill-rule="evenodd"/><path d="M 1525.84 546.53 l -21.59 10.69 l -37.19 -22.81 l 58.78 12.12 Z" fill="#fff" fill-rule="evenodd"/><path d="M 1542.67 353.79 l -10.25 58.08 l 16.71 -14.93 l -6.46 -43.15 Z" fill="#fff" fill-rule="evenodd"/><path d="M 1532.42 411.87 l -4.36 24.69 l 30.59 31.1 l -26.23 -55.79 Z" fill="#fff" fill-rule="evenodd"/><path d="M 1553 424.4 l -20.56 -12.53 l 26.23 55.79 L 1553 424.4 Z" fill="#fff" fill-rule="evenodd"/><path d="M 1549.13 396.94 l -16.71 14.93 l 59.62 -7 Z" fill="#fff" fill-rule="evenodd"/><path d="M 1532.42 411.87 L 1553 424.4 l 39 -19.5 l -59.62 7 Z" fill="#fff" fill-rule="evenodd"/><path d="M 1542.67 353.79 l -10.25 58.08 l -10.61 -19.74 l 20.86 -38.34 Z" fill="#fff" fill-rule="evenodd"/><path d="M 1532.42 411.87 l -4.36 24.69 l -39.39 18.76 l 43.75 -43.45 Z" fill="#fff" fill-rule="evenodd"/><path d="M 1508.8 416.61 l 23.62 -4.74 l -43.75 43.45 l 20.13 -38.71 Z" fill="#fff" fill-rule="evenodd"/><path d="M 1521.81 392.13 l 10.61 19.74 L 1478.77 385 l 43 7.18 Z" fill="#fff" fill-rule="evenodd"/><path d="M 1532.42 411.87 l -23.62 4.74 l -30 -31.66 Z" fill="#fff" fill-rule="evenodd"/><path d="M 1540.87 629.92 L 1561 685.35 l 7 -21.3 l -27.18 -34.13 Z" fill="#fff" fill-rule="evenodd"/><path d="M 1561 685.34 l 8.58 23.56 l 42.05 11.64 Z" fill="#fff" fill-rule="evenodd"/><path d="M 1585.12 685.91 l -24.08 -.57 l 50.62 35.2 Z" fill="#fff" fill-rule="evenodd"/><path d="M 1568 664.05 l -7 21.29 l 48.15 -35.84 L 1568 664.05 Z" fill="#fff" fill-rule="evenodd"/><path d="M 1561 685.34 l 24.08 .57 l 24.07 -36.41 L 1561 685.34 Z" fill="#fff" fill-rule="evenodd"/><path d="M 1540.87 629.92 L 1561 685.35 l -19 -11.81 l -1.12 -43.62 Z" fill="#fff" fill-rule="evenodd"/><path d="M 1561 685.34 l 8.58 23.56 l -24.74 35.94 l 16.16 -59.5 Z" fill="#fff" fill-rule="evenodd"/><path d="M 1543 701.25 L 1561 685.34 l -16.16 59.5 l -1.91 -43.6 Z" fill="#fff" fill-rule="evenodd"/><path d="M 1542 673.54 l 19 11.81 l -59.92 3.51 Z" fill="#fff" fill-rule="evenodd"/><path d="M 1561 685.34 L 1543 701.25 l -41.84 -12.39 l 59.91 -3.51 Z" fill="#fff" fill-rule="evenodd"/><path d="M 2390.49 546.53 l -23.11 6.77 l -32.68 -28.92 Z" fill="#fff" fill-rule="evenodd"/><path d="M 2390.49 546.53 l -2.2 25 l 33.2 28.32 Z" fill="#fff" fill-rule="evenodd"/><path d="M 2383.9 411.87 l -20.56 12.53 l -39.05 -19.5 l 59.61 7 Z" fill="#fff" fill-rule="evenodd"/><path d="M 2383.9 411.87 l 4.36 24.69 l 39.4 18.76 Z" fill="#fff" fill-rule="evenodd"/><path d="M 2355.3 685.34 l -24.09 .57 l -24.07 -36.41 l 48.16 35.84 Z" fill="#fff" fill-rule="evenodd"/><path d="M 2355.3 685.34 l -8.58 23.56 l 24.74 35.94 l -16.16 -59.5 Z" fill="#fff" fill-rule="evenodd"/><path d="M 2179.39 1000.08 C 2369.2 915.17 2501.8 724.54 2501.8 503.5 c 0 -227.29 -140.21 -422.41 -338.67 -503.5 h 217.06 a 59.36 59.36 0 0 1 3 12.11 l 3.52 24.49 c 6 41.85 44.14 84.71 85 95.57 l 23.91 6.33 a 60.87 60.87 0 0 1 43.24 73.69 l -6.11 24 c -10.47 41 8.36 95.17 42 120.81 l 19.65 15 a 60.89 60.89 0 0 1 11.77 84.64 l -14.85 19.79 c -25.35 33.85 -28.69 91.12 -7.45 127.69 l 12.43 21.4 a 60.88 60.88 0 0 1 -21.53 82.69 l -21.27 12.61 c -36.38 21.56 -61.39 73.22 -55.76 115.11 l 3.3 24.54 a 60.86 60.86 0 0 1 -51.51 68.14 l -24.51 3.52 c -36 5.16 -72.65 34 -89.15 68 H 2179.39 Z" fill="#4a90e2"/><path d="M 2335.89 1000.08 c 16.5 -34 53.19 -62.8 89.15 -68 l 24.51 -3.52 a 60.86 60.86 0 0 0 51.52 -68.14 l -3.31 -24.54 c -5.62 -41.89 19.39 -93.55 55.77 -115.11 l 21.26 -12.61 a 60.87 60.87 0 0 0 21.53 -82.69 l -12.43 -21.4 c -21.23 -36.57 -17.9 -93.84 7.46 -127.69 l 14.84 -19.79 A 60.89 60.89 0 0 0 2594.43 372 l -19.66 -15 c -33.61 -25.64 -52.44 -79.84 -42 -120.81 l 6.12 -24 a 60.88 60.88 0 0 0 -43.25 -73.69 l -23.91 -6.33 c -40.87 -10.86 -79 -53.72 -85 -95.57 l -3.52 -24.49 A 59.36 59.36 0 0 0 2380.18 0 h 21 a 78.46 78.46 0 0 1 1.9 9.27 l 3.51 24.48 c 4.89 34.05 37.1 70.25 70.34 79.06 l 23.9 6.34 c 36 9.55 60.06 42.48 60 78.27 c 0 1 0 2 -.06 3 a 79.83 79.83 0 0 1 -2.45 16.7 l -6.11 24 a 78.66 78.66 0 0 0 -2.31 19.38 c 0 29.91 14.71 63.54 37 80.57 l 19.67 15 a 80.68 80.68 0 0 1 31.65 64.37 c 0 2.49 -.11 5 -.35 7.49 a 80.22 80.22 0 0 1 -15.66 40.7 l -14.85 19.79 c -.68 .92 -1.36 1.87 -2 2.85 q -2.13 3.2 -4 6.67 c -7.57 14.23 -11.46 31.86 -11.47 49.23 c 0 17 3.7 33.75 11.32 46.87 l 12.43 21.4 A 80.88 80.88 0 0 1 2585 725.4 l -9.1 5.39 l -5.87 3.49 l -6.31 3.74 c -26.79 15.9 -46.66 53.22 -46.73 85.43 a 72.12 72.12 0 0 0 .62 9.82 l 3.29 24.53 a 80.68 80.68 0 0 1 -62 89.41 c -2.14 .5 -4.31 .91 -6.53 1.21 l -.72 .11 l -23.77 3.39 c -26.3 3.78 -53.89 23.87 -69.14 48.15 h -22.84 Z" fill="#fff"/><path d="M 2089.93 1000.08 c 219.62 -58.33 381.94 -258.84 381.94 -496.58 c 0 -248.27 -177 -456 -411.46 -503.5 h 102.72 c 198.46 81.09 338.67 276.21 338.67 503.5 c 0 221 -132.59 411.67 -322.41 496.58 Z" fill="#fff"/><path d="M 1958.18 858.85 h 0 V 828.79 h 3.57 l .3 30 l -3.85 0 Z m 12.26 -.21 l -1 -30 c 2.57 -.08 5.11 -.21 7.69 -.35 l 1.71 30 q -4.2 .24 -8.37 .38 Z m 16.73 -1 l -2.42 -29.95 c 2.56 -.21 5.11 -.44 7.65 -.71 l 3.13 29.88 c -2.78 .3 -5.58 .55 -8.36 .78 Z m 16.68 -1.75 L 2000 826.12 c 2.54 -.31 5.08 -.68 7.6 -1 l 4.53 29.7 c -2.74 .42 -5.52 .82 -8.3 1.16 Z m 16.57 -2.53 l -5.21 -29.58 c 2.52 -.46 5 -.93 7.54 -1.44 l 5.93 29.47 c -2.74 .55 -5.48 1.06 -8.26 1.55 Z m 16.47 -3.32 l -6.63 -29.29 c 2.51 -.57 5 -1.17 7.48 -1.79 l 7.31 29.15 c -2.72 .68 -5.42 1.33 -8.16 1.93 Z m 16.27 -4.08 l -8 -29 c 2.46 -.69 4.92 -1.41 7.36 -2.14 l 8.7 28.76 C 2058.54 844.48 2055.87 845.24 2053.16 846 Z m 16.09 -4.87 l -9.37 -28.54 c 2.44 -.8 4.86 -1.63 7.29 -2.51 l 10.07 28.32 c -2.67 1 -5.3 1.86 -8 2.73 Z m 15.88 -5.64 l -10.75 -28.06 c 2.4 -.91 4.78 -1.87 7.15 -2.84 L 2093 832.38 c -2.6 1.07 -5.19 2.11 -7.81 3.11 Z m 15.56 -6.38 l -12.06 -27.53 c 2.35 -1 4.68 -2.09 7 -3.17 l 12.7 27.23 C 2105.81 826.82 2103.27 828 2100.69 829.11 Z m 15.24 -7.11 l -13.37 -26.92 c 2.32 -1.15 4.6 -2.32 6.87 -3.51 l 14 26.58 q -3.73 2 -7.5 3.85 Z m 14.88 -7.85 l -14.62 -26.24 q 3.38 -1.89 6.69 -3.82 L 2138.1 810 C 2135.7 811.4 2133.25 812.8 2130.81 814.15 Z m 14.47 -8.52 h 0 l -15.82 -25.53 c 2.17 -1.36 4.33 -2.73 6.48 -4.14 l 16.44 25.15 c -2.35 1.55 -4.71 3 -7.1 4.52 Z m 14.08 -9.18 l -17 -24.77 q 3.15 -2.17 6.28 -4.42 l 17.6 24.35 C 2163.94 793.24 2161.66 794.86 2159.36 796.45 Z m 13.58 -9.86 l -18.18 -23.93 c 2 -1.53 4.06 -3.11 6.07 -4.72 l 18.73 23.52 Q 2176.27 784.06 2172.94 786.59 Z m 13.13 -10.46 l -19.28 -23 c 2 -1.64 3.9 -3.31 5.84 -5 l 19.82 22.59 Q 2189.29 773.43 2186.07 776.13 Z m 12.62 -11.08 L 2178.34 743 c 1.87 -1.74 3.76 -3.5 5.59 -5.28 l 20.86 21.64 c -2 1.94 -4.05 3.85 -6.1 5.74 Z m 12.06 -11.62 l -21.34 -21.14 c 1.79 -1.84 3.57 -3.67 5.32 -5.52 l 21.85 20.62 q -2.88 3 -5.83 6 Z m 11.51 -12.21 l -22.32 -20.11 c 1.69 -1.89 3.4 -3.82 5.06 -5.77 l 22.79 19.58 C 2226 737.05 2224.13 739.16 2222.26 741.22 Z m 10.93 -12.72 l -23.25 -19 c 1.61 -2 3.21 -4 4.78 -6 l 23.69 18.5 c -1.72 2.18 -3.48 4.37 -5.22 6.52 Z m 10.3 -13.2 l -24.09 -17.93 c 1.51 -2 3 -4.13 4.48 -6.21 l 24.53 17.36 c -1.61 2.27 -3.26 4.55 -4.92 6.78 Z m 9.67 -13.68 l -24.92 -16.77 q 2.13 -3.18 4.2 -6.41 l 25.32 16.17 Q 2255.5 698.14 2253.16 701.62 Z m 9 -14.11 l -25.7 -15.59 q 2 -3.25 3.89 -6.59 l 26.06 15 c -1.38 2.43 -2.82 4.84 -4.26 7.23 Z m 8.35 -14.51 l -26.4 -14.36 c 1.22 -2.24 2.42 -4.5 3.58 -6.78 l 26.73 13.72 c -1.27 2.49 -2.58 5 -3.91 7.41 Z m 7.63 -14.9 l -27 -13.09 c 1.12 -2.3 2.21 -4.6 3.26 -6.92 l 27.37 12.44 c -1.16 2.55 -2.36 5.06 -3.58 7.57 Z m 6.92 -15.22 l -27.61 -11.81 q 1.5 -3.5 2.9 -7.06 l 27.91 11.13 C 2287.25 637.74 2286.18 640.31 2285.08 642.88 Z m 6.21 -15.57 l -28.15 -10.46 c .88 -2.41 1.76 -4.8 2.59 -7.23 l 28.41 9.79 c -.93 2.66 -1.85 5.29 -2.85 7.91 Z m 5.49 -15.86 l -28.64 -9.11 c .77 -2.45 1.52 -4.89 2.26 -7.35 l 28.81 8.43 C 2298.42 606.11 2297.61 608.78 2296.78 611.45 Z m 4.71 -16.1 l -29 -7.75 c .65 -2.47 1.29 -5 1.87 -7.45 l 29.22 7.07 C 2302.89 590 2302.21 592.64 2301.49 595.35 Z m 3.93 -16.31 l -29.37 -6.37 q .81 -3.74 1.53 -7.53 l 29.52 5.67 C 2306.58 573.57 2306 576.3 2305.42 579 Z m 3.15 -16.49 l -29.63 -5 c .42 -2.52 .84 -5.05 1.19 -7.58 l 29.73 4.25 c -.4 2.78 -.84 5.54 -1.29 8.29 Z m 2.36 -16.61 l -29.82 -3.55 c .32 -2.54 .59 -5.08 .83 -7.63 l 29.91 2.84 c -.25 2.79 -.57 5.58 -.92 8.35 Z m 1.62 -16.7 l -30 -2.15 c .17 -2.54 .32 -5.1 .43 -7.66 l 30 1.45 C 2312.92 523.68 2312.74 526.45 2312.55 529.24 Z m .8 -16.76 l -30 -.73 c .08 -2.55 .09 -5.12 .12 -7.69 l 30 .05 c 0 2.79 0 5.59 -.1 8.37 Z m -30 -16.11 c -.07 -2.57 -.14 -5.12 -.27 -7.67 l 30 -1.36 c .14 2.78 .22 5.58 .29 8.39 l -30 .64 Z m -.69 -15.35 c -.18 -2.56 -.39 -5.1 -.62 -7.65 l 29.93 -2.75 c .25 2.77 .46 5.56 .65 8.35 l -30 2.06 Z m -1.4 -15.3 q -.47 -3.81 -1 -7.62 l 29.76 -4.16 c .38 2.77 .73 5.54 1.07 8.33 l -29.85 3.45 Z m -2.14 -15.21 q -.61 -3.79 -1.33 -7.56 l 29.54 -5.57 q .77 4.11 1.45 8.28 Z m -2.84 -15.09 c -.54 -2.51 -1.09 -5 -1.7 -7.5 l 29.25 -7 c .64 2.74 1.24 5.46 1.84 8.19 l -29.39 6.27 Z m -3.56 -14.95 c -.64 -2.47 -1.32 -4.94 -2 -7.39 l 28.87 -8.35 c .77 2.7 1.52 5.39 2.23 8.1 Z m -4.25 -14.75 c -.77 -2.45 -1.57 -4.88 -2.42 -7.32 l 28.46 -9.7 q 1.35 4 2.61 8 l -28.65 9 Z m -5 -14.57 c -.91 -2.41 -1.81 -4.82 -2.77 -7.19 l 28 -11.07 c 1 2.63 2 5.24 3 7.87 h 0 l -28.19 10.38 Z m -5.67 -14.33 q -1.5 -3.56 -3.1 -7 l 27.4 -12.39 c 1.16 2.57 2.29 5.13 3.38 7.72 l -27.68 11.7 Z m -6.34 -14 c -1.1 -2.32 -2.25 -4.62 -3.4 -6.91 l 26.76 -13.66 c 1.27 2.51 2.5 5 3.72 7.55 l -27.07 13 Z m -7 -13.73 c -1.2 -2.25 -2.45 -4.49 -3.73 -6.72 l 26.1 -14.91 q 2.08 3.65 4 7.36 l -26.42 14.27 Z m -7.61 -13.34 c -1.34 -2.2 -2.69 -4.37 -4.06 -6.54 l 25.36 -16.13 c 1.49 2.36 3 4.73 4.41 7.15 l -25.72 15.51 Z m -8.25 -13 c -1.44 -2.13 -2.89 -4.23 -4.36 -6.34 l 24.57 -17.31 c 1.6 2.3 3.19 4.6 4.74 6.93 l -25 16.72 Z m -8.85 -12.56 q -2.31 -3.1 -4.67 -6.13 l 23.74 -18.44 c 1.7 2.21 3.41 4.44 5.07 6.69 Z M 2210.33 298 c -1.63 -2 -3.27 -4 -4.93 -5.89 l 22.84 -19.55 c 1.81 2.14 3.61 4.27 5.37 6.45 l -23.28 19 Z m -10 -11.69 c -1.73 -1.9 -3.45 -3.78 -5.21 -5.66 L 2217 260.11 c 1.92 2 3.82 4.09 5.67 6.17 l -22.35 20.07 Z m -10.54 -11.2 c -1.79 -1.81 -3.59 -3.61 -5.45 -5.39 l 20.92 -21.6 c 2 1.94 4 3.93 5.93 5.9 l -21.4 21.09 Z m -11 -10.67 c -1.87 -1.74 -3.78 -3.46 -5.7 -5.13 L 2193 236.78 c 2.08 1.86 4.16 3.73 6.22 5.63 Z m -11.52 -10.15 c -1.94 -1.64 -4 -3.27 -5.94 -4.86 L 2180.11 226 c 2.18 1.78 4.34 3.54 6.48 5.33 h 0 l -19.34 23 Z m -12 -9.59 c -2.05 -1.55 -4.1 -3.09 -6.17 -4.58 l 17.68 -24.32 c 2.25 1.64 4.49 3.31 6.69 5 Z m -12.42 -9 c -2.08 -1.44 -4.21 -2.88 -6.36 -4.29 l 16.5 -25.11 c 2.34 1.55 4.65 3.1 6.95 4.69 l -17.08 24.71 Z m -12.8 -8.42 c -2.17 -1.35 -4.37 -2.68 -6.55 -4 l 15.3 -25.87 c 2.38 1.42 4.77 2.86 7.13 4.35 l -15.88 25.48 Z m -13.2 -7.8 c -2.24 -1.24 -4.46 -2.46 -6.73 -3.66 l 14.07 -26.56 c 2.48 1.3 4.91 2.64 7.34 4 l -14.68 26.2 Z m -13.54 -7.15 c -2.28 -1.16 -4.56 -2.26 -6.89 -3.35 l 12.81 -27.2 c 2.51 1.2 5 2.4 7.52 3.66 l -13.44 26.89 Z m -13.84 -6.53 q -3.51 -1.55 -7 -3 l 11.5 -27.77 c 2.57 1.07 5.14 2.17 7.68 3.3 l -12.13 27.48 Z m -14.16 -5.87 c -2.39 -.9 -4.8 -1.79 -7.2 -2.67 L 2078.28 169 c 2.64 .94 5.25 1.91 7.88 2.92 Z m -14.45 -5.17 c -2.42 -.82 -4.87 -1.59 -7.3 -2.36 l 8.79 -28.71 c 2.68 .82 5.33 1.67 8 2.54 Z m -14.67 -4.51 c -2.47 -.69 -5 -1.35 -7.42 -2 l 7.42 -29.13 c 2.72 .7 5.4 1.41 8.1 2.18 Z m -14.89 -3.79 c -2.5 -.56 -5 -1.12 -7.49 -1.62 l 6 -29.44 q 4.13 .83 8.21 1.77 l -6.73 29.29 Z m -15 -3.08 c -2.49 -.47 -5 -.88 -7.56 -1.29 l 4.63 -29.68 c 2.76 .43 5.51 .9 8.26 1.39 l -5.33 29.58 Z M 2001.1 181 c -2.53 -.34 -5.09 -.64 -7.62 -.93 l 3.21 -29.87 c 2.8 .31 5.56 .64 8.34 1 L 2001.1 181 Z m -15.27 -1.66 c -2.53 -.21 -5.1 -.39 -7.65 -.55 l 1.8 -30 c 2.79 .16 5.6 .37 8.37 .6 l -2.52 29.94 Z m -15.34 -.93 c -2.54 -.08 -5.12 -.16 -7.67 -.19 l .44 -30.05 c 2.79 0 5.57 .11 8.36 .2 Z" fill="#fff"/><path d="M 1958.16 780.79 V 635.69 l 1.33 -8.28 l 22.17 122.48 l -1.31 -124.47 l 42.55 117 l -18.41 -101 l 14.08 10 l 43.71 76.58 l -22.42 -61.41 L 2107.63 715 L 2084 640 l 47 40.58 l -55.29 -67 l -5.66 -18 l 88.33 53.27 l -94.27 -81.25 L 2180 612.92 l -106.66 -64.14 l 121.9 25.1 l -115.94 -45.19 l 124.37 4.12 l -111 -22.7 l 6.2 -4.6 l 106.16 -14.59 l -82.88 -2.65 L 2156.25 463 l 43.06 -13.63 L 2169 453.61 l 31.09 -23 l -53.44 -.49 l 40 -20.66 l -64.35 20.44 l -31 -.28 l 76.12 -57.4 l -110.31 57.08 H 2057 l 85.17 -90.55 l -99.27 75.05 L 2111.61 310 l -85.17 90.77 l 50.2 -113.88 L 2008 390.75 L 2038.28 270 l -42.57 96.91 l -5 -15.08 l 7 -92 l -16.12 64.69 l -23.34 -69.68 V 226.22 c 153.13 0 277.27 124.15 277.27 277.29 S 2111.29 780.8 1958.16 780.8 Z" fill="#4a90e2"/><path d="M 2390.49 546.53 l -12.28 -18.75 l 13.56 -31.19 l 3.84 -8.82 l -.81 9.29 l -4.31 49.47 Z" fill="#fff" fill-rule="evenodd"/><path d="M 2350.7 593.63 m 0 0 l 39.79 -47.1 l -2.2 25 Z" fill="#fff" fill-rule="evenodd"/><path d="M 2350.7 593.63 h 0 l 16.68 -40.33 l 23.11 -6.77 Z m 39.79 -47.1 l 0 0" fill="#fff" fill-rule="evenodd"/><path d="M 2390.49 546.53 m 0 0 l -52.65 -20.91 l -3.14 -1.25 l 32.71 2.56 l 10.8 .85 l 12.28 18.75 Z" fill="#fff" fill-rule="evenodd"/><path d="M 2367.38 553.3 h 0 l -31.33 -27.73 l -1.35 -1.2 l 3.14 1.25 l 52.65 20.91 l -23.11 6.77 Z" fill="#fff" fill-rule="evenodd"/><path d="M 2390.49 546.53 l 4.31 -49.46 l .81 -9.3 l 2.58 10.69 l 7.65 31.74 Z" fill="#fff" fill-rule="evenodd"/><path d="M 2421.49 599.82 m 0 0 l -.25 -.21 l -32.95 -28.11 l 2.2 -25 Z" fill="#fff" fill-rule="evenodd"/><path d="M 2421.49 599.82 h 0 l -31 -53.29 l 21.58 10.69 l 8.37 37.86 l 1 4.74 Z m -31 -53.29" fill="#fff" fill-rule="evenodd"/><path d="M 2390.49 546.53 l 15.35 -16.33 l 3.23 .31 l 40.21 3.88 l -19.8 4.09 l -39 8 Z" fill="#fff" fill-rule="evenodd"/><path d="M 2412.07 557.21 l -21.58 -10.68 l 39 -8 l 19.8 -4.09 l -9.4 5.76 l -27.81 17.06 Z" fill="#fff" fill-rule="evenodd"/><path d="M 2383.9 411.87 l -16.72 -14.93 l 6.47 -43.15 l 10.25 58.08 Z" fill="#fff" fill-rule="evenodd"/><path d="M 2357.69 467.66 m 0 0 l 26.21 -55.79 l 4.36 24.69 Z" fill="#fff" fill-rule="evenodd"/><path d="M 2357.69 467.66 h 0 l 5.65 -43.26 l 20.56 -12.53 Z" fill="#fff" fill-rule="evenodd"/><path d="M 2383.9 411.87 l -59.61 -7 l 42.89 -8 Z" fill="#fff" fill-rule="evenodd"/><path d="M 2363.34 424.4 h 0 l -39.05 -19.5 l 59.61 7 l -20.56 12.53 Z" fill="#fff" fill-rule="evenodd"/><path d="M 2383.9 411.87 h 0 l -10.25 -58.08 l 20.86 38.33 l -10.61 19.74 Z" fill="#fff" fill-rule="evenodd"/><path d="M 2427.66 455.32 m 0 0 l -39.4 -18.76 l -4.36 -24.69 Z m -43.76 -43.45" fill="#fff" fill-rule="evenodd"/><path d="M 2427.66 455.32 h 0 l -43.76 -43.45 l 23.64 4.73 l 20.13 38.72 Z m -43.76 -43.45" fill="#fff" fill-rule="evenodd"/><path d="M 2383.9 411.87 l 10.61 -19.74 l 43 -7.18 Z" fill="#fff" fill-rule="evenodd"/><path d="M 2407.53 416.6 l -23.63 -4.73 L 2437.55 385 l -30 31.65 Z" fill="#fff" fill-rule="evenodd"/><path d="M 2355.3 685.34 l -7 -21.29 l 27.18 -34.13 l -20.17 55.43 Z" fill="#fff" fill-rule="evenodd"/><path d="M 2304.67 720.54 m 0 0 l 50.63 -35.2 l -8.58 23.56 l -42 11.64 Z" fill="#fff" fill-rule="evenodd"/><path d="M 2304.67 720.54 h 0 l 26.54 -34.63 l 24.09 -.57 l -50.63 35.2 Z m 50.63 -35.2 l 0 0" fill="#fff" fill-rule="evenodd"/><path d="M 2355.3 685.34 m 0 0 l -48.16 -35.84 l 41.15 14.55 Z" fill="#fff" fill-rule="evenodd"/><path d="M 2331.21 685.91 h 0 l -24.08 -36.41 l 48.16 35.84 l -24.08 .57 Z" fill="#fff" fill-rule="evenodd"/><path d="M 2355.3 685.34 l 20.17 -55.43 l -1.12 43.63 Z" fill="#fff" fill-rule="evenodd"/><path d="M 2371.46 744.85 l -24.74 -36 l 8.58 -23.55 l 16.16 59.5 Z" fill="#fff" fill-rule="evenodd"/><path d="M 2371.46 744.85 h 0 l -16.16 -59.5 l 18.07 15.9 l -1.91 43.6 Z m -16.16 -59.5 l 0 0" fill="#fff" fill-rule="evenodd"/><path d="M 2415.21 688.86 l -59.92 -3.51 l 19.05 -11.81 Z" fill="#fff" fill-rule="evenodd"/><path d="M 2373.38 701.25 h 0 l -18.08 -15.91 l 59.92 3.51 l -41.84 12.39 Z" fill="#fff" fill-rule="evenodd"/><g><path d="M 1971.72 502.37 a 14.82 14.82 0 0 1 -29.64 0 c 0 -11.11 -3.7 -14.82 -14.81 -14.82 s -14.81 3.71 -14.81 14.82 a 14.82 14.82 0 1 1 -14.82 -14.82 c 11.11 0 14.82 -3.7 14.82 -14.81 a 14.81 14.81 0 1 1 29.62 0 c 0 11.11 3.71 14.81 14.82 14.81 A 14.79 14.79 0 0 1 1971.72 502.37 Z" fill="#4a90e2" fill-rule="evenodd"/><path d="M 1882.74 532 a 14.82 14.82 0 1 0 -14.82 14.82 A 14.82 14.82 0 0 0 1882.74 532 Z" fill="#4a90e2" fill-rule="evenodd"/><path d="M 2060.74 472.69 a 14.81 14.81 0 0 1 -14.82 14.82 c -11.11 0 -14.81 3.7 -14.81 14.81 a 14.81 14.81 0 0 1 -14.82 14.82 c -11.11 0 -14.81 3.7 -14.81 14.82 a 14.82 14.82 0 1 1 -14.82 -14.82 c 11.11 0 14.82 -3.71 14.82 -14.82 a 14.8 14.8 0 0 1 14.81 -14.81 c 11.11 0 14.82 -3.71 14.82 -14.82 a 14.82 14.82 0 1 1 29.63 0 Z" fill="#4a90e2" fill-rule="evenodd"/></g></g><ellipse cx="1958.1" cy="504.8" fill="none" rx="403.11" ry="403.13"/><path d="M 1604.3 310.4 l -53.17 -34.09 l 23 -35.87 l 6.24 4 l -18.47 28.82 l 16.56 10.61 l 16 -24.95 l 6.24 4 l -16 24.95 l 24.14 15.48 l -4.52 7 Z m 29 -45.93 l -47.74 -41.36 l 29.86 -34.47 l 5.6 4.86 l -24.38 28.14 l 14.67 12.7 L 1634.08 208 l 5.6 4.85 l -22.81 26.34 l 16.27 14.09 L 1658.49 224 l 5.6 4.85 l -30.84 35.6 Z m 38.37 -44.29 l -41.36 -47.74 l 34.47 -29.86 l 4.86 5.6 l -28.14 24.38 l 12.71 14.67 l 26.33 -22.82 l 4.85 5.6 L 1659 192.83 l 14.09 16.27 l 29.27 -25.36 l 4.85 5.6 l -35.6 30.84 Z m 44.7 -38 l -36.6 -51.48 l 6.83 -4.85 l 32.31 45.43 l 25.31 -18 l 4.29 6 l -32.13 22.86 Z m 41.2 -27.67 l -28.8 -56.22 l 40.6 -20.79 l 3.37 6.59 l -33.13 17 l 8.85 17.28 l 31 -15.89 l 3.38 6.6 l -31 15.88 l 9.81 19.16 l 34.46 -17.66 l 3.38 6.6 l -41.92 21.48 Z m 43.8 -43.81 l 7.21 -3.19 a 17.49 17.49 0 0 0 5 6.58 a 14.44 14.44 0 0 0 7.6 2.64 a 24 24 0 0 0 9.78 -1.32 a 23 23 0 0 0 7.54 -4.06 a 11.72 11.72 0 0 0 3.9 -5.46 a 9.17 9.17 0 0 0 0 -5.7 a 8.25 8.25 0 0 0 -3.29 -4.35 a 12.92 12.92 0 0 0 -6.58 -1.7 a 115.65 115.65 0 0 0 -11.64 .69 c -6 .54 -10.21 .6 -12.81 .17 a 17 17 0 0 1 -8.25 -3.42 a 14.38 14.38 0 0 1 -4.63 -6.75 a 16.16 16.16 0 0 1 -.29 -9.35 a 16.78 16.78 0 0 1 5.48 -8.53 a 30.12 30.12 0 0 1 10.28 -5.76 A 31.49 31.49 0 0 1 1823 59.39 a 17.76 17.76 0 0 1 9.94 3.66 a 19.24 19.24 0 0 1 6.13 8.44 l -7.4 3.15 q -2.54 -5.44 -7 -7.15 t -11.41 .64 q -7.2 2.43 -9.59 6.17 a 8.34 8.34 0 0 0 -1.13 7.46 a 7.18 7.18 0 0 0 4.12 4.52 c 2 .86 6.45 1 13.38 .23 s 11.77 -1 14.53 -.67 a 19.16 19.16 0 0 1 9.76 3.48 a 15.56 15.56 0 0 1 5.35 7.64 a 17.11 17.11 0 0 1 .31 9.91 a 18.86 18.86 0 0 1 -5.62 9.21 a 28.89 28.89 0 0 1 -10.73 6.24 a 36.15 36.15 0 0 1 -14.38 2.22 a 19.87 19.87 0 0 1 -11 -4.21 a 21.26 21.26 0 0 1 -6.92 -9.62 Z M 1859.72 92 l 7.61 -2.08 a 17.55 17.55 0 0 0 3.93 7.24 a 14.36 14.36 0 0 0 7.12 3.75 a 24 24 0 0 0 9.87 .15 a 23.06 23.06 0 0 0 8.06 -2.89 a 11.68 11.68 0 0 0 4.66 -4.82 a 9.12 9.12 0 0 0 .82 -5.64 a 8.23 8.23 0 0 0 -2.6 -4.79 a 12.82 12.82 0 0 0 -6.26 -2.66 a 114.79 114.79 0 0 0 -11.61 -1.05 c -6 -.35 -10.18 -.93 -12.69 -1.73 a 17.16 17.16 0 0 1 -7.65 -4.63 a 14.4 14.4 0 0 1 -3.57 -7.35 a 16 16 0 0 1 1.1 -9.29 a 16.67 16.67 0 0 1 6.69 -7.61 a 30 30 0 0 1 11 -4.17 a 31.63 31.63 0 0 1 12.59 0 a 17.75 17.75 0 0 1 9.29 5.11 a 19.11 19.11 0 0 1 4.8 9.25 l -7.79 2 c -1.12 -3.84 -3.08 -6.56 -5.89 -8.11 s -6.6 -1.93 -11.37 -1.08 q -7.47 1.34 -10.4 4.68 a 8.35 8.35 0 0 0 -2.24 7.21 a 7.24 7.24 0 0 0 3.4 5.09 c 1.85 1.15 6.24 1.9 13.2 2.21 s 11.78 .83 14.47 1.51 a 19.16 19.16 0 0 1 9.14 4.89 a 15.7 15.7 0 0 1 4.15 8.36 a 17.13 17.13 0 0 1 -1.17 9.84 a 19 19 0 0 1 -6.93 8.28 a 28.89 28.89 0 0 1 -11.54 4.56 a 36.09 36.09 0 0 1 -14.55 .06 a 20 20 0 0 1 -10.25 -5.8 A 21.14 21.14 0 0 1 1859.72 92 Z m 124.18 2.78 a 26.61 26.61 0 0 1 -8.52 6.13 a 22.75 22.75 0 0 1 -9.85 1.87 q -9.69 -.24 -15.22 -6.91 a 17.73 17.73 0 0 1 -4.32 -12 a 16.39 16.39 0 0 1 4 -10.44 c 2.6 -3.09 6.43 -5.74 11.47 -8 a 37.64 37.64 0 0 1 -5.53 -8.11 a 14 14 0 0 1 -1.29 -5.92 a 13.13 13.13 0 0 1 4.72 -9.77 a 15.74 15.74 0 0 1 11.35 -3.92 a 14.69 14.69 0 0 1 10.5 4.23 a 12.77 12.77 0 0 1 3.87 9.65 q -.22 9 -12.4 15.1 l 11.07 14.63 a 35.34 35.34 0 0 0 3.27 -8.71 l 8 1.93 a 42.8 42.8 0 0 1 -6 13.37 a 45.55 45.55 0 0 0 9.6 9.92 l -5.36 6 a 44.91 44.91 0 0 1 -9.41 -9.06 Z m -15.05 -33.19 c 3.43 -1.92 5.65 -3.6 6.69 -5.07 a 8.7 8.7 0 0 0 1.62 -4.94 a 7.18 7.18 0 0 0 -1.92 -5.35 a 7 7 0 0 0 -5.08 -2.18 a 7.27 7.27 0 0 0 -5.31 1.89 a 6.68 6.68 0 0 0 -2.23 4.93 a 7.24 7.24 0 0 0 .69 3.11 a 15.44 15.44 0 0 0 2.17 3.49 l 3.37 4.12 Z m 10.26 27 l -13.69 -18 q -6.4 3.55 -8.67 6.71 a 11.16 11.16 0 0 0 -2.37 6.26 a 13.48 13.48 0 0 0 2.86 8 a 10.07 10.07 0 0 0 8.52 4.33 a 14.29 14.29 0 0 0 7.25 -2 a 17.4 17.4 0 0 0 6.1 -5.35 Z m 54.07 20.23 l 11.1 -62.18 l 8.25 1.48 l -11.1 62.17 Z m 22.78 3.35 l 20.24 -59.83 l 8.14 2.75 l 15.5 57.58 l 15.89 -47 l 7.6 2.58 l -20.24 59.83 l -8.14 -2.75 l -15.5 -57.59 l -15.89 47 Z m 67.57 1.94 l 7.31 2.95 a 17.44 17.44 0 0 0 -1.25 8.15 a 14.35 14.35 0 0 0 3.4 7.29 a 23.93 23.93 0 0 0 7.76 6.09 a 22.86 22.86 0 0 0 8.16 2.58 a 11.66 11.66 0 0 0 6.63 -1 a 9.09 9.09 0 0 0 4.07 -4 a 8.23 8.23 0 0 0 .82 -5.39 a 12.89 12.89 0 0 0 -3.37 -5.91 a 111.87 111.87 0 0 0 -8.61 -7.86 q -6.79 -5.83 -9 -9.06 a 17.05 17.05 0 0 1 -3.29 -8.31 a 14.46 14.46 0 0 1 1.61 -8 a 16.08 16.08 0 0 1 6.5 -6.73 a 16.72 16.72 0 0 1 9.94 -2 a 29.9 29.9 0 0 1 11.29 3.36 a 31.49 31.49 0 0 1 10 7.66 a 17.76 17.76 0 0 1 4.3 9.68 a 19.17 19.17 0 0 1 -1.77 10.27 l -7.43 -3.1 q 2.16 -5.62 .23 -10 T 2162.36 93 q -6.75 -3.47 -11.1 -2.57 a 8.38 8.38 0 0 0 -6.15 4.39 a 7.22 7.22 0 0 0 -.37 6.1 c .78 2 3.82 5.3 9.17 9.75 s 8.88 7.79 10.61 10 a 19.25 19.25 0 0 1 4.31 9.42 a 15.66 15.66 0 0 1 -1.76 9.16 a 17.07 17.07 0 0 1 -6.89 7.13 a 18.88 18.88 0 0 1 -10.52 2.39 a 28.79 28.79 0 0 1 -11.95 -3.34 a 36.49 36.49 0 0 1 -11.62 -8.76 a 20 20 0 0 1 -4.64 -10.83 a 21.11 21.11 0 0 1 2.07 -11.67 Z m 58.15 55 l 30.09 -46.93 L 2194.24 111 l 4 -6.24 l 42.11 27 l -4 6.23 l -17.52 -11.23 l -30.09 46.93 l -7 -4.52 Z m 21 14 l 59.66 -31.88 l 6.95 6 l -21.92 64.58 l -7.18 -6.23 l 7 -19.25 L 2227.05 179 l -17.72 10 Z m 30.72 -7.7 l 16.27 14.09 L 2256.1 172 q 3 -8 5.21 -12.93 a 90.39 90.39 0 0 1 -10.59 6.91 Z M 2251 227.17 l 47.74 -41.36 l 5.62 6.49 l -15.77 57.51 L 2326 217.36 l 5.26 6.06 l -47.74 41.36 l -5.62 -6.49 l 15.77 -57.51 l -37.47 32.46 l -5.26 -6.06 Z m 48.71 63.57 l 46.93 -30.09 l -11.23 -17.53 l 6.24 -4 l 27 42.11 l -6.24 4 l -11.23 -17.53 l -46.94 30.1 l -4.52 -7.06 Z" fill="#fff" fill-rule="evenodd"/><path d="M 2279.25 749.58 L 2327 790.93 l -5.62 6.49 L 2262.2 790 l 37.47 32.46 l -5.26 6.07 l -47.74 -41.35 l 5.62 -6.49 l 59.17 7.4 L 2274 755.65 Z m -37.58 42.77 l 23 63.6 l -6.95 6 L 2197 831.07 l 7.19 -6.24 l 18.06 9.69 l 20.1 -17.41 l -7.35 -19 l 6.7 -5.8 Z m 3.25 31.5 L 2228.65 838 l 16.44 8.92 q 7.47 4.08 12 7 a 89.23 89.23 0 0 1 -5.32 -11.47 l -6.91 -18.55 Z m -53.85 10.37 l 34.08 53.17 l -7.23 4.64 l -54.65 -23.86 L 2190 909.91 l -6.76 4.33 l -34.08 -53.17 l 7.23 -4.64 l 54.65 23.86 l -26.76 -41.74 l 6.76 -4.33 Z m -40.78 61.16 q 5.76 14.61 1.16 26 t -17 16.26 a 30.3 30.3 0 0 1 -16.21 1.9 a 27.29 27.29 0 0 1 -14.23 -6.91 a 37.84 37.84 0 0 1 -9.64 -14.39 a 37.12 37.12 0 0 1 -2.68 -17.4 a 26.4 26.4 0 0 1 6 -14.69 a 31.35 31.35 0 0 1 12.85 -9.26 a 30 30 0 0 1 16.42 -1.84 a 27.67 27.67 0 0 1 14.21 7 a 35.61 35.61 0 0 1 9.14 13.32 Z m -8.1 3 Q 2138 887.82 2129.9 884 a 21.43 21.43 0 0 0 -28.74 11.39 q -3.22 8.39 1.24 19.72 a 32.31 32.31 0 0 0 7.34 11.54 a 20 20 0 0 0 10.35 5.48 a 20.7 20.7 0 0 0 11.64 -1.19 a 21.35 21.35 0 0 0 12 -11.25 q 3.72 -8 -1.49 -21.24 Z M 2033.6 923.8 l -8.64 -.18 q .24 -10.62 5.66 -17.41 a 26 26 0 0 1 15 -9 q 9.93 -2.28 17.09 .33 a 25.82 25.82 0 0 1 12.18 9.53 a 43.11 43.11 0 0 1 7 15.74 a 37.1 37.1 0 0 1 .2 17.6 a 25.75 25.75 0 0 1 -7.93 13.29 a 31.21 31.21 0 0 1 -14 7.15 q -9.24 2.13 -16.6 -1.12 a 25 25 0 0 1 -11.81 -11.18 l 7.55 -3.74 c 2.45 4.14 5.28 6.93 8.46 8.34 a 16.9 16.9 0 0 0 10.93 .7 a 20.32 20.32 0 0 0 11.05 -6.13 a 18.3 18.3 0 0 0 4.57 -10.66 a 37.79 37.79 0 0 0 -.79 -12.27 a 38.67 38.67 0 0 0 -5.44 -13.17 a 17.5 17.5 0 0 0 -9.11 -7.12 a 20.37 20.37 0 0 0 -11.08 -.49 a 17.9 17.9 0 0 0 -10.64 6.61 c -2.54 3.36 -3.78 7.75 -3.7 13.2 Z m -60 47.35 l -8.35 .63 l -2.77 -36.37 q -.72 -9.49 1 -15.25 a 18.57 18.57 0 0 1 7 -9.66 c 3.56 -2.62 8.35 -4.16 14.42 -4.62 c 5.88 -.45 10.78 .19 14.68 2 a 17.46 17.46 0 0 1 8.69 8.21 c 1.89 3.74 3.1 8.93 3.6 15.61 l 2.77 36.37 l -8.36 .63 l -2.77 -36.35 c -.41 -5.47 -1.23 -9.48 -2.44 -12 a 11.49 11.49 0 0 0 -5.68 -5.59 a 17.93 17.93 0 0 0 -9.2 -1.43 c -6.1 .46 -10.35 2.19 -12.73 5.16 s -3.27 8.42 -2.67 16.33 l 2.77 36.36 Z m -27.34 -63.07 l -4.79 63 l -27.92 -2.13 q -8.41 -.64 -12.66 -2.67 a 14.06 14.06 0 0 1 -6.54 -6.52 a 17.9 17.9 0 0 1 -1.89 -9.68 a 15.9 15.9 0 0 1 5.2 -11 c 3.12 -2.85 7.73 -4.44 13.83 -4.82 a 21.19 21.19 0 0 1 -4.79 -3.52 a 42.45 42.45 0 0 1 -6.26 -8.91 l -9.59 -18 l 10.41 .8 l 7.33 13.74 q 3.21 6 5.34 9.14 a 19 19 0 0 0 3.92 4.53 a 12.53 12.53 0 0 0 3.66 2 a 26.87 26.87 0 0 0 4.61 .65 l 9.65 .73 l 2.13 -28 l 8.35 .64 Z m -11 34.55 l -17.89 -1.37 a 26.58 26.58 0 0 0 -9 .51 a 9.35 9.35 0 0 0 -5.16 3.42 a 10.22 10.22 0 0 0 -2.09 5.51 a 9.45 9.45 0 0 0 2.66 7.61 q 3 3.12 10 3.65 l 19.91 1.51 l 1.59 -20.85 Z M 1883 901.14 l -14.21 61.55 l -27.27 -6.3 q -8.24 -1.9 -12.13 -4.55 a 14 14 0 0 1 -5.48 -7.42 a 17.92 17.92 0 0 1 -.41 -9.86 a 15.9 15.9 0 0 1 6.79 -10.06 q 5.28 -3.51 14.4 -2.68 a 21.24 21.24 0 0 1 -4.21 -4.21 a 42.54 42.54 0 0 1 -4.84 -9.74 l -6.77 -19.22 L 1839 891 l 5.18 14.68 c 1.51 4.26 2.82 7.54 3.9 9.85 a 19.47 19.47 0 0 0 3.19 5.07 a 13 13 0 0 0 3.34 2.49 a 25.07 25.07 0 0 0 4.46 1.33 l 9.42 2.18 l 6.31 -27.34 l 8.17 1.89 Z m -16.1 32.5 l -17.48 -4 a 26.65 26.65 0 0 0 -9 -.85 a 9.36 9.36 0 0 0 -5.61 2.59 a 10.24 10.24 0 0 0 -2.9 5.14 a 9.42 9.42 0 0 0 1.49 7.93 q 2.5 3.54 9.32 5.1 l 19.45 4.5 l 4.71 -20.37 Z m -45.71 -48.37 l -26 57.56 L 1753.58 924 l 3.05 -6.75 l 33.92 15.33 l 8 -17.69 l -31.75 -14.35 l 3 -6.75 l 31.75 14.35 l 8.86 -19.61 l -35.28 -16 l 3 -6.75 l 42.93 19.4 Z m -53.62 -23.87 l -34.08 53.17 l -7.23 -4.63 l -1.15 -59.62 l -26.75 41.73 l -6.76 -4.33 l 34.09 -53.17 l 7.23 4.63 l 1.14 59.63 l 26.75 -41.74 l 6.76 4.33 Z m -102 -47.55 l -5 -7.09 c 5.82 -4 11.61 -5.92 17.41 -5.67 s 11.17 2.52 16.14 6.82 q 7.71 6.68 9.81 14 a 25.86 25.86 0 0 1 -.53 15.45 a 43.25 43.25 0 0 1 -8.55 15 a 37.29 37.29 0 0 1 -14.11 10.53 a 25.83 25.83 0 0 1 -15.41 1.42 a 31.2 31.2 0 0 1 -14 -7.13 q -7.17 -6.21 -8.87 -14.07 a 25 25 0 0 1 2.07 -16.14 l 7.47 3.9 q -2.87 6.64 -1.76 11.76 a 16.94 16.94 0 0 0 5.88 9.25 a 20.45 20.45 0 0 0 11.45 5.32 a 18.43 18.43 0 0 0 11.32 -2.6 a 37.7 37.7 0 0 0 9.44 -7.87 a 38.6 38.6 0 0 0 7.43 -12.15 a 17.37 17.37 0 0 0 .38 -11.55 a 20.36 20.36 0 0 0 -6.13 -9.25 a 18 18 0 0 0 -11.61 -4.7 q -6.31 -.11 -12.84 4.79 Z M 1655 770.45 L 1634.81 788 l -11.57 42.24 l -6.58 -7.6 l 6.27 -22 c 1.16 -4.08 2.42 -8 3.81 -11.84 c -3.76 .71 -8.09 1.37 -13 2 l -22.07 2.94 l -6.38 -7.37 l 44 -4.77 l 20.22 -17.52 l 5.49 6.34 Z" fill="#fff" fill-rule="evenodd"/><rect fill="#fff" height="483.66" width="483.66" x="99.21" y="257.12"/><path id="Rectangle" d="M 111 259 a 10 10 0 0 0 -10 10 V 729 a 10 10 0 0 0 10 10 H 571 a 10 10 0 0 0 10 -10 V 269 a 10 10 0 0 0 -10 -10 Z m 0 -10 H 571 a 20 20 0 0 1 20 20 V 729 a 20 20 0 0 1 -20 20 H 111 a 20 20 0 0 1 -20 -20 V 269 A 20 20 0 0 1 111 249 Z" fill="url(#linear-gradient)"/><g isolation="isolate"><path d="M 202.7 202.75 h 13 a 10.3 10.3 0 0 1 7.16 2.32 a 9.48 9.48 0 0 1 0 13 q -2.55 2.33 -7.16 2.32 h -6.72 V 231 H 202.7 Z m 12.16 12.88 c 3.12 0 4.68 -1.34 4.68 -4 a 3.84 3.84 0 0 0 -1.16 -3.08 a 5.3 5.3 0 0 0 -3.52 -1 h -5.92 v 8.12 Z" fill="#2677ff"/><path d="M 253.86 231 h -6.8 l -4.88 -9 a 3.87 3.87 0 0 0 -1.44 -1.5 a 4.44 4.44 0 0 0 -2.12 -.46 h -3.08 v 11 h -6.16 v -28.2 h 13 q 5 0 7.5 2.18 a 7.84 7.84 0 0 1 2.54 6.3 a 8.12 8.12 0 0 1 -1.78 5.36 a 8.48 8.48 0 0 1 -5 2.84 a 6.2 6.2 0 0 1 3.72 3.16 Z m -8.56 -16.62 a 4.23 4.23 0 0 0 0 -5.9 a 6.46 6.46 0 0 0 -3.88 -.92 h -6 v 7.76 h 6 A 6.3 6.3 0 0 0 245.3 214.33 Z" fill="#2677ff"/><path d="M 257.38 231 v -28.2 h 6.24 V 231 Z" fill="#2677ff"/><path d="M 289.82 202.75 h 6.32 L 283.46 231 h -5 l -12.72 -28.2 h 6.48 l 8.8 20.44 Z" fill="#2677ff"/><path d="M 317 231 l -2.68 -6.24 H 301.18 L 298.5 231 h -6.28 l 13 -28.2 h 5 l 13 28.2 Z m -13.76 -11 h 9 l -4.52 -10.56 Z" fill="#2677ff"/><path d="M 328.38 231 V 207.83 h -8.84 v -5.08 h 23.92 v 5.08 h -8.84 V 231 Z" fill="#2677ff"/><path d="M 346.7 231 v -28.2 h 19.44 v 4.84 H 352.78 v 6.6 h 12.56 V 219 H 352.78 v 7.08 h 13.36 V 231 Z" fill="#2677ff"/><path d="M 385.22 230.45 a 14.47 14.47 0 0 1 -4.92 -2.38 l 2 -4.44 a 15.61 15.61 0 0 0 9.16 2.84 a 7.83 7.83 0 0 0 4.06 -.86 a 2.64 2.64 0 0 0 1.42 -2.38 a 2.35 2.35 0 0 0 -1.3 -2.12 a 17.72 17.72 0 0 0 -4.62 -1.48 a 25.28 25.28 0 0 1 -5.94 -1.84 a 7.71 7.71 0 0 1 -3.24 -2.66 a 7 7 0 0 1 -1 -3.9 a 7.69 7.69 0 0 1 1.42 -4.56 a 9.49 9.49 0 0 1 4 -3.14 a 14.44 14.44 0 0 1 5.92 -1.14 a 19.23 19.23 0 0 1 5.78 .88 a 12 12 0 0 1 4.42 2.36 l -2 4.44 a 13.64 13.64 0 0 0 -8.16 -2.84 a 6.86 6.86 0 0 0 -3.84 .94 a 3 3 0 0 0 -1.4 2.58 a 2.31 2.31 0 0 0 .54 1.58 a 4.41 4.41 0 0 0 1.8 1.1 a 26.33 26.33 0 0 0 3.58 1 c 3.63 .8 6.23 1.83 7.82 3.08 a 6.26 6.26 0 0 1 2.38 5.2 A 7.44 7.44 0 0 1 400 229 c -2.05 1.54 -4.92 2.3 -8.6 2.3 A 21.73 21.73 0 0 1 385.22 230.45 Z" fill="#2677ff"/><path d="M 407.5 231 v -28.2 h 19.44 v 4.84 H 413.58 v 6.6 h 12.56 V 219 H 413.58 v 7.08 h 13.36 V 231 Z" fill="#2677ff"/><path d="M 431.18 231 v -28.2 h 19.44 v 4.84 H 437.26 v 6.6 h 12.56 V 219 H 437.26 v 7.08 h 13.36 V 231 Z" fill="#2677ff"/><path d="M 454.86 202.75 h 11 a 17.34 17.34 0 0 1 7.92 1.68 a 11.77 11.77 0 0 1 5.08 4.84 a 15.36 15.36 0 0 1 1.76 7.56 a 15.55 15.55 0 0 1 -1.74 7.58 a 11.6 11.6 0 0 1 -5.06 4.86 a 17.45 17.45 0 0 1 -8 1.68 h -11 Z m 10.52 23.16 q 9 0 9 -9.08 t -9 -9 H 461.1 v 18.12 Z" fill="#2677ff"/></g><g id="DO-NOT-SHARE-THIS-WI" isolation="isolate"><g isolation="isolate"><path d="M 103.76 772.62 h 7.12 a 11.38 11.38 0 0 1 5.15 1.09 a 7.61 7.61 0 0 1 3.3 3.15 a 9.88 9.88 0 0 1 1.15 4.91 a 10.17 10.17 0 0 1 -1.13 4.93 a 7.56 7.56 0 0 1 -3.29 3.16 a 11.35 11.35 0 0 1 -5.18 1.09 h -7.12 Z m 6.84 15.06 q 5.85 0 5.85 -5.91 t -5.85 -5.87 h -2.78 v 11.78 Z" fill="#2677ff"/><path d="M 127.25 790 a 7.82 7.82 0 0 1 -3.11 -3.28 a 11.92 11.92 0 0 1 0 -10 a 7.77 7.77 0 0 1 3.11 -3.26 a 10.45 10.45 0 0 1 9.49 0 a 7.77 7.77 0 0 1 3.11 3.26 a 11.92 11.92 0 0 1 0 10 a 7.82 7.82 0 0 1 -3.11 3.28 a 10.28 10.28 0 0 1 -9.49 0 Z m 8.35 -3.6 a 8.94 8.94 0 0 0 0 -9.3 a 4.87 4.87 0 0 0 -7.22 0 a 9 9 0 0 0 0 9.3 A 4.36 4.36 0 0 0 132 788 A 4.42 4.42 0 0 0 135.6 786.43 Z" fill="#2677ff"/><path d="M 163.35 772.62 h 3.8 V 791 h -3 L 155 779.28 V 791 h -3.76 V 772.62 h 3 l 9.12 11.62 Z" fill="#2677ff"/><path d="M 174.44 790 a 7.82 7.82 0 0 1 -3.11 -3.28 a 11.92 11.92 0 0 1 0 -10 a 7.77 7.77 0 0 1 3.11 -3.26 a 10.45 10.45 0 0 1 9.49 0 a 7.77 7.77 0 0 1 3.11 3.26 a 11.92 11.92 0 0 1 0 10 a 7.82 7.82 0 0 1 -3.11 3.28 a 10.28 10.28 0 0 1 -9.49 0 Z m 8.35 -3.6 a 8.94 8.94 0 0 0 0 -9.3 a 4.87 4.87 0 0 0 -7.22 0 a 9 9 0 0 0 0 9.3 a 4.36 4.36 0 0 0 3.59 1.61 A 4.42 4.42 0 0 0 182.79 786.43 Z" fill="#2677ff"/><path d="M 194.4 791 v -15 h -5.75 v -3.3 H 204.2 v 3.3 h -5.75 v 15 Z" fill="#2677ff"/><path d="M 216 790.63 a 9.64 9.64 0 0 1 -3.2 -1.55 l 1.3 -2.89 A 10.18 10.18 0 0 0 220 788 a 5.13 5.13 0 0 0 2.64 -.56 a 1.73 1.73 0 0 0 .93 -1.55 a 1.51 1.51 0 0 0 -.85 -1.37 a 11.42 11.42 0 0 0 -3 -1 a 16.59 16.59 0 0 1 -3.86 -1.19 a 5.11 5.11 0 0 1 -2.11 -1.73 a 4.61 4.61 0 0 1 -.66 -2.54 a 5 5 0 0 1 .92 -3 a 6.13 6.13 0 0 1 2.59 -2 a 9.28 9.28 0 0 1 3.85 -.74 a 12.35 12.35 0 0 1 3.75 .57 a 7.68 7.68 0 0 1 2.88 1.53 l -1.3 2.89 a 8.85 8.85 0 0 0 -5.31 -1.85 a 4.37 4.37 0 0 0 -2.49 .62 a 1.89 1.89 0 0 0 -.91 1.67 a 1.48 1.48 0 0 0 .35 1 a 2.76 2.76 0 0 0 1.17 .71 a 16.6 16.6 0 0 0 2.32 .65 a 12.85 12.85 0 0 1 5.09 2 a 4.06 4.06 0 0 1 1.54 3.38 a 4.82 4.82 0 0 1 -2 4.09 a 9.15 9.15 0 0 1 -5.59 1.5 A 14.37 14.37 0 0 1 216 790.63 Z" fill="#2677ff"/><path d="M 242.86 772.62 h 4 V 791 h -4 v -7.69 h -8.45 V 791 h -4 V 772.62 h 4 V 780 h 8.45 Z" fill="#2677ff"/><path d="M 264.44 791 l -1.74 -4.05 h -8.53 L 252.43 791 h -4.09 l 8.43 -18.33 H 260 L 268.44 791 Z m -8.95 -7.12 h 5.88 L 258.43 777 Z" fill="#2677ff"/><path d="M 285.86 791 h -4.42 l -3.17 -5.85 a 2.44 2.44 0 0 0 -.94 -1 a 2.81 2.81 0 0 0 -1.37 -.3 h -2 V 791 h -4 V 772.62 h 8.42 a 7.29 7.29 0 0 1 4.88 1.42 a 5.09 5.09 0 0 1 1.65 4.09 a 5.32 5.32 0 0 1 -1.16 3.49 a 5.54 5.54 0 0 1 -3.26 1.84 a 4.06 4.06 0 0 1 2.42 2.06 Z m -5.56 -10.8 a 2.75 2.75 0 0 0 0 -3.84 a 4.25 4.25 0 0 0 -2.52 -.59 H 273.9 v 5 h 3.88 A 4.09 4.09 0 0 0 280.3 780.15 Z" fill="#2677ff"/><path d="M 288.15 791 V 772.62 h 12.64 v 3.15 H 292.1 v 4.29 h 8.17 v 3.14 H 292.1 v 4.61 h 8.69 V 791 Z" fill="#2677ff"/><path d="M 315 791 v -15 h -5.75 v -3.3 h 15.55 v 3.3 h -5.75 v 15 Z" fill="#2677ff"/><path d="M 339.34 772.62 h 4 V 791 h -4 v -7.69 h -8.45 V 791 h -4 V 772.62 h 4 V 780 h 8.45 Z" fill="#2677ff"/><path d="M 346.93 791 V 772.62 H 351 V 791 Z" fill="#2677ff"/><path d="M 357 790.63 a 9.49 9.49 0 0 1 -3.19 -1.55 l 1.29 -2.89 a 10.21 10.21 0 0 0 6 1.85 a 5.18 5.18 0 0 0 2.64 -.56 a 1.74 1.74 0 0 0 .92 -1.55 a 1.52 1.52 0 0 0 -.84 -1.37 a 11.66 11.66 0 0 0 -3 -1 a 16.59 16.59 0 0 1 -3.86 -1.19 a 5.07 5.07 0 0 1 -2.1 -1.73 a 4.54 4.54 0 0 1 -.67 -2.54 a 5 5 0 0 1 .93 -3 a 6 6 0 0 1 2.58 -2 a 9.28 9.28 0 0 1 3.85 -.74 a 12.46 12.46 0 0 1 3.76 .57 a 7.71 7.71 0 0 1 2.87 1.53 l -1.3 2.89 a 8.85 8.85 0 0 0 -5.3 -1.85 a 4.42 4.42 0 0 0 -2.5 .62 a 1.89 1.89 0 0 0 -.91 1.67 a 1.53 1.53 0 0 0 .35 1 a 2.9 2.9 0 0 0 1.17 .71 a 16.81 16.81 0 0 0 2.33 .65 a 12.79 12.79 0 0 1 5.08 2 a 4.07 4.07 0 0 1 1.55 3.38 a 4.84 4.84 0 0 1 -2 4.09 a 9.17 9.17 0 0 1 -5.59 1.5 A 14.44 14.44 0 0 1 357 790.63 Z" fill="#2677ff"/><path d="M 401.59 772.62 h 3.84 L 398.91 791 h -3.25 l -4.24 -12.14 L 387.13 791 h -3.25 l -6.5 -18.33 h 4.11 l 4.18 12.66 l 4.45 -12.66 H 393 l 4.29 12.79 Z" fill="#2677ff"/><path d="M 407.7 791 V 772.62 h 4.05 V 791 Z" fill="#2677ff"/><path d="M 419.6 791 v -15 h -5.74 v -3.3 h 15.55 v 3.3 h -5.75 v 15 Z" fill="#2677ff"/><path d="M 443.94 772.62 h 4 V 791 h -4 v -7.69 h -8.45 V 791 h -4 V 772.62 h 4 V 780 h 8.45 Z" fill="#2677ff"/><path d="M 472.75 791 L 471 786.9 h -8.53 L 460.74 791 h -4.09 l 8.43 -18.33 h 3.25 L 476.75 791 Z m -8.95 -7.12 h 5.88 L 466.74 777 Z" fill="#2677ff"/><path d="M 490.37 772.62 h 3.8 V 791 h -3 L 482 779.28 V 791 h -3.77 V 772.62 h 3 l 9.12 11.62 Z" fill="#2677ff"/><path d="M 513.85 772.62 l -7.59 10 V 791 h -4.05 v -8.29 l -7.57 -10 h 4.6 l 5 6.79 l 5 -6.79 Z" fill="#2677ff"/><path d="M 516.93 790 a 7.74 7.74 0 0 1 -3.1 -3.28 a 11.82 11.82 0 0 1 0 -10 a 7.69 7.69 0 0 1 3.1 -3.26 a 10.45 10.45 0 0 1 9.49 0 a 7.71 7.71 0 0 1 3.11 3.26 a 11.92 11.92 0 0 1 0 10 a 7.76 7.76 0 0 1 -3.11 3.28 a 10.28 10.28 0 0 1 -9.49 0 Z m 8.35 -3.6 a 8.94 8.94 0 0 0 0 -9.3 a 4.86 4.86 0 0 0 -7.21 0 a 9 9 0 0 0 0 9.3 a 4.37 4.37 0 0 0 3.59 1.61 A 4.42 4.42 0 0 0 525.28 786.43 Z" fill="#2677ff"/><path d="M 545.81 772.62 h 3.79 V 791 h -3 l -9.13 -11.67 V 791 h -3.77 V 772.62 h 3 l 9.13 11.62 Z" fill="#2677ff"/><path d="M 553.22 791 V 772.62 h 12.63 v 3.15 h -8.68 v 4.29 h 8.16 v 3.14 h -8.16 v 4.61 h 8.68 V 791 Z" fill="#2677ff"/><path d="M 576.2 785 L 575 772.6 l 4.83 0 L 578.57 785 Z m -.91 1.77 h 4.21 V 791 h -4.21 Z" fill="#2677ff"/></g></g><rect fill="#fff" height="483.66" width="483.66" x="3134.84" y="258.37"/><path d="M 3146.67 260.2 a 10 10 0 0 0 -10 10 v 460 a 10 10 0 0 0 10 10 h 460 a 10 10 0 0 0 10 -10 v -460 a 10 10 0 0 0 -10 -10 Z m 0 -10 h 460 a 20 20 0 0 1 20 20 v 460 a 20 20 0 0 1 -20 20 h -460 a 20 20 0 0 1 -20 -20 v -460 A 20 20 0 0 1 3146.67 250.2 Z" fill="url(#linear-gradient-2)"/><g id="PUBLIC-ADDRESS" isolation="isolate"><g isolation="isolate"><path d="M 3204.25 197.25 h 13 a 10.3 10.3 0 0 1 7.16 2.32 a 9.48 9.48 0 0 1 0 13 q -2.55 2.33 -7.16 2.32 h -6.72 v 10.6 h -6.24 Z m 12.16 12.88 c 3.12 0 4.68 -1.34 4.68 -4 a 3.84 3.84 0 0 0 -1.16 -3.08 a 5.3 5.3 0 0 0 -3.52 -1 h -5.92 v 8.12 Z" fill="#2677ff"/><path d="M 3233.87 222.75 q -3.09 -3.06 -3.1 -8.94 V 197.25 h 6.12 v 16.84 a 7.58 7.58 0 0 0 1.54 5.12 a 6.53 6.53 0 0 0 8.94 0 a 7.48 7.48 0 0 0 1.56 -5.1 V 197.25 h 6.12 v 16.56 q 0 5.85 -3.12 8.92 t -9 3.08 Q 3237 225.81 3233.87 222.75 Z" fill="#2677ff"/><path d="M 3282.35 213.35 a 7 7 0 0 1 1.34 4.38 a 6.79 6.79 0 0 1 -2.62 5.64 a 11.28 11.28 0 0 1 -7.22 2.08 h -13.4 v -28.2 h 13 a 11.3 11.3 0 0 1 7 2 a 6.38 6.38 0 0 1 2.58 5.36 a 6.45 6.45 0 0 1 -1.18 3.86 a 6.6 6.6 0 0 1 -3.26 2.42 A 7.08 7.08 0 0 1 3282.35 213.35 Z m -15.82 -4.62 h 5.88 a 6.08 6.08 0 0 0 3.54 -.82 a 2.87 2.87 0 0 0 1.14 -2.5 a 3 3 0 0 0 -1.14 -2.58 a 6.16 6.16 0 0 0 -3.54 -.82 h -5.88 Z m 10.2 11.12 a 3.16 3.16 0 0 0 1.12 -2.72 a 3.29 3.29 0 0 0 -1.12 -2.76 a 5.87 5.87 0 0 0 -3.6 -.88 h -6.6 v 7.2 h 6.6 A 6 6 0 0 0 3276.73 219.85 Z" fill="#2677ff"/><path d="M 3288 225.45 v -28.2 h 6.24 v 23.12 h 12.6 v 5.08 Z" fill="#2677ff"/><path d="M 3310.45 225.45 v -28.2 h 6.24 v 28.2 Z" fill="#2677ff"/><path d="M 3328 224 a 12.14 12.14 0 0 1 -4.88 -5.08 a 17.84 17.84 0 0 1 0 -15.2 a 12.09 12.09 0 0 1 4.88 -5.06 a 15.11 15.11 0 0 1 7.46 -1.78 a 16.77 16.77 0 0 1 5.36 .86 a 11.53 11.53 0 0 1 4.2 2.38 l -2 4.44 a 13.46 13.46 0 0 0 -3.66 -2 a 11.45 11.45 0 0 0 -3.78 -.64 a 7.15 7.15 0 0 0 -5.78 2.4 c -1.34 1.6 -2 4 -2 7 s .68 5.45 2 7.06 a 7.1 7.1 0 0 0 5.78 2.42 a 11.2 11.2 0 0 0 3.78 -.64 a 12.94 12.94 0 0 0 3.66 -2 l 2 4.44 a 11.25 11.25 0 0 1 -4.2 2.38 a 16.49 16.49 0 0 1 -5.36 .86 A 14.9 14.9 0 0 1 3328 224 Z" fill="#2677ff"/><path d="M 3382 225.45 l -2.68 -6.24 h -13.12 l -2.68 6.24 h -6.28 l 13 -28.2 h 5 l 13 28.2 Z m -13.76 -11 h 9 l -4.52 -10.56 Z" fill="#2677ff"/><path d="M 3390.45 197.25 h 11 a 17.34 17.34 0 0 1 7.92 1.68 a 11.77 11.77 0 0 1 5.08 4.84 a 15.36 15.36 0 0 1 1.76 7.56 a 15.55 15.55 0 0 1 -1.74 7.58 a 11.6 11.6 0 0 1 -5.06 4.86 a 17.45 17.45 0 0 1 -8 1.68 h -11 Z M 3401 220.41 q 9 0 9 -9.08 t -9 -9 h -4.28 v 18.12 Z" fill="#2677ff"/><path d="M 3420.93 197.25 h 11 a 17.34 17.34 0 0 1 7.92 1.68 a 11.77 11.77 0 0 1 5.08 4.84 a 15.36 15.36 0 0 1 1.76 7.56 a 15.55 15.55 0 0 1 -1.74 7.58 a 11.6 11.6 0 0 1 -5.06 4.86 a 17.45 17.45 0 0 1 -8 1.68 h -11 Z m 10.52 23.16 q 9 0 9 -9.08 t -9 -9 h -4.28 v 18.12 Z" fill="#2677ff"/><path d="M 3475.89 225.45 h -6.8 l -4.88 -9 a 3.87 3.87 0 0 0 -1.44 -1.5 a 4.46 4.46 0 0 0 -2.12 -.46 h -3.08 v 11 h -6.16 v -28.2 h 13 q 5 0 7.5 2.18 a 7.88 7.88 0 0 1 2.54 6.3 a 8.12 8.12 0 0 1 -1.78 5.36 a 8.51 8.51 0 0 1 -5 2.84 a 6.2 6.2 0 0 1 3.72 3.16 Z m -8.56 -16.62 a 4.23 4.23 0 0 0 0 -5.9 a 6.46 6.46 0 0 0 -3.88 -.92 h -6 v 7.76 h 6 A 6.3 6.3 0 0 0 3467.33 208.83 Z" fill="#2677ff"/><path d="M 3479.41 225.45 v -28.2 h 19.44 v 4.84 h -13.36 v 6.6 h 12.56 v 4.84 h -12.56 v 7.08 h 13.36 v 4.84 Z" fill="#2677ff"/><path d="M 3506.41 225 a 14.47 14.47 0 0 1 -4.92 -2.38 l 2 -4.44 a 15.61 15.61 0 0 0 9.16 2.84 a 7.83 7.83 0 0 0 4.06 -.86 a 2.64 2.64 0 0 0 1.42 -2.38 a 2.35 2.35 0 0 0 -1.3 -2.12 a 17.72 17.72 0 0 0 -4.62 -1.48 a 25.28 25.28 0 0 1 -5.94 -1.84 a 7.71 7.71 0 0 1 -3.24 -2.66 a 7 7 0 0 1 -1 -3.9 a 7.69 7.69 0 0 1 1.42 -4.56 a 9.49 9.49 0 0 1 4 -3.14 a 14.44 14.44 0 0 1 5.92 -1.14 a 19.23 19.23 0 0 1 5.78 .88 a 12 12 0 0 1 4.42 2.36 l -2 4.44 a 13.64 13.64 0 0 0 -8.16 -2.84 a 6.86 6.86 0 0 0 -3.84 .94 a 3 3 0 0 0 -1.4 2.58 a 2.31 2.31 0 0 0 .54 1.58 a 4.41 4.41 0 0 0 1.8 1.1 a 26.33 26.33 0 0 0 3.58 1 c 3.63 .8 6.23 1.83 7.82 3.08 a 6.26 6.26 0 0 1 2.38 5.2 a 7.44 7.44 0 0 1 -3.08 6.3 c -2.05 1.54 -4.92 2.3 -8.6 2.3 A 21.73 21.73 0 0 1 3506.41 225 Z" fill="#2677ff"/><path d="M 3532.41 225 a 14.38 14.38 0 0 1 -4.92 -2.38 l 2 -4.44 a 15.61 15.61 0 0 0 9.16 2.84 a 7.83 7.83 0 0 0 4.06 -.86 a 2.64 2.64 0 0 0 1.42 -2.38 a 2.35 2.35 0 0 0 -1.3 -2.12 a 17.72 17.72 0 0 0 -4.62 -1.48 a 25.28 25.28 0 0 1 -5.94 -1.84 a 7.71 7.71 0 0 1 -3.24 -2.66 a 7 7 0 0 1 -1 -3.9 a 7.69 7.69 0 0 1 1.42 -4.56 a 9.43 9.43 0 0 1 4 -3.14 a 14.44 14.44 0 0 1 5.92 -1.14 a 19.28 19.28 0 0 1 5.78 .88 a 12.07 12.07 0 0 1 4.42 2.36 l -2 4.44 a 13.64 13.64 0 0 0 -8.16 -2.84 a 6.86 6.86 0 0 0 -3.84 .94 a 2.94 2.94 0 0 0 -1.4 2.58 a 2.31 2.31 0 0 0 .54 1.58 a 4.41 4.41 0 0 0 1.8 1.1 a 26.33 26.33 0 0 0 3.58 1 q 5.43 1.2 7.82 3.08 a 6.26 6.26 0 0 1 2.38 5.2 a 7.44 7.44 0 0 1 -3.08 6.3 c -2.05 1.54 -4.92 2.3 -8.6 2.3 A 21.68 21.68 0 0 1 3532.41 225 Z" fill="#2677ff"/></g></g><path id="nanopaperwallet.com" d="M 3146 910.15 c 2.93 0 5.12 .83 6.55 2.5 s 2.15 4.18 2.15 7.55 v 15 h -6.25 V 920.55 a 6.47 6.47 0 0 0 -1.08 -4.15 a 4.11 4.11 0 0 0 -3.37 -1.3 a 5.74 5.74 0 0 0 -4.33 1.7 a 6.32 6.32 0 0 0 -1.62 4.55 V 935.2 h -6.25 V 910.75 h 6.1 v 3.65 a 8.39 8.39 0 0 1 3.35 -3.15 A 10.11 10.11 0 0 1 3146 910.15 Z m 25.46 0 q 5.14 0 7.65 2.5 c 1.67 1.67 2.5 4.23 2.5 7.7 V 935.2 h -6 v -3.75 a 6.55 6.55 0 0 1 -2.67 3 a 8.08 8.08 0 0 1 -4.23 1.1 a 9.77 9.77 0 0 1 -4.45 -1 a 8 8 0 0 1 -3.15 -2.75 a 6.94 6.94 0 0 1 -1.15 -3.9 a 6.16 6.16 0 0 1 1.38 -4.25 a 8.25 8.25 0 0 1 4.47 -2.25 a 40.57 40.57 0 0 1 8.55 -.7 h 1.25 V 919.6 a 5 5 0 0 0 -1.07 -3.6 a 4.88 4.88 0 0 0 -3.58 -1.1 a 13.4 13.4 0 0 0 -4.07 .68 a 20.62 20.62 0 0 0 -4.18 1.87 l -1.75 -4.3 a 21.43 21.43 0 0 1 10.45 -3 Z m -1.45 21 a 5.37 5.37 0 0 0 4.08 -1.67 a 6.07 6.07 0 0 0 1.57 -4.33 v -1.05 h -.9 a 34.49 34.49 0 0 0 -5.2 .3 a 5 5 0 0 0 -2.65 1 a 2.68 2.68 0 0 0 -.8 2.05 a 3.46 3.46 0 0 0 1.1 2.63 A 4 4 0 0 0 3170.05 931.1 Z m 32.06 -21 q 4.41 0 6.55 2.5 c 1.44 1.67 2.15 4.18 2.15 7.55 v 15 h -6.25 V 920.55 a 6.53 6.53 0 0 0 -1.07 -4.15 a 4.13 4.13 0 0 0 -3.38 -1.3 a 5.7 5.7 0 0 0 -4.32 1.7 a 6.28 6.28 0 0 0 -1.63 4.55 V 935.2 h -6.25 V 910.75 h 6.1 v 3.65 a 8.45 8.45 0 0 1 3.35 -3.15 A 10.14 10.14 0 0 1 3202.11 910.15 Z m 26.12 25.45 a 13.5 13.5 0 0 1 -6.58 -1.55 a 10.71 10.71 0 0 1 -4.37 -4.45 a 14 14 0 0 1 -1.55 -6.75 a 13.84 13.84 0 0 1 1.55 -6.72 a 10.72 10.72 0 0 1 4.37 -4.43 a 14.72 14.72 0 0 1 13.15 0 a 10.62 10.62 0 0 1 4.35 4.43 a 14.06 14.06 0 0 1 1.53 6.72 a 14.24 14.24 0 0 1 -1.53 6.75 a 10.61 10.61 0 0 1 -4.35 4.45 A 13.46 13.46 0 0 1 3228.23 935.6 Z m -.05 -4.85 a 5.59 5.59 0 0 0 4.64 -2 a 11.56 11.56 0 0 0 0 -11.77 a 5.49 5.49 0 0 0 -4.59 -2 a 5.6 5.6 0 0 0 -4.63 2 a 9.2 9.2 0 0 0 -1.62 5.87 a 9.33 9.33 0 0 0 1.59 5.9 A 5.58 5.58 0 0 0 3228.18 930.75 Z m 31.61 -20.6 a 10.09 10.09 0 0 1 5.62 1.6 a 10.6 10.6 0 0 1 3.85 4.53 a 15.58 15.58 0 0 1 1.38 6.72 a 15.11 15.11 0 0 1 -1.38 6.65 a 10.08 10.08 0 0 1 -9.47 6 a 9.68 9.68 0 0 1 -4.65 -1.1 a 7.66 7.66 0 0 1 -3.15 -3 V 944.2 h -6.25 V 910.75 h 6.15 v 3.7 a 7.63 7.63 0 0 1 3.17 -3.17 A 9.78 9.78 0 0 1 3259.79 910.15 Z m -1.65 20.6 a 5.61 5.61 0 0 0 4.6 -2 a 8.85 8.85 0 0 0 1.65 -5.73 a 9.35 9.35 0 0 0 -1.65 -5.9 a 6.17 6.17 0 0 0 -9.23 -.05 a 9.26 9.26 0 0 0 -1.62 5.85 a 9.16 9.16 0 0 0 1.62 5.8 A 5.57 5.57 0 0 0 3258.14 930.75 Z m 28.06 -20.6 q 5.15 0 7.65 2.5 c 1.67 1.67 2.5 4.23 2.5 7.7 V 935.2 h -5.95 v -3.75 a 6.52 6.52 0 0 1 -2.68 3 a 8 8 0 0 1 -4.22 1.1 a 9.77 9.77 0 0 1 -4.45 -1 a 8 8 0 0 1 -3.15 -2.75 a 6.94 6.94 0 0 1 -1.15 -3.9 a 6.2 6.2 0 0 1 1.37 -4.25 a 8.33 8.33 0 0 1 4.48 -2.25 a 40.57 40.57 0 0 1 8.55 -.7 h 1.25 V 919.6 a 5 5 0 0 0 -1.08 -3.6 a 4.84 4.84 0 0 0 -3.57 -1.1 a 13.51 13.51 0 0 0 -4.08 .68 a 20.79 20.79 0 0 0 -4.17 1.87 l -1.75 -4.3 a 21.43 21.43 0 0 1 10.45 -3 Z m -1.45 21 a 5.34 5.34 0 0 0 4.07 -1.67 a 6.07 6.07 0 0 0 1.58 -4.33 v -1.05 h -.9 a 34.49 34.49 0 0 0 -5.2 .3 a 5 5 0 0 0 -2.65 1 a 2.68 2.68 0 0 0 -.8 2.05 a 3.46 3.46 0 0 0 1.1 2.63 A 4 4 0 0 0 3284.75 931.1 Z m 31.91 -21 a 10.12 10.12 0 0 1 5.63 1.6 a 10.67 10.67 0 0 1 3.85 4.53 a 15.72 15.72 0 0 1 1.37 6.72 a 15.25 15.25 0 0 1 -1.37 6.65 a 10.11 10.11 0 0 1 -9.48 6 a 9.74 9.74 0 0 1 -4.65 -1.1 a 7.66 7.66 0 0 1 -3.15 -3 V 944.2 h -6.25 V 910.75 h 6.15 v 3.7 a 7.59 7.59 0 0 1 3.18 -3.17 A 9.72 9.72 0 0 1 3316.66 910.15 Z m -1.65 20.6 a 5.6 5.6 0 0 0 4.6 -2 a 8.85 8.85 0 0 0 1.65 -5.73 a 9.35 9.35 0 0 0 -1.65 -5.9 a 6.16 6.16 0 0 0 -9.22 -.05 a 9.2 9.2 0 0 0 -1.63 5.85 a 9.1 9.1 0 0 0 1.63 5.8 A 5.54 5.54 0 0 0 3315 930.75 Z m 39 -6.65 h -16.65 a 7.63 7.63 0 0 0 2.05 5 a 7 7 0 0 0 5 1.65 a 11.8 11.8 0 0 0 7.4 -2.6 l 1.8 4.3 a 13.26 13.26 0 0 1 -4.27 2.25 a 16.34 16.34 0 0 1 -5.18 .85 q -6 0 -9.47 -3.4 t -3.48 -9.3 a 14.26 14.26 0 0 1 1.5 -6.65 a 10.94 10.94 0 0 1 4.23 -4.5 a 11.9 11.9 0 0 1 6.17 -1.6 a 10.18 10.18 0 0 1 8 3.25 q 2.93 3.26 2.92 9 Z m -10.75 -9.55 a 5.28 5.28 0 0 0 -4 1.6 a 7.81 7.81 0 0 0 -1.88 4.6 h 11.3 a 7 7 0 0 0 -1.5 -4.62 A 4.94 4.94 0 0 0 3343.27 914.55 Z m 31.86 .8 l -3.65 .35 q -6.2 .64 -6.2 6.3 v 13.2 H 3359 V 910.75 H 3365 v 4.3 q 1.91 -4.39 7.85 -4.8 l 1.9 -.15 Z m 37.47 -4.6 h 6.1 l -9.6 24.45 h -5.45 l -6 -15.75 l -5.85 15.75 h -5.4 l -9.65 -24.45 h 6.4 l 6.25 17 l 6.25 -17 h 4.5 l 6.25 17.1 Z m 19.86 -.6 q 5.14 0 7.65 2.5 c 1.66 1.67 2.5 4.23 2.5 7.7 V 935.2 h -6 v -3.75 a 6.52 6.52 0 0 1 -2.68 3 a 8 8 0 0 1 -4.22 1.1 a 9.74 9.74 0 0 1 -4.45 -1 a 7.83 7.83 0 0 1 -3.15 -2.75 A 6.94 6.94 0 0 1 3421 928 a 6.2 6.2 0 0 1 1.37 -4.25 a 8.33 8.33 0 0 1 4.48 -2.25 a 40.44 40.44 0 0 1 8.55 -.7 h 1.25 V 919.6 a 5 5 0 0 0 -1.08 -3.6 a 4.86 4.86 0 0 0 -3.57 -1.1 a 13.51 13.51 0 0 0 -4.08 .68 a 20.55 20.55 0 0 0 -4.17 1.87 l -1.75 -4.3 a 21.43 21.43 0 0 1 10.45 -3 Z m -1.45 21 a 5.36 5.36 0 0 0 4.07 -1.67 a 6.07 6.07 0 0 0 1.58 -4.33 v -1.05 h -.9 a 34.4 34.4 0 0 0 -5.2 .3 a 5 5 0 0 0 -2.65 1 a 2.65 2.65 0 0 0 -.8 2.05 a 3.42 3.42 0 0 0 1.1 2.63 A 3.94 3.94 0 0 0 3431 931.1 Z m 17.86 4.1 V 900 h 6.25 V 935.2 Z m 12.61 0 V 900 h 6.25 V 935.2 Z m 34.06 -11.1 h -16.65 a 7.63 7.63 0 0 0 2.05 5 a 7 7 0 0 0 5 1.65 a 11.8 11.8 0 0 0 7.4 -2.6 l 1.8 4.3 a 13.26 13.26 0 0 1 -4.27 2.25 a 16.34 16.34 0 0 1 -5.18 .85 q -6 0 -9.47 -3.4 t -3.48 -9.3 a 14.26 14.26 0 0 1 1.5 -6.65 a 10.94 10.94 0 0 1 4.23 -4.5 a 11.9 11.9 0 0 1 6.17 -1.6 a 10.18 10.18 0 0 1 8 3.25 q 2.93 3.26 2.92 9 Z m -10.75 -9.55 a 5.28 5.28 0 0 0 -4 1.6 a 7.81 7.81 0 0 0 -1.88 4.6 h 11.3 a 7 7 0 0 0 -1.5 -4.62 A 4.94 4.94 0 0 0 3484.79 914.55 Z m 27.91 16.35 a 18.48 18.48 0 0 0 2.3 -.15 l -.3 4.65 c -1 .1 -1.91 .15 -2.75 .15 q -5.14 0 -7.6 -2.37 t -2.45 -7.08 V 915.45 h -4.7 v -4.7 h 4.7 v -7.3 h 6.25 v 7.3 h 6.45 v 4.7 h -6.45 V 926 Q 3508.15 930.91 3512.7 930.9 Z m 6.32 -2.6 h 7 v 6.9 h -7 Z m 23.36 7.3 a 13.74 13.74 0 0 1 -6.68 -1.55 a 10.47 10.47 0 0 1 -4.32 -4.4 a 15.33 15.33 0 0 1 .07 -13.37 a 11 11 0 0 1 4.48 -4.53 a 13.58 13.58 0 0 1 6.7 -1.6 a 15.94 15.94 0 0 1 5.07 .83 a 10.76 10.76 0 0 1 4 2.22 l -1.8 4.4 a 12 12 0 0 0 -3.28 -1.9 a 9.72 9.72 0 0 0 -3.42 -.65 a 6.4 6.4 0 0 0 -5 2 a 10.24 10.24 0 0 0 0 11.6 a 6.4 6.4 0 0 0 5 2 a 9.72 9.72 0 0 0 3.42 -.65 a 12 12 0 0 0 3.28 -1.9 l 1.8 4.35 a 11.32 11.32 0 0 1 -4.1 2.28 A 16.5 16.5 0 0 1 3542.38 935.6 Z m 24.31 0 a 13.53 13.53 0 0 1 -6.58 -1.55 a 10.71 10.71 0 0 1 -4.37 -4.45 a 14.13 14.13 0 0 1 -1.55 -6.75 a 14 14 0 0 1 1.55 -6.72 a 10.72 10.72 0 0 1 4.37 -4.43 a 14.72 14.72 0 0 1 13.15 0 a 10.5 10.5 0 0 1 4.35 4.43 a 14.06 14.06 0 0 1 1.53 6.72 a 14.24 14.24 0 0 1 -1.53 6.75 a 10.49 10.49 0 0 1 -4.35 4.45 A 13.46 13.46 0 0 1 3566.69 935.6 Z m -.05 -4.85 a 5.62 5.62 0 0 0 4.65 -2 q 1.61 -2 1.6 -5.9 a 9.27 9.27 0 0 0 -1.6 -5.87 a 5.52 5.52 0 0 0 -4.6 -2 a 5.61 5.61 0 0 0 -4.63 2 a 9.2 9.2 0 0 0 -1.62 5.87 q 0 3.9 1.6 5.9 A 5.56 5.56 0 0 0 3566.64 930.75 Z m 46.61 -20.6 c 2.77 0 4.83 .83 6.2 2.48 s 2.05 4.17 2.05 7.57 v 15 h -6.25 V 920.45 a 6.89 6.89 0 0 0 -.95 -4.07 a 3.55 3.55 0 0 0 -3.05 -1.28 a 4.77 4.77 0 0 0 -3.9 1.7 a 7.29 7.29 0 0 0 -1.4 4.75 V 935.2 h -6.25 V 920.45 a 7.07 7.07 0 0 0 -.92 -4.07 a 3.56 3.56 0 0 0 -3.08 -1.28 a 4.73 4.73 0 0 0 -3.85 1.7 a 7.29 7.29 0 0 0 -1.4 4.75 V 935.2 h -6.25 V 910.75 h 6.1 v 3.45 a 7.28 7.28 0 0 1 3 -3 a 9.33 9.33 0 0 1 4.45 -1 q 5.55 0 7.35 4.6 a 8.36 8.36 0 0 1 3.3 -3.37 A 9.48 9.48 0 0 1 3613.25 910.15 Z" fill="url(#linear-gradient-3)"/><path d="M 2942 60.18 h 12.08 c 3.2 0 5.69 .77 7.47 2.33 a 8.37 8.37 0 0 1 2.66 6.63 a 8.46 8.46 0 0 1 -2.69 6.67 a 10.86 10.86 0 0 1 -7.44 2.38 h -8.53 V 90.7 H 2942 Z m 11.73 15.06 q 7 0 7 -6.1 t -7 -6 h -8.18 V 75.24 Z m 39.53 15.46 l -3.38 -7.84 H 2974 l -3.38 7.84 H 2967 l 13.42 -30.52 h 3.07 l 13.42 30.52 Z m -18.05 -10.78 h 13.42 l -6.71 -15.63 Z m 26.19 -19.74 h 12.08 c 3.2 0 5.69 .77 7.47 2.33 a 8.37 8.37 0 0 1 2.66 6.63 a 8.45 8.45 0 0 1 -2.68 6.67 a 10.89 10.89 0 0 1 -7.45 2.38 H 3005 V 90.7 h -3.55 Z m 11.73 15.06 q 7 0 7 -6.1 t -7 -6 H 3005 V 75.24 Z m 16.2 15.46 V 60.18 h 19.31 v 2.94 h -15.81 V 73.73 h 14.94 v 2.94 h -14.94 V 87.76 h 15.81 V 90.7 Z m 49.22 0 h -3.89 l -5.2 -9.79 a 5.64 5.64 0 0 0 -2.23 -2.44 a 7.5 7.5 0 0 0 -3.48 -.67 H 3058 V 90.7 h -3.51 V 60.18 h 12.56 q 5 0 7.6 2.2 a 8.05 8.05 0 0 1 2.62 6.5 a 8.09 8.09 0 0 1 -2 5.73 a 9.36 9.36 0 0 1 -5.73 2.75 a 5.06 5.06 0 0 1 2.05 1.17 a 8.18 8.18 0 0 1 1.63 2.21 Z m -11.77 -15.85 a 8.11 8.11 0 0 0 5.3 -1.47 a 5.49 5.49 0 0 0 1.75 -4.46 a 5.32 5.32 0 0 0 -1.73 -4.37 c -1.15 -.95 -2.93 -1.43 -5.32 -1.43 H 3058 V 74.85 Z M 2971 100.3 h 4.94 l -8.37 23.53 h -4.17 l -5.44 -15.58 l -5.51 15.58 h -4.17 l -8.34 -23.53 h 5.27 l 5.37 16.26 l 5.71 -16.26 h 3.64 l 5.5 16.42 Z m 25.83 23.53 l -2.23 -5.21 h -10.95 l -2.23 5.21 h -5.24 L 2987 100.3 h 4.17 l 10.81 23.53 Z m -11.48 -9.14 h 7.55 l -3.77 -8.81 Z m 18.59 9.14 V 100.3 h 5.21 v 19.29 h 10.51 v 4.24 Z m 18.79 0 V 100.3 h 5.21 v 19.29 h 10.51 v 4.24 Z m 18.79 0 V 100.3 h 16.22 v 4 h -11.15 v 5.51 H 3057 v 4 h -10.48 v 5.9 h 11.15 v 4 Z m 25.23 0 V 104.54 h -7.38 V 100.3 h 20 v 4.24 h -7.38 v 19.29 Z" fill="#36363c"/><path d="M 2847 90.45 a 11.62 11.62 0 0 1 -23.23 0 c 0 -8.62 -2.9 -11.49 -11.61 -11.49 s -11.62 2.87 -11.62 11.49 A 11.62 11.62 0 1 1 2789 79 c 8.71 0 11.61 -2.87 11.61 -11.49 a 11.62 11.62 0 0 1 23.23 0 c 0 8.62 2.9 11.49 11.62 11.49 A 11.52 11.52 0 0 1 2847 90.45 Z m -81.37 34.49 a 11.49 11.49 0 1 1 11.61 -11.48 A 11.55 11.55 0 0 1 2765.66 124.94 Z m 151.17 -57.5 a 11.55 11.55 0 0 1 -11.62 11.49 c -8.71 0 -11.61 2.87 -11.61 11.48 A 11.55 11.55 0 0 1 2882 101.9 c -8.71 0 -11.61 2.87 -11.61 11.49 a 11.62 11.62 0 1 1 -11.62 -11.49 c 8.71 0 11.62 -2.87 11.62 -11.49 A 11.54 11.54 0 0 1 2882 78.93 c 8.71 0 11.62 -2.88 11.62 -11.49 a 11.62 11.62 0 0 1 23.23 0 Z" fill="url(#linear-gradient-4)"/></g><path d="M 3692.17 8.09 V 992.17 h -2084 v -150 H 8.09 V 158.1 h 1600 V 8.09 h 2084 m 8 -8 h -2100 v 150 H .09 V 850.16 h 1600 v 150 h 2100 V .09 Z" fill="#4a90e2"/></svg>