<svg xmlns="http://www.w3.org/2000/svg" xmlns:xlink="http://www.w3.org/1999/xlink" viewBox="0 0 3700 1000"><defs><linearGradient id="A" x1="589.12" y1="248.38" x2="89.12" y2="748.38" gradientUnits="userSpaceOnUse"><stop offset="0" stop-color="#02b799"/><stop offset="1" stop-color="#44ea96"/></linearGradient><linearGradient id="B" x1="3627.12" y1="249.63" x2="3127.12" y2="749.63" xlink:href="#A"/><linearGradient id="C" x1="3943.479" y1="921.66" x2="2895.607" y2="922.545" xlink:href="#A"/><linearGradient id="D" x1="2914.635" y1="57.789" x2="2751.845" y2="126.93" xlink:href="#A"/><linearGradient id="E" x1="3611.47" y1="570.23" x2="69.31" y2="311.49" xlink:href="#A"/><path id="F" d="M127.2 790.08a7.88 7.88 0 0 1-3.11-3.28 11.92 11.92 0 0 1 0-10 7.77 7.77 0 0 1 3.11-3.26 10.45 10.45 0 0 1 9.49 0 7.77 7.77 0 0 1 3.11 3.26 11.92 11.92 0 0 1 0 10 7.88 7.88 0 0 1-3.11 3.28 10.36 10.36 0 0 1-9.49 0zm8.35-3.6a7.27 7.27 0 0 0 1.31-4.66 7.19 7.19 0 0 0-1.3-4.64 4.87 4.87 0 0 0-7.22 0 9 9 0 0 0 0 9.3 4.36 4.36 0 0 0 3.59 1.61 4.42 4.42 0 0 0 3.62-1.61z"/><path id="G" d="M242.82 772.67h4V791h-4v-7.7h-8.45v7.7h-4v-18.33h4v7.4h8.45z"/><path id="H" d="M3390.41,197.3h11a17.34,17.34,0,0,1,7.92,1.68,11.71,11.71,0,0,1,5.08,4.84,15.36,15.36,0,0,1,1.76,7.56,15.58,15.58,0,0,1-1.74,7.58,11.6,11.6,0,0,1-5.06,4.86,17.45,17.45,0,0,1-8,1.68h-11Zm10.52,23.16q9,0,9-9.08t-9-9h-4.28v18.12Z"/></defs><path d="M111 259a10 10 0 0 0-10 10v460a10 10 0 0 0 10 10h460a10 10 0 0 0 10-10V269a10 10 0 0 0-10-10zm0-10h460a20 20 0 0 1 20 20v460a20 20 0 0 1-20 20H111a20 20 0 0 1-20-20V269a20 20 0 0 1 20-20z" fill="url(#A)"/><g fill="#02b799"><path d="M202.66 202.8h13q4.6 0 7.16 2.32a9.48 9.48 0 0 1 0 13q-2.55 2.32-7.16 2.32h-6.76V231h-6.24zm12.16 12.88q4.68 0 4.68-4a3.83 3.83 0 0 0-1.16-3.08 5.25 5.25 0 0 0-3.52-1h-5.92v8.12zm39 15.32H247l-4.88-9a3.87 3.87 0 0 0-1.44-1.5 4.32 4.32 0 0 0-2.12-.46h-3.06v11h-6.16V202.8h13q5 0 7.5 2.18a7.82 7.82 0 0 1 2.54 6.3 8.14 8.14 0 0 1-1.78 5.36 8.48 8.48 0 0 1-5 2.84 6.17 6.17 0 0 1 3.72 3.16zm-8.56-16.62a4.23 4.23 0 0 0 0-5.9 6.46 6.46 0 0 0-3.88-.92h-6v7.76h6a6.3 6.3 0 0 0 3.88-.94zM257.34 231v-28.2h6.24V231zm32.44-28.2h6.32L283.42 231h-5l-12.72-28.2h6.48l8.8 20.44zm27.16 28.2l-2.68-6.24h-13.12l-2.68 6.24h-6.28l13-28.2h5l13 28.2zm-13.76-11h9l-4.52-10.56zm25.16 11v-23.12h-8.84v-5.08h23.92v5.08h-8.84V231zm18.32 0v-28.2h19.44v4.84h-13.36v6.6h12.56v4.84h-12.56v7.08h13.36V231zm38.52-.5a14.65 14.65 0 0 1-4.92-2.38l2-4.44a15.68 15.68 0 0 0 9.16 2.84 7.94 7.94 0 0 0 4.06-.86 2.65 2.65 0 0 0 1.42-2.38 2.34 2.34 0 0 0-1.3-2.12 17.34 17.34 0 0 0-4.62-1.48 25.76 25.76 0 0 1-5.94-1.84 7.78 7.78 0 0 1-3.24-2.66 7 7 0 0 1-1-3.9 7.64 7.64 0 0 1 1.42-4.56 9.49 9.49 0 0 1 4-3.14 14.44 14.44 0 0 1 5.92-1.14 18.92 18.92 0 0 1 5.78.88 11.85 11.85 0 0 1 4.42 2.36l-2 4.44a13.64 13.64 0 0 0-8.16-2.84 6.77 6.77 0 0 0-3.84.94 3 3 0 0 0-1.4 2.58 2.31 2.31 0 0 0 .54 1.58 4.52 4.52 0 0 0 1.8 1.1 27.89 27.89 0 0 0 3.58 1c3.63.8 6.23 1.83 7.82 3.08a6.25 6.25 0 0 1 2.38 5.2 7.44 7.44 0 0 1-3.08 6.3q-3.07 2.3-8.6 2.3a22.09 22.09 0 0 1-6.2-.86zm22.28.5v-28.2h19.44v4.84h-13.36v6.6h12.56v4.84h-12.56v7.08h13.36V231zm23.68 0v-28.2h19.44v4.84h-13.36v6.6h12.56v4.84h-12.56v7.08h13.36V231zm23.68-28.2h11a17.34 17.34 0 0 1 7.92 1.68 11.71 11.71 0 0 1 5.08 4.84 15.36 15.36 0 0 1 1.76 7.56 15.58 15.58 0 0 1-1.74 7.58 11.6 11.6 0 0 1-5.06 4.86 17.45 17.45 0 0 1-8 1.68h-11zm10.52 23.2q9 0 9-9.08 0-9.08-9-9h-4.28V226zM103.72 772.67h7.12a11.25 11.25 0 0 1 5.15 1.09 7.61 7.61 0 0 1 3.3 3.15 9.88 9.88 0 0 1 1.15 4.91 10.17 10.17 0 0 1-1.13 4.93 7.56 7.56 0 0 1-3.29 3.16 11.35 11.35 0 0 1-5.18 1.09h-7.12zm6.84 15.05c3.9 0 5.85-2 5.85-5.9s-2-5.87-5.85-5.87h-2.78v11.77z"/><use xlink:href="#F"/><path d="M163.3 772.67h3.8V791h-3l-9.1-11.67V791h-3.8v-18.33h3l9.12 11.62z"/><use xlink:href="#F" x="47.2"/><path d="M194.36 791v-15h-5.75v-3.3h15.55v3.3h-5.75v15zm21.54-.32a9.64 9.64 0 0 1-3.2-1.55l1.3-2.9a10.18 10.18 0 0 0 6 1.85 5.13 5.13 0 0 0 2.64-.56 1.73 1.73 0 0 0 .93-1.55 1.52 1.52 0 0 0-.85-1.38 11.49 11.49 0 0 0-3-1 17.08 17.08 0 0 1-3.86-1.19 5.11 5.11 0 0 1-2.11-1.73 4.61 4.61 0 0 1-.66-2.54 5 5 0 0 1 .92-3 6.13 6.13 0 0 1 2.59-2 9.28 9.28 0 0 1 3.85-.74 12.35 12.35 0 0 1 3.75.57 7.68 7.68 0 0 1 2.88 1.53l-1.3 2.9a8.85 8.85 0 0 0-5.31-1.85 4.47 4.47 0 0 0-2.49.61 1.92 1.92 0 0 0-.91 1.68 1.48 1.48 0 0 0 .35 1 2.86 2.86 0 0 0 1.17.71 16.41 16.41 0 0 0 2.33.65 13 13 0 0 1 5.08 2 4.08 4.08 0 0 1 1.54 3.38 4.82 4.82 0 0 1-2 4.1 9.15 9.15 0 0 1-5.59 1.49 14.36 14.36 0 0 1-4.05-.48z"/><use xlink:href="#G"/><path d="M264.4 791l-1.74-4.06h-8.53L252.4 791h-4.1l8.43-18.33H260l8.4 18.33zm-8.95-7.12h5.88L258.4 777zm30.37 7.12h-4.42l-3.17-5.85a2.38 2.38 0 0 0-.94-1 2.81 2.81 0 0 0-1.37-.3h-2V791h-4v-18.33h8.42a7.29 7.29 0 0 1 4.88 1.42 5.09 5.09 0 0 1 1.65 4.09 5.32 5.32 0 0 1-1.16 3.49 5.54 5.54 0 0 1-3.26 1.84 4.06 4.06 0 0 1 2.42 2.06zm-5.56-10.8a2.75 2.75 0 0 0 0-3.84 4.17 4.17 0 0 0-2.52-.6h-3.88v5h3.88a4.16 4.16 0 0 0 2.52-.56zm7.84 10.8v-18.33h12.64v3.15h-8.7v4.3h8.17v3.14h-8.17v4.6h8.7V791zm26.9 0v-15h-5.75v-3.3h15.55v3.3H319v15z"/><use xlink:href="#G" x="96.48"/><path d="M346.9 791v-18.33h4.1V791zm10.1-.32a9.49 9.49 0 0 1-3.19-1.55l1.3-2.9a10.21 10.21 0 0 0 6 1.85 5.18 5.18 0 0 0 2.64-.56 1.74 1.74 0 0 0 .92-1.55 1.53 1.53 0 0 0-.84-1.38 11.74 11.74 0 0 0-3-1 17.08 17.08 0 0 1-3.86-1.19 5.07 5.07 0 0 1-2.1-1.73 4.54 4.54 0 0 1-.67-2.54 5 5 0 0 1 .93-3 6 6 0 0 1 2.58-2 9.28 9.28 0 0 1 3.85-.74 12.46 12.46 0 0 1 3.76.57 7.71 7.71 0 0 1 2.87 1.53l-1.3 2.9a8.85 8.85 0 0 0-5.3-1.85 4.51 4.51 0 0 0-2.5.61 1.92 1.92 0 0 0-.91 1.68 1.53 1.53 0 0 0 .35 1 3 3 0 0 0 1.17.71 16.81 16.81 0 0 0 2.33.65 13 13 0 0 1 5.08 2 4.09 4.09 0 0 1 1.55 3.38 4.85 4.85 0 0 1-2 4.1 9.17 9.17 0 0 1-5.59 1.49 14.43 14.43 0 0 1-4.06-.48zm44.55-18h3.84L398.87 791h-3.25l-4.24-12.14-4.3 12.14h-3.25l-6.5-18.33h4.1l4.18 12.66 4.45-12.66h2.83l4.3 12.8zm6.1 18.33v-18.33h4V791zm11.9 0v-15h-5.74v-3.3h15.55v3.3h-5.75v15z"/><use xlink:href="#G" x="201.08"/><path d="M472.7 791l-1.7-4.06h-8.53L460.7 791h-4.1l8.4-18.33h3.25L476.7 791zm-8.95-7.12h5.88L466.7 777zm26.58-11.2h3.8V791h-3L482 779.33V791h-3.77v-18.33h3l9.12 11.62zm23.47 0l-7.6 10V791h-4.05v-8.3l-7.57-10h4.6l5 6.8 5-6.8zm3.1 17.4a7.79 7.79 0 0 1-3.1-3.28 11.82 11.82 0 0 1 0-10 7.69 7.69 0 0 1 3.1-3.26 10.45 10.45 0 0 1 9.49 0 7.71 7.71 0 0 1 3.11 3.26 11.92 11.92 0 0 1 0 10 7.82 7.82 0 0 1-3.11 3.28 10.36 10.36 0 0 1-9.49 0zm8.35-3.6a7.27 7.27 0 0 0 1.31-4.66 7.19 7.19 0 0 0-1.3-4.64 4.86 4.86 0 0 0-7.21 0 9 9 0 0 0 0 9.3 4.37 4.37 0 0 0 3.59 1.61 4.42 4.42 0 0 0 3.61-1.61zm20.52-13.8h3.8V791h-3l-9.13-11.67V791h-3.77v-18.33h3l9.13 11.62zm7.4 18.33v-18.33h12.63v3.15h-8.68v4.3h8.16v3.14h-8.16v4.6h8.68V791zm22.98-5.93l-1.22-12.43h4.83l-1.24 12.4zm-.9 1.77h4.2V791h-4.2z"/></g><path d="M3146.63 260.25a10 10 0 0 0-10 10v460a10 10 0 0 0 10 10h460a10 10 0 0 0 10-10v-460a10 10 0 0 0-10-10zm0-10h460a20 20 0 0 1 20 20v460a20 20 0 0 1-20 20h-460a20 20 0 0 1-20-20v-460a20 20 0 0 1 20-20z" fill="url(#B)"/><g fill="#02b799"><path d="M3204.2 197.3h13q4.6 0 7.16 2.32a9.48 9.48 0 0 1 0 13q-2.55 2.32-7.16 2.32h-6.72v10.6h-6.24zm12.16 12.88q4.68 0 4.68-4a3.83 3.83 0 0 0-1.16-3.08 5.25 5.25 0 0 0-3.52-1h-5.92v8.12zm17.47 12.62q-3.1-3.06-3.1-8.94V197.3h6.12v16.84a7.58 7.58 0 0 0 1.54 5.12 6.53 6.53 0 0 0 8.94 0 7.51 7.51 0 0 0 1.56-5.1V197.3h6.1v16.56q0 5.83-3.12 8.92-3.12 3.1-9 3.08-5.94 0-9.05-3.06zm48.47-9.4a7 7 0 0 1 1.34 4.38 6.82 6.82 0 0 1-2.62 5.64 11.28 11.28 0 0 1-7.22 2.08h-13.4v-28.2h13a11.24 11.24 0 0 1 7 2 6.37 6.37 0 0 1 2.58 5.36 6.47 6.47 0 0 1-1.18 3.86 6.65 6.65 0 0 1-3.26 2.42 7 7 0 0 1 3.76 2.46zm-15.82-4.62h5.88a6.08 6.08 0 0 0 3.54-.82 2.88 2.88 0 0 0 1.14-2.5 3 3 0 0 0-1.14-2.58 6.08 6.08 0 0 0-3.54-.82h-5.88zm10.2 11.12a3.17 3.17 0 0 0 1.12-2.72 3.29 3.29 0 0 0-1.12-2.76 5.8 5.8 0 0 0-3.6-.88h-6.6v7.2h6.6a6 6 0 0 0 3.6-.84zm11.25 5.6v-28.2h6.24v23.12h12.6v5.08zm22.47 0v-28.2h6.24v28.2zm17.6-1.44a12.14 12.14 0 0 1-4.88-5.08 17.84 17.84 0 0 1 0-15.2 12 12 0 0 1 4.88-5.06 15 15 0 0 1 7.46-1.78 16.77 16.77 0 0 1 5.36.86 11.38 11.38 0 0 1 4.2 2.38l-2 4.44a13.46 13.46 0 0 0-3.66-2 11.2 11.2 0 0 0-3.78-.64 7.15 7.15 0 0 0-5.78 2.4c-1.34 1.6-2 3.95-2 7s.68 5.45 2 7.06a7.13 7.13 0 0 0 5.78 2.42 11.2 11.2 0 0 0 3.78-.64 13.46 13.46 0 0 0 3.66-2l2 4.44a11.38 11.38 0 0 1-4.2 2.38 16.77 16.77 0 0 1-5.36.86 14.9 14.9 0 0 1-7.46-1.84zm53.93 1.44l-2.68-6.24h-13.12l-2.68 6.24h-6.28l13-28.2h5l13 28.2zm-13.76-11h9l-4.48-10.5z"/><use xlink:href="#H"/><use xlink:href="#H" x="30.48"/><path d="M3475.85 225.5h-6.8l-4.88-9a3.87 3.87 0 0 0-1.44-1.5 4.35 4.35 0 0 0-2.12-.46h-3.08v11h-6.16V197.3h13q5 0 7.5 2.18a7.85 7.85 0 0 1 2.54 6.3 8.14 8.14 0 0 1-1.78 5.36 8.51 8.51 0 0 1-5 2.84 6.17 6.17 0 0 1 3.72 3.16zm-8.56-16.62a4.23 4.23 0 0 0 0-5.9 6.46 6.46 0 0 0-3.88-.92h-6v7.76h6a6.3 6.3 0 0 0 3.88-.94zm12.08 16.62v-28.2h19.44v4.84h-13.36v6.6H3498v4.84h-12.56v7.08h13.36v4.84zm27-.5a14.65 14.65 0 0 1-4.92-2.38l2-4.44a15.68 15.68 0 0 0 9.16 2.84 7.94 7.94 0 0 0 4.06-.86 2.65 2.65 0 0 0 1.42-2.38 2.34 2.34 0 0 0-1.3-2.12 17.34 17.34 0 0 0-4.62-1.48 25.76 25.76 0 0 1-5.94-1.84 7.78 7.78 0 0 1-3.24-2.66 7 7 0 0 1-1-3.9 7.64 7.64 0 0 1 1.42-4.56 9.49 9.49 0 0 1 4-3.14 14.44 14.44 0 0 1 5.92-1.14 18.92 18.92 0 0 1 5.78.88 11.85 11.85 0 0 1 4.42 2.36l-2 4.44a13.64 13.64 0 0 0-8.16-2.84 6.77 6.77 0 0 0-3.84.94 3 3 0 0 0-1.4 2.58 2.31 2.31 0 0 0 .54 1.58 4.52 4.52 0 0 0 1.8 1.1 27.89 27.89 0 0 0 3.58 1c3.63.8 6.23 1.83 7.82 3.08a6.25 6.25 0 0 1 2.38 5.2 7.44 7.44 0 0 1-3.08 6.3q-3.08 2.3-8.6 2.3a22.09 22.09 0 0 1-6.2-.86zm26 0a14.56 14.56 0 0 1-4.92-2.38l2-4.44a15.68 15.68 0 0 0 9.16 2.84 7.94 7.94 0 0 0 4.06-.86 2.65 2.65 0 0 0 1.42-2.38 2.34 2.34 0 0 0-1.3-2.12 17.34 17.34 0 0 0-4.62-1.48 25.76 25.76 0 0 1-5.94-1.84 7.78 7.78 0 0 1-3.24-2.66 7 7 0 0 1-1-3.9 7.64 7.64 0 0 1 1.42-4.56 9.43 9.43 0 0 1 4-3.14 14.44 14.44 0 0 1 5.92-1.14 19 19 0 0 1 5.78.88 11.93 11.93 0 0 1 4.42 2.36l-2 4.44a13.64 13.64 0 0 0-8.16-2.84 6.77 6.77 0 0 0-3.84.94 2.94 2.94 0 0 0-1.4 2.58 2.31 2.31 0 0 0 .54 1.58 4.52 4.52 0 0 0 1.8 1.1 27.89 27.89 0 0 0 3.58 1q5.43 1.2 7.82 3.08a6.25 6.25 0 0 1 2.38 5.2 7.44 7.44 0 0 1-3.08 6.3q-3.08 2.3-8.6 2.3a22 22 0 0 1-6.2-.86z"/></g><path d="M3146 910.2c2.93 0 5.12.83 6.55 2.5s2.15 4.18 2.15 7.55v15h-6.25V920.6a6.47 6.47 0 0 0-1.08-4.15 4.11 4.11 0 0 0-3.37-1.3 5.74 5.74 0 0 0-4.33 1.7 6.32 6.32 0 0 0-1.62 4.55v13.85h-6.25V910.8h6.1v3.65a8.39 8.39 0 0 1 3.35-3.15 10.11 10.11 0 0 1 4.75-1.1zm25.46 0q5.14 0 7.65 2.5c1.67 1.67 2.5 4.23 2.5 7.7v14.85h-6v-3.75a6.55 6.55 0 0 1-2.67 3 8.08 8.08 0 0 1-4.23 1.1 9.77 9.77 0 0 1-4.45-1 8 8 0 0 1-3.15-2.75A6.94 6.94 0 0 1 3160 928a6.16 6.16 0 0 1 1.38-4.25 8.25 8.25 0 0 1 4.47-2.25 40.57 40.57 0 0 1 8.55-.7h1.25v-1.15a5 5 0 0 0-1.07-3.6A4.88 4.88 0 0 0 3171 915a13.1 13.1 0 0 0-4.07.68 20.09 20.09 0 0 0-4.18 1.87l-1.75-4.3a21.43 21.43 0 0 1 10.45-3zm-1.46 20.95a5.37 5.37 0 0 0 4.08-1.67 6.07 6.07 0 0 0 1.57-4.33v-1h-.9a34.49 34.49 0 0 0-5.2.3 5 5 0 0 0-2.65 1.05 2.68 2.68 0 0 0-.8 2 3.46 3.46 0 0 0 1.1 2.63 4 4 0 0 0 2.8 1.02zm32.06-20.95q4.4 0 6.55 2.5c1.44 1.67 2.15 4.18 2.15 7.55v15h-6.25V920.6a6.53 6.53 0 0 0-1.07-4.15 4.13 4.13 0 0 0-3.38-1.3 5.7 5.7 0 0 0-4.32 1.7 6.28 6.28 0 0 0-1.63 4.55v13.85h-6.25V910.8h6.1v3.65a8.45 8.45 0 0 1 3.35-3.15 10.14 10.14 0 0 1 4.76-1.1zm26.12 25.45a13.5 13.5 0 0 1-6.58-1.55 10.71 10.71 0 0 1-4.37-4.45 15.43 15.43 0 0 1 0-13.48 10.76 10.76 0 0 1 4.37-4.42 14.72 14.72 0 0 1 13.15 0 10.65 10.65 0 0 1 4.35 4.42 15.61 15.61 0 0 1 0 13.48 10.61 10.61 0 0 1-4.35 4.45 13.46 13.46 0 0 1-6.56 1.55zm-.05-4.85a5.59 5.59 0 0 0 4.64-2 11.56 11.56 0 0 0 0-11.77 5.46 5.46 0 0 0-4.59-2 5.57 5.57 0 0 0-4.63 2 9.2 9.2 0 0 0-1.62 5.87 9.33 9.33 0 0 0 1.59 5.9 5.58 5.58 0 0 0 4.62 2zm31.6-20.6a10.09 10.09 0 0 1 5.62 1.6 10.63 10.63 0 0 1 3.85 4.52 15.65 15.65 0 0 1 1.38 6.73 15.11 15.11 0 0 1-1.38 6.65 10.08 10.08 0 0 1-9.47 5.95 9.68 9.68 0 0 1-4.65-1.1 7.66 7.66 0 0 1-3.15-3v12.75h-6.25v-33.5h6.15v3.7a7.65 7.65 0 0 1 3.17-3.18 9.78 9.78 0 0 1 4.74-1.12zm-1.65 20.6a5.61 5.61 0 0 0 4.6-2 8.87 8.87 0 0 0 1.65-5.73 9.35 9.35 0 0 0-1.65-5.9 6.17 6.17 0 0 0-9.23 0 9.26 9.26 0 0 0-1.62 5.85 9.16 9.16 0 0 0 1.62 5.8 5.57 5.57 0 0 0 4.64 1.98zm28.06-20.6q5.15 0 7.65 2.5c1.67 1.67 2.5 4.23 2.5 7.7v14.85h-5.95v-3.75a6.52 6.52 0 0 1-2.68 3 8 8 0 0 1-4.22 1.1 9.77 9.77 0 0 1-4.45-1 8 8 0 0 1-3.15-2.75 6.94 6.94 0 0 1-1.15-3.9 6.2 6.2 0 0 1 1.37-4.25 8.33 8.33 0 0 1 4.48-2.25 40.57 40.57 0 0 1 8.55-.7h1.25v-1.15a5 5 0 0 0-1.08-3.6 4.84 4.84 0 0 0-3.57-1.1 13.21 13.21 0 0 0-4.08.68 20.25 20.25 0 0 0-4.17 1.87l-1.75-4.3a21.43 21.43 0 0 1 10.45-3zm-1.45 20.95a5.34 5.34 0 0 0 4.07-1.67 6.07 6.07 0 0 0 1.58-4.33v-1h-.9a34.49 34.49 0 0 0-5.2.3 5 5 0 0 0-2.65 1.05 2.68 2.68 0 0 0-.8 2 3.46 3.46 0 0 0 1.1 2.63 4 4 0 0 0 2.81 1.02zm31.9-20.95a10.12 10.12 0 0 1 5.63 1.6 10.7 10.7 0 0 1 3.85 4.52 15.8 15.8 0 0 1 1.37 6.73 15.25 15.25 0 0 1-1.37 6.65 10.11 10.11 0 0 1-9.48 5.95 9.74 9.74 0 0 1-4.65-1.1 7.66 7.66 0 0 1-3.15-3v12.75h-6.25v-33.5h6.15v3.7a7.62 7.62 0 0 1 3.18-3.18 9.71 9.71 0 0 1 4.73-1.12zm-1.6 20.6a5.6 5.6 0 0 0 4.6-2 8.87 8.87 0 0 0 1.65-5.73 9.35 9.35 0 0 0-1.65-5.9 6.16 6.16 0 0 0-9.22 0 9.2 9.2 0 0 0-1.63 5.85 9.1 9.1 0 0 0 1.63 5.8 5.54 5.54 0 0 0 4.62 1.98zm39-6.65h-16.65a7.63 7.63 0 0 0 2.05 5.05 7 7 0 0 0 5 1.65 11.8 11.8 0 0 0 7.4-2.6l1.8 4.3a13.26 13.26 0 0 1-4.27 2.25 16.34 16.34 0 0 1-5.18.85q-6 0-9.47-3.4-3.47-3.4-3.48-9.3a14.26 14.26 0 0 1 1.5-6.65 10.94 10.94 0 0 1 4.23-4.5 11.9 11.9 0 0 1 6.17-1.6 10.18 10.18 0 0 1 8 3.25q2.93 3.25 2.92 8.95zm-10.75-9.55a5.28 5.28 0 0 0-4 1.6 7.81 7.81 0 0 0-1.88 4.6h11.3a7.1 7.1 0 0 0-1.5-4.63 5 5 0 0 0-3.94-1.57zm31.86.8l-3.65.35q-6.2.64-6.2 6.3v13.2H3359V910.8h6v4.3q1.9-4.4 7.85-4.8l1.9-.15zm37.47-4.6h6.1l-9.6 24.45h-5.45l-6-15.75-5.85 15.75h-5.4l-9.65-24.45h6.4l6.25 17 6.25-17h4.5l6.25 17.1zm19.86-.6q5.14 0 7.65 2.5c1.66 1.67 2.5 4.23 2.5 7.7v14.85h-6v-3.75a6.52 6.52 0 0 1-2.68 3 8 8 0 0 1-4.22 1.1 9.74 9.74 0 0 1-4.45-1 7.83 7.83 0 0 1-3.15-2.75A6.94 6.94 0 0 1 3421 928a6.2 6.2 0 0 1 1.37-4.25 8.33 8.33 0 0 1 4.48-2.25 40.44 40.44 0 0 1 8.55-.7h1.25v-1.15a5 5 0 0 0-1.08-3.6A4.86 4.86 0 0 0 3432 915a13.21 13.21 0 0 0-4.08.68 20 20 0 0 0-4.17 1.87l-1.75-4.3a21.43 21.43 0 0 1 10.45-3zm-1.44 20.95a5.36 5.36 0 0 0 4.07-1.67 6.07 6.07 0 0 0 1.58-4.33v-1h-.9a34.4 34.4 0 0 0-5.2.3 5 5 0 0 0-2.65 1.05 2.65 2.65 0 0 0-.8 2 3.42 3.42 0 0 0 1.1 2.63 3.94 3.94 0 0 0 2.8 1.02zm17.86 4.1V900h6.25v35.25zm12.6 0V900h6.25v35.25zm34.06-11.1h-16.65a7.63 7.63 0 0 0 2.05 5.05 7 7 0 0 0 5 1.65 11.8 11.8 0 0 0 7.4-2.6l1.8 4.3a13.26 13.26 0 0 1-4.27 2.25 16.34 16.34 0 0 1-5.18.85q-6 0-9.47-3.4-3.47-3.4-3.48-9.3a14.26 14.26 0 0 1 1.5-6.65 10.94 10.94 0 0 1 4.23-4.5 11.9 11.9 0 0 1 6.17-1.6 10.18 10.18 0 0 1 8 3.25q2.93 3.25 2.92 8.95zm-10.75-9.55a5.28 5.28 0 0 0-4 1.6 7.81 7.81 0 0 0-1.88 4.6h11.3a7.1 7.1 0 0 0-1.5-4.63 5 5 0 0 0-3.95-1.57zm27.88 16.4a18.48 18.48 0 0 0 2.3-.15l-.3 4.65-2.75.15q-5.14 0-7.6-2.37-2.46-2.37-2.45-7.08v-10.7h-4.7v-4.7h4.7v-7.3h6.25v7.3h6.45v4.7h-6.45v10.55q0 4.95 4.55 4.95zm6.32-2.6h7v6.9h-7zm23.36 7.3a13.74 13.74 0 0 1-6.68-1.55 10.47 10.47 0 0 1-4.32-4.4 15.35 15.35 0 0 1 .07-13.38 11.08 11.08 0 0 1 4.48-4.52 13.58 13.58 0 0 1 6.7-1.6 15.94 15.94 0 0 1 5.07.83 10.62 10.62 0 0 1 4 2.22l-1.8 4.4a12 12 0 0 0-3.28-1.9 9.72 9.72 0 0 0-3.42-.65 6.37 6.37 0 0 0-5 2 10.24 10.24 0 0 0 0 11.6 6.43 6.43 0 0 0 5 2 9.72 9.72 0 0 0 3.42-.65 12 12 0 0 0 3.28-1.9l1.8 4.35a11.16 11.16 0 0 1-4.1 2.27 16.22 16.22 0 0 1-5.22.83zm24.3 0a13.53 13.53 0 0 1-6.58-1.55 10.71 10.71 0 0 1-4.37-4.45 15.43 15.43 0 0 1 0-13.48 10.76 10.76 0 0 1 4.37-4.42 14.72 14.72 0 0 1 13.15 0 10.53 10.53 0 0 1 4.35 4.42 15.61 15.61 0 0 1 0 13.48 10.49 10.49 0 0 1-4.35 4.45 13.46 13.46 0 0 1-6.57 1.5zm-.05-4.85a5.62 5.62 0 0 0 4.65-2q1.6-2 1.6-5.9a9.27 9.27 0 0 0-1.6-5.87 5.5 5.5 0 0 0-4.6-2 5.58 5.58 0 0 0-4.63 2 9.2 9.2 0 0 0-1.62 5.87q0 3.9 1.6 5.9a5.56 5.56 0 0 0 4.6 1.95zm46.6-20.6c2.77 0 4.83.82 6.2 2.47s2.05 4.18 2.05 7.58v15h-6.25v-14.8a7 7 0 0 0-.95-4.08 3.55 3.55 0 0 0-3.05-1.27 4.77 4.77 0 0 0-3.9 1.7 7.29 7.29 0 0 0-1.4 4.75v13.65h-6.25V920.5a7.13 7.13 0 0 0-.92-4.08 3.56 3.56 0 0 0-3.08-1.27 4.73 4.73 0 0 0-3.85 1.7 7.29 7.29 0 0 0-1.4 4.75v13.65h-6.25V910.8h6.1v3.45a7.28 7.28 0 0 1 3-3 9.33 9.33 0 0 1 4.45-1q5.55 0 7.35 4.6a8.45 8.45 0 0 1 3.3-3.38 9.57 9.57 0 0 1 4.85-1.27z" fill="url(#C)"/><path d="M2942 60.22h12.08q4.8 0 7.47 2.34a8.37 8.37 0 0 1 2.66 6.63 8.43 8.43 0 0 1-2.69 6.66 10.82 10.82 0 0 1-7.44 2.39h-8.53v12.5H2942zm11.73 15.07q7 0 7-6.1 0-6.1-7-6h-8.18v12.1zm39.53 15.46l-3.38-7.84h-15.93l-3.38 7.84h-3.63l13.42-30.53h3.07l13.42 30.53zM2975.18 80h13.42l-6.7-15.63zm26.2-19.75h12.08q4.8 0 7.47 2.34a8.37 8.37 0 0 1 2.66 6.63 8.43 8.43 0 0 1-2.68 6.66 10.84 10.84 0 0 1-7.45 2.39h-8.53v12.48h-3.55zm11.73 15.07q7 0 7-6.1 0-6.1-7-6h-8.18V75.3zm16.2 15.46V60.22h19.3v3h-15.8v10.56h14.94v2.94h-14.94V87.8h15.8v3zm49.22 0h-3.9l-5.2-9.8a5.59 5.59 0 0 0-2.23-2.44 7.5 7.5 0 0 0-3.48-.67H3058v12.9h-3.5V60.22h12.56q5 0 7.6 2.2a8 8 0 0 1 2.62 6.5 8.09 8.09 0 0 1-2 5.73 9.36 9.36 0 0 1-5.73 2.75 5.06 5.06 0 0 1 2.05 1.17 8.18 8.18 0 0 1 1.63 2.21zm-11.77-15.88a8.11 8.11 0 0 0 5.3-1.47 5.49 5.49 0 0 0 1.75-4.43 5.32 5.32 0 0 0-1.73-4.37c-1.15-1-2.93-1.43-5.32-1.43H3058v11.7zm-95.83 25.45h4.94l-8.37 23.53h-4.17l-5.44-15.6-5.5 15.6h-4.17l-8.34-23.53h5.27l5.37 16.25 5.7-16.25h3.64l5.5 16.42zm25.83 23.53l-2.23-5.2h-10.95l-2.23 5.2h-5.24l10.8-23.53h4.17l10.8 23.53zm-11.48-9.14h7.55l-3.77-8.8zm18.6 9.14v-23.53h5.2v19.3h10.5v4.24zm18.8 0v-23.53h5.2v19.3h10.5v4.24zm18.8 0v-23.53h16.22v4h-11.15v5.5h10.5v4h-10.48v5.9h11.15v4zm25.23 0v-19.3h-7.38v-4.24h20v4.24h-7.38v19.3z" fill="#36363c"/><path d="M2847 90.5a11.62 11.62 0 0 1-23.23 0c0-8.62-2.9-11.5-11.6-11.5s-11.62 2.87-11.62 11.5a11.62 11.62 0 1 1-11.62-11.5c8.7 0 11.6-2.87 11.6-11.5a11.62 11.62 0 0 1 23.23 0c0 8.62 2.9 11.5 11.62 11.5A11.52 11.52 0 0 1 2847 90.5zm-81.38 34.5a11.49 11.49 0 1 1 11.61-11.49 11.55 11.55 0 0 1-11.61 11.49zm151.17-57.5a11.55 11.55 0 0 1-11.62 11.5c-8.7 0-11.6 2.88-11.6 11.5a11.55 11.55 0 0 1-11.62 11.51c-8.7 0-11.6 2.87-11.6 11.5a11.62 11.62 0 1 1-11.62-11.49c8.7 0 11.62-2.87 11.62-11.5A11.55 11.55 0 0 1 2881.94 79c8.7 0 11.62-2.87 11.62-11.48a11.62 11.62 0 0 1 23.23 0z" fill="url(#D)"/><path d="M1600 0v150H0v700h1600v150h2100V0zm711.47 20q5 7 9.9 14.15 4.86-7.14 9.86-14.15h1.23q-5.4 7.6-10.67 15.32l-.4.6-.42-.6q-5.26-7.72-10.7-15.32zm-20.63 0q15.93 21.6 30.55 44.5 14.54-22.86 30.4-44.5h1.26q-16.3 22.13-31.24 45.7l-.43.67-.42-.67Q2306 42.22 2289.6 20zm-21 0a781 781 0 0 1 51.54 76.53A780.78 780.78 0 0 1 2372.75 20h1.25a778.81 778.81 0 0 0-52.15 77.77l-.43.74-.43-.74A777.4 777.4 0 0 0 2268.62 20zm-21.15 0a755.35 755.35 0 0 1 72.74 110.69A756.68 756.68 0 0 1 2393.93 20h1.28a756.07 756.07 0 0 0-73.3 112l-.44.82-.47-.82a754.79 754.79 0 0 0-73.58-112zm-21.43 0a736.72 736.72 0 0 1 85.62 130.29q4.17 2.06 8.37 4.2 4.44-2.26 8.9-4.47a737.36 737.36 0 0 1 85.07-130h1.3A736 736 0 0 0 2331 150.62l-.07.14-.15.08q-4.64 2.28-9.27 4.64l-.22.12-.23-.12q-4.38-2.22-8.74-4.37l-.14-.07-.08-.15A736 736 0 0 0 2226 20zm-21.8 0a715.47 715.47 0 0 1 95 142.92q10.2 4.92 20.76 10.43c7-3.7 14.16-7.28 21.26-10.7A714.91 714.91 0 0 1 2437.06 20h1.32a713.41 713.41 0 0 0-95 143.23l-.08.16-.15.07c-7.22 3.5-14.45 7.13-21.6 10.9l-.23.12-.24-.12c-7.14-3.74-14.2-7.28-21.12-10.6l-.15-.08-.08-.15A715.06 715.06 0 0 0 2204.18 20zm-22.24 0a694.87 694.87 0 0 1 104.85 155.53 732.5 732.5 0 0 1 33.19 16.76c10.7-5.8 21.9-11.45 33.68-17.06A693.35 693.35 0 0 1 2459.28 20h1.34a692.2 692.2 0 0 0-104.82 155.82l-.08.16-.16.08c-11.9 5.67-23.2 11.4-34 17.24l-.23.13-.24-.13c-11.14-6-22.37-11.68-33.54-16.94l-.16-.07-.08-.16A693.32 693.32 0 0 0 2181.92 20zm-22.7 0c45.48 48.2 85.7 106.83 115.1 168.2 15.37 7.1 30.67 14.87 45.65 23.2a696.49 696.49 0 0 1 46.13-23.49C2396.82 126.5 2437 67.77 2482 20h1.37c-45.26 47.86-85.6 106.84-115.1 168.48l-.07.16-.17.08a699.19 699.19 0 0 0-46.46 23.66l-.24.14-.25-.13c-15.1-8.4-30.5-16.22-46-23.37l-.16-.07-.08-.16c-29.5-61.62-69.93-120.5-115.65-168.8zm-23.28 0c50.34 50.4 94.64 114 125.88 180.83 19.47 8.77 39.3 18.9 58.16 29.7 19-10.92 39-21.16 58.6-30 31.2-66.88 75.44-130.6 125.3-180.52h1.42c-50.1 50-94.6 114-125.9 181.1l-.08.17-.17.07c-19.72 8.9-39.84 19.2-58.94 30.2l-.24.14-.25-.14c-19-10.88-38.92-21.07-58.5-29.88l-.17-.08-.08-.17C2231 134.3 2186.45 70.48 2135.85 20zm-24 0l3.78 3.58c54 51.7 101.2 118.92 133.55 189.93a659.57 659.57 0 0 1 70.71 36.36 657.88 657.88 0 0 1 71.18-36.67C2423.6 144.66 2468.7 79.45 2520 28.93q4.6-4.5 9.25-8.93h1.46q-5.05 4.76-10 9.64c-51.2 50.48-96.27 115.65-127.3 184.15l-.08.17-.18.08a657.38 657.38 0 0 0-71.49 36.84l-.25.16-.26-.16a659.31 659.31 0 0 0-71-36.53l-.18-.07-.08-.18c-32.3-71-79.5-138.14-133.4-189.8l-4.55-4.3zm-24.77 0q8.63 7.65 17 15.66c54.18 51.93 101.06 119.4 132.5 190.7a633.91 633.91 0 0 1 83.38 43.08 633.69 633.69 0 0 1 83.76-43.43c30.36-68.93 75.13-134.43 126.56-185.13q10.9-10.74 22.26-20.85h1.5q-11.77 10.44-23.07 21.57c-51.38 50.65-96.12 116.1-126.43 185l-.08.18-.18.08a632.31 632.31 0 0 0-84 43.62l-.27.16-.26-.16a633.8 633.8 0 0 0-83.69-43.25l-.18-.07-.08-.2c-31.4-71.23-78.25-138.67-132.38-190.55Q2096 28 2087 20zm-25.6 0q15.95 13.24 31 27.72c54.32 52.08 100.82 119.8 131.43 191.4a610.41 610.41 0 0 1 96 50.06 610.92 610.92 0 0 1 96.46-50.42c29.52-69.3 74-135.13 125.64-186q17.46-17.2 36.1-32.73h1.58q-19.1 15.83-37 33.44c-51.6 50.86-96 116.66-125.5 185.9l-.08.18-.2.08a609.29 609.29 0 0 0-96.75 50.6l-.27.17-.28-.17a608 608 0 0 0-96.23-50.23l-.18-.08-.08-.2c-30.57-71.55-77-139.23-131.3-191.26q-15.45-14.9-31.88-28.47zm-26.75 0a556.51 556.51 0 0 1 46.17 39.78C2136.84 112 2182.9 180 2212.66 252a589.76 589.76 0 0 1 108.73 57.17 589.07 589.07 0 0 1 109.12-57.51c28.72-69.75 72.8-135.9 124.66-187A566.06 566.06 0 0 1 2606.28 20h1.64a563.43 563.43 0 0 0-52.05 45.38c-51.8 51.05-95.85 117.16-124.5 186.87l-.08.2-.2.08a587.42 587.42 0 0 0-109.41 57.68l-.28.18-.27-.18a587.83 587.83 0 0 0-109-57.33l-.2-.08-.08-.2c-29.7-72-75.7-139.94-130.15-192.1a553.73 553.73 0 0 0-47.16-40.5zM2008 20a537.59 537.59 0 0 1 62.78 51.85c54.7 52.4 100.33 120.72 129.07 193.1a566.94 566.94 0 0 1 121.51 64.47 567.06 567.06 0 0 1 121.9-64.82c27.83-70.23 71.53-136.74 123.6-188A546.71 546.71 0 0 1 2634.31 20h1.7a545.57 545.57 0 0 0-68.48 57.27c-52 51.27-95.68 117.74-123.45 187.9l-.08.2-.2.08a566.16 566.16 0 0 0-122.18 65l-.3.2-.28-.2a566.25 566.25 0 0 0-121.79-64.64l-.2-.07-.08-.2c-28.68-72.33-74.28-140.6-128.9-192.95A538.58 538.58 0 0 0 2006.28 20zm-62.4 0a506.07 506.07 0 0 1 102 76c55.14 52.84 99.8 121.83 126.4 195.14A525.12 525.12 0 0 1 2321.39 371a525.38 525.38 0 0 1 147.72-80.2c25.77-71.22 68.62-138.53 121.2-190.38a512.12 512.12 0 0 1 73.22-59.94l.43.92a511.57 511.57 0 0 0-72.97 59.7c-52.54 51.8-95.34 119.07-121.05 190.23l-.08.23-.22.07a524.64 524.64 0 0 0-148 80.36l-.3.24-.3-.24a524.61 524.61 0 0 0-147.61-80l-.23-.08-.08-.22c-26.5-73.25-71.14-142.2-126.22-195A504.57 504.57 0 0 0 1943.56 20zm-78.1 0a473 473 0 0 1 157 100.15c55.66 53.35 99.22 123.2 123.28 197.56 63.22 19.64 124.07 53.45 173.67 96.48a491.22 491.22 0 0 1 173.94-96.88c23.36-72.4 65.2-140.65 118.44-193.1a479.32 479.32 0 0 1 64-53l.43.92a477.55 477.55 0 0 0-63.77 52.81c-53.17 52.4-95 120.62-118.27 193l-.08.25-.24.07a490.18 490.18 0 0 0-174.16 97.05l-.33.28-.33-.28c-49.62-43.13-110.57-77-173.9-96.64l-.24-.08-.08-.25c-24-74.3-67.5-144.1-123.1-197.4A472 472 0 0 0 1864.72 20zm-54 0a456.42 456.42 0 0 1 199.4 112.21c56 53.68 98.94 124 121.54 199 69.23 20 134.88 57 187 105.5 52.16-48.63 117.94-85.83 187.26-105.9 22-73.06 63.25-141.85 116.84-194.67a461.27 461.27 0 0 1 59.49-49.55l.43.92a460.79 460.79 0 0 0-59.21 49.34c-53.54 52.76-94.76 121.52-116.67 194.5l-.08.26-.26.07c-69.42 20-135.3 57.32-187.46 106.06l-.34.32-.34-.32c-52.12-48.6-117.85-85.76-187.18-105.7l-.26-.08-.08-.26c-22.53-74.9-65.42-145.17-121.35-198.78A455.56 455.56 0 0 0 1809.6 20zM1619 28.07a447.6 447.6 0 0 1 76.61-6.57 439.92 439.92 0 0 1 305.76 122.85c56.35 54 98.6 124.85 119.65 200.5 74.22 19.73 144.15 59.5 198 112.66l2.5 2.48 3.17-3.15c53.73-53 123.5-92.67 197.54-112.4 20.47-73.76 61.12-143.14 115.07-196.36a445.54 445.54 0 0 1 55-46.1l.43.92a444.61 444.61 0 0 0-54.7 45.89c-53.9 53.16-94.5 122.5-114.9 196.2l-.08.28-.28.07c-74 19.66-143.7 59.28-197.37 112.22l-3.5 3.5-.36.36-3.2-3.2c-53.77-53.1-123.66-92.82-197.8-112.48l-.28-.07-.08-.28c-21-75.57-63.16-146.36-119.45-200.3A438.91 438.91 0 0 0 1695.61 22.5a446.6 446.6 0 0 0-76.61 6.58zM1557.74 170a322.68 322.68 0 0 0-89.58 62.54c-58.53 57.68-92.15 133.72-95.3 215.37v.47h-.47a322 322 0 0 0-216.92 92.9c-58.63 57.8-92.26 134-95.3 215.82v.47h-.47c-1.62 0-3.23.1-4.84.2l-.46-1 4.8-.2c3.17-81.9 36.9-158.17 95.6-216a322.93 322.93 0 0 1 217.13-93.17c3.26-81.74 37-157.84 95.57-215.6a323.8 323.8 0 0 1 87.89-61.81zm-94.52 0a377.16 377.16 0 0 0-30.3 26.83A371.92 371.92 0 0 0 1327 401.9l-.06.36-.36.05a375.49 375.49 0 0 0-206.32 103.29A371.66 371.66 0 0 0 1020 683l-.68-1.46a373.36 373.36 0 0 1 306.8-280.2A373.25 373.25 0 0 1 1461.63 170zm-27.54 0h1.52q-8.2 7.22-16 14.93a390.18 390.18 0 0 0-108.51 202.44l-.07.34-.34.06A389 389 0 0 0 1009 659.49l-.63-1.35a390 390 0 0 1 303.38-271.29 391.33 391.33 0 0 1 108.73-202.64q7.44-7.33 15.2-14.2zm-69.37 0A447.53 447.53 0 0 0 1271 345.44l-.07.28-.28.07c-74 19.66-143.68 59.3-197.37 112.23-39.36 38.75-71.62 86.14-94.1 137.58l-.56-1.2c22.52-51.25 54.7-98.45 94-137.1 53.74-53 123.52-92.68 197.54-112.4A448.23 448.23 0 0 1 1365 170zm-22 0a466.81 466.81 0 0 0-86.75 161.81l-.07.26-.27.08c-73.18 21.12-142.34 61.37-195.65 113.9-37.32 36.8-68.65 81.32-91.63 129.65l-.54-1.16c23-48.15 54.26-92.53 91.47-129.2 53.37-52.6 122.57-92.9 195.8-114.08A468 468 0 0 1 1343 170zm-21.43 0a486.13 486.13 0 0 0-78.64 148.33l-.08.25-.25.07c-72.5 22.5-141.07 63.3-194.08 115.5-35.4 34.85-65.73 76.75-88.93 122.18l-.54-1.16c23.2-45.25 53.48-86.95 88.77-121.73 53.06-52.25 121.7-93.1 194.24-115.66A487.36 487.36 0 0 1 1321.61 170zm-41.43 0A524.54 524.54 0 0 0 1218 291.8l-.08.23-.23.08c-71.34 24.88-139 66.68-191.3 118.22-31.8 31.33-60 68.32-83 108.42l-.52-1.1c23-39.94 51.15-76.8 82.84-108 52.36-51.6 120-93.43 191.45-118.38A524.92 524.92 0 0 1 1280.23 170zm-117.92 0c-8 14.52-15.47 29.32-22.25 44.27l-.08.17-.17.08c-68.65 30.16-134.16 74.16-185.1 124.34a589.59 589.59 0 0 0-62.43 72.94l-.48-1a588.7 588.7 0 0 1 62.21-72.61c51-50.23 116.52-94.27 185.2-124.47 6.7-14.75 14-29.35 22-43.68zm-152.73 0c-46.17 28.53-89.33 62-125.3 97.43-13.5 13.27-26.65 27.57-39.4 42.64l-.47-1c12.7-15 25.8-29.15 39.18-42.34 35.68-35.14 78.4-68.34 124.13-96.72zm-60.35 0a724.38 724.38 0 0 0-88.39 73.61c-10.65 10.5-21.17 21.63-31.45 33.28l-.46-1q15.32-17.32 31.2-33A724.87 724.87 0 0 1 948.72 170zM895 170a719.28 719.28 0 0 0-56.37 49.8q-11.8 11.6-23.35 24.2l-.46-1q11.43-12.42 23.1-23.93A723.5 723.5 0 0 1 893.35 170zm-104.1 1.45l1.5-1.45h1.43l-2.22 2.17-6.7 6.7-.45-1q3.2-3.22 6.43-6.4zM1133.1 830A255.85 255.85 0 0 1 1383 514.16c25.33 0 41.6-2.2 50.72-5.33 2.8-8.25 4.8-23.75 4.8-48.24a252.49 252.49 0 0 1 75.9-181.08 256.67 256.67 0 0 1 181.24-74.11c141.82 0 257.14 114.46 257.14 255.2 0 24.47 2 39.88 4.8 48.24 9.1 3.12 25.4 5.33 50.73 5.33 68.6 0 133 26.35 181.5 74.2a252.63 252.63 0 0 1 75.65 181 255.68 255.68 0 0 1-7.32 61 260.25 260.25 0 0 1 64.2-7.94c25.33 0 41.6-2.22 50.72-5.33 2.8-8.3 4.8-23.78 4.8-48.24a252.46 252.46 0 0 1 75.9-181.12A256.59 256.59 0 0 1 2635 513.66c25.32 0 41.54-2.2 50.73-5.33 2.8-8.3 4.8-23.78 4.8-48.24A252.44 252.44 0 0 1 2766.37 279c1.93-1.9 3.9-3.8 5.88-5.62l.44 1q-2.85 2.64-5.62 5.38a251.49 251.49 0 0 0-75.55 180.36c0 24.8-2.05 40.44-4.94 48.8l-.08.23-.23.08c-9.25 3.2-25.65 5.46-51.28 5.46a255.61 255.61 0 0 0-180.53 73.82 251.46 251.46 0 0 0-75.6 180.41c0 24.8-2.05 40.43-4.94 48.8l-.08.23-.23.07c-9.2 3.2-25.63 5.47-51.28 5.47a259.55 259.55 0 0 0-64.76 8.11l-.8.2.2-.8a254.79 254.79 0 0 0 7.49-61.61 251.63 251.63 0 0 0-75.35-180.3c-48.27-47.65-112.47-73.9-180.8-73.9-25.66 0-42.1-2.27-51.28-5.46l-.23-.08-.08-.23c-2.9-8.43-5-24-5-48.8 0-140.17-114.87-254.2-256.14-254.2a255.61 255.61 0 0 0-180.54 73.83 251.45 251.45 0 0 0-75.6 180.36c0 24.82-2 40.5-4.94 48.8l-.08.23-.23.08c-9.2 3.2-25.63 5.46-51.3 5.46A254.84 254.84 0 0 0 1134.12 830zm34.67 0a220.26 220.26 0 0 1 57.42-217.89A223.37 223.37 0 0 1 1383 547.62c24 0 42.1-1.87 55.12-5.2 9.88-2.52 16.2-5.7 19.66-9.13 8.67-8.56 14.16-31.2 14.16-72.68a219.26 219.26 0 0 1 65.94-157.26 223.35 223.35 0 0 1 157.77-64.49c123.34 0 223.7 99.5 223.7 221.75 0 41.5 5.5 64.12 14.17 72.68 3.47 3.43 9.77 6.6 19.66 9.13 13 3.33 31.15 5.2 55.12 5.2 59.74 0 115.85 22.92 158 64.54a220.82 220.82 0 0 1 23.79 286.53 223.47 223.47 0 0 1 132.32-42.83c24 0 42.1-1.86 55.12-5.2 9.9-2.52 16.2-5.7 19.66-9.13 8.67-8.56 14.17-31.18 14.17-72.68a219.21 219.21 0 0 1 65.93-157.26 223.45 223.45 0 0 1 157.7-64.5c24 0 42.1-1.86 55.12-5.2 9.9-2.53 16.2-5.7 19.66-9.14 8.67-8.55 14.17-31.18 14.17-72.67a219.28 219.28 0 0 1 63.28-154.62l.45 1a218.25 218.25 0 0 0-62.73 153.65c0 41.73-5.56 64.6-14.46 73.38-3.62 3.57-10.07 6.83-20.12 9.4-13.12 3.35-31.33 5.22-55.37 5.22a222.44 222.44 0 0 0-157 64.21 218.29 218.29 0 0 0-65.63 156.55c0 41.75-5.55 64.6-14.47 73.4-3.6 3.56-10.06 6.82-20.1 9.4-13.12 3.35-31.33 5.22-55.37 5.22A222.57 222.57 0 0 0 2188 901.45l-2.78 2.1 2.08-2.8a219.83 219.83 0 0 0-21.73-287.88c-42-41.43-97.82-64.25-157.3-64.25-24 0-42.25-1.88-55.37-5.23-10.05-2.56-16.5-5.82-20.12-9.4-8.9-8.8-14.46-31.65-14.46-73.4 0-121.7-99.92-220.75-222.7-220.75a222.37 222.37 0 0 0-157.07 64.2 218.26 218.26 0 0 0-65.64 156.55c0 41.74-5.55 64.6-14.46 73.4-3.6 3.57-10.07 6.83-20.1 9.4-13.13 3.35-31.33 5.23-55.38 5.23a222.38 222.38 0 0 0-157.07 64.2A219.27 219.27 0 0 0 1168.8 830zm359.3 0h-287.9a151.7 151.7 0 0 1-12.4-60.21c0-85.52 70.16-154.34 156.3-154.34 117.25 0 156.3-38.6 156.3-154.34 0-85.52 70.16-154.34 156.3-154.34S1852 376.06 1852 461.1c0 115.8 39.08 154.34 156.3 154.34 86.62 0 156.3 68.8 156.3 154.34s-70.17 154.35-156.3 154.35S1852 854.85 1852 769.8c0-115.78-39.08-154.34-156.3-154.34s-156.3 38.6-156.3 154.34a152.44 152.44 0 0 1-12.33 60.21zm18.43 0h-1.07a168.3 168.3 0 0 0 11.15-60.66c0-55.4 9-89 29.38-109.07s54.55-29.1 110.73-29.1 90.38 9 110.74 29.1 29.37 53.72 29.37 109.07c0 93.23 76 169.24 170 170.6h2.5a172.47 172.47 0 0 0 121.82-49.78 169.56 169.56 0 0 0 .19-241.64c-32.48-32.12-75.82-49.8-122.05-49.8-56.1 0-90.4-9-110.74-29.1s-29.36-53.72-29.36-109.08c0-94-77.38-170.55-172.52-170.55a172.54 172.54 0 0 0-121.87 49.77 168.49 168.49 0 0 0-50.58 120.8c0 55.43-9 89-29.37 109.08s-54.57 29.1-110.74 29.1a172.49 172.49 0 0 0-121.86 49.77A169.27 169.27 0 0 0 1221.77 830h-1.06a170.22 170.22 0 0 1 39.78-182.2 173.5 173.5 0 0 1 122.56-50.06c55.93 0 89.88-8.9 110-28.8s29.07-53.17 29.07-108.36A169.47 169.47 0 0 1 1573 339.06 173.52 173.52 0 0 1 1695.61 289c95.7 0 173.52 77 173.52 171.55 0 55.12 9 88.53 29.06 108.36s54.17 28.8 110 28.8c46.5 0 90.08 17.77 122.75 50.08a170.56 170.56 0 0 1-.18 243.06 173.5 173.5 0 0 1-118.59 50h.16-4.06c-95.7 0-173.52-77-173.52-171.6 0-55.1-9-88.52-29.08-108.36s-54.15-28.8-110-28.8-89.87 8.9-110 28.8-29.08 53.2-29.08 108.36a169.36 169.36 0 0 1-11.1 60.74zm17.8 0h-1.06a184.79 184.79 0 0 0 10.08-60.66c0-50.4 7.58-80.56 24.4-97.17s48.24-24.27 99-24.27 82.14 7.63 99 24.27 24.4 46.66 24.4 97.17c0 102.37 83.35 185.8 186.42 187.3h2.77A189.11 189.11 0 0 0 2142 902a186.28 186.28 0 0 0 .2-265.44A189.37 189.37 0 0 0 2008.35 582c-50.88 0-82.15-7.63-99-24.27S1885 511 1885 460.52c0-103.24-84.88-187.26-189.24-187.26a189.15 189.15 0 0 0-133.59 54.58 185 185 0 0 0-55.66 132.73c0 50.4-7.6 80.56-24.4 97.18s-48.24 24.27-99 24.27a189.12 189.12 0 0 0-133.6 54.58A186 186 0 0 0 1204 830h-1.06a187 187 0 0 1 45.85-194.11A190.14 190.14 0 0 1 1383.07 581c50.5 0 81.74-7.64 98.28-24s24.12-46.32 24.12-96.47a186 186 0 0 1 56-133.44 190.14 190.14 0 0 1 134.3-54.87c104.9 0 190.23 84.46 190.23 188.26 0 50.28 7.45 80 24.1 96.47s47.65 24 98.3 24a190.36 190.36 0 0 1 134.5 54.9 187.28 187.28 0 0 1-.2 266.87 190.16 190.16 0 0 1-130.42 54.88h.14-4.06c-104.9 0-190.23-84.47-190.23-188.32 0-50.27-7.45-80-24.1-96.46s-47.66-24-98.3-24-81.74 7.64-98.28 24-24.1 46.32-24.1 96.46a185.88 185.88 0 0 1-10.06 60.72zm136.62 150q-2.12-3-4.15-6.1-2 3.08-4.14 6.1h-1.2q2.5-3.6 4.93-7.27l.4-.63.42.62.33.5c1.5 2.28 3 4.55 4.62 6.8zm20.6 0q-5.62-7.6-10.88-15.5-7.33-11.1-13.86-22.72A355.93 355.93 0 0 1 1671 980h-1.23a354.89 354.89 0 0 0 25.55-39.49l.44-.8.43.8q6.7 12 14.26 23.43 5.44 8.2 11.3 16.06zm21 0q-9.55-11.94-18-24.7a337.93 337.93 0 0 1-27.81-51 340.43 340.43 0 0 1-45.79 75.7h-1.26a339.45 339.45 0 0 0 46.59-77.15l.46-1.05.45 1.05a337.62 337.62 0 0 0 28.2 51.89Q1733 967.8 1742.8 980zm21.83 0a320.57 320.57 0 0 1-67.66-125.76A319.27 319.27 0 0 1 1628.14 980h-1.33a318.11 318.11 0 0 0 68.38-127.8l.5-1.8.48 1.8a319.58 319.58 0 0 0 68.51 127.8zm22.7 0c-52.68-54.84-85.02-129.08-85.02-210.7V766h-10.72v3.36A301.72 301.72 0 0 1 1619 965v-1.54a300.83 300.83 0 0 0 70.29-194.12V765h.48l5.85-.05h6.38v4.35c0 81.7 32.56 156 85.46 210.7zm23.92 0c-56.73-52.7-92.23-127.7-92.23-210.75 0-7.3-.2-13.73-.56-19.4-6.14-.47-13.3-.73-21.5-.73s-15.25.26-21.5.73c-.37 5.6-.57 12-.57 19.4A285.22 285.22 0 0 1 1619 937.81v-1.7a284.19 284.19 0 0 0 53.58-166.85c0-7.55.2-14.16.6-19.9v-.43h.43c6.38-.5 13.67-.77 22-.77s15.76.27 22 .77h.43v.43c.38 5.8.6 12.4.6 19.9 0 83.16 35.7 158.18 92.7 210.75zm25.47 0c-61.6-49.9-101-125.83-101-210.73 0-14.82-.77-26.12-2.06-34.4-8.9-1.52-21-2.43-36.73-2.43s-27.82.9-36.73 2.43c-1.3 8.22-2.06 19.55-2.06 34.4A269 269 0 0 1 1619 907.53v-1.95a268 268 0 0 0 36.86-136.31c0-15.13.8-26.62 2.13-34.92l.06-.36.35-.06c9-1.56 21.23-2.5 37.25-2.5s28.26.94 37.25 2.5l.35.06.06.36c1.33 8.37 2.13 19.84 2.13 34.92 0 85 39.65 161 101.56 210.73zm27.93 0c-67.7-46-112.2-123.3-112.2-210.7 0-24.47-2-39.87-4.8-48.24-9.08-3.1-25.38-5.32-50.72-5.32s-41.6 2.2-50.73 5.32c-2.82 8.42-4.8 23.8-4.8 48.24A252.37 252.37 0 0 1 1619 871v-2.6a251.22 251.22 0 0 0 20.09-99.1c0-24.77 2-40.3 5-48.8l.07-.23.23-.08c9.2-3.2 25.63-5.46 51.3-5.46s42.13 2.27 51.28 5.46l.23.08.08.23c2.9 8.43 4.94 24 4.94 48.8 0 87.6 44.86 165 113 210.7zm32.35 0c-76-40.1-127.87-119.5-127.87-210.7 0-22.48-1.68-38.65-4.5-49.54a43.32 43.32 0 0 0-3.15-8.86 10.07 10.07 0 0 0-1.53-2.37 5.19 5.19 0 0 0-.51-.38 16.18 16.18 0 0 0-1.89-1.08 50.12 50.12 0 0 0-9.34-3.28c-11.5-3-28.26-4.78-51.3-4.78s-39.8 1.8-51.3 4.78a49.72 49.72 0 0 0-9.33 3.28 15.38 15.38 0 0 0-1.89 1.08 6 6 0 0 0-.52.38 10.17 10.17 0 0 0-1.53 2.37 44.29 44.29 0 0 0-3.15 8.87c-2.82 10.9-4.5 27.06-4.5 49.53a235.58 235.58 0 0 1-7.79 60.69h-1a234.74 234.74 0 0 0 7.82-60.69c0-22.55 1.7-38.8 4.54-49.78a45.75 45.75 0 0 1 3.23-9.08 11.25 11.25 0 0 1 1.72-2.62 12.19 12.19 0 0 1 2.66-1.64 50.37 50.37 0 0 1 9.53-3.36c11.58-3 28.43-4.8 51.55-4.8s40 1.8 51.55 4.8a50.37 50.37 0 0 1 9.53 3.36 11.92 11.92 0 0 1 2.66 1.64 10.71 10.71 0 0 1 1.72 2.62 44.16 44.16 0 0 1 3.23 9.07c2.85 11 4.54 27.23 4.54 49.8 0 91.48 52.42 171 129 210.7zm42.73 0c-89.2-29.16-153.78-112.6-153.78-210.68 0-41.48-5.5-64.1-14.16-72.67-3.47-3.43-9.78-6.6-19.66-9.14-13-3.32-31.17-5.2-55.13-5.2s-42.1 1.87-55.13 5.2c-9.88 2.53-16.2 5.7-19.66 9.14-8.66 8.56-14.16 31.2-14.16 72.67a218.84 218.84 0 0 1-8.42 60.68h-1a218 218 0 0 0 8.46-60.68c0-41.73 5.55-64.58 14.46-73.38 3.6-3.57 10.07-6.83 20.1-9.4 13.13-3.35 31.33-5.22 55.38-5.22s42.25 1.87 55.37 5.22c10 2.57 16.5 5.83 20.12 9.4 8.9 8.8 14.46 31.65 14.46 73.38 0 98.74 65.72 182.55 156.08 210.68zm69.84-5.63c-114.1 0-206.9-92-206.9-205 0-44.82-6.1-71.7-19.13-84.57s-41.33-19.15-86.54-19.15-73.5 6.3-86.54 19.15-19.15 39.7-19.15 84.53a202.37 202.37 0 0 1-9.16 60.67h-1a201.4 201.4 0 0 0 9.2-60.67c0-45.07 6.15-72.17 19.42-85.28s41.8-19.44 87.24-19.44 74 6.33 87.24 19.44 19.43 40.2 19.43 85.28c0 112.5 92.35 204 205.9 204zm0-1A205.75 205.75 0 0 0 2153.65 914a203 203 0 0 0 .2-289.29c-38.8-38.33-90.5-59.43-145.54-59.43-45.45 0-74-6.33-87.24-19.44s-19.43-40.2-19.43-85.3c0-112.5-92.37-204-206-204a205.73 205.73 0 0 0-145.32 59.39 201.64 201.64 0 0 0-60.66 144.64c0 45.07-6.15 72.17-19.43 85.3s-41.8 19.44-87.24 19.44a205.73 205.73 0 0 0-145.34 59.4 202.73 202.73 0 0 0-51.3 205.29h-1A203.73 203.73 0 0 1 1237 624a206.75 206.75 0 0 1 146-59.69c45.2 0 73.5-6.3 86.54-19.16s19.13-39.75 19.13-84.57a202.64 202.64 0 0 1 61-145.35 206.75 206.75 0 0 1 146-59.68c114.12 0 206.94 92 206.94 205 0 44.83 6.1 71.7 19.14 84.57s41.33 19.16 86.53 19.16c55.3 0 107.25 21.2 146.25 59.72a204 204 0 0 1-.21 290.71 206.76 206.76 0 0 1-146 59.65zm113.1 6.63a217.21 217.21 0 0 1 19.18-31.72 223.31 223.31 0 0 1-62 31.72h-3.26a222.5 222.5 0 0 0 67.39-34.51l2.8-2.1-2.1 2.8a218.15 218.15 0 0 0-20.9 33.81zm394.7 0h-1.2a71.58 71.58 0 0 1 9.39-11.44c20.38-20.13 54.57-29.1 110.74-29.1a172.54 172.54 0 0 0 121.83-49.76 168.49 168.49 0 0 0 50.69-120.84c0-55.37 9-89 29.4-109.1 19.3-19.08 51-28.13 102.1-29l.46 1c-51.1.84-82.7 9.82-101.84 28.74-20.15 19.9-29.12 53.26-29.12 108.4a169.52 169.52 0 0 1-51 121.55A173.55 173.55 0 0 1 2635 940.46c-55.93 0-89.9 8.9-110 28.8a71.2 71.2 0 0 0-8.94 10.73zm184.4 0a222.38 222.38 0 0 0 91.6-54.58 218.22 218.22 0 0 0 65.63-156.56c0-41.73 5.56-64.58 14.47-73.38 3.6-3.56 10.07-6.83 20.1-9.4 13.13-3.36 31.33-5.23 55.37-5.23q7.3 0 14.56-.43l.45 1q-7.47.48-15 .46c-24 0-42.08 1.87-55.12 5.2-9.88 2.52-16.2 5.7-19.66 9.14-8.67 8.56-14.17 31.18-14.17 72.66a219.22 219.22 0 0 1-65.93 157.27 223.26 223.26 0 0 1-89 53.87zm44.38 0a238.92 238.92 0 0 0 59-42.71 234.82 234.82 0 0 0 70.63-168.47c0-22.54 1.7-38.8 4.55-49.77a45.19 45.19 0 0 1 3.22-9.08 11.06 11.06 0 0 1 1.73-2.64 12.22 12.22 0 0 1 2.65-1.62 49.92 49.92 0 0 1 9.53-3.36c11.58-3 28.43-4.8 51.55-4.8q11.1 0 22.08-.95l.45 1q-11.2 1-22.53 1c-23 0-39.8 1.8-51.3 4.78a48.33 48.33 0 0 0-9.33 3.28 15.38 15.38 0 0 0-1.89 1.08 4.08 4.08 0 0 0-.52.38 10.3 10.3 0 0 0-1.53 2.37 44.29 44.29 0 0 0-3.15 8.87c-2.82 10.9-4.5 27.06-4.5 49.52A235.85 235.85 0 0 1 2804.51 938a239.62 239.62 0 0 1-57.51 42zm133.56 0a317.11 317.11 0 0 0 79.38-198.54V781h.46a320.56 320.56 0 0 0 48.47-5.12l.44.94a321.24 321.24 0 0 1-48.41 5.17 318.11 318.11 0 0 1-79 198zm43.06 0a353.61 353.61 0 0 0 67.35-167.33l.05-.4h.4q16.18-1.9 32-5.2l.43.92q-15.8 3.34-32 5.24a354.46 354.46 0 0 1-67 166.81zm79.7 0A426.13 426.13 0 0 0 3046 870.27l.08-.3.3-.07 3.84-.95.43.93-3.74.92A426.83 426.83 0 0 1 3002.33 980zm19.1 0a443.87 443.87 0 0 0 38.4-92.85l.64 1.38A443.67 443.67 0 0 1 3021.4 980zm18.93 0a461.81 461.81 0 0 0 30-70.26l.6 1.3a462.17 462.17 0 0 1-29.49 69zm18.8 0a481.68 481.68 0 0 0 21.32-48.62l.6 1.27a481.31 481.31 0 0 1-20.79 47.35zm622 0h-578l-2.94-6.3-2.88 6.3h-1.1q1.75-3.74 3.43-7.5l-8.86-18.98q-5.54 13.4-11.88 26.48h-1.1q6.63-13.68 12.42-27.7l-45.67-97.87q-5.2 1.27-10.43 2.4A409.61 409.61 0 0 1 2982.89 980h-1.18a408.53 408.53 0 0 0 50.35-123.72l.07-.3.3-.07q5.28-1.12 10.53-2.4l-6.8-14.57q-8.6 2-17.3 3.64A389.31 389.31 0 0 1 2963.28 980h-1.2A388.35 388.35 0 0 0 3018 842l.07-.33.33-.06q8.74-1.62 17.4-3.64l-6.8-14.5q-12.13 2.7-24.48 4.6A372.37 372.37 0 0 1 2943.15 980h-1.2a371.5 371.5 0 0 0 61.61-152.46l.06-.36.35-.06q12.38-1.9 24.55-4.6l.3.63-14.36-30.76a337.84 337.84 0 0 1-39.9 5.46 336.43 336.43 0 0 1-72.9 182.14h-1.3a335.29 335.29 0 0 0 73.24-182.65v-.43h.43a339.23 339.23 0 0 0 40-5.42l-14.14-30.3a312.13 312.13 0 0 1-52.24 4.37h-5.33v3.35A302.1 302.1 0 0 1 2857.09 980h-1.4a301.11 301.11 0 0 0 85.62-211.12v-4.35h6.33a312.26 312.26 0 0 0 51.8-4.31l-6.85-14.67a288.46 288.46 0 0 1-44.94 3.36c-8.2 0-15.37.26-21.5.73-.37 5.6-.57 12.05-.57 19.4 0 77.53-30.5 150.3-85.86 204.9q-3.12 3.1-6.33 6.06h-1.47q3.6-3.32 7.1-6.77c55.16-54.4 85.56-126.94 85.56-204.2 0-7.55.2-14.16.6-19.88v-.43h.43c6.26-.5 13.6-.77 22-.77a287.8 287.8 0 0 0 44.5-3.3l.4.88-7.42-15.9a272.59 272.59 0 0 1-37.33 2.44c-15.78 0-27.9.92-36.72 2.43-1.3 8.22-2.06 19.55-2.06 34.4a269.08 269.08 0 0 1-80.89 193q-9.7 9.58-20.23 18.1h-1.6A271.46 271.46 0 0 0 2908 768.86c0-15.12.8-26.6 2.13-34.92l.05-.35.35-.06c8.93-1.56 21.2-2.5 37.25-2.5a271 271 0 0 0 36.88-2.39l.27.56-7.27-15.56a256 256 0 0 1-30 1.67c-25.34 0-41.6 2.22-50.72 5.33-2.8 8.3-4.8 23.78-4.8 48.23A252.42 252.42 0 0 1 2816.22 950a256.07 256.07 0 0 1-36.62 30h-1.8a255.77 255.77 0 0 0 37.71-30.76 251.51 251.51 0 0 0 75.62-180.38c0-24.78 2.05-40.42 4.94-48.78l.08-.23.23-.08c9.2-3.2 25.63-5.47 51.28-5.47a253 253 0 0 0 29.58-1.63L2955 665q-3.67.12-7.38.1c-45.2 0-73.5 6.3-86.53 19.15S2842 724 2842 768.86a202.67 202.67 0 0 1-61 145.37 206.81 206.81 0 0 1-146 59.68c-25.56 0-45.73 2-60.78 6.1h-3.62c15.5-4.76 36.83-7.1 64.4-7.1a205.79 205.79 0 0 0 145.33-59.4A201.65 201.65 0 0 0 2841 768.86c0-45.07 6.15-72.16 19.43-85.27s41.8-19.44 87.23-19.44q3.46 0 6.92-.1l-7.3-15.62c-50.3 0-81.45 7.67-98 24s-24.1 46.3-24.1 96.45a186 186 0 0 1-56 133.45A190.11 190.11 0 0 1 2635 957.18c-49.3 0-80.22 7.28-97.07 22.82h-1.45c16.9-16.26 48.25-23.82 98.52-23.82a189.1 189.1 0 0 0 133.55-54.58 185 185 0 0 0 55.67-132.74c0-50.4 7.58-80.55 24.4-97.17s47.9-24.18 98.2-24.26l.1.2-15.13-32.42c-104.1 3.75-140.4 44.07-140.4 154 0 85.53-70.16 154.34-156.3 154.34-74.37 0-117.28 15.53-138.72 56.42H2201.6a156.85 156.85 0 0 1 120.87-56.42c117.24 0 156.3-38.6 156.3-154.34 0-85.52 70.15-154.34 156.3-154.34 117.25 0 156.3-38.6 156.3-154.34a155.16 155.16 0 0 1 27.43-87.42l-8-17.13a168.48 168.48 0 0 0-35.72 104.09c0 55.45-9 89-29.36 109.07s-54.58 29.1-110.73 29.1A172.55 172.55 0 0 0 2513.15 648a168.48 168.48 0 0 0-50.68 120.82c0 55.4-9 89-29.35 109.07s-54.57 29.1-110.74 29.1a172.51 172.51 0 0 0-121.84 49.83 168.37 168.37 0 0 0-19.73 23.17h-1.22a168.44 168.44 0 0 1 20.25-23.86A173.51 173.51 0 0 1 2322.38 906c55.93 0 89.88-8.9 110-28.8s29.06-53.2 29.06-108.36a169.46 169.46 0 0 1 51-121.54A173.55 173.55 0 0 1 2635 597.27c55.92 0 89.87-8.9 110-28.8s29.06-53.15 29.06-108.36a169.5 169.5 0 0 1 36.27-105.1l-7.37-15.8a185.08 185.08 0 0 0-44.59 120.91c0 50.37-7.58 80.57-24.4 97.18s-48.24 24.27-99 24.27a189.09 189.09 0 0 0-133.55 54.58 185.07 185.07 0 0 0-55.67 132.73c0 50.4-7.57 80.57-24.4 97.18s-48.25 24.27-99 24.27A189.11 189.11 0 0 0 2188.82 945a185.13 185.13 0 0 0-28.05 35h-1.17a185.59 185.59 0 0 1 28.52-35.76 190.07 190.07 0 0 1 134.26-54.93c50.5 0 81.73-7.64 98.3-24s24.1-46.3 24.1-96.47a186 186 0 0 1 56-133.44A190.11 190.11 0 0 1 2635 580.55c50.5 0 81.73-7.64 98.28-24s24.1-46.34 24.1-96.47a186 186 0 0 1 45.13-121.89l-7.22-15.47a201.64 201.64 0 0 0-53.57 137.36c0 45.06-6.16 72.15-19.44 85.27s-41.8 19.46-87.23 19.46a205.76 205.76 0 0 0-145.34 59.39 201.63 201.63 0 0 0-60.65 144.64c0 45.1-6.15 72.18-19.43 85.28s-41.8 19.44-87.24 19.44a205.73 205.73 0 0 0-145.3 59.44 201.31 201.31 0 0 0-35.71 47h-1.14a202.48 202.48 0 0 1 36.15-47.73 206.79 206.79 0 0 1 146-59.69c45.2 0 73.5-6.28 86.54-19.15s19.13-39.73 19.13-84.57A202.67 202.67 0 0 1 2489 623.5a206.74 206.74 0 0 1 146-59.67c45.2 0 73.5-6.3 86.53-19.17s19.14-39.75 19.14-84.56a202.7 202.7 0 0 1 54.11-138.34l.22.47-14.88-31.9-1.3 1.26a234.85 234.85 0 0 0-70.65 168.5c0 22.55-1.7 38.8-4.54 49.8a45.62 45.62 0 0 1-3.23 9.07 10.85 10.85 0 0 1-1.73 2.64 12.54 12.54 0 0 1-2.65 1.63 50.71 50.71 0 0 1-9.53 3.35c-11.58 3-28.43 4.8-51.55 4.8a239 239 0 0 0-168.78 69 234.86 234.86 0 0 0-70.63 168.45c0 22.55-1.7 38.8-4.54 49.8a45.86 45.86 0 0 1-3.23 9.07 11.12 11.12 0 0 1-1.71 2.62 12.25 12.25 0 0 1-2.67 1.65 49.75 49.75 0 0 1-9.53 3.35c-11.58 3-28.43 4.8-51.55 4.8a240.55 240.55 0 0 0-90.71 17.51l-1.08.44.48-1.07a237.17 237.17 0 0 0-53.66-256c-45.1-44.55-105.14-69.08-169-69.08-23.2 0-40.1-1.8-51.68-4.84a49.64 49.64 0 0 1-9.42-3.33 12.23 12.23 0 0 1-2.64-1.63 11.12 11.12 0 0 1-1.71-2.62 45.16 45.16 0 0 1-3.24-9.07c-2.84-11-4.54-27.24-4.54-49.8 0-130.94-107.4-237.48-239.43-237.48a239 239 0 0 0-168.81 69 234.86 234.86 0 0 0-70.63 168.45c0 22.55-1.7 38.8-4.54 49.8a44.16 44.16 0 0 1-3.23 9.07 10.86 10.86 0 0 1-1.71 2.62 12.25 12.25 0 0 1-2.67 1.65 49.87 49.87 0 0 1-9.52 3.35c-11.58 3-28.44 4.8-51.56 4.8a239 239 0 0 0-168.8 69A236.42 236.42 0 0 0 1151.42 830h-1a237.43 237.43 0 0 1 63.07-229.8A240 240 0 0 1 1383 530.89c23 0 39.8-1.8 51.3-4.78a48.71 48.71 0 0 0 9.34-3.28 17.64 17.64 0 0 0 1.88-1.07 4.18 4.18 0 0 0 .52-.39 10.26 10.26 0 0 0 1.53-2.36 44.29 44.29 0 0 0 3.15-8.87c2.83-10.9 4.5-27.07 4.5-49.54a235.84 235.84 0 0 1 70.93-169.16 240.05 240.05 0 0 1 169.51-69.32c132.57 0 240.43 107 240.43 238.48 0 22.48 1.7 38.66 4.5 49.55a43.47 43.47 0 0 0 3.16 8.86 10.09 10.09 0 0 0 1.51 2.36 4.81 4.81 0 0 0 .53.39 17.09 17.09 0 0 0 1.86 1.07 49.39 49.39 0 0 0 9.23 3.25c11.5 3 28.3 4.8 51.43 4.8 64.17 0 124.46 24.64 169.75 69.36a238.19 238.19 0 0 1 54.31 256 241.42 241.42 0 0 1 90-17.15c23 0 39.8-1.8 51.3-4.78a48.71 48.71 0 0 0 9.34-3.28 17.93 17.93 0 0 0 1.89-1.07 4.61 4.61 0 0 0 .51-.39 10.3 10.3 0 0 0 1.53-2.37 44.06 44.06 0 0 0 3.15-8.87c2.83-10.9 4.5-27.06 4.5-49.53a235.88 235.88 0 0 1 70.93-169.17A240.07 240.07 0 0 1 2635 530.38c23 0 39.8-1.8 51.3-4.77a49.41 49.41 0 0 0 9.34-3.28 17.64 17.64 0 0 0 1.88-1.07 4.9 4.9 0 0 0 .52-.39 10.06 10.06 0 0 0 1.53-2.36 44.52 44.52 0 0 0 3.15-8.87c2.82-10.9 4.5-27.07 4.5-49.54a235.86 235.86 0 0 1 70.94-169.21l1.55-1.5.16.35-14.55-31.2q-5 4.5-9.84 9.26a268 268 0 0 0-80.58 192.27c0 15.1-.8 26.55-2.13 34.93l-.06.35-.35.06c-9 1.57-21.24 2.5-37.25 2.5a272.21 272.21 0 0 0-192.33 78.64 268 268 0 0 0-80.59 192.27c0 15.1-.8 26.57-2.13 34.93l-.06.35-.35.06c-9 1.57-21.24 2.5-37.25 2.5a280 280 0 0 0-43.58 3.39l-.68.1.1-.67a273.66 273.66 0 0 0 3-40.24 268.15 268.15 0 0 0-80.33-192.19c-51.4-50.77-119.78-78.73-192.54-78.73-16 0-28.3-.94-37.26-2.5l-.35-.06v-.36c-1.34-8.36-2.13-19.84-2.13-34.93 0-149.38-122.4-270.9-272.87-270.9a272.2 272.2 0 0 0-192.27 78.64 268 268 0 0 0-80.59 192.32c0 15.1-.8 26.57-2.13 34.93l-.06.35-.35.07c-8.93 1.56-21.2 2.5-37.26 2.5A272.25 272.25 0 0 0 1190.68 577c-52 51.27-80.6 119.55-80.6 192.32a270.78 270.78 0 0 0 3.11 41.11l.1.67-.67-.1a278.68 278.68 0 0 0-34.48-3.23l-.2-.44 7.7 16.5a257.54 257.54 0 0 1 42.25 6.13h-4.63a258.12 258.12 0 0 0-37.14-5.1l2.38 5.1H20V170h760.77L792 194.15q5.3-5.48 10.66-10.74 6.8-6.72 14-13.37h1.47q-7.54 7-14.73 14.08-5.48 5.4-10.9 11l7.12 15.27q7.38-7.74 14.83-15.08 12.95-12.77 27.08-25.27H843q-14.54 12.84-27.88 26-7.58 7.45-15.07 15.33l-.34-.73 7.48 16.06q9.4-10 19-19.46c12.74-12.66 26.43-25.1 40.8-37.24h1.57c-14.7 12.36-28.7 25.05-41.74 37.9q-9.68 9.54-19.2 19.73l-.16-.35 15 32.14q13.4-14.84 27.16-28.42a725.62 725.62 0 0 1 70.91-61h1.65a724.49 724.49 0 0 0-71.86 61.71q-13.87 13.66-27.4 28.7l14.94 32c11.47-13.24 23.25-25.83 35.22-37.63 30.66-30.22 66.54-59.1 105-84.82h1.8c-38.93 25.9-75.2 55-106.13 85.53-12.06 11.88-23.92 24.57-35.46 37.9l-.37-.78 15.44 33.12c13.9-16.75 28.34-32.56 43.15-47.17 41-40.4 91.42-78.06 145-108.6h2c-54.13 30.65-105 68.58-146.4 109.32-14.9 14.7-29.42 30.6-43.38 47.46l-.2-.42 7.56 16.22a631.7 631.7 0 0 1 47.07-52C955.2 244.3 1014.4 202 1076.75 170h2.2c-62.9 32.06-122.68 74.66-170 121.25a630.16 630.16 0 0 0-47.3 52.33l7.4 15.85a621.49 621.49 0 0 1 50.94-57c50.5-49.76 115.22-94.6 182.87-126.73q1.4-2.85 2.82-5.68h1.1l-3.1 6.28-.07.15-.16.08c-67.6 32.08-132.3 76.9-182.76 126.6a622.41 622.41 0 0 0-51.17 57.34l7.6 16.3-.15-.34a611.76 611.76 0 0 1 54.75-62.12c50.64-49.9 115.62-94.5 183.6-126q4.4-9.2 9.12-18.3h1.1q-4.86 9.4-9.4 18.88l-.08.17-.16.07c-67.9 31.45-132.84 76-183.43 125.84a610.86 610.86 0 0 0-55 62.43l7.92 17-.4-.88a599.1 599.1 0 0 1 58.5-67.28c50.7-50 115.92-94.3 184.38-125.28q7.3-15.63 15.5-31h1.13q-8.37 15.63-15.8 31.6l-.08.17-.17.08C1060.06 232.77 994.87 277 944.2 327a601.67 601.67 0 0 0-58.73 67.59l16 34.24-.3-.7A576.87 576.87 0 0 1 967 350.08c51.17-50.42 117-94.15 186.08-123.62a609.1 609.1 0 0 1 28.5-56.46h1.15a608.21 608.21 0 0 0-28.81 57l-.08.18-.18.08c-69 29.42-134.83 73.12-186 123.5a576.85 576.85 0 0 0-66.07 78.39l7.67 16.44A567 567 0 0 1 978.71 362c51.38-50.62 117.55-94 187-122.7a591.9 591.9 0 0 1 35.15-69.29h1.14a590.51 590.51 0 0 0-35.46 69.86l-.08.18-.2.08c-69.42 28.64-135.55 72-186.88 122.58a564.51 564.51 0 0 0-69.65 84l7.75 16.62a551.83 551.83 0 0 1 72.93-89.41c51.6-50.83 118.1-93.88 188-121.74a577.45 577.45 0 0 1 41.9-82.15h1.18a576.42 576.42 0 0 0-42.23 82.73l-.1.2-.2.08c-69.87 27.8-136.33 70.82-187.88 121.6A550.4 550.4 0 0 0 918 464.37l7.83 16.8a538.62 538.62 0 0 1 76.33-95.38c51.8-51.06 118.66-93.72 189.07-120.7a561.8 561.8 0 0 1 48.8-95.1h1.2a560 560 0 0 0-49.14 95.67l-.08.2-.2.08c-70.36 26.93-137.18 69.55-188.93 120.56a537 537 0 0 0-76.53 95.75l7.92 17a523.6 523.6 0 0 1 79.65-101.54c52.05-51.3 119.33-93.6 190.2-119.6A543 543 0 0 1 1260 170h1.2a542 542 0 0 0-56.2 108.69l-.08.2-.22.08c-70.82 25.94-138.07 68.2-190.07 119.45a523.61 523.61 0 0 0-79.84 101.91l16.72 35.9c23.2-42.54 52.44-81.75 85.9-114.7 52.65-51.88 120.83-93.25 192.78-117A506.2 506.2 0 0 1 1300.77 170h1.23a505.5 505.5 0 0 0-70.94 135.06l-.08.23-.23.08c-71.9 23.7-140 65-192.63 116.87-33.55 33.05-62.85 72.4-86.07 115.12l36.12 77.45a427.63 427.63 0 0 1 96.17-145.67c54.25-53.45 124.7-92.47 199.5-110.53A428.38 428.38 0 0 1 1387.62 170h1.38a427.17 427.17 0 0 0-104.27 189.15l-.07.3-.3.07c-74.74 18-145.14 56.95-199.32 110.35a426.36 426.36 0 0 0-96.3 146.21l9.3 19.94a409.84 409.84 0 0 1 98-155c54.74-53.94 125.92-92.2 201.57-108.45a409.79 409.79 0 0 1 111.12-200.27l2.38-2.3h1.43q-1.56 1.5-3.1 3a408.71 408.71 0 0 0-110.92 200.09l-.07.3-.32.07c-75.58 16.16-146.7 54.37-201.38 108.25a408.67 408.67 0 0 0-98.12 155.58l32.84 70.44-.44-1a354.56 354.56 0 0 1 100.25-190 358.43 358.43 0 0 1 209.61-100.54A354.57 354.57 0 0 1 1444 208a361.38 361.38 0 0 1 45.5-38h1.74a360.24 360.24 0 0 0-46.54 38.75 353.48 353.48 0 0 0-102.82 208v.4l-.4.05A357.3 357.3 0 0 0 1132 517.51a353.47 353.47 0 0 0-100.23 190.87l12.23 26.14a336.33 336.33 0 0 1 99-205.82 340.29 340.29 0 0 1 213.07-97.14 336.35 336.35 0 0 1 99.6-211.63 342.11 342.11 0 0 1 64.4-49.93h1.93a341.38 341.38 0 0 0-65.64 50.64 335.43 335.43 0 0 0-99.34 211.43v.42h-.42a339.33 339.33 0 0 0-212.87 96.89 335.35 335.35 0 0 0-98.91 206.88l-.7-1.52 18 38.53q3.64-.1 7.3-.1l6.32.06v-3.93c0-82.07 32.26-159.08 90.85-216.8 57.9-57.07 134.76-88.5 216.42-88.5h5.33v-3.38c0-82.07 32.27-159.06 90.86-216.8a306.17 306.17 0 0 1 121.5-73.82h3.3a305.31 305.31 0 0 0-124.13 74.48c-58.4 57.55-90.56 134.3-90.56 216.1v4.35h-.48l-5.85.05c-81.38 0-158 31.33-215.75 88.25-58.4 57.55-90.55 134.3-90.55 216.1v5h-.52c-1.9-.07-3.4-.08-6.8-.08l-6.84.08 15.15 32.5a280 280 0 0 1 34.44 3.15 271.44 271.44 0 0 1-3-40.58c0-73 28.72-141.58 80.88-193a273.21 273.21 0 0 1 193-78.93c15.8 0 27.9-.9 36.74-2.43 1.3-8.27 2.06-19.6 2.06-34.4a269 269 0 0 1 80.88-193 273.27 273.27 0 0 1 193-78.93c151 0 273.87 122 273.87 271.9 0 14.83.77 26.15 2.06 34.42 8.85 1.52 20.94 2.43 36.73 2.43 73 0 141.65 28.06 193.24 79a269.12 269.12 0 0 1 80.63 192.9 274.82 274.82 0 0 1-2.86 39.71 281 281 0 0 1 43.07-3.3c15.75 0 27.83-.92 36.73-2.43 1.3-8.27 2.06-19.6 2.06-34.42a269 269 0 0 1 80.89-193 273.2 273.2 0 0 1 193-78.93c15.75 0 27.83-.92 36.73-2.43 1.3-8.3 2.06-19.6 2.06-34.42a269 269 0 0 1 80.88-193q4.93-4.9 10.1-9.48l-7.16-15.35.26.57q-7.38 6.36-14.36 13.25c-55.16 54.4-85.56 126.93-85.56 204.2 0 7.52-.2 14.18-.6 19.9v.43h-.43c-6.38.5-13.68.77-22 .77a288.87 288.87 0 0 0-204 83.42c-55.17 54.4-85.57 126.9-85.57 204.18 0 7.52-.2 14.18-.6 19.9v.43h-.43c-6.26.5-13.58.77-22 .77s-16.7.32-24.7 1h-.6v-.58c.5-7 .76-14.1.76-21.14a284.78 284.78 0 0 0-85.3-204.12c-54.55-53.88-127.1-83.55-204.3-83.55-8.43 0-15.76-.27-22-.77h-.43v-.43c-.4-5.72-.6-12.33-.6-19.9C1985.2 302 1855.3 173 1695.6 173a288.88 288.88 0 0 0-204 83.41c-55.18 54.4-85.6 126.93-85.6 204.2 0 7.52-.22 14.18-.6 19.9v.44h-.43c-6.26.5-13.58.77-22 .77a288.9 288.9 0 0 0-204 83.41c-55.17 54.4-85.58 126.93-85.58 204.2 0 7.3.3 14.7.85 22v.6l-.58-.05c-7.82-.62-15.63-.95-23.38-1l-.47-1q11.6 0 23.35.94a287.91 287.91 0 0 1-.81-21.54c0-77.53 30.5-150.32 85.88-204.9A289.83 289.83 0 0 1 1383 480.73c8.2 0 15.36-.26 21.5-.73.36-5.6.57-12.1.57-19.4 0-77.53 30.5-150.3 85.87-204.9a289.85 289.85 0 0 1 204.67-83.7c160.23 0 290.6 129.48 290.6 288.63 0 7.35.2 13.8.57 19.4 6.13.47 13.3.73 21.5.73 77.45 0 150.25 29.77 205 83.84a285.76 285.76 0 0 1 85.6 204.83 289.53 289.53 0 0 1-.73 20.63q11.77-.94 24.2-.94c8.2 0 15.36-.25 21.5-.73.37-5.6.57-12.08.57-19.4 0-77.53 30.5-150.3 85.87-204.9A289.84 289.84 0 0 1 2635 480.4c8.12 0 15.25-.26 21.5-.73.37-5.6.57-12.08.57-19.4 0-77.53 30.5-150.3 85.86-204.9q7.1-7 14.62-13.5l-7.28-15.6.36.78q-9.66 8.07-18.73 17c-58.4 57.54-90.56 134.3-90.56 216.1v4.35H2635a305.5 305.5 0 0 0-215.76 88.27c-58.4 57.55-90.54 134.28-90.54 216.1v4.36h-6.33l-7.28.1h-.5v-4a301.38 301.38 0 0 0-90.29-216c-57.73-57-134.46-88.33-216-88.33h-6.37v-4.37c0-167.8-137.4-304.35-306.3-304.35a310.15 310.15 0 0 0-76.62 9.55v-1a310.61 310.61 0 0 1 76.62-9.52c169.45 0 307.3 137 307.3 305.35v3.37h5.38c81.84 0 158.82 31.48 216.74 88.6a302.41 302.41 0 0 1 90.59 216.71v3q3.4-.08 6.8-.08h5.33v-3.36c0-82.07 32.26-159.07 90.84-216.8 57.94-57.1 134.82-88.55 216.46-88.55h5.33v-3.35c0-82.07 32.27-159.08 90.85-216.8q9.2-9.06 19-17.24l-6.87-14.76q-12 9.75-23.1 20.7c-58.54 57.7-92.15 133.73-95.3 215.4v.47h-.46a321.88 321.88 0 0 0-216.88 92.9 318.27 318.27 0 0 0-85.44 147.73l-.48 1.87-.48-1.87a318.38 318.38 0 0 0-85.05-147.15 321.85 321.85 0 0 0-217.19-93h-.47v-.47c-6.84-171.75-149.52-308.5-322.87-308.5a326.75 326.75 0 0 0-76.65 9v-1a327.92 327.92 0 0 1 76.65-9c173.75 0 316.75 136.92 323.76 309a322.81 322.81 0 0 1 217.39 93.24 319.26 319.26 0 0 1 84.83 145.76 319.25 319.25 0 0 1 85.22-146.34 322.87 322.87 0 0 1 217.08-93.18c3.26-81.73 37-157.83 95.58-215.6q11.23-11.07 23.36-20.92l-6.87-14.66a342.46 342.46 0 0 0-27.57 24.41 335.39 335.39 0 0 0-99.34 211.43v.42h-.43A340 340 0 0 0 2322 636.94l-.46 1.07-.46-1.06a339.53 339.53 0 0 0-286.49-204.44h-.43v-.42c-6.88-81.7-43.12-157.37-102.9-214.63a339 339 0 0 0-235.65-94.67 344 344 0 0 0-76.61 8.58v-1a344.73 344.73 0 0 1 76.61-8.56 340 340 0 0 1 236.35 95c59.84 57.32 96.17 133.07 103.16 214.84a340.55 340.55 0 0 1 286.45 203.94 341 341 0 0 1 286.59-204.49 336.33 336.33 0 0 1 99.6-211.63 347.07 347.07 0 0 1 27.83-24.63l.14.3-7-14.92a360.53 360.53 0 0 0-32.05 28.06 353.44 353.44 0 0 0-102.81 208v.4h-.4A357.18 357.18 0 0 0 2322 598.88l-.44.8-.44-.8a356.56 356.56 0 0 0-271.3-181.69l-.4-.05v-.4c-22.9-177.84-174.45-310.93-353.76-310.7a360.75 360.75 0 0 0-76.64 8.18v-1a361.46 361.46 0 0 1 76.64-8.16c179.68-.23 331.55 133 354.7 311.2a357.61 357.61 0 0 1 271.21 181.34A358.17 358.17 0 0 1 2593 415.79a354.43 354.43 0 0 1 103-208.22 360.38 360.38 0 0 1 32.32-28.28l-6.82-14.6a378.06 378.06 0 0 0-36.5 31.69 371.88 371.88 0 0 0-105.85 205.05l-.05.36-.36.06A374.17 374.17 0 0 0 2322 566.52l-.42.63-.42-.63a373.54 373.54 0 0 0-256.57-164.23l-.36-.05-.05-.36c-29.66-180.4-185.7-312.75-368.53-312.55a378.48 378.48 0 0 0-76.65 7.79v-1a379.19 379.19 0 0 1 76.61-7.77c183.2-.2 339.57 132.3 369.45 313a374.54 374.54 0 0 1 256.48 164 375.2 375.2 0 0 1 256.65-164.45 372.87 372.87 0 0 1 106.06-205.24 379.53 379.53 0 0 1 36.83-31.91l.24.5-7-15.08a394.91 394.91 0 0 0-41.07 35.26 390.32 390.32 0 0 0-108.55 202.47l-.07.34-.33.06a390.76 390.76 0 0 0-242.39 150.14l-.4.54-.4-.54a390.3 390.3 0 0 0-242.2-149.7l-.33-.06-.07-.34a389.84 389.84 0 0 0-382.9-314.74 396 396 0 0 0-76.61 7.44V79a396.87 396.87 0 0 1 76.61-7.42 390.85 390.85 0 0 1 383.82 315.22 391.34 391.34 0 0 1 242.08 149.49 391.84 391.84 0 0 1 242.27-149.94 390.27 390.27 0 0 1 150.07-238.13l-7.2-15.42.4.9a406.3 406.3 0 0 0-156.48 239l-.07.3-.3.07c-75.6 16.16-146.7 54.37-201.37 108.25-9.4 9.26-18.42 19.05-26.94 29.24l-.4.46-.38-.46c-8.35-10-17.16-19.55-26.34-28.6-54.68-54-125.94-92.3-201.77-108.47l-.3-.07-.07-.3a406.6 406.6 0 0 0-397-317.22 411.17 411.17 0 0 0-76.64 7.14V62a413.79 413.79 0 0 1 76.63-7.12 407.58 407.58 0 0 1 397.91 317.69c75.9 16.24 147.22 54.6 202 108.67a404.93 404.93 0 0 1 26 28.2c8.44-10 17.34-19.7 26.63-28.85 54.72-53.94 125.9-92.2 201.55-108.45a409.6 409.6 0 0 1 111.1-200.31 414.46 414.46 0 0 1 45.85-39l-7.07-15.15.3.65a427.87 427.87 0 0 0-50.07 42.32c-54.38 53.6-94.3 123.57-113 198.06l-.08.3-.3.07c-74.7 18-145.1 57-199.27 110.33q-7.8 7.7-15.23 15.8l-.37.4-.37-.4c-4.4-4.8-9.16-9.7-14.58-15.13-54.2-53.53-124.74-92.57-199.7-110.58l-.3-.07-.08-.3a427.23 427.23 0 0 0-117.38-202 422.22 422.22 0 0 0-293.5-117.91A429.5 429.5 0 0 0 1619 46v-1a430.59 430.59 0 0 1 76.66-6.84 423.22 423.22 0 0 1 294.19 118.19 428.33 428.33 0 0 1 117.59 202.23c75 18.08 145.6 57.18 199.87 110.77 5.27 5.28 9.92 10.08 14.24 14.77q7.27-7.92 14.9-15.44c54.22-53.44 124.66-92.45 199.44-110.52 18.8-74.56 58.77-144.58 113.2-198.24a428.59 428.59 0 0 1 50.35-42.52l-28.5-61.1.2.47A494.09 494.09 0 0 0 2602.8 113c-52.8 52-95.12 119.7-119.7 191.5l-.08.23-.24.08a504.68 504.68 0 0 0-161 88.59l-.32.26-.3-.26a504.39 504.39 0 0 0-160.71-88.11l-.24-.08-.08-.23c-25.32-73.8-69.42-143.18-124.72-196.14A488.4 488.4 0 0 0 1907 20h2.32a489.54 489.54 0 0 1 126.8 88.17c55.36 53 99.5 122.45 124.9 196.3a505.1 505.1 0 0 1 160.47 87.95A505.74 505.74 0 0 1 2482.22 304c24.65-71.86 67-139.64 119.88-191.66a495.36 495.36 0 0 1 68.63-56.49l-13.9-29.8a528 528 0 0 0-77.5 63.15c-52.25 51.45-95.5 118.34-122.3 189l-.08.2-.2.08a545 545 0 0 0-135 72.54l-.3.22-.3-.22a545.13 545.13 0 0 0-134.63-72.17l-.2-.08-.08-.2c-27.64-72.77-72.77-141.37-127.6-193.93A521.59 521.59 0 0 0 1976.19 20h1.8a522.12 522.12 0 0 1 81.22 63.94C2114.16 136.55 2159.34 205.2 2187 278a545.76 545.76 0 0 1 134.36 72 546.08 546.08 0 0 1 134.78-72.38C2483 206.9 2526.32 140 2578.6 88.48a529.19 529.19 0 0 1 77.79-63.35L2654 20h1026z" fill="url(#E)"/></svg>