<svg id="Layer_1" data-name="Layer 1" xmlns="http://www.w3.org/2000/svg" viewBox="0 0 3700 1000"><title>paperwalletemptyD</title><path id="Rectangle" d="M111,259a10,10,0,0,0-10,10V729a10,10,0,0,0,10,10H571a10,10,0,0,0,10-10V269a10,10,0,0,0-10-10Zm0-10H571a20,20,0,0,1,20,20V729a20,20,0,0,1-20,20H111a20,20,0,0,1-20-20V269A20,20,0,0,1,111,249Z"/><g style="isolation:isolate"><path d="M202.66,202.8h13q4.6,0,7.16,2.32a9.48,9.48,0,0,1,0,13q-2.55,2.32-7.16,2.32H208.9V231h-6.24Zm12.16,12.88q4.68,0,4.68-4a3.83,3.83,0,0,0-1.16-3.08,5.25,5.25,0,0,0-3.52-1H208.9v8.12Z"/><path d="M253.82,231H247l-4.88-9a3.87,3.87,0,0,0-1.44-1.5,4.32,4.32,0,0,0-2.12-.46H235.5v11h-6.16V202.8h13q5,0,7.5,2.18a7.82,7.82,0,0,1,2.54,6.3,8.14,8.14,0,0,1-1.78,5.36,8.48,8.48,0,0,1-5,2.84,6.17,6.17,0,0,1,3.72,3.16Zm-8.56-16.62a4.23,4.23,0,0,0,0-5.9,6.46,6.46,0,0,0-3.88-.92h-6v7.76h6A6.3,6.3,0,0,0,245.26,214.38Z"/><path d="M257.34,231V202.8h6.24V231Z"/><path d="M289.78,202.8h6.32L283.42,231h-5L265.7,202.8h6.48l8.8,20.44Z"/><path d="M316.94,231l-2.68-6.24H301.14L298.46,231h-6.28l13-28.2h5l13,28.2Zm-13.76-11h9l-4.52-10.56Z"/><path d="M328.34,231V207.88H319.5V202.8h23.92v5.08h-8.84V231Z"/><path d="M346.66,231V202.8H366.1v4.84H352.74v6.6H365.3v4.84H352.74v7.08H366.1V231Z"/><path d="M385.18,230.5a14.65,14.65,0,0,1-4.92-2.38l2-4.44a15.68,15.68,0,0,0,9.16,2.84,7.94,7.94,0,0,0,4.06-.86,2.65,2.65,0,0,0,1.42-2.38,2.34,2.34,0,0,0-1.3-2.12,17.34,17.34,0,0,0-4.62-1.48,25.76,25.76,0,0,1-5.94-1.84,7.78,7.78,0,0,1-3.24-2.66,7,7,0,0,1-1-3.9,7.64,7.64,0,0,1,1.42-4.56,9.49,9.49,0,0,1,4-3.14,14.44,14.44,0,0,1,5.92-1.14,18.92,18.92,0,0,1,5.78.88,11.85,11.85,0,0,1,4.42,2.36l-2,4.44a13.64,13.64,0,0,0-8.16-2.84,6.77,6.77,0,0,0-3.84.94,3,3,0,0,0-1.4,2.58,2.31,2.31,0,0,0,.54,1.58,4.52,4.52,0,0,0,1.8,1.1,27.89,27.89,0,0,0,3.58,1c3.63.8,6.23,1.83,7.82,3.08a6.25,6.25,0,0,1,2.38,5.2,7.44,7.44,0,0,1-3.08,6.3q-3.07,2.3-8.6,2.3A22.09,22.09,0,0,1,385.18,230.5Z"/><path d="M407.46,231V202.8H426.9v4.84H413.54v6.6H426.1v4.84H413.54v7.08H426.9V231Z"/><path d="M431.14,231V202.8h19.44v4.84H437.22v6.6h12.56v4.84H437.22v7.08h13.36V231Z"/><path d="M454.82,202.8h11a17.34,17.34,0,0,1,7.92,1.68,11.71,11.71,0,0,1,5.08,4.84,15.36,15.36,0,0,1,1.76,7.56,15.58,15.58,0,0,1-1.74,7.58,11.6,11.6,0,0,1-5.06,4.86,17.45,17.45,0,0,1-8,1.68h-11ZM465.34,226q9,0,9-9.08t-9-9h-4.28V226Z"/></g><g id="DO-NOT-SHARE-THIS-WI" style="isolation:isolate"><g style="isolation:isolate"><path d="M103.72,772.67h7.12a11.25,11.25,0,0,1,5.15,1.09,7.61,7.61,0,0,1,3.3,3.15,9.88,9.88,0,0,1,1.15,4.91,10.17,10.17,0,0,1-1.13,4.93,7.56,7.56,0,0,1-3.29,3.16,11.35,11.35,0,0,1-5.18,1.09h-7.12Zm6.84,15.05c3.9,0,5.85-2,5.85-5.9s-2-5.87-5.85-5.87h-2.78v11.77Z"/><path d="M127.21,790.08a7.88,7.88,0,0,1-3.11-3.28,11.92,11.92,0,0,1,0-10,7.77,7.77,0,0,1,3.11-3.26,10.45,10.45,0,0,1,9.49,0,7.77,7.77,0,0,1,3.11,3.26,11.92,11.92,0,0,1,0,10,7.88,7.88,0,0,1-3.11,3.28,10.36,10.36,0,0,1-9.49,0Zm8.35-3.6a7.27,7.27,0,0,0,1.31-4.66,7.19,7.19,0,0,0-1.3-4.64,4.87,4.87,0,0,0-7.22,0,9,9,0,0,0,0,9.3,4.36,4.36,0,0,0,3.59,1.61A4.42,4.42,0,0,0,135.56,786.48Z"/><path d="M163.31,772.67h3.8V791h-3L155,779.33V791H151.2V772.67h3l9.12,11.62Z"/><path d="M174.4,790.08a7.88,7.88,0,0,1-3.11-3.28,11.92,11.92,0,0,1,0-10,7.77,7.77,0,0,1,3.11-3.26,10.45,10.45,0,0,1,9.49,0,7.77,7.77,0,0,1,3.11,3.26,11.92,11.92,0,0,1,0,10,7.88,7.88,0,0,1-3.11,3.28,10.36,10.36,0,0,1-9.49,0Zm8.35-3.6a7.27,7.27,0,0,0,1.31-4.66,7.19,7.19,0,0,0-1.3-4.64,4.87,4.87,0,0,0-7.22,0,9,9,0,0,0,0,9.3,4.36,4.36,0,0,0,3.59,1.61A4.42,4.42,0,0,0,182.75,786.48Z"/><path d="M194.36,791V776h-5.75v-3.3h15.55V776h-5.75v15Z"/><path d="M215.91,790.68a9.64,9.64,0,0,1-3.2-1.55l1.3-2.89a10.18,10.18,0,0,0,6,1.85,5.13,5.13,0,0,0,2.64-.56,1.73,1.73,0,0,0,.93-1.55,1.52,1.52,0,0,0-.85-1.38,11.49,11.49,0,0,0-3-1,17.08,17.08,0,0,1-3.86-1.19,5.11,5.11,0,0,1-2.11-1.73,4.61,4.61,0,0,1-.66-2.54,5,5,0,0,1,.92-3,6.13,6.13,0,0,1,2.59-2,9.28,9.28,0,0,1,3.85-.74,12.35,12.35,0,0,1,3.75.57,7.68,7.68,0,0,1,2.88,1.53l-1.3,2.89a8.85,8.85,0,0,0-5.31-1.85,4.47,4.47,0,0,0-2.49.61,1.92,1.92,0,0,0-.91,1.68,1.48,1.48,0,0,0,.35,1,2.86,2.86,0,0,0,1.17.71,16.41,16.41,0,0,0,2.33.65,13,13,0,0,1,5.08,2,4.08,4.08,0,0,1,1.54,3.38,4.82,4.82,0,0,1-2,4.1,9.15,9.15,0,0,1-5.59,1.49A14.36,14.36,0,0,1,215.91,790.68Z"/><path d="M242.82,772.67h4V791h-4v-7.7h-8.45V791h-4V772.67h4v7.41h8.45Z"/><path d="M264.4,791l-1.74-4.06h-8.53L252.39,791H248.3l8.43-18.33H260L268.4,791Zm-8.95-7.12h5.88L258.39,777Z"/><path d="M285.82,791H281.4l-3.17-5.85a2.38,2.38,0,0,0-.94-1,2.81,2.81,0,0,0-1.37-.3h-2V791h-4V772.67h8.42a7.29,7.29,0,0,1,4.88,1.42,5.09,5.09,0,0,1,1.65,4.09,5.32,5.32,0,0,1-1.16,3.49,5.54,5.54,0,0,1-3.26,1.84,4.06,4.06,0,0,1,2.42,2.06Zm-5.56-10.8a2.75,2.75,0,0,0,0-3.84,4.17,4.17,0,0,0-2.52-.6h-3.88v5h3.88A4.16,4.16,0,0,0,280.26,780.2Z"/><path d="M288.11,791V772.67h12.64v3.15h-8.69v4.29h8.17v3.14h-8.17v4.6h8.69V791Z"/><path d="M315,791V776h-5.75v-3.3h15.55V776H319v15Z"/><path d="M339.3,772.67h4V791h-4v-7.7h-8.45V791h-4V772.67h4v7.41h8.45Z"/><path d="M346.89,791V772.67H351V791Z"/><path d="M357,790.68a9.49,9.49,0,0,1-3.19-1.55l1.29-2.89a10.21,10.21,0,0,0,6,1.85,5.18,5.18,0,0,0,2.64-.56,1.74,1.74,0,0,0,.92-1.55,1.53,1.53,0,0,0-.84-1.38,11.74,11.74,0,0,0-3-1,17.08,17.08,0,0,1-3.86-1.19,5.07,5.07,0,0,1-2.1-1.73,4.54,4.54,0,0,1-.67-2.54,5,5,0,0,1,.93-3,6,6,0,0,1,2.58-2,9.28,9.28,0,0,1,3.85-.74,12.46,12.46,0,0,1,3.76.57,7.71,7.71,0,0,1,2.87,1.53l-1.3,2.89a8.85,8.85,0,0,0-5.3-1.85,4.51,4.51,0,0,0-2.5.61,1.92,1.92,0,0,0-.91,1.68,1.53,1.53,0,0,0,.35,1,3,3,0,0,0,1.17.71,16.81,16.81,0,0,0,2.33.65,13,13,0,0,1,5.08,2,4.09,4.09,0,0,1,1.55,3.38,4.85,4.85,0,0,1-2,4.1,9.17,9.17,0,0,1-5.59,1.49A14.43,14.43,0,0,1,357,790.68Z"/><path d="M401.55,772.67h3.84L398.87,791h-3.25l-4.24-12.14L387.09,791h-3.25l-6.5-18.33h4.11l4.18,12.66,4.45-12.66h2.83l4.29,12.79Z"/><path d="M407.66,791V772.67h4V791Z"/><path d="M419.56,791V776h-5.74v-3.3h15.55V776h-5.75v15Z"/><path d="M443.9,772.67h4V791h-4v-7.7h-8.45V791h-4V772.67h4v7.41h8.45Z"/><path d="M472.71,791,471,786.94h-8.53L460.7,791h-4.09L465,772.67h3.25L476.71,791Zm-8.95-7.12h5.88L466.7,777Z"/><path d="M490.33,772.67h3.8V791h-3L482,779.33V791h-3.77V772.67h3l9.12,11.62Z"/><path d="M513.81,772.67l-7.59,10V791h-4.05v-8.29l-7.57-10h4.6l5,6.79,5-6.79Z"/><path d="M516.89,790.08a7.79,7.79,0,0,1-3.1-3.28,11.82,11.82,0,0,1,0-10,7.69,7.69,0,0,1,3.1-3.26,10.45,10.45,0,0,1,9.49,0,7.71,7.71,0,0,1,3.11,3.26,11.92,11.92,0,0,1,0,10,7.82,7.82,0,0,1-3.11,3.28,10.36,10.36,0,0,1-9.49,0Zm8.35-3.6a7.27,7.27,0,0,0,1.31-4.66,7.19,7.19,0,0,0-1.3-4.64,4.86,4.86,0,0,0-7.21,0,9,9,0,0,0,0,9.3,4.37,4.37,0,0,0,3.59,1.61A4.42,4.42,0,0,0,525.24,786.48Z"/><path d="M545.77,772.67h3.79V791h-3l-9.13-11.67V791h-3.77V772.67h3l9.13,11.62Z"/><path d="M553.18,791V772.67h12.63v3.15h-8.68v4.29h8.16v3.14h-8.16v4.6h8.68V791Z"/><path d="M576.16,785.07l-1.22-12.43,4.83,0-1.24,12.4Zm-.91,1.77h4.21V791h-4.21Z"/></g></g><path d="M3146.63,260.25a10,10,0,0,0-10,10v460a10,10,0,0,0,10,10h460a10,10,0,0,0,10-10v-460a10,10,0,0,0-10-10Zm0-10h460a20,20,0,0,1,20,20v460a20,20,0,0,1-20,20h-460a20,20,0,0,1-20-20v-460A20,20,0,0,1,3146.63,250.25Z"/><g id="PUBLIC-ADDRESS" style="isolation:isolate"><g style="isolation:isolate"><path d="M3204.21,197.3h13q4.6,0,7.16,2.32a9.48,9.48,0,0,1,0,13q-2.55,2.32-7.16,2.32h-6.72v10.6h-6.24Zm12.16,12.88q4.68,0,4.68-4a3.83,3.83,0,0,0-1.16-3.08,5.25,5.25,0,0,0-3.52-1h-5.92v8.12Z"/><path d="M3233.83,222.8q-3.09-3.06-3.1-8.94V197.3h6.12v16.84a7.58,7.58,0,0,0,1.54,5.12,6.53,6.53,0,0,0,8.94,0,7.51,7.51,0,0,0,1.56-5.1V197.3H3255v16.56q0,5.83-3.12,8.92t-9,3.08Q3236.94,225.86,3233.83,222.8Z"/><path d="M3282.31,213.4a7,7,0,0,1,1.34,4.38,6.82,6.82,0,0,1-2.62,5.64,11.28,11.28,0,0,1-7.22,2.08h-13.4V197.3h13a11.24,11.24,0,0,1,7,2,6.37,6.37,0,0,1,2.58,5.36,6.47,6.47,0,0,1-1.18,3.86,6.65,6.65,0,0,1-3.26,2.42A7,7,0,0,1,3282.31,213.4Zm-15.82-4.62h5.88a6.08,6.08,0,0,0,3.54-.82,2.88,2.88,0,0,0,1.14-2.5,3,3,0,0,0-1.14-2.58,6.08,6.08,0,0,0-3.54-.82h-5.88Zm10.2,11.12a3.17,3.17,0,0,0,1.12-2.72,3.29,3.29,0,0,0-1.12-2.76,5.8,5.8,0,0,0-3.6-.88h-6.6v7.2h6.6A6,6,0,0,0,3276.69,219.9Z"/><path d="M3287.93,225.5V197.3h6.24v23.12h12.6v5.08Z"/><path d="M3310.41,225.5V197.3h6.24v28.2Z"/><path d="M3328,224.06a12.14,12.14,0,0,1-4.88-5.08,17.84,17.84,0,0,1,0-15.2,12,12,0,0,1,4.88-5.06,15,15,0,0,1,7.46-1.78,16.77,16.77,0,0,1,5.36.86,11.38,11.38,0,0,1,4.2,2.38l-2,4.44a13.46,13.46,0,0,0-3.66-2,11.2,11.2,0,0,0-3.78-.64,7.15,7.15,0,0,0-5.78,2.4c-1.34,1.6-2,3.95-2,7s.68,5.45,2,7.06a7.13,7.13,0,0,0,5.78,2.42,11.2,11.2,0,0,0,3.78-.64,13.46,13.46,0,0,0,3.66-2l2,4.44a11.38,11.38,0,0,1-4.2,2.38,16.77,16.77,0,0,1-5.36.86A14.9,14.9,0,0,1,3328,224.06Z"/><path d="M3381.93,225.5l-2.68-6.24h-13.12l-2.68,6.24h-6.28l13-28.2h5l13,28.2Zm-13.76-11h9L3372.69,204Z"/><path d="M3390.41,197.3h11a17.34,17.34,0,0,1,7.92,1.68,11.71,11.71,0,0,1,5.08,4.84,15.36,15.36,0,0,1,1.76,7.56,15.58,15.58,0,0,1-1.74,7.58,11.6,11.6,0,0,1-5.06,4.86,17.45,17.45,0,0,1-8,1.68h-11Zm10.52,23.16q9,0,9-9.08t-9-9h-4.28v18.12Z"/><path d="M3420.89,197.3h11a17.34,17.34,0,0,1,7.92,1.68,11.71,11.71,0,0,1,5.08,4.84,15.36,15.36,0,0,1,1.76,7.56,15.58,15.58,0,0,1-1.74,7.58,11.6,11.6,0,0,1-5.06,4.86,17.45,17.45,0,0,1-8,1.68h-11Zm10.52,23.16q9,0,9-9.08t-9-9h-4.28v18.12Z"/><path d="M3475.85,225.5h-6.8l-4.88-9a3.87,3.87,0,0,0-1.44-1.5,4.35,4.35,0,0,0-2.12-.46h-3.08v11h-6.16V197.3h13q5,0,7.5,2.18a7.85,7.85,0,0,1,2.54,6.3,8.14,8.14,0,0,1-1.78,5.36,8.51,8.51,0,0,1-5,2.84,6.17,6.17,0,0,1,3.72,3.16Zm-8.56-16.62a4.23,4.23,0,0,0,0-5.9,6.46,6.46,0,0,0-3.88-.92h-6v7.76h6A6.3,6.3,0,0,0,3467.29,208.88Z"/><path d="M3479.37,225.5V197.3h19.44v4.84h-13.36v6.6H3498v4.84h-12.56v7.08h13.36v4.84Z"/><path d="M3506.37,225a14.65,14.65,0,0,1-4.92-2.38l2-4.44a15.68,15.68,0,0,0,9.16,2.84,7.94,7.94,0,0,0,4.06-.86,2.65,2.65,0,0,0,1.42-2.38,2.34,2.34,0,0,0-1.3-2.12,17.34,17.34,0,0,0-4.62-1.48,25.76,25.76,0,0,1-5.94-1.84,7.78,7.78,0,0,1-3.24-2.66,7,7,0,0,1-1-3.9,7.64,7.64,0,0,1,1.42-4.56,9.49,9.49,0,0,1,4-3.14,14.44,14.44,0,0,1,5.92-1.14,18.92,18.92,0,0,1,5.78.88,11.85,11.85,0,0,1,4.42,2.36l-2,4.44a13.64,13.64,0,0,0-8.16-2.84,6.77,6.77,0,0,0-3.84.94,3,3,0,0,0-1.4,2.58,2.31,2.31,0,0,0,.54,1.58,4.52,4.52,0,0,0,1.8,1.1,27.89,27.89,0,0,0,3.58,1c3.63.8,6.23,1.83,7.82,3.08a6.25,6.25,0,0,1,2.38,5.2,7.44,7.44,0,0,1-3.08,6.3q-3.08,2.3-8.6,2.3A22.09,22.09,0,0,1,3506.37,225Z"/><path d="M3532.37,225a14.56,14.56,0,0,1-4.92-2.38l2-4.44a15.68,15.68,0,0,0,9.16,2.84,7.94,7.94,0,0,0,4.06-.86,2.65,2.65,0,0,0,1.42-2.38,2.34,2.34,0,0,0-1.3-2.12,17.34,17.34,0,0,0-4.62-1.48,25.76,25.76,0,0,1-5.94-1.84,7.78,7.78,0,0,1-3.24-2.66,7,7,0,0,1-1-3.9,7.64,7.64,0,0,1,1.42-4.56,9.43,9.43,0,0,1,4-3.14,14.44,14.44,0,0,1,5.92-1.14,19,19,0,0,1,5.78.88,11.93,11.93,0,0,1,4.42,2.36l-2,4.44a13.64,13.64,0,0,0-8.16-2.84,6.77,6.77,0,0,0-3.84.94,2.94,2.94,0,0,0-1.4,2.58,2.31,2.31,0,0,0,.54,1.58,4.52,4.52,0,0,0,1.8,1.1,27.89,27.89,0,0,0,3.58,1q5.43,1.2,7.82,3.08a6.25,6.25,0,0,1,2.38,5.2,7.44,7.44,0,0,1-3.08,6.3q-3.08,2.3-8.6,2.3A22,22,0,0,1,3532.37,225Z"/></g></g><path id="nanopaperwallet.com" d="M3146,910.2c2.93,0,5.12.83,6.55,2.5s2.15,4.18,2.15,7.55v15h-6.25V920.6a6.47,6.47,0,0,0-1.08-4.15,4.11,4.11,0,0,0-3.37-1.3,5.74,5.74,0,0,0-4.33,1.7,6.32,6.32,0,0,0-1.62,4.55v13.85h-6.25V910.8h6.1v3.65a8.39,8.39,0,0,1,3.35-3.15A10.11,10.11,0,0,1,3146,910.2Zm25.46,0q5.14,0,7.65,2.5c1.67,1.67,2.5,4.23,2.5,7.7v14.85h-6V931.5a6.55,6.55,0,0,1-2.67,3,8.08,8.08,0,0,1-4.23,1.1,9.77,9.77,0,0,1-4.45-1,8,8,0,0,1-3.15-2.75A6.94,6.94,0,0,1,3160,928a6.16,6.16,0,0,1,1.38-4.25,8.25,8.25,0,0,1,4.47-2.25,40.57,40.57,0,0,1,8.55-.7h1.25v-1.15a5,5,0,0,0-1.07-3.6A4.88,4.88,0,0,0,3171,915a13.1,13.1,0,0,0-4.07.68,20.09,20.09,0,0,0-4.18,1.87l-1.75-4.3a21.43,21.43,0,0,1,10.45-3ZM3170,931.15a5.37,5.37,0,0,0,4.08-1.67,6.07,6.07,0,0,0,1.57-4.33v-1h-.9a34.49,34.49,0,0,0-5.2.3,5,5,0,0,0-2.65,1.05,2.68,2.68,0,0,0-.8,2,3.46,3.46,0,0,0,1.1,2.63A4,4,0,0,0,3170,931.15Zm32.06-20.95q4.41,0,6.55,2.5c1.44,1.67,2.15,4.18,2.15,7.55v15h-6.25V920.6a6.53,6.53,0,0,0-1.07-4.15,4.13,4.13,0,0,0-3.38-1.3,5.7,5.7,0,0,0-4.32,1.7,6.28,6.28,0,0,0-1.63,4.55v13.85h-6.25V910.8h6.1v3.65a8.45,8.45,0,0,1,3.35-3.15A10.14,10.14,0,0,1,3202.07,910.2Zm26.12,25.45a13.5,13.5,0,0,1-6.58-1.55,10.71,10.71,0,0,1-4.37-4.45,15.43,15.43,0,0,1,0-13.48,10.76,10.76,0,0,1,4.37-4.42,14.72,14.72,0,0,1,13.15,0,10.65,10.65,0,0,1,4.35,4.42,15.61,15.61,0,0,1,0,13.48,10.61,10.61,0,0,1-4.35,4.45A13.46,13.46,0,0,1,3228.19,935.65Zm-.05-4.85a5.59,5.59,0,0,0,4.64-2,11.56,11.56,0,0,0,0-11.77,5.46,5.46,0,0,0-4.59-2,5.57,5.57,0,0,0-4.63,2,9.2,9.2,0,0,0-1.62,5.87,9.33,9.33,0,0,0,1.59,5.9A5.58,5.58,0,0,0,3228.14,930.8Zm31.61-20.6a10.09,10.09,0,0,1,5.62,1.6,10.63,10.63,0,0,1,3.85,4.52,15.65,15.65,0,0,1,1.38,6.73,15.11,15.11,0,0,1-1.38,6.65,10.08,10.08,0,0,1-9.47,5.95,9.68,9.68,0,0,1-4.65-1.1,7.66,7.66,0,0,1-3.15-3v12.75h-6.25V910.8h6.15v3.7a7.65,7.65,0,0,1,3.17-3.18A9.78,9.78,0,0,1,3259.75,910.2Zm-1.65,20.6a5.61,5.61,0,0,0,4.6-2,8.87,8.87,0,0,0,1.65-5.73,9.35,9.35,0,0,0-1.65-5.9,6.17,6.17,0,0,0-9.23,0,9.26,9.26,0,0,0-1.62,5.85,9.16,9.16,0,0,0,1.62,5.8A5.57,5.57,0,0,0,3258.1,930.8Zm28.06-20.6q5.15,0,7.65,2.5c1.67,1.67,2.5,4.23,2.5,7.7v14.85h-5.95V931.5a6.52,6.52,0,0,1-2.68,3,8,8,0,0,1-4.22,1.1,9.77,9.77,0,0,1-4.45-1,8,8,0,0,1-3.15-2.75,6.94,6.94,0,0,1-1.15-3.9,6.2,6.2,0,0,1,1.37-4.25,8.33,8.33,0,0,1,4.48-2.25,40.57,40.57,0,0,1,8.55-.7h1.25v-1.15a5,5,0,0,0-1.08-3.6,4.84,4.84,0,0,0-3.57-1.1,13.21,13.21,0,0,0-4.08.68,20.25,20.25,0,0,0-4.17,1.87l-1.75-4.3a21.43,21.43,0,0,1,10.45-3Zm-1.45,20.95a5.34,5.34,0,0,0,4.07-1.67,6.07,6.07,0,0,0,1.58-4.33v-1h-.9a34.49,34.49,0,0,0-5.2.3,5,5,0,0,0-2.65,1.05,2.68,2.68,0,0,0-.8,2,3.46,3.46,0,0,0,1.1,2.63A4,4,0,0,0,3284.71,931.15Zm31.91-20.95a10.12,10.12,0,0,1,5.63,1.6,10.7,10.7,0,0,1,3.85,4.52,15.8,15.8,0,0,1,1.37,6.73,15.25,15.25,0,0,1-1.37,6.65,10.11,10.11,0,0,1-9.48,5.95,9.74,9.74,0,0,1-4.65-1.1,7.66,7.66,0,0,1-3.15-3v12.75h-6.25V910.8h6.15v3.7a7.62,7.62,0,0,1,3.18-3.18A9.71,9.71,0,0,1,3316.62,910.2ZM3315,930.8a5.6,5.6,0,0,0,4.6-2,8.87,8.87,0,0,0,1.65-5.73,9.35,9.35,0,0,0-1.65-5.9,6.16,6.16,0,0,0-9.22,0,9.2,9.2,0,0,0-1.63,5.85,9.1,9.1,0,0,0,1.63,5.8A5.54,5.54,0,0,0,3315,930.8Zm39-6.65h-16.65a7.63,7.63,0,0,0,2.05,5.05,7,7,0,0,0,5,1.65,11.8,11.8,0,0,0,7.4-2.6l1.8,4.3a13.26,13.26,0,0,1-4.27,2.25,16.34,16.34,0,0,1-5.18.85q-6,0-9.47-3.4t-3.48-9.3a14.26,14.26,0,0,1,1.5-6.65,10.94,10.94,0,0,1,4.23-4.5,11.9,11.9,0,0,1,6.17-1.6,10.18,10.18,0,0,1,8,3.25q2.93,3.25,2.92,8.95Zm-10.75-9.55a5.28,5.28,0,0,0-4,1.6,7.81,7.81,0,0,0-1.88,4.6h11.3a7.1,7.1,0,0,0-1.5-4.63A5,5,0,0,0,3343.23,914.6Zm31.86.8-3.65.35q-6.2.64-6.2,6.3v13.2H3359V910.8h6v4.3q1.91-4.4,7.85-4.8l1.9-.15Zm37.47-4.6h6.1l-9.6,24.45h-5.45l-6-15.75-5.85,15.75h-5.4l-9.65-24.45h6.4l6.25,17,6.25-17h4.5l6.25,17.1Zm19.86-.6q5.14,0,7.65,2.5c1.66,1.67,2.5,4.23,2.5,7.7v14.85h-6V931.5a6.52,6.52,0,0,1-2.68,3,8,8,0,0,1-4.22,1.1,9.74,9.74,0,0,1-4.45-1,7.83,7.83,0,0,1-3.15-2.75A6.94,6.94,0,0,1,3421,928a6.2,6.2,0,0,1,1.37-4.25,8.33,8.33,0,0,1,4.48-2.25,40.44,40.44,0,0,1,8.55-.7h1.25v-1.15a5,5,0,0,0-1.08-3.6A4.86,4.86,0,0,0,3432,915a13.21,13.21,0,0,0-4.08.68,20,20,0,0,0-4.17,1.87l-1.75-4.3a21.43,21.43,0,0,1,10.45-3ZM3431,931.15a5.36,5.36,0,0,0,4.07-1.67,6.07,6.07,0,0,0,1.58-4.33v-1h-.9a34.4,34.4,0,0,0-5.2.3,5,5,0,0,0-2.65,1.05,2.65,2.65,0,0,0-.8,2,3.42,3.42,0,0,0,1.1,2.63A3.94,3.94,0,0,0,3431,931.15Zm17.86,4.1V900h6.25v35.25Zm12.61,0V900h6.25v35.25Zm34.06-11.1h-16.65a7.63,7.63,0,0,0,2.05,5.05,7,7,0,0,0,5,1.65,11.8,11.8,0,0,0,7.4-2.6l1.8,4.3a13.26,13.26,0,0,1-4.27,2.25,16.34,16.34,0,0,1-5.18.85q-6,0-9.47-3.4t-3.48-9.3a14.26,14.26,0,0,1,1.5-6.65,10.94,10.94,0,0,1,4.23-4.5,11.9,11.9,0,0,1,6.17-1.6,10.18,10.18,0,0,1,8,3.25q2.93,3.25,2.92,8.95Zm-10.75-9.55a5.28,5.28,0,0,0-4,1.6,7.81,7.81,0,0,0-1.88,4.6h11.3a7.1,7.1,0,0,0-1.5-4.63A5,5,0,0,0,3484.75,914.6ZM3512.66,931a18.48,18.48,0,0,0,2.3-.15l-.3,4.65c-1,.1-1.91.15-2.75.15q-5.14,0-7.6-2.37t-2.45-7.08V915.5h-4.7v-4.7h4.7v-7.3h6.25v7.3h6.45v4.7h-6.45v10.55Q3508.11,931,3512.66,931Zm6.32-2.6h7v6.9h-7Zm23.36,7.3a13.74,13.74,0,0,1-6.68-1.55,10.47,10.47,0,0,1-4.32-4.4,15.35,15.35,0,0,1,.07-13.38,11.08,11.08,0,0,1,4.48-4.52,13.58,13.58,0,0,1,6.7-1.6,15.94,15.94,0,0,1,5.07.83,10.62,10.62,0,0,1,4,2.22l-1.8,4.4a12,12,0,0,0-3.28-1.9,9.72,9.72,0,0,0-3.42-.65,6.37,6.37,0,0,0-5,2,10.24,10.24,0,0,0,0,11.6,6.43,6.43,0,0,0,5,2,9.72,9.72,0,0,0,3.42-.65,12,12,0,0,0,3.28-1.9l1.8,4.35a11.16,11.16,0,0,1-4.1,2.27A16.22,16.22,0,0,1,3542.34,935.65Zm24.31,0a13.53,13.53,0,0,1-6.58-1.55,10.71,10.71,0,0,1-4.37-4.45,15.43,15.43,0,0,1,0-13.48,10.76,10.76,0,0,1,4.37-4.42,14.72,14.72,0,0,1,13.15,0,10.53,10.53,0,0,1,4.35,4.42,15.61,15.61,0,0,1,0,13.48,10.49,10.49,0,0,1-4.35,4.45A13.46,13.46,0,0,1,3566.65,935.65Zm-.05-4.85a5.62,5.62,0,0,0,4.65-2q1.61-2,1.6-5.9a9.27,9.27,0,0,0-1.6-5.87,5.5,5.5,0,0,0-4.6-2,5.58,5.58,0,0,0-4.63,2,9.2,9.2,0,0,0-1.62,5.87q0,3.9,1.6,5.9A5.56,5.56,0,0,0,3566.6,930.8Zm46.61-20.6c2.77,0,4.83.82,6.2,2.47s2.05,4.18,2.05,7.58v15h-6.25V920.5a7,7,0,0,0-.95-4.08,3.55,3.55,0,0,0-3.05-1.27,4.77,4.77,0,0,0-3.9,1.7,7.29,7.29,0,0,0-1.4,4.75v13.65h-6.25V920.5a7.13,7.13,0,0,0-.92-4.08,3.56,3.56,0,0,0-3.08-1.27,4.73,4.73,0,0,0-3.85,1.7,7.29,7.29,0,0,0-1.4,4.75v13.65h-6.25V910.8h6.1v3.45a7.28,7.28,0,0,1,3-3,9.33,9.33,0,0,1,4.45-1q5.55,0,7.35,4.6a8.45,8.45,0,0,1,3.3-3.38A9.57,9.57,0,0,1,3613.21,910.2Z"/><path d="M1600,0V150H0V850H1600v150H3700V0Zm711.47,20q5,7,9.89,14.15,4.86-7.14,9.86-14.15h1.23q-5.41,7.59-10.67,15.32l-.41.61-.42-.61q-5.26-7.72-10.71-15.32Zm-20.63,0q15.93,21.59,30.55,44.49Q2335.93,41.63,2351.8,20h1.26q-16.29,22.13-31.24,45.69l-.43.67-.42-.67Q2306,42.22,2289.61,20Zm-21,0a781,781,0,0,1,51.54,76.53A780.78,780.78,0,0,1,2372.75,20H2374a778.81,778.81,0,0,0-52.15,77.77l-.43.74-.43-.74A777.4,777.4,0,0,0,2268.62,20Zm-21.15,0a755.35,755.35,0,0,1,72.74,110.69A756.68,756.68,0,0,1,2393.93,20h1.28a756.07,756.07,0,0,0-73.3,112l-.44.82L2321,132a754.79,754.79,0,0,0-73.58-112Zm-21.43,0a736.72,736.72,0,0,1,85.62,130.29q4.17,2.06,8.37,4.19,4.44-2.26,8.9-4.47a737.36,737.36,0,0,1,85.07-130h1.3A736,736,0,0,0,2331,150.62l-.07.14-.15.08q-4.64,2.28-9.27,4.64l-.22.12-.23-.12q-4.38-2.22-8.74-4.37l-.14-.07-.08-.15A736,736,0,0,0,2226,20Zm-21.8,0a715.47,715.47,0,0,1,95,142.92q10.21,4.92,20.76,10.43c7-3.7,14.16-7.28,21.26-10.71A714.91,714.91,0,0,1,2437.06,20h1.32a713.41,713.41,0,0,0-95,143.23l-.08.16-.15.07c-7.22,3.49-14.45,7.13-21.61,10.9l-.23.12-.24-.12c-7.14-3.74-14.2-7.28-21.12-10.61l-.15-.08-.08-.15A715.06,715.06,0,0,0,2204.18,20Zm-22.24,0a694.87,694.87,0,0,1,104.85,155.53c11,5.21,22.16,10.83,33.19,16.76,10.71-5.79,21.9-11.45,33.68-17.06A693.35,693.35,0,0,1,2459.28,20h1.34A692.2,692.2,0,0,0,2355.8,175.82l-.08.16-.16.08c-11.9,5.67-23.2,11.39-34,17.24l-.23.13-.24-.13c-11.14-6-22.37-11.68-33.54-16.94l-.16-.07-.08-.16A693.32,693.32,0,0,0,2181.92,20Zm-22.7,0c45.48,48.19,85.69,106.83,115.1,168.19,15.37,7.1,30.67,14.87,45.65,23.19,15.08-8.4,30.54-16.27,46.13-23.49C2396.82,126.5,2437,67.77,2482,20h1.37c-45.26,47.86-85.61,106.84-115.1,168.48l-.07.16-.17.08c-15.7,7.27-31.28,15.2-46.46,23.66l-.24.14-.25-.13c-15.09-8.39-30.51-16.22-46-23.37l-.16-.07-.08-.16c-29.51-61.62-69.93-120.5-115.65-168.79Zm-23.28,0c50.34,50.41,94.64,114,125.88,180.83,19.47,8.77,39.3,18.9,58.16,29.71,19-10.92,39-21.16,58.61-30,31.19-66.88,75.44-130.61,125.3-180.52h1.42c-50.11,50-94.6,114-125.89,181.11l-.08.17-.17.07c-19.72,8.9-39.84,19.21-58.94,30.2l-.24.14-.25-.14c-19-10.88-38.92-21.07-58.5-29.88l-.17-.08-.08-.17C2231,134.31,2186.45,70.48,2135.85,20Zm-24,0c1.27,1.18,2.53,2.38,3.78,3.58,54,51.71,101.2,118.92,133.55,189.93a659.57,659.57,0,0,1,70.71,36.36,657.88,657.88,0,0,1,71.18-36.67C2423.6,144.66,2468.69,79.45,2520,28.93q4.59-4.51,9.25-8.93h1.46q-5.05,4.76-10,9.64c-51.21,50.48-96.27,115.65-127.31,184.15l-.08.17-.18.08a657.38,657.38,0,0,0-71.49,36.84l-.25.16-.26-.16a659.31,659.31,0,0,0-71-36.53l-.18-.07-.08-.18c-32.29-71-79.49-138.14-133.41-189.8-1.51-1.45-3-2.89-4.55-4.3Zm-24.77,0q8.63,7.65,17,15.66c54.18,51.93,101.06,119.4,132.51,190.69a633.91,633.91,0,0,1,83.38,43.08A633.69,633.69,0,0,1,2405.12,226c30.36-68.93,75.13-134.43,126.56-185.13q10.91-10.74,22.26-20.85h1.51q-11.77,10.44-23.07,21.57c-51.38,50.65-96.12,116.11-126.43,185l-.08.18-.18.08a632.31,632.31,0,0,0-84,43.62l-.27.16-.26-.16a633.8,633.8,0,0,0-83.69-43.25l-.18-.07-.08-.19c-31.4-71.23-78.25-138.67-132.38-190.55Q2096,28,2087,20Zm-25.59,0q15.95,13.24,31,27.72c54.32,52.08,100.82,119.8,131.43,191.4a610.41,610.41,0,0,1,96,50.06,610.92,610.92,0,0,1,96.46-50.42c29.52-69.29,74-135.13,125.64-186q17.46-17.2,36.1-32.73h1.58q-19.09,15.83-37,33.44c-51.61,50.86-96,116.66-125.5,185.9l-.08.18-.19.08a609.29,609.29,0,0,0-96.75,50.6l-.27.17-.28-.17A608,608,0,0,0,2224.79,240l-.18-.08-.08-.19c-30.57-71.55-77-139.23-131.3-191.26Q2077.78,33.58,2061.35,20Zm-26.75,0a556.51,556.51,0,0,1,46.17,39.78C2136.84,112,2182.9,180,2212.66,252a589.76,589.76,0,0,1,108.73,57.17,589.07,589.07,0,0,1,109.12-57.51c28.72-69.75,72.81-135.9,124.66-187A566.06,566.06,0,0,1,2606.28,20h1.64a563.43,563.43,0,0,0-52.05,45.38c-51.8,51.05-95.85,117.16-124.51,186.87l-.08.19-.2.08a587.42,587.42,0,0,0-109.41,57.68l-.28.18-.27-.18a587.83,587.83,0,0,0-109-57.33l-.2-.08-.08-.2c-29.7-72-75.71-139.94-130.15-192.09A553.73,553.73,0,0,0,2034.53,20ZM2008,20a537.59,537.59,0,0,1,62.78,51.85c54.69,52.41,100.33,120.72,129.07,193.11a566.94,566.94,0,0,1,121.51,64.47,567.06,567.06,0,0,1,121.9-64.82c27.83-70.23,71.53-136.74,123.6-188A546.71,546.71,0,0,1,2634.31,20H2636a545.57,545.57,0,0,0-68.48,57.27c-52,51.27-95.68,117.74-123.45,187.91l-.08.2-.2.08a566.16,566.16,0,0,0-122.18,65l-.29.2-.28-.2a566.25,566.25,0,0,0-121.79-64.64l-.21-.07-.08-.21c-28.68-72.33-74.28-140.6-128.91-192.95A538.58,538.58,0,0,0,2006.28,20Zm-62.39,0a506.07,506.07,0,0,1,102,76c55.14,52.84,99.81,121.83,126.39,195.14A525.12,525.12,0,0,1,2321.39,371a525.38,525.38,0,0,1,147.72-80.2c25.77-71.22,68.62-138.53,121.21-190.38a512.12,512.12,0,0,1,73.22-59.94l.43.92A511.57,511.57,0,0,0,2591,101.1c-52.54,51.8-95.34,119.07-121.05,190.23l-.08.23-.22.07a524.64,524.64,0,0,0-148,80.36l-.31.24-.3-.24a524.61,524.61,0,0,0-147.61-80l-.23-.08-.08-.22c-26.51-73.25-71.14-142.21-126.22-195A504.57,504.57,0,0,0,1943.56,20Zm-78.09,0a473,473,0,0,1,157,100.15c55.66,53.35,99.22,123.19,123.28,197.56,63.22,19.64,124.07,53.45,173.67,96.48a491.22,491.22,0,0,1,173.94-96.88c23.36-72.39,65.21-140.65,118.44-193.11a479.32,479.32,0,0,1,64-53l.43.92a477.55,477.55,0,0,0-63.77,52.81c-53.17,52.41-95,120.62-118.27,193l-.08.25-.24.07a490.18,490.18,0,0,0-174.16,97.05l-.33.28-.33-.28c-49.62-43.13-110.57-77-173.89-96.64l-.24-.08-.08-.25c-24-74.31-67.5-144.1-123.1-197.39A472,472,0,0,0,1864.72,20Zm-54,0a456.42,456.42,0,0,1,199.4,112.21c56,53.68,98.94,124,121.54,199,69.23,20,134.88,57,187,105.5,52.16-48.63,117.94-85.83,187.26-105.89,22-73.06,63.25-141.85,116.84-194.67a461.27,461.27,0,0,1,59.49-49.55l.43.92a460.79,460.79,0,0,0-59.21,49.34c-53.54,52.76-94.76,121.52-116.67,194.51l-.08.26-.26.07c-69.42,20-135.29,57.32-187.46,106.06l-.34.32-.34-.32C2269,389.15,2203.27,352,2133.94,332.06l-.26-.08-.08-.26c-22.53-74.89-65.42-145.17-121.35-198.78A455.56,455.56,0,0,0,1809.6,20ZM1619,28.07a447.6,447.6,0,0,1,76.61-6.57,439.92,439.92,0,0,1,305.76,122.85c56.35,54,98.61,124.85,119.65,200.49,74.22,19.73,144.15,59.5,198,112.66l2.49,2.48c1.06-1.06,2.11-2.11,3.17-3.15,53.73-53,123.5-92.67,197.54-112.4,20.47-73.76,61.12-143.14,115.07-196.36a445.54,445.54,0,0,1,55-46.1l.43.92a444.61,444.61,0,0,0-54.7,45.89c-53.9,53.16-94.49,122.49-114.89,196.19l-.08.28-.28.07c-74,19.66-143.69,59.28-197.37,112.22l-3.51,3.5-.36.36-.35-.35-2.84-2.84c-53.77-53.1-123.66-92.82-197.81-112.48l-.28-.07-.08-.28c-21-75.57-63.16-146.36-119.45-200.31A438.91,438.91,0,0,0,1695.61,22.5,446.6,446.6,0,0,0,1619,29.08ZM1557.74,170a322.68,322.68,0,0,0-89.58,62.54c-58.53,57.68-92.15,133.72-95.29,215.37l0,.47h-.47a322,322,0,0,0-216.92,92.9c-58.63,57.79-92.26,134-95.3,215.82l0,.47h-.47c-1.62,0-3.23.11-4.84.19l-.46-1c1.6-.08,3.2-.14,4.8-.19,3.17-81.9,36.89-158.17,95.59-216a322.93,322.93,0,0,1,217.13-93.17c3.26-81.74,37-157.84,95.57-215.59A323.8,323.8,0,0,1,1555.39,170Zm-94.52,0a377.16,377.16,0,0,0-30.3,26.83A371.92,371.92,0,0,0,1327,401.9l-.06.36-.36.05A375.49,375.49,0,0,0,1120.26,505.6,371.66,371.66,0,0,0,1020,683l-.68-1.46a373.36,373.36,0,0,1,306.8-280.2A373.25,373.25,0,0,1,1461.63,170Zm-27.54,0h1.52q-8.19,7.22-16,14.93a390.18,390.18,0,0,0-108.51,202.44l-.07.34-.34.06A389,389,0,0,0,1009,659.49l-.63-1.35a390,390,0,0,1,303.38-271.29,391.33,391.33,0,0,1,108.73-202.64Q1427.92,176.88,1435.68,170Zm-69.37,0A447.53,447.53,0,0,0,1271,345.44l-.07.28-.28.07c-74,19.66-143.68,59.29-197.37,112.23-39.36,38.75-71.62,86.14-94.1,137.58l-.56-1.2c22.52-51.25,54.71-98.45,94-137.09,53.74-53,123.52-92.68,197.54-112.41A448.23,448.23,0,0,1,1365,170Zm-22,0a466.81,466.81,0,0,0-86.75,161.81l-.07.26-.27.08c-73.18,21.12-142.34,61.37-195.65,113.91-37.32,36.79-68.65,81.32-91.63,129.65l-.54-1.16c23-48.15,54.26-92.53,91.47-129.21,53.37-52.59,122.57-92.89,195.81-114.08A468,468,0,0,1,1343,170Zm-21.43,0a486.13,486.13,0,0,0-78.64,148.33l-.08.25-.25.07c-72.49,22.5-141.07,63.31-194.08,115.5C1014.44,469,984.1,510.9,960.9,556.33l-.54-1.16c23.21-45.25,53.48-86.95,88.77-121.73,53.06-52.25,121.69-93.1,194.24-115.66A487.36,487.36,0,0,1,1321.61,170Zm-41.43,0A524.54,524.54,0,0,0,1218,291.8l-.08.23-.23.08c-71.34,24.88-139,66.68-191.29,118.22-31.79,31.33-60,68.32-83,108.42l-.52-1.11c23-39.94,51.15-76.79,82.84-108,52.36-51.59,120-93.43,191.45-118.38A524.92,524.92,0,0,1,1280.23,170Zm-117.92,0c-8,14.52-15.47,29.32-22.25,44.27l-.08.17-.17.08c-68.65,30.16-134.16,74.16-185.09,124.34a589.59,589.59,0,0,0-62.43,72.94l-.48-1a588.7,588.7,0,0,1,62.21-72.61c51-50.23,116.52-94.27,185.21-124.47,6.69-14.75,14-29.35,22-43.68Zm-152.73,0c-46.17,28.53-89.33,62-125.31,97.43C872,280.7,858.84,295,846.08,310.07l-.47-1c12.7-15,25.81-29.15,39.18-42.34,35.68-35.14,78.41-68.34,124.13-96.72Zm-60.35,0a724.38,724.38,0,0,0-88.39,73.61c-10.65,10.5-21.17,21.63-31.45,33.28l-.46-1q15.32-17.32,31.21-33A724.87,724.87,0,0,1,948.72,170ZM895,170a719.28,719.28,0,0,0-56.37,49.8Q826.83,231.41,815.28,244l-.46-1q11.43-12.42,23.1-23.93A723.5,723.5,0,0,1,893.35,170Zm-104.1,1.45c.5-.49,1-1,1.49-1.45h1.43l-2.22,2.17c-2.23,2.2-4.47,4.43-6.69,6.69l-.45-1Q787.66,174.64,790.89,171.45ZM1133.09,830A255.85,255.85,0,0,1,1383,514.16c25.33,0,41.59-2.21,50.72-5.33,2.81-8.25,4.81-23.75,4.81-48.24a252.49,252.49,0,0,1,75.9-181.08,256.67,256.67,0,0,1,181.24-74.11c141.82,0,257.14,114.46,257.14,255.19,0,24.47,2,39.88,4.81,48.24,9.11,3.12,25.39,5.33,50.73,5.33,68.59,0,133,26.35,181.5,74.19a252.63,252.63,0,0,1,75.65,181,255.68,255.68,0,0,1-7.32,61,260.25,260.25,0,0,1,64.2-7.94c25.33,0,41.6-2.22,50.72-5.33,2.81-8.3,4.81-23.78,4.81-48.24a252.46,252.46,0,0,1,75.9-181.12A256.59,256.59,0,0,1,2635,513.66c25.32,0,41.54-2.21,50.73-5.33,2.81-8.3,4.8-23.78,4.8-48.24A252.44,252.44,0,0,1,2766.37,279c1.93-1.91,3.89-3.79,5.88-5.62l.44,1q-2.85,2.64-5.62,5.38a251.49,251.49,0,0,0-75.55,180.36c0,24.79-2.05,40.44-4.94,48.8l-.08.23-.23.08c-9.25,3.2-25.65,5.46-51.28,5.46a255.61,255.61,0,0,0-180.53,73.82,251.46,251.46,0,0,0-75.6,180.41c0,24.79-2.05,40.43-4.94,48.8l-.08.23-.23.07c-9.2,3.2-25.63,5.47-51.28,5.47a259.55,259.55,0,0,0-64.76,8.11l-.81.21.2-.81a254.79,254.79,0,0,0,7.49-61.61,251.63,251.63,0,0,0-75.35-180.3c-48.27-47.65-112.47-73.9-180.8-73.9-25.66,0-42.11-2.27-51.28-5.46l-.23-.08-.08-.23c-2.91-8.43-5-24-5-48.8,0-140.17-114.87-254.19-256.14-254.19a255.61,255.61,0,0,0-180.54,73.83,251.45,251.45,0,0,0-75.6,180.36c0,24.82-2,40.49-4.94,48.8l-.08.23-.23.08c-9.2,3.2-25.63,5.46-51.29,5.46A254.84,254.84,0,0,0,1134.12,830Zm34.67,0a220.26,220.26,0,0,1,57.42-217.89A223.37,223.37,0,0,1,1383,547.62c24,0,42.09-1.87,55.12-5.2,9.88-2.52,16.19-5.7,19.66-9.13,8.67-8.56,14.16-31.19,14.16-72.68a219.26,219.26,0,0,1,65.94-157.26,223.35,223.35,0,0,1,157.77-64.49c123.34,0,223.71,99.5,223.71,221.75,0,41.49,5.5,64.12,14.17,72.68,3.47,3.43,9.77,6.61,19.66,9.13,13,3.33,31.15,5.2,55.12,5.2,59.74,0,115.85,22.92,158,64.54a220.82,220.82,0,0,1,23.79,286.53,223.47,223.47,0,0,1,132.32-42.83c24,0,42.09-1.86,55.12-5.19,9.89-2.52,16.2-5.71,19.66-9.13,8.67-8.56,14.17-31.18,14.17-72.68a219.21,219.21,0,0,1,65.93-157.26A223.45,223.45,0,0,1,2635,547.1c24,0,42.09-1.86,55.12-5.19,9.89-2.53,16.19-5.71,19.66-9.14,8.67-8.55,14.17-31.18,14.17-72.67a219.28,219.28,0,0,1,63.28-154.62l.45,1a218.25,218.25,0,0,0-62.73,153.65c0,41.73-5.56,64.59-14.46,73.38-3.62,3.57-10.07,6.83-20.12,9.4-13.12,3.35-31.33,5.22-55.37,5.22a222.44,222.44,0,0,0-157,64.21,218.29,218.29,0,0,0-65.63,156.55c0,41.75-5.55,64.6-14.47,73.39-3.6,3.56-10.06,6.82-20.11,9.39-13.12,3.35-31.33,5.22-55.37,5.22A222.57,222.57,0,0,0,2188,901.45l-2.78,2.09,2.08-2.79a219.83,219.83,0,0,0-21.73-287.88c-42-41.43-97.82-64.25-157.3-64.25-24,0-42.25-1.88-55.37-5.23-10.05-2.56-16.5-5.82-20.12-9.39-8.91-8.8-14.46-31.65-14.46-73.39,0-121.7-99.92-220.75-222.71-220.75a222.37,222.37,0,0,0-157.07,64.2,218.26,218.26,0,0,0-65.64,156.55c0,41.74-5.55,64.59-14.46,73.39-3.61,3.57-10.07,6.83-20.11,9.39-13.13,3.35-31.33,5.23-55.38,5.23a222.38,222.38,0,0,0-157.07,64.2A219.27,219.27,0,0,0,1168.8,830Zm359.3,0h-287.9a151.7,151.7,0,0,1-12.4-60.21c0-85.52,70.16-154.34,156.3-154.34,117.25,0,156.31-38.59,156.31-154.34,0-85.52,70.16-154.34,156.31-154.34S1852,376.06,1852,461.11c0,115.79,39.08,154.34,156.31,154.34,86.62,0,156.31,68.79,156.31,154.34s-70.17,154.35-156.31,154.35S1852,854.85,1852,769.79c0-115.78-39.08-154.34-156.3-154.34s-156.31,38.6-156.31,154.34A152.44,152.44,0,0,1,1527.06,830Zm18.43,0h-1.07a168.3,168.3,0,0,0,11.15-60.66c0-55.41,9-89,29.38-109.07s54.55-29.09,110.73-29.09,90.38,9,110.74,29.09,29.37,53.72,29.37,109.07c0,93.23,76,169.24,170,170.59h2.5a172.47,172.47,0,0,0,121.82-49.78,169.56,169.56,0,0,0,.19-241.64c-32.48-32.12-75.82-49.79-122.05-49.79-56.11,0-90.39-9-110.74-29.09s-29.36-53.72-29.36-109.08c0-94-77.38-170.55-172.52-170.55a172.54,172.54,0,0,0-121.87,49.77,168.49,168.49,0,0,0-50.58,120.8c0,55.43-9,89-29.37,109.08s-54.57,29.09-110.74,29.09a172.49,172.49,0,0,0-121.86,49.77A169.27,169.27,0,0,0,1221.77,830h-1.06a170.22,170.22,0,0,1,39.78-182.2,173.5,173.5,0,0,1,122.56-50.06c55.93,0,89.88-8.9,110-28.81s29.07-53.17,29.07-108.36A169.47,169.47,0,0,1,1573,339.06,173.52,173.52,0,0,1,1695.61,289c95.69,0,173.52,77,173.52,171.55,0,55.12,9,88.53,29.06,108.36s54.17,28.81,110,28.81c46.5,0,90.08,17.77,122.75,50.08a170.56,170.56,0,0,1-.18,243.06,173.5,173.5,0,0,1-118.59,50l.16,0h-4.06c-95.69,0-173.52-77-173.52-171.6,0-55.1-9-88.52-29.08-108.36s-54.15-28.8-110-28.8-89.87,8.9-110,28.8-29.08,53.19-29.08,108.36A169.36,169.36,0,0,1,1545.49,830Zm17.79,0h-1.06a184.79,184.79,0,0,0,10.08-60.66c0-50.39,7.58-80.56,24.4-97.17s48.24-24.27,99-24.27,82.14,7.63,99,24.27,24.4,46.66,24.4,97.17c0,102.37,83.35,185.8,186.42,187.3h2.77A189.11,189.11,0,0,0,2142,902a186.28,186.28,0,0,0,.2-265.44A189.37,189.37,0,0,0,2008.35,582c-50.88,0-82.15-7.63-99-24.27S1885,511,1885,460.52c0-103.24-84.88-187.26-189.24-187.26a189.15,189.15,0,0,0-133.59,54.58,185,185,0,0,0-55.66,132.73c0,50.39-7.59,80.56-24.41,97.18s-48.24,24.27-99,24.27a189.12,189.12,0,0,0-133.6,54.58A186,186,0,0,0,1204,830h-1.06a187,187,0,0,1,45.85-194.11A190.14,190.14,0,0,1,1383.07,581c50.51,0,81.74-7.64,98.28-24s24.12-46.32,24.12-96.47a186,186,0,0,1,56-133.44,190.14,190.14,0,0,1,134.3-54.87c104.9,0,190.23,84.46,190.23,188.26,0,50.28,7.45,80,24.1,96.47s47.65,24,98.29,24a190.36,190.36,0,0,1,134.5,54.9,187.28,187.28,0,0,1-.2,266.87,190.16,190.16,0,0,1-130.42,54.88l.14,0h-4.06c-104.91,0-190.23-84.47-190.23-188.32,0-50.27-7.45-80-24.1-96.46s-47.66-24-98.29-24-81.74,7.64-98.28,24-24.11,46.32-24.11,96.46A185.88,185.88,0,0,1,1563.28,830ZM1699.9,980q-2.12-3-4.15-6.1-2,3.08-4.14,6.1h-1.21q2.5-3.6,4.93-7.27l.41-.63.42.62.33.49c1.51,2.28,3,4.55,4.62,6.79Zm20.6,0q-5.62-7.59-10.88-15.51-7.33-11.09-13.86-22.72A355.93,355.93,0,0,1,1671,980h-1.23a354.89,354.89,0,0,0,25.55-39.49l.44-.79.43.79q6.69,12,14.26,23.43,5.44,8.2,11.29,16.06Zm21,0q-9.55-11.94-18-24.71a337.93,337.93,0,0,1-27.81-51,340.43,340.43,0,0,1-45.79,75.7h-1.26a339.45,339.45,0,0,0,46.59-77.15l.46-1.05.45,1.05a337.62,337.62,0,0,0,28.2,51.89q8.65,13.07,18.46,25.26Zm21.83,0a320.57,320.57,0,0,1-67.66-125.76A319.27,319.27,0,0,1,1628.14,980h-1.33a318.11,318.11,0,0,0,68.38-127.8l.49-1.8.48,1.8A319.58,319.58,0,0,0,1764.67,980Zm22.69,0C1733.34,925.16,1701,850.92,1701,769.31V766l-2.39,0-3,0c-2.65,0-4,0-5.33,0v3.36A301.72,301.72,0,0,1,1619,965v-1.54a300.83,300.83,0,0,0,70.29-194.12V765h.48c1.6,0,2.88-.05,5.85-.05l3,0,2.88,0h.5v4.35c0,81.69,32.56,156,85.46,210.69Zm23.92,0c-56.73-52.71-92.23-127.69-92.23-210.75,0-7.3-.2-13.73-.56-19.39-6.14-.47-13.3-.73-21.51-.73s-15.25.26-21.5.73c-.37,5.61-.57,12-.57,19.39A285.22,285.22,0,0,1,1619,937.81V936.1a284.19,284.19,0,0,0,53.58-166.85c0-7.55.21-14.16.6-19.89l0-.43.43,0c6.38-.5,13.67-.77,22-.77s15.76.27,22,.77l.43,0,0,.43c.38,5.79.59,12.39.59,19.89,0,83.16,35.71,158.18,92.7,210.75Zm25.47,0c-61.59-49.89-101-125.83-101-210.73,0-14.82-.77-26.12-2.06-34.41-8.9-1.52-21-2.43-36.73-2.43s-27.82.91-36.73,2.43c-1.29,8.22-2.06,19.55-2.06,34.41A269,269,0,0,1,1619,907.53v-1.95a268,268,0,0,0,36.86-136.31c0-15.13.8-26.62,2.13-34.92l.06-.36.35-.06c9-1.56,21.23-2.5,37.25-2.5s28.26.94,37.25,2.5l.35.06.06.36c1.33,8.37,2.13,19.84,2.13,34.92,0,85,39.65,161,101.56,210.73Zm27.93,0c-67.7-46-112.19-123.29-112.19-210.7,0-24.47-2-39.87-4.81-48.24-9.08-3.11-25.38-5.32-50.72-5.32s-41.6,2.21-50.73,5.32c-2.82,8.42-4.81,23.79-4.81,48.24A252.37,252.37,0,0,1,1619,871V868.4a251.22,251.22,0,0,0,20.09-99.1c0-24.77,2-40.31,5-48.79l.07-.23.23-.08c9.2-3.2,25.63-5.46,51.29-5.46s42.13,2.27,51.28,5.46l.23.08.08.23c2.9,8.43,4.94,24,4.94,48.79,0,87.6,44.86,165,113,210.7Zm32.35,0c-76-40.11-127.87-119.5-127.87-210.69,0-22.48-1.68-38.65-4.51-49.54a43.32,43.32,0,0,0-3.15-8.86,10.07,10.07,0,0,0-1.53-2.37,5.19,5.19,0,0,0-.51-.38,16.18,16.18,0,0,0-1.89-1.08,50.12,50.12,0,0,0-9.34-3.28c-11.49-3-28.26-4.78-51.3-4.78s-39.81,1.8-51.3,4.78a49.72,49.72,0,0,0-9.33,3.28,15.38,15.38,0,0,0-1.89,1.08,6,6,0,0,0-.52.38,10.17,10.17,0,0,0-1.53,2.37,44.29,44.29,0,0,0-3.15,8.87c-2.82,10.89-4.51,27.06-4.51,49.53a235.58,235.58,0,0,1-7.79,60.69h-1a234.74,234.74,0,0,0,7.82-60.69c0-22.55,1.7-38.8,4.54-49.78a45.75,45.75,0,0,1,3.23-9.08,11.25,11.25,0,0,1,1.72-2.62,12.19,12.19,0,0,1,2.66-1.64,50.37,50.37,0,0,1,9.53-3.36c11.58-3,28.43-4.81,51.55-4.81s40,1.8,51.55,4.81a50.37,50.37,0,0,1,9.53,3.36,11.92,11.92,0,0,1,2.66,1.64,10.71,10.71,0,0,1,1.72,2.62,44.16,44.16,0,0,1,3.23,9.07c2.85,11,4.54,27.23,4.54,49.79,0,91.48,52.42,171,129,210.69Zm42.73,0c-89.21-29.16-153.78-112.59-153.78-210.68,0-41.48-5.49-64.11-14.16-72.67-3.47-3.43-9.78-6.61-19.66-9.14-13-3.32-31.17-5.19-55.13-5.19s-42.09,1.87-55.13,5.19c-9.88,2.53-16.19,5.71-19.66,9.14-8.66,8.56-14.16,31.19-14.16,72.67a218.84,218.84,0,0,1-8.42,60.68h-1a218,218,0,0,0,8.46-60.68c0-41.73,5.55-64.58,14.46-73.38,3.61-3.57,10.07-6.83,20.11-9.4,13.13-3.35,31.33-5.22,55.38-5.22s42.25,1.87,55.37,5.22c10,2.57,16.51,5.83,20.12,9.4,8.91,8.8,14.46,31.65,14.46,73.38,0,98.74,65.72,182.55,156.08,210.68Zm69.84-5.63c-114.11,0-206.9-92-206.9-205,0-44.82-6.1-71.69-19.13-84.57s-41.33-19.15-86.54-19.15-73.5,6.29-86.54,19.15S1590,724.51,1590,769.33a202.37,202.37,0,0,1-9.16,60.67h-1a201.4,201.4,0,0,0,9.2-60.67c0-45.07,6.15-72.17,19.42-85.28s41.8-19.44,87.24-19.44,74,6.33,87.24,19.44,19.43,40.21,19.43,85.28c0,112.5,92.35,204,205.9,204Zm0-1A205.75,205.75,0,0,0,2153.65,914a203,203,0,0,0,.2-289.29c-38.8-38.33-90.49-59.43-145.54-59.43-45.45,0-74-6.33-87.24-19.44s-19.43-40.21-19.43-85.29c0-112.51-92.37-204-206-204a205.73,205.73,0,0,0-145.32,59.39,201.64,201.64,0,0,0-60.66,144.64c0,45.07-6.15,72.17-19.43,85.29s-41.8,19.44-87.24,19.44a205.73,205.73,0,0,0-145.34,59.4A202.73,202.73,0,0,0,1186.35,830h-1A203.73,203.73,0,0,1,1237,624a206.75,206.75,0,0,1,146-59.69c45.2,0,73.5-6.29,86.54-19.16s19.13-39.75,19.13-84.57a202.64,202.64,0,0,1,61-145.35,206.75,206.75,0,0,1,146-59.68c114.12,0,206.94,92,206.94,205,0,44.83,6.1,71.7,19.14,84.57s41.33,19.16,86.53,19.16c55.31,0,107.25,21.21,146.25,59.72a204,204,0,0,1-.21,290.71,206.76,206.76,0,0,1-146,59.65ZM2121.36,980a217.21,217.21,0,0,1,19.18-31.72,223.31,223.31,0,0,1-62,31.72h-3.26a222.5,222.5,0,0,0,67.39-34.51l2.81-2.11-2.11,2.81A218.15,218.15,0,0,0,2122.47,980Zm394.7,0h-1.2a71.58,71.58,0,0,1,9.39-11.44c20.38-20.13,54.57-29.1,110.74-29.1a172.54,172.54,0,0,0,121.83-49.76,168.49,168.49,0,0,0,50.69-120.84c0-55.37,9-89,29.41-109.1,19.31-19.08,51-28.13,102.09-29l.46,1c-51.09.84-82.69,9.82-101.84,28.74-20.15,19.9-29.12,53.26-29.12,108.39a169.52,169.52,0,0,1-51,121.55A173.55,173.55,0,0,1,2635,940.46c-55.93,0-89.89,8.9-110,28.81A71.2,71.2,0,0,0,2516.06,980Zm184.4,0a222.38,222.38,0,0,0,91.6-54.58,218.22,218.22,0,0,0,65.63-156.56c0-41.73,5.56-64.58,14.47-73.38,3.61-3.56,10.07-6.83,20.11-9.39,13.13-3.36,31.33-5.23,55.37-5.23q7.31,0,14.56-.43l.45,1q-7.47.48-15,.46c-24,0-42.08,1.87-55.12,5.2-9.88,2.52-16.19,5.71-19.66,9.14-8.67,8.56-14.17,31.18-14.17,72.66a219.22,219.22,0,0,1-65.93,157.27,223.26,223.26,0,0,1-89,53.87Zm44.38,0a238.92,238.92,0,0,0,59-42.71,234.82,234.82,0,0,0,70.63-168.47c0-22.54,1.7-38.79,4.55-49.77a45.19,45.19,0,0,1,3.22-9.08,11.06,11.06,0,0,1,1.73-2.64,12.22,12.22,0,0,1,2.65-1.62,49.92,49.92,0,0,1,9.53-3.36c11.58-3,28.43-4.81,51.55-4.81q11.1,0,22.08-.95l.45,1q-11.19,1-22.53,1c-23,0-39.81,1.79-51.3,4.78a48.33,48.33,0,0,0-9.33,3.28,15.38,15.38,0,0,0-1.89,1.08,4.08,4.08,0,0,0-.52.38,10.3,10.3,0,0,0-1.53,2.37,44.29,44.29,0,0,0-3.15,8.87c-2.82,10.89-4.51,27.06-4.51,49.52A235.85,235.85,0,0,1,2804.51,938,239.62,239.62,0,0,1,2747,980Zm133.56,0a317.11,317.11,0,0,0,79.38-198.54l0-.46.46,0a320.56,320.56,0,0,0,48.47-5.12l.44.94a321.24,321.24,0,0,1-48.41,5.17,318.11,318.11,0,0,1-79,198Zm43.06,0a353.61,353.61,0,0,0,67.35-167.33l.05-.39.39,0q16.18-1.89,32-5.21l.43.92q-15.8,3.34-32,5.24a354.46,354.46,0,0,1-67,166.81Zm79.71,0A426.13,426.13,0,0,0,3046,870.27l.08-.29.29-.07c1.28-.31,2.56-.62,3.84-.95l.43.93-3.74.92A426.83,426.83,0,0,1,3002.33,980Zm19.1,0a443.87,443.87,0,0,0,38.4-92.85l.64,1.38A443.67,443.67,0,0,1,3021.4,980Zm18.93,0a461.81,461.81,0,0,0,30-70.26l.61,1.31a462.17,462.17,0,0,1-29.49,69Zm18.79,0a481.68,481.68,0,0,0,21.32-48.62l.59,1.27A481.31,481.31,0,0,1,3059.11,980Zm622,0H3102l-2.94-6.3c-.94,2.11-1.91,4.21-2.88,6.3h-1.11q1.75-3.74,3.43-7.5l-9.23-19.77.37.79q-5.54,13.4-11.88,26.48h-1.11q6.63-13.68,12.42-27.71l-45.67-97.87q-5.21,1.27-10.43,2.39A409.61,409.61,0,0,1,2982.89,980h-1.18a408.53,408.53,0,0,0,50.35-123.72l.07-.31.31-.07q5.28-1.12,10.53-2.4l-6.8-14.57q-8.6,2-17.3,3.64A389.31,389.31,0,0,1,2963.28,980h-1.19A388.35,388.35,0,0,0,3018,842l.07-.33.33-.06q8.74-1.62,17.39-3.64L3029,823.46q-12.13,2.7-24.48,4.6A372.37,372.37,0,0,1,2943.15,980h-1.21a371.5,371.5,0,0,0,61.61-152.46l.06-.36.35-.06q12.38-1.89,24.55-4.59l.3.63-14.36-30.76a337.84,337.84,0,0,1-39.9,5.46A336.43,336.43,0,0,1,2901.65,980h-1.3a335.29,335.29,0,0,0,73.24-182.65l0-.43.43,0a339.23,339.23,0,0,0,40-5.42l-14.14-30.31a312.13,312.13,0,0,1-52.24,4.37h-5.33v3.35A302.1,302.1,0,0,1,2857.09,980h-1.4a301.11,301.11,0,0,0,85.62-211.12v-4.35h6.33a312.26,312.26,0,0,0,51.8-4.31l-6.85-14.67a288.46,288.46,0,0,1-44.94,3.36c-8.21,0-15.37.26-21.5.73-.37,5.61-.57,12.05-.57,19.39,0,77.53-30.51,150.31-85.86,204.91q-3.12,3.09-6.33,6.06h-1.47q3.6-3.32,7.1-6.77c55.16-54.41,85.56-126.94,85.56-204.2,0-7.55.21-14.16.6-19.88l0-.43.43,0c6.26-.5,13.59-.77,22-.77a287.8,287.8,0,0,0,44.5-3.3l.41.88-7.42-15.91a272.59,272.59,0,0,1-37.33,2.44c-15.78,0-27.89.92-36.72,2.43-1.29,8.22-2.06,19.55-2.06,34.41a269.08,269.08,0,0,1-80.89,193q-9.7,9.58-20.23,18.1h-1.6A271.46,271.46,0,0,0,2908,768.86c0-15.12.79-26.61,2.13-34.92l.05-.35.35-.06c8.93-1.56,21.2-2.51,37.25-2.51a271,271,0,0,0,36.88-2.39l.27.56-7.27-15.56a256,256,0,0,1-30,1.67c-25.34,0-41.6,2.22-50.72,5.33-2.81,8.3-4.81,23.78-4.81,48.23A252.42,252.42,0,0,1,2816.22,950a256.07,256.07,0,0,1-36.62,30h-1.79a255.77,255.77,0,0,0,37.71-30.76,251.51,251.51,0,0,0,75.62-180.38c0-24.78,2.05-40.42,4.94-48.78l.08-.23.23-.08c9.2-3.2,25.63-5.47,51.28-5.47a253,253,0,0,0,29.58-1.63L2955,665q-3.67.12-7.38.11c-45.19,0-73.5,6.29-86.53,19.15S2842,724,2842,768.86a202.67,202.67,0,0,1-61,145.37,206.81,206.81,0,0,1-146,59.68c-25.56,0-45.73,2-60.78,6.09h-3.62c15.49-4.76,36.83-7.09,64.4-7.09a205.79,205.79,0,0,0,145.33-59.4A201.65,201.65,0,0,0,2841,768.86c0-45.07,6.15-72.16,19.43-85.27s41.8-19.44,87.23-19.44q3.46,0,6.92-.1l-7.29-15.62c-50.3,0-81.45,7.67-98,24s-24.1,46.31-24.1,96.45a186,186,0,0,1-56,133.45A190.11,190.11,0,0,1,2635,957.18c-49.29,0-80.22,7.28-97.07,22.82h-1.45c16.9-16.26,48.25-23.82,98.52-23.82a189.1,189.1,0,0,0,133.55-54.58,185,185,0,0,0,55.67-132.74c0-50.39,7.58-80.55,24.4-97.17s47.91-24.18,98.19-24.26l.09.19-15.13-32.42c-104.09,3.75-140.39,44.07-140.39,154,0,85.53-70.16,154.34-156.3,154.34-74.37,0-117.28,15.53-138.72,56.42H2201.59a156.85,156.85,0,0,1,120.87-56.42c117.24,0,156.3-38.59,156.3-154.34,0-85.52,70.15-154.34,156.31-154.34,117.25,0,156.3-38.59,156.3-154.34a155.16,155.16,0,0,1,27.43-87.42l-8.36-17.91.36.78a168.48,168.48,0,0,0-35.72,104.09c0,55.45-9,89-29.36,109.07s-54.58,29.1-110.73,29.1A172.55,172.55,0,0,0,2513.15,648a168.48,168.48,0,0,0-50.68,120.82c0,55.41-9,89-29.35,109.07S2378.55,907,2322.38,907a172.51,172.51,0,0,0-121.84,49.83A168.37,168.37,0,0,0,2180.81,980h-1.22a168.44,168.44,0,0,1,20.25-23.86A173.51,173.51,0,0,1,2322.38,906c55.93,0,89.88-8.9,110-28.81s29.06-53.19,29.06-108.36a169.46,169.46,0,0,1,51-121.54A173.55,173.55,0,0,1,2635,597.27c55.92,0,89.87-8.91,110-28.81s29.06-53.15,29.06-108.36A169.5,169.5,0,0,1,2810.33,355l-7.37-15.8a185.08,185.08,0,0,0-44.59,120.91c0,50.37-7.58,80.57-24.4,97.18s-48.24,24.27-99,24.27a189.09,189.09,0,0,0-133.55,54.58,185.07,185.07,0,0,0-55.67,132.73c0,50.41-7.57,80.57-24.4,97.18s-48.25,24.27-99,24.27A189.11,189.11,0,0,0,2188.82,945a185.13,185.13,0,0,0-28.05,35h-1.17a185.59,185.59,0,0,1,28.52-35.76,190.07,190.07,0,0,1,134.26-54.93c50.5,0,81.73-7.64,98.29-24s24.1-46.31,24.1-96.47a186,186,0,0,1,56-133.44A190.11,190.11,0,0,1,2635,580.55c50.5,0,81.73-7.64,98.28-24s24.1-46.34,24.1-96.47a186,186,0,0,1,45.13-121.89l-7.22-15.47a201.64,201.64,0,0,0-53.57,137.36c0,45.06-6.16,72.15-19.44,85.27s-41.79,19.46-87.23,19.46a205.76,205.76,0,0,0-145.34,59.39,201.63,201.63,0,0,0-60.65,144.64c0,45.09-6.15,72.18-19.43,85.28s-41.8,19.44-87.24,19.44A205.73,205.73,0,0,0,2177.09,933a201.31,201.31,0,0,0-35.71,47h-1.14a202.48,202.48,0,0,1,36.15-47.73,206.79,206.79,0,0,1,146-59.69c45.19,0,73.5-6.28,86.54-19.15s19.13-39.73,19.13-84.57A202.67,202.67,0,0,1,2489,623.5a206.74,206.74,0,0,1,146-59.67c45.19,0,73.5-6.29,86.53-19.17s19.14-39.75,19.14-84.56a202.7,202.7,0,0,1,54.11-138.34l.22.47-14.88-31.89-1.29,1.26a234.85,234.85,0,0,0-70.65,168.5c0,22.55-1.7,38.8-4.54,49.79a45.62,45.62,0,0,1-3.23,9.07,10.85,10.85,0,0,1-1.73,2.64,12.54,12.54,0,0,1-2.65,1.63,50.71,50.71,0,0,1-9.53,3.35c-11.58,3-28.43,4.8-51.55,4.8a239,239,0,0,0-168.78,69,234.86,234.86,0,0,0-70.63,168.45c0,22.55-1.69,38.8-4.54,49.79a45.86,45.86,0,0,1-3.23,9.07,11.12,11.12,0,0,1-1.71,2.62,12.25,12.25,0,0,1-2.67,1.65,49.75,49.75,0,0,1-9.53,3.35c-11.58,3-28.43,4.81-51.55,4.81a240.55,240.55,0,0,0-90.71,17.51l-1.08.44L2231,857a237.17,237.17,0,0,0-53.66-256c-45.1-44.55-105.14-69.08-169-69.08-23.21,0-40.1-1.81-51.68-4.84a49.64,49.64,0,0,1-9.42-3.33,12.23,12.23,0,0,1-2.64-1.63,11.12,11.12,0,0,1-1.71-2.62,45.16,45.16,0,0,1-3.24-9.07c-2.84-11-4.54-27.24-4.54-49.8,0-130.94-107.41-237.48-239.43-237.48a239,239,0,0,0-168.81,69,234.86,234.86,0,0,0-70.63,168.45c0,22.55-1.69,38.81-4.54,49.79a44.16,44.16,0,0,1-3.23,9.07,10.86,10.86,0,0,1-1.71,2.62,12.25,12.25,0,0,1-2.67,1.65,49.87,49.87,0,0,1-9.52,3.35c-11.58,3-28.44,4.81-51.56,4.81a239,239,0,0,0-168.8,69A236.42,236.42,0,0,0,1151.42,830h-1a237.43,237.43,0,0,1,63.07-229.8A240,240,0,0,1,1383,530.89c23,0,39.81-1.79,51.29-4.78a48.71,48.71,0,0,0,9.34-3.28,17.64,17.64,0,0,0,1.88-1.07,4.18,4.18,0,0,0,.52-.39,10.26,10.26,0,0,0,1.53-2.36,44.29,44.29,0,0,0,3.15-8.87c2.83-10.89,4.51-27.07,4.51-49.54a235.84,235.84,0,0,1,70.93-169.16,240.05,240.05,0,0,1,169.51-69.32c132.57,0,240.43,107,240.43,238.48,0,22.48,1.69,38.66,4.51,49.55a43.47,43.47,0,0,0,3.16,8.86,10.09,10.09,0,0,0,1.51,2.36,4.81,4.81,0,0,0,.53.39,17.09,17.09,0,0,0,1.86,1.07,49.39,49.39,0,0,0,9.23,3.25c11.49,3,28.3,4.81,51.43,4.81,64.17,0,124.46,24.64,169.75,69.36a238.19,238.19,0,0,1,54.31,256,241.42,241.42,0,0,1,90-17.15c23,0,39.81-1.79,51.3-4.78a48.71,48.71,0,0,0,9.34-3.28,17.93,17.93,0,0,0,1.89-1.07,4.61,4.61,0,0,0,.51-.39,10.3,10.3,0,0,0,1.53-2.37,44.06,44.06,0,0,0,3.15-8.87c2.83-10.89,4.51-27.06,4.51-49.53a235.88,235.88,0,0,1,70.93-169.17A240.07,240.07,0,0,1,2635,530.38c23,0,39.81-1.79,51.3-4.77a49.41,49.41,0,0,0,9.34-3.28,17.64,17.64,0,0,0,1.88-1.07,4.9,4.9,0,0,0,.52-.39,10.06,10.06,0,0,0,1.53-2.36,44.52,44.52,0,0,0,3.15-8.87c2.82-10.9,4.51-27.07,4.51-49.54a235.86,235.86,0,0,1,70.94-169.21c.51-.51,1-1,1.55-1.51l.16.35-14.55-31.2q-5,4.5-9.84,9.26a268,268,0,0,0-80.58,192.27c0,15.09-.8,26.55-2.13,34.93l-.06.35-.35.06c-9,1.57-21.24,2.51-37.25,2.51a272.21,272.21,0,0,0-192.33,78.64,268,268,0,0,0-80.59,192.27c0,15.09-.8,26.57-2.13,34.93l-.06.35-.35.06c-9,1.57-21.24,2.51-37.25,2.51a280,280,0,0,0-43.58,3.39l-.68.11.1-.67a273.66,273.66,0,0,0,3-40.24,268.15,268.15,0,0,0-80.33-192.19c-51.41-50.77-119.78-78.73-192.54-78.73-16,0-28.31-.94-37.26-2.5l-.35-.06,0-.36c-1.34-8.36-2.13-19.84-2.13-34.93,0-149.38-122.41-270.91-272.87-270.91a272.2,272.2,0,0,0-192.27,78.64,268,268,0,0,0-80.59,192.32c0,15.09-.8,26.57-2.13,34.93l-.06.35-.35.07c-8.93,1.56-21.2,2.5-37.26,2.5A272.25,272.25,0,0,0,1190.68,577c-52,51.27-80.59,119.55-80.59,192.32a270.78,270.78,0,0,0,3.11,41.11l.1.67-.67-.1a278.68,278.68,0,0,0-34.48-3.23l-.21-.44,7.7,16.51a257.54,257.54,0,0,1,42.25,6.13h-4.63a258.12,258.12,0,0,0-37.14-5.1l2.38,5.1H20V170H780.77L792,194.15l0,0q5.31-5.48,10.66-10.74,6.81-6.72,14-13.37h1.47q-7.54,7-14.73,14.08-5.48,5.4-10.91,11l7.12,15.27q7.38-7.74,14.83-15.08,12.95-12.77,27.08-25.27H843q-14.54,12.84-27.88,26-7.58,7.45-15.07,15.33l-.34-.73,7.48,16.06q9.41-10,19-19.46C838.93,194.58,852.62,182.14,867,170h1.57c-14.71,12.36-28.69,25.05-41.74,37.9q-9.68,9.54-19.21,19.73l-.16-.35,15,32.14q13.39-14.84,27.16-28.42a725.62,725.62,0,0,1,70.91-61h1.65a724.49,724.49,0,0,0-71.86,61.71q-13.87,13.66-27.4,28.7l14.94,32c11.47-13.24,23.25-25.83,35.22-37.63,30.66-30.22,66.54-59.11,105-84.82h1.79c-38.93,25.89-75.19,55-106.13,85.53-12.06,11.88-23.92,24.57-35.46,37.91l-.37-.78,15.44,33.12c13.89-16.75,28.34-32.56,43.15-47.17,41-40.41,91.42-78.06,145-108.61h2c-54.13,30.65-105,68.58-146.39,109.32-14.89,14.69-29.42,30.61-43.38,47.46l-.2-.42,7.56,16.22a631.7,631.7,0,0,1,47.07-52C955.21,244.31,1014.4,202,1076.75,170h2.2c-62.9,32.06-122.68,74.66-170,121.25a630.16,630.16,0,0,0-47.3,52.33l7.78,16.68-.38-.83a621.49,621.49,0,0,1,50.94-57c50.49-49.76,115.22-94.61,182.87-126.73q1.39-2.85,2.82-5.68h1.11c-1,2.09-2.08,4.18-3.11,6.28l-.07.15-.16.08c-67.61,32.08-132.31,76.89-182.76,126.61a622.41,622.41,0,0,0-51.17,57.34l7.6,16.31-.15-.34a611.76,611.76,0,0,1,54.75-62.12c50.64-49.9,115.62-94.49,183.61-126q4.39-9.19,9.12-18.29h1.11q-4.86,9.39-9.41,18.88l-.08.17-.16.07C1048,220.61,983.07,265.17,932.48,315a610.86,610.86,0,0,0-55,62.43l7.92,17-.4-.88a599.1,599.1,0,0,1,58.5-67.28c50.7-50,115.92-94.3,184.38-125.28q7.29-15.63,15.51-31h1.13q-8.37,15.63-15.81,31.59l-.08.17-.17.08C1060.06,232.77,994.87,277,944.21,327a601.67,601.67,0,0,0-58.73,67.59l16,34.24-.31-.69A576.87,576.87,0,0,1,967,350.08c51.17-50.42,117-94.15,186.08-123.62a609.1,609.1,0,0,1,28.5-56.46h1.15a608.21,608.21,0,0,0-28.81,57l-.08.18-.18.08c-69,29.42-134.83,73.12-186,123.49a576.85,576.85,0,0,0-66.07,78.39l7.84,16.8-.17-.36A567,567,0,0,1,978.71,362c51.38-50.62,117.55-94,187-122.71A591.9,591.9,0,0,1,1200.86,170H1202a590.51,590.51,0,0,0-35.46,69.86l-.08.18-.19.08c-69.42,28.64-135.55,72-186.88,122.58a564.51,564.51,0,0,0-69.65,84l7.75,16.62a551.83,551.83,0,0,1,72.93-89.41c51.59-50.83,118.1-93.88,188-121.74a577.45,577.45,0,0,1,41.9-82.15h1.18a576.42,576.42,0,0,0-42.23,82.73l-.09.19-.19.08c-69.87,27.81-136.33,70.82-187.88,121.61A550.4,550.4,0,0,0,918,464.37l8,17.19-.17-.38a538.62,538.62,0,0,1,76.33-95.38c51.79-51.06,118.66-93.72,189.07-120.7a561.8,561.8,0,0,1,48.8-95.1h1.19a560,560,0,0,0-49.14,95.67l-.08.2-.21.08c-70.36,26.93-137.18,69.55-188.93,120.56a537,537,0,0,0-76.53,95.75l7.92,17a523.6,523.6,0,0,1,79.65-101.54c52.05-51.3,119.33-93.59,190.21-119.59A543,543,0,0,1,1260,170h1.2A542,542,0,0,0,1205,278.69l-.08.21-.22.08c-70.82,25.94-138.07,68.19-190.07,119.45a523.61,523.61,0,0,0-79.84,101.91l17,36.51-.28-.62c23.21-42.54,52.44-81.75,85.89-114.71,52.65-51.88,120.83-93.25,192.78-117A506.2,506.2,0,0,1,1300.77,170H1302a505.5,505.5,0,0,0-70.94,135.06l-.08.23-.23.08c-71.9,23.71-140,65-192.63,116.87-33.55,33.05-62.85,72.41-86.07,115.12l36.52,78.31-.4-.86a427.63,427.63,0,0,1,96.17-145.67c54.25-53.45,124.7-92.47,199.5-110.53A428.38,428.38,0,0,1,1387.62,170H1389a427.17,427.17,0,0,0-104.27,189.15l-.07.29-.3.07c-74.74,18-145.14,56.95-199.32,110.35a426.36,426.36,0,0,0-96.3,146.21l9.3,19.94a409.84,409.84,0,0,1,98-155c54.74-53.94,125.92-92.21,201.57-108.45a409.79,409.79,0,0,1,111.12-200.27c.79-.78,1.58-1.55,2.38-2.31h1.43q-1.56,1.5-3.1,3a408.71,408.71,0,0,0-110.92,200.09l-.07.31-.32.07c-75.58,16.16-146.7,54.37-201.38,108.25a408.67,408.67,0,0,0-98.12,155.58l32.84,70.44-.44-1a354.56,354.56,0,0,1,100.25-190,358.43,358.43,0,0,1,209.61-100.54A354.57,354.57,0,0,1,1444,208a361.38,361.38,0,0,1,45.5-38h1.74a360.24,360.24,0,0,0-46.54,38.75,353.48,353.48,0,0,0-102.82,208l0,.39-.39.05A357.3,357.3,0,0,0,1132,517.51a353.47,353.47,0,0,0-100.23,190.87L1044,734.52a336.33,336.33,0,0,1,99-205.82,340.29,340.29,0,0,1,213.07-97.14,336.35,336.35,0,0,1,99.6-211.63,342.11,342.11,0,0,1,64.4-49.93H1522a341.38,341.38,0,0,0-65.64,50.64,335.43,335.43,0,0,0-99.34,211.43l0,.42-.42,0a339.33,339.33,0,0,0-212.87,96.89,335.35,335.35,0,0,0-98.91,206.88l-.71-1.52,18,38.53q3.64-.09,7.3-.09c3.09,0,4.64,0,6.32.06v-3.93c0-82.07,32.26-159.08,90.85-216.81C1224.47,495.43,1301.34,464,1383,464c2.64,0,4,0,5.33,0v-3.38c0-82.07,32.27-159.06,90.86-216.8A306.17,306.17,0,0,1,1600.69,170H1604a305.31,305.31,0,0,0-124.13,74.48c-58.4,57.55-90.56,134.29-90.56,216.09v4.35l-.48,0c-1.59,0-2.89.05-5.85.05-81.38,0-158,31.33-215.75,88.25-58.39,57.55-90.55,134.29-90.55,216.1v5h-.52c-1.89-.07-3.4-.08-6.8-.08-2.29,0-4.57,0-6.84.08l15.15,32.49a280,280,0,0,1,34.44,3.15,271.44,271.44,0,0,1-3-40.58c0-73,28.72-141.58,80.88-193a273.21,273.21,0,0,1,193-78.93c15.8,0,27.9-.91,36.74-2.43,1.29-8.27,2.06-19.59,2.06-34.41a269,269,0,0,1,80.88-193,273.27,273.27,0,0,1,193-78.93c151,0,273.87,122,273.87,271.91,0,14.83.77,26.15,2.06,34.42,8.85,1.52,20.94,2.43,36.73,2.43,73,0,141.65,28.06,193.24,79a269.12,269.12,0,0,1,80.63,192.9,274.82,274.82,0,0,1-2.86,39.71,281,281,0,0,1,43.07-3.3c15.75,0,27.83-.92,36.73-2.43,1.29-8.27,2.06-19.59,2.06-34.42a269,269,0,0,1,80.89-193,273.2,273.2,0,0,1,193-78.93c15.75,0,27.83-.92,36.73-2.43,1.29-8.29,2.06-19.6,2.06-34.42a269,269,0,0,1,80.88-193q4.93-4.89,10.1-9.48v0l-7.16-15.35.26.57q-7.38,6.36-14.36,13.25c-55.16,54.41-85.56,126.93-85.56,204.19,0,7.52-.21,14.18-.6,19.89l0,.43-.43,0c-6.38.5-13.68.77-22,.77a288.87,288.87,0,0,0-204,83.42c-55.17,54.4-85.57,126.91-85.57,204.18,0,7.52-.21,14.18-.6,19.89l0,.43-.43,0c-6.26.5-13.58.77-22,.77s-16.7.32-24.7,1l-.59,0,0-.58c.51-7,.76-14.09.76-21.14a284.78,284.78,0,0,0-85.3-204.12c-54.55-53.88-127.11-83.55-204.29-83.55-8.43,0-15.76-.27-22-.77l-.43,0,0-.43c-.39-5.72-.6-12.33-.6-19.89C1985.2,302,1855.29,173,1695.61,173a288.88,288.88,0,0,0-204,83.41C1436.43,310.82,1406,383.34,1406,460.6c0,7.52-.22,14.18-.6,19.89l0,.44-.43,0c-6.26.5-13.58.77-22,.77a288.9,288.9,0,0,0-204,83.41c-55.17,54.4-85.58,126.93-85.58,204.19,0,7.31.29,14.7.85,22l0,.59-.58-.05c-7.82-.62-15.63-.95-23.38-1l-.47-1q11.61,0,23.35.94c-.54-7.18-.81-14.4-.81-21.54,0-77.53,30.51-150.32,85.88-204.9A289.83,289.83,0,0,1,1383,480.73c8.21,0,15.36-.26,21.5-.73.36-5.6.57-12.09.57-19.4,0-77.53,30.5-150.3,85.87-204.9A289.85,289.85,0,0,1,1695.61,172c160.23,0,290.59,129.48,290.59,288.63,0,7.35.2,13.79.57,19.4,6.13.47,13.29.73,21.5.73,77.45,0,150.25,29.77,205,83.84a285.76,285.76,0,0,1,85.6,204.83c0,6.88-.24,13.78-.73,20.63q11.77-.94,24.21-.94c8.21,0,15.36-.25,21.5-.73.37-5.59.57-12.08.57-19.39,0-77.53,30.51-150.31,85.87-204.89A289.84,289.84,0,0,1,2635,480.4c8.12,0,15.25-.26,21.5-.73.37-5.59.57-12.08.57-19.39,0-77.53,30.51-150.3,85.86-204.9q7.09-7,14.62-13.49l-7.28-15.6.36.78q-9.66,8.07-18.73,17c-58.4,57.54-90.56,134.29-90.56,216.09v4.35H2635a305.5,305.5,0,0,0-215.76,88.27c-58.39,57.55-90.54,134.28-90.54,216.09v4.36h-6.33c-2.42,0-4.84,0-7.28.09h-.51v-4a301.38,301.38,0,0,0-90.29-216c-57.73-57-134.46-88.33-216-88.33l-3,0-2.87,0h-.5v-4.37c0-167.81-137.41-304.35-306.31-304.35a310.15,310.15,0,0,0-76.62,9.55v-1a310.61,310.61,0,0,1,76.62-9.52c169.45,0,307.31,137,307.31,305.35v3.37l2.38,0,3,0c81.84,0,158.82,31.48,216.74,88.61a302.41,302.41,0,0,1,90.59,216.71v3q3.4-.08,6.79-.08h5.33v-3.36c0-82.07,32.26-159.07,90.84-216.81,57.94-57.1,134.82-88.55,216.46-88.55h5.33v-3.35c0-82.07,32.27-159.08,90.85-216.81q9.2-9.06,19-17.24l-7-15.05.13.29q-12,9.75-23.09,20.7c-58.54,57.7-92.15,133.73-95.3,215.39l0,.47h-.46a321.88,321.88,0,0,0-216.88,92.9,318.27,318.27,0,0,0-85.44,147.73l-.48,1.87-.48-1.87a318.38,318.38,0,0,0-85.05-147.15,321.85,321.85,0,0,0-217.19-93h-.47v-.47C2011.68,276.2,1869,139.46,1695.65,139.46a326.75,326.75,0,0,0-76.65,9v-1a327.92,327.92,0,0,1,76.65-9c173.75,0,316.75,136.92,323.76,309A322.81,322.81,0,0,1,2236.8,540.7a319.26,319.26,0,0,1,84.83,145.76,319.25,319.25,0,0,1,85.22-146.34,322.87,322.87,0,0,1,217.08-93.18c3.26-81.73,37-157.83,95.58-215.59q11.23-11.07,23.36-20.92L2736,195.77a342.46,342.46,0,0,0-27.57,24.41,335.39,335.39,0,0,0-99.34,211.43l0,.42-.43,0A340,340,0,0,0,2322,636.94l-.46,1.07-.46-1.06a339.53,339.53,0,0,0-286.49-204.44l-.43,0,0-.42c-6.88-81.69-43.12-157.37-102.9-214.63a339,339,0,0,0-235.65-94.67,344,344,0,0,0-76.61,8.58v-1a344.73,344.73,0,0,1,76.61-8.56,340,340,0,0,1,236.35,95c59.84,57.32,96.17,133.07,103.16,214.84a340.55,340.55,0,0,1,286.45,203.94A341,341,0,0,1,2608.16,431.1a336.33,336.33,0,0,1,99.6-211.63,347.07,347.07,0,0,1,27.83-24.63l.14.3-7-14.92a360.53,360.53,0,0,0-32.05,28.06,353.44,353.44,0,0,0-102.81,208l0,.39-.39,0A357.18,357.18,0,0,0,2322,598.88l-.44.79-.44-.79a356.56,356.56,0,0,0-271.3-181.69l-.39-.05,0-.39c-22.91-177.84-174.45-310.93-353.76-310.7a360.75,360.75,0,0,0-76.64,8.18v-1a361.46,361.46,0,0,1,76.64-8.16c179.68-.23,331.55,133,354.7,311.19A357.61,357.61,0,0,1,2321.58,597.6,358.17,358.17,0,0,1,2593,415.79,354.43,354.43,0,0,1,2696,207.57a360.38,360.38,0,0,1,32.32-28.28l-6.82-14.61A378.06,378.06,0,0,0,2685,196.37a371.88,371.88,0,0,0-105.85,205.05l-.05.36-.36.06A374.17,374.17,0,0,0,2322,566.52l-.42.63-.42-.63a373.54,373.54,0,0,0-256.57-164.23l-.36-.05-.05-.36c-29.66-180.41-185.7-312.75-368.53-312.55A378.48,378.48,0,0,0,1619,97.12v-1a379.19,379.19,0,0,1,76.61-7.77c183.2-.2,339.57,132.31,369.45,313a374.54,374.54,0,0,1,256.48,164A375.2,375.2,0,0,1,2578.19,400.9a372.87,372.87,0,0,1,106.06-205.24,379.53,379.53,0,0,1,36.83-31.91l.24.51-7-15.08a394.91,394.91,0,0,0-41.07,35.26A390.32,390.32,0,0,0,2564.7,386.91l-.07.34-.33.06a390.76,390.76,0,0,0-242.39,150.14l-.4.54-.4-.54a390.3,390.3,0,0,0-242.2-149.7l-.33-.06-.07-.34a389.84,389.84,0,0,0-382.9-314.74A396,396,0,0,0,1619,80.05V79a396.87,396.87,0,0,1,76.61-7.42,390.85,390.85,0,0,1,383.82,315.22,391.34,391.34,0,0,1,242.08,149.49,391.84,391.84,0,0,1,242.27-149.94,390.27,390.27,0,0,1,150.07-238.13l-7.19-15.42.41.9a406.3,406.3,0,0,0-156.48,239l-.07.31-.31.07c-75.59,16.16-146.71,54.37-201.37,108.25-9.4,9.26-18.42,19.05-26.94,29.24l-.39.46-.38-.46c-8.35-10-17.16-19.55-26.34-28.59-54.68-54-125.94-92.31-201.77-108.47l-.31-.07-.07-.31a406.6,406.6,0,0,0-397-317.22A411.17,411.17,0,0,0,1619,63.05V62a413.79,413.79,0,0,1,76.63-7.12,407.58,407.58,0,0,1,397.91,317.69c75.9,16.24,147.22,54.59,202,108.67,9.05,8.92,17.75,18.36,26,28.2,8.44-10,17.34-19.71,26.63-28.85,54.72-53.94,125.89-92.21,201.55-108.45a409.6,409.6,0,0,1,111.1-200.31,414.46,414.46,0,0,1,45.85-39l-7.07-15.15.3.65a427.87,427.87,0,0,0-50.07,42.32c-54.38,53.6-94.29,123.57-113,198.06l-.08.3-.29.07c-74.71,18-145.11,57-199.27,110.33q-7.8,7.69-15.23,15.8l-.37.4-.37-.4c-4.41-4.79-9.16-9.71-14.58-15.13-54.2-53.53-124.74-92.57-199.69-110.58l-.29-.07-.08-.29a427.23,427.23,0,0,0-117.38-202,422.22,422.22,0,0,0-293.5-117.91A429.5,429.5,0,0,0,1619,46V45a430.59,430.59,0,0,1,76.66-6.84,423.22,423.22,0,0,1,294.19,118.19,428.33,428.33,0,0,1,117.59,202.23c75,18.08,145.6,57.18,199.87,110.77,5.27,5.28,9.92,10.08,14.24,14.77q7.27-7.92,14.9-15.44c54.22-53.44,124.66-92.45,199.44-110.52,18.8-74.56,58.77-144.58,113.21-198.24a428.59,428.59,0,0,1,50.35-42.52l-28.51-61.1.21.47A494.09,494.09,0,0,0,2602.8,113c-52.8,52-95.12,119.71-119.71,191.51l-.08.23-.24.08a504.68,504.68,0,0,0-161,88.59l-.32.26-.31-.26a504.39,504.39,0,0,0-160.71-88.11l-.24-.08-.08-.23c-25.32-73.79-69.42-143.18-124.72-196.14A488.4,488.4,0,0,0,1907,20h2.32a489.54,489.54,0,0,1,126.8,88.17c55.36,53,99.51,122.45,124.9,196.3a505.1,505.1,0,0,1,160.47,87.95A505.74,505.74,0,0,1,2482.22,304c24.65-71.86,67-139.64,119.88-191.66a495.36,495.36,0,0,1,68.63-56.49l-14.06-30.12.15.33a528,528,0,0,0-77.5,63.15c-52.25,51.45-95.51,118.34-122.3,189l-.08.21-.21.08a545,545,0,0,0-135,72.54l-.3.22-.29-.22a545.13,545.13,0,0,0-134.63-72.17l-.21-.08-.08-.21c-27.64-72.77-72.77-141.37-127.61-193.93A521.59,521.59,0,0,0,1976.19,20H1978a522.12,522.12,0,0,1,81.22,63.94C2114.16,136.55,2159.34,205.2,2187,278a545.76,545.76,0,0,1,134.36,72,546.08,546.08,0,0,1,134.78-72.38C2483,206.91,2526.32,140,2578.61,88.48a529.19,529.19,0,0,1,77.79-63.35L2654,20H3680Z"/><path d="M2942,60.22h12.08q4.8,0,7.47,2.34a8.37,8.37,0,0,1,2.66,6.63,8.43,8.43,0,0,1-2.69,6.66,10.82,10.82,0,0,1-7.44,2.39h-8.53V90.75H2942Zm11.73,15.07q7,0,7-6.1t-7-6h-8.18V75.29Zm39.53,15.46-3.38-7.84h-15.93l-3.38,7.84h-3.63l13.42-30.53h3.07l13.42,30.53ZM2975.18,80h13.42l-6.71-15.63Zm26.19-19.75h12.08q4.8,0,7.47,2.34a8.37,8.37,0,0,1,2.66,6.63,8.43,8.43,0,0,1-2.68,6.66,10.84,10.84,0,0,1-7.45,2.39h-8.53V90.75h-3.55Zm11.73,15.07q7,0,7-6.1t-7-6h-8.18V75.29Zm16.2,15.46V60.22h19.31v3H3032.8V73.78h14.94v2.94H3032.8V87.8h15.81v3Zm49.22,0h-3.89l-5.2-9.79a5.59,5.59,0,0,0-2.23-2.44,7.5,7.5,0,0,0-3.48-.67H3058v12.9h-3.51V60.22h12.56q5,0,7.6,2.21a8,8,0,0,1,2.62,6.5,8.09,8.09,0,0,1-2,5.73,9.36,9.36,0,0,1-5.73,2.75,5.06,5.06,0,0,1,2.05,1.17,8.18,8.18,0,0,1,1.63,2.21ZM3066.75,74.9a8.11,8.11,0,0,0,5.3-1.47A5.49,5.49,0,0,0,3073.8,69a5.32,5.32,0,0,0-1.73-4.37c-1.15-1-2.93-1.43-5.32-1.43H3058V74.9Zm-95.83,25.45h4.94l-8.37,23.53h-4.17l-5.44-15.59-5.51,15.59h-4.17l-8.34-23.53h5.27l5.37,16.25,5.71-16.25h3.64l5.5,16.42Zm25.83,23.53-2.23-5.21h-10.95l-2.23,5.21h-5.24l10.81-23.53h4.17l10.81,23.53Zm-11.48-9.14h7.55l-3.77-8.81Zm18.59,9.14V100.35h5.21v19.29h10.51v4.24Zm18.79,0V100.35h5.21v19.29h10.51v4.24Zm18.79,0V100.35h16.22v4h-11.15v5.51H3057v4h-10.48v5.91h11.15v4Zm25.23,0V104.59h-7.38v-4.24h20v4.24h-7.38v19.29Z"/><path d="M2847,90.5a11.62,11.62,0,0,1-23.23,0c0-8.62-2.9-11.49-11.61-11.49s-11.62,2.87-11.62,11.49A11.62,11.62,0,1,1,2788.92,79c8.71,0,11.61-2.87,11.61-11.49a11.62,11.62,0,0,1,23.23,0c0,8.62,2.9,11.49,11.62,11.49A11.52,11.52,0,0,1,2847,90.5ZM2765.62,125a11.49,11.49,0,1,1,11.61-11.49A11.55,11.55,0,0,1,2765.62,125Zm151.17-57.5A11.55,11.55,0,0,1,2905.17,79c-8.71,0-11.61,2.88-11.61,11.49A11.55,11.55,0,0,1,2881.94,102c-8.71,0-11.61,2.87-11.61,11.49A11.62,11.62,0,1,1,2858.71,102c8.71,0,11.62-2.87,11.62-11.49A11.55,11.55,0,0,1,2881.94,79c8.71,0,11.62-2.87,11.62-11.48a11.62,11.62,0,0,1,23.23,0Z"/></svg>