<svg id="Layer_1" data-name="Layer 1" xmlns="http://www.w3.org/2000/svg" xmlns:xlink="http://www.w3.org/1999/xlink" viewBox="0 0 3700.08 1000.08"><defs><linearGradient id="linear-gradient" x1="-617.52" y1="-3273.64" x2="-560.13" y2="-3273.64" gradientTransform="matrix(70.62, 0, 0, -70.62, 43434.6, -230684.45)" gradientUnits="userSpaceOnUse"><stop offset="0" stop-color="#fff"/><stop offset="0.5" stop-color="#4a90e2"/><stop offset="1" stop-color="#fff"/></linearGradient><linearGradient id="linear-gradient-2" x1="-648.58" y1="-3469.39" x2="-649.58" y2="-3470.39" gradientTransform="matrix(500, 0, 0, -500, 324880.15, -1734444.15)" gradientUnits="userSpaceOnUse"><stop offset="0" stop-color="#2020b5"/><stop offset="1" stop-color="#2677ff"/></linearGradient><linearGradient id="linear-gradient-3" x1="-648.54" y1="-3469.39" x2="-649.54" y2="-3470.39" gradientTransform="matrix(500, 0, 0, -500, 327898.15, -1734442.9)" xlink:href="#linear-gradient-2"/><linearGradient id="linear-gradient-4" x1="-647.92" y1="-3547.12" x2="-650.06" y2="-3547.14" gradientTransform="matrix(489.66, 0, 0, -44.25, 321204.39, -156038.37)" xlink:href="#linear-gradient-2"/><linearGradient id="linear-gradient-5" x1="-645.88" y1="-3516.65" x2="-646.88" y2="-3516.83" gradientTransform="matrix(162.79, 0, 0, -68.99, 108057.53, -242536.35)" xlink:href="#linear-gradient-2"/></defs><title>paperwalletemptyD_1</title><path d="M1600,0H3700.08V1000.08H1600v-150H0V150H1600V0Z" style="fill:#fff;fill-rule:evenodd"/><path d="M1600,0H3700.08V1000.08H1600v-150H0V150H1600V0Z" style="fill-rule:evenodd;fill:url(#linear-gradient)"/><g id="_2434674456096" data-name=" 2434674456096"><path d="M1600,937.11a547.33,547.33,0,0,1,48.08,63h-2.95A543.41,543.41,0,0,0,1600,940.84v-3.73Zm487.85,63c-119.07-110.86-163.26-191.19-199-356-110.48,121.71-187.77,169.88-338.39,206h-10.65c157.49-36.48,235.43-84.16,348.82-209.44l1.61-1.76.5,2.33c35.89,166.73,80,246.95,200.7,358.88h-3.59Z" style="fill:#fff"/><path d="M1600.43,958.22c16.1,14.64,30.24,28.41,42.75,41.86h-3.37c-11.74-12.52-24.91-25.33-39.78-38.89v-5.4c112-24.39,164.35-54.89,241.84-140.52l1.6-1.76.51,2.33c17.78,82.63,38.66,132.95,81.82,184.24h-3.2c-42.15-50.56-62.92-100.5-80.52-181.39-77.06,84.76-129.72,115.16-241.66,139.52h0Z" style="fill:#fff"/><path d="M1759.39,0c123.7,113.86,168.79,194.08,205.13,361.73,117.7-129.67,197.72-175.87,368.86-213C2274.64,95.43,2233,49.84,2201.63,0h2.93c31.51,49.65,73.27,95.17,132.23,148.54l1.77,1.59-2.33.51c-172.94,37.22-252.79,83.34-371.49,214.5l-1.62,1.77h0l-.5-2.34C1926.13,195,1881.09,115,1755.77,0h3.62Z" style="fill:#fff"/><path d="M1926,0c45.42,52.56,67.08,103.16,85.34,187.08C2088.38,102.33,2141,71.92,2253,47.56,2234.6,30.85,2218.77,15.28,2205,0h3.32c13.8,15.17,29.65,30.67,48.06,47.33l1.76,1.61-2.33.49c-113.71,24.49-166.23,54.81-244.29,141.06l-1.59,1.77h0l-.52-2.33C1991,104.25,1969.22,53.32,1922.72,0Z" style="fill:#fff"/><path d="M1442.23,739.68c25.83,40.13,46.38,76,62.46,110.38H1502c-16.23-34.58-37-70.61-63.1-111l-1.29-2,2.39.12c22.8,1.13,43.21,1.68,62.41,1.68,134.29,0,219.8-27.38,351.94-112.71l2-1.29-.12,2.37c-8,159.63,10.77,247.75,85.23,372.9h-2.84c-73.77-124.32-92.6-212.45-85-370.63-131.45,84.61-217.11,111.81-351.26,111.81-18.57,0-38.27-.51-60.15-1.58Z" style="fill:#fff"/><path d="M1802.9,1000.08c-34.94-67.4-44-123.14-39.66-214.05C1701,826,1654.33,846.41,1600,854.67V852.2c54.38-8.35,101.14-29,163.89-69.54l2-1.27-.12,2.39c-4.59,92.29,4.36,148.22,39.87,216.3Z" style="fill:#fff"/><path d="M1911.41,0c76.59,127.35,96.11,215.74,88.35,376.32,131.46-84.59,217.12-111.81,351.27-111.81,18.57,0,38.27.51,60.15,1.56C2346.51,165.6,2314.84,92.13,2303.93,0h2.48c11,92.22,42.89,165.74,108.12,266.76l1.29,2-2.38-.11c-22.8-1.15-43.21-1.7-62.41-1.7-134.28,0-219.81,27.38-352,112.71l-2,1.31h0l.12-2.39c8.07-162-11.35-250.4-88.65-378.59h2.86Z" style="fill:#fff"/><path d="M2047.51,0c37.42,70,47.11,126.31,42.66,219.74,86.22-55.39,142.58-73.23,230.73-73.23,12,0,24.72.34,38.8,1-35.82-55.74-56.18-98.9-65.94-147.52h2.53c9.86,48.71,30.46,92,66.76,148.19l1.3,2-2.39-.13c-15-.73-28.42-1.09-41.06-1.09-88.29,0-144.51,18-231.41,74.12l-2,1.29h0l.13-2.38c4.72-94.84-4.87-151.3-42.88-222h2.78Z" style="fill:#fff"/><path d="M1397.45,606.22c31,96.6,44,168.25,39.06,243.84H1434c4.94-76-8.27-147.9-39.65-245.36l-.74-2.28,2.28.74c88.47,28.49,152.62,40.66,214.48,40.66s126-12.17,214.48-40.66l2.27-.74-.73,2.28c-50.51,156.83-54,247.6-10.38,395.38h-2.55c-43.32-147.2-40-238.1,9.87-393.86-87.55,28-151.35,40-213,40s-125.4-12-213-40h0Zm202.58,386q5.21-.12,10.38-.12a508.79,508.79,0,0,1,88.16,8h-15.48a493.91,493.91,0,0,0-72.68-5.49q-5.17,0-10.38.11v-2.45Z" style="fill:#fff"/><path d="M1416.48,734.07c14.23,44.52,22.65,81,25.27,116h-2.48c-2.66-35.36-11.28-72.24-25.85-117.49l-.73-2.28,2.28.73c58.18,18.74,100.36,26.73,141,26.73s82.84-8,141-26.73l2.27-.75-.72,2.3C1664.52,838.33,1663,898.4,1694,1000.08h-2.56c-30.75-101.08-29.39-161.32,4.07-266-57.28,18.31-99.12,26.14-139.52,26.14s-82.25-7.83-139.53-26.14Zm183.55,256a452.52,452.52,0,0,1,50.39,10H1640.1c-14.15-3.32-27.39-5.81-40.07-7.55v-2.47Z" style="fill:#fff"/><path d="M2038.22,0c45.07,150.57,42.35,241.81-8.19,399.55,87.55-28.06,151.35-40.05,213-40.05s125.41,12,213,40.05c-50.55-157.77-53.27-249-8.19-399.55h2.57C2405,151.16,2407.87,242.22,2459,401.08l.73,2.26-2.27-.72C2369,374.13,2304.86,362,2243,362s-126,12.16-214.48,40.65l-2.27.72h0l.73-2.26c51.15-158.84,54-249.91,8.7-401.07ZM2360,0c-42.83,9.37-80.32,13.62-117,13.62h0c-36.7,0-74.19-4.25-117-13.62h11.88c38,7.67,71.9,11.18,105.14,11.18h0c33.25,0,67.16-3.51,105.15-11.18Z" style="fill:#fff"/><path d="M2160.19,0c32.54,104.55,31.77,165.06-2.31,271.7,57.27-18.3,99.11-26.13,139.52-26.13s82.25,7.83,139.52,26.13c-34.09-106.65-34.86-167.16-2.32-271.7h2.57c-32.82,105.15-31.88,165.48,2.81,273.22l.73,2.28-2.27-.75C2380.25,256,2338.07,248,2297.4,248s-82.85,8-141,26.74l-2.28.75h0l.74-2.28c34.69-107.72,35.62-168,2.82-273.22h2.55Zm252.58,0c-45.31,13.06-80.86,18.76-115.37,18.76h0c-34.5,0-70-5.7-115.36-18.76h9.05c41.15,11.32,74.2,16.3,106.32,16.3h0c32.12,0,65.18-5,106.32-16.3Z" style="fill:#fff"/><path d="M1600,935c28.13,14.3,57.63,31.59,89.89,52.35-8.46-174.91,15.46-264.18,110.24-411.45-21.9,1.08-41.61,1.59-60.18,1.59-134.13,0-219.77-27.2-351.24-111.82,7.92,163.94-12.59,252.63-93.22,384.36h-2.88c81.37-132.58,101.77-221.19,93.54-386.62l-.13-2.37,2,1.29c132.14,85.32,217.65,112.72,351.91,112.72,19.2,0,39.63-.56,62.44-1.7l2.38-.12-1.3,2c-96,148.6-119.82,237.66-111,414.36l.12,2.38h0l-2-1.29c-32.54-21-62.24-38.51-90.56-53v-2.75Z" style="fill:#fff"/><path d="M1572.38,850.06c6.13-64.81,26.78-114.58,71.19-183.68-14.09.65-26.8,1-38.8,1-88.14,0-144.52-17.84-230.73-73.23,5.18,108.94-8.84,167.41-63.64,255.93h-2.87c55.54-89.4,69.44-147.79,63.94-258.19l-.12-2.38,2,1.29c86.91,56.11,143.14,74.14,231.42,74.14,12.63,0,26-.36,41.06-1.11l2.38-.13-1.29,2c-45,69.67-65.87,119.44-72.06,184.37Z" style="fill:#fff"/><path d="M2113.41,428.24c134.13,0,219.79,27.23,351.25,111.83-8.44-174.91,15.47-264.18,110.25-411.43-21.88,1.05-41.57,1.57-60.14,1.57-134.14,0-219.81-27.21-351.28-111.82,8.44,174.92-15.47,264.19-110.25,411.43,21.89-1.05,41.6-1.58,60.17-1.58Zm353.93,116.47-2-1.29C2333.2,458.09,2247.68,430.7,2113.41,430.7c-19.21,0-39.62.56-62.43,1.69l-2.37.11,1.28-2c96-148.61,119.83-237.69,111-414.37l-.12-2.39,2,1.29c132.16,85.33,217.68,112.72,352,112.72,19.2,0,39.6-.56,62.4-1.69l2.37-.11-1.29,2c-96,148.63-119.82,237.7-111,414.39l.12,2.37Z" style="fill:#fff"/><path d="M2248.63,338.42c88.15,0,144.52,17.84,230.73,73.23-5.44-114.43,10.3-173.18,72.24-269.54-14.08.65-26.8,1-38.82,1-88.13,0-144.51-17.84-230.73-73.23,5.44,114.45-10.3,173.2-72.22,269.56,14.08-.67,26.8-1,38.8-1ZM2482,416.28l-2-1.28c-86.9-56.11-143.12-74.13-231.41-74.13-12.63,0-26.07.37-41.06,1.1l-2.38.13,1.29-2c63.1-97.72,78.79-156.29,73-272.49l-.12-2.37,2,1.29c86.89,56.1,143.12,74.11,231.38,74.11h0c12.65,0,26.09-.36,41.07-1.11l2.38-.11-1.3,2c-63.09,97.72-78.78,156.29-73,272.49l.12,2.37Z" style="fill:#fff"/><path d="M1203.72,696.62c141.89,30.76,221.16,67.79,311.19,153.44h-3.57c-89.41-84.5-168.63-121-310.46-151.55l-2.34-.51,1.77-1.61c131.15-118.7,177.26-198.56,214.48-371.49l.5-2.35,1.61,1.79c118.71,131.15,198.57,177.26,371.5,214.48l2.33.5-1.77,1.61c-114.29,103.45-164,177.39-199.52,309.13h-2.54c35.49-132,85-206.19,198.64-309.35-171.12-37.11-251.15-83.31-368.86-213-37.11,171.14-83.3,251.17-213,368.88h0Z" style="fill:#fff"/><path d="M1229.73,689.64c111.94,24.38,164.6,54.78,241.66,139.53,24.36-111.93,54.77-164.59,139.53-241.66C1499,563.14,1446.32,532.76,1369.25,448c-24.34,111.94-54.76,164.6-139.51,241.66h0Zm243,144.72-1.6-1.78c-78.05-86.25-130.56-116.55-244.28-141.05l-2.34-.51,1.76-1.58c86.25-78.07,116.57-130.59,141-244.31l.5-2.33,1.6,1.77c78.07,86.23,130.58,116.56,244.3,141.05l2.32.49-1.77,1.61c-86.24,78.06-116.55,130.56-141,244.29l-.5,2.34h0Z" style="fill:#fff"/><path d="M2067.84,465.07C2239,502.17,2319,548.38,2436.71,678c37.1-171.12,83.3-251.16,213-368.86-171.12-37.11-251.15-83.31-368.87-213-37.11,171.15-83.32,251.18-213,368.88ZM2438.1,683.21l-1.61-1.76C2317.78,550.29,2237.92,504.18,2065,467l-2.34-.51,1.77-1.61c131.15-118.7,177.26-198.57,214.49-371.51l.51-2.33,1.6,1.78C2399.75,223.94,2479.6,270,2652.53,307.27l2.33.51-1.77,1.59C2521.93,428.1,2475.83,508,2438.6,680.89l-.5,2.33h0Z" style="fill:#fff"/><path d="M2242.49,418.27c111.93,24.35,164.6,54.76,241.66,139.53,24.35-111.94,54.76-164.61,139.53-241.67-111.94-24.36-164.6-54.76-241.66-139.54-24.36,112-54.78,164.64-139.53,241.68Zm243,144.71-1.6-1.77c-78.06-86.25-130.57-116.56-244.29-141l-2.33-.49,1.76-1.62c86.25-78.05,116.56-130.55,141-244.3l.51-2.32,1.6,1.75c78.05,86.25,130.56,116.56,244.28,141.05l2.33.51-1.76,1.61c-86.24,78.06-116.57,130.56-141,244.29l-.52,2.34h0Z" style="fill:#fff"/><path d="M1178.22,502.89c155.7,80.14,221,145.48,301.18,301.19,80.13-155.71,145.47-221.05,301.18-301.19-155.71-80.13-221-145.48-301.18-301.18-80.14,155.7-145.48,221.05-301.18,301.18ZM1479.4,809.44l-1.09-2.12C1397.58,649.91,1332.38,584.7,1175,504l-2.13-1.09,2.13-1.08c157.4-80.72,222.6-145.95,303.33-303.34l1.09-2.14,1.08,2.14c80.73,157.41,145.93,222.62,303.33,303.34l2.13,1.08-2.13,1.09c-157.4,80.72-222.61,145.93-303.33,303.34l-1.08,2.12Z" style="fill:#fff"/><path d="M1205.15,502.89C1307,555.39,1350,598.4,1402.46,700.21,1455,598.4,1498,555.4,1599.78,502.89,1498,450.39,1455,407.39,1402.46,305.56,1350,407.39,1307,450.39,1205.15,502.89Zm197.31,202.68-1.09-2.11c-53.08-103.52-96-146.39-199.46-199.49l-2.13-1.08,2.13-1.09c103.51-53.09,146.39-96,199.46-199.46l1.09-2.12,1.08,2.12c53.09,103.5,96,146.37,199.48,199.46l2.11,1.09L1603,504c-103.52,53.1-146.39,96-199.47,199.49l-1.09,2.11Z" style="fill:#fff"/><path d="M2072.82,502.89c155.7,80.14,221,145.48,301.19,301.19,80.13-155.71,145.46-221,301.17-301.19-155.69-80.13-221-145.48-301.17-301.18-80.15,155.7-145.49,221.05-301.19,301.18ZM2374,809.44l-1.1-2.12C2292.19,649.91,2227,584.7,2069.58,504l-2.12-1.09,2.12-1.08c157.4-80.72,222.61-145.93,303.33-303.34l1.1-2.14,1.09,2.14c80.72,157.41,145.92,222.62,303.32,303.34l2.12,1.08-2.12,1.1C2521,584.7,2455.82,649.91,2375.1,807.32l-1.09,2.12Z" style="fill:#fff"/><path d="M2253.63,502.89c101.82,52.5,144.81,95.51,197.31,197.32,52.49-101.81,95.5-144.81,197.32-197.32-101.82-52.5-144.81-95.5-197.31-197.33-52.51,101.85-95.51,144.83-197.32,197.33Zm197.31,202.68-1.09-2.11c-53.08-103.52-96-146.39-199.46-199.47l-2.12-1.1,2.12-1.09c103.5-53.07,146.38-96,199.47-199.46l1.09-2.12,1.09,2.12c53.07,103.5,96,146.37,199.45,199.46l2.12,1.09-2.12,1.08c-103.51,53.08-146.38,96-199.46,199.49l-1.09,2.11Z" style="fill:#fff"/><path d="M1203.72,309.16c129.65,117.71,175.86,197.73,213,368.87,117.7-129.65,197.73-175.86,368.86-213C1670.3,360.43,1621,285.57,1585.39,150h2.54c35.64,135.33,85.11,209.92,201,314.83l1.78,1.62-2.33.51c-172.94,37.2-252.8,83.31-371.5,214.48l-1.61,1.75h0l-.5-2.33c-37.23-172.94-83.34-252.8-214.49-371.51l-1.77-1.6,2.34-.51c145-31.21,224.54-68.67,316.42-157.24h3.53c-92.52,89.72-172.12,127.69-317.11,159.14h0Z" style="fill:#fff"/><path d="M1229.73,316.13c84.76,77.05,115.17,129.73,139.52,241.67C1446.31,473,1499,442.62,1610.91,418.26c-84.75-77.05-115.16-129.73-139.53-241.65-77.06,84.75-129.71,115.16-241.65,139.52ZM1367.86,563l-.49-2.34c-24.49-113.71-54.81-166.23-141-244.29l-1.77-1.61,2.34-.51c113.72-24.49,166.23-54.8,244.29-141l1.6-1.75.5,2.32c24.49,113.73,54.81,166.25,141,244.3l1.77,1.62-2.32.49C1500,444.65,1447.53,475,1369.47,561.21l-1.6,1.77h0Z" style="fill:#fff"/><path d="M2067.84,540.71c129.66,117.71,175.86,197.74,213,368.88,117.7-129.65,197.73-175.87,368.87-213-129.65-117.7-175.86-197.74-213-368.88C2319,457.4,2239,503.61,2067.84,540.71Zm211.59,374.06-.51-2.34c-37.23-172.94-83.34-252.78-214.49-371.5l-1.77-1.61,2.34-.49c172.92-37.25,252.77-83.34,371.5-214.49l1.6-1.78.5,2.34c37.24,172.94,83.34,252.8,214.49,371.5l1.76,1.61-2.33.51C2479.58,735.75,2399.73,781.86,2281,913l-1.6,1.77h0Z" style="fill:#fff"/><path d="M2242.49,587.5c84.76,77.07,115.17,129.73,139.53,241.69,77.06-84.78,129.72-115.18,241.65-139.55C2538.91,612.58,2508.5,559.92,2484.15,448c-77.07,84.77-129.74,115.18-241.66,139.52Zm138.14,246.85-.51-2.34c-24.49-113.71-54.8-166.23-141-244.29l-1.76-1.61,2.33-.49c113.71-24.48,166.22-54.8,244.29-141l1.6-1.77.51,2.33c24.48,113.74,54.79,166.24,141,244.31l1.75,1.58-2.32.51c-113.72,24.5-166.23,54.8-244.29,141.05l-1.6,1.78h0Z" style="fill:#fff"/><path d="M1292,150c83.54,134.88,104.77,223.75,96.74,390.05,131.45-84.59,217.11-111.83,351.25-111.83,18.57,0,38.28.53,60.17,1.58-94.78-147.24-118.7-236.5-110.24-411.43-32.26,20.76-61.76,38.06-89.89,52.35V68c28.31-14.44,58-31.93,90.56-52.94l2-1.3-.12,2.39c-8.8,176.69,15.07,265.77,111,414.37l1.3,2-2.38-.11c-22.8-1.14-43.23-1.69-62.43-1.69-134.27,0-219.79,27.39-351.92,112.71l-2,1.29h0l.12-2.37c8.35-167.78-12.75-256.56-97-392.32H1292Z" style="fill:#fff"/><path d="M1306.84,150c57.74,91.75,72.49,150.37,67.2,261.63,86.22-55.39,142.58-73.23,230.73-73.23,12,0,24.71.34,38.8,1-45.7-71.11-66.24-121.75-71.68-189.39h2.46c5.5,67.76,26.28,118.38,72.57,190.08l1.29,2-2.38-.12c-15-.73-28.42-1.1-41.07-1.1-88.27,0-144.51,18-231.41,74.12l-2,1.29h0l.12-2.38c5.6-112.74-9-171.24-67.52-263.89Z" style="fill:#fff"/><path d="M2053.24,575.94c94.79,147.27,118.7,236.54,110.24,411.45C2295,902.78,2380.6,875.58,2514.74,875.58c18.57,0,38.28.49,60.17,1.58-94.77-147.25-118.69-236.53-110.24-411.43-131.47,84.57-217.13,111.79-351.26,111.79-18.57,0-38.27-.51-60.17-1.58ZM2160.81,992l.11-2.37c8.8-176.7-15.07-265.78-111-414.37l-1.28-2,2.37.13c22.82,1.13,43.24,1.7,62.43,1.7,134.28,0,219.78-27.4,351.94-112.73l2-1.29-.12,2.38c-8.79,176.7,15.08,265.75,111,414.36l1.29,2-2.37-.13c-22.81-1.13-43.22-1.69-62.43-1.69-134.27,0-219.79,27.39-351.93,112.71l-2,1.29h0Z" style="fill:#fff"/><path d="M2209.83,666.38c61.93,96.36,77.67,155.11,72.22,269.52,86.21-55.39,142.58-73.21,230.71-73.21,12,0,24.74.33,38.84,1-61.94-96.38-77.68-155.12-72.24-269.54-86.21,55.38-142.58,73.22-230.73,73.22h0c-12,0-24.71-.33-38.78-1h0Zm69.54,274.17.12-2.37c5.78-116.2-9.91-174.76-73-272.49l-1.3-2,2.39.13c15,.75,28.42,1.12,41,1.12h0c88.28,0,144.52-18,231.41-74.13l2-1.31-.11,2.4c-5.79,116.16,9.91,174.74,73,272.47l1.3,2-2.38-.13c-15-.73-28.44-1.1-41.09-1.1-88.26,0-144.49,18-231.37,74.12l-2,1.29Z" style="fill:#fff"/><path d="M1436.11,150c6,77.71-6.94,150.52-38.66,249.54,87.56-28.06,151.36-40.05,213-40.05s125.41,12,213,40.05c-50.56-157.74-53.28-249-8.2-399.55h2.56c-45.35,151.17-42.46,242.23,8.68,401.07l.74,2.26h0l-2.27-.72C1736.43,374.13,1672.28,362,1610.41,362s-126,12.16-214.47,40.65l-2.28.72.73-2.26c32.17-99.9,45.25-173,39.25-251.06h2.47ZM1727.45,0c-42.84,9.37-80.33,13.62-117,13.62h0c-3.44,0-6.9,0-10.36-.11V11.08c3.46.07,6.92.12,10.36.12h0c33.27,0,67.19-3.51,105.2-11.19Z" style="fill:#fff"/><path d="M1442.12,150c-2.09,36.75-10.63,74.76-25.63,121.69,57.27-18.3,99.1-26.13,139.52-26.13s82.25,7.83,139.52,26.13c-34.08-106.64-34.85-167.16-2.32-271.7h2.57c-32.81,105.15-31.89,165.48,2.81,273.22l.73,2.28-2.28-.75C1638.86,256,1596.68,248,1556,248s-82.86,8-141,26.74l-2.28.75h0l.74-2.28c15.35-47.7,24.09-86.1,26.22-123.21ZM1671.38,0c-26.54,7.65-49.74,12.78-71.35,15.71V13.24A478.92,478.92,0,0,0,1662.33,0Z" style="fill:#fff"/><path d="M2243,992.13a508.77,508.77,0,0,1,88.15,8h-15.47a483,483,0,0,0-145.36,0h-15.48a508.71,508.71,0,0,1,88.16-8Zm203.09,8c-43.31-147.19-40-238.11,9.88-393.86-87.55,28-151.36,40-213,40h0c-61.59,0-125.39-12-212.94-40,49.91,155.74,53.2,246.66,9.88,393.86h-2.56c43.58-147.78,40.12-238.55-10.38-395.38l-.74-2.28,2.28.74c88.47,28.49,152.6,40.66,214.46,40.66h0c61.88,0,126-12.17,214.49-40.66l2.27-.72-.73,2.26c-50.51,156.85-54,247.61-10.39,395.38h-2.55Z" style="fill:#fff"/><path d="M2297.4,987c29,0,58.74,4,94.4,13.07h-10.34c-31.2-7.33-57.95-10.63-84.06-10.63s-52.87,3.3-84.08,10.63H2203c35.66-9,65.41-13.07,94.41-13.07h0Zm135.44,13.07c-30.73-101.08-29.38-161.31,4.08-266-57.28,18.3-99.12,26.13-139.52,26.13s-82.26-7.83-139.53-26.13c33.46,104.69,34.81,164.93,4.07,266h-2.56c31-101.69,29.49-161.75-4.57-267.51l-.73-2.29,2.28.74c58.18,18.73,100.36,26.72,141,26.72s82.84-8,141-26.72l2.28-.74-.73,2.29c-34.07,105.76-35.59,165.82-4.57,267.51h-2.57Z" style="fill:#fff"/><path d="M1502.38,264.52c134.14,0,219.8,27.22,351.26,111.81-7.76-160.58,11.77-249,88.36-376.32h2.86c-77.31,128.19-96.72,216.53-88.65,378.59l.11,2.38h0l-2-1.3C1722.17,294.35,1636.66,267,1502.38,267c-19.2,0-39.61.55-62.41,1.7l-2.39.11,1.3-2c27.54-42.66,49.14-80.42,65.74-116.75h2.69c-16.45,36.17-37.83,73.72-65.08,116.06,21.88-1.05,41.58-1.56,60.15-1.56Z" style="fill:#fff"/><path d="M1592.39,150c57.62,7.48,105.72,27.89,170.85,69.73C1758.79,126.32,1768.48,70,1805.9,0h2.78c-38,70.69-47.6,127.15-42.89,222l.12,2.38h0l-2-1.29c-75.15-48.54-127.37-68.56-197.22-73.08Zm-99.71,0-1.23.06-2.39.13.12-.19Z" style="fill:#fff"/><path d="M2304.63,1000.08c11.53-89.48,43.21-162,106.55-260.38-21.88,1-41.57,1.57-60.13,1.57-134.16,0-219.83-27.21-351.29-111.82,7.64,158.16-11.19,246.3-85,370.63H1912c74.46-125.15,93.18-213.27,85.24-372.9l-.12-2.37,2,1.29c132.14,85.33,217.66,112.71,352,112.71,19.19,0,39.6-.55,62.39-1.68l2.38-.11-1.29,2c-63.88,99-95.8,171.5-107.42,261.07h-2.48Z" style="fill:#fff"/><path d="M2295,1000.08c10.18-46.33,30.33-88.27,64.74-141.83-14.06.69-26.78,1-38.78,1h0c-88.15,0-144.52-17.83-230.74-73.22,4.33,90.9-4.72,146.65-39.66,214.05h-2.77c35.51-68.08,44.47-124,39.87-216.3l-.12-2.39,2,1.31c86.88,56.09,143.13,74.12,231.41,74.12h0c12.63,0,26-.37,41-1.12l2.38-.12-1.3,2c-34.88,54-55.26,96.07-65.55,142.5H2295Z" style="fill:#fff"/><path d="M1525.76,150c167.19,36.89,246.75,83.52,363.12,211.73C1925.23,194.09,1970.31,113.88,2094,0h3.63C1972.32,115,1927.27,195,1890.77,364.59l-.5,2.34h0l-1.6-1.79C1770,234,1690.11,187.88,1517.17,150.66l-2.33-.51.14-.13h10.78Zm126-150A542.1,542.1,0,0,1,1600,68.66V64.94A538.24,538.24,0,0,0,1648.83,0Z" style="fill:#fff"/><path d="M1600.43,47.56c111.93,24.36,164.6,54.77,241.66,139.53C1860.35,103.16,1882,52.56,1927.43,0h3.26c-46.5,53.3-68.27,104.24-86.7,189.93l-.52,2.33h0l-1.59-1.77C1764.39,104.88,1712.05,74.37,1600,50V44.59c17.13-15.62,32-30.25,45-44.59h3.32c-13.76,15.27-29.59,30.84-48,47.56Z" style="fill:#fff"/><path d="M2205.29,1000.08c31-47.64,71.61-91.77,128.1-143.06-171.15-37.11-251.17-83.32-368.87-213-35.73,164.86-79.93,245.16-199,356h-3.6c120.66-111.93,164.82-192.16,200.71-358.88l.5-2.33,1.6,1.76c118.7,131.15,198.55,177.26,371.5,214.5l2.33.5-1.77,1.6c-56.69,51.33-97.49,95.39-128.55,142.85h-2.95Z" style="fill:#fff"/><path d="M2210.22,1000.08c12.52-13.46,26.65-27.22,42.76-41.87-111.94-24.36-164.61-54.76-241.66-139.52-17.6,80.89-38.37,130.83-80.52,181.39h-3.21c43.17-51.29,64.05-101.61,81.83-184.24l.51-2.33,1.6,1.78c78.06,86.23,130.56,116.55,244.28,141l2.34.51-1.77,1.61c-16.11,14.58-30.27,28.27-42.8,41.64Z" style="fill:#fff"/><path d="M1625.52,55.57c155.71,80.12,221,145.48,301.18,301.2,80.13-155.72,145.47-221.08,301.17-301.2C2191.19,36.68,2159.53,18.62,2131.5,0H2136c27.73,18.21,59,35.93,95.16,54.47l2.11,1.09-2.11,1.08c-157.41,80.72-222.61,146-303.33,303.34l-1.09,2.12h0l-1.1-2.12c-80.71-157.39-145.9-222.62-303.32-303.34l-2.12-1.08,2.12-1.09c36.15-18.54,67.43-36.26,95.16-54.47h4.46c-28,18.61-59.7,36.68-96.38,55.56Z" style="fill:#fff"/><path d="M1768.37,0c74.88,44.11,113.08,88.17,158.33,175.93C1972,88.18,2010.15,44.12,2085,0h4.86C2012.46,44.94,1974,89.1,1927.79,179.19l-1.09,2.12h0l-1.1-2.12C1879.42,89.1,1840.94,44.94,1763.52,0Z" style="fill:#fff"/><path d="M1625.52,950.21c32.94,16.95,61.82,33.25,87.67,49.87h-4.55c-25.51-16.23-54-32.18-86.36-48.78l-2.12-1.09,2.12-1.09c157.41-80.71,222.61-145.92,303.32-303.34l1.1-2.12,1.09,2.12c80.71,157.42,145.92,222.63,303.32,303.35l2.12,1.08-2.12,1.09c-32.37,16.6-60.83,32.55-86.34,48.78h-4.56c25.84-16.62,54.72-32.92,87.66-49.87-155.7-80.14-221-145.48-301.17-301.18-80.13,155.7-145.47,221-301.18,301.18Z" style="fill:#fff"/><path d="M2075.57,1000.08c-68.72-42.29-105.56-86.26-148.86-170.26-43.31,84-80.16,128-148.88,170.26h-4.7c71.08-43.06,108.24-87.21,152.48-173.48l1.1-2.13,1.09,2.13c44.24,86.27,81.4,130.42,152.48,173.48Z" style="fill:#fff"/><path d="M1926.69,619.45l-.85-.83c-35.15-34.26-63.51-62.64-132-132l1.73-1.72c67.9,68.77,96.35,97.22,131.09,131.1,34.72-33.84,63.17-62.29,131.1-131.1l1.74,1.72c-68.49,69.38-96.87,97.75-132,132l-.86.83Z" style="fill:#fff"/><path d="M2057.79,522.08c-67.9-68.77-96.35-97.23-131.09-131.11-35,34.13-63.45,62.59-131.1,131.1l-1.73-1.7c68.2-69.09,96.56-97.47,132-132l.85-.84.85.84c35.15,34.26,63.52,62.63,132,132l-1.74,1.71Z" style="fill:#fff"/><path d="M2298.69,860.83C2111,675.51,2034.23,598.72,1941.6,503.73l-.83-.84.83-.86c92.84-95.2,169.59-172,357.09-357.08l1.73,1.73c-186.93,184.56-263.78,261.39-356.24,356.21,92.24,94.59,169.1,171.44,356.22,356.19l-1.71,1.75Z" style="fill:#fff"/><path d="M1562.12,850.06c180.59-178.34,256.43-254.2,347.08-347.17C1817.6,409,1741.11,332.45,1556.37,150h3.48c184,181.75,260.25,258,351.94,352l.82.86-.82.85c-90.74,93.08-166.31,168.7-346.18,346.33h-3.49Z" style="fill:#fff"/><path d="M1896.53,615.48l-.61-1c-25.08-42.2-45.14-77-93.32-161.65l2.13-1.21c47.78,84,67.9,118.86,92.68,160.58,42.27-23.7,77.13-43.82,160.55-92.72l1.24,2.12c-84.13,49.31-118.87,69.37-161.63,93.31l-1,.59h0Z" style="fill:#fff"/><path d="M2048.36,555.34c-47.84-84.08-68-118.94-92.69-160.56-42.59,23.89-77.43,44-160.55,92.72l-1.24-2.12c83.81-49.12,118.55-69.16,161.64-93.33l1-.58.6,1c25,42.09,45.08,76.85,93.32,161.65l-2.12,1.2Z" style="fill:#fff"/><path d="M2193.37,944.92c-133.32-227.57-187.6-321.57-252.49-437.36l-.59-1,1-.61C2055.65,438,2149.66,383.7,2378.65,253.41l1.22,2.14c-228.3,129.89-322.42,184.22-436.28,251.87,64.64,115.27,119,209.39,251.9,436.26l-2.12,1.25h0Z" style="fill:#fff"/><path d="M1474.75,752.36l-1.21-2.12c228.64-130.08,322.76-184.42,436.26-251.87-64.53-115.1-118.87-209.21-251.88-436.28l2.11-1.23c133.42,227.75,187.69,321.76,252.48,437.35l.58,1.05-1,.61c-114,67.74-208,122-437.32,252.49Z" style="fill:#fff"/><path d="M1868.42,603.84l-.33-1.14c-13.32-47.34-23.7-86.08-48.29-180.31l2.37-.62c24.38,93.44,34.8,132.31,48,179.11,47-12,85.89-22.4,179.08-48l.65,2.38c-94,25.81-132.72,36.19-180.28,48.29l-1.16.3Z" style="fill:#fff"/><path d="M2030.63,585.05c-24.42-93.51-34.83-132.38-48-179.08-47.33,12.06-86.19,22.47-179.07,48l-.65-2.36c93.65-25.74,132.41-36.12,180.28-48.3l1.16-.29.32,1.15c13.29,47.22,23.68,86,48.3,180.29l-2.37.6Z" style="fill:#fff"/><path d="M2069.88,998.89c-69.89-254.36-98-359.22-130.7-487.81l-.3-1.16,1.16-.32c127.94-36,232.79-64.12,487.79-130.7l.61,2.37c-254.22,66.39-359.18,94.5-486.59,130.36,32.59,128.06,60.71,233,130.39,486.61l-2.36.65Z" style="fill:#fff"/><path d="M1425.58,626.88l-.61-2.37c254.57-66.48,359.55-94.61,486.58-130.37C1879,366.3,1850.89,261.33,1781.16,7.55l2.36-.66c70,254.57,98,359.43,130.69,487.81l.29,1.15-1.15.33c-127.56,35.92-232.41,64-487.77,130.7Z" style="fill:#fff"/><path d="M1920.64,585.81c-28.35,0-50.64-.17-75.16-.48h-1.21v-1.2c-.61-49.24-.61-89.35,0-186.65l2.45,0c-.62,96.49-.62,136.75,0,185.4,48.49.61,88.73.61,185.4,0v2.45c-48.72.3-83.13.48-111.47.48Z" style="fill:#fff"/><path d="M2008.27,609.17l-2.44,0c.61-96.65.62-136.89,0-185.41-48.82-.6-89.06-.59-185.4,0l0-2.46c97.14-.62,137.26-.62,186.64,0h1.2l0,1.2c.62,49.09.62,89.2,0,186.65h0Z" style="fill:#fff"/><path d="M1936.52,1000.08c-1.56-250.14-1.52-356.66.12-486.05v-1.19l1.19,0c133-1.67,241.5-1.67,505,0v2.46c-262.69-1.69-371.37-1.69-503.74,0-1.63,128.85-1.67,235.45-.11,484.83Z" style="fill:#fff"/><path d="M1712.13,494.22c-76.66,0-169.72-.43-301.56-1.26v-2.45c263.1,1.67,371.77,1.67,503.74,0,1.64-129.6,1.66-236.82.08-490.5h2.45c1.59,254.46,1.56,361.57-.09,491.74l0,1.18-1.2,0c-66.32.83-126.63,1.26-203.41,1.26Z" style="fill:#fff"/><path d="M2007.18,609.81c-94.31-24.63-133.07-35-180.27-48.31l-1.15-.33L1826,560c12.16-47.75,22.54-86.51,48.32-180.29l2.35.66c-25.56,93-36,131.88-48,179.08,46.69,13.15,85.55,23.54,179.09,48l-.62,2.38h0Z" style="fill:#fff"/><path d="M1978,626.66l-2.36-.64c25.61-93.17,36-132,48-179.09-47-13.24-85.88-23.65-179.08-48l.62-2.37c94,24.54,132.73,34.93,180.27,48.32l1.15.31-.29,1.16C2014.19,494,2003.81,532.7,1978,626.66Z" style="fill:#fff"/><path d="M1803.75,1000.08c65.92-252.48,93.93-356.93,129.66-483.86l.33-1.15,1.16.3c128.76,32.76,233.61,60.86,487.78,130.71l-.65,2.35c-253.39-69.62-358.36-97.76-486.58-130.4-35.55,126.29-63.56,230.78-129.18,482h-2.52Z" style="fill:#fff"/><path d="M1919.66,490.7l-1.16-.31c-128.47-32.67-233.32-60.77-487.77-130.68l.65-2.37c253.67,69.71,358.64,97.83,486.56,130.41,35.76-127,63.87-232,130.37-486.62l2.37.63C1984,257.17,1955.88,362,1920,489.55l-.33,1.14h0Z" style="fill:#fff"/><path d="M1976.78,627c-84.72-48.19-119.47-68.25-161.64-93.33l-1-.6.6-1c24-42.91,44.1-77.66,93.31-161.65l2.12,1.24c-48.8,83.29-68.93,118.14-92.72,160.55C1859.11,557,1894,577.08,1978,624.88l-1.2,2.11Z" style="fill:#fff"/><path d="M1944.21,635.71l-2.12-1.24c48.84-83.33,69-118.19,92.72-160.55-42-24.94-76.83-45.06-160.57-92.69l1.21-2.14c84.44,48,119.18,68.11,161.63,93.33l1,.62-.57,1c-24,42.86-44.09,77.6-93.33,161.64h0Z" style="fill:#fff"/><path d="M1679.37,956.08l-2.13-1.21c130.51-229.42,184.78-323.45,252.5-437.36l.61-1,1,.6c115.84,64.93,209.84,119.22,437.33,252.51l-1.24,2.1c-226.79-132.85-320.9-187.2-436.25-251.89-67.42,113.44-121.75,207.56-251.86,436.29Z" style="fill:#fff"/><path d="M1923.05,489.29l-1-.59c-115.58-64.8-209.59-119.06-437.32-252.49l1.23-2.12c227,133,321.15,187.36,436.25,251.89C1989.58,372.56,2043.9,278.44,2174,49.72l2.13,1.19c-130.52,229.46-184.8,323.46-252.49,437.35l-.62,1Z" style="fill:#fff"/><path d="M1943,635.71c-69.31-68.43-97.69-96.79-132-132l-.83-.84.83-.86c34.33-35.19,62.69-63.57,132-132l1.72,1.74c-68.71,67.84-97.18,96.3-131.11,131.09,33.91,34.77,62.37,63.23,131.11,131.08l-1.72,1.74Z" style="fill:#fff"/><path d="M1909.23,635.71l-1.72-1.74c68.7-67.82,97.16-96.26,131.11-131.08-34.08-34.95-62.54-63.39-131.11-131.09l1.73-1.74c69.14,68.26,97.51,96.62,132,132l.82.86-.82.86c-34.35,35.2-62.71,63.58-132,132Z" style="fill:#fff"/><path d="M2282.89,876.62c-184.66-187-261.5-263.9-356.19-356.22-89.92,87.67-163.84,161.49-330,329.66h-3.47c167.88-169.93,242-243.9,332.58-332.26l.86-.85.85.85c95.09,92.72,171.85,169.48,357.08,357.08l-1.75,1.74Z" style="fill:#fff"/><path d="M1926.7,488.81l-.85-.84c-91.6-89.31-166.33-164-338.19-338h3.45c170.11,172.22,244.69,246.72,335.59,335.36,94.42-92.08,171.25-168.9,356.19-356.22l1.74,1.72C2099.14,318.78,2022.37,395.52,1927.56,488l-.85.85h0Z" style="fill:#fff"/><path d="M1908,635.4c-49.2-84-69.27-118.73-93.31-161.64l-.59-1,1-.61c42.23-25.11,77-45.17,161.64-93.33l1.21,2.12c-84,47.77-118.82,67.89-160.57,92.69,23.78,42.43,43.92,77.28,92.72,160.55L1908,635.4Z" style="fill:#fff"/><path d="M1875.45,626.68l-1.2-2.13c83.93-47.76,118.78-67.87,160.56-92.69-23.86-42.55-44-77.39-92.71-160.55l2.11-1.25c49.14,83.87,69.19,118.61,93.32,161.63l.58,1.06-1,.6c-42.26,25.11-77,45.17-161.64,93.32h0Z" style="fill:#fff"/><path d="M2174,956.08c-130-228.45-184.28-322.57-251.85-436.29C1807,584.36,1712.9,638.7,1485.92,771.68l-1.23-2.11C1712.35,636.18,1806.37,581.9,1922,517.06l1-.59.61,1c67.87,114.2,122.14,208.21,252.5,437.35l-2.14,1.22Z" style="fill:#fff"/><path d="M1930.35,489.29l-.61-1c-67.75-114-122-208-252.5-437.35l2.13-1.19C1809.45,278.36,1863.78,372.49,1931.23,486c115-64.46,209.09-118.81,436.25-251.89l1.24,2.12C2140.87,369.7,2046.86,424,1931.38,488.7l-1,.59h0Z" style="fill:#fff"/><path d="M1874.36,626.05c-25.79-93.82-36.17-132.58-48.31-180.29l-.29-1.16,1.15-.32c47.25-13.31,86-23.69,180.27-48.31l.62,2.38c-93.48,24.41-132.36,34.82-179.08,48,12,47.17,22.42,86,48,179.09l-2.36.65Z" style="fill:#fff"/><path d="M1845.17,609.2l-.63-2.39c93.37-24.36,132.24-34.79,179.09-48-12-47.16-22.44-86-48-179.09l2.37-.65c25.78,93.84,36.16,132.58,48.3,180.3l.29,1.17-1.14.31c-47.38,13.33-86.13,23.71-180.28,48.31h0Z" style="fill:#fff"/><path d="M2047.12,1000.08c-65.55-251-93.55-355.51-129.17-482-128,32.59-233,60.71-486.57,130.4l-.65-2.36c254.36-69.9,359.21-98,487.78-130.7l1.16-.31.32,1.15c35.8,127.18,63.8,231.62,129.66,483.86Z" style="fill:#fff"/><path d="M1933.74,490.7l-.32-1.15c-35.92-127.56-64-232.41-130.7-487.79l2.37-.62c66.48,254.6,94.6,359.57,130.37,486.61,127.79-32.52,232.76-60.65,486.57-130.4l.65,2.36c-254.6,70-359.44,98-487.78,130.69l-1.16.3Z" style="fill:#fff"/><path d="M1844.26,608.31c-.62-97.35-.62-137.47,0-186.65l0-1.2h1.2c49.12-.62,89.23-.62,186.63,0v2.44c-96.59-.6-136.84-.62-185.4,0-.61,48.61-.61,88.87,0,185.4l-2.45,0Z" style="fill:#fff"/><path d="M1931.88,584.93c-28.36,0-62.73-.16-111.45-.46V582c96.5.64,136.75.64,185.4,0,.61-48.63.61-88.86,0-185.4l2.44,0c.63,97.35.63,137.47,0,186.65v1.2h-1.2c-24.57.31-46.88.46-75.18.46Z" style="fill:#fff"/><path d="M1914.44,1000.08c1.56-249.22,1.52-355.84-.11-484.82-132.17-1.67-240.84-1.67-503.74,0l0-2.46c263.71-1.67,372.25-1.67,505,0l1.2,0V514c1.65,129.55,1.67,236.06.12,486.05Z" style="fill:#fff"/><path d="M2141.19,494.22c-76.8,0-137.07-.43-203.33-1.26l-1.2,0v-1.18C1935,361.46,1935,254.33,1936.56,0H1939c-1.59,253.53-1.57,360.77.07,490.5,131.84,1.67,240.51,1.67,503.75,0V493c-131.89.83-225,1.26-301.64,1.26Z" style="fill:#fff"/><path d="M1822.16,584l-2.37-.61c24.61-94.26,35-133,48.31-180.3l.32-1.15,1.16.3c47.62,12.1,86.38,22.5,180.27,48.29l-.64,2.36c-93.13-25.59-132-36-179.08-48-13.16,46.76-23.57,85.63-48,179.1Z" style="fill:#fff"/><path d="M1984.38,602.78l-1.16-.29c-47.67-12.13-86.42-22.51-180.29-48.31l.66-2.37c93.08,25.58,132,36,179.07,48,13.18-46.85,23.59-85.73,48-179.11l2.37.62c-24.58,94.16-35,132.92-48.31,180.29l-.31,1.14h0Z" style="fill:#fff"/><path d="M1783.52,998.89l-2.36-.66c69.65-253.51,97.79-358.48,130.4-486.61-127.2-35.79-232.18-63.93-486.6-130.35l.62-2.37c255.2,66.64,360.05,94.73,487.79,130.7l1.15.33-.3,1.15c-32.73,128.65-60.83,233.51-130.7,487.8h0Z" style="fill:#fff"/><path d="M2427.82,626.88c-255.35-66.69-360.21-94.78-487.78-130.7l-1.14-.34.29-1.15c32.69-128.5,60.78-233.33,130.7-487.8l2.36.65c-69.7,253.68-97.84,358.65-130.4,486.59,127,35.78,232,63.89,486.58,130.39l-.61,2.36Z" style="fill:#fff"/><path d="M1804.74,554.18,1802.6,553c48.16-84.65,68.22-119.4,93.33-161.65l.6-1,1,.57c42.88,24.05,77.63,44.1,161.65,93.33l-1.25,2.12c-83.32-48.83-118.17-68.95-160.55-92.72-24.81,41.75-44.92,76.62-92.68,160.58Z" style="fill:#fff"/><path d="M1956.55,614.32l-1-.61c-42.89-24-77.63-44.1-161.64-93.31l1.23-2.11c83.31,48.81,118.17,68.94,160.56,92.71,24.87-41.85,45-76.72,92.68-160.58l2.13,1.22c-48.1,84.56-68.16,119.3-93.32,161.63l-.61,1.06h0Z" style="fill:#fff"/><path d="M1660,944.92l-2.11-1.24c132.93-226.91,187.28-321,251.89-436.26-113.58-67.51-207.7-121.83-436.26-251.88l1.21-2.13C1704,383.86,1798,438.13,1912.1,505.94l1,.58-.58,1.06c-64.88,115.73-119.16,209.73-252.5,437.34h0Z" style="fill:#fff"/><path d="M2378.65,752.36c-229.33-130.47-323.34-184.75-437.33-252.49l-1-.61.59-1C2005.74,382.52,2060,288.5,2193.37,60.86l2.12,1.25c-133,226.94-187.29,321.06-251.88,436.26,113.51,67.45,207.62,121.79,436.26,251.87l-1.22,2.12Z" style="fill:#fff"/><path d="M2057.79,520.86c-67.85-68.74-96.31-97.19-131.09-131.12-34.78,33.93-63.24,62.39-131.08,131.12l-1.74-1.72c68.41-69.31,96.78-97.67,132-132l.85-.83.85.83c35.19,34.31,63.57,62.67,132,132l-1.75,1.72Z" style="fill:#fff"/><path d="M1926.7,618.24l-.85-.85c-35.19-34.29-63.56-62.67-132-132l1.74-1.7c67.84,68.72,96.3,97.17,131.08,131.1,34.78-33.93,63.24-62.39,131.09-131.1l1.75,1.7c-68.42,69.31-96.8,97.69-132,132l-.85.85Z" style="fill:#fff"/><path d="M1562.13,850.06c180.51-178.26,256.35-254.12,347.09-347.17-91.71-94-168.22-170.56-352.85-352.87h3.48c183.93,181.62,260.15,257.86,352,352l.83.86-.83.86c-90.81,93.14-166.39,168.76-346.18,346.31Z" style="fill:#fff"/><path d="M2298.69,860.83c-187.76-185.39-264.52-262.14-357.07-357.08l-.84-.86.84-.86c92.57-95,169.34-171.73,357.07-357.08l1.71,1.73c-187.15,184.8-264,261.65-356.2,356.21,92.18,94.54,169,171.37,356.2,356.19l-1.71,1.75Z" style="fill:#fff"/><path d="M2214.39,4.93c-2.53,0-6.89-1.36-14.56-4.92h6.34c4.78,2,8.08,3,8.94,2.21.2-.41,0-1.16-.51-2.21h2.67c.64,1.74.58,3-.16,3.88a3.22,3.22,0,0,1-2.71,1h0Z" style="fill:#fff"/><path d="M2334.75,96.54c-5.14,0-18.46-10.84-62.7-54.91l1.83-1.85c15.45,15.4,56.48,56.26,61,54.16,1.68-2-6.06-18.39-13.56-34.27-7.95-16.86-17.83-37.79-25.95-59.67h2.77c8,21.45,17.72,42,25.54,58.57,11.69,24.78,16.29,34.93,12.68,37.48a2.64,2.64,0,0,1-1.6.48h0Z" style="fill:#fff"/><path d="M2282.83,49.89c-60.89-35.3-70.83-43.6-69.22-48A3.25,3.25,0,0,1,2216,0h10c6.25.7,15.07,2.26,27,4.42,46.7,8.44,122.46,22.15,159.66-4.42H2417c-37.11,30-116.13,15.72-164.4,7-17.27-3.13-35.13-6.35-36.59-4.2-.85,4.88,49.23,33.93,68.09,44.87l-1.31,2.23Z" style="fill:#fff"/><path d="M2426.79,216.11c-4.67,0-14.05-12.34-47.14-69.38l2.26-1.3c10.84,18.7,39.48,68.11,44.75,68.11l.13,0c2.15-1.45-1.09-19.32-4.21-36.59C2413.37,126,2398,41,2434.84,6.86c.15-2.35.39-4.63.67-6.85h2.62c-.32,2.44-.57,4.94-.73,7.54l0,.52-.39.37c-36.28,32.88-21,117.47-11.84,168,4.88,27,6.69,38,2.55,39.49a2.6,2.6,0,0,1-.89.16h0Z" style="fill:#fff"/><path d="M1431.93,850.06c-1.24-7.35-2.51-14.33-3.67-20.76-4.87-27-6.68-38-2.54-39.48s11.86,7.35,42.78,60.24h-3c-13.1-22.42-34.72-58.54-38.9-57.8-2.13,1.45,1.1,19.33,4.22,36.58,1.19,6.56,2.48,13.7,3.75,21.22Z" style="fill:#fff"/><path d="M1600,998.66l.73.13,7.13,1.29H1600v-1.42Zm35.37,1.42c-5.25-5.07-20.28-14.67-35.37-23.81v-3c25.14,15.16,35.39,22.56,38.65,26.84Z" style="fill:#fff"/><path d="M2387.93,157.51c-49.68-49.85-57.13-60.46-54.43-64.28,2.54-3.62,12.7,1,37.48,12.67,46.46,21.92,124.25,58.59,165.38,32l.44-.29.53.11c64,12.92,91.34-37.19,107.69-67.13,7.13-13,11.87-21.68,17.27-20.83,6,.91,11.4,12.07,22.45,68.28l-2.54.51c-6.66-33.8-13.73-65.21-20.3-66.22-3.63-.57-8.72,8.74-14.6,19.5-16.68,30.48-44.53,81.44-110,68.54-42.48,26.8-120.66-10.09-167.46-32.17-15.87-7.48-32.28-15.23-34.25-13.51-2.1,4.48,38.77,45.49,54.14,60.94l-1.83,1.83Z" style="fill:#fff"/><path d="M2484.64,355.41c-4.62,0-10.2-12.48-28.23-79.3l2.49-.67c5.69,21.05,20.78,76.94,25.74,77.38,2.45-.85,4-18.95,5.41-36.43,4.27-51.55,11.42-137.72,55.86-161.1,21.55-63.16,79.63-61.79,114.34-61,12.26.3,22.84.54,24.18-2.88,2.41-6.22-21.25-28-47.18-50.68l1.7-2c43.13,37.69,50.13,47.9,47.91,53.58-2,5.12-11.82,4.9-26.68,4.54-34.1-.79-91.17-2.15-112,59.71l-.16.5-.48.24c-43.55,22.38-50.67,108.05-54.92,159.24-2.26,27.31-3.36,38.42-7.75,38.81h-.24Z" style="fill:#fff"/><path d="M1304.87,850.06l.31-.88.18-.51.47-.24c43.56-22.37,50.68-108.07,54.94-159.26,2.26-27.3,3.36-38.39,7.75-38.79,4.64-.48,10.12,11.33,28.46,79.27l-2.51.67c-5.68-21-20.76-76.93-25.73-77.36-2.44.85-3.94,18.94-5.38,36.43-4.27,51.24-11.38,136.68-55.09,160.67h-3.4Z" style="fill:#fff"/><path d="M1463.65,850.06l1.81-1.8,1.8,1.8Z" style="fill:#fff"/><path d="M2758.5,327.4l-2.6-.17c2.33-34.36,3.63-66.53-2.46-69.22-3.41-1.49-10.7,6.19-19.15,15.07-24,25.15-64.09,67.16-124,37.75-48,14.88-113.94-41-153.41-74.42-13.41-11.33-27.26-23-29.59-21.93-3.19,3.79,25.66,54,36.52,72.89l-2.25,1.29c-35.07-61-39.53-73.18-35.93-76.18,3.37-2.83,12,4.25,32.91,21.94,39.22,33.2,104.83,88.76,151.45,73.78l.51-.18.48.24c58.44,29,97.86-12.28,121.39-37,10.27-10.75,17-17.87,22.09-15.64,5.57,2.45,7.87,14.62,4,71.76h0Z" style="fill:#fff"/><path d="M2504.45,505a2.1,2.1,0,0,1-.43-.05c-4.62-.8-6.84-13.57-7-84h2.59c.05,21.79.16,79.7,4.85,81.41,2.56-.21,8.7-17.28,14.63-33.8,17.48-48.67,46.68-130,95.64-141.15,37.18-55.43,92.9-39.08,126.23-29.3,11.77,3.46,21.92,6.44,24.11,3.46,3.93-5.36-13.28-32.57-32.46-61.16l2.15-1.45c31.92,47.56,36,59.25,32.41,64.15-3.26,4.44-12.67,1.68-26.94-2.52-32.73-9.59-87.51-25.66-123.63,28.7l-.29.43-.51.11c-47.86,10.33-76.9,91.25-94.27,139.6-8.94,24.94-12.93,35.51-17.11,35.52h0Z" style="fill:#fff"/><path d="M1118.59,766.83c-31.91-47.56-36-59.24-32.4-64.15,3.25-4.44,12.68-1.68,26.94,2.5,32.74,9.62,87.53,25.68,123.61-28.68l.3-.43.52-.11c47.87-10.33,76.91-91.26,94.28-139.6,9.26-25.79,13.22-36.24,17.54-35.47,4.62.79,6.84,13.55,7,83.94h-2.6c0-21.8-.16-79.69-4.83-81.39-2.58.2-8.71,17.28-14.63,33.78-17.48,48.69-46.7,130.06-95.68,141.16-37.15,55.44-92.89,39.08-126.2,29.31-11.79-3.46-22-6.44-24.13-3.48-3.93,5.38,13.28,32.58,32.47,61.18l-2.16,1.45h0Z" style="fill:#fff"/><path d="M1426,793.92c-4.31,0-13.2-7.37-31.16-22.56-39.19-33.2-104.8-88.72-151.42-73.76l-.51.16-.47-.23c-58.46-29-97.86,12.28-121.4,37-10.26,10.75-17,17.86-22.08,15.66-5.58-2.47-7.87-14.64-4-71.78l2.6.18c-2.32,34.36-3.63,66.53,2.47,69.21,3.37,1.5,10.68-6.18,19.15-15.06,24-25.13,64.06-67.16,124-37.72,48-14.91,113.93,41,153.41,74.39,13.38,11.35,27.23,23.07,29.59,21.93,3.19-3.79-25.67-54-36.52-72.89l2.25-1.29c35.08,61,39.53,73.2,35.93,76.19a2.69,2.69,0,0,1-1.78.61Z" style="fill:#fff"/><path d="M2775.58,548.68l-2.46-.85c11.15-32.59,20.73-63.33,15.53-67.48-2.87-2.3-11.93,3.2-22.4,9.59-29.67,18.07-79.27,48.29-129.52,4.35-.67,0-1.35,0-2,0-49.47,0-97.82-69.69-126.9-111.62-9.84-14.19-20-28.86-22.78-28.86a.25.25,0,0,0-.12,0c-4.06,2.84,10.81,58.8,16.42,79.86l-2.52.66c-18.08-68-19.24-80.92-15-82.88,4-1.85,10.48,7.2,26.1,29.71,29.29,42.22,78.38,112.86,127.19,110.45l.54,0,.4.35c48.95,43.16,97.7,13.46,126.84-4.28,12.69-7.74,21.07-12.86,25.37-9.42,4.74,3.83,3.8,16.16-14.7,70.37Z" style="fill:#fff"/><path d="M2484.89,654.5a2.55,2.55,0,0,1-1.06-.22c-4.26-2-3.1-14.88,15-82.91l2.52.67c-5.61,21.06-20.48,77-16.41,79.87,2.47.42,12.9-14.44,22.9-28.85,29.08-41.92,77.43-111.62,126.88-111.62.69,0,1.34,0,2,0,50.25-43.91,99.85-13.72,129.52,4.38,10.47,6.36,19.51,11.88,22.4,9.59,5.18-4.18-4.4-34.92-15.53-67.51l2.45-.83c18.51,54.19,19.45,66.53,14.69,70.36-4.29,3.44-12.68-1.68-25.36-9.41-29.15-17.74-77.9-47.44-126.85-4.29l-.38.36-.54,0c-.81,0-1.63,0-2.44,0-48.08,0-95.94,69-124.73,110.5-14.32,20.61-21,30-25.07,30Z" style="fill:#fff"/><path d="M1077.82,548.68c-18.52-54.21-19.45-66.55-14.69-70.36,4.28-3.44,12.67,1.66,25.37,9.39,29.13,17.76,77.89,47.46,126.82,4.29l.4-.34.54,0c48.93,2.35,97.91-68.24,127.2-110.45,15.61-22.51,22.09-31.58,26.11-29.71,4.25,2,3.1,14.86-15,82.87l-2.5-.67c5.6-21.05,20.47-77,16.39-79.86-2.51-.43-12.87,14.43-22.88,28.86-29.48,42.5-78.77,113.44-128.93,111.57-50.24,43.94-99.83,13.71-129.51-4.36-10.47-6.39-19.52-11.89-22.4-9.59-5.19,4.16,4.4,34.9,15.53,67.49l-2.45.85Z" style="fill:#fff"/><path d="M1368.5,654.5c-4.1,0-10.74-9.35-25.06-30-29.28-42.2-78.22-112.86-127.18-110.44l-.53,0-.39-.35c-48.95-43.16-97.71-13.46-126.84,4.29-12.7,7.73-21.09,12.83-25.37,9.39-4.76-3.81-3.82-16.17,14.69-70.36l2.45.85c-11.12,32.58-20.71,63.32-15.53,67.48,2.89,2.31,11.93-3.2,22.4-9.58,29.68-18.08,79.27-48.29,129.52-4.37,50.16-1.9,99.44,69.09,128.92,111.58,10,14.41,20.43,29.29,22.91,28.84,4.06-2.84-10.81-58.8-16.42-79.86l2.51-.67c18.09,68,19.24,80.93,15,82.91a2.63,2.63,0,0,1-1.07.22Z" style="fill:#fff"/><path d="M2734.79,766.83l-2.15-1.45c19.19-28.6,36.41-55.8,32.48-61.16-2.19-3-12.36,0-24.13,3.46-33.33,9.77-89.07,26.11-126.22-29.31-49-11.09-78.19-92.46-95.66-141.16-5.91-16.5-12.07-33.57-14.65-33.77-4.66,1.69-4.77,59.58-4.82,81.38h-2.59c.13-70.39,2.35-83.15,7-83.94,4.34-.74,8.26,9.68,17.53,35.47,17.35,48.34,46.4,129.27,94.28,139.6l.52.11.29.43c36.09,54.37,90.89,38.3,123.62,28.7,14.26-4.2,23.69-7,26.94-2.52,3.6,4.91-.49,16.6-32.41,64.15h0Z" style="fill:#fff"/><path d="M2427.44,793.91a2.67,2.67,0,0,1-1.77-.6c-3.6-3,.85-15.18,35.92-76.21l2.26,1.31c-10.87,18.89-39.72,69.1-36.51,72.91,2.32,1.07,16.17-10.6,29.58-22C2496.4,736,2562.38,680.08,2610.33,695c59.91-29.42,100,12.61,124,37.74,8.47,8.88,15.79,16.55,19.15,15.06,6.11-2.67,4.8-34.85,2.47-69.21l2.6-.18c3.86,57.15,1.57,69.31-4,71.77-5,2.21-11.81-4.9-22.08-15.65-23.55-24.68-63-66-121.4-37l-.46.22-.51-.16c-46.61-15-112.24,40.57-151.44,73.77-17.94,15.19-26.84,22.54-31.15,22.54h0Z" style="fill:#fff"/><path d="M1094.89,327.4c-3.85-57.14-1.56-69.3,4-71.76,5-2.23,11.81,4.9,22.08,15.64,23.55,24.69,63,66,121.39,37l.47-.24.5.15c46.63,15,112.25-40.56,151.46-73.75,20.91-17.69,29.53-24.77,32.92-21.94,3.6,3-.86,15.16-35.92,76.18l-2.26-1.29c10.85-18.9,39.7-69.1,36.51-72.91-2.32-1.15-16.18,10.61-29.57,21.95-35,29.62-90.81,76.86-136.44,76.86a57,57,0,0,1-17-2.45c-59.89,29.41-100-12.6-124-37.74-8.47-8.88-15.8-16.55-19.15-15.07-6.1,2.68-4.8,34.85-2.47,69.21l-2.6.18Z" style="fill:#fff"/><path d="M1348.93,505c-4.17,0-8.14-10.59-17.09-35.52-17.37-48.36-46.41-129.27-94.27-139.59l-.51-.11-.3-.44c-36.12-54.37-90.9-38.3-123.63-28.69-14.26,4.18-23.69,6.94-26.93,2.51-3.61-4.91.48-16.6,32.39-64.16l2.16,1.45c-19.19,28.61-36.4,55.81-32.46,61.18,2.17,3,12.34,0,24.12-3.46,33.31-9.79,89-26.13,126.22,29.29,49,11.1,78.18,92.48,95.65,141.14,5.92,16.53,12.06,33.6,14.66,33.81,4.67-1.69,4.77-59.62,4.81-81.41h2.6c-.13,70.39-2.36,83.16-7,84a2.18,2.18,0,0,1-.44,0Z" style="fill:#fff"/><path d="M2639,967l-1.7-2c25.92-22.65,49.59-44.48,47.19-50.68-1.34-3.43-11.94-3.17-24.2-2.89-34.74.81-92.79,2.19-114.34-61-44.43-23.37-51.59-109.55-55.87-161.09-1.46-17.49-2.95-35.57-5.41-36.43-4.94.43-20,56.33-25.71,77.36l-2.51-.67c18.35-68,23.9-79.67,28.47-79.28,4.38.4,5.48,11.5,7.75,38.8,4.25,51.19,11.37,136.88,54.94,159.26l.48.24.16.49c20.8,61.86,77.88,60.52,112,59.71,14.86-.35,24.68-.59,26.67,4.54,2.22,5.7-4.76,15.91-47.89,53.59h0Z" style="fill:#fff"/><path d="M2661.55,956c-5.13,0-9.74-8.42-16.53-20.89-16.35-29.93-43.73-80-107.71-67.13l-.51.09-.44-.27c-41.16-26.55-118.91,10.13-165.37,32-24.78,11.68-34.94,16.28-37.49,12.69-2.7-3.84,4.75-14.45,54.43-64.32l1.83,1.85c-15.37,15.44-56.25,56.46-54.14,61,2,1.67,18.39-6.06,34.26-13.54,46.78-22.08,125-58.95,167.43-32.17,65.5-12.91,93.32,38,110,68.54,5.88,10.75,11,20.06,14.61,19.5,6.58-1,13.64-32.43,20.3-66.21l2.54.49c-11.07,56.2-16.42,67.36-22.45,68.28a3.54,3.54,0,0,1-.73.07Z" style="fill:#fff"/><path d="M1465.47,157.51l-1.84-1.83,5.63-5.66h3.64l-7.43,7.49Z" style="fill:#fff"/><path d="M1368.76,355.41h-.23c-4.39-.38-5.5-11.5-7.76-38.81-4.26-51.19-11.37-136.86-54.93-159.23l-.48-.25-.16-.49c-.77-2.29-1.59-4.48-2.46-6.6h2.8c.68,1.71,1.33,3.46,2,5.28,44.42,23.39,51.58,109.54,55.86,161.09,1.46,17.49,3,35.58,5.42,36.43,4.94-.43,20-56.33,25.71-77.37l2.52.68c-18,66.8-23.62,79.29-28.24,79.29h0Z" style="fill:#fff"/><path d="M2434.94,1000.08l-.1-1.16c-36.86-34.09-21.47-119.18-12.28-170.08,3.14-17.25,6.36-35.13,4.21-36.58a.3.3,0,0,0-.13,0c-5.25,0-33.88,49.4-44.73,68.1l-2.24-1.31c35.3-60.89,43.59-70.85,48-69.21,4.13,1.52,2.32,12.51-2.56,39.48-9.14,50.57-24.44,135.17,11.85,168.05l.4.35,0,.53c0,.62.09,1.23.14,1.84h-2.6Z" style="fill:#fff"/><path d="M2403,1000.08c-37.42-17.68-99.86-7.69-142.81,0h-14.62l7.13-1.29c44.87-8.11,116.3-21,155.95,1.29H2403Zm-188.23,0c4.31-5.68,20.89-16.82,68.11-44.21l1.31,2.25c-16.48,9.56-56.8,32.94-66.14,42h-3.28Z" style="fill:#fff"/><path d="M1600,29.51C1619,18,1637.87,5.8,1637.35,2.78,1635.88.64,1618,3.86,1600.76,7l-.73.14V4.49l.27,0c12-2.16,20.8-3.72,27-4.42h10.05a3.21,3.21,0,0,1,2.4,1.88c1.3,3.56-5,9.69-39.76,30.64v-3Z" style="fill:#fff"/><path d="M1426.6,216.11a2.85,2.85,0,0,1-.88-.15c-4.14-1.53-2.33-12.52,2.54-39.5,1.46-8.06,3.08-17,4.62-26.44h2.63c-1.56,9.61-3.21,18.7-4.69,26.9-3.12,17.27-6.35,35.14-4.19,36.6,4.55.75,29.83-42.21,42.21-63.5h3c-31.53,54.22-40.65,66.09-45.23,66.09Z" style="fill:#fff"/><path d="M2297.52,1000.08c7.67-19.81,16.53-38.6,23.79-54,7.49-15.86,15.23-32.27,13.53-34.25-4.53-2.18-45.5,38.76-61,54.15l-1.83-1.85c49.86-49.66,60.47-57.14,64.29-54.41,3.6,2.53-1,12.7-12.68,37.48-7.12,15.09-15.8,33.5-23.36,52.87h-2.79Z" style="fill:#fff"/><path d="M1639,4.93a3.25,3.25,0,0,1-2.73-1c-.74-.88-.8-2.14-.16-3.88h2.69c-.52,1.05-.72,1.81-.52,2.23.86.72,4.14-.22,8.9-2.23h6.36c-7.67,3.56-12,4.92-14.54,4.92Z" style="fill:#fff"/></g><ellipse cx="1927.36" cy="503.54" rx="136" ry="136.01" style="fill:#4a90e2"/><g id="_2398997165024" data-name=" 2398997165024"><path d="M1940.61,499.5a13,13,0,0,1-25.91,0c0-9.72-3.24-13-13-13s-13,3.24-13,13a13,13,0,1,1-13-13c9.72,0,13-3.24,13-13a13,13,0,0,1,25.92,0c0,9.72,3.23,13,13,13A12.93,12.93,0,0,1,1940.61,499.5Z" style="fill:#fff;fill-rule:evenodd"/><circle cx="1849.83" cy="525.45" r="12.96" style="fill:#fff"/><path d="M2018.46,473.54a13,13,0,0,1-13,13c-9.72,0-13,3.24-13,13a12.94,12.94,0,0,1-13,12.95c-9.72,0-13,3.24-13,13a13,13,0,1,1-13-13c9.72,0,13-3.24,13-12.95a13,13,0,0,1,13-13c9.72,0,13-3.24,13-13a13,13,0,0,1,25.91,0Z" style="fill:#fff;fill-rule:evenodd"/></g><path d="M1600,0H3700.08V1000.08H1600v-150H0V150H1600V0Z" style="fill:none;stroke:#4a90e2;stroke-miterlimit:2.61313009262085;stroke-width:0.18878669690703784px"/><rect x="99.21" y="257.21" width="483.66" height="483.66" style="fill:#fff"/><path id="Rectangle" d="M111,259a10,10,0,0,0-10,10V729a10,10,0,0,0,10,10H571a10,10,0,0,0,10-10V269a10,10,0,0,0-10-10Zm0-10H571a20,20,0,0,1,20,20V729a20,20,0,0,1-20,20H111a20,20,0,0,1-20-20V269A20,20,0,0,1,111,249Z" style="fill:url(#linear-gradient-2)"/><g style="isolation:isolate"><path d="M202.7,202.84h13q4.6,0,7.16,2.32a9.48,9.48,0,0,1,0,13q-2.55,2.32-7.16,2.32h-6.72V231H202.7Zm12.16,12.88q4.68,0,4.68-4a3.83,3.83,0,0,0-1.16-3.08,5.25,5.25,0,0,0-3.52-1h-5.92v8.12Z" style="fill:#2677ff"/><path d="M253.86,231h-6.8l-4.88-9a3.87,3.87,0,0,0-1.44-1.5,4.32,4.32,0,0,0-2.12-.46h-3.08v11h-6.16v-28.2h13q5,0,7.5,2.18a7.82,7.82,0,0,1,2.54,6.3,8.14,8.14,0,0,1-1.78,5.36,8.48,8.48,0,0,1-5,2.84,6.17,6.17,0,0,1,3.72,3.16Zm-8.56-16.62a4.23,4.23,0,0,0,0-5.9,6.46,6.46,0,0,0-3.88-.92h-6v7.76h6A6.3,6.3,0,0,0,245.3,214.42Z" style="fill:#2677ff"/><path d="M257.38,231v-28.2h6.24V231Z" style="fill:#2677ff"/><path d="M289.82,202.84h6.32L283.46,231h-5l-12.72-28.2h6.48l8.8,20.44Z" style="fill:#2677ff"/><path d="M317,231l-2.68-6.24H301.18L298.5,231h-6.28l13-28.2h5l13,28.2Zm-13.76-11h9l-4.52-10.56Z" style="fill:#2677ff"/><path d="M328.38,231V207.92h-8.84v-5.08h23.92v5.08h-8.84V231Z" style="fill:#2677ff"/><path d="M346.7,231v-28.2h19.44v4.84H352.78v6.6h12.56v4.84H352.78v7.08h13.36V231Z" style="fill:#2677ff"/><path d="M385.22,230.54a14.65,14.65,0,0,1-4.92-2.38l2-4.44a15.68,15.68,0,0,0,9.16,2.84,7.94,7.94,0,0,0,4.06-.86,2.65,2.65,0,0,0,1.42-2.38,2.34,2.34,0,0,0-1.3-2.12,17.34,17.34,0,0,0-4.62-1.48,25.76,25.76,0,0,1-5.94-1.84,7.78,7.78,0,0,1-3.24-2.66,7,7,0,0,1-1-3.9,7.64,7.64,0,0,1,1.42-4.56,9.49,9.49,0,0,1,4-3.14,14.44,14.44,0,0,1,5.92-1.14,18.92,18.92,0,0,1,5.78.88,11.85,11.85,0,0,1,4.42,2.36l-2,4.44a13.64,13.64,0,0,0-8.16-2.84,6.77,6.77,0,0,0-3.84.94,3,3,0,0,0-1.4,2.58,2.31,2.31,0,0,0,.54,1.58,4.52,4.52,0,0,0,1.8,1.1,27.89,27.89,0,0,0,3.58,1c3.63.8,6.23,1.83,7.82,3.08a6.25,6.25,0,0,1,2.38,5.2,7.44,7.44,0,0,1-3.08,6.3q-3.08,2.29-8.6,2.3A22.09,22.09,0,0,1,385.22,230.54Z" style="fill:#2677ff"/><path d="M407.5,231v-28.2h19.44v4.84H413.58v6.6h12.56v4.84H413.58v7.08h13.36V231Z" style="fill:#2677ff"/><path d="M431.18,231v-28.2h19.44v4.84H437.26v6.6h12.56v4.84H437.26v7.08h13.36V231Z" style="fill:#2677ff"/><path d="M454.86,202.84h11a17.34,17.34,0,0,1,7.92,1.68,11.71,11.71,0,0,1,5.08,4.84,15.36,15.36,0,0,1,1.76,7.56,15.58,15.58,0,0,1-1.74,7.58,11.6,11.6,0,0,1-5.06,4.86,17.45,17.45,0,0,1-8,1.68h-11ZM465.38,226q9,0,9-9.08t-9-9H461.1V226Z" style="fill:#2677ff"/></g><g id="DO-NOT-SHARE-THIS-WI" style="isolation:isolate"><g style="isolation:isolate"><path d="M103.76,772.71h7.12A11.25,11.25,0,0,1,116,773.8a7.61,7.61,0,0,1,3.3,3.15,9.88,9.88,0,0,1,1.15,4.91,10.17,10.17,0,0,1-1.13,4.93,7.56,7.56,0,0,1-3.29,3.16,11.35,11.35,0,0,1-5.18,1.09h-7.12Zm6.84,15c3.9,0,5.85-2,5.85-5.9s-2-5.87-5.85-5.87h-2.78v11.77Z" style="fill:#2677ff"/><path d="M127.25,790.12a7.88,7.88,0,0,1-3.11-3.28,11.92,11.92,0,0,1,0-10,7.77,7.77,0,0,1,3.11-3.26,10.45,10.45,0,0,1,9.49,0,7.77,7.77,0,0,1,3.11,3.26,11.92,11.92,0,0,1,0,10,7.88,7.88,0,0,1-3.11,3.28,10.36,10.36,0,0,1-9.49,0Zm8.35-3.6a7.27,7.27,0,0,0,1.31-4.66,7.19,7.19,0,0,0-1.3-4.64,4.87,4.87,0,0,0-7.22,0,9,9,0,0,0,0,9.3,4.36,4.36,0,0,0,3.59,1.61A4.42,4.42,0,0,0,135.6,786.52Z" style="fill:#2677ff"/><path d="M163.35,772.71h3.8V791h-3L155,779.37V791h-3.76V772.71h3l9.12,11.62Z" style="fill:#2677ff"/><path d="M174.44,790.12a7.88,7.88,0,0,1-3.11-3.28,11.92,11.92,0,0,1,0-10,7.77,7.77,0,0,1,3.11-3.26,10.45,10.45,0,0,1,9.49,0,7.77,7.77,0,0,1,3.11,3.26,11.92,11.92,0,0,1,0,10,7.88,7.88,0,0,1-3.11,3.28,10.36,10.36,0,0,1-9.49,0Zm8.35-3.6a7.27,7.27,0,0,0,1.31-4.66,7.19,7.19,0,0,0-1.3-4.64,4.87,4.87,0,0,0-7.22,0,9,9,0,0,0,0,9.3,4.36,4.36,0,0,0,3.59,1.61A4.42,4.42,0,0,0,182.79,786.52Z" style="fill:#2677ff"/><path d="M194.4,791V776h-5.75v-3.3H204.2V776h-5.75v15Z" style="fill:#2677ff"/><path d="M216,790.72a9.64,9.64,0,0,1-3.2-1.55l1.3-2.89a10.18,10.18,0,0,0,5.95,1.85,5.13,5.13,0,0,0,2.64-.56,1.73,1.73,0,0,0,.93-1.55,1.52,1.52,0,0,0-.85-1.38,11.49,11.49,0,0,0-3-1,17.08,17.08,0,0,1-3.86-1.19,5.11,5.11,0,0,1-2.11-1.73,4.61,4.61,0,0,1-.66-2.54,5,5,0,0,1,.92-3,6.13,6.13,0,0,1,2.59-2,9.28,9.28,0,0,1,3.85-.74,12.35,12.35,0,0,1,3.75.57,7.68,7.68,0,0,1,2.88,1.53l-1.3,2.89a8.85,8.85,0,0,0-5.31-1.85,4.47,4.47,0,0,0-2.49.61,1.92,1.92,0,0,0-.91,1.68,1.48,1.48,0,0,0,.35,1,2.86,2.86,0,0,0,1.17.71,16.41,16.41,0,0,0,2.33.65,13,13,0,0,1,5.08,2,4.08,4.08,0,0,1,1.54,3.38,4.82,4.82,0,0,1-2,4.1,9.15,9.15,0,0,1-5.59,1.49A14.36,14.36,0,0,1,216,790.72Z" style="fill:#2677ff"/><path d="M242.86,772.71h4V791h-4v-7.7h-8.45V791h-4V772.71h4v7.41h8.45Z" style="fill:#2677ff"/><path d="M264.44,791,262.7,787h-8.53L252.43,791h-4.09l8.43-18.33H260L268.44,791Zm-8.95-7.12h5.88l-2.94-6.87Z" style="fill:#2677ff"/><path d="M285.86,791h-4.42l-3.17-5.85a2.38,2.38,0,0,0-.94-1,2.81,2.81,0,0,0-1.37-.3h-2V791h-4V772.71h8.42a7.29,7.29,0,0,1,4.88,1.42,5.09,5.09,0,0,1,1.65,4.09,5.32,5.32,0,0,1-1.16,3.49,5.54,5.54,0,0,1-3.26,1.84,4.06,4.06,0,0,1,2.42,2.06Zm-5.56-10.8a2.75,2.75,0,0,0,0-3.84,4.17,4.17,0,0,0-2.52-.6H273.9v5.05h3.88A4.16,4.16,0,0,0,280.3,780.24Z" style="fill:#2677ff"/><path d="M288.15,791V772.71h12.64v3.15H292.1v4.29h8.17v3.14H292.1v4.6h8.69V791Z" style="fill:#2677ff"/><path d="M315,791V776h-5.75v-3.3h15.55V776h-5.75v15Z" style="fill:#2677ff"/><path d="M339.34,772.71h4V791h-4v-7.7h-8.45V791h-4V772.71h4v7.41h8.45Z" style="fill:#2677ff"/><path d="M346.93,791V772.71H351V791Z" style="fill:#2677ff"/><path d="M357,790.72a9.49,9.49,0,0,1-3.19-1.55l1.29-2.89a10.21,10.21,0,0,0,6,1.85,5.18,5.18,0,0,0,2.64-.56,1.74,1.74,0,0,0,.92-1.55,1.53,1.53,0,0,0-.84-1.38,11.74,11.74,0,0,0-3-1,17.08,17.08,0,0,1-3.86-1.19,5.07,5.07,0,0,1-2.1-1.73,4.54,4.54,0,0,1-.67-2.54,5,5,0,0,1,.93-3,6,6,0,0,1,2.58-2,9.28,9.28,0,0,1,3.85-.74,12.46,12.46,0,0,1,3.76.57,7.71,7.71,0,0,1,2.87,1.53l-1.3,2.89a8.85,8.85,0,0,0-5.3-1.85,4.51,4.51,0,0,0-2.5.61,1.92,1.92,0,0,0-.91,1.68,1.53,1.53,0,0,0,.35,1,3,3,0,0,0,1.17.71,16.81,16.81,0,0,0,2.33.65,13,13,0,0,1,5.08,2,4.09,4.09,0,0,1,1.55,3.38,4.85,4.85,0,0,1-2,4.1,9.17,9.17,0,0,1-5.59,1.49A14.43,14.43,0,0,1,357,790.72Z" style="fill:#2677ff"/><path d="M401.59,772.71h3.84L398.91,791h-3.25l-4.24-12.14L387.13,791h-3.25l-6.5-18.33h4.11l4.18,12.66,4.45-12.66H393l4.29,12.79Z" style="fill:#2677ff"/><path d="M407.7,791V772.71h4.05V791Z" style="fill:#2677ff"/><path d="M419.6,791V776h-5.74v-3.3h15.55V776h-5.75v15Z" style="fill:#2677ff"/><path d="M443.94,772.71h4V791h-4v-7.7h-8.45V791h-4V772.71h4v7.41h8.45Z" style="fill:#2677ff"/><path d="M472.75,791,471,787h-8.53L460.74,791h-4.09l8.43-18.33h3.25L476.75,791Zm-8.95-7.12h5.88l-2.94-6.87Z" style="fill:#2677ff"/><path d="M490.37,772.71h3.8V791h-3L482,779.37V791h-3.77V772.71h3l9.12,11.62Z" style="fill:#2677ff"/><path d="M513.85,772.71l-7.59,10V791h-4.05v-8.29l-7.57-10h4.6l5,6.79,5-6.79Z" style="fill:#2677ff"/><path d="M516.93,790.12a7.79,7.79,0,0,1-3.1-3.28,11.82,11.82,0,0,1,0-10,7.69,7.69,0,0,1,3.1-3.26,10.45,10.45,0,0,1,9.49,0,7.71,7.71,0,0,1,3.11,3.26,11.92,11.92,0,0,1,0,10,7.82,7.82,0,0,1-3.11,3.28,10.36,10.36,0,0,1-9.49,0Zm8.35-3.6a7.27,7.27,0,0,0,1.31-4.66,7.19,7.19,0,0,0-1.3-4.64,4.86,4.86,0,0,0-7.21,0,9,9,0,0,0,0,9.3,4.37,4.37,0,0,0,3.59,1.61A4.42,4.42,0,0,0,525.28,786.52Z" style="fill:#2677ff"/><path d="M545.81,772.71h3.79V791h-3l-9.13-11.67V791h-3.77V772.71h3l9.13,11.62Z" style="fill:#2677ff"/><path d="M553.22,791V772.71h12.63v3.15h-8.68v4.29h8.16v3.14h-8.16v4.6h8.68V791Z" style="fill:#2677ff"/><path d="M576.2,785.11,575,772.68l4.83,0-1.24,12.4Zm-.91,1.77h4.21V791h-4.21Z" style="fill:#2677ff"/></g></g><rect x="3134.84" y="258.46" width="483.66" height="483.66" style="fill:#fff"/><path d="M3146.67,260.29a10,10,0,0,0-10,10v460a10,10,0,0,0,10,10h460a10,10,0,0,0,10-10v-460a10,10,0,0,0-10-10Zm0-10h460a20,20,0,0,1,20,20v460a20,20,0,0,1-20,20h-460a20,20,0,0,1-20-20v-460A20,20,0,0,1,3146.67,250.29Z" style="fill:url(#linear-gradient-3)"/><g id="PUBLIC-ADDRESS" style="isolation:isolate"><g style="isolation:isolate"><path d="M3204.25,197.34h13q4.61,0,7.16,2.32a9.48,9.48,0,0,1,0,13q-2.55,2.32-7.16,2.32h-6.72v10.6h-6.24Zm12.16,12.88q4.68,0,4.68-4a3.83,3.83,0,0,0-1.16-3.08,5.25,5.25,0,0,0-3.52-1h-5.92v8.12Z" style="fill:#2677ff"/><path d="M3233.87,222.84q-3.09-3.06-3.1-8.94V197.34h6.12v16.84a7.58,7.58,0,0,0,1.54,5.12,6.53,6.53,0,0,0,8.94,0,7.51,7.51,0,0,0,1.56-5.1V197.34h6.12V213.9q0,5.83-3.12,8.92t-9,3.08Q3237,225.9,3233.87,222.84Z" style="fill:#2677ff"/><path d="M3282.35,213.44a7,7,0,0,1,1.34,4.38,6.82,6.82,0,0,1-2.62,5.64,11.28,11.28,0,0,1-7.22,2.08h-13.4v-28.2h13a11.24,11.24,0,0,1,7,2,6.37,6.37,0,0,1,2.58,5.36,6.47,6.47,0,0,1-1.18,3.86,6.65,6.65,0,0,1-3.26,2.42A7,7,0,0,1,3282.35,213.44Zm-15.82-4.62h5.88A6.08,6.08,0,0,0,3276,208a2.88,2.88,0,0,0,1.14-2.5,3,3,0,0,0-1.14-2.58,6.08,6.08,0,0,0-3.54-.82h-5.88Zm10.2,11.12a3.17,3.17,0,0,0,1.12-2.72,3.29,3.29,0,0,0-1.12-2.76,5.8,5.8,0,0,0-3.6-.88h-6.6v7.2h6.6A6,6,0,0,0,3276.73,219.94Z" style="fill:#2677ff"/><path d="M3288,225.54v-28.2h6.24v23.12h12.6v5.08Z" style="fill:#2677ff"/><path d="M3310.45,225.54v-28.2h6.24v28.2Z" style="fill:#2677ff"/><path d="M3328,224.1a12.14,12.14,0,0,1-4.88-5.08,17.84,17.84,0,0,1,0-15.2,12,12,0,0,1,4.88-5.06,15,15,0,0,1,7.46-1.78,16.77,16.77,0,0,1,5.36.86,11.38,11.38,0,0,1,4.2,2.38l-2,4.44a13.46,13.46,0,0,0-3.66-2,11.2,11.2,0,0,0-3.78-.64,7.15,7.15,0,0,0-5.78,2.4c-1.34,1.6-2,4-2,7s.68,5.45,2,7.06a7.13,7.13,0,0,0,5.78,2.42,11.2,11.2,0,0,0,3.78-.64,13.46,13.46,0,0,0,3.66-2l2,4.44a11.38,11.38,0,0,1-4.2,2.38,16.77,16.77,0,0,1-5.36.86A14.9,14.9,0,0,1,3328,224.1Z" style="fill:#2677ff"/><path d="M3382,225.54l-2.68-6.24h-13.12l-2.68,6.24h-6.28l13-28.2h5l13,28.2Zm-13.76-11h9L3372.73,204Z" style="fill:#2677ff"/><path d="M3390.45,197.34h11a17.34,17.34,0,0,1,7.92,1.68,11.71,11.71,0,0,1,5.08,4.84,15.36,15.36,0,0,1,1.76,7.56,15.58,15.58,0,0,1-1.74,7.58,11.6,11.6,0,0,1-5.06,4.86,17.45,17.45,0,0,1-8,1.68h-11ZM3401,220.5q9,0,9-9.08t-9-9h-4.28V220.5Z" style="fill:#2677ff"/><path d="M3420.93,197.34h11a17.34,17.34,0,0,1,7.92,1.68,11.71,11.71,0,0,1,5.08,4.84,15.36,15.36,0,0,1,1.76,7.56,15.58,15.58,0,0,1-1.74,7.58,11.6,11.6,0,0,1-5.06,4.86,17.45,17.45,0,0,1-8,1.68h-11Zm10.52,23.16q9,0,9-9.08t-9-9h-4.28V220.5Z" style="fill:#2677ff"/><path d="M3475.89,225.54h-6.8l-4.88-9a3.87,3.87,0,0,0-1.44-1.5,4.35,4.35,0,0,0-2.12-.46h-3.08v11h-6.16v-28.2h13q5,0,7.5,2.18a7.85,7.85,0,0,1,2.54,6.3,8.14,8.14,0,0,1-1.78,5.36,8.51,8.51,0,0,1-5,2.84,6.17,6.17,0,0,1,3.72,3.16Zm-8.56-16.62a4.23,4.23,0,0,0,0-5.9,6.46,6.46,0,0,0-3.88-.92h-6v7.76h6A6.3,6.3,0,0,0,3467.33,208.92Z" style="fill:#2677ff"/><path d="M3479.41,225.54v-28.2h19.44v4.84h-13.36v6.6h12.56v4.84h-12.56v7.08h13.36v4.84Z" style="fill:#2677ff"/><path d="M3506.41,225a14.65,14.65,0,0,1-4.92-2.38l2-4.44a15.68,15.68,0,0,0,9.16,2.84,7.94,7.94,0,0,0,4.06-.86,2.65,2.65,0,0,0,1.42-2.38,2.34,2.34,0,0,0-1.3-2.12,17.34,17.34,0,0,0-4.62-1.48,25.76,25.76,0,0,1-5.94-1.84,7.78,7.78,0,0,1-3.24-2.66,7,7,0,0,1-1-3.9,7.64,7.64,0,0,1,1.42-4.56,9.49,9.49,0,0,1,4-3.14,14.44,14.44,0,0,1,5.92-1.14,18.92,18.92,0,0,1,5.78.88,11.85,11.85,0,0,1,4.42,2.36l-2,4.44a13.64,13.64,0,0,0-8.16-2.84,6.77,6.77,0,0,0-3.84.94,3,3,0,0,0-1.4,2.58,2.31,2.31,0,0,0,.54,1.58,4.52,4.52,0,0,0,1.8,1.1,27.89,27.89,0,0,0,3.58,1c3.63.8,6.23,1.83,7.82,3.08a6.25,6.25,0,0,1,2.38,5.2,7.44,7.44,0,0,1-3.08,6.3q-3.08,2.29-8.6,2.3A22.09,22.09,0,0,1,3506.41,225Z" style="fill:#2677ff"/><path d="M3532.41,225a14.56,14.56,0,0,1-4.92-2.38l2-4.44a15.68,15.68,0,0,0,9.16,2.84,7.94,7.94,0,0,0,4.06-.86,2.65,2.65,0,0,0,1.42-2.38,2.34,2.34,0,0,0-1.3-2.12,17.34,17.34,0,0,0-4.62-1.48,25.76,25.76,0,0,1-5.94-1.84,7.78,7.78,0,0,1-3.24-2.66,7,7,0,0,1-1-3.9,7.64,7.64,0,0,1,1.42-4.56,9.43,9.43,0,0,1,4-3.14,14.44,14.44,0,0,1,5.92-1.14,19,19,0,0,1,5.78.88,11.93,11.93,0,0,1,4.42,2.36l-2,4.44a13.64,13.64,0,0,0-8.16-2.84,6.77,6.77,0,0,0-3.84.94,2.94,2.94,0,0,0-1.4,2.58,2.31,2.31,0,0,0,.54,1.58,4.52,4.52,0,0,0,1.8,1.1,27.89,27.89,0,0,0,3.58,1q5.43,1.2,7.82,3.08a6.25,6.25,0,0,1,2.38,5.2,7.44,7.44,0,0,1-3.08,6.3q-3.08,2.29-8.6,2.3A22,22,0,0,1,3532.41,225Z" style="fill:#2677ff"/></g></g><path id="nanopaperwallet.com" d="M3146,910.24c2.93,0,5.12.83,6.55,2.5s2.15,4.18,2.15,7.55v15h-6.25V920.64a6.47,6.47,0,0,0-1.08-4.15,4.11,4.11,0,0,0-3.37-1.3,5.74,5.74,0,0,0-4.33,1.7,6.32,6.32,0,0,0-1.62,4.55v13.85h-6.25V910.84h6.1v3.65a8.39,8.39,0,0,1,3.35-3.15A10.11,10.11,0,0,1,3146,910.24Zm25.46,0q5.14,0,7.65,2.5c1.67,1.67,2.5,4.23,2.5,7.7v14.85h-6v-3.75a6.55,6.55,0,0,1-2.67,3.05,8.08,8.08,0,0,1-4.23,1.1,9.77,9.77,0,0,1-4.45-1,8,8,0,0,1-3.15-2.75,6.94,6.94,0,0,1-1.15-3.9,6.16,6.16,0,0,1,1.38-4.25,8.25,8.25,0,0,1,4.47-2.25,40.57,40.57,0,0,1,8.55-.7h1.25v-1.15a5,5,0,0,0-1.07-3.6,4.88,4.88,0,0,0-3.58-1.1,13.1,13.1,0,0,0-4.07.68,20.09,20.09,0,0,0-4.18,1.87l-1.75-4.3a21.43,21.43,0,0,1,10.45-3Zm-1.45,21a5.37,5.37,0,0,0,4.08-1.67,6.07,6.07,0,0,0,1.57-4.33v-1.05h-.9a34.49,34.49,0,0,0-5.2.3,5,5,0,0,0-2.65,1,2.68,2.68,0,0,0-.8,2,3.46,3.46,0,0,0,1.1,2.63A4,4,0,0,0,3170.05,931.19Zm32.06-21q4.41,0,6.55,2.5c1.44,1.67,2.15,4.18,2.15,7.55v15h-6.25V920.64a6.53,6.53,0,0,0-1.07-4.15,4.13,4.13,0,0,0-3.38-1.3,5.7,5.7,0,0,0-4.32,1.7,6.28,6.28,0,0,0-1.63,4.55v13.85h-6.25V910.84h6.1v3.65a8.45,8.45,0,0,1,3.35-3.15A10.14,10.14,0,0,1,3202.11,910.24Zm26.12,25.45a13.5,13.5,0,0,1-6.58-1.55,10.71,10.71,0,0,1-4.37-4.45,15.43,15.43,0,0,1,0-13.48,10.76,10.76,0,0,1,4.37-4.42,14.72,14.72,0,0,1,13.15,0,10.65,10.65,0,0,1,4.35,4.42,15.61,15.61,0,0,1,0,13.48,10.61,10.61,0,0,1-4.35,4.45A13.46,13.46,0,0,1,3228.23,935.69Zm-.05-4.85a5.59,5.59,0,0,0,4.64-2,11.56,11.56,0,0,0,0-11.77,5.46,5.46,0,0,0-4.59-2,5.57,5.57,0,0,0-4.63,2,9.2,9.2,0,0,0-1.62,5.87,9.33,9.33,0,0,0,1.59,5.9A5.58,5.58,0,0,0,3228.18,930.84Zm31.61-20.6a10.09,10.09,0,0,1,5.62,1.6,10.63,10.63,0,0,1,3.85,4.52,15.65,15.65,0,0,1,1.38,6.73,15.11,15.11,0,0,1-1.38,6.65,10.08,10.08,0,0,1-9.47,6,9.68,9.68,0,0,1-4.65-1.1,7.66,7.66,0,0,1-3.15-3.05v12.75h-6.25V910.84h6.15v3.7a7.65,7.65,0,0,1,3.17-3.18A9.78,9.78,0,0,1,3259.79,910.24Zm-1.65,20.6a5.61,5.61,0,0,0,4.6-2,8.87,8.87,0,0,0,1.65-5.73,9.35,9.35,0,0,0-1.65-5.9,6.17,6.17,0,0,0-9.23-.05,9.26,9.26,0,0,0-1.62,5.85,9.16,9.16,0,0,0,1.62,5.8A5.57,5.57,0,0,0,3258.14,930.84Zm28.06-20.6q5.15,0,7.65,2.5c1.67,1.67,2.5,4.23,2.5,7.7v14.85h-5.95v-3.75a6.52,6.52,0,0,1-2.68,3.05,8,8,0,0,1-4.22,1.1,9.77,9.77,0,0,1-4.45-1,8,8,0,0,1-3.15-2.75,6.94,6.94,0,0,1-1.15-3.9,6.2,6.2,0,0,1,1.37-4.25,8.33,8.33,0,0,1,4.48-2.25,40.57,40.57,0,0,1,8.55-.7h1.25v-1.15a5,5,0,0,0-1.08-3.6,4.84,4.84,0,0,0-3.57-1.1,13.21,13.21,0,0,0-4.08.68,20.25,20.25,0,0,0-4.17,1.87l-1.75-4.3a21.43,21.43,0,0,1,10.45-3Zm-1.45,21a5.34,5.34,0,0,0,4.07-1.67,6.07,6.07,0,0,0,1.58-4.33v-1.05h-.9a34.49,34.49,0,0,0-5.2.3,5,5,0,0,0-2.65,1,2.68,2.68,0,0,0-.8,2,3.46,3.46,0,0,0,1.1,2.63A4,4,0,0,0,3284.75,931.19Zm31.91-21a10.12,10.12,0,0,1,5.63,1.6,10.7,10.7,0,0,1,3.85,4.52,15.8,15.8,0,0,1,1.37,6.73,15.25,15.25,0,0,1-1.37,6.65,10.11,10.11,0,0,1-9.48,6,9.74,9.74,0,0,1-4.65-1.1,7.66,7.66,0,0,1-3.15-3.05v12.75h-6.25V910.84h6.15v3.7a7.62,7.62,0,0,1,3.18-3.18A9.71,9.71,0,0,1,3316.66,910.24Zm-1.65,20.6a5.6,5.6,0,0,0,4.6-2,8.87,8.87,0,0,0,1.65-5.73,9.35,9.35,0,0,0-1.65-5.9,6.16,6.16,0,0,0-9.22-.05,9.2,9.2,0,0,0-1.63,5.85,9.1,9.1,0,0,0,1.63,5.8A5.54,5.54,0,0,0,3315,930.84Zm39-6.65h-16.65a7.63,7.63,0,0,0,2.05,5,7,7,0,0,0,5,1.65,11.8,11.8,0,0,0,7.4-2.6l1.8,4.3a13.26,13.26,0,0,1-4.27,2.25,16.34,16.34,0,0,1-5.18.85q-6,0-9.47-3.4t-3.48-9.3a14.26,14.26,0,0,1,1.5-6.65,10.94,10.94,0,0,1,4.23-4.5,11.9,11.9,0,0,1,6.17-1.6,10.18,10.18,0,0,1,8,3.25q2.93,3.25,2.92,9Zm-10.75-9.55a5.28,5.28,0,0,0-4,1.6,7.81,7.81,0,0,0-1.88,4.6h11.3a7.1,7.1,0,0,0-1.5-4.63A5,5,0,0,0,3343.27,914.64Zm31.86.8-3.65.35q-6.2.65-6.2,6.3v13.2H3359V910.84H3365v4.3q1.91-4.39,7.85-4.8l1.9-.15Zm37.47-4.6h6.1l-9.6,24.45h-5.45l-6-15.75-5.85,15.75h-5.4l-9.65-24.45h6.4l6.25,17,6.25-17h4.5l6.25,17.1Zm19.86-.6q5.14,0,7.65,2.5c1.66,1.67,2.5,4.23,2.5,7.7v14.85h-6v-3.75a6.52,6.52,0,0,1-2.68,3.05,8,8,0,0,1-4.22,1.1,9.74,9.74,0,0,1-4.45-1,7.83,7.83,0,0,1-3.15-2.75A6.94,6.94,0,0,1,3421,928a6.2,6.2,0,0,1,1.37-4.25,8.33,8.33,0,0,1,4.48-2.25,40.44,40.44,0,0,1,8.55-.7h1.25v-1.15a5,5,0,0,0-1.08-3.6A4.86,4.86,0,0,0,3432,915a13.21,13.21,0,0,0-4.08.68,20,20,0,0,0-4.17,1.87l-1.75-4.3a21.43,21.43,0,0,1,10.45-3Zm-1.45,21a5.36,5.36,0,0,0,4.07-1.67,6.07,6.07,0,0,0,1.58-4.33v-1.05h-.9a34.4,34.4,0,0,0-5.2.3,5,5,0,0,0-2.65,1,2.65,2.65,0,0,0-.8,2,3.42,3.42,0,0,0,1.1,2.63A3.94,3.94,0,0,0,3431,931.19Zm17.86,4.1V900h6.25v35.25Zm12.61,0V900h6.25v35.25Zm34.06-11.1h-16.65a7.63,7.63,0,0,0,2.05,5,7,7,0,0,0,5,1.65,11.8,11.8,0,0,0,7.4-2.6l1.8,4.3a13.26,13.26,0,0,1-4.27,2.25,16.34,16.34,0,0,1-5.18.85q-6,0-9.47-3.4t-3.48-9.3a14.26,14.26,0,0,1,1.5-6.65,10.94,10.94,0,0,1,4.23-4.5,11.9,11.9,0,0,1,6.17-1.6,10.18,10.18,0,0,1,8,3.25q2.93,3.25,2.92,9Zm-10.75-9.55a5.28,5.28,0,0,0-4,1.6,7.81,7.81,0,0,0-1.88,4.6h11.3a7.1,7.1,0,0,0-1.5-4.63A5,5,0,0,0,3484.79,914.64ZM3512.7,931a18.48,18.48,0,0,0,2.3-.15l-.3,4.65c-1,.1-1.91.15-2.75.15q-5.14,0-7.6-2.37t-2.45-7.08V915.54h-4.7v-4.7h4.7v-7.3h6.25v7.3h6.45v4.7h-6.45v10.55Q3508.15,931,3512.7,931Zm6.32-2.6h7v6.9h-7Zm23.36,7.3a13.74,13.74,0,0,1-6.68-1.55,10.47,10.47,0,0,1-4.32-4.4,15.35,15.35,0,0,1,.07-13.38,11.08,11.08,0,0,1,4.48-4.52,13.58,13.58,0,0,1,6.7-1.6,15.94,15.94,0,0,1,5.07.83,10.62,10.62,0,0,1,4,2.22l-1.8,4.4a12,12,0,0,0-3.28-1.9,9.72,9.72,0,0,0-3.42-.65,6.37,6.37,0,0,0-5,2,10.24,10.24,0,0,0,0,11.6,6.43,6.43,0,0,0,5,2,9.72,9.72,0,0,0,3.42-.65,12,12,0,0,0,3.28-1.9l1.8,4.35a11.16,11.16,0,0,1-4.1,2.27A16.22,16.22,0,0,1,3542.38,935.69Zm24.31,0a13.53,13.53,0,0,1-6.58-1.55,10.71,10.71,0,0,1-4.37-4.45,15.43,15.43,0,0,1,0-13.48,10.76,10.76,0,0,1,4.37-4.42,14.72,14.72,0,0,1,13.15,0,10.53,10.53,0,0,1,4.35,4.42,15.61,15.61,0,0,1,0,13.48,10.49,10.49,0,0,1-4.35,4.45A13.46,13.46,0,0,1,3566.69,935.69Zm-.05-4.85a5.62,5.62,0,0,0,4.65-2q1.61-2,1.6-5.9a9.27,9.27,0,0,0-1.6-5.87,5.5,5.5,0,0,0-4.6-2,5.58,5.58,0,0,0-4.63,2,9.2,9.2,0,0,0-1.62,5.87q0,3.9,1.6,5.9A5.56,5.56,0,0,0,3566.64,930.84Zm46.61-20.6c2.77,0,4.83.82,6.2,2.47s2.05,4.18,2.05,7.58v15h-6.25V920.54a7,7,0,0,0-.95-4.08,3.55,3.55,0,0,0-3.05-1.27,4.77,4.77,0,0,0-3.9,1.7,7.29,7.29,0,0,0-1.4,4.75v13.65h-6.25V920.54a7.13,7.13,0,0,0-.92-4.08,3.56,3.56,0,0,0-3.08-1.27,4.73,4.73,0,0,0-3.85,1.7,7.29,7.29,0,0,0-1.4,4.75v13.65h-6.25V910.84h6.1v3.45a7.28,7.28,0,0,1,3-3,9.33,9.33,0,0,1,4.45-1q5.55,0,7.35,4.6a8.45,8.45,0,0,1,3.3-3.38A9.57,9.57,0,0,1,3613.25,910.24Z" style="fill:url(#linear-gradient-4)"/><path d="M2942,60.26h12.08q4.8,0,7.47,2.34a8.37,8.37,0,0,1,2.66,6.63,8.43,8.43,0,0,1-2.69,6.66,10.82,10.82,0,0,1-7.44,2.39h-8.53V90.79H2942Zm11.73,15.07q7,0,7-6.1t-7-6h-8.18V75.33Zm39.53,15.46L2989.89,83H2974l-3.38,7.84H2967l13.42-30.53h3.07l13.42,30.53ZM2975.22,80h13.42l-6.71-15.63Zm26.19-19.75h12.08q4.8,0,7.47,2.34a8.37,8.37,0,0,1,2.66,6.63,8.43,8.43,0,0,1-2.68,6.66,10.84,10.84,0,0,1-7.45,2.39H3005V90.79h-3.55Zm11.73,15.07q7,0,7-6.1t-7-6H3005V75.33Zm16.2,15.46V60.26h19.31v3h-15.81V73.82h14.94v2.94h-14.94V87.84h15.81v3Zm49.22,0h-3.89l-5.2-9.79a5.59,5.59,0,0,0-2.23-2.44,7.5,7.5,0,0,0-3.48-.67H3058v12.9h-3.51V60.26h12.56q5,0,7.6,2.21a8,8,0,0,1,2.62,6.5,8.09,8.09,0,0,1-2,5.73,9.36,9.36,0,0,1-5.73,2.75,5.06,5.06,0,0,1,2.05,1.17,8.18,8.18,0,0,1,1.63,2.21Zm-11.77-15.85a8.11,8.11,0,0,0,5.3-1.47,5.49,5.49,0,0,0,1.75-4.46,5.32,5.32,0,0,0-1.73-4.37c-1.15-1-2.93-1.43-5.32-1.43H3058V74.94ZM2971,100.39h4.94l-8.37,23.53h-4.17l-5.44-15.59-5.51,15.59h-4.17l-8.34-23.53h5.27l5.37,16.25,5.71-16.25h3.64l5.5,16.42Zm25.83,23.53-2.23-5.21h-10.95l-2.23,5.21h-5.24L2987,100.39h4.17l10.81,23.53Zm-11.48-9.14h7.55l-3.77-8.81Zm18.59,9.14V100.39h5.21v19.29h10.51v4.24Zm18.79,0V100.39h5.21v19.29h10.51v4.24Zm18.79,0V100.39h16.22v4h-11.15v5.51H3057v4h-10.48v5.91h11.15v4Zm25.23,0V104.63h-7.38v-4.24h20v4.24h-7.38v19.29Z" style="fill:#36363c"/><path d="M2847,90.54a11.62,11.62,0,0,1-23.23,0c0-8.62-2.9-11.49-11.61-11.49s-11.62,2.87-11.62,11.49A11.62,11.62,0,1,1,2789,79.05c8.71,0,11.61-2.87,11.61-11.49a11.62,11.62,0,0,1,23.23,0c0,8.62,2.9,11.49,11.62,11.49A11.52,11.52,0,0,1,2847,90.54ZM2765.66,125a11.49,11.49,0,1,1,11.61-11.49A11.55,11.55,0,0,1,2765.66,125Zm151.17-57.5A11.55,11.55,0,0,1,2905.21,79c-8.71,0-11.61,2.88-11.61,11.49A11.55,11.55,0,0,1,2882,102c-8.71,0-11.61,2.87-11.61,11.49A11.62,11.62,0,1,1,2858.75,102c8.71,0,11.62-2.87,11.62-11.49A11.55,11.55,0,0,1,2882,79c8.71,0,11.62-2.87,11.62-11.48a11.62,11.62,0,0,1,23.23,0Z" style="fill:url(#linear-gradient-5)"/></svg>