<svg viewBox="0 0 3700 1000" xmlns="http://www.w3.org/2000/svg" xmlns:xlink="http://www.w3.org/1999/xlink"><defs><linearGradient id="linear-gradient" gradientUnits="userSpaceOnUse" x1="-.04" x2="3700.04" y1="500" y2="500"><stop offset=".3" stop-color="#44ea96"/><stop offset="1" stop-color="#02b799"/></linearGradient><linearGradient id="New_Gradient_Swatch_copy_3" gradientTransform="matrix(500 0 0 -500 324900.11 -428025.47)" gradientUnits="userSpaceOnUse" x1="-648.62" x2="-649.62" y1="-856.55" y2="-857.55" data-name="New Gradient Swatch copy 3"><stop offset="0" stop-color="#02b799"/><stop offset="1" stop-color="#44ea96"/></linearGradient><linearGradient id="New_Gradient_Swatch_copy_3-2" gradientTransform="matrix(500 0 0 -500 327918.11 -428024.22)" x1="-648.58" x2="-649.58" xlink:href="#New_Gradient_Swatch_copy_3" y1="-856.55" y2="-857.55"/><linearGradient id="New_Gradient_Swatch_copy_3-3" gradientTransform="matrix(489.66 0 0 -44.25 321223.94 -38043.46)" x1="-647.96" x2="-650.1" xlink:href="#New_Gradient_Swatch_copy_3" y1="-880.57" y2="-880.59"/><linearGradient id="New_Gradient_Swatch_copy_3-4" gradientTransform="matrix(162.79 0 0 -68.99 108064 -60023.67)" x1="-645.92" x2="-646.92" xlink:href="#New_Gradient_Swatch_copy_3" y1="-871.23" y2="-871.41"/></defs><title>paperwalletemptyC</title><g id="paperwalletemptyC"><g><path d="M 1600 0 V 150 H 0 V 850 H 1600 v 150 H 3700 V 0 Z M 20 830 V 170 H 780.77 L 1088.5 830 Z M 3680 980 H 3102 L 2654 20 H 3680 Z" fill="url(#linear-gradient)"/><g id="Group-4"><path id="Rectangle" d="M 111 259 a 10 10 0 0 0 -10 10 V 729 a 10 10 0 0 0 10 10 H 571 a 10 10 0 0 0 10 -10 V 269 a 10 10 0 0 0 -10 -10 Z m 0 -10 H 571 a 20 20 0 0 1 20 20 V 729 a 20 20 0 0 1 -20 20 H 111 a 20 20 0 0 1 -20 -20 V 269 A 20 20 0 0 1 111 249 Z" fill="url(#New_Gradient_Swatch_copy_3)"/></g><g><path d="M 202.66 202.8 h 13 q 4.6 0 7.16 2.32 a 9.48 9.48 0 0 1 0 13 q -2.55 2.32 -7.16 2.32 H 208.9 V 231 h -6.24 Z m 12.16 12.88 q 4.68 0 4.68 -4 a 3.83 3.83 0 0 0 -1.16 -3.08 a 5.25 5.25 0 0 0 -3.52 -1 H 208.9 v 8.12 Z" fill="#02b799"/><path d="M 253.82 231 H 247 l -4.88 -9 a 3.87 3.87 0 0 0 -1.44 -1.5 a 4.32 4.32 0 0 0 -2.12 -.46 H 235.5 v 11 h -6.16 V 202.8 h 13 q 5 0 7.5 2.18 a 7.82 7.82 0 0 1 2.54 6.3 a 8.14 8.14 0 0 1 -1.78 5.36 a 8.48 8.48 0 0 1 -5 2.84 a 6.17 6.17 0 0 1 3.72 3.16 Z m -8.56 -16.62 a 4.23 4.23 0 0 0 0 -5.9 a 6.46 6.46 0 0 0 -3.88 -.92 h -6 v 7.76 h 6 A 6.3 6.3 0 0 0 245.26 214.38 Z" fill="#02b799"/><path d="M 257.34 231 V 202.8 h 6.24 V 231 Z" fill="#02b799"/><path d="M 289.78 202.8 h 6.32 L 283.42 231 h -5 L 265.7 202.8 h 6.48 l 8.8 20.44 Z" fill="#02b799"/><path d="M 316.94 231 l -2.68 -6.24 H 301.14 L 298.46 231 h -6.28 l 13 -28.2 h 5 l 13 28.2 Z m -13.76 -11 h 9 l -4.52 -10.56 Z" fill="#02b799"/><path d="M 328.34 231 V 207.88 H 319.5 V 202.8 h 23.92 v 5.08 h -8.84 V 231 Z" fill="#02b799"/><path d="M 346.66 231 V 202.8 H 366.1 v 4.84 H 352.74 v 6.6 H 365.3 v 4.84 H 352.74 v 7.08 H 366.1 V 231 Z" fill="#02b799"/><path d="M 385.18 230.5 a 14.65 14.65 0 0 1 -4.92 -2.38 l 2 -4.44 a 15.68 15.68 0 0 0 9.16 2.84 a 7.94 7.94 0 0 0 4.06 -.86 a 2.65 2.65 0 0 0 1.42 -2.38 a 2.34 2.34 0 0 0 -1.3 -2.12 a 17.34 17.34 0 0 0 -4.62 -1.48 a 25.76 25.76 0 0 1 -5.94 -1.84 a 7.78 7.78 0 0 1 -3.24 -2.66 a 7 7 0 0 1 -1 -3.9 a 7.64 7.64 0 0 1 1.42 -4.56 a 9.49 9.49 0 0 1 4 -3.14 a 14.44 14.44 0 0 1 5.92 -1.14 a 18.92 18.92 0 0 1 5.78 .88 a 11.85 11.85 0 0 1 4.42 2.36 l -2 4.44 a 13.64 13.64 0 0 0 -8.16 -2.84 a 6.77 6.77 0 0 0 -3.84 .94 a 3 3 0 0 0 -1.4 2.58 a 2.31 2.31 0 0 0 .54 1.58 a 4.52 4.52 0 0 0 1.8 1.1 a 27.89 27.89 0 0 0 3.58 1 c 3.63 .8 6.23 1.83 7.82 3.08 a 6.25 6.25 0 0 1 2.38 5.2 a 7.44 7.44 0 0 1 -3.08 6.3 q -3.07 2.3 -8.6 2.3 A 22.09 22.09 0 0 1 385.18 230.5 Z" fill="#02b799"/><path d="M 407.46 231 V 202.8 H 426.9 v 4.84 H 413.54 v 6.6 H 426.1 v 4.84 H 413.54 v 7.08 H 426.9 V 231 Z" fill="#02b799"/><path d="M 431.14 231 V 202.8 h 19.44 v 4.84 H 437.22 v 6.6 h 12.56 v 4.84 H 437.22 v 7.08 h 13.36 V 231 Z" fill="#02b799"/><path d="M 454.82 202.8 h 11 a 17.34 17.34 0 0 1 7.92 1.68 a 11.71 11.71 0 0 1 5.08 4.84 a 15.36 15.36 0 0 1 1.76 7.56 a 15.58 15.58 0 0 1 -1.74 7.58 a 11.6 11.6 0 0 1 -5.06 4.86 a 17.45 17.45 0 0 1 -8 1.68 h -11 Z M 465.34 226 q 9 0 9 -9.08 t -9 -9 h -4.28 V 226 Z" fill="#02b799"/></g><g id="DO-NOT-SHARE-THIS-WI"><g isolation="isolate"><path d="M 103.72 772.67 h 7.12 a 11.25 11.25 0 0 1 5.15 1.09 a 7.61 7.61 0 0 1 3.3 3.15 a 9.88 9.88 0 0 1 1.15 4.91 a 10.17 10.17 0 0 1 -1.13 4.93 a 7.56 7.56 0 0 1 -3.29 3.16 a 11.35 11.35 0 0 1 -5.18 1.09 h -7.12 Z m 6.84 15.05 c 3.9 0 5.85 -2 5.85 -5.9 s -2 -5.87 -5.85 -5.87 h -2.78 v 11.77 Z" fill="#02b799"/><path d="M 127.21 790.08 a 7.88 7.88 0 0 1 -3.11 -3.28 a 11.92 11.92 0 0 1 0 -10 a 7.77 7.77 0 0 1 3.11 -3.26 a 10.45 10.45 0 0 1 9.49 0 a 7.77 7.77 0 0 1 3.11 3.26 a 11.92 11.92 0 0 1 0 10 a 7.88 7.88 0 0 1 -3.11 3.28 a 10.36 10.36 0 0 1 -9.49 0 Z m 8.35 -3.6 a 7.27 7.27 0 0 0 1.31 -4.66 a 7.19 7.19 0 0 0 -1.3 -4.64 a 4.87 4.87 0 0 0 -7.22 0 a 9 9 0 0 0 0 9.3 a 4.36 4.36 0 0 0 3.59 1.61 A 4.42 4.42 0 0 0 135.56 786.48 Z" fill="#02b799"/><path d="M 163.31 772.67 h 3.8 V 791 h -3 L 155 779.33 V 791 H 151.2 V 772.67 h 3 l 9.12 11.62 Z" fill="#02b799"/><path d="M 174.4 790.08 a 7.88 7.88 0 0 1 -3.11 -3.28 a 11.92 11.92 0 0 1 0 -10 a 7.77 7.77 0 0 1 3.11 -3.26 a 10.45 10.45 0 0 1 9.49 0 a 7.77 7.77 0 0 1 3.11 3.26 a 11.92 11.92 0 0 1 0 10 a 7.88 7.88 0 0 1 -3.11 3.28 a 10.36 10.36 0 0 1 -9.49 0 Z m 8.35 -3.6 a 7.27 7.27 0 0 0 1.31 -4.66 a 7.19 7.19 0 0 0 -1.3 -4.64 a 4.87 4.87 0 0 0 -7.22 0 a 9 9 0 0 0 0 9.3 a 4.36 4.36 0 0 0 3.59 1.61 A 4.42 4.42 0 0 0 182.75 786.48 Z" fill="#02b799"/><path d="M 194.36 791 V 776 h -5.75 v -3.3 h 15.55 V 776 h -5.75 v 15 Z" fill="#02b799"/><path d="M 215.91 790.68 a 9.64 9.64 0 0 1 -3.2 -1.55 l 1.3 -2.89 a 10.18 10.18 0 0 0 6 1.85 a 5.13 5.13 0 0 0 2.64 -.56 a 1.73 1.73 0 0 0 .93 -1.55 a 1.52 1.52 0 0 0 -.85 -1.38 a 11.49 11.49 0 0 0 -3 -1 a 17.08 17.08 0 0 1 -3.86 -1.19 a 5.11 5.11 0 0 1 -2.11 -1.73 a 4.61 4.61 0 0 1 -.66 -2.54 a 5 5 0 0 1 .92 -3 a 6.13 6.13 0 0 1 2.59 -2 a 9.28 9.28 0 0 1 3.85 -.74 a 12.35 12.35 0 0 1 3.75 .57 a 7.68 7.68 0 0 1 2.88 1.53 l -1.3 2.89 a 8.85 8.85 0 0 0 -5.31 -1.85 a 4.47 4.47 0 0 0 -2.49 .61 a 1.92 1.92 0 0 0 -.91 1.68 a 1.48 1.48 0 0 0 .35 1 a 2.86 2.86 0 0 0 1.17 .71 a 16.41 16.41 0 0 0 2.33 .65 a 13 13 0 0 1 5.08 2 a 4.08 4.08 0 0 1 1.54 3.38 a 4.82 4.82 0 0 1 -2 4.1 a 9.15 9.15 0 0 1 -5.59 1.49 A 14.36 14.36 0 0 1 215.91 790.68 Z" fill="#02b799"/><path d="M 242.82 772.67 h 4 V 791 h -4 v -7.7 h -8.45 V 791 h -4 V 772.67 h 4 v 7.41 h 8.45 Z" fill="#02b799"/><path d="M 264.4 791 l -1.74 -4.06 h -8.53 L 252.39 791 H 248.3 l 8.43 -18.33 H 260 L 268.4 791 Z m -8.95 -7.12 h 5.88 L 258.39 777 Z" fill="#02b799"/><path d="M 285.82 791 H 281.4 l -3.17 -5.85 a 2.38 2.38 0 0 0 -.94 -1 a 2.81 2.81 0 0 0 -1.37 -.3 h -2 V 791 h -4 V 772.67 h 8.42 a 7.29 7.29 0 0 1 4.88 1.42 a 5.09 5.09 0 0 1 1.65 4.09 a 5.32 5.32 0 0 1 -1.16 3.49 a 5.54 5.54 0 0 1 -3.26 1.84 a 4.06 4.06 0 0 1 2.42 2.06 Z m -5.56 -10.8 a 2.75 2.75 0 0 0 0 -3.84 a 4.17 4.17 0 0 0 -2.52 -.6 h -3.88 v 5 h 3.88 A 4.16 4.16 0 0 0 280.26 780.2 Z" fill="#02b799"/><path d="M 288.11 791 V 772.67 h 12.64 v 3.15 h -8.69 v 4.29 h 8.17 v 3.14 h -8.17 v 4.6 h 8.69 V 791 Z" fill="#02b799"/><path d="M 315 791 V 776 h -5.75 v -3.3 h 15.55 V 776 H 319 v 15 Z" fill="#02b799"/><path d="M 339.3 772.67 h 4 V 791 h -4 v -7.7 h -8.45 V 791 h -4 V 772.67 h 4 v 7.41 h 8.45 Z" fill="#02b799"/><path d="M 346.89 791 V 772.67 H 351 V 791 Z" fill="#02b799"/><path d="M 357 790.68 a 9.49 9.49 0 0 1 -3.19 -1.55 l 1.29 -2.89 a 10.21 10.21 0 0 0 6 1.85 a 5.18 5.18 0 0 0 2.64 -.56 a 1.74 1.74 0 0 0 .92 -1.55 a 1.53 1.53 0 0 0 -.84 -1.38 a 11.74 11.74 0 0 0 -3 -1 a 17.08 17.08 0 0 1 -3.86 -1.19 a 5.07 5.07 0 0 1 -2.1 -1.73 a 4.54 4.54 0 0 1 -.67 -2.54 a 5 5 0 0 1 .93 -3 a 6 6 0 0 1 2.58 -2 a 9.28 9.28 0 0 1 3.85 -.74 a 12.46 12.46 0 0 1 3.76 .57 a 7.71 7.71 0 0 1 2.87 1.53 l -1.3 2.89 a 8.85 8.85 0 0 0 -5.3 -1.85 a 4.51 4.51 0 0 0 -2.5 .61 a 1.92 1.92 0 0 0 -.91 1.68 a 1.53 1.53 0 0 0 .35 1 a 3 3 0 0 0 1.17 .71 a 16.81 16.81 0 0 0 2.33 .65 a 13 13 0 0 1 5.08 2 a 4.09 4.09 0 0 1 1.55 3.38 a 4.85 4.85 0 0 1 -2 4.1 a 9.17 9.17 0 0 1 -5.59 1.49 A 14.43 14.43 0 0 1 357 790.68 Z" fill="#02b799"/><path d="M 401.55 772.67 h 3.84 L 398.87 791 h -3.25 l -4.24 -12.14 L 387.09 791 h -3.25 l -6.5 -18.33 h 4.11 l 4.18 12.66 l 4.45 -12.66 h 2.83 l 4.29 12.79 Z" fill="#02b799"/><path d="M 407.66 791 V 772.67 h 4 V 791 Z" fill="#02b799"/><path d="M 419.56 791 V 776 h -5.74 v -3.3 h 15.55 V 776 h -5.75 v 15 Z" fill="#02b799"/><path d="M 443.9 772.67 h 4 V 791 h -4 v -7.7 h -8.45 V 791 h -4 V 772.67 h 4 v 7.41 h 8.45 Z" fill="#02b799"/><path d="M 472.71 791 L 471 786.94 h -8.53 L 460.7 791 h -4.09 L 465 772.67 h 3.25 L 476.71 791 Z m -8.95 -7.12 h 5.88 L 466.7 777 Z" fill="#02b799"/><path d="M 490.33 772.67 h 3.8 V 791 h -3 L 482 779.33 V 791 h -3.77 V 772.67 h 3 l 9.12 11.62 Z" fill="#02b799"/><path d="M 513.81 772.67 l -7.59 10 V 791 h -4.05 v -8.29 l -7.57 -10 h 4.6 l 5 6.79 l 5 -6.79 Z" fill="#02b799"/><path d="M 516.89 790.08 a 7.79 7.79 0 0 1 -3.1 -3.28 a 11.82 11.82 0 0 1 0 -10 a 7.69 7.69 0 0 1 3.1 -3.26 a 10.45 10.45 0 0 1 9.49 0 a 7.71 7.71 0 0 1 3.11 3.26 a 11.92 11.92 0 0 1 0 10 a 7.82 7.82 0 0 1 -3.11 3.28 a 10.36 10.36 0 0 1 -9.49 0 Z m 8.35 -3.6 a 7.27 7.27 0 0 0 1.31 -4.66 a 7.19 7.19 0 0 0 -1.3 -4.64 a 4.86 4.86 0 0 0 -7.21 0 a 9 9 0 0 0 0 9.3 a 4.37 4.37 0 0 0 3.59 1.61 A 4.42 4.42 0 0 0 525.24 786.48 Z" fill="#02b799"/><path d="M 545.77 772.67 h 3.79 V 791 h -3 l -9.13 -11.67 V 791 h -3.77 V 772.67 h 3 l 9.13 11.62 Z" fill="#02b799"/><path d="M 553.18 791 V 772.67 h 12.63 v 3.15 h -8.68 v 4.29 h 8.16 v 3.14 h -8.16 v 4.6 h 8.68 V 791 Z" fill="#02b799"/><path d="M 576.16 785.07 l -1.22 -12.43 l 4.83 0 l -1.24 12.4 Z m -.91 1.77 h 4.21 V 791 h -4.21 Z" fill="#02b799"/></g></g><path d="M 3146.63 260.25 a 10 10 0 0 0 -10 10 v 460 a 10 10 0 0 0 10 10 h 460 a 10 10 0 0 0 10 -10 v -460 a 10 10 0 0 0 -10 -10 Z m 0 -10 h 460 a 20 20 0 0 1 20 20 v 460 a 20 20 0 0 1 -20 20 h -460 a 20 20 0 0 1 -20 -20 v -460 A 20 20 0 0 1 3146.63 250.25 Z" fill="url(#New_Gradient_Swatch_copy_3-2)"/><g id="PUBLIC-ADDRESS"><g isolation="isolate"><path d="M 3204.21 197.3 h 13 q 4.6 0 7.16 2.32 a 9.48 9.48 0 0 1 0 13 q -2.55 2.32 -7.16 2.32 h -6.72 v 10.6 h -6.24 Z m 12.16 12.88 q 4.68 0 4.68 -4 a 3.83 3.83 0 0 0 -1.16 -3.08 a 5.25 5.25 0 0 0 -3.52 -1 h -5.92 v 8.12 Z" fill="#02b799"/><path d="M 3233.83 222.8 q -3.09 -3.06 -3.1 -8.94 V 197.3 h 6.12 v 16.84 a 7.58 7.58 0 0 0 1.54 5.12 a 6.53 6.53 0 0 0 8.94 0 a 7.51 7.51 0 0 0 1.56 -5.1 V 197.3 H 3255 v 16.56 q 0 5.83 -3.12 8.92 t -9 3.08 Q 3236.94 225.86 3233.83 222.8 Z" fill="#02b799"/><path d="M 3282.31 213.4 a 7 7 0 0 1 1.34 4.38 a 6.82 6.82 0 0 1 -2.62 5.64 a 11.28 11.28 0 0 1 -7.22 2.08 h -13.4 V 197.3 h 13 a 11.24 11.24 0 0 1 7 2 a 6.37 6.37 0 0 1 2.58 5.36 a 6.47 6.47 0 0 1 -1.18 3.86 a 6.65 6.65 0 0 1 -3.26 2.42 A 7 7 0 0 1 3282.31 213.4 Z m -15.82 -4.62 h 5.88 a 6.08 6.08 0 0 0 3.54 -.82 a 2.88 2.88 0 0 0 1.14 -2.5 a 3 3 0 0 0 -1.14 -2.58 a 6.08 6.08 0 0 0 -3.54 -.82 h -5.88 Z m 10.2 11.12 a 3.17 3.17 0 0 0 1.12 -2.72 a 3.29 3.29 0 0 0 -1.12 -2.76 a 5.8 5.8 0 0 0 -3.6 -.88 h -6.6 v 7.2 h 6.6 A 6 6 0 0 0 3276.69 219.9 Z" fill="#02b799"/><path d="M 3287.93 225.5 V 197.3 h 6.24 v 23.12 h 12.6 v 5.08 Z" fill="#02b799"/><path d="M 3310.41 225.5 V 197.3 h 6.24 v 28.2 Z" fill="#02b799"/><path d="M 3328 224.06 a 12.14 12.14 0 0 1 -4.88 -5.08 a 17.84 17.84 0 0 1 0 -15.2 a 12 12 0 0 1 4.88 -5.06 a 15 15 0 0 1 7.46 -1.78 a 16.77 16.77 0 0 1 5.36 .86 a 11.38 11.38 0 0 1 4.2 2.38 l -2 4.44 a 13.46 13.46 0 0 0 -3.66 -2 a 11.2 11.2 0 0 0 -3.78 -.64 a 7.15 7.15 0 0 0 -5.78 2.4 c -1.34 1.6 -2 3.95 -2 7 s .68 5.45 2 7.06 a 7.13 7.13 0 0 0 5.78 2.42 a 11.2 11.2 0 0 0 3.78 -.64 a 13.46 13.46 0 0 0 3.66 -2 l 2 4.44 a 11.38 11.38 0 0 1 -4.2 2.38 a 16.77 16.77 0 0 1 -5.36 .86 A 14.9 14.9 0 0 1 3328 224.06 Z" fill="#02b799"/><path d="M 3381.93 225.5 l -2.68 -6.24 h -13.12 l -2.68 6.24 h -6.28 l 13 -28.2 h 5 l 13 28.2 Z m -13.76 -11 h 9 L 3372.69 204 Z" fill="#02b799"/><path d="M 3390.41 197.3 h 11 a 17.34 17.34 0 0 1 7.92 1.68 a 11.71 11.71 0 0 1 5.08 4.84 a 15.36 15.36 0 0 1 1.76 7.56 a 15.58 15.58 0 0 1 -1.74 7.58 a 11.6 11.6 0 0 1 -5.06 4.86 a 17.45 17.45 0 0 1 -8 1.68 h -11 Z m 10.52 23.16 q 9 0 9 -9.08 t -9 -9 h -4.28 v 18.12 Z" fill="#02b799"/><path d="M 3420.89 197.3 h 11 a 17.34 17.34 0 0 1 7.92 1.68 a 11.71 11.71 0 0 1 5.08 4.84 a 15.36 15.36 0 0 1 1.76 7.56 a 15.58 15.58 0 0 1 -1.74 7.58 a 11.6 11.6 0 0 1 -5.06 4.86 a 17.45 17.45 0 0 1 -8 1.68 h -11 Z m 10.52 23.16 q 9 0 9 -9.08 t -9 -9 h -4.28 v 18.12 Z" fill="#02b799"/><path d="M 3475.85 225.5 h -6.8 l -4.88 -9 a 3.87 3.87 0 0 0 -1.44 -1.5 a 4.35 4.35 0 0 0 -2.12 -.46 h -3.08 v 11 h -6.16 V 197.3 h 13 q 5 0 7.5 2.18 a 7.85 7.85 0 0 1 2.54 6.3 a 8.14 8.14 0 0 1 -1.78 5.36 a 8.51 8.51 0 0 1 -5 2.84 a 6.17 6.17 0 0 1 3.72 3.16 Z m -8.56 -16.62 a 4.23 4.23 0 0 0 0 -5.9 a 6.46 6.46 0 0 0 -3.88 -.92 h -6 v 7.76 h 6 A 6.3 6.3 0 0 0 3467.29 208.88 Z" fill="#02b799"/><path d="M 3479.37 225.5 V 197.3 h 19.44 v 4.84 h -13.36 v 6.6 H 3498 v 4.84 h -12.56 v 7.08 h 13.36 v 4.84 Z" fill="#02b799"/><path d="M 3506.37 225 a 14.65 14.65 0 0 1 -4.92 -2.38 l 2 -4.44 a 15.68 15.68 0 0 0 9.16 2.84 a 7.94 7.94 0 0 0 4.06 -.86 a 2.65 2.65 0 0 0 1.42 -2.38 a 2.34 2.34 0 0 0 -1.3 -2.12 a 17.34 17.34 0 0 0 -4.62 -1.48 a 25.76 25.76 0 0 1 -5.94 -1.84 a 7.78 7.78 0 0 1 -3.24 -2.66 a 7 7 0 0 1 -1 -3.9 a 7.64 7.64 0 0 1 1.42 -4.56 a 9.49 9.49 0 0 1 4 -3.14 a 14.44 14.44 0 0 1 5.92 -1.14 a 18.92 18.92 0 0 1 5.78 .88 a 11.85 11.85 0 0 1 4.42 2.36 l -2 4.44 a 13.64 13.64 0 0 0 -8.16 -2.84 a 6.77 6.77 0 0 0 -3.84 .94 a 3 3 0 0 0 -1.4 2.58 a 2.31 2.31 0 0 0 .54 1.58 a 4.52 4.52 0 0 0 1.8 1.1 a 27.89 27.89 0 0 0 3.58 1 c 3.63 .8 6.23 1.83 7.82 3.08 a 6.25 6.25 0 0 1 2.38 5.2 a 7.44 7.44 0 0 1 -3.08 6.3 q -3.08 2.3 -8.6 2.3 A 22.09 22.09 0 0 1 3506.37 225 Z" fill="#02b799"/><path d="M 3532.37 225 a 14.56 14.56 0 0 1 -4.92 -2.38 l 2 -4.44 a 15.68 15.68 0 0 0 9.16 2.84 a 7.94 7.94 0 0 0 4.06 -.86 a 2.65 2.65 0 0 0 1.42 -2.38 a 2.34 2.34 0 0 0 -1.3 -2.12 a 17.34 17.34 0 0 0 -4.62 -1.48 a 25.76 25.76 0 0 1 -5.94 -1.84 a 7.78 7.78 0 0 1 -3.24 -2.66 a 7 7 0 0 1 -1 -3.9 a 7.64 7.64 0 0 1 1.42 -4.56 a 9.43 9.43 0 0 1 4 -3.14 a 14.44 14.44 0 0 1 5.92 -1.14 a 19 19 0 0 1 5.78 .88 a 11.93 11.93 0 0 1 4.42 2.36 l -2 4.44 a 13.64 13.64 0 0 0 -8.16 -2.84 a 6.77 6.77 0 0 0 -3.84 .94 a 2.94 2.94 0 0 0 -1.4 2.58 a 2.31 2.31 0 0 0 .54 1.58 a 4.52 4.52 0 0 0 1.8 1.1 a 27.89 27.89 0 0 0 3.58 1 q 5.43 1.2 7.82 3.08 a 6.25 6.25 0 0 1 2.38 5.2 a 7.44 7.44 0 0 1 -3.08 6.3 q -3.08 2.3 -8.6 2.3 A 22 22 0 0 1 3532.37 225 Z" fill="#02b799"/></g></g><path id="nanopaperwallet.com" d="M 3146 910.2 c 2.93 0 5.12 .83 6.55 2.5 s 2.15 4.18 2.15 7.55 v 15 h -6.25 V 920.6 a 6.47 6.47 0 0 0 -1.08 -4.15 a 4.11 4.11 0 0 0 -3.37 -1.3 a 5.74 5.74 0 0 0 -4.33 1.7 a 6.32 6.32 0 0 0 -1.62 4.55 v 13.85 h -6.25 V 910.8 h 6.1 v 3.65 a 8.39 8.39 0 0 1 3.35 -3.15 A 10.11 10.11 0 0 1 3146 910.2 Z m 25.46 0 q 5.14 0 7.65 2.5 c 1.67 1.67 2.5 4.23 2.5 7.7 v 14.85 h -6 V 931.5 a 6.55 6.55 0 0 1 -2.67 3 a 8.08 8.08 0 0 1 -4.23 1.1 a 9.77 9.77 0 0 1 -4.45 -1 a 8 8 0 0 1 -3.15 -2.75 A 6.94 6.94 0 0 1 3160 928 a 6.16 6.16 0 0 1 1.38 -4.25 a 8.25 8.25 0 0 1 4.47 -2.25 a 40.57 40.57 0 0 1 8.55 -.7 h 1.25 v -1.15 a 5 5 0 0 0 -1.07 -3.6 A 4.88 4.88 0 0 0 3171 915 a 13.1 13.1 0 0 0 -4.07 .68 a 20.09 20.09 0 0 0 -4.18 1.87 l -1.75 -4.3 a 21.43 21.43 0 0 1 10.45 -3 Z M 3170 931.15 a 5.37 5.37 0 0 0 4.08 -1.67 a 6.07 6.07 0 0 0 1.57 -4.33 v -1 h -.9 a 34.49 34.49 0 0 0 -5.2 .3 a 5 5 0 0 0 -2.65 1.05 a 2.68 2.68 0 0 0 -.8 2 a 3.46 3.46 0 0 0 1.1 2.63 A 4 4 0 0 0 3170 931.15 Z m 32.06 -20.95 q 4.41 0 6.55 2.5 c 1.44 1.67 2.15 4.18 2.15 7.55 v 15 h -6.25 V 920.6 a 6.53 6.53 0 0 0 -1.07 -4.15 a 4.13 4.13 0 0 0 -3.38 -1.3 a 5.7 5.7 0 0 0 -4.32 1.7 a 6.28 6.28 0 0 0 -1.63 4.55 v 13.85 h -6.25 V 910.8 h 6.1 v 3.65 a 8.45 8.45 0 0 1 3.35 -3.15 A 10.14 10.14 0 0 1 3202.07 910.2 Z m 26.12 25.45 a 13.5 13.5 0 0 1 -6.58 -1.55 a 10.71 10.71 0 0 1 -4.37 -4.45 a 15.43 15.43 0 0 1 0 -13.48 a 10.76 10.76 0 0 1 4.37 -4.42 a 14.72 14.72 0 0 1 13.15 0 a 10.65 10.65 0 0 1 4.35 4.42 a 15.61 15.61 0 0 1 0 13.48 a 10.61 10.61 0 0 1 -4.35 4.45 A 13.46 13.46 0 0 1 3228.19 935.65 Z m -.05 -4.85 a 5.59 5.59 0 0 0 4.64 -2 a 11.56 11.56 0 0 0 0 -11.77 a 5.46 5.46 0 0 0 -4.59 -2 a 5.57 5.57 0 0 0 -4.63 2 a 9.2 9.2 0 0 0 -1.62 5.87 a 9.33 9.33 0 0 0 1.59 5.9 A 5.58 5.58 0 0 0 3228.14 930.8 Z m 31.61 -20.6 a 10.09 10.09 0 0 1 5.62 1.6 a 10.63 10.63 0 0 1 3.85 4.52 a 15.65 15.65 0 0 1 1.38 6.73 a 15.11 15.11 0 0 1 -1.38 6.65 a 10.08 10.08 0 0 1 -9.47 5.95 a 9.68 9.68 0 0 1 -4.65 -1.1 a 7.66 7.66 0 0 1 -3.15 -3 v 12.75 h -6.25 V 910.8 h 6.15 v 3.7 a 7.65 7.65 0 0 1 3.17 -3.18 A 9.78 9.78 0 0 1 3259.75 910.2 Z m -1.65 20.6 a 5.61 5.61 0 0 0 4.6 -2 a 8.87 8.87 0 0 0 1.65 -5.73 a 9.35 9.35 0 0 0 -1.65 -5.9 a 6.17 6.17 0 0 0 -9.23 0 a 9.26 9.26 0 0 0 -1.62 5.85 a 9.16 9.16 0 0 0 1.62 5.8 A 5.57 5.57 0 0 0 3258.1 930.8 Z m 28.06 -20.6 q 5.15 0 7.65 2.5 c 1.67 1.67 2.5 4.23 2.5 7.7 v 14.85 h -5.95 V 931.5 a 6.52 6.52 0 0 1 -2.68 3 a 8 8 0 0 1 -4.22 1.1 a 9.77 9.77 0 0 1 -4.45 -1 a 8 8 0 0 1 -3.15 -2.75 a 6.94 6.94 0 0 1 -1.15 -3.9 a 6.2 6.2 0 0 1 1.37 -4.25 a 8.33 8.33 0 0 1 4.48 -2.25 a 40.57 40.57 0 0 1 8.55 -.7 h 1.25 v -1.15 a 5 5 0 0 0 -1.08 -3.6 a 4.84 4.84 0 0 0 -3.57 -1.1 a 13.21 13.21 0 0 0 -4.08 .68 a 20.25 20.25 0 0 0 -4.17 1.87 l -1.75 -4.3 a 21.43 21.43 0 0 1 10.45 -3 Z m -1.45 20.95 a 5.34 5.34 0 0 0 4.07 -1.67 a 6.07 6.07 0 0 0 1.58 -4.33 v -1 h -.9 a 34.49 34.49 0 0 0 -5.2 .3 a 5 5 0 0 0 -2.65 1.05 a 2.68 2.68 0 0 0 -.8 2 a 3.46 3.46 0 0 0 1.1 2.63 A 4 4 0 0 0 3284.71 931.15 Z m 31.91 -20.95 a 10.12 10.12 0 0 1 5.63 1.6 a 10.7 10.7 0 0 1 3.85 4.52 a 15.8 15.8 0 0 1 1.37 6.73 a 15.25 15.25 0 0 1 -1.37 6.65 a 10.11 10.11 0 0 1 -9.48 5.95 a 9.74 9.74 0 0 1 -4.65 -1.1 a 7.66 7.66 0 0 1 -3.15 -3 v 12.75 h -6.25 V 910.8 h 6.15 v 3.7 a 7.62 7.62 0 0 1 3.18 -3.18 A 9.71 9.71 0 0 1 3316.62 910.2 Z M 3315 930.8 a 5.6 5.6 0 0 0 4.6 -2 a 8.87 8.87 0 0 0 1.65 -5.73 a 9.35 9.35 0 0 0 -1.65 -5.9 a 6.16 6.16 0 0 0 -9.22 0 a 9.2 9.2 0 0 0 -1.63 5.85 a 9.1 9.1 0 0 0 1.63 5.8 A 5.54 5.54 0 0 0 3315 930.8 Z m 39 -6.65 h -16.65 a 7.63 7.63 0 0 0 2.05 5.05 a 7 7 0 0 0 5 1.65 a 11.8 11.8 0 0 0 7.4 -2.6 l 1.8 4.3 a 13.26 13.26 0 0 1 -4.27 2.25 a 16.34 16.34 0 0 1 -5.18 .85 q -6 0 -9.47 -3.4 t -3.48 -9.3 a 14.26 14.26 0 0 1 1.5 -6.65 a 10.94 10.94 0 0 1 4.23 -4.5 a 11.9 11.9 0 0 1 6.17 -1.6 a 10.18 10.18 0 0 1 8 3.25 q 2.93 3.25 2.92 8.95 Z m -10.75 -9.55 a 5.28 5.28 0 0 0 -4 1.6 a 7.81 7.81 0 0 0 -1.88 4.6 h 11.3 a 7.1 7.1 0 0 0 -1.5 -4.63 A 5 5 0 0 0 3343.23 914.6 Z m 31.86 .8 l -3.65 .35 q -6.2 .64 -6.2 6.3 v 13.2 H 3359 V 910.8 h 6 v 4.3 q 1.91 -4.4 7.85 -4.8 l 1.9 -.15 Z m 37.47 -4.6 h 6.1 l -9.6 24.45 h -5.45 l -6 -15.75 l -5.85 15.75 h -5.4 l -9.65 -24.45 h 6.4 l 6.25 17 l 6.25 -17 h 4.5 l 6.25 17.1 Z m 19.86 -.6 q 5.14 0 7.65 2.5 c 1.66 1.67 2.5 4.23 2.5 7.7 v 14.85 h -6 V 931.5 a 6.52 6.52 0 0 1 -2.68 3 a 8 8 0 0 1 -4.22 1.1 a 9.74 9.74 0 0 1 -4.45 -1 a 7.83 7.83 0 0 1 -3.15 -2.75 A 6.94 6.94 0 0 1 3421 928 a 6.2 6.2 0 0 1 1.37 -4.25 a 8.33 8.33 0 0 1 4.48 -2.25 a 40.44 40.44 0 0 1 8.55 -.7 h 1.25 v -1.15 a 5 5 0 0 0 -1.08 -3.6 A 4.86 4.86 0 0 0 3432 915 a 13.21 13.21 0 0 0 -4.08 .68 a 20 20 0 0 0 -4.17 1.87 l -1.75 -4.3 a 21.43 21.43 0 0 1 10.45 -3 Z M 3431 931.15 a 5.36 5.36 0 0 0 4.07 -1.67 a 6.07 6.07 0 0 0 1.58 -4.33 v -1 h -.9 a 34.4 34.4 0 0 0 -5.2 .3 a 5 5 0 0 0 -2.65 1.05 a 2.65 2.65 0 0 0 -.8 2 a 3.42 3.42 0 0 0 1.1 2.63 A 3.94 3.94 0 0 0 3431 931.15 Z m 17.86 4.1 V 900 h 6.25 v 35.25 Z m 12.61 0 V 900 h 6.25 v 35.25 Z m 34.06 -11.1 h -16.65 a 7.63 7.63 0 0 0 2.05 5.05 a 7 7 0 0 0 5 1.65 a 11.8 11.8 0 0 0 7.4 -2.6 l 1.8 4.3 a 13.26 13.26 0 0 1 -4.27 2.25 a 16.34 16.34 0 0 1 -5.18 .85 q -6 0 -9.47 -3.4 t -3.48 -9.3 a 14.26 14.26 0 0 1 1.5 -6.65 a 10.94 10.94 0 0 1 4.23 -4.5 a 11.9 11.9 0 0 1 6.17 -1.6 a 10.18 10.18 0 0 1 8 3.25 q 2.93 3.25 2.92 8.95 Z m -10.75 -9.55 a 5.28 5.28 0 0 0 -4 1.6 a 7.81 7.81 0 0 0 -1.88 4.6 h 11.3 a 7.1 7.1 0 0 0 -1.5 -4.63 A 5 5 0 0 0 3484.75 914.6 Z M 3512.66 931 a 18.48 18.48 0 0 0 2.3 -.15 l -.3 4.65 c -1 .1 -1.91 .15 -2.75 .15 q -5.14 0 -7.6 -2.37 t -2.45 -7.08 V 915.5 h -4.7 v -4.7 h 4.7 v -7.3 h 6.25 v 7.3 h 6.45 v 4.7 h -6.45 v 10.55 Q 3508.11 931 3512.66 931 Z m 6.32 -2.6 h 7 v 6.9 h -7 Z m 23.36 7.3 a 13.74 13.74 0 0 1 -6.68 -1.55 a 10.47 10.47 0 0 1 -4.32 -4.4 a 15.35 15.35 0 0 1 .07 -13.38 a 11.08 11.08 0 0 1 4.48 -4.52 a 13.58 13.58 0 0 1 6.7 -1.6 a 15.94 15.94 0 0 1 5.07 .83 a 10.62 10.62 0 0 1 4 2.22 l -1.8 4.4 a 12 12 0 0 0 -3.28 -1.9 a 9.72 9.72 0 0 0 -3.42 -.65 a 6.37 6.37 0 0 0 -5 2 a 10.24 10.24 0 0 0 0 11.6 a 6.43 6.43 0 0 0 5 2 a 9.72 9.72 0 0 0 3.42 -.65 a 12 12 0 0 0 3.28 -1.9 l 1.8 4.35 a 11.16 11.16 0 0 1 -4.1 2.27 A 16.22 16.22 0 0 1 3542.34 935.65 Z m 24.31 0 a 13.53 13.53 0 0 1 -6.58 -1.55 a 10.71 10.71 0 0 1 -4.37 -4.45 a 15.43 15.43 0 0 1 0 -13.48 a 10.76 10.76 0 0 1 4.37 -4.42 a 14.72 14.72 0 0 1 13.15 0 a 10.53 10.53 0 0 1 4.35 4.42 a 15.61 15.61 0 0 1 0 13.48 a 10.49 10.49 0 0 1 -4.35 4.45 A 13.46 13.46 0 0 1 3566.65 935.65 Z m -.05 -4.85 a 5.62 5.62 0 0 0 4.65 -2 q 1.61 -2 1.6 -5.9 a 9.27 9.27 0 0 0 -1.6 -5.87 a 5.5 5.5 0 0 0 -4.6 -2 a 5.58 5.58 0 0 0 -4.63 2 a 9.2 9.2 0 0 0 -1.62 5.87 q 0 3.9 1.6 5.9 A 5.56 5.56 0 0 0 3566.6 930.8 Z m 46.61 -20.6 c 2.77 0 4.83 .82 6.2 2.47 s 2.05 4.18 2.05 7.58 v 15 h -6.25 V 920.5 a 7 7 0 0 0 -.95 -4.08 a 3.55 3.55 0 0 0 -3.05 -1.27 a 4.77 4.77 0 0 0 -3.9 1.7 a 7.29 7.29 0 0 0 -1.4 4.75 v 13.65 h -6.25 V 920.5 a 7.13 7.13 0 0 0 -.92 -4.08 a 3.56 3.56 0 0 0 -3.08 -1.27 a 4.73 4.73 0 0 0 -3.85 1.7 a 7.29 7.29 0 0 0 -1.4 4.75 v 13.65 h -6.25 V 910.8 h 6.1 v 3.45 a 7.28 7.28 0 0 1 3 -3 a 9.33 9.33 0 0 1 4.45 -1 q 5.55 0 7.35 4.6 a 8.45 8.45 0 0 1 3.3 -3.38 A 9.57 9.57 0 0 1 3613.21 910.2 Z" fill="url(#New_Gradient_Swatch_copy_3-3)"/><path d="M 2942 60.22 h 12.08 q 4.8 0 7.47 2.34 a 8.37 8.37 0 0 1 2.66 6.63 a 8.43 8.43 0 0 1 -2.69 6.66 a 10.82 10.82 0 0 1 -7.44 2.39 h -8.53 V 90.75 H 2942 Z m 11.73 15.07 q 7 0 7 -6.1 t -7 -6 h -8.18 V 75.29 Z m 39.53 15.46 l -3.38 -7.84 h -15.93 l -3.38 7.84 h -3.63 l 13.42 -30.53 h 3.07 l 13.42 30.53 Z M 2975.18 80 h 13.42 l -6.71 -15.63 Z m 26.19 -19.75 h 12.08 q 4.8 0 7.47 2.34 a 8.37 8.37 0 0 1 2.66 6.63 a 8.43 8.43 0 0 1 -2.68 6.66 a 10.84 10.84 0 0 1 -7.45 2.39 h -8.53 V 90.75 h -3.55 Z m 11.73 15.07 q 7 0 7 -6.1 t -7 -6 h -8.18 V 75.29 Z m 16.2 15.46 V 60.22 h 19.31 v 3 H 3032.8 V 73.78 h 14.94 v 2.94 H 3032.8 V 87.8 h 15.81 v 3 Z m 49.22 0 h -3.89 l -5.2 -9.79 a 5.59 5.59 0 0 0 -2.23 -2.44 a 7.5 7.5 0 0 0 -3.48 -.67 H 3058 v 12.9 h -3.51 V 60.22 h 12.56 q 5 0 7.6 2.21 a 8 8 0 0 1 2.62 6.5 a 8.09 8.09 0 0 1 -2 5.73 a 9.36 9.36 0 0 1 -5.73 2.75 a 5.06 5.06 0 0 1 2.05 1.17 a 8.18 8.18 0 0 1 1.63 2.21 Z M 3066.75 74.9 a 8.11 8.11 0 0 0 5.3 -1.47 A 5.49 5.49 0 0 0 3073.8 69 a 5.32 5.32 0 0 0 -1.73 -4.37 c -1.15 -1 -2.93 -1.43 -5.32 -1.43 H 3058 V 74.9 Z m -95.83 25.45 h 4.94 l -8.37 23.53 h -4.17 l -5.44 -15.59 l -5.51 15.59 h -4.17 l -8.34 -23.53 h 5.27 l 5.37 16.25 l 5.71 -16.25 h 3.64 l 5.5 16.42 Z m 25.83 23.53 l -2.23 -5.21 h -10.95 l -2.23 5.21 h -5.24 l 10.81 -23.53 h 4.17 l 10.81 23.53 Z m -11.48 -9.14 h 7.55 l -3.77 -8.81 Z m 18.59 9.14 V 100.35 h 5.21 v 19.29 h 10.51 v 4.24 Z m 18.79 0 V 100.35 h 5.21 v 19.29 h 10.51 v 4.24 Z m 18.79 0 V 100.35 h 16.22 v 4 h -11.15 v 5.51 H 3057 v 4 h -10.48 v 5.91 h 11.15 v 4 Z m 25.23 0 V 104.59 h -7.38 v -4.24 h 20 v 4.24 h -7.38 v 19.29 Z" fill="#36363c"/><path d="M 2847 90.5 a 11.62 11.62 0 0 1 -23.23 0 c 0 -8.62 -2.9 -11.49 -11.61 -11.49 s -11.62 2.87 -11.62 11.49 A 11.62 11.62 0 1 1 2788.92 79 c 8.71 0 11.61 -2.87 11.61 -11.49 a 11.62 11.62 0 0 1 23.23 0 c 0 8.62 2.9 11.49 11.62 11.49 A 11.52 11.52 0 0 1 2847 90.5 Z M 2765.62 125 a 11.49 11.49 0 1 1 11.61 -11.49 A 11.55 11.55 0 0 1 2765.62 125 Z m 151.17 -57.5 A 11.55 11.55 0 0 1 2905.17 79 c -8.71 0 -11.61 2.88 -11.61 11.49 A 11.55 11.55 0 0 1 2881.94 102 c -8.71 0 -11.61 2.87 -11.61 11.49 A 11.62 11.62 0 1 1 2858.71 102 c 8.71 0 11.62 -2.87 11.62 -11.49 A 11.55 11.55 0 0 1 2881.94 79 c 8.71 0 11.62 -2.87 11.62 -11.48 a 11.62 11.62 0 0 1 23.23 0 Z" fill="url(#New_Gradient_Swatch_copy_3-4)"/><g><path d="M 2938.48 616.46 l -5.66 .07 c -54 1.81 -87.58 13.08 -109.07 36.54 s -31 59.25 -31 116.17 a 153.68 153.68 0 0 1 -46.26 110.22 A 157.73 157.73 0 0 1 2635.07 925 c -75.53 0 -116.62 16.48 -137.19 55.09 h -298.1 l .76 -.92 a 158.08 158.08 0 0 1 121.92 -56.91 c 60.42 0 97.78 -10.29 121.15 -33.37 s 33.78 -60 33.78 -119.6 A 153.69 153.69 0 0 1 2523.64 659 a 157.76 157.76 0 0 1 111.43 -45.5 c 60.42 0 97.79 -10.29 121.16 -33.37 S 2790 520.21 2790 460.56 a 157.21 157.21 0 0 1 28.21 -89 l 2.58 -3.42 Z" fill="#fff"/><path d="M 2166 769.79 c 0 85.86 -70.74 155.72 -157.68 155.72 s -157.68 -69.86 -157.68 -155.72 c 0 -59.66 -10.42 -96.55 -33.78 -119.62 s -60.73 -33.35 -121.15 -33.35 s -97.78 10.29 -121.15 33.37 s -33.79 60 -33.79 119.6 A 153.31 153.31 0 0 1 1528.53 830 H 1237.68 a 152.72 152.72 0 0 1 -12.29 -60.24 c 0 -85.86 70.73 -155.71 157.67 -155.71 c 60.42 0 97.79 -10.29 121.16 -33.37 s 33.78 -60 33.78 -119.6 a 153.66 153.66 0 0 1 46.26 -110.21 a 157.72 157.72 0 0 1 111.42 -45.5 c 86.94 0 157.67 69.85 157.67 155.71 c 0 59.66 10.42 96.55 33.79 119.62 s 60.73 33.35 121.15 33.35 a 157.75 157.75 0 0 1 111.62 45.49 A 153.83 153.83 0 0 1 2166 769.79 Z" fill="#fff"/><path d="M 820.14 170 L 819 171 c -5.06 4.7 -10 9.42 -14.7 14.05 c -3.91 3.86 -7.47 7.45 -10.89 11 l -1.38 1.43 l -1.69 -3.63 l .66 -.67 c 3.38 -3.49 7 -7.11 10.68 -10.77 c 4 -4 8.3 -8.06 12.95 -12.42 Z" fill="#fff"/><path d="M 870.75 170 l -1.28 1.08 c -14.68 12.33 -28.69 25.06 -41.66 37.82 c -6.45 6.36 -12.9 13 -19.17 19.69 l -.94 1 l -2.28 -3 l .76 -.82 c 6.3 -6.72 12.69 -13.28 19 -19.49 c 12.34 -12.17 25.7 -24.36 39.75 -36.25 Z" fill="#fff"/><path d="M 924.49 170 L 923 171.09 a 723 723 0 0 0 -71.72 61.59 c -9.15 9 -18.35 18.65 -27.34 28.64 l -1.39 1.54 l -1.71 -3.69 l .61 -.67 c 9 -10 18.14 -19.54 27.21 -28.47 A 724.61 724.61 0 0 1 918.31 170 Z" fill="#fff"/><path d="M 2334.13 20 l -.57 .79 c -3.81 5.35 -7.29 10.35 -10.65 15.3 l -1.53 2.27 l -1.56 -2.27 c -3.53 -5.17 -7.12 -10.32 -10.69 -15.29 l -.58 -.8 h 4.6 c 2.77 3.88 5.52 7.82 8.21 11.73 c 2.67 -3.91 5.42 -7.85 8.18 -11.73 Z" fill="#fff"/><path d="M 2375.72 20 l -.63 .83 A 775.69 775.69 0 0 0 2323 98.46 l -1.61 2.77 l -1.61 -2.77 a 774.43 774.43 0 0 0 -52.28 -77.63 l -.63 -.83 h 4.7 a 782.2 782.2 0 0 1 49.82 73.84 A 779.76 779.76 0 0 1 2371 20 Z" fill="#fff"/><path d="M 982.44 170 l -1.76 1.17 C 941.84 197 905.21 226.49 874.75 256.5 c -11.93 11.76 -23.84 24.49 -35.39 37.83 L 838 295.92 l -1.75 -3.69 l .59 -.68 c 11.48 -13.25 23.35 -25.94 35.29 -37.71 c 30.27 -29.83 65.12 -58 103.6 -83.87 Z" fill="#fff"/><path d="M 2418.33 20 l -.71 .87 a 737.51 737.51 0 0 0 -85.4 130.37 l -.26 .52 l -.54 .29 c -3 1.46 -6 3 -9.29 4.65 l -.83 .45 l -.87 -.46 q -4.35 -2.2 -8.72 -4.36 l -.53 -.26 l -.29 -.54 a 738.13 738.13 0 0 0 -85.95 -130.66 l -.71 -.87 h 4.84 a 742.23 742.23 0 0 1 84.86 129.26 q 3.68 1.81 7.36 3.69 c 2.62 -1.34 5.26 -2.66 7.89 -4 a 742.14 742.14 0 0 1 84.31 -129 Z" fill="#fff"/><path d="M 1046.46 170 l -2.15 1.22 c -54.4 30.8 -104.92 68.53 -146.1 109.1 c -14.72 14.52 -29.28 30.46 -43.29 47.36 l -.92 1.12 l -2.32 -3 l .67 -.81 c 13.95 -16.83 28.5 -32.73 43.24 -47.28 c 40.48 -39.88 90 -77.07 143.31 -107.66 Z" fill="#fff"/><path d="M 1108.38 170 l -.32 .64 c -1 2.09 -2.07 4.18 -3.1 6.27 l -.26 .56 l -.59 .29 c -67.4 32 -132.18 76.86 -182.41 126.36 a 623.05 623.05 0 0 0 -51.06 57.22 l -1.38 1.76 l -1.75 -3.83 l .52 -.66 a 623.41 623.41 0 0 1 51.05 -57.15 c 50.37 -49.64 115.29 -94.66 182.81 -126.78 q 1.15 -2.34 2.33 -4.68 Z" fill="#fff"/><path d="M 2462.46 20 l -.82 .91 A 688.77 688.77 0 0 0 2357 176.42 l -.29 .58 l -.57 .28 c -11.9 5.67 -23.33 11.46 -34 17.22 l -.86 .49 l -.91 -.49 c -11.22 -6 -22.48 -11.73 -33.47 -16.9 l -.58 -.26 l -.3 -.6 A 691.47 691.47 0 0 0 2180.9 20.91 l -.82 -.91 h 5 a 695.92 695.92 0 0 1 104 154.5 c 10.53 5 21.36 10.44 32.17 16.24 c 10.23 -5.52 21.22 -11.08 32.66 -16.54 A 693 693 0 0 1 2457.45 20 Z" fill="#fff"/><path d="M 2508.59 20 l -1 1 c -49.88 49.74 -94.49 113.92 -125.62 180.72 l -.31 .65 l -.66 .27 c -19.51 8.81 -39.84 19.23 -58.78 30.12 l -.91 .54 l -.93 -.53 c -19.08 -10.94 -38.72 -21 -58.39 -29.82 l -.64 -.3 l -.29 -.62 c -31.1 -66.57 -75.92 -130.86 -126.21 -181 l -1 -1 h 5.29 c 49.76 50.08 94.1 113.87 125 179.79 c 19.25 8.69 38.47 18.5 57.14 29.17 c 18.52 -10.61 38.43 -20.8 57.58 -29.48 C 2409.83 133.3 2454 69.63 2503.29 20 Z" fill="#fff"/><path d="M 1141.86 170 c -5.27 9.89 -10.32 20 -15 30 c -68.35 31 -133.8 75.51 -184.31 125.34 a 599.73 599.73 0 0 0 -58.63 67.44 l -.49 .65 l 1.77 3.85 l 1.37 -1.84 A 601.21 601.21 0 0 1 945.17 328 c 50.39 -49.7 115.69 -94 183.88 -124.88 l .62 -.29 l .29 -.62 c 4.92 -10.56 10.23 -21.16 15.78 -31.52 l .36 -.68 Z" fill="#fff"/><path d="M 1180 170 a 609.84 609.84 0 0 0 -28 55.44 c -68.92 29.48 -135 73.41 -186 123.7 a 577.51 577.51 0 0 0 -66 78.23 l -.45 .64 l 1.8 3.93 l 1.37 -1.94 a 573.92 573.92 0 0 1 65.91 -78.21 c 50.91 -50.15 116.81 -93.91 185.56 -123.21 l .66 -.29 l .29 -.67 a 607 607 0 0 1 28.75 -56.91 l .41 -.71 Z" fill="#fff"/><path d="M 2557.51 20 l -1.15 1 c -7.8 6.91 -15.54 14.15 -23 21.52 c -51.16 50.44 -96 116 -126.14 184.57 l -.29 .67 l -.66 .29 a 633.37 633.37 0 0 0 -83.87 43.53 l -1 .6 l -1 -.59 a 632.3 632.3 0 0 0 -83.51 -43.16 l -.68 -.27 l -.3 -.72 C 2204.65 156.54 2157.75 89 2103.85 37.37 C 2098 31.73 2092 26.23 2086.09 21 l -1.17 -1 h 5.65 c 5.36 4.77 10.7 9.7 15.88 14.67 C 2160.5 86.48 2207.58 154.17 2239 225.3 a 638.46 638.46 0 0 1 82.35 42.52 a 636.31 636.31 0 0 1 82.7 -42.89 c 30.36 -68.77 75.32 -134.48 126.63 -185.06 c 6.88 -6.78 14 -13.46 21.17 -19.87 Z" fill="#fff"/><path d="M 2610.16 20 l -1.41 1.08 a 565.61 565.61 0 0 0 -51.92 45.27 c -51.57 50.82 -95.68 117 -124.21 186.42 l -.3 .73 l -.73 .29 a 586.94 586.94 0 0 0 -109.16 57.55 l -1 .67 l -1 -.67 a 587.23 587.23 0 0 0 -108.78 -57.2 l -.74 -.3 l -.3 -.74 c -29.58 -71.7 -75.69 -139.75 -129.83 -191.61 a 556.45 556.45 0 0 0 -47 -40.41 L 2032.28 20 h 6.14 a 560.91 560.91 0 0 1 44.88 38.79 c 54.31 52 100.61 120.27 130.4 192.16 a 592.79 592.79 0 0 1 107.69 56.58 a 592 592 0 0 1 108.08 -56.92 c 28.73 -69.57 73 -136 124.74 -186.93 A 569.51 569.51 0 0 1 2604.05 20 Z" fill="#fff"/><path d="M 1218.77 170 a 578.49 578.49 0 0 0 -41.35 81.12 c -69.76 27.89 -136.49 71.15 -187.93 121.82 a 552 552 0 0 0 -73.11 89.64 l -.52 .78 l 2.41 3.14 l .89 -1.35 a 547.45 547.45 0 0 1 73 -89.54 C 1043.41 325 1110 282 1179.56 254.26 l .68 -.28 l .34 -.73 a 573.58 573.58 0 0 1 42.13 -82.53 l .46 -.75 Z" fill="#fff"/><path d="M 1262.86 170 l -.53 .79 a 538.12 538.12 0 0 0 -56 108.41 l -.31 .8 l -.8 .29 c -70.52 25.83 -137.84 68.14 -189.58 119.14 A 519.39 519.39 0 0 0 936 501.05 l -.87 1.44 l -2.45 -3.18 l .47 -.77 A 522.37 522.37 0 0 1 1013 396.74 c 51.9 -51.16 119.41 -93.66 190.11 -119.69 A 542.46 542.46 0 0 1 1258.37 170 Z" fill="#fff"/><path d="M 2658.55 26.54 l -1 .65 a 528.32 528.32 0 0 0 -77.3 63 c -52 51.19 -95.3 118.14 -122 188.53 l -.3 .79 l -.78 .3 a 543.43 543.43 0 0 0 -134.72 72.36 l -1.12 .83 l -1.11 -.84 a 543.87 543.87 0 0 0 -134.27 -72 l -.8 -.3 l -.3 -.78 c -27.51 -72.45 -72.72 -141.14 -127.28 -193.43 a 521.41 521.41 0 0 0 -82.16 -64.5 L 1973.64 20 h 6.92 a 524.1 524.1 0 0 1 79.65 63 c 54.74 52.47 100.15 121.35 127.88 194 a 547.26 547.26 0 0 1 133.3 71.38 a 547.54 547.54 0 0 1 133.72 -71.75 C 2482 206 2525.49 138.88 2577.65 87.51 a 532.63 532.63 0 0 1 78 -63.52 l 1.33 -.89 Z" fill="#fff"/><path d="M 1303.72 170 l -.62 .84 a 506.79 506.79 0 0 0 -70.75 134.69 l -.3 .87 l -.85 .29 c -71.58 23.61 -139.81 65 -192.12 116.55 c -33 32.5 -62.66 72.19 -85.83 114.8 l -1.3 2.4 l -2 -4.23 l .33 -.61 c 23.28 -42.67 53.06 -82.44 86.13 -115 c 52.48 -51.72 120.9 -93.31 192.67 -117.14 a 510.36 510.36 0 0 1 70 -133.44 Z" fill="#fff"/><path d="M 2672.87 57.24 l -.95 .65 A 494.46 494.46 0 0 0 2603.76 114 c -52.5 51.68 -94.9 119.5 -119.38 191 l -.3 .87 l -.88 .3 a 501.36 501.36 0 0 0 -160.53 88.35 l -1.2 1 l -1.18 -1 A 501 501 0 0 0 2160 306.64 l -.88 -.3 l -.3 -.86 c -25.21 -73.47 -69.38 -142.94 -124.38 -195.6 A 486.12 486.12 0 0 0 1906.4 21.23 l -.83 -.39 l .19 -.84 h 6.61 a 489.67 489.67 0 0 1 124.69 87.18 c 55.18 52.85 99.57 122.52 125 196.2 a 504.82 504.82 0 0 1 159.4 87.27 a 505.41 505.41 0 0 1 159.67 -87.75 c 24.7 -71.69 67.31 -139.7 120 -191.55 A 497.65 497.65 0 0 1 2670 54.71 l 1.34 -.92 Z" fill="#fff"/><path d="M 3091.13 953.49 l -.19 .46 c -3.57 8.66 -7.5 17.43 -11.68 26.09 h -4.15 l .31 -.64 c 4.42 -9.12 8.59 -18.42 12.38 -27.63 l 1.2 -2.89 Z" fill="#fff"/><path d="M 3071.29 911 l -.14 .44 a 464.88 464.88 0 0 1 -29.3 68.64 h -4.22 l .36 -.68 a 461 461 0 0 0 29.92 -70.05 L 3069 906 Z" fill="#fff"/><path d="M 1346.11 170 l -.75 .9 a 465.05 465.05 0 0 0 -86.49 161.33 l -.26 1 l -1 .3 c -72.81 21 -142.09 61.35 -195.08 113.57 c -36.81 36.29 -68.4 81 -91.36 129.27 l -1.24 2.63 l -2 -4.39 l .28 -.58 c 23.1 -48.39 54.83 -93.21 91.74 -129.6 c 53.18 -52.4 122.66 -92.95 195.68 -114.21 A 469 469 0 0 1 1341.27 170 Z" fill="#fff"/><path d="M 2687.21 87.94 l -.93 .66 a 460.55 460.55 0 0 0 -59 49.19 c -53.21 52.44 -94.52 121.31 -116.32 193.93 l -.3 1 l -1 .27 c -68.79 19.87 -135.16 57.42 -186.88 105.74 l -1.27 1.2 l -1.28 -1.21 c -51.65 -48.14 -117.93 -85.55 -186.63 -105.34 l -1 -.3 l -.3 -.95 c -22.41 -74.51 -65.38 -144.89 -121 -198.19 a 455 455 0 0 0 -202 -112.61 l -1 -.25 l .13 -1.07 h 10.32 a 459.18 459.18 0 0 1 195.16 111.22 c 55.81 53.51 99 124.12 121.68 198.84 c 68.31 19.86 134.29 57 185.9 104.74 c 51.67 -47.89 117.75 -85.2 186.16 -105.13 c 22 -72.83 63.58 -141.9 117 -194.54 a 464 464 0 0 1 59.67 -49.69 l 1.33 -.93 Z" fill="#fff"/><path d="M 1390.93 170 l -.93 1 c -49.57 52 -86.48 118.91 -103.93 188.54 l -.27 1.1 l -1.12 .26 c -74.29 17.88 -144.85 57 -198.67 110 c -41.13 40.54 -74.33 90.94 -96 145.74 l -1.17 3 l -2.17 -4.7 l .18 -.46 c 21.88 -55 55.26 -105.54 96.52 -146.23 c 54 -53.23 124.82 -92.53 199.34 -110.69 c 17.52 -69.09 54.09 -135.61 103 -187.5 Z" fill="#fff"/><path d="M 3052.55 870.82 l -1.61 .4 l -3 .73 A 426.27 426.27 0 0 1 3003.88 980 h -4.32 l .43 -.73 a 423.61 423.61 0 0 0 44.65 -109.37 l .31 -1.1 l 1.07 -.26 c 1.33 -.32 2.57 -.63 3.82 -1 l 1.1 -.28 Z" fill="#fff"/><path d="M 2701.58 118.75 l -.91 .66 a 428 428 0 0 0 -49.91 42.18 c -54 53.26 -94 123.37 -112.64 197.42 l -.3 1.11 l -1.08 .26 c -74.27 17.88 -144.81 56.94 -198.63 110 c -5.06 5 -10.17 10.3 -15.18 15.75 l -1.38 1.5 l -1.37 -1.49 c -4.29 -4.66 -9 -9.59 -14.55 -15.09 c -53.83 -53.17 -124.52 -92.31 -199 -110.22 l -1.08 -.26 l -.29 -1.07 a 425.65 425.65 0 0 0 -117 -201.43 A 420.88 420.88 0 0 0 1696.47 40.52 h -.81 A 428.49 428.49 0 0 0 1620 47.23 V 43.42 a 434.1 434.1 0 0 1 75.67 -6.64 h .81 A 424.68 424.68 0 0 1 1990.8 155.35 a 429.43 429.43 0 0 1 117.76 202.08 c 74.75 18.18 145.67 57.57 199.71 110.94 c 5.2 5.2 9.43 9.58 13.28 13.72 c 4.53 -4.9 9.22 -9.74 13.94 -14.39 c 54 -53.22 124.75 -92.52 199.28 -110.69 c 18.89 -74.29 59.15 -144.63 113.37 -198.08 a 431.66 431.66 0 0 1 50.51 -42.65 l 1.35 -1 Z" fill="#fff"/><path d="M 3038.12 839.88 l -1.64 .38 c -5.52 1.29 -11.05 2.46 -16.45 3.48 A 389 389 0 0 1 2964.88 980 h -4.45 l .51 -.79 a 385.68 385.68 0 0 0 55.67 -137.47 l .26 -1.25 l 1.24 -.23 c 5.65 -1 11.47 -2.26 17.32 -3.62 l 1.08 -.25 Z" fill="#fff"/><path d="M 2716 149.61 l -.9 .67 a 394.53 394.53 0 0 0 -40.93 35.13 A 387.52 387.52 0 0 0 2566 387.17 l -.26 1.26 l -1.24 .23 A 388.25 388.25 0 0 0 2323 538.27 l -1.49 2 l -1.5 -2 a 392.28 392.28 0 0 0 -37.94 -43.43 C 2227.2 440.65 2155 403.1 2078.66 389.09 l -1.23 -.22 l -.26 -1.25 A 388.23 388.23 0 0 0 1696 74 h -.36 A 395.39 395.39 0 0 0 1620 81.25 v -3.8 a 399.32 399.32 0 0 1 75.62 -7.21 h .36 a 392 392 0 0 1 384.62 315.41 c 76.56 14.32 149 52.14 204.1 106.53 a 395.61 395.61 0 0 1 36.82 41.87 A 392.32 392.32 0 0 1 2562.62 385.2 a 391.21 391.21 0 0 1 108.94 -202.44 A 395.59 395.59 0 0 1 2713 147.15 l 1.34 -1 Z" fill="#fff"/><path d="M 1439.3 170 l -1.2 1.06 c -5.37 4.73 -10.75 9.74 -16 14.87 A 387.33 387.33 0 0 0 1314 387.63 l -.26 1.26 l -1.25 .23 a 387.66 387.66 0 0 0 -302.19 270.76 l -1 3.45 l -2.37 -5.08 l .13 -.42 a 391.35 391.35 0 0 1 303.55 -272.16 a 391.24 391.24 0 0 1 108.93 -202.43 c 4.59 -4.54 9.35 -9 14.14 -13.27 Z" fill="#fff"/><path d="M 1723.49 980 h -4.65 c -3.58 -4.85 -7.06 -9.82 -10.36 -14.8 c -4.45 -6.72 -8.72 -13.67 -12.72 -20.69 A 356 356 0 0 1 1672.67 980 H 1668 l .64 -.86 a 353.69 353.69 0 0 0 25.45 -39.34 l 1.65 -3 l 1.62 3 c 4.44 8 9.21 15.81 14.2 23.33 c 3.67 5.54 7.46 10.92 11.25 16 Z" fill="#fff"/><path d="M 2730.47 180.63 l -.86 .67 a 362.24 362.24 0 0 0 -31.93 27.95 a 353.51 353.51 0 0 0 -102.41 207.22 l -.19 1.47 l -1.47 .15 a 356.49 356.49 0 0 0 -270.39 181.45 l -1.64 2.94 l -1.64 -2.94 a 355.85 355.85 0 0 0 -270.26 -181 l -1.45 -.19 l -.19 -1.44 a 354.83 354.83 0 0 0 -351.94 -309.5 h -.46 a 360.08 360.08 0 0 0 -75.65 8 V 111.6 a 364 364 0 0 1 75.65 -7.92 h .46 A 358.62 358.62 0 0 1 2051.56 415 a 359 359 0 0 1 270 179.8 a 359.54 359.54 0 0 1 270.17 -180.24 a 357.41 357.41 0 0 1 103.31 -208 a 363.2 363.2 0 0 1 32.44 -28.38 l 1.36 -1.05 Z" fill="#fff"/><path d="M 1493.66 170 l -1.65 1.15 a 360.32 360.32 0 0 0 -46.36 38.6 a 353.59 353.59 0 0 0 -102.42 207.21 l -.19 1.44 l -1.44 .19 A 357.66 357.66 0 0 0 1133 518.48 a 352 352 0 0 0 -99.84 190.14 l -.76 4.3 l -2.74 -5.94 l .06 -.36 a 354.2 354.2 0 0 1 100.65 -190.81 A 361.59 361.59 0 0 1 1339.7 415 a 357.58 357.58 0 0 1 103.33 -208 A 364.47 364.47 0 0 1 1487.17 170 Z" fill="#fff"/><path d="M 3023.68 808.93 l -1.69 .36 c -10.08 2.13 -20.52 3.86 -31 5.13 A 356.51 356.51 0 0 1 2924.37 980 h -4.65 l .64 -.86 a 352.84 352.84 0 0 0 67.09 -166.68 l .19 -1.47 l 1.47 -.15 c 10.66 -1.25 21.39 -3 31.89 -5.19 l 1.06 -.22 Z" fill="#fff"/><path d="M 2745 211.75 l -.82 .67 c -8 6.5 -15.71 13.44 -23 20.61 a 317.34 317.34 0 0 0 -94.89 214.47 l -.08 1.76 l -1.74 0 a 321.38 321.38 0 0 0 -301 239.6 l -.7 2.73 h -2.2 l -.71 -2.73 a 320.92 320.92 0 0 0 -301 -239.14 l -1.77 0 l 0 -1.78 c -3.25 -82.72 -38.23 -160 -98.48 -217.66 a 321.12 321.12 0 0 0 -222.93 -89.45 a 326.2 326.2 0 0 0 -75.66 8.85 v -3.83 a 329.12 329.12 0 0 1 75.66 -8.76 A 324.87 324.87 0 0 1 1921 227.43 c 60.61 57.9 96 135.53 99.72 218.65 a 324.78 324.78 0 0 1 300.91 235.2 a 325.2 325.2 0 0 1 301 -235.67 a 321.1 321.1 0 0 1 95.93 -215.24 c 7.46 -7.35 15.36 -14.42 23.46 -21 l 1.36 -1.11 Z" fill="#fff"/><path d="M 1559.16 170.85 l -.84 .39 a 320.92 320.92 0 0 0 -89.2 62.27 A 317.24 317.24 0 0 0 1374.24 448 l -.08 1.76 l -1.75 0 a 320.57 320.57 0 0 0 -310.88 307.4 l -.08 1.76 l -1.75 0 c -1.6 0 -3.2 .11 -4.8 .19 l -.71 0 l -2.09 -3.64 l 2.2 -.11 l 3.55 -.15 a 324.38 324.38 0 0 1 312.73 -309.2 a 321.09 321.09 0 0 1 95.92 -215.24 A 324.94 324.94 0 0 1 1552.29 170 H 1559 Z" fill="#fff"/><path d="M 1766.52 980 h -5 a 319.84 319.84 0 0 1 -65.89 -120.77 A 322.73 322.73 0 0 1 1629.91 980 h -5 l .83 -.94 a 318.49 318.49 0 0 0 68.09 -127.25 l 1.82 -6.71 l 1.79 6.71 A 320.35 320.35 0 0 0 1765.7 979.1 Z" fill="#fff"/><path d="M 3009.16 777.82 l -1.74 .32 a 322.68 322.68 0 0 1 -47.35 5.15 A 317.83 317.83 0 0 1 2881.52 980 h -5 l .83 -.94 a 315.75 315.75 0 0 0 79 -197.69 l .08 -1.72 l 1.71 -.08 a 319.41 319.41 0 0 0 48.28 -5.1 l 1 -.19 Z" fill="#fff"/><path d="M 2994.6 746.62 l -1.8 .28 a 290.85 290.85 0 0 1 -44.18 3.38 h -1 c -7.41 0 -14.21 .21 -20.21 .64 c -.33 5.41 -.49 11.5 -.49 18.11 c 0 77.89 -30.64 151 -86.27 205.88 c -1.75 1.74 -3.54 3.46 -5.33 5.13 h -5.5 l 1.14 -1 c 2.37 -2.17 4.74 -4.44 7.07 -6.73 c 54.91 -54.17 85.15 -126.34 85.15 -203.23 c 0 -7.39 .2 -14.11 .61 -20 l .11 -1.6 l 1.58 -.14 c 6.45 -.52 13.9 -.78 22.14 -.78 h 1 a 287.3 287.3 0 0 0 43.31 -3.28 l 1 -.16 Z" fill="#fff"/><path d="M 1813.48 980 H 1808 a 289.7 289.7 0 0 1 -66.69 -93.48 a 285.64 285.64 0 0 1 -25 -117.31 c 0 -6.51 -.16 -12.6 -.48 -18.11 c -6 -.43 -12.81 -.64 -20.22 -.64 s -14.11 .21 -20.21 .64 c -.33 5.41 -.49 11.5 -.49 18.11 a 286.14 286.14 0 0 1 -54.84 169.36 l -.12 .17 v -6.45 a 282.53 282.53 0 0 0 51.22 -163.08 c 0 -7.39 .2 -14.11 .61 -20 l .11 -1.62 l 1.62 -.12 c 6.54 -.51 14 -.77 22.1 -.77 s 15.69 .26 22.13 .78 l 1.6 .11 l .11 1.61 c .4 6 .6 12.72 .6 20 A 281.73 281.73 0 0 0 1745 885.53 a 285.83 285.83 0 0 0 67.4 93.46 Z" fill="#fff"/><path d="M 1093.55 793.27 c -7.82 -.62 -15.65 -.94 -23.26 -1 h -.87 l -1.75 -3.75 h 2.15 c 7.25 0 14.6 .29 21.87 .82 c -.46 -6.67 -.7 -13.41 -.7 -20 c 0 -77.91 30.65 -151 86.29 -205.87 A 291.13 291.13 0 0 1 1382 479.36 h 1 c 7.4 0 14.2 -.21 20.21 -.64 c .33 -5.54 .49 -11.63 .49 -18.12 c 0 -77.9 30.64 -151 86.28 -205.87 a 291.22 291.22 0 0 1 204.72 -84.1 h .95 c 161 0 292 130.09 292 290 c 0 6.61 .16 12.71 .49 18.12 c 6 .43 12.79 .64 20.21 .64 c 77.82 0 151 29.92 205.95 84.24 a 287.09 287.09 0 0 1 86 205.8 c 0 6.41 -.21 12.84 -.63 19.14 c 7.33 -.54 15 -.82 22.74 -.82 c 7.53 0 14.32 -.21 20.21 -.64 c .33 -5.38 .49 -11.47 .49 -18.11 c 0 -77.9 30.64 -151 86.28 -205.86 A 291.17 291.17 0 0 1 2634.05 479 h .95 c 7.3 0 14.1 -.21 20.21 -.64 c .33 -5.39 .49 -11.48 .49 -18.11 c 0 -77.88 30.64 -151 86.27 -205.87 c 4.72 -4.67 9.66 -9.23 14.69 -13.56 l 1.37 -1.18 l 1.64 3.53 l -.79 .68 c -4.86 4.19 -9.67 8.63 -14.29 13.18 c -54.91 54.17 -85.15 126.34 -85.15 203.22 c 0 7.4 -.2 14.12 -.61 20 l -.11 1.62 l -1.61 .11 c -6.56 .52 -14 .78 -22.11 .78 h -.95 a 287.52 287.52 0 0 0 -202.11 83 C 2377 620 2346.78 692.11 2346.78 769 c 0 7.4 -.2 14.12 -.61 20 l -.11 1.62 l -1.62 .11 c -6.41 .52 -13.85 .78 -22.1 .78 c -8.47 0 -16.74 .33 -24.59 1 l -2.2 .19 l .19 -2.2 c .5 -6.9 .75 -14 .75 -21 a 283.38 283.38 0 0 0 -84.89 -203.14 c -54.29 -53.63 -126.5 -83.16 -203.33 -83.16 c -8.25 0 -15.7 -.26 -22.12 -.78 l -1.6 -.15 l -.11 -1.58 c -.4 -5.88 -.61 -12.6 -.61 -20 c 0 -157.85 -129.29 -286.26 -288.22 -286.26 h -.95 a 287.57 287.57 0 0 0 -202.1 83 c -54.92 54.17 -85.16 126.34 -85.16 203.22 c 0 7.24 -.2 14 -.6 20 l -.12 1.63 l -1.61 .11 c -6.42 .52 -13.87 .78 -22.12 .78 h -1 a 287.57 287.57 0 0 0 -202.1 83 c -54.92 54.16 -85.17 126.33 -85.17 203.22 c 0 7.2 .28 14.58 .84 21.94 l .15 2.19 Z" fill="#fff"/><path d="M 1867.65 980 H 1861 c -69.67 -48.12 -111.21 -126.76 -111.21 -210.74 c 0 -27.1 -2.44 -40.59 -4.53 -47.16 c -7.13 -2.32 -21.49 -5 -49.63 -5 s -42.48 2.71 -49.64 5 c -3 9.37 -4.53 25.66 -4.53 47.16 a 252.28 252.28 0 0 1 -21.21 102.2 l -.26 .6 v -9.67 a 249 249 0 0 0 17.73 -93.13 c 0 -22.63 1.74 -39.66 5 -49.24 l .26 -.84 l .88 -.31 c 10.41 -3.62 28.31 -5.54 51.74 -5.54 c 29.63 0 44.49 3 51.73 5.54 l .85 .3 l .3 .85 c 3.28 9.54 5 26.56 5 49.24 c 0 84 42 162.34 112.37 209.56 Z" fill="#fff"/><path d="M 2782 980 a 258 258 0 0 0 35.22 -29.11 a 253.85 253.85 0 0 0 76.33 -182.07 c 0 -27.14 2.44 -40.6 4.52 -47.15 c 7.18 -2.32 21.57 -5 49.64 -5 h .78 a 259.89 259.89 0 0 0 29.41 -1.68 l 1.89 -.22 l -1.68 -3.57 l -1 .11 a 251.51 251.51 0 0 1 -28.63 1.62 h -.79 c -23.41 0 -41.3 1.92 -51.73 5.55 l -.85 .29 l -.3 .86 c -2.29 6.62 -5 20.53 -5 49.23 a 250.17 250.17 0 0 1 -75.21 179.41 a 255.19 255.19 0 0 1 -37.51 30.59 l -1.76 1.18 Z" fill="#fff"/><path d="M 1131.69 830 c 0 -.19 -.1 -.38 -.13 -.57 a 257.35 257.35 0 0 1 250.56 -316.67 h .83 c 28.1 0 42.48 -2.72 49.64 -5 c 2.08 -6.51 4.52 -19.94 4.52 -47.16 a 253.93 253.93 0 0 1 76.31 -182.06 A 258.05 258.05 0 0 1 1694.79 204 h .83 c 142.54 0 258.51 115.09 258.51 256.56 c 0 27.11 2.44 40.59 4.53 47.16 c 7.14 2.32 21.51 5 49.64 5 c 69 0 133.75 26.49 182.46 74.59 a 253.92 253.92 0 0 1 76.06 182 a 257.65 257.65 0 0 1 -6.83 59.17 a 261.65 261.65 0 0 1 62 -7.44 h .36 c 28.07 0 42.46 -2.72 49.64 -5 c 2.08 -6.55 4.52 -20 4.52 -47.16 a 253.81 253.81 0 0 1 76.31 -182.1 a 258 258 0 0 1 181.36 -74.5 h .83 c 22.28 0 39.43 -1.74 49.65 -5 c 2.08 -6.54 4.51 -20 4.51 -47.16 a 253.83 253.83 0 0 1 76.26 -182 c 2 -2 4 -3.89 5.91 -5.65 l 1.38 -1.27 l 1.65 3.55 l -.73 .68 c -1.89 1.75 -3.77 3.55 -5.59 5.35 a 250.16 250.16 0 0 0 -75.14 179.39 c 0 28.71 -2.73 42.63 -5 49.25 l -.29 .85 l -.86 .3 c -10.47 3.62 -28.36 5.54 -51.73 5.54 h -.83 a 254.19 254.19 0 0 0 -178.74 73.42 a 250.09 250.09 0 0 0 -75.19 179.44 c 0 28.7 -2.73 42.62 -5 49.25 l -.31 .89 l -.89 .27 c -10.39 3.61 -28.27 5.53 -51.68 5.53 H 2322 a 258.49 258.49 0 0 0 -64.06 8.06 l -3 .79 l .75 -3 a 253.32 253.32 0 0 0 7.45 -61.28 A 250.2 250.2 0 0 0 2188.14 590 c -48 -47.41 -111.89 -73.51 -179.84 -73.51 c -29.6 0 -44.47 -3 -51.73 -5.54 l -.85 -.3 l -.3 -.85 c -3.29 -9.53 -5 -26.56 -5 -49.25 c 0 -139.41 -114.29 -252.82 -254.77 -252.82 h -.84 A 254.31 254.31 0 0 0 1516 281.2 a 250.06 250.06 0 0 0 -75.19 179.39 c 0 28.78 -2.73 42.67 -5 49.25 l -.3 .85 l -.85 .3 c -10.41 3.62 -28.3 5.54 -51.74 5.54 h -.83 a 253.05 253.05 0 0 0 -246.66 313.14 l .09 .36 h -3.85 Z" fill="#fff"/><path d="M 1132.68 830 l 0 -.31 l -1.1 -.26 l -3.36 -.79 a 260 260 0 0 0 -42.48 -6.17 l -2.29 -.14 l 1.79 3.86 l .81 0 A 259.69 259.69 0 0 1 1116.4 830 h 16.28 Z" fill="#fff"/><path d="M 2964.73 682.64 l -2 .12 c -4.81 .31 -9.6 .47 -14.26 .47 h -.84 c -22.95 0 -41.38 1.73 -54.78 5.15 c -9.08 2.32 -15.48 5.28 -19 8.79 c -9.13 9 -13.76 33.14 -13.76 71.69 a 220.57 220.57 0 0 1 -66.34 158.25 A 225.69 225.69 0 0 1 2708 980 h -8.76 l -.16 -1.06 l .95 -.29 a 221.88 221.88 0 0 0 91 -54.24 a 216.85 216.85 0 0 0 65.22 -155.59 c 0 -39.59 5 -64.6 14.88 -74.35 c 4 -4 11 -7.27 20.73 -9.75 c 13.67 -3.5 32.42 -5.27 55.71 -5.27 h .86 c 4.44 0 9 -.14 13.62 -.43 l .93 0 Z" fill="#fff"/><path d="M 1943.08 979 l -.16 1 h -8.61 A 224.31 224.31 0 0 1 1827 901.32 a 219.94 219.94 0 0 1 -43.71 -132 c 0 -38.56 -4.62 -62.69 -13.75 -71.7 c -3.55 -3.5 -10 -6.46 -19 -8.79 c -13.42 -3.41 -31.85 -5.14 -54.79 -5.14 s -41.38 1.73 -54.79 5.14 c -9.09 2.33 -15.49 5.29 -19 8.79 c -9.12 9 -13.75 33.15 -13.75 71.7 a 220.09 220.09 0 0 1 -8.38 60.71 h -3.89 l .12 -.41 a 216.54 216.54 0 0 0 8.41 -60.3 c 0 -39.59 5 -64.61 14.87 -74.35 c 4 -4 11 -7.26 20.73 -9.76 c 13.69 -3.49 32.43 -5.26 55.72 -5.26 s 42 1.77 55.71 5.26 c 9.74 2.49 16.72 5.77 20.74 9.76 c 9.87 9.74 14.87 34.75 14.87 74.35 a 216.09 216.09 0 0 0 43.88 131 a 223.5 223.5 0 0 0 111.24 78.38 Z" fill="#fff"/><path d="M 2147.13 943.4 l -2.71 3.61 A 218.27 218.27 0 0 0 2124 980 h -4.17 l .32 -.65 A 220.72 220.72 0 0 1 2135 953.87 A 224.56 224.56 0 0 1 2082.68 980 h -8 l -2 -.67 l 2.17 -.68 a 220.5 220.5 0 0 0 67 -34.29 l 3.61 -2.72 Z" fill="#fff"/><path d="M 2789.31 306.73 l -.67 .68 a 216.87 216.87 0 0 0 -62.33 152.69 c 0 39.59 -5 64.61 -14.87 74.35 c -4 4 -11 7.27 -20.74 9.75 c -13.68 3.5 -32.42 5.27 -55.71 5.27 h -.68 a 221.12 221.12 0 0 0 -155.39 63.81 a 217 217 0 0 0 -65.22 155.58 c 0 39.61 -5 64.63 -14.88 74.36 c -4 4 -11 7.25 -20.73 9.74 c -13.68 3.5 -32.42 5.27 -55.71 5.27 h -.74 a 222.56 222.56 0 0 0 -132.82 44.31 l -3.57 2.69 l -1.72 -1.71 l 2.67 -3.59 a 218.47 218.47 0 0 0 -21.59 -286.09 C 2122.9 572.66 2067.38 550 2008.27 550 c -23.26 0 -42 -1.78 -55.71 -5.28 c -9.72 -2.47 -16.7 -5.75 -20.74 -9.74 c -9.87 -9.74 -14.87 -34.76 -14.87 -74.36 c 0 -121 -99.29 -219.38 -221.34 -219.38 h -.76 A 221 221 0 0 0 1539.5 305 a 216.91 216.91 0 0 0 -65.23 155.58 c 0 39.6 -5 64.62 -14.87 74.36 c -4 4 -11 7.26 -20.73 9.74 C 1425 548.21 1406.21 550 1383 550 h -.76 a 219.88 219.88 0 0 0 -212.08 279.63 l .12 .41 h -3.88 A 223.31 223.31 0 0 1 1296.81 563.1 a 223.75 223.75 0 0 1 85.39 -16.85 h .76 c 23 0 41.39 -1.73 54.78 -5.16 c 9.08 -2.31 15.49 -5.27 19 -8.77 c 9.12 -9 13.75 -33.14 13.75 -71.71 a 220.63 220.63 0 0 1 66.35 -158.24 a 224.77 224.77 0 0 1 158 -64.88 h .76 c 124.11 0 225.08 100.09 225.08 223.12 c 0 38.56 4.63 62.69 13.76 71.71 c 3.55 3.51 10 6.46 19 8.77 c 13.39 3.43 31.82 5.16 54.78 5.16 c 60.1 0 116.55 23.06 159 64.94 a 222.17 222.17 0 0 1 28.38 281.92 a 223.66 223.66 0 0 1 126 -38.62 h .75 c 23 0 41.42 -1.73 54.78 -5.15 c 9.08 -2.31 15.49 -5.26 19 -8.77 c 9.13 -9 13.76 -33.15 13.76 -71.71 a 220.57 220.57 0 0 1 66.34 -158.24 a 224.81 224.81 0 0 1 158 -64.89 h .68 c 23 0 41.42 -1.73 54.78 -5.15 c 9.08 -2.32 15.49 -5.28 19 -8.78 c 9.13 -9 13.76 -33.13 13.76 -71.7 a 220.67 220.67 0 0 1 63.68 -155.58 l 1.38 -1.4 Z" fill="#fff"/><path d="M 2200 769.34 A 190.64 190.64 0 0 1 2013 959 l -.64 .06 h -4.08 c -105.65 0 -191.6 -85.1 -191.6 -189.69 c 0 -49.86 -7.31 -79.31 -23.69 -95.49 s -47.22 -23.58 -97.33 -23.58 s -81 7.49 -97.32 23.58 s -23.7 45.64 -23.7 95.49 a 186.66 186.66 0 0 1 -10 60.69 h -4 l .17 -.48 a 183 183 0 0 0 10 -60.21 c 0 -50.93 7.65 -81.2 24.81 -98.14 s 48.8 -24.67 100 -24.67 s 82.91 7.84 100 24.67 s 24.81 47.21 24.81 98.14 a 183.82 183.82 0 0 0 54.16 130.51 a 187.62 187.62 0 0 0 130.91 55.42 H 2009 a 185.74 185.74 0 0 0 132.2 -317.73 c -35.41 -35 -82.59 -54.21 -132.84 -54.21 c -51.16 0 -82.92 -7.84 -99.95 -24.67 s -24.81 -47.2 -24.81 -98.15 c 0 -102.5 -84.28 -185.89 -187.87 -185.89 H 1695 a 186.67 186.67 0 0 0 -132 54.18 a 184.71 184.71 0 0 0 -55.25 131.76 c 0 50.92 -7.66 81.19 -24.82 98.15 s -48.81 24.67 -100 24.67 h -.68 a 186.83 186.83 0 0 0 -187.22 186 a 183.42 183.42 0 0 0 10.1 60.21 l .17 .48 h -4 a 188.35 188.35 0 0 1 46.32 -195.12 a 190.41 190.41 0 0 1 134.58 -55.26 h .68 c 50.11 0 81 -7.49 97.32 -23.58 s 23.71 -45.65 23.71 -95.5 a 188.43 188.43 0 0 1 56.37 -134.42 a 190.41 190.41 0 0 1 134.58 -55.26 h .68 c 105.65 0 191.6 85.07 191.6 189.63 c 0 49.85 7.31 79.31 23.69 95.5 s 47.21 23.58 97.33 23.58 c 51.24 0 99.35 19.64 135.46 55.3 A 189.87 189.87 0 0 1 2200 769.34 Z" fill="#fff"/><path d="M 2804.57 339.41 l -.57 .67 a 183.77 183.77 0 0 0 -44.26 120 c 0 50.94 -7.65 81.21 -24.81 98.15 s -48.8 24.67 -99.94 24.67 h -.65 A 186.59 186.59 0 0 0 2502.4 637.1 a 184.72 184.72 0 0 0 -55.26 131.76 c 0 50.95 -7.65 81.22 -24.81 98.15 s -48.81 24.67 -99.95 24.67 h -.61 a 186.62 186.62 0 0 0 -132 54.24 A 183.71 183.71 0 0 0 2162.36 980 H 2158 l .46 -.76 a 187.79 187.79 0 0 1 28.73 -36 a 190.3 190.3 0 0 1 134.61 -55.32 h .61 c 50.09 0 81 -7.49 97.33 -23.58 s 23.69 -45.63 23.69 -95.5 a 188.42 188.42 0 0 1 56.38 -134.42 a 190.35 190.35 0 0 1 134.57 -55.26 h .64 c 50.1 0 81 -7.49 97.32 -23.58 S 2756 510 2756 460.1 a 187.44 187.44 0 0 1 45.46 -122.79 l 1.39 -1.61 Z" fill="#fff"/><path d="M 2949.42 649.8 h -2.15 c -49.92 0 -80.74 7.52 -97 23.58 s -23.69 45.64 -23.69 95.48 a 190.58 190.58 0 0 1 -190.94 189.69 H 2635 c -47.94 0 -78.23 6.83 -95.06 21.49 h -5.48 l 1.07 -1 c 17.16 -16.51 48.77 -24.2 99.47 -24.2 h .65 a 186.63 186.63 0 0 0 131.94 -54.18 a 184.7 184.7 0 0 0 55.26 -131.77 c 0 -50.92 7.65 -81.19 24.81 -98.14 c 16.95 -16.74 48.46 -24.58 99.15 -24.66 h .87 Z" fill="#fff"/></g></g></g></svg>