<svg xmlns="http://www.w3.org/2000/svg" xmlns:xlink="http://www.w3.org/1999/xlink" viewBox="0 0 3700.08 1000.08"><defs><radialGradient id="A" cx="34409.88" cy="-104900.06" r="26083.98" gradientTransform="matrix(0.07, 0, 0, -0.07, -579.82, -6907.42)" gradientUnits="userSpaceOnUse"><stop offset=".06" stop-color="#4a90e2"/><stop offset=".17" stop-color="#5697e4"/><stop offset=".37" stop-color="#76abe9"/><stop offset=".63" stop-color="#aacbf1"/><stop offset=".94" stop-color="#f1f6fd"/><stop offset="1" stop-color="#fff"/></radialGradient><linearGradient id="B" x1="590.15" y1="247.1" x2="90.15" y2="747.1" gradientUnits="userSpaceOnUse"><stop offset="0" stop-color="#2020b5"/><stop offset="1" stop-color="#2677ff"/></linearGradient><linearGradient id="C" x1="3628.15" y1="248.35" x2="3128.15" y2="748.35" xlink:href="#B"/><linearGradient id="D" x1="3943.883" y1="921.72" x2="2896.01" y2="922.605" xlink:href="#B"/><linearGradient id="E" x1="2914.725" y1="43.847" x2="2751.935" y2="112.989" xlink:href="#B"/><path id="F" d="M242.86 772.62h4V791h-4v-7.7h-8.45v7.7h-4v-18.38h4V780h8.45z"/></defs><g fill-rule="evenodd"><path d="M1600 .1h2100.08v1000.07H1600v-150H0v-700h1600V.1z" fill="url(#A)"/><path d="M1964.2 0l.2 39.9L1965.7 0h12.1l-.87 40.23L1979.3 0h12.1l-2 40.9 3.54-40.9h12.1l-3.18 41.92L2006.63 0h12.12l-4.46 43.26L2020.4 0h12.15l-5.86 44.94L2034.26 0h12.16L2039 47l9.23-47h12.22l-9.15 49.3L2062.38 0h12.24l-11.1 52 13.16-52H2089l-13.3 55 15.5-55h12.32l-15.8 58.33L2105.85 0h12.4l-18.58 62 21.14-62h12.43l-21.73 66L2136 0h12.5l-25.27 70.24L2151.52 0h12.58l-29.23 74.85L2167.38 0H2180l-33.66 79.77L2183.6 0h12.72l-38.6 85 42.5-85H2213l-44.08 90.53L2217.3 0h12.9L2180 96.36 2234.86 0h13l-56.95 102.5L2253 0h13l-64.4 108.9L2271.67 0h13.16l-72.66 115.63L2291 0h13.27l-81.75 122.63L2311.1 0h13.35l-91.74 129.9L2331.93 0h13.48l-102.73 137.42L2353.66 0h13.57l-114.8 145.22L2376.34 0H2390l-128 153.3L2400.1 0h13.8l-142.56 161.62L2425 0h13.9l-158.45 170.18L2451.26 0h14l-175.94 179 189.6-179H2493l-195.06 188 210.3-188h14.15l-216.05 197.3 233-197.3h14.23l-239.1 206.82L2572.48 0h14.25l-264.4 216.53L2607.92 0h14.28l-292.27 226.46L2646 0h14.25l-323 236.58L2687 0h14.2l-356.87 246.9L2731.38 0h14.07L2351.1 257.4 2779.7 0h13.86l-436 268.1L2832.54 0h13.55L2363.8 278.94 2890.7 0h13.1l-534.08 290L2955.05 0h12.47l-592.2 301.15L3026.82 0h11.6l-657.8 312.47L3107.44 0h10.4l-732.22 323.93L3198.88 0h8.76L2390.3 335.53 3303.57 0h6.48L2394.7 347.22 3424.8 0h3.36L2398.74 359.05 3538.57 8.78 2402.48 371 3551.34 51.58 2405.9 383 3563 94.7 2409 395.13l1164.42-257-1161.7 269.2 1170.92-225.52-1168.5 237.78 1176.57-193.86-1174.47 206.18 1181.36-162.07L2418 444.3l1185.33-130.16-1183.88 142.6 1188.4-98.16-1187.3 110.6 1190.6-66.07-1189.86 78.55 1192-33.94-1191.56 46.44 1192.43-1.78-1192.36 14.3 1192 30.36-1192.3-17.86 1190.8 62.5L2421 531.64l1188.7 94.6-1189.7-82.1 1185.7 126.6-1187-114.16L3600.63 715.1 2417.18 569l1177.14 190.3-1179.08-178 1171.6 222L2413 593.6l1165.15 253.52-1167.77-241.28 1157.9 284.84L2407.47 618 3557.3 934 2404.2 630.05l1140.9 346.88L2400.64 642l1072.8 358h-2.1L2396.75 653.93l951 346.15h-5.7L2392.53 665.7l846.9 334.38h-8.27L2388 677.35l757 322.73h-10.14l-751.67-311.2 678.6 311.2h-11.48L2378 700.28l609.8 299.8h-12.46l-602.8-288.56 549 288.56h-13.16l-541.6-277.46 495 277.46h-13.67l-487.4-266.5 446.8 266.5h-14L2354.4 744.32l403.6 255.76h-14.24l-396-245.16 364.74 245.16h-14.37l-357.3-234.75 329.68 234.75h-14.45l-322.42-224.52 298 224.52h-14.48l-291-214.5 269.25 214.5h-14.47l-262.5-204.67 243.16 204.67h-14.42L2310.4 805l219.46 195.07h-14.35L2302.15 814.4l197.85 185.7h-14.27l-192.07-176.52 178.23 176.52h-14.2l-172.8-167.6 160.33 167.6h-14.08l-155.24-158.9 144 158.9h-14L2266.7 849.64l129.14 150.44H2382l-124.74-142.25 115.6 142.25h-13.76l-111.5-134.32 103.26 134.32h-13.64l-99.5-126.64 92 126.64h-13.53l-88.58-119.24 81.84 119.24h-13.42L2217.38 888l72.62 112.08h-13.32L2206.9 894.8l64.2 105.27h-13.2l-61.6-98.7 56.58 98.7h-13.1l-54.28-92.43 49.73 92.43h-13l-47.7-86.43 43.55 86.43h-12.94l-41.74-80.75 38 80.75h-12.84L2152 924.7l33 75.37h-12.76l-31.67-70.3 28.55 70.3h-12.68l-27.42-65.53 24.58 65.53H2141L2117.38 939l21 61.08h-12.54l-20.3-57 17.92 57H2111L2093.67 947l15.16 53.13h-12.44l-14.73-49.63 12.72 49.63H2082l-12.43-46.46 10.58 46.46h-12.33l-10.43-43.64 8.7 43.64h-12.3l-8.66-41.13 7.06 41.12H2040l-7.1-39 5.6 39h-12.24l-5.8-37.12 4.32 37.08h-12.2l-4.53-35.58 3.18 35.58h-12.18l-3.44-34.4 2.14 34.4h-12.18l-2.44-33.55 1.18 33.55h-12.17l-1.5-33 .27 33h-12.15l-.6-32.88-.62 32.88h-12.15l.27-33-1.5 33H1932l1.18-33.55-2.44 33.55h-12.17l2.14-34.4-3.44 34.4h-12.18l3.17-35.58-4.52 35.58h-12.2l4.32-37.08-5.74 37.08h-12.24l5.6-39-7.1 39h-12.27l7.06-41.12-8.65 41.12h-12.3l8.7-43.64-10.42 43.64h-12.33l10.58-46.46-12.43 46.46h-12.4l12.73-49.63-14.73 49.63h-12.44l15.13-53.08-17.34 53.13h-12.5l17.92-57-20.3 57h-12.54l21-61.08-23.64 61.08h-12.62l24.58-65.53-27.42 65.53h-12.7l28.55-70.3-31.66 70.3h-12.77l33-75.37-36.42 75.37H1715l38-80.75-41.74 80.75h-12.94l43.54-86.43-47.68 86.43h-13l49.73-92.43-54.28 92.43h-13.1l56.58-98.7-61.6 98.7h-13.2l64.18-105.27-69.72 105.27h-13.32l72.5-112.13-78.68 112.1h-13.42l81.84-119.24L1600 1000.1v-18.5l78.58-108.14-78.58 100v-18.32l68.7-89.4-68.7 82.77v-18l59-72.66-59 67.34v-17.78l49.6-57.8-49.6 53.6v-17.5l40.4-44.56-40.4 41.34v-17.2l31.4-32.82-31.4 30.45v-12.88h-4.12l26.76-26.5-28.85 26.5h-17.65l38-35.67-41 35.67h-18l50.68-45-54.68 45H1533l64.94-54.65-70.1 54.65h-18.58l80.94-64.48-87.47 64.48h-18.93l98.87-74.5-107 74.5h-19.2l119-84.73-129 84.73H1427l141.56-95.14-153.7 95.14h-19.82l166.87-105.74-181.57 105.74h-20.07l195.3-116.5-213 116.5h-20.38l227.36-127.44-248.8 127.44h-20.58l263.6-138.54-289.42 138.54h-20.7l304.66-149.8-335.88 149.8h-20.74l351.48-161.18-389.32 161.18h-20.64l405.1-172.72-451.23 172.72h-20.24l467-184.37-523.6 184.37H980.7l538.86-196.14-608.88 196.14h-18.3l623.3-208-710.9 208h-16.3l723.63-220-834.74 220h-13L1508.84 618 520.92 850.06h-7.8l992.8-244.22L338.16 847.12 1503.33 593.6 329.48 803.3l1171.6-222L322 759.3l1177.13-190.35L315.68 715.1l1181.86-158.54-1187 114.16 1185.7-126.6-1189.57 82.12 1188.68-94.6L304 581.66l1190.8-62.5L302.46 537l1192.05-30.35-1192.36-14.28 1192.43 1.77L303.05 447.7l1192 33.95-1189.9-78.55 1190.6 66.07-1187.3-110.6 1188.4 98.16L313 314.13 1498.3 444.3 318.68 269.85 1500.05 431.9 325.58 225.73 1502.15 419.6 333.66 181.8l1170.9 225.53L394.3 150h2.57l1110.5 245.13L565.84 150h9.5l935.07 233-805.24-233H719l794.8 221-693.05-221h16.6l680.23 209-599.33-209h18.3l585.07 197.2-519.9-197.2h19.34L1526 335.52 1074.1 150h20l436.64 173.92L1137.56 150h20.25l377.88 162.46-342-162.46h20.3l327 151.14L1243.8 150h20.28l282.52 140-257.78-140h20.2l243.5 128.94L1329.58 150h19.94l209.2 118.08L1366.7 150h19.7l178.82 107.4L1400.67 150h19.43l151.9 96.9-140-96.9h19.14l128 86.57L1460.87 150h18.83l106.68 76.45-98.66-76.45h18.54l87.74 66.53-81.24-66.53H1531l70.87 56.8-65.7-56.8h17.95l55.86 47.3-51.8-47.3h17.66l42.53 38-39.45-38h17.38l30.7 29-28.48-29h1.48v-15.55l35.87 35.73-35.87-38.5v-17.34l45 47.3-45-51V93l54.3 60.27-54.3-65v-17.9l63.87 74.85-63.87-80.8V46.26l73.63 91.16L1600 38.94V20.46l83.6 109.43L1600 11.53V0h5.2l88.55 122.63L1612 0h13.27l78.85 115.63L1631.48 0h13.16l70 108.9L1650.27 0h13.07l62.08 102.5L1668.48 0h13l54.86 96.36L1686.12 0H1699l48.36 90.53L1703.28 0h12.8l42.5 85L1720 0h12.7l37.23 79.77L1736.28 0h12.65l32.5 74.85L1752.2 0h12.57l28.28 70.24L1767.8 0h12.5l24.5 66-21.74-66h12.43l21.15 62-18.6-62h12.4l18.16 58.33L1812.82 0h12.33l15.5 55-13.3-55h12.28l13.16 52-11.1-52h12.23L1865 49.3 1855.84 0h12.23l9.22 47-7.4-47h12.17l7.58 44.94L1883.77 0h12.14l6.1 43.26L1897.56 0h12.1l4.76 41.92L1911.25 0h12.1l3.53 40.9-2-40.9h12.1l2.4 40.23L1938.5 0h12.1l1.3 39.9.2-39.9h12.12z" fill="#fff"/></g><path d="M2511 859.12c5.14 38.2-21.88 73.9-60 79.4l-24.5 3.5c-31.3 4.5-63.4 28.87-79.34 58.07H1600v-150h-221.8a70.65 70.65 0 0 1-10.52-57.72l6.12-24c9.56-37.33-7.7-87-38.33-110.4l-19.67-15c-30.64-23.35-36.8-67.74-13.7-98.58l14.84-19.8c23.1-30.83 26.17-83.34 6.8-116.66l-12.43-21.4c-19.35-33.34-8.06-76.67 25.08-96.34l21.28-12.6c33.15-19.65 56.07-67 50.93-105.2l-3-22.4H1600V0h790.72a70.88 70.88 0 0 1 2.4 10.69l3.5 24.5c5.48 38.15 40.43 77.43 77.67 87.32l23.9 6.33c37.25 9.88 59.92 48.5 50.37 85.85l-6.1 24c-9.55 37.35 7.7 87 38.33 110.4l19.67 15c30.63 23.38 36.8 67.73 13.7 98.6l-14.84 19.78c-23.1 30.86-26.15 83.36-6.8 116.67l12.5 21.37c19.36 33.3 8.08 76.66-25.07 96.3l-21.27 12.63c-33.16 19.66-56.08 67-50.94 105.17l3.3 24.53z" fill="#4a90e2"/><path d="M2335.9 1000.08c16.5-34 53.2-62.8 89.15-68l24.5-3.52a60.86 60.86 0 0 0 51.52-68.14l-3.3-24.54c-5.62-41.9 19.4-93.55 55.77-115.1l21.26-12.6a60.87 60.87 0 0 0 21.53-82.69l-12.43-21.4c-21.23-36.57-17.9-93.84 7.46-127.7l14.84-19.8a60.89 60.89 0 0 0-11.76-84.59l-19.66-15c-33.6-25.64-52.44-79.84-42-120.8l6.12-24a60.88 60.88 0 0 0-43.25-73.69l-23.9-6.33c-40.87-10.86-79-53.72-85-95.57l-3.52-24.5A59.37 59.37 0 0 0 2380.17 0h21a78.46 78.46 0 0 1 1.9 9.27l3.5 24.48c4.9 34.05 37.1 70.25 70.34 79.06l23.9 6.34a81 81 0 0 1 57.5 98l-6.1 24c-8.53 33.32 7.37 79.1 34.7 99.95l19.67 15a81 81 0 0 1 15.64 112.56l-14.85 19.8c-20.6 27.53-23.43 75.9-6.17 105.63l12.44 21.4A80.92 80.92 0 0 1 2585 725.4l-21.3 12.6c-29.56 17.55-50.7 61.15-46.1 95.24l3.3 24.53a81 81 0 0 1-68.53 90.63l-24.5 3.5c-26.3 3.77-53.9 23.87-69.14 48.15h-22.83zM1415.74 150l2.83 21.06c5.63 41.92-19.38 93.55-55.74 115.13l-21.3 12.6a60.88 60.88 0 0 0-21.53 82.72l12.42 21.37c21.22 36.57 17.9 93.85-7.47 127.7l-14.82 19.8A60.85 60.85 0 0 0 1321.9 635l19.67 15c33.6 25.65 52.44 79.85 42 120.82l-6.12 24a60.71 60.71 0 0 0 13.42 55.25h-24.48a80.48 80.48 0 0 1-8.34-60.22l6.12-24c8.5-33.3-7.37-79.1-34.72-100l-19.67-15a81 81 0 0 1-15.63-112.55l14.83-19.8c20.62-27.52 23.44-75.88 6.18-105.63l-12.43-21.38a81 81 0 0 1 28.62-110l21.26-12.5c29.57-17.54 50.7-61.14 46.12-95.23l-3.2-23.77z" fill="#fff8eb"/><path d="M1855.93 0A513.12 513.12 0 0 0 1600 135.58V94.86A544.62 544.62 0 0 1 1753.21 0zm-270.18 150c-87.5 92.16-141.3 216.66-141.3 353.5 0 133.43 51.14 255.14 134.84 346.56h-39.68a542.6 542.6 0 0 1 5.88-700zM1600 871.42a513.85 513.85 0 0 0 226.37 128.66h-89.46A545.3 545.3 0 0 1 1600 912.16v-40.74zm489.9 128.66c219.62-58.33 381.94-258.84 381.94-496.58 0-248.27-177-456-411.46-503.5h102.72c198.46 81.1 338.67 276.2 338.67 503.5 0 221-132.6 411.67-322.4 496.58zm-486.65-479.82l.48 8.36 30-2.08q-.3-3.82-.46-7.68zm1.16 16.74l.87 8.34 29.86-3.5-.8-7.64zm1.95 16.66l1.27 8.3 29.66-4.9q-.6-3.78-1.2-7.6l-29.74 4.2zm2.74 16.55q.8 4.13 1.66 8.23l29.4-6.3-1.53-7.52zm3.54 16.4l2 8.14 29-7.7q-1-3.7-1.87-7.44zm4.28 16.23l2.43 8 28.67-9.08-2.23-7.36-28.87 8.4zm5.08 16l2.82 7.93 28.2-10.43-2.6-7.26-28.4 9.78zm5.85 15.78l3.2 7.78 27.64-11.75-2.93-7.12-27.92 11.1zm6.58 15.5l3.56 7.62 27.06-13-3.25-7-27.37 12.4zm7.3 15.16l3.93 7.43 26.42-14.33-3.6-6.8-26.75 13.7zm8 14.77l4.26 7.24 25.72-15.56-3.93-6.63zm8.7 14.37l4.6 7 25-16.76-4.23-6.43-25.34 16.16zm9.38 13.93l4.92 6.82 24.13-17.92-4.5-6.23zm10 13.5l5.23 6.56 23.24-19-4.78-6-23.7 18.47zm10.63 13l5.53 6.3 22.34-20.1-5.08-5.8-22.8 19.6zm11.22 12.46l5.83 6 21.37-21.14-5.34-5.5-21.86 20.6zm11.8 11.95l6.1 5.73 20.36-22.1-5.6-5.26-20.87 21.64zm12.34 11.34l6.35 5.46 19.3-23-5.83-5-19.83 22.58zm12.84 10.76l6.62 5.15 18.2-23.92-6-4.7zm13.37 10.18l6.85 4.82 17-24.75-6.25-4.42-17.6 24.35zm13.8 9.5l7 4.5 15.9-25.52-6.44-4.12-16.47 25.1zm14.22 8.83q3.63 2.13 7.26 4.16l14.64-26.23-6.65-3.8-15.26 25.88zm14.6 8.16l7.45 3.8 13.4-26.9-6.82-3.5zm15 7.45q3.78 1.77 7.62 3.45l12.1-27.5-7-3.17-12.73 27.22zm15.3 6.74q3.88 1.6 7.8 3.1l10.78-28.06-7.13-2.82zm15.68 6l7.92 2.72 9.44-28.53-7.26-2.5zm15.93 5.26l8 2.35 8.08-29-7.38-2.15zm16.16 4.5l8.15 2 6.68-29.3q-3.74-.84-7.47-1.8L1870.7 848zm16.36 3.74l8.25 1.58 5.28-29.6-7.54-1.43-6 29.44zm16.52 2.95l8.3 1.17 3.9-29.8-7.6-1.08zm16.63 2.17l8.34.8 2.47-30-7.63-.72-3.18 29.9zm16.7 1.37l8.37.4 1.06-30-7.67-.36zm16.76.6h8.35l-.3-30h-7.68l-.37 30zm16.76-.17l8.37-.38-1.7-30-7.7.34 1 30zm16.73-1l8.36-.78-3.14-29.84-7.65.7 2.42 29.95zm16.68-1.75l8.3-1.16-4.54-29.7-7.6 1 3.83 29.8zm16.58-2.53l8.25-1.55-5.93-29.47-7.54 1.44 5.22 29.58zm16.46-3.32l8.16-1.93-7.32-29.1-7.5 1.8 6.64 29.3zm16.28-4.08l8.05-2.33-8.7-28.76-7.36 2.14zm16.08-4.87l8-2.73-10.07-28.32-7.3 2.5 9.37 28.54zm15.9-5.64l7.8-3.1-11.42-27.8-7.15 2.84 10.75 28.06zm15.55-6.38l7.66-3.47-12.7-27.23-7 3.17 12.06 27.53zm15.25-7.1l7.5-3.85-14-26.58-6.87 3.5 13.36 26.98zm14.88-7.85l7.3-4.18-15.23-25.88-6.7 3.82zm14.47-8.52l7.1-4.52-16.45-25.05-6.48 4.14 15.83 25.53zm14.07-9.18l6.84-4.84-17.6-24.35-6.28 4.42zm13.58-9.86l6.63-5.13-18.73-23.52-6.08 4.73zm13.13-10.46q3.2-2.7 6.38-5.46l-19.82-22.6-5.84 5zm12.63-11.1q3.1-2.84 6.1-5.74l-20.86-21.63-5.6 5.27 20.35 22.1zm12.06-11.62q3-3 5.83-6l-21.84-20.63-5.33 5.52 21.34 21.14zm11.52-12.2l5.52-6.3-22.8-19.52-5.06 5.77zm10.92-12.72l5.22-6.52-23.68-18.5-4.78 6 23.25 19zm10.3-13.2l4.92-6.78-24.53-17.36-4.5 6.2 24.1 17.93zm9.67-13.68l4.6-7-25.32-16.17-4.2 6.4zm9-14.1l4.26-7.22-26.06-15-3.9 6.58 25.7 15.6zm8.35-14.5l3.9-7.42-26.73-13.7-3.58 6.77 26.4 14.36zm7.63-14.9l3.58-7.57-27.37-12.44-3.26 6.92 27.05 13.1zm6.92-15.22l3.2-7.74-27.9-11.08q-1.4 3.57-2.9 7.06zm6.22-15.57l2.85-7.9-28.42-9.8-2.6 7.23 28.16 10.46zm5.48-15.86l2.43-8-28.8-8.4-2.26 7.35zm4.7-16.1l2.06-8.13-29.22-7.07-1.87 7.45zm3.93-16.3l1.68-8.23-29.52-5.67q-.7 3.8-1.53 7.53zm3.15-16.5l1.3-8.3-29.73-4.2-1.18 7.58 29.63 5zm2.37-16.6l.9-8.34-29.9-2.84-.83 7.62 29.83 3.56zm1.6-16.7l.5-8.36-30-1.45-.44 7.66zm.8-16.76l.1-8.37-30-.05-.12 7.7 30.05.73zm0-16.75l-.3-8.38-30 1.35.27 7.67 30-.64zm-.76-16.76l-.65-8.35-29.93 2.8.6 7.66 30-2zm-1.5-16.7l-1.08-8.33-29.76 4.16q.53 3.8 1 7.62l29.85-3.45zm-2.34-16.6q-.7-4.17-1.45-8.28l-29.5 5.68 1.33 7.56zm-3.1-16.5l-1.84-8.2-29.25 7 1.7 7.5 29.4-6.27zm-3.88-16.32l-2.24-8.1-28.86 8.35 2 7.4zm-4.67-16.13q-1.26-4-2.62-8l-28.45 9.7 2.4 7.33 28.65-9zm-5.43-15.94q-1.47-3.94-3-7.87l-28 11.07 2.77 7.18 28.2-10.37zm-6.2-15.65l-3.38-7.72-27.4 12.4q1.6 3.48 3.1 7l27.68-11.7zm-6.94-15.33l-3.72-7.55-26.76 13.66q1.74 3.44 3.4 6.9l27.07-13zm-7.65-15q-2-3.72-4-7.36l-26.1 14.9 3.73 6.72 26.42-14.27zm-8.32-14.6l-4.4-7.15-25.36 16.13 4.06 6.54 25.7-15.52zm-9-14.2l-4.74-6.93-24.57 17.3 4.36 6.34 25-16.72zm-9.66-13.72l-5.08-6.7-23.7 18.47 4.66 6.13zM2233.6 279l-5.38-6.44-22.84 19.55 4.94 5.88 23.28-19zm-10.9-12.76q-2.8-3.1-5.67-6.17l-21.9 20.58 5.2 5.66 22.36-20.07zm-11.5-12.22l-5.93-5.9-20.92 21.6 5.46 5.4 21.4-21.1zm-12-11.65l-6.22-5.63-19.88 22.57q2.9 2.52 5.7 5.13zm-12.6-11.08l-6.47-5.33-18.8 23.48 5.94 4.85 19.34-23zm-13.1-10.5l-6.7-5-17.68 24.32 6.16 4.58zM2160 211l-6.95-4.7-16.5 25.1 6.37 4.3 17.02-24.7zm-14-9.2l-7.13-4.35-15.3 25.87 6.56 4L2146 201.8zm-14.4-8.52l-7.34-4-14.07 26.55 6.73 3.67 14.68-26.2zm-14.8-7.84l-7.5-3.66-12.86 27.2 6.88 3.36 13.44-26.9zm-15.15-7.12l-7.67-3.3-11.5 27.77 7.05 3 12.13-27.48zm-15.46-6.4l-7.88-2.92-10.14 28.27 7.2 2.67zm-15.8-5.7l-8-2.54-8.8 28.72 7.3 2.35zm-16.05-4.9l-8.1-2.18-7.4 29.12 7.4 2zm-16.36-4.15l-8.2-1.77-6 29.44 7.5 1.62 6.72-29.3zm-16.45-3.37l-8.25-1.4-4.64 29.68 7.57 1.3 5.32-29.58zm-16.55-2.58l-8.33-1-3.2 29.87 7.62.93 3.92-29.8zm-16.67-1.8l-8.37-.6-1.8 30 7.65.55 2.52-29.93zm-16.73-1l-8.36-.2-.44 30.05 7.67.2zm-16.76-.22l-8.37.17 1 30q3.8-.13 7.68-.17zm-16.77.53l-8.36.57 2.38 29.95 7.65-.5zm-16.7 1.26l-8.33 1 3.78 29.8 7.62-.86zm-16.63 2.1l-8.3 1.35 5.2 29.6 7.57-1.24-4.46-29.72zm-16.54 2.9l-8.2 1.74 6.6 29.33 7.5-1.6-5.9-29.47zm-16.36 3.67q-4.06 1-8.14 2.14l8 29 7.4-1.94-7.27-29.17zm-16.2 4.46q-4 1.22-8 2.53l9.32 28.55 7.37-2.3zm-16 5.23l-7.93 2.92 10.7 28.08 7.24-2.66zm-15.74 6l-7.76 3.26 12 27.56 7.1-3-11.36-27.8zm-15.43 6.73l-7.6 3.63 13.3 27 7-3.34zm-15.07 7.44l-7.4 4 14.58 26.27 6.78-3.64-13.94-26.63zm-14.7 8.15q-3.6 2.13-7.2 4.34l15.8 25.56 6.6-4-15.2-25.93zm-14.28 8.84l-7 4.67 17 24.78 6.4-4.27-16.4-25.18zm-13.84 9.5l-6.76 5 18.2 24 6.2-4.54-17.58-24.4zm-13.4 10.17l-6.52 5.3 19.26 23.08 6-4.86zm-12.88 10.8l-6.26 5.57 20.32 22.17 5.72-5.14-19.78-22.6zm-12.38 11.33l-6 5.9 21.32 21.17 5.48-5.4zm-11.8 11.9l-5.68 6.16 22.28 20.14 5.23-5.64-21.83-20.66zm-11.24 12.45l-5.4 6.4 23.22 19.07 4.93-5.86-22.76-19.63zm-10.63 12.95l-5.1 6.65 24.1 18 4.65-6.1-23.66-18.53zm-10 13.42l-4.78 6.9 24.9 16.82 4.38-6.32zm-9.38 13.9l-4.43 7.08 25.67 15.63 4.07-6.48-25.3-16.23zm-8.7 14.28l-4.1 7.3 26.37 14.4 3.76-6.7zm-8 14.7l-3.74 7.5 27 13.12 3.45-6.85-26.72-13.76zm-7.36 15.07l-3.38 7.65 27.6 11.84 3.1-7zm-6.6 15.36l-3 7.83 28.14 10.52 2.77-7.17-27.9-11.2zm-5.87 15.64l-2.65 8 28.6 9.18 2.42-7.28-28.38-9.9zm-5.12 16l-2.26 8.07 29 7.8 2.08-7.38-28.82-8.5zm-4.36 16.2l-1.86 8.18 29.33 6.4 1.73-7.48-29.2-7.1zm-3.57 16.4l-1.5 8.26 29.63 5 1.37-7.56zm-2.8 16.53l-1.1 8.33 29.85 3.6 1-7.6-29.72-4.3zm-2 16.67l-.7 8.35 30 2.2.66-7.66-29.9-2.9zm-1.2 16.72l-.34 8.37 30 .8.3-7.7-30-1.5zm-.45 16.76v1.2l.1 8.4 30-.7-.08-7.68v-1.1l-30.05-.1z" fill="#fff"/><path d="M2235.44 503.5c0 153.15-124.14 277.3-277.28 277.3S1680.9 656.64 1680.9 503.5s124.1-277.3 277.27-277.3 277.28 124.16 277.28 277.3z" fill="#4a90e2"/><g fill="#fff"><path d="M2081.76 507.87l123.3-16.95-124.4-4 118.65-37.53-123.26 17.1 110.6-57.05-118.67 37.7 99.37-74.93-110.53 57.2 85.28-90.67-99.27 75.05 68.77-103.8-85.17 90.77 50.2-113.88-68.6 103.83L2038.3 270l-50 113.94 9.4-124.1-30.1 120.78-11.7-123.92-9.26 124.13-32.47-120.17L1926 384.57l-52.3-112.93 32.6 120.1-70.63-102.46 52.44 112.86-86.95-89 70.76 102.38-100.77-73.13 87 89-111.64-55 100.83 73-119.28-35.4 111.7 54.84-123.58-14.65 119.37 35.2-124.28 6.43 123.6 14.5-121.4 27.36 124.28-6.6-115 47.48 121.38-27.5-105.38 66.23 115-47.6-92.66 83.08 105.3-66.35-77.33 97.58 92.56-83.2-59.68 109.2 77.17-97.64-40.38 117.74 59.55-109.3-19.88 122.86 40.2-117.8 1.15 124.47 19.75-122.9 22.16 122.47-1.3-124.46 42.55 117-22.3-122.45 61.7 108.1-42.7-116.92 79.1 96.1-61.83-108 94.15 81.28-79.18-96 106.57 64.27-94.28-81.25 115.9 45.3-106.65-64.14 121.9 25.1-115.94-45.2 124.37 4.13-121.93-24.94z"/><g fill-rule="evenodd"><path d="M1520.7 487.77l5.13 58.76 12.28-18.77-17.4-40zm5.14 58.76l2.2 25 37.6 22.14-39.8-47.1zm23.16 6.77l-23.1-6.77 39.78 47.1zm-10.88-25.54l-12.28 18.77 55.8-22.15-43.5 3.4z"/><path d="M1525.84 546.53l23.16 6.77 32.68-28.92zm-5.14-58.76l5.13 58.76-15.35-16.33zm5.14 58.76l2.2 25-33.2 28.33 31-53.3z"/><path d="M1504.25 557.2l21.6-10.68-31 53.28 9.43-42.6z"/><path d="M1510.5 530.2l15.35 16.33-58.78-12.13 43.43-4.2zm15.34 16.33l-21.6 10.7-37.2-22.8 58.78 12.12zm16.83-192.73l-10.25 58.08 16.7-14.93-6.46-43.15z"/><path d="M1532.42 411.87l-4.36 24.7 30.6 31.1-26.23-55.8zM1553 424.4l-20.56-12.53 26.23 55.8-5.67-43.26z"/><path d="M1549.13 396.94l-16.7 14.93 59.62-7zm-16.7 14.93L1553 424.4l39-19.5-59.62 7zm10.25-58.07l-10.25 58.08-10.6-19.74 20.86-38.34z"/><path d="M1532.42 411.87l-4.36 24.7-39.4 18.76 43.75-43.45zm-23.62 4.73l23.62-4.74-43.75 43.45 20.13-38.7zm13-24.47l10.6 19.74-53.65-26.87 43 7.18z"/><path d="M1532.42 411.87l-23.62 4.74-30-31.66zm8.45 218.05l20.13 55.43 7-21.3-27.18-34.13zm20.13 55.42l8.58 23.56 42.05 11.64zm24.12.56l-24.08-.57 50.62 35.2z"/><path d="M1568 664.05l-7 21.3 48.15-35.84-41.15 14.55z"/><path d="M1561 685.34l24.08.57 24.07-36.4-48.15 35.84z"/><path d="M1540.87 629.92l20.13 55.43-19-11.8-1.12-43.62zm20.13 55.42l8.58 23.56-24.74 35.94 16.16-59.5z"/><path d="M1543 701.25l18-15.9-16.16 59.5-1.9-43.6zm-1-27.7l19 11.8-59.92 3.5z"/><path d="M1561 685.34l-18 15.9-41.84-12.4 59.9-3.5zm829.5-138.8l-23.1 6.77-32.68-28.92zm0 0l-2.2 25 33.2 28.32zm-6.6-134.66l-20.56 12.53-39.05-19.5 59.6 7zm0 0l4.36 24.7 39.4 18.76zm-28.6 273.47l-24.1.57-24.07-36.4 48.16 35.84z"/><path d="M2355.3,685.34l-8.58,23.56,24.74,35.94-16.16-59.5Z"/></g></g><path d="M2179.4 1000.08c189.8-84.9 322.4-275.54 322.4-496.58 0-227.3-140.2-422.4-338.67-503.5h217.06a59.36 59.36 0 0 1 3 12.11l3.52 24.5c6 41.85 44.14 84.7 85 95.57l23.9 6.33a60.87 60.87 0 0 1 43.24 73.69l-6.1 24c-10.47 41 8.36 95.17 42 120.8l19.65 15a60.89 60.89 0 0 1 11.77 84.64l-14.85 19.8c-25.35 33.85-28.7 91.12-7.45 127.7l12.43 21.4a60.88 60.88 0 0 1-21.53 82.69l-21.27 12.6c-36.38 21.56-61.4 73.22-55.76 115.1l3.3 24.54a60.86 60.86 0 0 1-51.51 68.14l-24.5 3.52c-36 5.16-72.65 34-89.15 68H2179.4z" fill="#4a90e2"/><path d="M2335.9 1000.08c16.5-34 53.2-62.8 89.15-68l24.5-3.52a60.86 60.86 0 0 0 51.52-68.14l-3.3-24.54c-5.62-41.9 19.4-93.55 55.77-115.1l21.26-12.6a60.87 60.87 0 0 0 21.53-82.69l-12.43-21.4c-21.23-36.57-17.9-93.84 7.46-127.7l14.84-19.8a60.89 60.89 0 0 0-11.76-84.59l-19.66-15c-33.6-25.64-52.44-79.84-42-120.8l6.12-24a60.88 60.88 0 0 0-43.25-73.69l-23.9-6.33c-40.87-10.86-79-53.72-85-95.57l-3.52-24.5A59.36 59.36 0 0 0 2380.18 0h21a78.46 78.46 0 0 1 1.9 9.27l3.5 24.48c4.9 34.05 37.1 70.25 70.34 79.06l23.9 6.34c36 9.55 60.06 42.48 60 78.27 0 1 0 2-.06 3a79.83 79.83 0 0 1-2.45 16.7l-6.1 24a78.66 78.66 0 0 0-2.31 19.38c0 29.9 14.7 63.54 37 80.57l19.67 15a80.68 80.68 0 0 1 31.65 64.37c0 2.5-.1 5-.35 7.5a80.22 80.22 0 0 1-15.66 40.7l-14.85 19.8c-.68.92-1.36 1.87-2 2.85q-2.13 3.2-4 6.67c-7.57 14.23-11.46 31.86-11.47 49.23 0 17 3.7 33.75 11.32 46.87l12.43 21.4A80.88 80.88 0 0 1 2585 725.4l-9.1 5.4-5.87 3.5-6.3 3.74c-26.8 15.9-46.66 53.22-46.73 85.43a72.12 72.12 0 0 0 .62 9.82l3.3 24.53a80.68 80.68 0 0 1-62 89.41 69.64 69.64 0 0 1-6.53 1.21l-.72.1-23.77 3.4c-26.3 3.78-53.9 23.87-69.14 48.15h-22.84zm-245.97 0c219.62-58.33 381.94-258.84 381.94-496.58 0-248.27-177-456-411.46-503.5h102.72c198.46 81.1 338.67 276.2 338.67 503.5 0 221-132.6 411.67-322.4 496.58zm-131.75-141.23V828.8h3.57l.3 30h-3.85zm12.26-.2l-1-30 7.7-.35 1.7 30q-4.2.24-8.37.38zm16.73-1l-2.42-29.95 7.65-.7 3.13 29.88-8.36.78zm16.68-1.75l-3.85-29.77 7.6-1 4.53 29.7-8.3 1.16zm16.57-2.53l-5.2-29.58 7.54-1.44 5.93 29.47-8.26 1.55zm16.47-3.32l-6.63-29.3 7.48-1.8 7.3 29.15-8.16 1.93zm16.27-4.08l-8-29 7.36-2.14 8.7 28.76-8.06 2.42zm16.1-4.87l-9.37-28.54 7.3-2.5 10.07 28.32-8 2.73zm15.88-5.64l-10.75-28.06 7.15-2.84L2093 832.4l-7.8 3.1zm15.56-6.38l-12.06-27.53 7-3.17 12.7 27.23-7.64 3.5zm15.24-7.1l-13.37-26.92 6.87-3.5 14 26.58q-3.73 2-7.5 3.85zm14.88-7.85l-14.62-26.24q3.38-1.9 6.7-3.82l15.2 25.93-7.3 4.15zm14.47-8.52l-15.82-25.53 6.48-4.14 16.44 25.15-7.1 4.52zm14.08-9.18l-17-24.77q3.15-2.17 6.28-4.42l17.6 24.35-6.88 4.88zm13.58-9.86l-18.18-23.93 6.07-4.72 18.73 23.52q-3.3 2.64-6.62 5.17zm13.13-10.46l-19.28-23 5.84-5 19.82 22.6q-3.16 2.75-6.38 5.45zm12.62-11.1l-20.35-22 5.6-5.28 20.86 21.64-6.1 5.74zm12.06-11.62l-21.34-21.14 5.32-5.52 21.85 20.62q-2.88 3-5.83 6zm11.5-12.2l-22.32-20.1 5.06-5.77 22.8 19.58-5.53 6.34zm10.93-12.72l-23.25-19 4.78-6 23.7 18.5-5.22 6.52zm10.3-13.2l-24.1-17.93 4.48-6.2 24.53 17.36-4.92 6.78zm9.67-13.68l-24.92-16.77q2.13-3.18 4.2-6.4l25.32 16.17q-2.26 3.57-4.6 7.05zm9-14.1l-25.7-15.6q2-3.25 3.9-6.6l26.06 15-4.26 7.23zm8.35-14.5l-26.4-14.36 3.58-6.78 26.73 13.72-3.9 7.4zm7.63-14.9l-27-13.1 3.26-6.92 27.37 12.44-3.58 7.57zm6.92-15.22l-27.6-11.8q1.5-3.5 2.9-7.06l27.9 11.13-3.18 7.78zm6.2-15.57l-28.15-10.46 2.6-7.23 28.4 9.8-2.85 7.9zm5.5-15.86l-28.64-9.1 2.26-7.35 28.8 8.43-2.4 8.07zm4.7-16.1l-29-7.75 1.87-7.45 29.22 7.07-2.07 8.17zm3.93-16.3l-29.37-6.37q.8-3.74 1.53-7.53l29.52 5.67-1.66 8.23zm3.15-16.5l-29.63-5 1.2-7.58 29.73 4.25-1.3 8.3zm2.36-16.6l-29.82-3.55.83-7.63 29.9 2.84-.92 8.35zm1.62-16.7l-30-2.15.43-7.66 30 1.45-.4 8.4zm.8-16.76l-30-.73.12-7.7 30 .05-.1 8.37zm-30-16.1l-.27-7.67 30-1.36.3 8.4-30 .64zm-.7-15.35l-.62-7.65 29.93-2.75.65 8.35-30 2.06zm-1.4-15.3q-.47-3.8-1-7.62l29.76-4.16 1.07 8.33-29.85 3.45zm-2.14-15.2q-.6-3.8-1.33-7.56l29.54-5.57q.77 4.1 1.45 8.28zm-2.84-15.1l-1.7-7.5 29.25-7 1.84 8.2-29.4 6.27zm-3.56-14.95l-2-7.4 28.87-8.35 2.23 8.1zm-4.25-14.75l-2.42-7.32 28.46-9.7q1.35 4 2.6 8l-28.65 9zm-5-14.57l-2.77-7.2 28-11.07 3 7.87-28.2 10.38zm-5.67-14.33q-1.5-3.56-3.1-7l27.4-12.4 3.38 7.72-27.68 11.7zm-6.34-14l-3.4-6.9 26.76-13.66 3.72 7.55-27.07 13zm-7-13.73l-3.73-6.72 26.1-14.9q2.08 3.65 4 7.36l-26.42 14.27zm-7.6-13.34l-4.06-6.54 25.36-16.13 4.4 7.15-25.72 15.5zm-8.25-13l-4.36-6.34 24.57-17.3 4.74 6.93-25 16.72zm-8.85-12.56q-2.3-3.1-4.67-6.13l23.74-18.44 5.07 6.7zm-9.4-12.15l-4.93-5.9 22.84-19.55 5.37 6.45-23.28 19zm-10-11.7l-5.2-5.66L2217 260.1l5.67 6.17-22.35 20.07zm-10.54-11.2l-5.45-5.4 20.92-21.6 5.93 5.9-21.4 21.1zm-11-10.67l-5.7-5.13 19.9-22.53 6.22 5.63zm-11.52-10.15l-5.94-4.86L2180.1 226l6.48 5.33-19.34 23zm-12-9.6l-6.17-4.58 17.68-24.32 6.7 5zm-12.42-9l-6.36-4.3 16.5-25.1 6.95 4.7-17.08 24.7zm-12.8-8.42l-6.55-4 15.3-25.87 7.13 4.35-15.88 25.48zm-13.2-7.8l-6.73-3.66 14.07-26.56 7.34 4-14.68 26.2zm-13.54-7.15l-6.9-3.35 12.8-27.2 7.52 3.66-13.44 26.9zm-13.84-6.53q-3.5-1.55-7-3l11.5-27.77 7.68 3.3-12.13 27.48zm-14.16-5.87l-7.2-2.67 10.17-28.26 7.88 2.92zm-14.45-5.17l-7.3-2.36 8.8-28.7 8 2.54zm-14.67-4.5l-7.42-2 7.42-29.13 8.1 2.18zm-14.9-3.8l-7.5-1.62 6-29.44q4.13.83 8.2 1.77l-6.73 29.3zm-15-3.08l-7.56-1.3 4.63-29.68 8.26 1.4-5.33 29.58zm-15.2-2.38l-7.62-.93 3.2-29.87 8.34 1-3.93 29.8zm-15.27-1.66l-7.65-.55 1.8-30 8.37.6-2.52 29.94zm-15.34-.93l-7.67-.2.44-30.05 8.36.2z" fill="#fff"/><path d="M1958.16 780.8V635.7l1.33-8.28 22.17 122.48-1.3-124.47 42.55 117-18.4-101 14.08 10 43.7 76.58-22.42-61.4 67.77 48.4-23.63-75 47 40.58-55.3-67-5.66-18 88.33 53.27-94.27-81.25 115.9 45.32-106.66-64.14 121.9 25.1-115.94-45.2 124.37 4.12-111-22.7 6.2-4.6 106.16-14.6-82.88-2.65 34.1-25.27 43.06-13.63-30.3 4.24 31.1-23-53.44-.5 40-20.66-64.35 20.44-31-.28 76.12-57.4L2057 429.3l85.17-90.55-99.27 75.05 68.7-103.8-85.17 90.77 50.2-113.88L2008 390.75 2038.28 270l-42.57 96.9-5-15.08 7-92-16.12 64.7-23.34-69.68v-28.62c153.13 0 277.27 124.15 277.27 277.3s-124.23 277.3-277.36 277.3z" fill="#4a90e2"/><g fill-rule="evenodd"><g fill="#fff"><path d="M2390.5 546.53l-12.28-18.75 17.4-40-5.12 58.76z"/><path d="M2350.7 593.63zm0 0l39.8-47.1-2.2 25zm0 0l16.68-40.33 23.1-6.77zm39.8-47.1zm0 0z"/><path d="M2390.5 546.53zm0 0l-52.65-20.9-3.14-1.25 43.5 3.4 12.28 18.75z"/><path d="M2367.38 553.3l-32.68-28.93 3.14 1.25 52.65 20.9-23.1 6.77zm23.12-6.77l5.12-58.76 10.23 42.43zm31 53.3zm0 0l-.25-.2-32.95-28.1 2.2-25z"/><path d="M2421.5 599.82l-31-53.3 21.58 10.7 8.37 37.86 1 4.74zm-31-53.3zm0 .01l15.35-16.33 43.44 4.2-19.8 4.1-39 8z"/><path d="M2412.07 557.2l-21.58-10.68 39-8 19.8-4.1-9.4 5.76-27.8 17.06zm-28.17-145.33l-16.72-14.93 6.47-43.15 10.25 58.08zm-26.2 55.8zm0 0l26.2-55.8 4.36 24.7z"/><path d="M2357.7 467.66l5.65-43.26 20.56-12.53zm26.2-55.8l-59.6-7 42.9-8z"/><path d="M2363.34 424.4l-39.05-19.5 59.6 7-20.56 12.53zm20.56-12.53l-10.25-58.08 20.86 38.33-10.6 19.74zm43.76 43.45zm0 0l-39.4-18.76-4.36-24.7zm-43.76-43.45z"/><path d="M2427.66 455.32l-43.76-43.45 23.64 4.73 20.13 38.72zm-43.76-43.45zm0 0l10.6-19.74 43-7.18z"/><path d="M2407.53 416.6l-23.63-4.73 53.65-26.87-30 31.65zm-52.23 268.74l-7-21.3 27.18-34.13-20.17 55.43zm-50.63 35.2zm0 0l50.63-35.2-8.58 23.56-42 11.64z"/><path d="M2304.67 720.54l26.54-34.63 24.1-.57-50.63 35.2zm50.63-35.2zm0 0zm0 0zm0 0l-48.16-35.84 41.15 14.55zm-24.1.56l-24.08-36.4 48.16 35.84-24.08.57zm24.1-.56l20.17-55.43-1.12 43.63z"/><path d="M2371.46,744.85l-24.74-36,8.58-23.55,16.16,59.5Z"/><path d="M2371.46 744.85l-16.16-59.5 18.07 15.9-1.9 43.6zm-16.16-59.5zm0 0z"/><path d="M2415.2 688.86l-59.92-3.5 19.05-11.8z"/><path d="M2373.38 701.25l-18.08-15.9 59.92 3.5-41.84 12.4z"/></g><path d="M1971.72 502.37a14.82 14.82 0 0 1-29.64 0c0-11.1-3.7-14.82-14.8-14.82s-14.8 3.7-14.8 14.82a14.82 14.82 0 1 1-14.82-14.82c11.1 0 14.82-3.7 14.82-14.8a14.81 14.81 0 1 1 29.62 0c0 11.1 3.7 14.8 14.82 14.8a14.79 14.79 0 0 1 14.82 14.82zM1882.74 532a14.82 14.82 0 1 0-14.82 14.82 14.82 14.82 0 0 0 14.82-14.82zm178-59.3a14.81 14.81 0 0 1-14.82 14.82c-11.1 0-14.8 3.7-14.8 14.8a14.81 14.81 0 0 1-14.82 14.82c-11.1 0-14.8 3.7-14.8 14.82a14.82 14.82 0 1 1-14.82-14.82c11.1 0 14.82-3.7 14.82-14.82a14.8 14.8 0 0 1 14.81-14.81c11.1 0 14.82-3.7 14.82-14.82a14.82 14.82 0 1 1 29.63 0z" fill="#4a90e2"/><path d="M1604.3 310.4l-53.17-34.1 23-35.87 6.24 4-18.47 28.82 16.56 10.6 16-24.95 6.24 4-16 24.95 24.14 15.48-4.52 7zm29-45.93l-47.74-41.36 29.86-34.47 5.6 4.86-24.38 28.14 14.67 12.7 22.77-26.34 5.6 4.85-22.8 26.34 16.27 14.1 25.35-29.3 5.6 4.85-30.84 35.6zm38.37-44.3l-41.36-47.74 34.47-29.86 4.86 5.6-28.14 24.38 12.7 14.67 26.33-22.82 4.85 5.6-26.4 22.82 14.1 16.27 29.27-25.36 4.85 5.6-35.6 30.84zm44.7-38l-36.6-51.48 6.83-4.85 32.3 45.43 25.3-18 4.3 6-32.13 22.86zm41.2-27.67l-28.8-56.22 40.6-20.8 3.37 6.6-33.13 17 8.85 17.28 31-15.9 3.38 6.6-31 15.88 9.8 19.16 34.46-17.66 3.38 6.6-41.92 21.48zm43.8-43.8l7.2-3.2a17.49 17.49 0 0 0 5 6.58 14.44 14.44 0 0 0 7.6 2.64 24 24 0 0 0 9.78-1.32 23 23 0 0 0 7.54-4.06 11.72 11.72 0 0 0 3.9-5.46 9.17 9.17 0 0 0 0-5.7 8.25 8.25 0 0 0-3.29-4.35 12.92 12.92 0 0 0-6.58-1.7 115.65 115.65 0 0 0-11.64.69c-6 .54-10.2.6-12.8.17a17 17 0 0 1-8.25-3.42 14.38 14.38 0 0 1-4.63-6.75 16.16 16.16 0 0 1-.29-9.35 16.78 16.78 0 0 1 5.48-8.53 30.12 30.12 0 0 1 10.28-5.76 31.49 31.49 0 0 1 12.33-1.8 17.76 17.76 0 0 1 9.94 3.66 19.24 19.24 0 0 1 6.13 8.44l-7.4 3.15q-2.54-5.44-7-7.15-4.46-1.7-11.4.64-7.2 2.43-9.6 6.17a8.34 8.34 0 0 0-1.13 7.46 7.18 7.18 0 0 0 4.12 4.52c2 .86 6.45 1 13.38.23s11.77-1 14.53-.67a19.16 19.16 0 0 1 9.76 3.48 15.56 15.56 0 0 1 5.35 7.64 17.11 17.11 0 0 1 .31 9.91 18.86 18.86 0 0 1-5.62 9.21 28.89 28.89 0 0 1-10.73 6.24 36.15 36.15 0 0 1-14.38 2.22 19.87 19.87 0 0 1-11-4.21 21.26 21.26 0 0 1-6.92-9.62zm58.35-18.7l7.6-2.08a17.55 17.55 0 0 0 3.93 7.24 14.36 14.36 0 0 0 7.12 3.75 24 24 0 0 0 9.87.15 23.06 23.06 0 0 0 8.06-2.89 11.68 11.68 0 0 0 4.66-4.82 9.12 9.12 0 0 0 .82-5.64 8.23 8.23 0 0 0-2.6-4.79 12.82 12.82 0 0 0-6.26-2.66 114.79 114.79 0 0 0-11.61-1.05c-6-.35-10.18-.93-12.7-1.73a17.16 17.16 0 0 1-7.65-4.63 14.4 14.4 0 0 1-3.57-7.35 16 16 0 0 1 1.1-9.29 16.67 16.67 0 0 1 6.69-7.61 30 30 0 0 1 11-4.17 31.63 31.63 0 0 1 12.59 0 17.75 17.75 0 0 1 9.29 5.11 19.11 19.11 0 0 1 4.8 9.25l-7.8 2c-1.12-3.84-3.08-6.56-5.9-8.1s-6.6-1.93-11.37-1.08q-7.47 1.34-10.4 4.68a8.35 8.35 0 0 0-2.24 7.21 7.24 7.24 0 0 0 3.4 5.09c1.85 1.15 6.24 1.9 13.2 2.2s11.78.83 14.47 1.5a19.16 19.16 0 0 1 9.14 4.89 15.7 15.7 0 0 1 4.15 8.36 17.13 17.13 0 0 1-1.17 9.84 19 19 0 0 1-6.93 8.28 28.89 28.89 0 0 1-11.54 4.56 36.09 36.09 0 0 1-14.55.06 20 20 0 0 1-10.25-5.8 21.14 21.14 0 0 1-5.39-10.49zm124.18 2.78a26.61 26.61 0 0 1-8.52 6.13 22.75 22.75 0 0 1-9.85 1.87q-9.7-.24-15.22-6.9a17.73 17.73 0 0 1-4.32-12 16.39 16.39 0 0 1 4-10.44c2.6-3.1 6.43-5.74 11.47-8a37.64 37.64 0 0 1-5.53-8.11 14 14 0 0 1-1.29-5.92 13.13 13.13 0 0 1 4.72-9.77 15.74 15.74 0 0 1 11.35-3.92 14.69 14.69 0 0 1 10.5 4.23 12.77 12.77 0 0 1 3.87 9.65q-.22 9-12.4 15.1l11.07 14.63a35.34 35.34 0 0 0 3.27-8.71l8 1.93a42.8 42.8 0 0 1-6 13.37 45.55 45.55 0 0 0 9.6 9.92l-5.36 6a44.91 44.91 0 0 1-9.41-9.06zm-15.05-33.2c3.43-1.92 5.65-3.6 6.7-5.07a8.7 8.7 0 0 0 1.62-4.94 7.18 7.18 0 0 0-1.92-5.35 7 7 0 0 0-5.08-2.18 7.27 7.27 0 0 0-5.31 1.89 6.68 6.68 0 0 0-2.23 4.93 7.24 7.24 0 0 0 .69 3.11 15.44 15.44 0 0 0 2.17 3.49l3.37 4.12zm10.26 27l-13.7-18q-6.4 3.55-8.67 6.7a11.16 11.16 0 0 0-2.37 6.26 13.48 13.48 0 0 0 2.86 8 10.07 10.07 0 0 0 8.52 4.33 14.29 14.29 0 0 0 7.25-2 17.4 17.4 0 0 0 6.1-5.35zm54.07 20.23l11.1-62.18 8.25 1.48-11.1 62.17zm22.78 3.35l20.24-59.83 8.14 2.75 15.5 57.58 15.9-47 7.6 2.58-20.24 59.83-8.14-2.75-15.5-57.6-15.9 47zm67.57 1.94l7.3 2.95a17.44 17.44 0 0 0-1.25 8.15 14.35 14.35 0 0 0 3.4 7.29 23.93 23.93 0 0 0 7.76 6.09 22.86 22.86 0 0 0 8.16 2.58 11.66 11.66 0 0 0 6.63-1 9.09 9.09 0 0 0 4.07-4 8.23 8.23 0 0 0 .82-5.39 12.89 12.89 0 0 0-3.37-5.91 111.87 111.87 0 0 0-8.61-7.86q-6.8-5.83-9-9.06a17.05 17.05 0 0 1-3.29-8.31 14.46 14.46 0 0 1 1.61-8 16.08 16.08 0 0 1 6.5-6.73 16.72 16.72 0 0 1 9.94-2 29.9 29.9 0 0 1 11.29 3.36 31.49 31.49 0 0 1 10 7.66 17.76 17.76 0 0 1 4.3 9.68 19.17 19.17 0 0 1-1.77 10.27l-7.43-3.1q2.16-5.62.23-10-1.93-4.38-8.47-7.78-6.75-3.47-11.1-2.57a8.38 8.38 0 0 0-6.15 4.39 7.22 7.22 0 0 0-.37 6.1c.78 2 3.82 5.3 9.17 9.75s8.88 7.8 10.6 10a19.25 19.25 0 0 1 4.31 9.42 15.66 15.66 0 0 1-1.76 9.16 17.07 17.07 0 0 1-6.89 7.13 18.88 18.88 0 0 1-10.52 2.39 28.79 28.79 0 0 1-11.95-3.34 36.49 36.49 0 0 1-11.62-8.76 20 20 0 0 1-4.64-10.83 21.11 21.11 0 0 1 2.07-11.67zm58.15 55l30.1-46.93-17.53-11.18 4-6.24 42.1 27-4 6.23-17.52-11.23-30.1 46.93-7-4.52zm21 14l59.66-31.88 6.95 6-21.92 64.58-7.18-6.23 7-19.25-20.14-17.33-17.72 10zm30.72-7.7l16.27 14.1 6.43-17.5q3-8 5.2-12.93a90.39 90.39 0 0 1-10.59 6.91zm17.6 51.76l47.74-41.36 5.62 6.5-15.77 57.5 37.4-32.45 5.26 6.06-47.74 41.36-5.62-6.5 15.77-57.5-37.47 32.46-5.26-6.06zm48.7 63.57l46.93-30.1-11.23-17.53 6.24-4 27 42.1-6.24 4-11.23-17.53-46.94 30.1-4.52-7.06zm-20.45 458.85l47.75 41.35-5.62 6.5-59.18-7.42 37.47 32.46-5.26 6.07-47.74-41.35 5.62-6.5 59.17 7.4-37.46-32.44zm-37.58 42.77l23 63.6-6.95 6-60.72-30.88 7.2-6.24 18.06 9.7 20.1-17.4-7.35-19 6.7-5.8zm3.25 31.5L2228.65 838l16.44 8.92q7.47 4.08 12 7a89.23 89.23 0 0 1-5.32-11.47l-6.9-18.55zm-53.85 10.37l34.08 53.17-7.23 4.64-54.65-23.86L2190 909.9l-6.76 4.33-34.08-53.17 7.23-4.64 54.65 23.86-26.76-41.74 6.76-4.33zm-40.78 61.16q5.76 14.6 1.16 26-4.6 11.4-17 16.26a30.3 30.3 0 0 1-16.21 1.9 27.29 27.29 0 0 1-14.23-6.91 37.84 37.84 0 0 1-9.64-14.39 37.12 37.12 0 0 1-2.68-17.4 26.4 26.4 0 0 1 6-14.69 31.35 31.35 0 0 1 12.85-9.26 30 30 0 0 1 16.42-1.84 27.67 27.67 0 0 1 14.21 7 35.61 35.61 0 0 1 9.14 13.32zm-8.1 3q-4.2-10.56-12.3-14.38a21.43 21.43 0 0 0-28.74 11.39q-3.22 8.4 1.24 19.72a32.31 32.31 0 0 0 7.34 11.54 20 20 0 0 0 10.35 5.48 20.7 20.7 0 0 0 11.64-1.19 21.35 21.35 0 0 0 12-11.25q3.72-8-1.5-21.24zm-108.6 25.42l-8.64-.18q.24-10.62 5.66-17.4a26 26 0 0 1 15-9q9.93-2.28 17.1.33a25.82 25.82 0 0 1 12.18 9.53 43.11 43.11 0 0 1 7 15.74 37.1 37.1 0 0 1 .2 17.6 25.75 25.75 0 0 1-7.93 13.29 31.21 31.21 0 0 1-14 7.15q-9.24 2.13-16.6-1.12a25 25 0 0 1-11.81-11.18l7.55-3.74c2.45 4.14 5.28 6.93 8.46 8.34a16.9 16.9 0 0 0 10.93.7 20.32 20.32 0 0 0 11.05-6.13 18.3 18.3 0 0 0 4.57-10.66 37.79 37.79 0 0 0-.79-12.27 38.67 38.67 0 0 0-5.44-13.17 17.5 17.5 0 0 0-9.11-7.12 20.37 20.37 0 0 0-11.08-.49 17.9 17.9 0 0 0-10.64 6.61c-2.54 3.36-3.78 7.75-3.7 13.2zm-60 47.35l-8.35.63-2.77-36.37q-.72-9.5 1-15.25a18.57 18.57 0 0 1 7-9.66c3.56-2.62 8.35-4.16 14.42-4.62 5.88-.45 10.78.2 14.68 2a17.46 17.46 0 0 1 8.69 8.21c1.9 3.74 3.1 8.93 3.6 15.6l2.77 36.37-8.36.63-2.77-36.35c-.4-5.47-1.23-9.48-2.44-12a11.49 11.49 0 0 0-5.68-5.59 17.93 17.93 0 0 0-9.2-1.43c-6.1.46-10.35 2.2-12.73 5.16s-3.27 8.42-2.67 16.33l2.77 36.36zm-27.34-63.07l-4.8 63-27.92-2.13q-8.4-.64-12.66-2.67a14.06 14.06 0 0 1-6.54-6.52 17.9 17.9 0 0 1-1.89-9.68 15.9 15.9 0 0 1 5.2-11c3.12-2.85 7.73-4.44 13.83-4.82a21.19 21.19 0 0 1-4.79-3.52 42.45 42.45 0 0 1-6.26-8.91l-9.6-18 10.4.8 7.33 13.74q3.2 6 5.34 9.14a19 19 0 0 0 3.92 4.53 12.53 12.53 0 0 0 3.66 2 26.87 26.87 0 0 0 4.61.65l9.65.73 2.13-28 8.35.64zm-11 34.55l-17.9-1.37a26.58 26.58 0 0 0-9 .51 9.35 9.35 0 0 0-5.16 3.42 10.22 10.22 0 0 0-2.09 5.51 9.45 9.45 0 0 0 2.66 7.61q3 3.12 10 3.65l19.9 1.5 1.6-20.85zm-52.26-41.5l-14.2 61.55-27.27-6.3q-8.24-1.9-12.13-4.55a14 14 0 0 1-5.48-7.42 17.92 17.92 0 0 1-.41-9.86 15.9 15.9 0 0 1 6.79-10.06q5.28-3.5 14.4-2.68a21.24 21.24 0 0 1-4.21-4.21 42.54 42.54 0 0 1-4.84-9.74l-6.77-19.22L1839 891l5.18 14.68c1.5 4.26 2.82 7.54 3.9 9.85a19.47 19.47 0 0 0 3.19 5.07 13 13 0 0 0 3.34 2.49 25.07 25.07 0 0 0 4.46 1.33l9.42 2.18 6.3-27.34 8.17 1.9zm-16.1 32.5l-17.48-4a26.65 26.65 0 0 0-9-.85 9.36 9.36 0 0 0-5.61 2.59 10.24 10.24 0 0 0-2.9 5.14 9.42 9.42 0 0 0 1.49 7.93q2.5 3.54 9.32 5.1l19.45 4.5 4.7-20.37zm-45.7-48.37l-26 57.56-41.6-18.83 3.05-6.75 33.92 15.33 8-17.7-31.75-14.35 3-6.75 31.75 14.35 8.86-19.6-35.28-16 3-6.75 42.93 19.4zm-53.62-23.87l-34.08 53.17-7.23-4.63-1.15-59.62-26.75 41.73-6.76-4.33 34.1-53.17 7.23 4.63 1.14 59.63 26.75-41.74 6.76 4.33zm-102-47.55l-5-7.1c5.82-4 11.6-5.92 17.4-5.67s11.17 2.52 16.14 6.82q7.7 6.68 9.8 14a25.86 25.86 0 0 1-.53 15.45 43.25 43.25 0 0 1-8.55 15 37.29 37.29 0 0 1-14.11 10.53 25.83 25.83 0 0 1-15.41 1.42 31.2 31.2 0 0 1-14-7.13q-7.17-6.2-8.87-14.07a25 25 0 0 1 2.07-16.14l7.47 3.9q-2.87 6.64-1.76 11.76a16.94 16.94 0 0 0 5.88 9.25 20.45 20.45 0 0 0 11.45 5.32 18.43 18.43 0 0 0 11.32-2.6 37.7 37.7 0 0 0 9.44-7.87 38.6 38.6 0 0 0 7.43-12.15 17.37 17.37 0 0 0 .38-11.55 20.36 20.36 0 0 0-6.13-9.25 18 18 0 0 0-11.61-4.7q-6.3-.1-12.84 4.8zm-10.57-43.4L1634.8 788l-11.57 42.24-6.58-7.6 6.27-22a176.36 176.36 0 0 1 3.81-11.84c-3.76.7-8.1 1.37-13 2l-22.07 2.94-6.38-7.37 44-4.77 20.22-17.52 5.5 6.34z" fill="#fff"/></g><path d="M99.2 257.12h483.66v483.66H99.2z" fill="#fff"/><path d="M111 259a10 10 0 0 0-10 10v460a10 10 0 0 0 10 10h460a10 10 0 0 0 10-10V269a10 10 0 0 0-10-10zm0-10h460a20 20 0 0 1 20 20v460a20 20 0 0 1-20 20H111a20 20 0 0 1-20-20V269a20 20 0 0 1 20-20z" fill="url(#B)"/><g fill="#2677ff"><path d="M202.7 202.75h13a10.3 10.3 0 0 1 7.16 2.32 9.48 9.48 0 0 1 0 13q-2.55 2.33-7.16 2.32h-6.72V231h-6.28zm12.16 12.88c3.12 0 4.68-1.34 4.68-4a3.84 3.84 0 0 0-1.16-3.08 5.3 5.3 0 0 0-3.52-1h-5.92v8.12zm39 15.37h-6.8l-4.88-9a3.87 3.87 0 0 0-1.44-1.5 4.44 4.44 0 0 0-2.12-.46h-3.08v11h-6.16v-28.2h13q5 0 7.5 2.18a7.84 7.84 0 0 1 2.54 6.3 8.12 8.12 0 0 1-1.78 5.36 8.48 8.48 0 0 1-5 2.84 6.2 6.2 0 0 1 3.72 3.16zm-8.56-16.62a4.23 4.23 0 0 0 0-5.9 6.46 6.46 0 0 0-3.88-.92h-6v7.76h6a6.3 6.3 0 0 0 3.88-.99zM257.38 231v-28.2h6.24V231zm32.44-28.25h6.32L283.46 231h-5l-12.72-28.2h6.48l8.8 20.44zM317 231l-2.68-6.24h-13.14L298.5 231h-6.28l13-28.2h5l13 28.2zm-13.76-11h9l-4.52-10.56zm25.14 11v-23.17h-8.84v-5.08h23.92v5.08h-8.84V231zm18.32 0v-28.2h19.44v4.84h-13.36v6.6h12.56V219h-12.56v7.08h13.36V231zm38.52-.55a14.47 14.47 0 0 1-4.92-2.38l2-4.44a15.61 15.61 0 0 0 9.16 2.84 7.83 7.83 0 0 0 4.06-.86 2.64 2.64 0 0 0 1.42-2.38 2.35 2.35 0 0 0-1.3-2.12 17.72 17.72 0 0 0-4.62-1.48 25.28 25.28 0 0 1-5.94-1.84 7.71 7.71 0 0 1-3.24-2.66 7 7 0 0 1-1-3.9 7.69 7.69 0 0 1 1.42-4.56 9.49 9.49 0 0 1 4-3.14 14.44 14.44 0 0 1 5.92-1.14 19.23 19.23 0 0 1 5.78.88 12 12 0 0 1 4.42 2.36l-2 4.44a13.64 13.64 0 0 0-8.16-2.84 6.86 6.86 0 0 0-3.84.94 3 3 0 0 0-1.4 2.58 2.31 2.31 0 0 0 .54 1.58 4.41 4.41 0 0 0 1.8 1.1 26.33 26.33 0 0 0 3.58 1c3.63.8 6.23 1.83 7.82 3.08a6.26 6.26 0 0 1 2.38 5.2A7.44 7.44 0 0 1 400 229c-2.05 1.54-4.92 2.3-8.6 2.3a21.73 21.73 0 0 1-6.18-.85zm22.28.55v-28.2h19.44v4.84h-13.36v6.6h12.56V219h-12.56v7.08h13.36V231zm23.68 0v-28.2h19.44v4.84h-13.36v6.6h12.56V219h-12.56v7.08h13.36V231zm23.68-28.25h11a17.34 17.34 0 0 1 7.92 1.68 11.77 11.77 0 0 1 5.08 4.84 15.36 15.36 0 0 1 1.76 7.56 15.55 15.55 0 0 1-1.74 7.58 11.6 11.6 0 0 1-5.06 4.86 17.45 17.45 0 0 1-8 1.68h-11zm10.52 23.16q9 0 9-9.08 0-9.08-9-9h-4.28v18.12zm-361.62 546.7h7.12a11.38 11.38 0 0 1 5.15 1.09 7.61 7.61 0 0 1 3.3 3.15 9.88 9.88 0 0 1 1.15 4.91 10.17 10.17 0 0 1-1.13 4.93 7.56 7.56 0 0 1-3.29 3.16 11.35 11.35 0 0 1-5.18 1.09h-7.12zm6.84 15.06q5.85 0 5.85-5.9 0-5.9-5.85-5.87h-2.78v11.78zm16.65 2.32a7.82 7.82 0 0 1-3.11-3.28 11.92 11.92 0 0 1 0-10 7.77 7.77 0 0 1 3.11-3.26 10.45 10.45 0 0 1 9.49 0 7.77 7.77 0 0 1 3.11 3.26 11.92 11.92 0 0 1 0 10 7.82 7.82 0 0 1-3.11 3.28 10.28 10.28 0 0 1-9.49 0zm8.35-3.6a8.94 8.94 0 0 0 0-9.3 4.87 4.87 0 0 0-7.22 0 9 9 0 0 0 0 9.3A4.36 4.36 0 0 0 132 788a4.42 4.42 0 0 0 3.6-1.57zm27.75-13.78h3.8V791h-3L155 779.28V791h-3.76v-18.38h3l9.12 11.62zm11.1 17.38a7.82 7.82 0 0 1-3.11-3.28 11.92 11.92 0 0 1 0-10 7.77 7.77 0 0 1 3.11-3.26 10.45 10.45 0 0 1 9.49 0 7.77 7.77 0 0 1 3.11 3.26 11.92 11.92 0 0 1 0 10 7.82 7.82 0 0 1-3.11 3.28 10.28 10.28 0 0 1-9.49 0zm8.35-3.6a8.94 8.94 0 0 0 0-9.3 4.87 4.87 0 0 0-7.22 0 9 9 0 0 0 0 9.3 4.36 4.36 0 0 0 3.59 1.61 4.42 4.42 0 0 0 3.63-1.58zm11.6 4.6v-15h-5.75v-3.3h15.55v3.3h-5.75v15zm21.6-.37a9.64 9.64 0 0 1-3.2-1.55l1.3-2.9A10.18 10.18 0 0 0 220 788a5.13 5.13 0 0 0 2.64-.56 1.73 1.73 0 0 0 .93-1.55 1.51 1.51 0 0 0-.85-1.37 11.42 11.42 0 0 0-3-1 16.59 16.59 0 0 1-3.86-1.19 5.11 5.11 0 0 1-2.11-1.73 4.61 4.61 0 0 1-.66-2.54 5 5 0 0 1 .92-3 6.13 6.13 0 0 1 2.59-2 9.28 9.28 0 0 1 3.85-.74 12.35 12.35 0 0 1 3.75.57 7.68 7.68 0 0 1 2.88 1.53l-1.3 2.9a8.85 8.85 0 0 0-5.31-1.85 4.39 4.39 0 0 0-2.49.62 1.89 1.89 0 0 0-.91 1.67 1.48 1.48 0 0 0 .35 1 2.76 2.76 0 0 0 1.17.71 16.41 16.41 0 0 0 2.33.65 12.86 12.86 0 0 1 5.08 2 4.06 4.06 0 0 1 1.54 3.38 4.82 4.82 0 0 1-2 4.09 9.15 9.15 0 0 1-5.59 1.5 14.37 14.37 0 0 1-3.95-.45z"/><use xlink:href="#F"/><path d="M264.44 791l-1.74-4.05h-8.53l-1.74 4.05h-4.1l8.43-18.33H260l8.44 18.33zm-8.95-7.12h5.88l-2.94-6.88zm30.37 7.12h-4.42l-3.17-5.85a2.44 2.44 0 0 0-.94-1 2.81 2.81 0 0 0-1.37-.3h-2V791h-4v-18.38h8.42a7.29 7.29 0 0 1 4.88 1.42 5.09 5.09 0 0 1 1.65 4.09 5.32 5.32 0 0 1-1.16 3.49 5.54 5.54 0 0 1-3.26 1.84 4.06 4.06 0 0 1 2.42 2.06zm-5.56-10.8a2.75 2.75 0 0 0 0-3.84 4.25 4.25 0 0 0-2.52-.59h-3.88v5h3.88a4.09 4.09 0 0 0 2.52-.62zm7.85 10.8v-18.38h12.64v3.15h-8.7v4.3h8.17v3.14h-8.17v4.6h8.7v3.2zm26.85 0v-15h-5.75v-3.3h15.55v3.3h-5.75v15z"/><use xlink:href="#F" x="96.48"/><path d="M346.93 791v-18.38H351V791zm10.07-.37a9.49 9.49 0 0 1-3.19-1.55l1.3-2.9a10.21 10.21 0 0 0 6 1.85 5.18 5.18 0 0 0 2.64-.56 1.74 1.74 0 0 0 .92-1.55 1.52 1.52 0 0 0-.84-1.37 11.66 11.66 0 0 0-3-1 16.59 16.59 0 0 1-3.86-1.19 5.07 5.07 0 0 1-2.1-1.73 4.54 4.54 0 0 1-.67-2.54 5 5 0 0 1 .93-3 6 6 0 0 1 2.58-2 9.28 9.28 0 0 1 3.85-.74 12.46 12.46 0 0 1 3.76.57 7.71 7.71 0 0 1 2.87 1.53l-1.3 2.9a8.85 8.85 0 0 0-5.3-1.85 4.42 4.42 0 0 0-2.5.62 1.89 1.89 0 0 0-.91 1.67 1.53 1.53 0 0 0 .35 1 2.9 2.9 0 0 0 1.17.71 16.81 16.81 0 0 0 2.33.65 12.79 12.79 0 0 1 5.08 2 4.07 4.07 0 0 1 1.55 3.38 4.84 4.84 0 0 1-2 4.09 9.17 9.17 0 0 1-5.59 1.5 14.44 14.44 0 0 1-4.06-.49zm44.6-18h3.84L398.9 791h-3.25l-4.24-12.14-4.3 12.14h-3.25l-6.5-18.33h4.1l4.18 12.66 4.45-12.66h2.9l4.3 12.8zm6.1 18.38v-18.38h4.05V791zm11.9 0v-15h-5.74v-3.3h15.55v3.3h-5.75v15z"/><use xlink:href="#F" x="201.08"/><path d="M472.75 791l-1.75-4.1h-8.53l-1.73 4.1h-4.1l8.43-18.33h3.25l8.42 18.33zm-8.95-7.12h5.88l-2.94-6.88zm26.57-11.26h3.8V791h-3L482 779.28V791h-3.77v-18.38h3l9.12 11.62zm23.48 0l-7.6 10V791h-4.05v-8.3l-7.57-10h4.6l5 6.8 5-6.8zm3.08 17.38a7.74 7.74 0 0 1-3.1-3.28 11.82 11.82 0 0 1 0-10 7.69 7.69 0 0 1 3.1-3.26 10.45 10.45 0 0 1 9.49 0 7.71 7.71 0 0 1 3.11 3.26 11.92 11.92 0 0 1 0 10 7.76 7.76 0 0 1-3.11 3.28 10.28 10.28 0 0 1-9.49 0zm8.35-3.6a8.94 8.94 0 0 0 0-9.3 4.86 4.86 0 0 0-7.21 0 9 9 0 0 0 0 9.3 4.37 4.37 0 0 0 3.59 1.61 4.42 4.42 0 0 0 3.62-1.58zm20.52-13.78h3.8V791h-3l-9.13-11.67V791h-3.77v-18.38h3l9.13 11.62zm7.42 18.38v-18.38h12.63v3.15h-8.68v4.3h8.16v3.14h-8.16v4.6h8.68v3.2zm22.98-6l-1.2-12.4h4.83l-1.26 12.4zm-.9 1.77h4.2V791h-4.2z"/></g><path d="M3134.84 258.37h483.66v483.66h-483.66z" fill="#fff"/><path d="M3146.67 260.2a10 10 0 0 0-10 10v460a10 10 0 0 0 10 10h460a10 10 0 0 0 10-10v-460a10 10 0 0 0-10-10zm0-10h460a20 20 0 0 1 20 20v460a20 20 0 0 1-20 20h-460a20 20 0 0 1-20-20v-460a20 20 0 0 1 20-20z" fill="url(#C)"/><path d="M3204.25 197.25h13a10.3 10.3 0 0 1 7.16 2.32 9.48 9.48 0 0 1 0 13q-2.55 2.33-7.16 2.32h-6.72v10.6h-6.24zm12.16 12.88c3.12 0 4.68-1.34 4.68-4a3.84 3.84 0 0 0-1.16-3.08 5.3 5.3 0 0 0-3.52-1h-5.92v8.12zm17.46 12.62q-3.1-3.06-3.1-8.94v-16.56h6.12v16.84a7.58 7.58 0 0 0 1.54 5.12 6.53 6.53 0 0 0 8.94 0 7.48 7.48 0 0 0 1.56-5.1v-16.86h6.12v16.56q0 5.85-3.12 8.92-3.12 3.07-9 3.08-5.93 0-9.06-3.06zm48.48-9.4a7 7 0 0 1 1.34 4.38 6.79 6.79 0 0 1-2.62 5.64 11.28 11.28 0 0 1-7.22 2.08h-13.4v-28.2h13a11.3 11.3 0 0 1 7 2 6.38 6.38 0 0 1 2.58 5.36 6.45 6.45 0 0 1-1.18 3.86 6.6 6.6 0 0 1-3.26 2.42 7.08 7.08 0 0 1 3.76 2.46zm-15.82-4.62h5.88a6.08 6.08 0 0 0 3.54-.82 2.87 2.87 0 0 0 1.14-2.5 3 3 0 0 0-1.14-2.58 6.16 6.16 0 0 0-3.54-.82h-5.88zm10.2 11.12a3.16 3.16 0 0 0 1.12-2.72 3.29 3.29 0 0 0-1.12-2.76 5.87 5.87 0 0 0-3.6-.88h-6.6v7.2h6.6a6 6 0 0 0 3.6-.84zm11.27 5.6v-28.2h6.24v23.12h12.6v5.08zm22.45 0v-28.2h6.24v28.2zM3328 224a12.14 12.14 0 0 1-4.88-5.08 17.84 17.84 0 0 1 0-15.2 12.09 12.09 0 0 1 4.88-5.06 15.11 15.11 0 0 1 7.46-1.78 16.77 16.77 0 0 1 5.36.86 11.53 11.53 0 0 1 4.2 2.38l-2 4.44a13.46 13.46 0 0 0-3.66-2 11.45 11.45 0 0 0-3.78-.64 7.15 7.15 0 0 0-5.78 2.4c-1.34 1.6-2 4-2 7s.68 5.45 2 7.06a7.1 7.1 0 0 0 5.78 2.42 11.2 11.2 0 0 0 3.78-.64 12.94 12.94 0 0 0 3.66-2l2 4.44a11.25 11.25 0 0 1-4.2 2.38 16.49 16.49 0 0 1-5.36.86A14.9 14.9 0 0 1 3328 224zm54 1.45l-2.68-6.24h-13.12l-2.68 6.24h-6.28l13-28.2h5l13 28.2zm-13.76-11h9l-4.52-10.56zm22.2-17.2h11a17.34 17.34 0 0 1 7.92 1.68 11.77 11.77 0 0 1 5.08 4.84 15.36 15.36 0 0 1 1.76 7.56 15.55 15.55 0 0 1-1.74 7.58 11.6 11.6 0 0 1-5.06 4.86 17.45 17.45 0 0 1-8 1.68h-11zM3401 220.4q9 0 9-9.08 0-9.08-9-9h-4.28v18.12zm19.93-23.16h11a17.34 17.34 0 0 1 7.92 1.68 11.77 11.77 0 0 1 5.08 4.84 15.36 15.36 0 0 1 1.76 7.56 15.55 15.55 0 0 1-1.74 7.58 11.6 11.6 0 0 1-5.06 4.86 17.45 17.45 0 0 1-8 1.68h-11zm10.52 23.16q9 0 9-9.08 0-9.08-9-9h-4.28v18.12zm44.45 5.04h-6.8l-4.88-9a3.87 3.87 0 0 0-1.44-1.5 4.46 4.46 0 0 0-2.12-.46h-3.08v11h-6.16v-28.2h13q5 0 7.5 2.18a7.88 7.88 0 0 1 2.54 6.3 8.12 8.12 0 0 1-1.78 5.36 8.51 8.51 0 0 1-5 2.84 6.2 6.2 0 0 1 3.72 3.16zm-8.56-16.62a4.23 4.23 0 0 0 0-5.9 6.46 6.46 0 0 0-3.88-.92h-6v7.76h6a6.3 6.3 0 0 0 3.88-.94zm12.06 16.62v-28.2h19.44v4.84h-13.36v6.6h12.56v4.84h-12.56v7.08h13.36v4.84zm27-.45a14.47 14.47 0 0 1-4.92-2.38l2-4.44a15.61 15.61 0 0 0 9.16 2.84 7.83 7.83 0 0 0 4.06-.86 2.64 2.64 0 0 0 1.42-2.38 2.35 2.35 0 0 0-1.3-2.12 17.72 17.72 0 0 0-4.62-1.48 25.28 25.28 0 0 1-5.94-1.84 7.71 7.71 0 0 1-3.24-2.66 7 7 0 0 1-1-3.9 7.69 7.69 0 0 1 1.42-4.56 9.49 9.49 0 0 1 4-3.14 14.44 14.44 0 0 1 5.92-1.14 19.23 19.23 0 0 1 5.78.88 12 12 0 0 1 4.42 2.36l-2 4.44a13.64 13.64 0 0 0-8.16-2.84 6.86 6.86 0 0 0-3.84.94 3 3 0 0 0-1.4 2.58 2.31 2.31 0 0 0 .54 1.58 4.41 4.41 0 0 0 1.8 1.1 26.33 26.33 0 0 0 3.58 1c3.63.8 6.23 1.83 7.82 3.08a6.26 6.26 0 0 1 2.38 5.2 7.44 7.44 0 0 1-3.08 6.3c-2.05 1.54-4.92 2.3-8.6 2.3a21.73 21.73 0 0 1-6.2-.86zm26 0a14.38 14.38 0 0 1-4.92-2.38l2-4.44a15.61 15.61 0 0 0 9.16 2.84 7.83 7.83 0 0 0 4.06-.86 2.64 2.64 0 0 0 1.42-2.38 2.35 2.35 0 0 0-1.3-2.12 17.72 17.72 0 0 0-4.62-1.48 25.28 25.28 0 0 1-5.94-1.84 7.71 7.71 0 0 1-3.24-2.66 7 7 0 0 1-1-3.9 7.69 7.69 0 0 1 1.42-4.56 9.43 9.43 0 0 1 4-3.14 14.44 14.44 0 0 1 5.92-1.14 19.28 19.28 0 0 1 5.78.88 12.07 12.07 0 0 1 4.42 2.36l-2 4.44a13.64 13.64 0 0 0-8.16-2.84 6.86 6.86 0 0 0-3.84.94 2.94 2.94 0 0 0-1.4 2.58 2.31 2.31 0 0 0 .54 1.58 4.41 4.41 0 0 0 1.8 1.1 26.33 26.33 0 0 0 3.58 1q5.43 1.2 7.82 3.08a6.26 6.26 0 0 1 2.38 5.2 7.44 7.44 0 0 1-3.08 6.3c-2.05 1.54-4.92 2.3-8.6 2.3a21.68 21.68 0 0 1-6.2-.86z" fill="#2677ff"/><path d="M3146 910.15c2.93 0 5.12.83 6.55 2.5s2.15 4.18 2.15 7.55v15h-6.25v-14.65a6.47 6.47 0 0 0-1.08-4.15 4.11 4.11 0 0 0-3.37-1.3 5.74 5.74 0 0 0-4.33 1.7 6.32 6.32 0 0 0-1.62 4.55v13.85h-6.25v-24.45h6.1v3.65a8.39 8.39 0 0 1 3.35-3.15 10.11 10.11 0 0 1 4.75-1.1zm25.46 0q5.14 0 7.65 2.5c1.67 1.67 2.5 4.23 2.5 7.7v14.85h-6v-3.75a6.55 6.55 0 0 1-2.67 3 8.08 8.08 0 0 1-4.23 1.1 9.77 9.77 0 0 1-4.45-1 8 8 0 0 1-3.15-2.75 6.94 6.94 0 0 1-1.15-3.9 6.16 6.16 0 0 1 1.38-4.25 8.25 8.25 0 0 1 4.47-2.25 40.57 40.57 0 0 1 8.55-.7h1.25v-1.1a5 5 0 0 0-1.07-3.6 4.88 4.88 0 0 0-3.58-1.1 13.4 13.4 0 0 0-4.07.68 20.62 20.62 0 0 0-4.18 1.87l-1.75-4.3a21.43 21.43 0 0 1 10.45-3zm-1.45 21a5.37 5.37 0 0 0 4.08-1.67 6.07 6.07 0 0 0 1.57-4.33v-1.05h-.9a34.49 34.49 0 0 0-5.2.3 5 5 0 0 0-2.65 1 2.68 2.68 0 0 0-.8 2.05 3.46 3.46 0 0 0 1.1 2.63 4 4 0 0 0 2.84 1.02zm32.06-21q4.4 0 6.55 2.5c1.44 1.67 2.15 4.18 2.15 7.55v15h-6.25v-14.65a6.53 6.53 0 0 0-1.07-4.15 4.13 4.13 0 0 0-3.38-1.3 5.7 5.7 0 0 0-4.32 1.7 6.28 6.28 0 0 0-1.63 4.55v13.85h-6.25v-24.45h6.1v3.65a8.45 8.45 0 0 1 3.35-3.15 10.14 10.14 0 0 1 4.79-1.1zm26.12 25.45a13.5 13.5 0 0 1-6.58-1.55 10.71 10.71 0 0 1-4.37-4.45 14 14 0 0 1-1.55-6.75 13.84 13.84 0 0 1 1.55-6.72 10.72 10.72 0 0 1 4.37-4.43 14.72 14.72 0 0 1 13.15 0 10.62 10.62 0 0 1 4.35 4.43 14.06 14.06 0 0 1 1.53 6.72 14.24 14.24 0 0 1-1.53 6.75 10.61 10.61 0 0 1-4.35 4.45 13.46 13.46 0 0 1-6.53 1.55zm-.05-4.85a5.59 5.59 0 0 0 4.64-2 11.56 11.56 0 0 0 0-11.77 5.49 5.49 0 0 0-4.59-2 5.6 5.6 0 0 0-4.63 2 9.2 9.2 0 0 0-1.62 5.87 9.33 9.33 0 0 0 1.59 5.9 5.58 5.58 0 0 0 4.65 2zm31.6-20.6a10.09 10.09 0 0 1 5.62 1.6 10.6 10.6 0 0 1 3.85 4.53 15.58 15.58 0 0 1 1.38 6.72 15.11 15.11 0 0 1-1.38 6.65 10.08 10.08 0 0 1-9.47 6 9.68 9.68 0 0 1-4.65-1.1 7.66 7.66 0 0 1-3.15-3v12.65h-6.25v-33.45h6.15v3.7a7.63 7.63 0 0 1 3.17-3.17 9.78 9.78 0 0 1 4.77-1.13zm-1.65 20.6a5.61 5.61 0 0 0 4.6-2 8.85 8.85 0 0 0 1.65-5.73 9.35 9.35 0 0 0-1.65-5.9 6.17 6.17 0 0 0-9.23-.05 9.26 9.26 0 0 0-1.62 5.85 9.16 9.16 0 0 0 1.62 5.8 5.57 5.57 0 0 0 4.67 2.03zm28.06-20.6q5.15 0 7.65 2.5c1.67 1.67 2.5 4.23 2.5 7.7v14.85h-5.95v-3.75a6.52 6.52 0 0 1-2.68 3 8 8 0 0 1-4.22 1.1 9.77 9.77 0 0 1-4.45-1 8 8 0 0 1-3.15-2.75 6.94 6.94 0 0 1-1.15-3.9 6.2 6.2 0 0 1 1.37-4.25 8.33 8.33 0 0 1 4.48-2.25 40.57 40.57 0 0 1 8.55-.7h1.25v-1.1a5 5 0 0 0-1.08-3.6 4.84 4.84 0 0 0-3.57-1.1 13.51 13.51 0 0 0-4.08.68 20.79 20.79 0 0 0-4.17 1.87l-1.75-4.3a21.43 21.43 0 0 1 10.45-3zm-1.45 21a5.34 5.34 0 0 0 4.07-1.67 6.07 6.07 0 0 0 1.58-4.33v-1.05h-.9a34.49 34.49 0 0 0-5.2.3 5 5 0 0 0-2.65 1 2.68 2.68 0 0 0-.8 2.05 3.46 3.46 0 0 0 1.1 2.63 4 4 0 0 0 2.84 1.02zm31.9-21a10.12 10.12 0 0 1 5.63 1.6 10.67 10.67 0 0 1 3.85 4.53 15.72 15.72 0 0 1 1.37 6.72 15.25 15.25 0 0 1-1.37 6.65 10.11 10.11 0 0 1-9.48 6 9.74 9.74 0 0 1-4.65-1.1 7.66 7.66 0 0 1-3.15-3v12.65h-6.25v-33.45h6.15v3.7a7.59 7.59 0 0 1 3.18-3.17 9.72 9.72 0 0 1 4.76-1.13zm-1.65 20.6a5.6 5.6 0 0 0 4.6-2 8.85 8.85 0 0 0 1.65-5.73 9.35 9.35 0 0 0-1.65-5.9 6.16 6.16 0 0 0-9.22-.05 9.2 9.2 0 0 0-1.63 5.85 9.1 9.1 0 0 0 1.63 5.8 5.54 5.54 0 0 0 4.65 2.03zm39-6.65h-16.65a7.63 7.63 0 0 0 2.05 5 7 7 0 0 0 5 1.65 11.8 11.8 0 0 0 7.4-2.6l1.8 4.3a13.26 13.26 0 0 1-4.27 2.25 16.34 16.34 0 0 1-5.18.85q-6 0-9.47-3.4-3.47-3.4-3.48-9.3a14.26 14.26 0 0 1 1.5-6.65 10.94 10.94 0 0 1 4.23-4.5 11.9 11.9 0 0 1 6.17-1.6 10.18 10.18 0 0 1 8 3.25q2.93 3.26 2.92 9zm-10.75-9.55a5.28 5.28 0 0 0-4 1.6 7.81 7.81 0 0 0-1.88 4.6h11.3a7 7 0 0 0-1.5-4.62 4.94 4.94 0 0 0-3.87-1.58zm31.86.8l-3.65.35q-6.2.64-6.2 6.3v13.2H3359v-24.45h6v4.3q1.9-4.4 7.85-4.8l1.9-.15zm37.47-4.6h6.1l-9.6 24.45h-5.45l-6-15.75-5.85 15.75h-5.4l-9.65-24.45h6.4l6.25 17 6.25-17h4.5l6.25 17.1zm19.86-.6q5.14 0 7.65 2.5c1.66 1.67 2.5 4.23 2.5 7.7v14.85h-6v-3.75a6.52 6.52 0 0 1-2.68 3 8 8 0 0 1-4.22 1.1 9.74 9.74 0 0 1-4.45-1 7.83 7.83 0 0 1-3.15-2.75 6.94 6.94 0 0 1-1.06-3.8 6.2 6.2 0 0 1 1.37-4.25 8.33 8.33 0 0 1 4.48-2.25 40.44 40.44 0 0 1 8.55-.7h1.25v-1.2a5 5 0 0 0-1.08-3.6 4.86 4.86 0 0 0-3.57-1.1 13.51 13.51 0 0 0-4.08.68 20.55 20.55 0 0 0-4.17 1.87l-1.75-4.3a21.43 21.43 0 0 1 10.45-3zm-1.45 21a5.36 5.36 0 0 0 4.07-1.67 6.07 6.07 0 0 0 1.58-4.33v-1.05h-.9a34.4 34.4 0 0 0-5.2.3 5 5 0 0 0-2.65 1 2.65 2.65 0 0 0-.8 2.05 3.42 3.42 0 0 0 1.1 2.63 3.94 3.94 0 0 0 2.84 1.02zm17.86 4.1V900h6.25v35.2zm12.6 0V900h6.25v35.2zm34.06-11.1h-16.65a7.63 7.63 0 0 0 2.05 5 7 7 0 0 0 5 1.65 11.8 11.8 0 0 0 7.4-2.6l1.8 4.3a13.26 13.26 0 0 1-4.27 2.25 16.34 16.34 0 0 1-5.18.85q-6 0-9.47-3.4-3.47-3.4-3.48-9.3a14.26 14.26 0 0 1 1.5-6.65 10.94 10.94 0 0 1 4.23-4.5 11.9 11.9 0 0 1 6.17-1.6 10.18 10.18 0 0 1 8 3.25q2.93 3.26 2.92 9zm-10.75-9.55a5.28 5.28 0 0 0-4 1.6 7.81 7.81 0 0 0-1.88 4.6h11.3a7 7 0 0 0-1.5-4.62 4.94 4.94 0 0 0-3.87-1.63zm27.9 16.35a18.48 18.48 0 0 0 2.3-.15l-.3 4.65-2.75.15q-5.14 0-7.6-2.37-2.46-2.37-2.45-7.08v-10.7h-4.7v-4.7h4.7v-7.3h6.25v7.3h6.45v4.7h-6.45V926q.05 4.9 4.6 4.9zm6.32-2.6h7v6.9h-7zm23.36 7.3a13.74 13.74 0 0 1-6.68-1.55 10.47 10.47 0 0 1-4.32-4.4 15.33 15.33 0 0 1 .07-13.37 11 11 0 0 1 4.48-4.53 13.58 13.58 0 0 1 6.7-1.6 15.94 15.94 0 0 1 5.07.83 10.76 10.76 0 0 1 4 2.22l-1.8 4.4a12 12 0 0 0-3.28-1.9 9.72 9.72 0 0 0-3.42-.65 6.4 6.4 0 0 0-5 2 10.24 10.24 0 0 0 0 11.6 6.4 6.4 0 0 0 5 2 9.72 9.72 0 0 0 3.42-.65 12 12 0 0 0 3.28-1.9l1.8 4.35a11.32 11.32 0 0 1-4.1 2.28 16.5 16.5 0 0 1-5.17.82zm24.3 0a13.53 13.53 0 0 1-6.58-1.55 10.71 10.71 0 0 1-4.37-4.45 14.13 14.13 0 0 1-1.55-6.75 14 14 0 0 1 1.55-6.72 10.72 10.72 0 0 1 4.37-4.43 14.72 14.72 0 0 1 13.15 0 10.5 10.5 0 0 1 4.35 4.43 14.06 14.06 0 0 1 1.53 6.72 14.24 14.24 0 0 1-1.53 6.75 10.49 10.49 0 0 1-4.35 4.45 13.46 13.46 0 0 1-6.52 1.5zm-.05-4.85a5.62 5.62 0 0 0 4.65-2q1.6-2 1.6-5.9a9.27 9.27 0 0 0-1.6-5.87 5.52 5.52 0 0 0-4.6-2 5.61 5.61 0 0 0-4.63 2 9.2 9.2 0 0 0-1.62 5.87q0 3.9 1.6 5.9a5.56 5.56 0 0 0 4.65 1.95zm46.6-20.6c2.77 0 4.83.83 6.2 2.48s2.05 4.17 2.05 7.57v15h-6.25v-14.8a6.89 6.89 0 0 0-.95-4.07 3.55 3.55 0 0 0-3.05-1.28 4.77 4.77 0 0 0-3.9 1.7 7.29 7.29 0 0 0-1.4 4.75v13.65h-6.25v-14.75a7.07 7.07 0 0 0-.92-4.07 3.56 3.56 0 0 0-3.08-1.28 4.73 4.73 0 0 0-3.85 1.7 7.29 7.29 0 0 0-1.4 4.75v13.65h-6.25v-24.45h6.1v3.45a7.28 7.28 0 0 1 3-3 9.33 9.33 0 0 1 4.45-1q5.55 0 7.35 4.6a8.36 8.36 0 0 1 3.3-3.37 9.48 9.48 0 0 1 4.9-1.28z" fill="url(#D)"/><path d="M2942 60.18h12.08c3.2 0 5.7.77 7.47 2.33a8.37 8.37 0 0 1 2.66 6.63 8.46 8.46 0 0 1-2.69 6.67 10.86 10.86 0 0 1-7.44 2.38h-8.53v12.5H2942zm11.73 15.06q7 0 7-6.1 0-6.1-7-6h-8.18v12.1zm39.53 15.46l-3.38-7.84H2974l-3.38 7.84H2967l13.42-30.52h3.07l13.42 30.52zm-18.05-10.78h13.42l-6.7-15.63zm26.2-19.74h12.08c3.2 0 5.7.77 7.47 2.33a8.37 8.37 0 0 1 2.66 6.63 8.45 8.45 0 0 1-2.68 6.67 10.89 10.89 0 0 1-7.45 2.38H3005v12.5h-3.55zm11.73 15.06q7 0 7-6.1 0-6.1-7-6H3005v12.1zm16.2 15.46V60.18h19.3v2.94h-15.8v10.6h14.94v2.94h-14.94v11.1h15.8v2.94zm49.22 0h-3.9l-5.2-9.8a5.64 5.64 0 0 0-2.23-2.44 7.5 7.5 0 0 0-3.48-.67H3058v12.9h-3.5V60.18h12.56q5 0 7.6 2.2a8.05 8.05 0 0 1 2.62 6.5 8.09 8.09 0 0 1-2 5.73 9.36 9.36 0 0 1-5.73 2.75 5.06 5.06 0 0 1 2.05 1.17 8.18 8.18 0 0 1 1.63 2.21zm-11.77-15.85a8.11 8.11 0 0 0 5.3-1.47 5.49 5.49 0 0 0 1.75-4.46 5.32 5.32 0 0 0-1.73-4.37c-1.15-.95-2.93-1.43-5.32-1.43H3058v11.73zM2971 100.3h4.94l-8.37 23.53h-4.17l-5.44-15.58-5.5 15.58h-4.17l-8.34-23.53h5.27l5.37 16.26 5.7-16.26h3.64l5.5 16.42zm25.83 23.53l-2.23-5.2h-10.95l-2.23 5.2h-5.24L2987 100.3h4.17l10.8 23.53zm-11.48-9.14h7.55l-3.77-8.8zm18.6 9.14V100.3h5.2v19.3h10.5v4.24zm18.8 0V100.3h5.2v19.3h10.5v4.24zm18.8 0V100.3h16.22v4h-11.15v5.5h10.4v4h-10.48v5.9h11.15v4zm25.23 0v-19.3h-7.38v-4.24h20v4.24H3072v19.3z" fill="#36363c"/><path d="M2847 90.45a11.62 11.62 0 0 1-23.23 0c0-8.62-2.9-11.5-11.6-11.5s-11.62 2.87-11.62 11.5A11.62 11.62 0 1 1 2789 79c8.7 0 11.6-2.87 11.6-11.5a11.62 11.62 0 0 1 23.23 0c0 8.62 2.9 11.5 11.62 11.5A11.52 11.52 0 0 1 2847 90.45zm-81.37 34.5a11.49 11.49 0 1 1 11.61-11.48 11.55 11.55 0 0 1-11.58 11.48zm151.17-57.5a11.55 11.55 0 0 1-11.62 11.49c-8.7 0-11.6 2.87-11.6 11.48A11.55 11.55 0 0 1 2882 101.9c-8.7 0-11.6 2.87-11.6 11.5a11.62 11.62 0 1 1-11.62-11.49c8.7 0 11.62-2.87 11.62-11.5A11.54 11.54 0 0 1 2882 78.93c8.7 0 11.62-2.88 11.62-11.5a11.62 11.62 0 0 1 23.23 0z" fill="url(#E)"/><path d="M3692.17 8.1v984.08h-2084v-150H8.1V158.1h1600V8.1h2084m8-8h-2100v150H.1v700.07h1600v150h2100V.1z" fill="#4a90e2"/></svg>