<svg id="Layer_1" data-name="Layer 1" xmlns="http://www.w3.org/2000/svg" xmlns:xlink="http://www.w3.org/1999/xlink" viewBox="0 0 3700 1000"><defs><linearGradient id="linear-gradient" x1="4060.7" y1="-489.92" x2="4060.65" y2="-489.92" gradientTransform="matrix(3680, 0, 0, -980, -14941421.63, -479623.5)" gradientUnits="userSpaceOnUse"><stop offset="0" stop-color="#2020b5"/><stop offset="1" stop-color="#2677ff"/></linearGradient><linearGradient id="linear-gradient-2" x1="4050.48" y1="-418.83" x2="4049.48" y2="-419.08" gradientTransform="matrix(0, -108.69, -58.34, 0, -22502.9, 440669.12)" xlink:href="#linear-gradient"/><linearGradient id="linear-gradient-3" x1="4050.48" y1="-418.83" x2="4049.48" y2="-419.08" gradientTransform="matrix(0, -108.69, -58.34, 0, -21670.9, 440670.11)" xlink:href="#linear-gradient"/><linearGradient id="linear-gradient-4" x1="4058.86" y1="-489.54" x2="4057.86" y2="-490.25" gradientTransform="matrix(1188, 0, 0, -1000, -4820733.72, -489395.81)" xlink:href="#linear-gradient"/></defs><title>instructions</title><g id="instructions"><g id="Rectangle"><path d="M3700,1000H0V0H3700ZM20,980H3680V20H20Z" style="fill:url(#linear-gradient)"/></g><path id="arrow" d="M1914,540.34V439.66a4,4,0,0,1,6.83-2.83l50.34,50.34a4,4,0,0,1,0,5.66l-50.34,50.34a4,4,0,0,1-6.83-2.83Z" style="fill-rule:evenodd;fill:url(#linear-gradient-2)"/><path id="arrow-copy" d="M2746,540.34V439.66a4,4,0,0,1,6.83-2.83l50.34,50.34a4,4,0,0,1,0,5.66l-50.34,50.34a4,4,0,0,1-6.83-2.83Z" style="fill-rule:evenodd;fill:url(#linear-gradient-3)"/><polygon points="0 0 874.45 0 1188 1000 0 1000 0 0" style="fill-rule:evenodd;fill:url(#linear-gradient-4)"/><g id="Group"><g id="NANO-is-digital-curr" style="isolation:isolate"><text transform="translate(100 555)" style="isolation:isolate;font-size:40px;fill:#fff;font-family:NunitoSans-Regular, Nunito Sans">NANO is digital cur<tspan x="343.28" y="0" style="letter-spacing:-0.0099853515625em">r</tspan><tspan x="357" y="0" style="letter-spacing:-0.0000244140625em">ency </tspan><tspan x="450.83" y="0" style="letter-spacing:-0.00498046875em">f</tspan><tspan x="463.75" y="0" style="letter-spacing:0.0000244140625em">or the </tspan><tspan x="578.11" y="0" style="letter-spacing:-0.010009765625em">r</tspan><tspan x="591.83" y="0" style="letter-spacing:-0.0000244140625em">eal </tspan><tspan x="653.71" y="0" style="letter-spacing:-0.0059814453125em">w</tspan><tspan x="687.15" y="0">orld, </tspan></text><text transform="translate(100 609)" style="isolation:isolate;font-size:40px;fill:#fff;font-family:NunitoSans-Regular, Nunito Sans">a <tspan x="31.52" y="0" style="letter-spacing:-0.00499267578125em">f</tspan><tspan x="44.44" y="0">a</tspan><tspan x="65.64" y="0" style="letter-spacing:-0.00499267578125em">s</tspan><tspan x="84.64" y="0">t and f</tspan><tspan x="199.2" y="0" style="letter-spacing:-0.010009765625em">r</tspan><tspan x="212.92" y="0" style="letter-spacing:0.00001220703125em">e</tspan><tspan x="234" y="0" style="letter-spacing:0.010986328125em">e</tspan><tspan x="255.52" y="0">-less to pay </tspan><tspan x="473.07" y="0" style="letter-spacing:-0.00498046875em">f</tspan><tspan x="485.99" y="0">or </tspan><tspan x="532.63" y="0" style="letter-spacing:-0.006005859375em">ev</tspan><tspan x="573.79" y="0" style="letter-spacing:-0.0000244140625em">e</tspan><tspan x="594.87" y="0" style="letter-spacing:0.0300048828125em">r</tspan><tspan x="610.19" y="0" style="letter-spacing:0.010986328125em">y</tspan><tspan x="631.19" y="0">thing in li</tspan><tspan x="794.15" y="0" style="letter-spacing:-0.00498046875em">f</tspan><tspan x="807.07" y="0" style="letter-spacing:-0.0000244140625em">e.</tspan></text></g><g id="You-can-visit-nano.o" style="isolation:isolate"><text transform="translate(100 683)" style="isolation:isolate;font-size:40px;fill:#fff;font-family:NunitoSans-Regular, Nunito Sans"><tspan style="letter-spacing:-0.07598876953125em">Y</tspan><tspan x="21" y="0">ou can visit </tspan></text><text transform="translate(334.64 683)" style="isolation:isolate;font-size:40px;fill:#fff;font-family:NunitoSans-ExtraBold, Nunito Sans;font-weight:800">nan<tspan x="69.44" y="0" style="letter-spacing:-0.00999755859375em">o.</tspan><tspan x="102.56" y="0">o</tspan><tspan x="126.08" y="0" style="letter-spacing:-0.00999755859375em">r</tspan><tspan x="141.72" y="0" style="letter-spacing:-0.00001220703125em">g</tspan></text><text transform="translate(493.6 683)" style="font-size:40px;fill:#fff;font-family:NunitoSans-Regular, Nunito Sans"> </text><text transform="translate(502.24 683)" style="isolation:isolate;font-size:40px;fill:#fff;font-family:NunitoSans-Regular, Nunito Sans">to learn mo<tspan x="201.12" y="0" style="letter-spacing:-0.0099853515625em">r</tspan><tspan x="214.84" y="0">e about i</tspan><tspan x="368.56" y="0" style="letter-spacing:0.0139892578125em">t</tspan><tspan x="382.71" y="0">.</tspan></text></g><g style="isolation:isolate"><text transform="translate(268 470)" style="isolation:isolate;font-size:70px;fill:#fff;font-family:NunitoSans-ExtraBold, Nunito Sans;font-weight:800">What is NANO?</text></g><path id="Combined-Shape" d="M552.27,319a18.28,18.28,0,0,1-36.55,0c0-13.58-4.57-18.1-18.28-18.1s-18.27,4.52-18.27,18.1a18.28,18.28,0,1,1-18.28-18.1c13.71,0,18.28-4.53,18.28-18.11a18.28,18.28,0,0,1,36.55,0c0,13.58,4.57,18.11,18.27,18.11A18.15,18.15,0,0,1,552.27,319Zm-128,54.39a18.11,18.11,0,1,1,18.28-18.11A18.19,18.19,0,0,1,424.23,373.38Zm237.85-90.66a18.18,18.18,0,0,1-18.27,18.11c-13.71,0-18.28,4.53-18.28,18.11a18.18,18.18,0,0,1-18.27,18.11c-13.71,0-18.28,4.53-18.28,18.11a18.28,18.28,0,1,1-18.27-18.11c13.7,0,18.27-4.53,18.27-18.11a18.18,18.18,0,0,1,18.28-18.11c13.7,0,18.27-4.53,18.27-18.11a18.28,18.28,0,0,1,36.55,0Z" style="fill:#fff"/></g><g id="Group-2"><g id="How-can-I-redeem-my" style="isolation:isolate"><text transform="translate(1248 423.16)" style="isolation:isolate;font-size:70px;fill:#2677ff;font-family:NunitoSans-ExtraBold, Nunito Sans;font-weight:800">H<tspan x="53.97" y="0" style="letter-spacing:-0.009995814732142857em">o</tspan><tspan x="94.43" y="0" style="letter-spacing:0.000006975446428571428em">w can I </tspan><tspan x="348.59" y="0" style="letter-spacing:-0.010002790178571428em">r</tspan><tspan x="375.96" y="0">edeem </tspan></text><text transform="translate(1248 503.16)" style="isolation:isolate;font-size:70px;fill:#2677ff;font-family:NunitoSans-ExtraBold, Nunito Sans;font-weight:800">my paper <tspan x="327.8" y="0" style="letter-spacing:-0.0049944196428571425em">w</tspan><tspan x="387.86" y="0">all</tspan><tspan x="463.46" y="0" style="letter-spacing:-0.010002790178571428em">e</tspan><tspan x="500.07" y="0" style="letter-spacing:0.009988839285714285em">t</tspan><tspan x="527.86" y="0">?</tspan></text></g><g style="isolation:isolate"><text transform="translate(1248 572.16)" style="isolation:isolate;font-size:40px;fill:#374041;font-family:NunitoSans-Regular, Nunito Sans">It is <tspan x="72.96" y="0" style="letter-spacing:-0.00999755859375em">r</tspan><tspan x="86.68" y="0">eally simple, ju</tspan><tspan x="345.79" y="0" style="letter-spacing:-0.0050048828125em">s</tspan><tspan x="364.79" y="0">t </tspan><tspan x="388.71" y="0" style="letter-spacing:-0.00498046875em">f</tspan><tspan x="401.63" y="0">oll</tspan><tspan x="442.39" y="0" style="letter-spacing:-0.0059814453125em">o</tspan><tspan x="464.35" y="0">w 3 </tspan></text><text transform="translate(1248 626.16)" style="isolation:isolate;font-size:40px;fill:#374041;font-family:NunitoSans-Regular, Nunito Sans">ea<tspan x="42.28" y="0" style="letter-spacing:-0.008984375em">s</tspan><tspan x="61.12" y="0">y </tspan><tspan x="92" y="0" style="letter-spacing:-0.00498046875em">s</tspan><tspan x="111" y="0" style="letter-spacing:-0.00001220703125em">tep</tspan><tspan x="168.96" y="0" style="letter-spacing:-0.00499267578125em">s</tspan><tspan x="187.96" y="0">.</tspan></text></g></g><g id="Group-3"><g id="Group-2-Copy"><g id="Step-1" style="isolation:isolate"><text transform="translate(2054 282.66)" style="isolation:isolate;font-size:70px;fill:#2677ff;font-family:NunitoSans-ExtraBold, Nunito Sans;font-weight:800;letter-spacing:-0.009995814732142857em">S<tspan x="44.87" y="0" style="letter-spacing:0.000006975446428571428em">tep 1</tspan></text></g><g id="Visit-natrium.io-wit" style="isolation:isolate"><text transform="translate(2054 351.66)" style="isolation:isolate;font-size:40px;fill:#374041;font-family:NunitoSans-Regular, Nunito Sans">Visit </text><text transform="translate(2143.32 351.66)" style="isolation:isolate;font-size:40px;fill:#374041;font-family:NunitoSans-ExtraBold, Nunito Sans;font-weight:800">natrium.io</text><text transform="translate(2325.2 351.66)" style="font-size:40px;fill:#374041;font-family:NunitoSans-Regular, Nunito Sans"> </text><text transform="translate(2334.72 351.66)" style="isolation:isolate;font-size:40px;fill:#374041;font-family:NunitoSans-Regular, Nunito Sans">with <tspan x="89.6" y="0" style="letter-spacing:-0.00599365234375em">y</tspan><tspan x="109.92" y="0">our phone </tspan></text><text transform="translate(2054 405.66)" style="isolation:isolate;font-size:40px;fill:#374041;font-family:NunitoSans-Regular, Nunito Sans">and d<tspan x="100.8" y="0" style="letter-spacing:-0.00599365234375em">o</tspan><tspan x="122.76" y="0">wnload Natrium </tspan><tspan x="420.04" y="0" style="letter-spacing:-0.056005859375em">W</tspan><tspan x="461.83" y="0">all</tspan><tspan x="501.59" y="0" style="letter-spacing:-0.002978515625em">e</tspan><tspan x="522.55" y="0" style="letter-spacing:0.0139892578125em">t</tspan><tspan x="536.71" y="0">.</tspan></text></g></g><g id="Group-2-Copy-2"><g id="Step-2" style="isolation:isolate"><text transform="translate(2054 535.66)" style="isolation:isolate;font-size:70px;fill:#2677ff;font-family:NunitoSans-ExtraBold, Nunito Sans;font-weight:800;letter-spacing:-0.009995814732142857em">S<tspan x="44.87" y="0" style="letter-spacing:0.000006975446428571428em">tep 2</tspan></text></g><g id="Create-a-new-wallet" style="isolation:isolate"><text transform="translate(2054 604.66)" style="isolation:isolate;font-size:40px;fill:#374041;font-family:NunitoSans-Regular, Nunito Sans">C<tspan x="27.08" y="0" style="letter-spacing:-0.0099853515625em">r</tspan><tspan x="40.8" y="0">eate a n</tspan><tspan x="182.32" y="0" style="letter-spacing:-0.00599365234375em">e</tspan><tspan x="203.16" y="0">w </tspan><tspan x="247.16" y="0" style="letter-spacing:-0.008984375em">w</tspan><tspan x="280.48" y="0">all</tspan><tspan x="320.24" y="0" style="letter-spacing:-0.0030029296875em">e</tspan><tspan x="341.2" y="0">t with Natrium. </tspan></text><text transform="translate(2054 658.66)" style="isolation:isolate;font-size:40px;fill:#374041;font-family:NunitoSans-ExtraBold, Nunito Sans;font-weight:800">Do<tspan x="54.04" y="0" style="letter-spacing:-0.014990234375em">n</tspan><tspan x="77.24" y="0" style="letter-spacing:0.0099853515625em">’</tspan><tspan x="88.04" y="0">t </tspan><tspan x="114.68" y="0" style="letter-spacing:-0.00499267578125em">f</tspan><tspan x="129.52" y="0">o</tspan><tspan x="153.04" y="0" style="letter-spacing:-0.00999755859375em">r</tspan><tspan x="168.68" y="0">g</tspan><tspan x="193.36" y="0" style="letter-spacing:-0.0099853515625em">e</tspan><tspan x="214.28" y="0">t to backup </tspan><tspan x="438.75" y="0" style="letter-spacing:-0.0099853515625em">y</tspan><tspan x="459.71" y="0" style="letter-spacing:0.0000244140625em">our </tspan></text><text transform="translate(2054 712.66)" style="isolation:isolate;font-size:40px;fill:#374041;font-family:NunitoSans-ExtraBold, Nunito Sans;font-weight:800">seed!</text><text transform="translate(2148.76 712.66)" style="font-size:40px;fill:#374041;font-family:NunitoSans-Regular, Nunito Sans"> </text><text transform="translate(2151.04 712.66)" style="isolation:isolate;font-size:40px;fill:#374041;font-family:NunitoSans-Regular, Nunito Sans"><tspan xml:space="preserve"> (It is li</tspan><tspan x="114.4" y="0" style="letter-spacing:-0.00899658203125em">k</tspan><tspan x="134.04" y="0">e a </tspan><tspan x="196.96" y="0" style="letter-spacing:-0.00499267578125em">s</tspan><tspan x="215.96" y="0" style="letter-spacing:0.00001220703125em">t</tspan><tspan x="229.56" y="0" style="letter-spacing:-0.00999755859375em">r</tspan><tspan x="243.28" y="0">ong pas</tspan><tspan x="385.64" y="0" style="letter-spacing:-0.0090087890625em">s</tspan><tspan x="404.48" y="0" style="letter-spacing:-0.0059814453125em">w</tspan><tspan x="437.92" y="0" style="letter-spacing:-0.0000244140625em">o</tspan><tspan x="460.12" y="0" style="letter-spacing:-0.0099853515625em">r</tspan><tspan x="473.84" y="0">d </tspan></text><text transform="translate(2054 766.66)" style="isolation:isolate;font-size:40px;fill:#374041;font-family:NunitoSans-Regular, Nunito Sans">to access <tspan x="175.44" y="0" style="letter-spacing:-0.00599365234375em">y</tspan><tspan x="195.76" y="0">our funds)</tspan></text></g></g></g><g id="Group-4"><g id="Group-2-Copy-3"><g id="Step-3" style="isolation:isolate"><text transform="translate(2886 228.34)" style="isolation:isolate;font-size:70px;fill:#2677ff;font-family:NunitoSans-ExtraBold, Nunito Sans;font-weight:800;letter-spacing:-0.009995814732142857em">S<tspan x="44.87" y="0" style="letter-spacing:0.000006975446428571428em">tep 3</tspan></text></g><g id="Open-the-settings-pa" style="isolation:isolate"><text transform="translate(2886 297.34)" style="isolation:isolate;font-size:40px;fill:#374041;font-family:NunitoSans-Regular, Nunito Sans">Open the s<tspan x="194.88" y="0" style="letter-spacing:-0.00299072265625em">e</tspan><tspan x="215.84" y="0" style="letter-spacing:0.00299072265625em">t</tspan><tspan x="229.56" y="0" style="letter-spacing:0.00001220703125em">tings panel, sc</tspan><tspan x="483.51" y="0" style="letter-spacing:-0.010009765625em">r</tspan><tspan x="497.23" y="0" style="letter-spacing:-0.0000244140625em">oll </tspan></text><text transform="translate(2886 351.34)" style="isolation:isolate;font-size:40px;fill:#374041;font-family:NunitoSans-Regular, Nunito Sans">d<tspan x="23.28" y="0" style="letter-spacing:-0.00599365234375em">o</tspan><tspan x="45.24" y="0">wn and tap the “</tspan></text><text transform="translate(3227.4 351.34)" style="font-size:40px;fill:#374041;font-family:NunitoSans-Regular, Nunito Sans"> </text><text transform="translate(3227.64 351.34)" style="isolation:isolate;font-size:40px;fill:#374041;font-family:NunitoSans-ExtraBold, Nunito Sans;font-weight:800"><tspan style="letter-spacing:-0.00499267578125em">L</tspan><tspan x="22.32" y="0">oad </tspan><tspan x="103.36" y="0" style="letter-spacing:-0.0099853515625em">Fr</tspan><tspan x="141.48" y="0" style="letter-spacing:-0.00001220703125em">om </tspan></text><text transform="translate(2886 405.34)" style="isolation:isolate;font-size:40px;fill:#374041;font-family:NunitoSans-ExtraBold, Nunito Sans;font-weight:800;letter-spacing:-0.014990234375em">P<tspan x="26.12" y="0" style="letter-spacing:-0.00001220703125em">aper </tspan><tspan x="121" y="0" style="letter-spacing:-0.05999755859375em">W</tspan><tspan x="163.2" y="0" style="letter-spacing:-0.00001220703125em">all</tspan><tspan x="206.4" y="0" style="letter-spacing:-0.0099853515625em">e</tspan><tspan x="227.32" y="0" style="letter-spacing:0.00001220703125em">t</tspan></text><text transform="translate(3120.76 405.34)" style="font-size:40px;fill:#374041;font-family:NunitoSans-Regular, Nunito Sans"> </text><text transform="translate(3132.2 405.34)" style="isolation:isolate;font-size:40px;fill:#374041;font-family:NunitoSans-Regular, Nunito Sans">” o<tspan x="48.32" y="0" style="letter-spacing:-0.0010009765625em">p</tspan><tspan x="71.56" y="0" style="letter-spacing:0.00001220703125em">tion. Then tap </tspan></text><text transform="translate(2886 459.34)" style="isolation:isolate;font-size:40px;fill:#374041;font-family:NunitoSans-Regular, Nunito Sans">the “</text><text transform="translate(2969.52 459.34)" style="font-size:40px;fill:#374041;font-family:NunitoSans-Regular, Nunito Sans"> </text><text transform="translate(2969.52 459.34)" style="isolation:isolate;font-size:40px;fill:#374041;font-family:NunitoSans-ExtraBold, Nunito Sans;font-weight:800">Scan QR <tspan x="173.28" y="0" style="letter-spacing:-0.00999755859375em">C</tspan><tspan x="200" y="0">ode</tspan></text><text transform="translate(3231.96 459.34)" style="font-size:40px;fill:#374041;font-family:NunitoSans-Regular, Nunito Sans"> </text><text transform="translate(3239.28 459.34)" style="isolation:isolate;font-size:40px;fill:#374041;font-family:NunitoSans-Regular, Nunito Sans">” bu<tspan x="71.84" y="0" style="letter-spacing:0.002978515625em">t</tspan><tspan x="85.56" y="0" style="letter-spacing:0.00001220703125em">ton and </tspan></text><text transform="translate(2886 513.34)" style="isolation:isolate;font-size:40px;fill:#374041;font-family:NunitoSans-Regular, Nunito Sans">scan the QR on <tspan x="283.88" y="0" style="letter-spacing:-0.00599365234375em">y</tspan><tspan x="304.2" y="0" style="letter-spacing:-0.00001220703125em">our paper </tspan><tspan x="486.55" y="0" style="letter-spacing:-0.008984375em">w</tspan><tspan x="519.87" y="0" style="letter-spacing:-0.0000244140625em">all</tspan><tspan x="559.63" y="0" style="letter-spacing:-0.002978515625em">e</tspan><tspan x="580.59" y="0" style="letter-spacing:0.0139892578125em">t</tspan><tspan x="594.75" y="0">.</tspan></text></g></g><g id="Group-2-Copy-4"><g style="isolation:isolate"><text transform="translate(2886 643.34)" style="isolation:isolate;font-size:70px;fill:#2677ff;font-family:NunitoSans-ExtraBold, Nunito Sans;font-weight:800">Done!</text></g><g id="The-NANO-that-was-in" style="isolation:isolate"><text transform="translate(2886 712.34)" style="isolation:isolate;font-size:40px;fill:#374041;font-family:NunitoSans-Regular, Nunito Sans">The NANO that <tspan x="288.56" y="0" style="letter-spacing:-0.0090087890625em">w</tspan><tspan x="321.88" y="0">as in the paper </tspan></text><text transform="translate(2886 766.34)" style="isolation:isolate;font-size:40px;fill:#374041;font-family:NunitoSans-Regular, Nunito Sans"><tspan style="letter-spacing:-0.008984375em">w</tspan><tspan x="33.32" y="0">all</tspan><tspan x="73.08" y="0" style="letter-spacing:-0.00299072265625em">e</tspan><tspan x="94.04" y="0" style="letter-spacing:-0.00001220703125em">t is n</tspan><tspan x="179.48" y="0" style="letter-spacing:-0.00599365234375em">o</tspan><tspan x="201.44" y="0">w </tspan></text><text transform="translate(3132.16 766.34)" style="isolation:isolate;font-size:40px;fill:#374041;font-family:NunitoSans-ExtraBold, Nunito Sans;font-weight:800">trans<tspan x="96.64" y="0" style="letter-spacing:-0.00498046875em">f</tspan><tspan x="111.48" y="0" style="letter-spacing:-0.00001220703125em">er</tspan><tspan x="148.84" y="0" style="letter-spacing:-0.00999755859375em">r</tspan><tspan x="164.48" y="0">ed to </tspan><tspan x="271.64" y="0" style="letter-spacing:-0.00999755859375em">y</tspan><tspan x="292.6" y="0">our </tspan></text><text transform="translate(2886 820.34)" style="isolation:isolate;font-size:40px;fill:#374041;font-family:NunitoSans-ExtraBold, Nunito Sans;font-weight:800">Natrium <tspan x="164.24" y="0" style="letter-spacing:-0.05999755859375em">W</tspan><tspan x="206.44" y="0" style="letter-spacing:-0.00001220703125em">all</tspan><tspan x="249.64" y="0" style="letter-spacing:-0.0099853515625em">e</tspan><tspan x="270.56" y="0">t</tspan></text><text transform="translate(3161.12 820.34)" style="font-size:40px;fill:#374041;font-family:NunitoSans-Regular, Nunito Sans"> </text><text transform="translate(3174.84 820.34)" style="isolation:isolate;font-size:40px;fill:#374041;font-family:NunitoSans-Regular, Nunito Sans">. Enj<tspan x="74.76" y="0" style="letter-spacing:-0.00599365234375em">o</tspan><tspan x="96.72" y="0">y!</tspan></text></g></g></g><g id="Visit-nanopaperwalle" style="isolation:isolate"><text transform="translate(1206 947)" style="isolation:isolate;font-size:40px;fill:#2677ff;font-family:NunitoSans-Regular, Nunito Sans">Visit </text><text transform="translate(1295.32 947)" style="isolation:isolate;font-size:40px;fill:#2677ff;font-family:NunitoSans-ExtraBold, Nunito Sans;font-weight:800">nanopape<tspan x="185.16" y="0" style="letter-spacing:0.0300048828125em">r</tspan><tspan x="202.4" y="0" style="letter-spacing:-0.00499267578125em">w</tspan><tspan x="236.72" y="0">all</tspan><tspan x="279.92" y="0" style="letter-spacing:-0.00999755859375em">e</tspan><tspan x="300.84" y="0" style="letter-spacing:0.02398681640625em">t</tspan><tspan x="317.27" y="0" style="letter-spacing:-0.0099853515625em">.</tspan><tspan x="327.27" y="0">com</tspan><tspan x="405.95" y="0" style="letter-spacing:-0.060009765625em">/</tspan><tspan x="416.79" y="0" style="letter-spacing:-0.0099853515625em">r</tspan><tspan x="432.43" y="0">edeem</tspan></text><text transform="translate(1831.71 947)" style="font-size:40px;fill:#2677ff;font-family:NunitoSans-Regular, Nunito Sans"> </text><text transform="translate(1853.28 947)" style="isolation:isolate;font-size:40px;fill:#2677ff;font-family:NunitoSans-Regular, Nunito Sans">to access these in<tspan x="315.44" y="0" style="letter-spacing:-0.0050048828125em">s</tspan><tspan x="334.44" y="0" style="letter-spacing:0.0000244140625em">tru</tspan><tspan x="384.6" y="0" style="letter-spacing:0.0010009765625em">c</tspan><tspan x="403.79" y="0">tions online.</tspan></text></g></g></svg>