<svg xmlns="http://www.w3.org/2000/svg" xmlns:xlink="http://www.w3.org/1999/xlink" viewBox="0 0 3700.08 1000.08"><defs><radialGradient id="A" cx="-588.85" cy="-3273.64" r="25.96" gradientTransform="matrix(70.62, 0, 0, -70.62, 43434.6, -230684.45)" gradientUnits="userSpaceOnUse"><stop offset=".27" stop-color="#4a90e2"/><stop offset="1" stop-color="#fff"/></radialGradient><linearGradient id="B" x1="590.15" y1="250.85" x2="90.15" y2="750.85" gradientUnits="userSpaceOnUse"><stop offset="0" stop-color="#2020b5"/><stop offset="1" stop-color="#2677ff"/></linearGradient><linearGradient id="C" x1="3628.15" y1="252.1" x2="3128.15" y2="752.1" xlink:href="#B"/><linearGradient id="D" x1="3943.883" y1="921.69" x2="2896.01" y2="922.575" xlink:href="#B"/><linearGradient id="E" x1="2914.725" y1="48.972" x2="2751.935" y2="118.114" xlink:href="#B"/><path id="F" d="M1600,0H3700.08V1000.08H1600v-150H0V150H1600V0Z"/><path id="G" d="M385.22 230.54a14.65 14.65 0 0 1-4.92-2.38l2-4.44a15.68 15.68 0 0 0 9.16 2.84 7.94 7.94 0 0 0 4.06-.86 2.65 2.65 0 0 0 1.42-2.38 2.34 2.34 0 0 0-1.3-2.12 17.34 17.34 0 0 0-4.62-1.48 25.76 25.76 0 0 1-5.94-1.84 7.78 7.78 0 0 1-3.24-2.66 7 7 0 0 1-1-3.9 7.64 7.64 0 0 1 1.42-4.56 9.49 9.49 0 0 1 4-3.14 14.44 14.44 0 0 1 5.92-1.14 18.92 18.92 0 0 1 5.78.88 11.85 11.85 0 0 1 4.42 2.36l-2 4.44a13.64 13.64 0 0 0-8.16-2.84 6.77 6.77 0 0 0-3.84.94 3 3 0 0 0-1.4 2.58 2.31 2.31 0 0 0 .54 1.58 4.52 4.52 0 0 0 1.8 1.1 27.89 27.89 0 0 0 3.58 1c3.63.8 6.23 1.83 7.82 3.08a6.25 6.25 0 0 1 2.38 5.2 7.44 7.44 0 0 1-3.08 6.3q-3.08 2.3-8.6 2.3a22.09 22.09 0 0 1-6.2-.86z"/><path id="H" d="M127.25 790.12a7.88 7.88 0 0 1-3.11-3.28 11.92 11.92 0 0 1 0-10 7.77 7.77 0 0 1 3.11-3.26 10.45 10.45 0 0 1 9.49 0 7.77 7.77 0 0 1 3.11 3.26 11.92 11.92 0 0 1 0 10 7.88 7.88 0 0 1-3.11 3.28 10.36 10.36 0 0 1-9.49 0zm8.35-3.6a7.27 7.27 0 0 0 1.31-4.66 7.19 7.19 0 0 0-1.3-4.64 4.87 4.87 0 0 0-7.22 0 9 9 0 0 0 0 9.3 4.36 4.36 0 0 0 3.59 1.61 4.42 4.42 0 0 0 3.62-1.61z"/><path id="I" d="M242.86 772.7h4V791h-4v-7.7h-8.45v7.7h-4v-18.3h4v7.4h8.45z"/></defs><use xlink:href="#F" fill-rule="evenodd" fill="url(#A)"/><g fill="#fff"><path d="M1600 937.1a547.33 547.33 0 0 1 48.08 63h-2.95a543.41 543.41 0 0 0-45.13-59.27v-3.73zm487.85 63c-119.07-110.86-163.26-191.2-199-356-110.48 121.7-187.77 169.88-338.4 206h-10.65c157.5-36.48 235.43-84.16 348.82-209.44l1.6-1.76.5 2.33c35.9 166.73 80 246.95 200.7 358.88h-3.6z"/><path d="M1600.43 958.22c16.1 14.64 30.24 28.4 42.75 41.86h-3.37c-11.74-12.52-24.9-25.33-39.78-38.9v-5.4c112-24.4 164.35-54.9 241.84-140.52l1.6-1.76.5 2.33c17.78 82.63 38.66 132.95 81.82 184.24h-3.2c-42.15-50.56-62.92-100.5-80.52-181.4-77.06 84.76-129.72 115.16-241.66 139.52zM1759.4 0c123.7 113.86 168.8 194.08 205.13 361.73 117.7-129.67 197.72-175.87 368.86-213C2274.64 95.43 2233 49.84 2201.63 0h2.93c31.5 49.65 73.27 95.17 132.23 148.54l1.77 1.6-2.33.5c-172.94 37.22-252.8 83.34-371.5 214.5l-1.62 1.77-.5-2.34C1926.13 195 1881.1 115 1755.77 0h3.62z"/><path d="M1926 0c45.42 52.56 67.08 103.16 85.34 187.08C2088.38 102.33 2141 71.92 2253 47.56c-18.4-16.7-34.23-32.28-48-47.56h3.32c13.8 15.17 29.65 30.67 48.06 47.33l1.76 1.6-2.33.5c-113.7 24.5-166.23 54.8-244.3 141.06l-1.6 1.77-.52-2.33C1991 104.25 1969.2 53.33 1922.7 0zm-483.77 739.68c25.83 40.13 46.38 76 62.46 110.38h-2.7c-16.23-34.58-37-70.6-63.1-111l-1.3-2 2.4.12c22.8 1.13 43.2 1.68 62.4 1.68 134.3 0 219.8-27.38 351.94-112.7l2-1.3-.12 2.37c-8 159.63 10.77 247.75 85.23 372.9h-2.84c-73.77-124.32-92.6-212.45-85-370.63-131.45 84.6-217.1 111.8-351.26 111.8-18.57 0-38.27-.5-60.15-1.58zm360.67 260.4c-34.94-67.4-44-123.14-39.66-214.05C1701 826 1654.33 846.4 1600 854.67v-2.47c54.38-8.35 101.14-29 163.9-69.54l2-1.27-.12 2.4c-4.6 92.3 4.36 148.22 39.87 216.3zM1911.4 0c76.6 127.35 96.1 215.74 88.35 376.32 131.46-84.6 217.12-111.8 351.27-111.8 18.57 0 38.27.5 60.15 1.56C2346.5 165.6 2314.84 92.13 2303.93 0h2.48c11 92.22 42.9 165.74 108.12 266.76l1.3 2-2.38-.1c-22.8-1.15-43.2-1.7-62.4-1.7-134.28 0-219.8 27.38-352 112.7l-2 1.3.12-2.4c8.07-162-11.35-250.4-88.65-378.6h2.86z"/><path d="M2047.5 0c37.42 70 47.1 126.3 42.66 219.74 86.22-55.4 142.58-73.23 230.73-73.23 12 0 24.72.34 38.8 1-35.82-55.74-56.18-98.9-65.94-147.52h2.53c9.86 48.7 30.46 92 66.76 148.2l1.3 2-2.4-.13c-15-.73-28.42-1.1-41.06-1.1-88.3 0-144.5 18-231.4 74.12l-2 1.3.13-2.38c4.72-94.84-4.87-151.3-42.88-222h2.78zm-650.05 606.22c31 96.6 44 168.25 39.06 243.84h-2.5c4.94-76-8.27-147.9-39.65-245.36l-.74-2.28 2.28.74c88.47 28.5 152.62 40.66 214.48 40.66s126-12.17 214.48-40.66l2.27-.74-.73 2.28c-50.5 156.83-54 247.6-10.38 395.38h-2.55c-43.32-147.2-40-238.1 9.87-393.86-87.55 28-151.35 40-213 40s-125.4-12-213-40zm202.58 386q5.2-.12 10.38-.12a508.79 508.79 0 0 1 88.16 8h-15.48a493.91 493.91 0 0 0-72.68-5.49q-5.17 0-10.38.1v-2.45z"/><path d="M1416.48 734.07c14.23 44.52 22.65 81 25.27 116h-2.48c-2.66-35.36-11.28-72.24-25.85-117.5l-.73-2.28 2.28.73c58.18 18.74 100.36 26.73 141 26.73s82.84-8 141-26.73l2.27-.75-.72 2.3c-34 105.75-35.52 165.82-4.52 267.5h-2.56c-30.75-101.08-29.4-161.32 4.07-266-57.28 18.3-99.12 26.14-139.52 26.14s-82.25-7.83-139.53-26.14zm183.55 256a452.52 452.52 0 0 1 50.39 10h-10.32c-14.15-3.32-27.4-5.8-40.07-7.55v-2.47zM2038.22 0c45.07 150.57 42.35 241.8-8.2 399.55 87.55-28.06 151.35-40.05 213-40.05s125.4 12 213 40.05c-50.55-157.77-53.27-249-8.2-399.55h2.57c-45.4 151.16-42.54 242.22 8.6 401.08l.73 2.26-2.27-.72C2369 374.13 2304.86 362 2243 362s-126 12.16-214.48 40.65l-2.27.72.73-2.26c51.15-158.84 54-249.9 8.7-401.07zM2360 0c-42.83 9.37-80.32 13.62-117 13.62-36.7 0-74.2-4.25-117-13.62h11.88c38 7.67 71.9 11.18 105.14 11.18 33.25 0 67.16-3.5 105.15-11.18z"/><path d="M2160.2 0c32.54 104.55 31.77 165.06-2.3 271.7 57.27-18.3 99.1-26.13 139.52-26.13s82.25 7.83 139.52 26.13c-34.1-106.65-34.86-167.16-2.32-271.7h2.57c-32.82 105.15-31.88 165.48 2.8 273.22l.73 2.28-2.27-.75C2380.25 256 2338.07 248 2297.4 248s-82.85 8-141 26.74l-2.28.75.74-2.28c34.7-107.72 35.62-168 2.82-273.22h2.55zm252.58 0c-45.3 13.06-80.86 18.76-115.37 18.76-34.5 0-70-5.7-115.36-18.76h9.05c41.15 11.32 74.2 16.3 106.32 16.3s65.18-5 106.32-16.3zM1600 935c28.13 14.3 57.63 31.6 89.9 52.35-8.46-174.9 15.46-264.18 110.24-411.45-21.9 1.08-41.6 1.6-60.18 1.6-134.13 0-219.77-27.2-351.24-111.82 7.92 163.94-12.6 252.63-93.22 384.36h-2.88c81.37-132.58 101.77-221.2 93.54-386.62l-.13-2.37 2 1.3c132.14 85.32 217.65 112.72 351.9 112.72 19.2 0 39.63-.56 62.44-1.7l2.38-.12-1.3 2c-96 148.6-119.82 237.66-111 414.36l.12 2.38-2-1.3c-32.54-21-62.24-38.5-90.56-53v-2.75z"/><path d="M1572.38 850.06c6.13-64.8 26.78-114.58 71.2-183.68-14.1.65-26.8 1-38.8 1-88.14 0-144.52-17.84-230.73-73.23 5.18 108.94-8.84 167.4-63.64 255.93h-2.87c55.54-89.4 69.44-147.8 63.94-258.2l-.12-2.38 2 1.3c86.9 56.1 143.14 74.14 231.42 74.14 12.63 0 26-.36 41.06-1.1l2.38-.13-1.3 2c-45 69.67-65.87 119.44-72.06 184.37zm541.02-421.82c134.13 0 219.8 27.23 351.25 111.83-8.44-174.9 15.47-264.18 110.25-411.43-21.88 1.05-41.57 1.57-60.14 1.57-134.14 0-219.8-27.2-351.28-111.82 8.44 174.92-15.47 264.2-110.25 411.43 21.9-1.05 41.6-1.58 60.17-1.58zm353.93 116.47l-2-1.3c-132.13-85.3-217.65-112.7-351.93-112.7-19.2 0-39.62.56-62.43 1.7l-2.37.1 1.28-2c96-148.6 119.83-237.7 111-414.37l-.12-2.4 2 1.3c132.16 85.33 217.68 112.72 352 112.72 19.2 0 39.6-.56 62.4-1.7l2.37-.1-1.3 2c-96 148.63-119.82 237.7-111 414.4l.12 2.37z"/><path d="M2248.63 338.42c88.15 0 144.52 17.84 230.73 73.23-5.44-114.43 10.3-173.18 72.24-269.54-14.08.65-26.8 1-38.82 1-88.13 0-144.5-17.84-230.73-73.23 5.44 114.45-10.3 173.2-72.22 269.56 14.08-.67 26.8-1 38.8-1zM2482 416.28l-2-1.28c-86.9-56.1-143.12-74.13-231.4-74.13-12.63 0-26.07.37-41.06 1.1l-2.38.13 1.3-2c63.1-97.72 78.8-156.3 73-272.5l-.12-2.37 2 1.3c86.9 56.1 143.12 74.1 231.38 74.1 12.65 0 26.1-.36 41.07-1.1l2.38-.1-1.3 2c-63.1 97.72-78.78 156.3-73 272.5l.12 2.37zM1203.72 696.62c141.9 30.76 221.16 67.8 311.2 153.44h-3.57c-89.4-84.5-168.63-121-310.46-151.55l-2.34-.5 1.77-1.6c131.15-118.7 177.26-198.56 214.48-371.5l.5-2.35 1.6 1.8c118.7 131.15 198.57 177.26 371.5 214.48l2.33.5-1.77 1.6c-114.3 103.45-164 177.4-199.52 309.13h-2.54c35.5-132 85-206.2 198.64-309.35-171.12-37.1-251.15-83.3-368.86-213-37.1 171.14-83.3 251.17-213 368.88z"/><path d="M1229.73 689.64c111.94 24.38 164.6 54.78 241.66 139.53 24.36-111.93 54.77-164.6 139.53-241.66-111.92-24.37-164.6-54.75-241.67-139.5-24.34 111.94-54.76 164.6-139.5 241.66zm243 144.72l-1.6-1.78c-78.05-86.25-130.56-116.55-244.28-141.05l-2.34-.5 1.76-1.58c86.25-78.07 116.57-130.6 141-244.3l.5-2.33 1.6 1.77c78.07 86.23 130.58 116.56 244.3 141.05l2.32.5-1.77 1.6c-86.24 78.06-116.55 130.56-141 244.3l-.5 2.34zm595.1-369.3C2239 502.17 2319 548.38 2436.7 678c37.1-171.12 83.3-251.16 213-368.86-171.12-37.1-251.15-83.3-368.87-213-37.1 171.15-83.32 251.18-213 368.88zM2438.1 683.2l-1.6-1.76C2317.78 550.3 2237.92 504.18 2065 467l-2.34-.5 1.77-1.6c131.15-118.7 177.26-198.57 214.5-371.5l.5-2.33 1.6 1.78c118.72 131.12 198.57 177.18 371.5 214.45l2.33.5-1.77 1.6c-131.16 118.7-177.26 198.6-214.5 371.5l-.5 2.33z"/><path d="M2242.5 418.27c111.93 24.35 164.6 54.76 241.66 139.53 24.35-111.94 54.76-164.6 139.53-241.67-111.94-24.36-164.6-54.76-241.66-139.54-24.36 112-54.78 164.64-139.53 241.68zm243 144.7l-1.6-1.77c-78.06-86.25-130.57-116.56-244.3-141l-2.33-.5 1.76-1.62c86.25-78.05 116.56-130.55 141-244.3l.5-2.32 1.6 1.75c78.05 86.25 130.56 116.56 244.28 141.05l2.33.5-1.76 1.6c-86.24 78.06-116.57 130.56-141 244.3l-.52 2.34zM1178.22 502.9c155.7 80.14 221 145.48 301.18 301.2 80.13-155.7 145.47-221.05 301.18-301.2-155.7-80.13-221-145.48-301.18-301.18-80.14 155.7-145.48 221.05-301.18 301.18zm301.18 306.55l-1.1-2.12C1397.58 649.9 1332.38 584.7 1175 504l-2.13-1.1 2.13-1.08c157.4-80.72 222.6-145.95 303.33-303.34l1.1-2.14 1.08 2.14c80.73 157.4 145.93 222.62 303.33 303.34l2.13 1.08-2.13 1.1c-157.4 80.72-222.6 145.93-303.33 303.34l-1.08 2.12z"/><path d="M1205.15 502.9c101.85 52.5 144.85 95.5 197.3 197.3C1455 598.4 1498 555.4 1599.78 502.9 1498 450.4 1455 407.4 1402.46 305.56 1350 407.4 1307 450.4 1205.15 502.9zm197.3 202.68l-1.1-2.1c-53.08-103.52-96-146.4-199.46-199.5l-2.13-1.08 2.13-1.1c103.5-53.1 146.4-96 199.46-199.46l1.1-2.12 1.08 2.12c53.1 103.5 96 146.37 199.48 199.46l2.1 1.1-2.13 1.1c-103.52 53.1-146.4 96-199.47 199.5l-1.1 2.1zm670.37-202.68c155.7 80.14 221 145.48 301.2 301.2 80.13-155.7 145.46-221 301.17-301.2-155.7-80.13-221-145.48-301.17-301.18-80.15 155.7-145.5 221.05-301.2 301.18zM2374 809.44l-1.1-2.12C2292.2 649.9 2227 584.7 2069.58 504l-2.12-1.1 2.12-1.08c157.4-80.72 222.6-145.93 303.33-303.34l1.1-2.14 1.1 2.14c80.72 157.4 145.92 222.62 303.32 303.34l2.12 1.08-2.12 1.1c-157.42 80.7-222.6 145.9-303.32 303.3l-1.1 2.12z"/><path d="M2253.63 502.9c101.82 52.5 144.8 95.5 197.3 197.32 52.5-101.8 95.5-144.8 197.32-197.32-101.82-52.5-144.8-95.5-197.3-197.33-52.5 101.85-95.5 144.83-197.32 197.33zm197.3 202.68l-1.1-2.1c-53.08-103.52-96-146.4-199.46-199.47l-2.12-1.1 2.12-1.1c103.5-53.07 146.38-96 199.47-199.46l1.1-2.12 1.1 2.12c53.07 103.5 96 146.37 199.45 199.46l2.12 1.1-2.12 1.08c-103.5 53.08-146.38 96-199.46 199.5l-1.1 2.1zm-1247.2-396.42c129.65 117.7 175.86 197.73 213 368.87 117.7-129.65 197.73-175.86 368.86-213C1670.3 360.43 1621 285.57 1585.4 150h2.54c35.64 135.33 85.1 209.92 201 314.83l1.78 1.62-2.33.5c-172.94 37.2-252.8 83.3-371.5 214.48l-1.6 1.75-.5-2.33c-37.23-172.94-83.34-252.8-214.5-371.5l-1.77-1.6 2.34-.5c145-31.2 224.54-68.67 316.42-157.24h3.53c-92.52 89.72-172.12 127.7-317.1 159.14z"/><path d="M1229.73 316.13c84.76 77.05 115.17 129.73 139.52 241.67C1446.3 473 1499 442.62 1610.9 418.26c-84.75-77.05-115.16-129.73-139.53-241.65-77.06 84.75-129.7 115.16-241.65 139.52zM1367.86 563l-.5-2.34c-24.5-113.7-54.8-166.23-141-244.3l-1.77-1.6 2.34-.5c113.72-24.5 166.23-54.8 244.3-141l1.6-1.75.5 2.32c24.5 113.73 54.8 166.25 141 244.3l1.77 1.62-2.32.5C1500 444.65 1447.53 475 1369.47 561.2l-1.6 1.77zm699.98-22.3c129.66 117.7 175.86 197.74 213 368.88 117.7-129.65 197.73-175.87 368.87-213-129.65-117.7-175.86-197.74-213-368.88-117.7 129.7-197.7 175.9-368.87 213zm211.6 374.06l-.5-2.34c-37.23-172.94-83.34-252.78-214.5-371.5l-1.77-1.6 2.34-.5c172.92-37.25 252.77-83.34 371.5-214.5l1.6-1.78.5 2.34c37.24 172.94 83.34 252.8 214.5 371.5l1.76 1.6-2.33.5C2479.58 735.75 2399.73 781.86 2281 913l-1.6 1.77z"/><path d="M2242.5 587.5c84.76 77.07 115.17 129.73 139.53 241.7 77.06-84.78 129.72-115.18 241.65-139.55-84.76-77.06-115.17-129.72-139.52-241.64-77.07 84.77-129.74 115.18-241.66 139.52zm138.14 246.85l-.5-2.34c-24.5-113.7-54.8-166.23-141-244.3l-1.76-1.6 2.33-.5c113.7-24.48 166.22-54.8 244.3-141l1.6-1.77.5 2.33c24.48 113.74 54.8 166.24 141 244.3l1.75 1.58-2.32.5c-113.72 24.5-166.23 54.8-244.3 141.05l-1.6 1.78zM1292 150c83.54 134.88 104.77 223.75 96.74 390.05 131.45-84.6 217.1-111.83 351.25-111.83 18.57 0 38.28.53 60.17 1.58-94.78-147.24-118.7-236.5-110.24-411.43-32.26 20.76-61.76 38.06-89.9 52.35V68c28.3-14.44 58-31.93 90.56-52.94l2-1.3-.12 2.4c-8.8 176.7 15.07 265.77 111 414.37l1.3 2-2.38-.1c-22.8-1.14-43.23-1.7-62.43-1.7-134.27 0-219.8 27.4-351.92 112.7l-2 1.3.12-2.37c8.35-167.78-12.75-256.56-97-392.32h2.84z"/><path d="M1306.84 150c57.74 91.75 72.5 150.37 67.2 261.63 86.22-55.4 142.58-73.23 230.73-73.23 12 0 24.7.34 38.8 1-45.7-71.1-66.24-121.75-71.68-189.4h2.46c5.5 67.76 26.28 118.38 72.57 190.08l1.3 2-2.38-.12c-15-.73-28.42-1.1-41.07-1.1-88.27 0-144.5 18-231.4 74.12l-2 1.3.12-2.38c5.6-112.74-9-171.24-67.52-263.9zm746.4 425.94c94.8 147.27 118.7 236.54 110.24 411.45 131.52-84.6 217.12-111.8 351.26-111.8 18.57 0 38.28.5 60.17 1.58-94.77-147.25-118.7-236.53-110.24-411.43-131.47 84.57-217.13 111.8-351.26 111.8-18.57 0-38.27-.5-60.17-1.58zM2160.8 992l.1-2.37c8.8-176.7-15.07-265.78-111-414.37l-1.28-2 2.37.13c22.82 1.13 43.24 1.7 62.43 1.7 134.28 0 219.78-27.4 351.94-112.73l2-1.3-.12 2.38c-8.8 176.7 15.08 265.75 111 414.36l1.3 2-2.37-.13c-22.8-1.13-43.22-1.7-62.43-1.7-134.27 0-219.8 27.4-351.93 112.7l-2 1.3z"/><path d="M2209.83 666.38c61.93 96.36 77.67 155.1 72.22 269.52 86.2-55.4 142.58-73.2 230.7-73.2 12 0 24.74.33 38.84 1-61.94-96.38-77.68-155.12-72.24-269.54-86.2 55.38-142.58 73.22-230.73 73.22-12 0-24.7-.33-38.78-1zm69.54 274.17l.12-2.37c5.78-116.2-9.9-174.76-73-272.5l-1.3-2 2.4.13c15 .75 28.42 1.12 41 1.12 88.28 0 144.52-18 231.4-74.13l2-1.3-.1 2.4c-5.8 116.16 9.9 174.74 73 272.47l1.3 2-2.38-.13c-15-.73-28.44-1.1-41.1-1.1-88.26 0-144.5 18-231.37 74.12l-2 1.3zM1436.1 150c6 77.7-6.94 150.52-38.66 249.54 87.56-28.06 151.36-40.05 213-40.05s125.4 12 213 40.05c-50.56-157.74-53.28-249-8.2-399.55h2.56c-45.35 151.17-42.46 242.23 8.68 401.07l.74 2.26-2.27-.72c-88.53-28.47-152.68-40.6-214.55-40.6s-126 12.16-214.47 40.65l-2.28.72.73-2.26c32.17-99.9 45.25-173 39.25-251.06h2.47zM1727.45 0c-42.84 9.37-80.33 13.62-117 13.62-3.44 0-6.9 0-10.36-.1V11.1l10.36.12c33.27 0 67.2-3.5 105.2-11.2z"/><path d="M1442.12 150c-2.1 36.75-10.63 74.76-25.63 121.7 57.27-18.3 99.1-26.13 139.52-26.13s82.25 7.83 139.52 26.13c-34.08-106.64-34.85-167.16-2.32-271.7h2.57c-32.8 105.15-31.9 165.48 2.8 273.22l.73 2.28-2.28-.75C1638.86 256 1596.68 248 1556 248s-82.86 8-141 26.74l-2.28.75.74-2.28c15.35-47.7 24.1-86.1 26.22-123.2zM1671.38 0c-26.54 7.65-49.74 12.78-71.35 15.7v-2.47A478.92 478.92 0 0 0 1662.33 0zM2243 992.13a508.77 508.77 0 0 1 88.15 8h-15.47a483 483 0 0 0-145.36 0h-15.48a508.71 508.71 0 0 1 88.16-8zm203.1 8c-43.3-147.2-40-238.1 9.88-393.86-87.55 28-151.36 40-213 40-61.6 0-125.4-12-212.94-40 49.9 155.74 53.2 246.66 9.88 393.86h-2.56c43.58-147.78 40.12-238.55-10.38-395.38l-.74-2.28 2.28.74c88.47 28.5 152.6 40.66 214.46 40.66 61.88 0 126-12.17 214.5-40.66l2.27-.72-.73 2.26c-50.5 156.85-54 247.6-10.4 395.38h-2.55z"/><path d="M2297.4 987c29 0 58.74 4 94.4 13.07h-10.34c-31.2-7.33-57.95-10.63-84.06-10.63s-52.87 3.3-84.08 10.63H2203c35.66-9 65.4-13.07 94.4-13.07zm135.44 13.07c-30.73-101.08-29.38-161.3 4.08-266-57.28 18.3-99.12 26.13-139.52 26.13s-82.26-7.83-139.53-26.13c33.46 104.7 34.8 164.93 4.07 266h-2.56c31-101.7 29.5-161.75-4.57-267.5l-.73-2.3 2.28.74c58.18 18.73 100.36 26.72 141 26.72s82.84-8 141-26.72l2.28-.74-.73 2.3c-34.07 105.76-35.6 165.82-4.57 267.5h-2.57zm-930.46-735.55c134.14 0 219.8 27.22 351.26 111.8-7.76-160.58 11.77-249 88.36-376.32h2.86c-77.3 128.2-96.72 216.53-88.65 378.6l.1 2.38-2-1.3C1722.17 294.35 1636.66 267 1502.38 267c-19.2 0-39.6.55-62.4 1.7l-2.4.1 1.3-2c27.54-42.66 49.14-80.42 65.74-116.75h2.7c-16.45 36.17-37.83 73.72-65.08 116.06 21.88-1.05 41.58-1.56 60.15-1.56z"/><path d="M1592.4 150c57.62 7.48 105.72 27.9 170.85 69.73C1758.8 126.32 1768.48 70 1805.9 0h2.78c-38 70.7-47.6 127.15-42.9 222l.12 2.38-2-1.3c-75.15-48.54-127.37-68.56-197.22-73.08zm-99.7 0l-1.23.06-2.4.13.12-.2zm811.93 850.08c11.53-89.48 43.2-162 106.55-260.38-21.88 1-41.57 1.57-60.13 1.57-134.16 0-219.83-27.2-351.3-111.82 7.64 158.16-11.2 246.3-85 370.63H1912c74.46-125.15 93.18-213.27 85.24-372.9l-.12-2.37 2 1.3c132.14 85.33 217.66 112.7 352 112.7 19.2 0 39.6-.55 62.4-1.68l2.38-.1-1.3 2c-63.88 99-95.8 171.5-107.42 261.07h-2.48z"/><path d="M2295 1000.08c10.18-46.33 30.33-88.27 64.74-141.83-14.06.7-26.78 1-38.78 1-88.15 0-144.52-17.83-230.74-73.22 4.33 90.9-4.72 146.65-39.66 214.05h-2.77c35.5-68.08 44.47-124 39.87-216.3l-.12-2.4 2 1.3c86.88 56.1 143.13 74.12 231.4 74.12 12.63 0 26-.37 41-1.12l2.38-.12-1.3 2c-34.88 54-55.26 96.07-65.55 142.5H2295zM1525.76 150c167.2 36.9 246.75 83.52 363.12 211.73C1925.23 194.1 1970.3 113.88 2094 0h3.63c-125.3 115-170.36 195-206.86 364.6l-.5 2.34-1.6-1.8C1770 234 1690.1 187.88 1517.17 150.66l-2.33-.5.14-.13h10.78zm126-150A542.1 542.1 0 0 1 1600 68.66v-3.72A538.24 538.24 0 0 0 1648.83 0z"/><path d="M1600.43 47.56c111.93 24.36 164.6 54.77 241.66 139.53 18.26-83.93 39.9-134.53 85.34-187.1h3.26c-46.5 53.3-68.27 104.24-86.7 189.93l-.52 2.33-1.6-1.77C1764.4 104.88 1712.05 74.37 1600 50v-5.4c17.13-15.62 32-30.25 45-44.6h3.32c-13.76 15.27-29.6 30.84-48 47.56zm604.87 952.52c31-47.64 71.6-91.77 128.1-143.06-171.15-37.1-251.17-83.32-368.87-213-35.73 164.86-79.93 245.16-199 356h-3.6c120.66-111.93 164.82-192.16 200.7-358.88l.5-2.33 1.6 1.76c118.7 131.15 198.55 177.26 371.5 214.5l2.33.5-1.77 1.6c-56.7 51.33-97.5 95.4-128.55 142.85h-2.95z"/><path d="M2210.22 1000.08c12.52-13.46 26.65-27.22 42.76-41.87-111.94-24.36-164.6-54.76-241.66-139.52-17.6 80.9-38.37 130.83-80.52 181.4h-3.2c43.17-51.3 64.05-101.6 81.83-184.24l.5-2.33 1.6 1.78c78.06 86.23 130.56 116.55 244.28 141l2.34.5-1.77 1.6c-16.1 14.58-30.27 28.27-42.8 41.64zm-584.7-944.5c155.7 80.12 221 145.48 301.18 301.2 80.13-155.72 145.47-221.08 301.17-301.2-36.68-18.9-68.34-36.95-96.37-55.57h4.5c27.73 18.2 59 35.93 95.16 54.47l2.1 1.1-2.1 1.08c-157.4 80.72-222.6 146-303.33 303.34l-1.1 2.12-1.1-2.12c-80.7-157.4-145.9-222.62-303.32-303.34l-2.12-1.08 2.12-1.1c36.15-18.54 67.43-36.26 95.16-54.47h4.46c-28 18.6-59.7 36.68-96.38 55.56z"/><path d="M1768.37 0c74.88 44.1 113.08 88.17 158.33 175.93C1972 88.18 2010.15 44.12 2085 0h4.86c-77.4 44.94-115.86 89.1-162.07 179.2l-1.1 2.12-1.1-2.12C1879.42 89.1 1840.94 44.94 1763.52 0zm-142.85 950.2c32.94 16.95 61.82 33.25 87.67 49.87h-4.55c-25.5-16.23-54-32.18-86.36-48.78l-2.12-1.1 2.12-1.1c157.4-80.7 222.6-145.92 303.32-303.34l1.1-2.12 1.1 2.12c80.7 157.42 145.92 222.63 303.32 303.35l2.12 1.08-2.12 1.1c-32.37 16.6-60.83 32.55-86.34 48.78h-4.56c25.84-16.62 54.72-32.92 87.66-49.87-155.7-80.14-221-145.48-301.17-301.18-80.13 155.7-145.47 221-301.18 301.18zm450.05 49.88c-68.72-42.3-105.56-86.26-148.86-170.26-43.3 84-80.16 128-148.88 170.26h-4.7c71.08-43.06 108.24-87.2 152.48-173.48l1.1-2.13 1.1 2.13c44.24 86.27 81.4 130.42 152.48 173.48zM1926.7 619.45l-.85-.83-132-132 1.73-1.72 131.1 131.1 131.1-131.1 1.74 1.72-132.86 132.83z"/><path d="M2057.8 522.08l-131.1-131.1-131.1 131.1-1.73-1.7 132.85-132.84.85.84 132 132-1.74 1.7z"/><path d="M2298.7 860.83L1940.77 502.9l.83-.86 357.1-357.08 1.73 1.73-356.24 356.2 356.22 356.2-1.7 1.75zm-736.58-10.77L1909.2 502.9 1556.37 150h3.48l351.94 352 .82.86-.82.85-346.18 346.33h-3.5z"/><path d="M1896.53 615.48l-.6-1-93.32-161.65 2.13-1.2 92.68 160.58 160.55-92.72 1.24 2.12-162.63 93.9z"/><path d="M2048.36 555.34l-92.7-160.56-160.55 92.72-1.24-2.12 162.64-93.9.6 1 93.32 161.65-2.12 1.2z"/><path d="M2193.37 944.92L1940.3 506.56l1-.6 437.36-252.54 1.22 2.14-436.28 251.87 251.9 436.26-2.12 1.25zm-718.62-192.56l-1.2-2.12 436.26-251.87-251.9-436.27 2.1-1.23 253.06 438.4-1 .6-437.32 252.5z"/><path d="M1868.42 603.84l-.33-1.14-48.3-180.3 2.37-.62 48 179.1 179.08-48 .65 2.38-181.44 48.6z"/><path d="M2030.63 585.05l-48-179.08-179.07 48-.65-2.36 181.44-48.6.32 1.15 48.3 180.3-2.37.6z"/><path d="M2069.88 998.9l-131-488.97 1.16-.32 487.8-130.7.6 2.37-486.6 130.36 130.4 486.6-2.36.65zm-644.3-372.02l-.6-2.37 486.58-130.37-130.4-486.6 2.36-.66 130.98 488.96-1.15.33-487.77 130.7z"/><path d="M1920.64 585.8a5622.19 5622.19 0 0 1-75.16-.48h-1.2V397.48h2.45v185.4h185.4v2.45l-111.47.48z"/><path d="M2008.27 609.17h-2.44v-185.4c-48.82-.6-89.06-.6-185.4 0v-2.46h187.84v187.85z"/><path d="M1936.52 1000.08l.12-487.24h506.2v2.46c-262.7-1.7-371.37-1.7-503.74 0l-.1 484.83zm-224.4-505.86c-76.66 0-169.72-.43-301.56-1.26v-2.45h503.74l.08-490.5h2.45l-.1 492.92h-1.2l-203.4 1.26z"/><path d="M2007.18 609.8l-181.42-48.64.24-1.17 48.32-180.3 2.35.66-48 179.08 179.1 48-.62 2.38z"/><path d="M1978 626.66l-2.36-.64 48-179.1-179.08-48 .62-2.37 181.42 48.63-.3 1.16-48.3 180.3z"/><path d="M1803.75 1000.08l130-485 1.16.3 487.78 130.7-.65 2.35-486.58-130.4-129.18 482h-2.52zm115.9-509.38l-488.93-131 .65-2.37 486.56 130.4L2048.3 1.13l2.37.63-131 488.93z"/><path d="M1976.78 627l-162.64-93.93.6-1 93.3-161.65 2.12 1.24-92.72 160.55L1978 624.88l-1.2 2.1z"/><path d="M1944.2 635.7l-2.12-1.24 92.72-160.55-160.57-92.7 1.2-2.14 162.63 93.95-.57 1-93.33 161.64z"/><path d="M1679.37 956.08l-2.13-1.2 253.1-438.36 1 .6 437.33 252.5-1.24 2.1-436.25-251.9-251.86 436.3zm243.68-466.78l-1-.6-437.32-252.5 1.23-2.12 436.25 251.9L2174 49.72l2.13 1.2-253.1 438.35z"/><path d="M1943 635.7l-132.83-132.84.83-.86 132-132 1.72 1.74-131.1 131.1 131.1 131.08-1.72 1.74z"/><path d="M1909.23 635.7l-1.72-1.74 131.1-131.08-131.1-131.1 1.73-1.74 132 132 .82.86-.82.86-132 132z"/><path d="M2282.9 876.62L1926.7 520.4l-330 329.66h-3.47l333.44-333.1L2284.6 874.9l-1.75 1.74zM1926.7 488.8l-.85-.84-338.2-338h3.45l335.6 335.36 356.2-356.22 1.74 1.72-357.92 358.02z"/><path d="M1908 635.4l-93.9-162.64 1-.6 161.64-93.33 1.2 2.12-160.57 92.7 92.72 160.55-2.1 1.22z"/><path d="M1875.45 626.68l-1.2-2.13 160.56-92.7-92.7-160.55 2.1-1.25 93.9 162.7-1 .6-161.64 93.32z"/><path d="M2174 956.08l-251.85-436.3-436.23 251.9-1.23-2.1 438.3-253.1.6 1 252.5 437.35-2.14 1.22zM1930.35 489.3l-.6-1-252.5-437.35 2.13-1.2L1931.23 486l436.25-251.9 1.24 2.12-438.34 253.06z"/><path d="M1874.36 626.05l-48.3-180.3-.3-1.16 1.15-.32 180.27-48.3.62 2.38-179.08 48 48 179.1-2.36.65z"/><path d="M1845.17 609.2l-.63-2.4 179.1-48-48-179.1 2.37-.65 48.6 181.47-1.14.3-180.28 48.3z"/><path d="M2047.12 1000.08l-129.17-482-486.57 130.4-.65-2.36 488.94-131 .32 1.15 129.66 483.86zM1933.74 490.7l-.32-1.15-130.7-487.8 2.37-.62 130.37 486.6 486.57-130.4.65 2.36-488.94 131z"/><path d="M1844.26 608.3V420.46h187.83v2.44c-96.6-.6-136.84-.62-185.4 0v185.4h-2.45z"/><path d="M1931.88 584.93c-28.36 0-62.73-.16-111.45-.46V582h185.4V396.6h2.44v187.85h-1.2l-75.18.46z"/><path d="M1914.44 1000.08l-.1-484.82c-132.17-1.67-240.84-1.67-503.74 0v-2.46h506.2l.12 487.25zm226.76-505.86c-76.8 0-137.07-.43-203.33-1.26h-1.2L1936.56 0h2.44l.07 490.5h503.75v2.5l-301.64 1.26z"/><path d="M1822.16 584l-2.37-.6 48.63-181.45 1.16.3 180.27 48.3-.64 2.36-179.08-48-48 179.1z"/><path d="M1984.38 602.78l-1.16-.3-180.3-48.3.66-2.37 179.07 48 48-179.1 2.37.62-48.62 181.43z"/><path d="M1783.52 998.9l-2.36-.66 130.4-486.6-486.6-130.35.62-2.37 488.94 131.03-.3 1.15-130.7 487.8zm644.3-372.02L1938.9 495.84l.3-1.15L2069.9 6.9l2.36.65-130.4 486.6 486.58 130.4-.6 2.36z"/><path d="M1804.74 554.18l-2.14-1.18 93.93-162.65 1 .57 161.65 93.33-1.25 2.12-160.55-92.72-92.68 160.58z"/><path d="M1956.55 614.32l-1-.6-161.64-93.3 1.23-2.1L1955.7 611l92.68-160.58 2.13 1.22-93.93 162.7z"/><path d="M1660 944.92l-2.1-1.24 251.9-436.26-436.26-251.88 1.2-2.13 438.37 253.1-.58 1.06-252.5 437.34zm718.65-192.56l-438.33-253.1.6-1 252.46-437.4 2.12 1.25-251.88 436.26 436.26 251.87-1.22 2.12z"/><path d="M2057.8 520.86l-131.1-131.12-131.08 131.12-1.74-1.72 132.85-132.83.85.83 132 132-1.75 1.72z"/><path d="M1926.7 618.24L1793.85 485.4l1.74-1.7 131.08 131.1 131.1-131.1 1.75 1.7-132.85 132.85z"/><path d="M1562.13 850.06l347.1-347.17-352.85-352.87h3.48l352.83 352.86-.83.86-346.18 346.3zm736.57 10.77L1940.8 502.9l.84-.86 357.07-357.08 1.7 1.73-356.2 356.2 356.2 356.2-1.7 1.75zm-84.3-855.9c-2.53 0-6.9-1.36-14.56-4.92h6.34c4.78 2 8.08 3 8.94 2.2.2-.4 0-1.16-.5-2.2h2.67c.64 1.74.58 3-.16 3.88a3.22 3.22 0 0 1-2.71 1zm120.35 91.6c-5.14 0-18.46-10.84-62.7-54.9l1.83-1.85c15.45 15.4 56.48 56.26 61 54.16 1.68-2-6.06-18.4-13.56-34.27-7.95-16.86-17.83-37.8-25.95-59.67h2.77c8 21.45 17.72 42 25.54 58.57 11.7 24.78 16.3 34.93 12.68 37.48a2.64 2.64 0 0 1-1.6.48z"/><path d="M2282.83 49.9c-60.9-35.3-70.83-43.6-69.22-48A3.25 3.25 0 0 1 2216 0h10c6.25.7 15.07 2.26 27 4.42 46.7 8.44 122.46 22.15 159.66-4.42h4.34c-37.1 30-116.13 15.72-164.4 7-17.27-3.13-35.13-6.35-36.6-4.2-.85 4.88 49.23 33.93 68.1 44.87l-1.3 2.23zm143.97 166.2c-4.67 0-14.05-12.34-47.14-69.38l2.26-1.3c10.84 18.7 39.48 68.1 44.75 68.1h.13c2.15-1.45-1.1-19.32-4.2-36.6C2413.37 126 2398 41 2434.84 6.86a111.18 111.18 0 0 1 .67-6.85h2.62a109.52 109.52 0 0 0-.73 7.54v.52l-.4.37c-36.28 32.88-21 117.47-11.84 168 4.88 27 6.7 38 2.55 39.5a2.6 2.6 0 0 1-.89.16zm-994.87 633.96l-3.67-20.76c-4.87-27-6.68-38-2.54-39.48s11.86 7.35 42.78 60.24h-3c-13.1-22.42-34.72-58.54-38.9-57.8-2.13 1.45 1.1 19.33 4.22 36.58l3.75 21.22zM1600 998.66l.73.13 7.13 1.3H1600v-1.42zm35.37 1.42c-5.25-5.07-20.28-14.67-35.37-23.8v-3c25.14 15.16 35.4 22.56 38.65 26.84z"/><path d="M2387.93 157.5c-49.68-49.85-57.13-60.46-54.43-64.28 2.54-3.62 12.7 1 37.48 12.67 46.46 21.92 124.25 58.6 165.38 32l.44-.3.53.1c64 12.92 91.34-37.2 107.7-67.13 7.13-13 11.87-21.68 17.27-20.83 6 .9 11.4 12.07 22.45 68.28l-2.54.5c-6.66-33.8-13.73-65.2-20.3-66.22-3.63-.57-8.72 8.74-14.6 19.5-16.68 30.48-44.53 81.44-110 68.54-42.48 26.8-120.66-10.1-167.46-32.17-15.87-7.48-32.28-15.23-34.25-13.5-2.1 4.48 38.77 45.5 54.14 60.94l-1.83 1.83z"/><path d="M2484.64 355.4c-4.62 0-10.2-12.48-28.23-79.3l2.5-.67c5.7 21.05 20.78 76.94 25.74 77.38 2.45-.85 4-18.95 5.4-36.43 4.27-51.55 11.42-137.72 55.86-161.1 21.55-63.16 79.63-61.8 114.34-61 12.26.3 22.84.54 24.18-2.88 2.4-6.22-21.25-28-47.18-50.68l1.7-2c43.13 37.7 50.13 47.9 47.9 53.58-2 5.12-11.82 4.9-26.68 4.54-34.1-.8-91.17-2.15-112 59.7l-.16.5-.48.24c-43.55 22.38-50.67 108.05-54.92 159.24-2.26 27.3-3.36 38.42-7.75 38.8h-.24zM1304.87 850.06l.5-1.4.47-.24c43.56-22.37 50.68-108.07 54.94-159.26 2.26-27.3 3.36-38.4 7.75-38.8 4.64-.48 10.12 11.33 28.46 79.27l-2.5.67c-5.68-21-20.76-76.93-25.73-77.36-2.44.85-3.94 18.94-5.38 36.43-4.27 51.24-11.38 136.68-55.1 160.67h-3.4z"/><path d="M1463.65 850.06l1.8-1.8 1.8 1.8zM2758.5 327.4l-2.6-.17c2.33-34.36 3.63-66.53-2.46-69.22-3.4-1.5-10.7 6.2-19.15 15.07-24 25.15-64.1 67.16-124 37.75-48 14.88-113.94-41-153.4-74.42-13.4-11.33-27.26-23-29.6-21.93-3.2 3.8 25.66 54 36.52 72.9l-2.25 1.3c-35.07-61-39.53-73.18-35.93-76.18 3.37-2.83 12 4.25 32.9 21.94 39.22 33.2 104.83 88.76 151.45 73.78l.5-.18.48.24c58.44 29 97.86-12.28 121.4-37 10.27-10.75 17-17.87 22.1-15.64 5.57 2.45 7.87 14.62 4 71.76z"/><path d="M2504.45 505a2.1 2.1 0 0 1-.43-.05c-4.62-.8-6.84-13.57-7-84h2.6c.05 21.8.16 79.7 4.85 81.4 2.56-.2 8.7-17.28 14.63-33.8 17.48-48.67 46.68-130 95.64-141.15 37.18-55.43 92.9-39.08 126.23-29.3 11.77 3.46 21.92 6.44 24.1 3.46 3.93-5.36-13.28-32.57-32.46-61.16l2.15-1.45c31.92 47.56 36 59.25 32.4 64.15-3.26 4.44-12.67 1.68-26.94-2.52-32.73-9.6-87.5-25.66-123.63 28.7l-.3.43-.5.1c-47.86 10.33-76.9 91.25-94.27 139.6-8.94 24.94-12.93 35.5-17.1 35.52zM1118.6 766.83c-31.9-47.56-36-59.24-32.4-64.15 3.25-4.44 12.68-1.68 26.94 2.5 32.74 9.62 87.53 25.68 123.6-28.68l.3-.43.52-.1c47.87-10.33 76.9-91.26 94.28-139.6 9.26-25.8 13.22-36.24 17.54-35.47 4.62.8 6.84 13.55 7 83.94h-2.6c0-21.8-.16-79.7-4.83-81.4-2.58.2-8.7 17.28-14.63 33.78-17.48 48.7-46.7 130.06-95.68 141.16-37.15 55.44-92.9 39.08-126.2 29.3-11.8-3.46-22-6.44-24.13-3.48-3.93 5.38 13.28 32.58 32.47 61.18l-2.16 1.45z"/><path d="M1426 793.92c-4.3 0-13.2-7.37-31.16-22.56-39.2-33.2-104.8-88.72-151.42-73.76l-.5.16-.47-.23c-58.46-29-97.86 12.28-121.4 37-10.26 10.75-17 17.86-22.08 15.66-5.58-2.47-7.87-14.64-4-71.78l2.6.18c-2.32 34.36-3.63 66.53 2.47 69.2 3.37 1.5 10.68-6.18 19.15-15.06 24-25.13 64.06-67.16 124-37.72 48-14.9 113.93 41 153.4 74.4 13.38 11.35 27.23 23.07 29.6 21.93 3.2-3.8-25.67-54-36.52-72.9l2.25-1.3c35.08 61 39.53 73.2 35.93 76.2a2.69 2.69 0 0 1-1.78.61zm1349.58-245.24l-2.46-.85c11.15-32.6 20.73-63.33 15.53-67.48-2.87-2.3-11.93 3.2-22.4 9.6-29.67 18.07-79.27 48.3-129.52 4.35h-2c-49.47 0-97.82-69.7-126.9-111.62-9.84-14.2-20-28.86-22.78-28.86a.25.25 0 0 0-.12 0c-4.06 2.84 10.8 58.8 16.42 79.86l-2.52.66c-18.08-68-19.24-80.92-15-82.88 4-1.85 10.48 7.2 26.1 29.7 29.3 42.22 78.38 112.86 127.2 110.45h.54l.4.35c48.95 43.16 97.7 13.46 126.84-4.28 12.7-7.74 21.07-12.86 25.37-9.42 4.74 3.83 3.8 16.16-14.7 70.37z"/><path d="M2484.9 654.5a2.55 2.55 0 0 1-1.06-.22c-4.26-2-3.1-14.88 15-82.9l2.52.67c-5.6 21.06-20.48 77-16.4 79.87 2.47.42 12.9-14.44 22.9-28.85 29.08-41.92 77.43-111.62 126.88-111.62h2c50.25-43.9 99.85-13.72 129.52 4.38 10.47 6.36 19.5 11.88 22.4 9.6 5.18-4.18-4.4-34.92-15.53-67.5l2.45-.83c18.5 54.2 19.45 66.53 14.7 70.36-4.3 3.44-12.68-1.68-25.36-9.4-29.15-17.74-77.9-47.44-126.85-4.3l-.38.36h-2.98c-48.08 0-95.94 69-124.73 110.5-14.32 20.6-21 30-25.07 30zM1077.82 548.68c-18.52-54.2-19.45-66.55-14.7-70.36 4.28-3.44 12.67 1.66 25.37 9.4 29.13 17.76 77.9 47.46 126.82 4.3l.4-.34h.54c48.93 2.35 97.9-68.24 127.2-110.45 15.6-22.5 22.1-31.58 26.1-29.7 4.25 2 3.1 14.86-15 82.87l-2.5-.67c5.6-21.05 20.47-77 16.4-79.86-2.5-.43-12.87 14.43-22.88 28.86-29.48 42.5-78.77 113.44-128.93 111.57-50.24 43.94-99.83 13.7-129.5-4.36-10.47-6.4-19.52-11.9-22.4-9.6-5.2 4.16 4.4 34.9 15.53 67.5l-2.45.85z"/><path d="M1368.5 654.5c-4.1 0-10.74-9.35-25.06-30-29.28-42.2-78.22-112.86-127.18-110.44h-.53l-.4-.35c-48.95-43.16-97.7-13.46-126.84 4.3-12.7 7.73-21.1 12.83-25.37 9.4-4.76-3.8-3.82-16.17 14.7-70.36l2.45.85c-11.12 32.58-20.7 63.32-15.53 67.48 2.9 2.3 11.93-3.2 22.4-9.58 29.68-18.08 79.27-48.3 129.52-4.37 50.16-1.9 99.44 69.1 128.92 111.58 10 14.4 20.43 29.3 22.9 28.84 4.06-2.84-10.8-58.8-16.42-79.86l2.5-.67c18.1 68 19.24 80.93 15 82.9a2.63 2.63 0 0 1-1.07.22zm1366.3 112.33l-2.15-1.45c19.2-28.6 36.4-55.8 32.48-61.16-2.2-3-12.36 0-24.13 3.46-33.33 9.77-89.07 26.1-126.22-29.3-49-11.1-78.2-92.46-95.66-141.16-5.9-16.5-12.07-33.57-14.65-33.77-4.66 1.7-4.77 59.58-4.82 81.38h-2.6c.13-70.4 2.35-83.15 7-83.94 4.34-.74 8.26 9.68 17.53 35.47 17.35 48.34 46.4 129.27 94.28 139.6l.52.1.3.43c36.1 54.37 90.9 38.3 123.62 28.7 14.26-4.2 23.7-7 26.94-2.52 3.6 4.9-.5 16.6-32.4 64.15z"/><path d="M2427.44 793.9a2.67 2.67 0 0 1-1.77-.6c-3.6-3 .85-15.18 35.92-76.2l2.26 1.3c-10.87 18.9-39.72 69.1-36.5 72.9 2.32 1.07 16.17-10.6 29.58-22 39.48-33.32 105.46-89.24 153.4-74.32 59.9-29.42 100 12.6 124 37.74 8.47 8.88 15.8 16.55 19.15 15.06 6.1-2.67 4.8-34.85 2.47-69.2l2.6-.18c3.86 57.15 1.57 69.3-4 71.77-5 2.2-11.8-4.9-22.08-15.65-23.55-24.68-63-66-121.4-37l-.46.22-.5-.16c-46.6-15-112.24 40.57-151.44 73.77-17.94 15.2-26.84 22.54-31.15 22.54zM1094.9 327.4c-3.85-57.14-1.56-69.3 4-71.76 5-2.23 11.8 4.9 22.08 15.64 23.55 24.7 63 66 121.4 37l.47-.24.5.15c46.63 15 112.25-40.56 151.46-73.75 20.9-17.7 29.53-24.77 32.92-21.94 3.6 3-.86 15.16-35.92 76.18l-2.26-1.3c10.85-18.9 39.7-69.1 36.5-72.9-2.32-1.15-16.18 10.6-29.57 21.95-35 29.62-90.8 76.86-136.44 76.86a57 57 0 0 1-17-2.45c-59.9 29.4-100-12.6-124-37.74-8.47-8.88-15.8-16.55-19.15-15.07-6.1 2.68-4.8 34.85-2.47 69.2l-2.6.18z"/><path d="M1348.93 505c-4.17 0-8.14-10.6-17.1-35.52-17.37-48.36-46.4-129.27-94.27-139.6l-.5-.1-.3-.44c-36.12-54.37-90.9-38.3-123.63-28.7-14.26 4.18-23.7 6.94-26.93 2.5-3.6-4.9.48-16.6 32.4-64.16l2.16 1.45c-19.2 28.6-36.4 55.8-32.46 61.18 2.17 3 12.34 0 24.12-3.46 33.3-9.8 89-26.13 126.22 29.3 49 11.1 78.18 92.48 95.65 141.14 5.92 16.53 12.06 33.6 14.66 33.8 4.67-1.7 4.77-59.62 4.8-81.4h2.6c-.13 70.4-2.36 83.16-7 84a2.18 2.18 0 0 1-.44 0zM2639 967l-1.7-2c25.92-22.65 49.6-44.48 47.2-50.68-1.34-3.43-11.94-3.17-24.2-2.9-34.74.8-92.8 2.2-114.34-61-44.43-23.37-51.6-109.55-55.87-161.1-1.46-17.5-2.95-35.57-5.4-36.43-4.94.43-20 56.33-25.7 77.36l-2.5-.67c18.35-68 23.9-79.67 28.47-79.28 4.38.4 5.48 11.5 7.75 38.8 4.25 51.2 11.37 136.88 54.94 159.26l.48.24.16.5c20.8 61.86 77.88 60.52 112 59.7 14.86-.35 24.68-.6 26.67 4.54 2.22 5.7-4.76 15.9-47.9 53.6z"/><path d="M2661.55 956c-5.13 0-9.74-8.42-16.53-20.9-16.35-29.93-43.73-80-107.7-67.13l-.5.1-.44-.27c-41.16-26.55-118.9 10.13-165.37 32-24.78 11.68-34.94 16.28-37.5 12.7-2.7-3.84 4.75-14.45 54.43-64.32l1.83 1.85c-15.37 15.44-56.25 56.46-54.14 61 2 1.67 18.4-6.06 34.26-13.54 46.78-22.08 125-58.95 167.43-32.17 65.5-12.9 93.32 38 110 68.54 5.88 10.75 11 20.06 14.6 19.5 6.58-1 13.64-32.43 20.3-66.2l2.54.5c-11.07 56.2-16.42 67.36-22.45 68.28a3.54 3.54 0 0 1-.73.07zM1465.47 157.5l-1.84-1.83 5.63-5.66h3.64l-7.43 7.5z"/><path d="M1368.76 355.4h-.23c-4.4-.38-5.5-11.5-7.76-38.8-4.26-51.2-11.37-136.86-54.93-159.23l-.48-.25-.16-.5a108.04 108.04 0 0 0-2.46-6.6h2.8c.68 1.7 1.33 3.46 2 5.28 44.42 23.4 51.58 109.54 55.86 161.1 1.46 17.5 3 35.58 5.42 36.43 4.94-.43 20-56.33 25.7-77.37l2.52.68c-18 66.8-23.62 79.3-28.24 79.3zm1066.18 644.68l-.1-1.16c-36.86-34.1-21.47-119.18-12.28-170.08 3.14-17.25 6.36-35.13 4.2-36.58a.3.3 0 0 0-.13 0c-5.25 0-33.88 49.4-44.73 68.1l-2.24-1.3c35.3-60.9 43.6-70.85 48-69.2 4.13 1.52 2.32 12.5-2.56 39.48-9.14 50.57-24.44 135.17 11.85 168.05l.4.35v.53c0 .62.1 1.23.14 1.84h-2.6zm-31.94 0c-37.42-17.68-99.86-7.7-142.8 0h-14.62l7.13-1.3c44.87-8.1 116.3-21 155.95 1.3H2403zm-188.23 0c4.3-5.68 20.9-16.82 68.1-44.2l1.3 2.25c-16.48 9.56-56.8 32.94-66.14 42h-3.28zM1600 29.5c19-11.5 37.87-23.7 37.35-26.73-1.47-2.14-19.35 1.08-36.6 4.22l-.73.14V4.5h.27c12-2.16 20.8-3.72 27-4.42h10.05a3.21 3.21 0 0 1 2.4 1.88c1.3 3.56-5 9.7-39.76 30.64v-3z"/><path d="M1426.6 216.1a2.85 2.85 0 0 1-.88-.15c-4.14-1.53-2.33-12.52 2.54-39.5l4.62-26.44h2.63l-4.7 26.9c-3.12 17.27-6.35 35.14-4.2 36.6 4.55.75 29.83-42.2 42.2-63.5h3c-31.53 54.22-40.65 66.1-45.23 66.1zm870.92 783.98c7.67-19.8 16.53-38.6 23.8-54 7.5-15.86 15.23-32.27 13.53-34.25-4.53-2.18-45.5 38.76-61 54.15l-1.83-1.85c49.86-49.66 60.47-57.14 64.3-54.4 3.6 2.53-1 12.7-12.68 37.48-7.12 15.1-15.8 33.5-23.36 52.87h-2.8zM1639 4.93a3.25 3.25 0 0 1-2.73-1c-.74-.88-.8-2.14-.16-3.88h2.7c-.52 1.05-.72 1.8-.52 2.23.86.72 4.14-.22 8.9-2.23h6.36c-7.67 3.56-12 4.92-14.54 4.92z"/></g><ellipse cx="1927.36" cy="503.54" rx="136" ry="136.01" fill="#4a90e2"/><g fill="#fff"><path d="M1940.6 499.5a13 13 0 0 1-25.91 0c0-9.72-3.24-13-13-13s-13 3.24-13 13a13 13 0 1 1-13-13c9.72 0 13-3.24 13-13a13 13 0 0 1 25.92 0c0 9.72 3.23 13 13 13a12.93 12.93 0 0 1 12.99 13z" fill-rule="evenodd"/><circle cx="1849.83" cy="525.45" r="12.96"/><path d="M2018.46,473.54a13,13,0,0,1-13,13c-9.72,0-13,3.24-13,13a12.94,12.94,0,0,1-13,12.95c-9.72,0-13,3.24-13,13a13,13,0,1,1-13-13c9.72,0,13-3.24,13-12.95a13,13,0,0,1,13-13c9.72,0,13-3.24,13-13a13,13,0,0,1,25.91,0Z" fill-rule="evenodd"/></g><use xlink:href="#F" fill="none" stroke="#4a90e2" stroke-miterlimit="2.61313009262085" stroke-width=".189"/><path d="M99.2 257.2h483.66v483.66H99.2z" fill="#fff"/><path d="M111 259a10 10 0 0 0-10 10v460a10 10 0 0 0 10 10h460a10 10 0 0 0 10-10V269a10 10 0 0 0-10-10zm0-10h460a20 20 0 0 1 20 20v460a20 20 0 0 1-20 20H111a20 20 0 0 1-20-20V269a20 20 0 0 1 20-20z" fill="url(#B)"/><g fill="#2677ff"><path d="M202.7 202.84h13q4.6 0 7.16 2.32a9.48 9.48 0 0 1 0 13q-2.55 2.32-7.16 2.32h-6.72V231h-6.28zm12.16 12.88q4.68 0 4.68-4a3.83 3.83 0 0 0-1.16-3.08 5.25 5.25 0 0 0-3.52-1h-5.92v8.12zm39 15.28h-6.8l-4.88-9a3.87 3.87 0 0 0-1.44-1.5 4.32 4.32 0 0 0-2.12-.46h-3.08v11h-6.16v-28.2h13q5 0 7.5 2.18a7.82 7.82 0 0 1 2.54 6.3 8.14 8.14 0 0 1-1.78 5.36 8.48 8.48 0 0 1-5 2.84 6.17 6.17 0 0 1 3.72 3.16zm-8.56-16.62a4.23 4.23 0 0 0 0-5.9 6.46 6.46 0 0 0-3.88-.92h-6v7.76h6a6.3 6.3 0 0 0 3.88-.9zM257.38 231v-28.2h6.24V231zm32.44-28.16h6.32L283.46 231h-5l-12.72-28.2h6.48l8.8 20.44zM317 231l-2.68-6.24h-13.14L298.5 231h-6.28l13-28.2h5l13 28.2zm-13.76-11h9l-4.52-10.56zm25.14 11v-23.08h-8.84v-5.08h23.92v5.08h-8.84V231zm18.32 0v-28.2h19.44v4.84h-13.36v6.6h12.56v4.84h-12.56v7.08h13.36V231z"/><use xlink:href="#G"/><path d="M407.5 231v-28.2h19.44v4.84h-13.36v6.6h12.56v4.84h-12.56v7.08h13.36V231zm23.68 0v-28.2h19.44v4.84h-13.36v6.6h12.56v4.84h-12.56v7.08h13.36V231zm23.68-28.16h11a17.34 17.34 0 0 1 7.92 1.68 11.71 11.71 0 0 1 5.08 4.84 15.36 15.36 0 0 1 1.76 7.56 15.58 15.58 0 0 1-1.74 7.58 11.6 11.6 0 0 1-5.06 4.86 17.45 17.45 0 0 1-8 1.68h-11zM465.38 226q9 0 9-9.08 0-9.08-9-9h-4.28V226zM103.76 772.7h7.12a11.25 11.25 0 0 1 5.12 1.09 7.61 7.61 0 0 1 3.3 3.15 9.88 9.88 0 0 1 1.15 4.91 10.17 10.17 0 0 1-1.13 4.93 7.56 7.56 0 0 1-3.29 3.16 11.35 11.35 0 0 1-5.18 1.09h-7.12zm6.84 15c3.9 0 5.85-2 5.85-5.9s-2-5.87-5.85-5.87h-2.78v11.77z"/><use xlink:href="#H"/><path d="M163.35 772.7h3.8V791h-3L155 779.37V791h-3.76v-18.3h3l9.12 11.62z"/><use xlink:href="#H" x="47.19"/><path d="M194.4 791v-15h-5.75v-3.3h15.55v3.3h-5.75v15zm21.6-.28a9.64 9.64 0 0 1-3.2-1.55l1.3-2.9a10.18 10.18 0 0 0 5.95 1.85 5.13 5.13 0 0 0 2.64-.56 1.73 1.73 0 0 0 .93-1.55 1.52 1.52 0 0 0-.85-1.38 11.49 11.49 0 0 0-3-1 17.08 17.08 0 0 1-3.86-1.19 5.11 5.11 0 0 1-2.11-1.73 4.61 4.61 0 0 1-.66-2.54 5 5 0 0 1 .92-3 6.13 6.13 0 0 1 2.59-2 9.28 9.28 0 0 1 3.85-.74 12.35 12.35 0 0 1 3.75.57 7.68 7.68 0 0 1 2.88 1.53l-1.3 2.9a8.85 8.85 0 0 0-5.31-1.85 4.47 4.47 0 0 0-2.49.61 1.92 1.92 0 0 0-.91 1.68 1.48 1.48 0 0 0 .35 1 2.86 2.86 0 0 0 1.17.71 16.41 16.41 0 0 0 2.33.65 13 13 0 0 1 5.08 2 4.08 4.08 0 0 1 1.54 3.38 4.82 4.82 0 0 1-2 4.1 9.15 9.15 0 0 1-5.59 1.49 14.36 14.36 0 0 1-4-.48z"/><use xlink:href="#I"/><path d="M264.44 791l-1.74-4h-8.53l-1.74 4h-4.1l8.43-18.33H260l8.44 18.33zm-8.95-7.12h5.88l-2.94-6.87zm30.37 7.12h-4.42l-3.17-5.85a2.38 2.38 0 0 0-.94-1 2.81 2.81 0 0 0-1.37-.3h-2V791h-4v-18.3h8.42a7.29 7.29 0 0 1 4.88 1.42 5.09 5.09 0 0 1 1.65 4.09 5.32 5.32 0 0 1-1.16 3.49 5.54 5.54 0 0 1-3.26 1.84 4.06 4.06 0 0 1 2.42 2.06zm-5.56-10.8a2.75 2.75 0 0 0 0-3.84 4.17 4.17 0 0 0-2.52-.6h-3.88v5.05h3.88a4.16 4.16 0 0 0 2.52-.57zm7.85 10.8v-18.3h12.64v3.15h-8.7v4.3h8.17v3.14h-8.17v4.6h8.7v3.1zm26.85 0v-15h-5.75v-3.3h15.55v3.3h-5.75v15z"/><use xlink:href="#I" x="96.48"/><path d="M346.93 791v-18.3H351V791zm10.07-.28a9.49 9.49 0 0 1-3.19-1.55l1.3-2.9a10.21 10.21 0 0 0 6 1.85 5.18 5.18 0 0 0 2.64-.56 1.74 1.74 0 0 0 .92-1.55 1.53 1.53 0 0 0-.84-1.38 11.74 11.74 0 0 0-3-1 17.08 17.08 0 0 1-3.86-1.19 5.07 5.07 0 0 1-2.1-1.73 4.54 4.54 0 0 1-.67-2.54 5 5 0 0 1 .93-3 6 6 0 0 1 2.58-2 9.28 9.28 0 0 1 3.85-.74 12.46 12.46 0 0 1 3.76.57 7.71 7.71 0 0 1 2.87 1.53l-1.3 2.9a8.85 8.85 0 0 0-5.3-1.85 4.51 4.51 0 0 0-2.5.61 1.92 1.92 0 0 0-.91 1.68 1.53 1.53 0 0 0 .35 1 3 3 0 0 0 1.17.71 16.81 16.81 0 0 0 2.33.65 13 13 0 0 1 5.08 2 4.09 4.09 0 0 1 1.55 3.38 4.85 4.85 0 0 1-2 4.1 9.17 9.17 0 0 1-5.59 1.49 14.43 14.43 0 0 1-4.06-.48zm44.6-18.02h3.84L398.9 791h-3.25l-4.24-12.14-4.3 12.14h-3.25l-6.5-18.33h4.1l4.18 12.66 4.45-12.66h2.9l4.3 12.8zm6.1 18.3v-18.3h4.05V791zm11.9 0v-15h-5.74v-3.3h15.55v3.3h-5.75v15z"/><use xlink:href="#I" x="201.08"/><path d="M472.75 791l-1.75-4h-8.53l-1.73 4h-4.1l8.43-18.33h3.25l8.42 18.33zm-8.95-7.12h5.88l-2.94-6.87zm26.57-11.18h3.8V791h-3L482 779.37V791h-3.77v-18.3h3l9.12 11.62zm23.48 0l-7.6 10v8.3h-4.05v-8.3l-7.57-10h4.6l5 6.8 5-6.8zm3.08 17.42a7.79 7.79 0 0 1-3.1-3.28 11.82 11.82 0 0 1 0-10 7.69 7.69 0 0 1 3.1-3.26 10.45 10.45 0 0 1 9.49 0 7.71 7.71 0 0 1 3.11 3.26 11.92 11.92 0 0 1 0 10 7.82 7.82 0 0 1-3.11 3.28 10.36 10.36 0 0 1-9.49 0zm8.35-3.6a7.27 7.27 0 0 0 1.31-4.66 7.19 7.19 0 0 0-1.3-4.64 4.86 4.86 0 0 0-7.21 0 9 9 0 0 0 0 9.3 4.37 4.37 0 0 0 3.59 1.61 4.42 4.42 0 0 0 3.61-1.61zm20.52-13.82h3.8V791h-3l-9.13-11.67V791h-3.77v-18.3h3l9.13 11.62zm7.42 18.3v-18.3h12.63v3.15h-8.68v4.3h8.16v3.14h-8.16v4.6h8.68v3.1zm22.98-5.9l-1.2-12.43h4.83l-1.24 12.4zm-.9 1.77h4.2V791h-4.2z"/></g><path d="M3134.84 258.46h483.66v483.66h-483.66z" fill="#fff"/><path d="M3146.67 260.3a10 10 0 0 0-10 10v460a10 10 0 0 0 10 10h460a10 10 0 0 0 10-10v-460a10 10 0 0 0-10-10zm0-10h460a20 20 0 0 1 20 20v460a20 20 0 0 1-20 20h-460a20 20 0 0 1-20-20v-460a20 20 0 0 1 20-20z" fill="url(#C)"/><g fill="#2677ff"><path d="M3204.25 197.34h13q4.6 0 7.16 2.32a9.48 9.48 0 0 1 0 13q-2.55 2.32-7.16 2.32h-6.72v10.6h-6.24zm12.16 12.88q4.68 0 4.68-4a3.83 3.83 0 0 0-1.16-3.08 5.25 5.25 0 0 0-3.52-1h-5.92v8.12zm17.46 12.62q-3.1-3.06-3.1-8.94v-16.56h6.12v16.84a7.58 7.58 0 0 0 1.54 5.12 6.53 6.53 0 0 0 8.94 0 7.51 7.51 0 0 0 1.56-5.1v-16.86h6.12v16.56q0 5.83-3.12 8.92-3.12 3.1-9 3.08-5.93 0-9.06-3.06zm48.48-9.4a7 7 0 0 1 1.34 4.38 6.82 6.82 0 0 1-2.62 5.64 11.28 11.28 0 0 1-7.22 2.08h-13.4v-28.2h13a11.24 11.24 0 0 1 7 2 6.37 6.37 0 0 1 2.58 5.36 6.47 6.47 0 0 1-1.18 3.86 6.65 6.65 0 0 1-3.26 2.42 7 7 0 0 1 3.76 2.46zm-15.82-4.62h5.88a6.08 6.08 0 0 0 3.59-.82 2.88 2.88 0 0 0 1.14-2.5 3 3 0 0 0-1.14-2.58 6.08 6.08 0 0 0-3.54-.82h-5.88zm10.2 11.12a3.17 3.17 0 0 0 1.12-2.72 3.29 3.29 0 0 0-1.12-2.76 5.8 5.8 0 0 0-3.6-.88h-6.6v7.2h6.6a6 6 0 0 0 3.6-.84zm11.27 5.6v-28.2h6.24v23.12h12.6v5.08zm22.45 0v-28.2h6.24v28.2zm17.55-1.44a12.14 12.14 0 0 1-4.88-5.08 17.84 17.84 0 0 1 0-15.2 12 12 0 0 1 4.88-5.06 15 15 0 0 1 7.46-1.78 16.77 16.77 0 0 1 5.36.86 11.38 11.38 0 0 1 4.2 2.38l-2 4.44a13.46 13.46 0 0 0-3.66-2 11.2 11.2 0 0 0-3.78-.64 7.15 7.15 0 0 0-5.78 2.4c-1.34 1.6-2 4-2 7s.68 5.45 2 7.06a7.13 7.13 0 0 0 5.78 2.42 11.2 11.2 0 0 0 3.78-.64 13.46 13.46 0 0 0 3.66-2l2 4.44a11.38 11.38 0 0 1-4.2 2.38 16.77 16.77 0 0 1-5.36.86 14.9 14.9 0 0 1-7.46-1.84zm54 1.44l-2.68-6.24h-13.12l-2.68 6.24h-6.28l13-28.2h5l13 28.2zm-13.76-11h9l-4.5-10.54zm22.2-17.2h11a17.34 17.34 0 0 1 7.92 1.68 11.71 11.71 0 0 1 5.08 4.84 15.36 15.36 0 0 1 1.76 7.56 15.58 15.58 0 0 1-1.74 7.58 11.6 11.6 0 0 1-5.06 4.86 17.45 17.45 0 0 1-8 1.68h-11zM3401 220.5q9 0 9-9.08 0-9.08-9-9h-4.28v18.08zm19.93-23.16h11a17.34 17.34 0 0 1 7.92 1.68 11.71 11.71 0 0 1 5.08 4.84 15.36 15.36 0 0 1 1.76 7.56 15.58 15.58 0 0 1-1.74 7.58 11.6 11.6 0 0 1-5.06 4.86 17.45 17.45 0 0 1-8 1.68h-11zm10.52 23.16q9 0 9-9.08 0-9.08-9-9h-4.28v18.08zm44.45 5.04h-6.8l-4.88-9a3.87 3.87 0 0 0-1.44-1.5 4.35 4.35 0 0 0-2.12-.46h-3.08v11h-6.16v-28.2h13q5 0 7.5 2.18a7.85 7.85 0 0 1 2.54 6.3 8.14 8.14 0 0 1-1.78 5.36 8.51 8.51 0 0 1-5 2.84 6.17 6.17 0 0 1 3.72 3.16zm-8.56-16.62a4.23 4.23 0 0 0 0-5.9 6.46 6.46 0 0 0-3.88-.92h-6v7.76h6a6.3 6.3 0 0 0 3.88-.94zm12.06 16.62v-28.2h19.44v4.84h-13.36v6.6h12.56v4.84h-12.56v7.08h13.36v4.84z"/><use xlink:href="#G" x="3121.18" y="-5.54"/><path d="M3532.4 225a14.56 14.56 0 0 1-4.92-2.38l2-4.44a15.68 15.68 0 0 0 9.16 2.84 7.94 7.94 0 0 0 4.06-.86 2.65 2.65 0 0 0 1.42-2.38 2.34 2.34 0 0 0-1.3-2.12 17.34 17.34 0 0 0-4.62-1.48 25.76 25.76 0 0 1-5.94-1.84 7.78 7.78 0 0 1-3.24-2.66 7 7 0 0 1-1-3.9 7.64 7.64 0 0 1 1.42-4.56 9.43 9.43 0 0 1 4-3.14 14.44 14.44 0 0 1 5.92-1.14 19 19 0 0 1 5.78.88 11.93 11.93 0 0 1 4.42 2.36l-2 4.44a13.64 13.64 0 0 0-8.16-2.84 6.77 6.77 0 0 0-3.84.94 2.94 2.94 0 0 0-1.4 2.58 2.31 2.31 0 0 0 .54 1.58 4.52 4.52 0 0 0 1.8 1.1 27.89 27.89 0 0 0 3.58 1q5.43 1.2 7.82 3.08a6.25 6.25 0 0 1 2.38 5.2 7.44 7.44 0 0 1-3.08 6.3q-3.08 2.3-8.6 2.3a22 22 0 0 1-6.2-.86z"/></g><path d="M3146 910.24c2.93 0 5.12.83 6.55 2.5s2.15 4.18 2.15 7.55v15h-6.25v-14.65a6.47 6.47 0 0 0-1.08-4.15 4.11 4.11 0 0 0-3.37-1.3 5.74 5.74 0 0 0-4.33 1.7 6.32 6.32 0 0 0-1.62 4.55v13.85h-6.25v-24.45h6.1v3.65a8.39 8.39 0 0 1 3.35-3.15 10.11 10.11 0 0 1 4.75-1.1zm25.46 0q5.14 0 7.65 2.5c1.67 1.67 2.5 4.23 2.5 7.7v14.85h-6v-3.75a6.55 6.55 0 0 1-2.67 3.05 8.08 8.08 0 0 1-4.23 1.1 9.77 9.77 0 0 1-4.45-1 8 8 0 0 1-3.15-2.75 6.94 6.94 0 0 1-1.15-3.9 6.16 6.16 0 0 1 1.38-4.25 8.25 8.25 0 0 1 4.47-2.25 40.57 40.57 0 0 1 8.55-.7h1.25v-1.15a5 5 0 0 0-1.07-3.6 4.88 4.88 0 0 0-3.58-1.1 13.1 13.1 0 0 0-4.07.68 20.09 20.09 0 0 0-4.18 1.87l-1.75-4.3a21.43 21.43 0 0 1 10.45-3zm-1.45 21a5.37 5.37 0 0 0 4.08-1.67 6.07 6.07 0 0 0 1.57-4.33v-1.05h-.9a34.49 34.49 0 0 0-5.2.3 5 5 0 0 0-2.65 1 2.68 2.68 0 0 0-.8 2 3.46 3.46 0 0 0 1.1 2.63 4 4 0 0 0 2.84 1.07zm32.06-21q4.4 0 6.55 2.5c1.44 1.67 2.15 4.18 2.15 7.55v15h-6.25v-14.65a6.53 6.53 0 0 0-1.07-4.15 4.13 4.13 0 0 0-3.38-1.3 5.7 5.7 0 0 0-4.32 1.7 6.28 6.28 0 0 0-1.63 4.55v13.85h-6.25v-24.45h6.1v3.65a8.45 8.45 0 0 1 3.35-3.15 10.14 10.14 0 0 1 4.79-1.1zm26.12 25.45a13.5 13.5 0 0 1-6.58-1.55 10.71 10.71 0 0 1-4.37-4.45 15.43 15.43 0 0 1 0-13.48 10.76 10.76 0 0 1 4.37-4.42 14.72 14.72 0 0 1 13.15 0 10.65 10.65 0 0 1 4.35 4.42 15.61 15.61 0 0 1 0 13.48 10.61 10.61 0 0 1-4.35 4.45 13.46 13.46 0 0 1-6.53 1.55zm-.05-4.85a5.59 5.59 0 0 0 4.64-2 11.56 11.56 0 0 0 0-11.77 5.46 5.46 0 0 0-4.59-2 5.57 5.57 0 0 0-4.63 2 9.2 9.2 0 0 0-1.62 5.87 9.33 9.33 0 0 0 1.59 5.9 5.58 5.58 0 0 0 4.65 2zm31.6-20.6a10.09 10.09 0 0 1 5.62 1.6 10.63 10.63 0 0 1 3.85 4.52 15.65 15.65 0 0 1 1.38 6.73 15.11 15.11 0 0 1-1.38 6.65 10.08 10.08 0 0 1-9.47 6 9.68 9.68 0 0 1-4.65-1.1 7.66 7.66 0 0 1-3.15-3.05v12.75h-6.25v-33.5h6.15v3.7a7.65 7.65 0 0 1 3.17-3.18 9.78 9.78 0 0 1 4.77-1.12zm-1.65 20.6a5.61 5.61 0 0 0 4.6-2 8.87 8.87 0 0 0 1.65-5.73 9.35 9.35 0 0 0-1.65-5.9 6.17 6.17 0 0 0-9.23-.05 9.26 9.26 0 0 0-1.62 5.85 9.16 9.16 0 0 0 1.62 5.8 5.57 5.57 0 0 0 4.67 2.03zm28.06-20.6q5.15 0 7.65 2.5c1.67 1.67 2.5 4.23 2.5 7.7v14.85h-5.95v-3.75a6.52 6.52 0 0 1-2.68 3.05 8 8 0 0 1-4.22 1.1 9.77 9.77 0 0 1-4.45-1 8 8 0 0 1-3.15-2.75 6.94 6.94 0 0 1-1.15-3.9 6.2 6.2 0 0 1 1.37-4.25 8.33 8.33 0 0 1 4.48-2.25 40.57 40.57 0 0 1 8.55-.7h1.25v-1.15a5 5 0 0 0-1.08-3.6 4.84 4.84 0 0 0-3.57-1.1 13.21 13.21 0 0 0-4.08.68 20.25 20.25 0 0 0-4.17 1.87l-1.75-4.3a21.43 21.43 0 0 1 10.45-3zm-1.45 21a5.34 5.34 0 0 0 4.07-1.67 6.07 6.07 0 0 0 1.58-4.33v-1.05h-.9a34.49 34.49 0 0 0-5.2.3 5 5 0 0 0-2.65 1 2.68 2.68 0 0 0-.8 2 3.46 3.46 0 0 0 1.1 2.63 4 4 0 0 0 2.84 1.07zm31.9-21a10.12 10.12 0 0 1 5.63 1.6 10.7 10.7 0 0 1 3.85 4.52 15.8 15.8 0 0 1 1.37 6.73 15.25 15.25 0 0 1-1.37 6.65 10.11 10.11 0 0 1-9.48 6 9.74 9.74 0 0 1-4.65-1.1 7.66 7.66 0 0 1-3.15-3.05v12.75h-6.25v-33.5h6.15v3.7a7.62 7.62 0 0 1 3.18-3.18 9.71 9.71 0 0 1 4.76-1.12zm-1.65 20.6a5.6 5.6 0 0 0 4.6-2 8.87 8.87 0 0 0 1.65-5.73 9.35 9.35 0 0 0-1.65-5.9 6.16 6.16 0 0 0-9.22-.05 9.2 9.2 0 0 0-1.63 5.85 9.1 9.1 0 0 0 1.63 5.8 5.54 5.54 0 0 0 4.65 2.03zm39-6.65h-16.65a7.63 7.63 0 0 0 2.05 5 7 7 0 0 0 5 1.65 11.8 11.8 0 0 0 7.4-2.6l1.8 4.3a13.26 13.26 0 0 1-4.27 2.25 16.34 16.34 0 0 1-5.18.85q-6 0-9.47-3.4-3.47-3.4-3.48-9.3a14.26 14.26 0 0 1 1.5-6.65 10.94 10.94 0 0 1 4.23-4.5 11.9 11.9 0 0 1 6.17-1.6 10.18 10.18 0 0 1 8 3.25q2.93 3.25 2.92 9zm-10.75-9.55a5.28 5.28 0 0 0-4 1.6 7.81 7.81 0 0 0-1.88 4.6h11.3a7.1 7.1 0 0 0-1.5-4.63 5 5 0 0 0-3.87-1.57zm31.86.8l-3.65.35q-6.2.65-6.2 6.3v13.2H3359v-24.45h6v4.3q1.9-4.4 7.85-4.8l1.9-.15zm37.47-4.6h6.1l-9.6 24.45h-5.45l-6-15.75-5.85 15.75h-5.4l-9.65-24.45h6.4l6.25 17 6.25-17h4.5l6.25 17.1zm19.86-.6q5.14 0 7.65 2.5c1.66 1.67 2.5 4.23 2.5 7.7v14.85h-6v-3.75a6.52 6.52 0 0 1-2.68 3.05 8 8 0 0 1-4.22 1.1 9.74 9.74 0 0 1-4.45-1 7.83 7.83 0 0 1-3.15-2.75A6.94 6.94 0 0 1 3421 928a6.2 6.2 0 0 1 1.37-4.25 8.33 8.33 0 0 1 4.48-2.25 40.44 40.44 0 0 1 8.55-.7h1.25v-1.15a5 5 0 0 0-1.08-3.6A4.86 4.86 0 0 0 3432 915a13.21 13.21 0 0 0-4.08.68 20 20 0 0 0-4.17 1.87l-1.75-4.3a21.43 21.43 0 0 1 10.45-3zm-1.45 21a5.36 5.36 0 0 0 4.07-1.67 6.07 6.07 0 0 0 1.58-4.33v-1.05h-.9a34.4 34.4 0 0 0-5.2.3 5 5 0 0 0-2.65 1 2.65 2.65 0 0 0-.8 2 3.42 3.42 0 0 0 1.1 2.63 3.94 3.94 0 0 0 2.84 1.07zm17.86 4.1V900h6.25v35.25zm12.6 0V900h6.25v35.25zm34.06-11.1h-16.65a7.63 7.63 0 0 0 2.05 5 7 7 0 0 0 5 1.65 11.8 11.8 0 0 0 7.4-2.6l1.8 4.3a13.26 13.26 0 0 1-4.27 2.25 16.34 16.34 0 0 1-5.18.85q-6 0-9.47-3.4-3.47-3.4-3.48-9.3a14.26 14.26 0 0 1 1.5-6.65 10.94 10.94 0 0 1 4.23-4.5 11.9 11.9 0 0 1 6.17-1.6 10.18 10.18 0 0 1 8 3.25q2.93 3.25 2.92 9zm-10.75-9.55a5.28 5.28 0 0 0-4 1.6 7.81 7.81 0 0 0-1.88 4.6h11.3a7.1 7.1 0 0 0-1.5-4.63 5 5 0 0 0-3.87-1.62zm27.96 16.3a18.48 18.48 0 0 0 2.3-.15l-.3 4.65-2.75.15q-5.14 0-7.6-2.37-2.46-2.37-2.45-7.08v-10.66h-4.7v-4.7h4.7v-7.3h6.25v7.3h6.45v4.7h-6.45v10.55q0 4.9 4.55 4.9zm6.32-2.6h7v6.9h-7zm23.36 7.3a13.74 13.74 0 0 1-6.68-1.55 10.47 10.47 0 0 1-4.32-4.4 15.35 15.35 0 0 1 .07-13.38 11.08 11.08 0 0 1 4.48-4.52 13.58 13.58 0 0 1 6.7-1.6 15.94 15.94 0 0 1 5.07.83 10.62 10.62 0 0 1 4 2.22l-1.8 4.4a12 12 0 0 0-3.28-1.9 9.72 9.72 0 0 0-3.42-.65 6.37 6.37 0 0 0-5 2 10.24 10.24 0 0 0 0 11.6 6.43 6.43 0 0 0 5 2 9.72 9.72 0 0 0 3.42-.65 12 12 0 0 0 3.28-1.9l1.8 4.35a11.16 11.16 0 0 1-4.1 2.27 16.22 16.22 0 0 1-5.22.87zm24.3 0a13.53 13.53 0 0 1-6.58-1.55 10.71 10.71 0 0 1-4.37-4.45 15.43 15.43 0 0 1 0-13.48 10.76 10.76 0 0 1 4.37-4.42 14.72 14.72 0 0 1 13.15 0 10.53 10.53 0 0 1 4.35 4.42 15.61 15.61 0 0 1 0 13.48 10.49 10.49 0 0 1-4.35 4.45 13.46 13.46 0 0 1-6.57 1.54zm-.05-4.85a5.62 5.62 0 0 0 4.65-2q1.6-2 1.6-5.9a9.27 9.27 0 0 0-1.6-5.87 5.5 5.5 0 0 0-4.6-2 5.58 5.58 0 0 0-4.63 2 9.2 9.2 0 0 0-1.62 5.87q0 3.9 1.6 5.9a5.56 5.56 0 0 0 4.6 1.99zm46.6-20.6c2.77 0 4.83.82 6.2 2.47s2.05 4.18 2.05 7.58v15h-6.25v-14.76a7 7 0 0 0-.95-4.08 3.55 3.55 0 0 0-3.05-1.27 4.77 4.77 0 0 0-3.9 1.7 7.29 7.29 0 0 0-1.4 4.75v13.65h-6.25v-14.75a7.13 7.13 0 0 0-.92-4.08 3.56 3.56 0 0 0-3.08-1.27 4.73 4.73 0 0 0-3.85 1.7 7.29 7.29 0 0 0-1.4 4.75v13.65h-6.25v-24.45h6.1v3.45a7.28 7.28 0 0 1 3-3 9.33 9.33 0 0 1 4.45-1q5.55 0 7.35 4.6a8.45 8.45 0 0 1 3.3-3.38 9.57 9.57 0 0 1 4.85-1.27z" fill="url(#D)"/><path d="M2942 60.26h12.08q4.8 0 7.47 2.34a8.37 8.37 0 0 1 2.66 6.63 8.43 8.43 0 0 1-2.69 6.66 10.82 10.82 0 0 1-7.44 2.39h-8.53v12.5H2942zm11.73 15.07q7 0 7-6.1 0-6.1-7-6h-8.18v12.1zm39.53 15.46l-3.37-7.8H2974l-3.38 7.84H2967l13.42-30.53h3.07l13.42 30.53zM2975.22 80h13.42l-6.7-15.63zm26.2-19.75h12.08q4.8 0 7.47 2.34a8.37 8.37 0 0 1 2.66 6.63 8.43 8.43 0 0 1-2.68 6.66 10.84 10.84 0 0 1-7.45 2.39h-8.5V90.8h-3.55zm11.73 15.07q7 0 7-6.1 0-6.1-7-6H3005v12.1zm16.2 15.46V60.26h19.3v3h-15.8v10.56h14.94v2.94h-14.94v11.08h15.8v3zm49.22 0h-3.9l-5.2-9.8a5.59 5.59 0 0 0-2.23-2.44 7.5 7.5 0 0 0-3.48-.67H3058v12.9h-3.5V60.26h12.56q5 0 7.6 2.2a8 8 0 0 1 2.62 6.5 8.09 8.09 0 0 1-2 5.73 9.36 9.36 0 0 1-5.73 2.75 5.06 5.06 0 0 1 2.05 1.17 8.18 8.18 0 0 1 1.63 2.21zm-11.77-15.85a8.11 8.11 0 0 0 5.3-1.47 5.49 5.49 0 0 0 1.75-4.46 5.32 5.32 0 0 0-1.73-4.37c-1.15-1-2.93-1.43-5.32-1.43h-8.8v11.74zM2971 100.4h4.94l-8.37 23.53h-4.17l-5.44-15.6-5.5 15.6h-4.17l-8.34-23.53h5.27l5.37 16.25 5.7-16.25h3.64l5.5 16.42zm25.83 23.53l-2.23-5.2h-10.95l-2.23 5.2h-5.24L2987 100.4h4.17l10.8 23.53zm-11.48-9.14h7.55l-3.77-8.8zm18.6 9.14V100.4h5.2v19.3h10.5v4.24zm18.8 0V100.4h5.2v19.3h10.5v4.24zm18.8 0V100.4h16.22v4h-11.15v5.5h10.4v4h-10.48v5.9h11.15v4zm25.23 0v-19.3h-7.38v-4.24h20v4.24H3072v19.3z" fill="#36363c"/><path d="M2847 90.54a11.62 11.62 0 0 1-23.23 0c0-8.62-2.9-11.5-11.6-11.5s-11.62 2.87-11.62 11.5A11.62 11.62 0 1 1 2789 79.05c8.7 0 11.6-2.87 11.6-11.5a11.62 11.62 0 0 1 23.23 0c0 8.62 2.9 11.5 11.62 11.5A11.52 11.52 0 0 1 2847 90.54zM2765.66 125a11.49 11.49 0 1 1 11.61-11.49 11.55 11.55 0 0 1-11.61 11.49zm151.17-57.5a11.55 11.55 0 0 1-11.62 11.5c-8.7 0-11.6 2.88-11.6 11.5A11.55 11.55 0 0 1 2882 102c-8.7 0-11.6 2.87-11.6 11.5a11.62 11.62 0 1 1-11.64-11.49c8.7 0 11.62-2.87 11.62-11.5A11.55 11.55 0 0 1 2882 79c8.7 0 11.62-2.87 11.62-11.48a11.62 11.62 0 0 1 23.23 0z" fill="url(#E)"/><path d="M3692.17 8.1v984.08h-2084v-150H8.1V158.1h1600V8.1h2084m8-8h-2100v150H.1v700.07h1600v150h2100V.1z" fill="#4a90e2"/></svg>