<svg id="Layer_1" data-name="Layer 1" xmlns="http://www.w3.org/2000/svg" xmlns:xlink="http://www.w3.org/1999/xlink" viewBox="0 0 159.42 159.42"><defs><linearGradient id="New_Gradient_Swatch_copy_3" x1="-377.61" y1="1047.3" x2="-378.61" y2="1046.3" gradientTransform="matrix(133.91, 0, 0, -133.91, 50714.73, 140261.65)" gradientUnits="userSpaceOnUse"><stop offset="0" stop-color="#02b799"/><stop offset="1" stop-color="#44ea96"/></linearGradient></defs><title>QRlogoC</title><g id="Group-3"><circle id="Oval-4" cx="79.71" cy="79.71" r="79.71" style="fill:#fff"/><circle cx="79.71" cy="79.71" r="66.96" style="fill:url(#New_Gradient_Swatch_copy_3)"/><path d="M84.79,79.42a5.38,5.38,0,0,1-10.76,0c0-4-1.34-5.33-5.37-5.33s-5.38,1.33-5.38,5.33a5.38,5.38,0,1,1-5.38-5.33c4,0,5.38-1.33,5.38-5.33a5.38,5.38,0,0,1,10.75,0c0,4,1.35,5.33,5.38,5.33A5.35,5.35,0,0,1,84.79,79.42Zm-37.67,16a5.33,5.33,0,1,1,5.37-5.33A5.36,5.36,0,0,1,47.12,95.42Zm70-26.67a5.35,5.35,0,0,1-5.38,5.32c-4,0-5.38,1.34-5.38,5.33A5.34,5.34,0,0,1,101,84.73c-4,0-5.38,1.33-5.38,5.33a5.38,5.38,0,1,1-5.38-5.33c4,0,5.38-1.33,5.38-5.33A5.35,5.35,0,0,1,101,74.07c4,0,5.37-1.33,5.37-5.32a5.38,5.38,0,0,1,10.76,0Z" style="fill:#fff"/></g></svg>