<svg xmlns="http://www.w3.org/2000/svg" viewBox="0 0 159.42 159.42"><defs><linearGradient id="A" x1="127.944" y1="9.45" x2="-5.966" y2="143.36" gradientUnits="userSpaceOnUse"><stop offset="0" stop-color="#ff6c08"/><stop offset="1" stop-color="#ffac48"/></linearGradient></defs><circle cx="79.71" cy="79.71" r="79.71" fill="#fff"/><circle cx="79.71" cy="79.71" r="66.96" fill="url(#A)"/><path d="M84.8 79.42a5.38 5.38 0 0 1-10.76 0c0-4-1.34-5.33-5.37-5.33s-5.38 1.33-5.38 5.33a5.38 5.38 0 1 1-5.38-5.33c4 0 5.38-1.33 5.38-5.33a5.38 5.38 0 0 1 10.75 0c0 4 1.35 5.33 5.38 5.33a5.35 5.35 0 0 1 5.38 5.33zm-37.67 16a5.33 5.33 0 1 1 5.37-5.33 5.36 5.36 0 0 1-5.37 5.33zm70-26.67a5.35 5.35 0 0 1-5.38 5.32c-4 0-5.38 1.34-5.38 5.33a5.34 5.34 0 0 1-5.36 5.33c-4 0-5.38 1.33-5.38 5.33a5.38 5.38 0 1 1-5.38-5.33c4 0 5.38-1.33 5.38-5.33a5.35 5.35 0 0 1 5.38-5.33c4 0 5.37-1.33 5.37-5.32a5.38 5.38 0 0 1 10.76 0z" fill="#fff"/></svg>