<?xml version="1.0" encoding="UTF-8"?>
<svg width="231px" height="70px" viewBox="0 0 231 70" version="1.1" xmlns="http://www.w3.org/2000/svg" xmlns:xlink="http://www.w3.org/1999/xlink">
    <!-- Generator: Sketch 53.2 (72643) - https://sketchapp.com -->
    <title>Group 31</title>
    <desc>Created with Sketch.</desc>
    <defs>
        <linearGradient x1="100%" y1="42.8414901%" x2="0%" y2="57.1585099%" id="linearGradient-1">
            <stop stop-color="#2020B5" offset="0%"></stop>
            <stop stop-color="#2677FF" offset="100%"></stop>
        </linearGradient>
    </defs>
    <g id="Page-1" stroke="none" stroke-width="1" fill="none" fill-rule="evenodd">
        <g id="desktop-copy" transform="translate(-877.000000, -2746.000000)">
            <g id="Group-25" transform="translate(250.000000, 2317.000000)">
                <g id="Group-24" transform="translate(544.000000, 206.000000)">
                    <g id="Group-31" transform="translate(83.000000, 223.000000)">
                        <g id="Group-30" transform="translate(175.000000, 10.000000)">
                            <path d="M2.48818898,0.744186047 L54,0.744186047 C55.1045695,0.744186047 56,1.63961655 56,2.74418605 L56,47.1162791 C56,48.2208486 55.1045695,49.1162791 54,49.1162791 L2.48818898,49.1162791 C1.38361948,49.1162791 0.488188976,48.2208486 0.488188976,47.1162791 L0.488188976,2.74418605 C0.488188976,1.63961655 1.38361948,0.744186047 2.48818898,0.744186047 Z M30.2440945,6.3255814 C29.139525,6.3255814 28.2440945,7.2210119 28.2440945,8.3255814 L28.2440945,17.3488372 C28.2440945,18.4534067 29.139525,19.3488372 30.2440945,19.3488372 L33.6456693,19.3488372 C34.7502388,19.3488372 35.6456693,18.4534067 35.6456693,17.3488372 L35.6456693,8.3255814 C35.6456693,7.2210119 34.7502388,6.3255814 33.6456693,6.3255814 L30.2440945,6.3255814 Z M30.2440945,30.5116279 C29.139525,30.5116279 28.2440945,31.4070584 28.2440945,32.5116279 L28.2440945,41.5348837 C28.2440945,42.6394532 29.139525,43.5348837 30.2440945,43.5348837 L33.6456693,43.5348837 C34.7502388,43.5348837 35.6456693,42.6394532 35.6456693,41.5348837 L35.6456693,32.5116279 C35.6456693,31.4070584 34.7502388,30.5116279 33.6456693,30.5116279 L30.2440945,30.5116279 Z" id="Combined-Shape" fill="#BBBBBB"></path>
                            <path d="M54,0.744186047 C55.1045695,0.744186047 56,1.63961655 56,2.74418605 L56,47.1162791 C56,48.2208486 55.1045695,49.1162791 54,49.1162791 L2.48818898,49.1162791 C1.38361948,49.1162791 0.488188976,48.2208486 0.488188976,47.1162791 L52,47.1162791 C53.1045695,47.1162791 54,46.2208486 54,45.1162791 L54,0.744186047 Z M28.2440945,17.3488372 C27.139525,17.3488372 26.2440945,16.4534067 26.2440945,15.3488372 L26.2440945,6.3255814 C26.2440945,5.2210119 27.139525,4.3255814 28.2440945,4.3255814 L31.6456693,4.3255814 C32.7502388,4.3255814 33.6456693,5.2210119 33.6456693,6.3255814 L30.2440945,6.3255814 C29.139525,6.3255814 28.2440945,7.2210119 28.2440945,8.3255814 L28.2440945,17.3488372 Z M33.6456693,30.5116279 L30.2440945,30.5116279 C29.139525,30.5116279 28.2440945,31.4070584 28.2440945,32.5116279 L28.2440945,41.5348837 C27.139525,41.5348837 26.2440945,40.6394532 26.2440945,39.5348837 L26.2440945,30.5116279 C26.2440945,29.4070584 27.139525,28.5116279 28.2440945,28.5116279 L31.6456693,28.5116279 C32.7502388,28.5116279 33.6456693,29.4070584 33.6456693,30.5116279 Z" id="Combined-Shape" fill-opacity="0.1" fill="#000000"></path>
                        </g>
                        <path d="M35,0 L177.598425,0 C181.686202,-7.50912432e-16 185,3.31379791 185,7.4015748 L185,62.5984252 C185,66.6862021 181.686202,70 177.598425,70 L35,70 C15.6700338,70 2.36723813e-15,54.3299662 0,35 L0,35 C-2.36723813e-15,15.6700338 15.6700338,3.55085719e-15 35,0 Z" id="Rectangle" fill="url(#linearGradient-1)"></path>
                        <rect id="Rectangle" fill-opacity="0.2" fill="#000000" x="56" y="15" width="89" height="40" rx="4"></rect>
                        <path d="M101.970863,19.0007567 C102.151362,18.9931578 102.335897,19.0449028 102.515478,19.0613671 C102.815759,19.1248724 103.120993,19.209546 103.405132,19.3296813 C103.584713,19.4029566 103.74265,19.5259867 103.924983,19.5856925 C104.17005,19.707818 104.336608,19.9263773 104.567735,20.0618914 C104.726772,20.225449 104.859394,20.3350905 105.012745,20.5006384 C105.091621,20.5968914 105.161143,20.6835552 105.23525,20.7816174 C105.265333,20.9048285 105.383648,20.9942062 105.420518,21.1221213 C105.483986,21.2645106 105.542685,21.421374 105.568916,21.5858363 C105.61184,21.771467 105.653846,21.9590879 105.65568,22.1467088 C105.628532,23.6006351 105.609822,25.0561898 105.65568,26.51283 C105.730888,26.9419879 105.690716,27.3894194 105.816918,27.8050079 C105.880387,28.1156589 105.926979,28.4342707 106.063453,28.6834066 C106.298799,29.1000806 106.484067,29.5444364 106.744543,29.9640052 C106.887805,30.1170692 106.998965,30.2882257 107.139659,30.4517834 C107.42123,30.8501838 107.656575,31.315708 107.956123,31.6833509 C108.148178,32.0623922 108.357659,32.4329299 108.573377,32.8052769 C108.734249,33.2834659 109.0105,33.722032 109.130465,34.2195803 C109.289136,34.7797291 109.465049,35.3299269 109.550712,35.9514099 C109.735246,36.9354697 109.864934,37.911207 109.982699,38.9025039 C109.975911,39.4382277 109.907858,39.9761225 109.933905,40.5120271 C109.884195,40.6918682 109.918497,40.8668243 109.871538,41.0488364 C109.813939,41.3008672 109.666642,41.5319105 109.612162,41.7810465 C109.634358,41.9205409 109.561351,42.0542457 109.587766,42.1955493 C109.703879,42.4294875 109.712501,42.6979826 109.773034,42.9510989 C109.869703,43.0086336 109.920331,43.1231601 110.032409,43.1957117 C110.22373,43.1607929 110.407898,43.2505325 110.601421,43.2197749 C110.831446,43.1589836 111.071378,43.1638686 111.293883,43.1226173 C111.566832,43.0925835 111.835196,43.1734577 112.109246,43.1466806 C112.287727,43.2579505 112.494457,43.342805 112.653494,43.4517229 C112.796022,43.5354919 112.855638,43.7153329 113,43.8173756 C112.950289,44.0565606 113.005686,44.3078676 112.938366,44.5369207 C112.688713,44.8776056 112.472261,45.2490479 112.233247,45.5857523 C111.830243,45.9821626 111.5085,46.4525718 111.120171,46.866351 C110.648013,47.3461683 110.230518,47.8659705 109.748637,48.3419885 C109.182927,48.6615049 108.766349,49.1646618 108.227788,49.5247058 C107.986022,49.6292814 107.791766,49.8197971 107.535326,49.8661143 C107.322543,49.9314288 107.088481,49.9721373 106.867077,50 L106.286692,50 C106.106193,49.9392087 105.904416,49.9314288 105.729604,49.8661143 C105.617526,49.8018854 105.494625,49.7738417 105.383465,49.7201065 C105.177468,49.6034089 105.030171,49.4235678 104.83995,49.2925769 C104.795193,49.1646618 104.677978,49.0723892 104.591948,48.9636523 C104.49161,48.7452739 104.388153,48.5268955 104.332573,48.2933192 C104.331472,48.1795164 104.290566,48.0805495 104.270939,47.9756121 C103.795112,48.0141494 103.314332,48.0237385 102.836487,48.0738552 C102.341766,48.0487064 101.846312,48.0438214 101.352508,48.0487064 C100.709756,47.9571575 100.065904,47.9274856 99.4240694,47.7928762 C98.9664023,47.689748 98.5138713,47.5925904 98.0640917,47.4511058 C97.7285914,47.307631 97.3754815,47.1903905 97.0506204,47.0489059 C96.9999927,46.974726 96.889749,46.9662224 96.839855,46.9025363 C96.680818,47.031537 96.5911189,47.2220527 96.4320818,47.3778305 C96.320921,47.6693033 96.1277653,47.9251335 95.9745981,48.1957998 C95.91113,48.2707034 95.8175788,48.3427122 95.8137267,48.4389651 C95.6809207,48.547883 95.5824168,48.6584291 95.4545635,48.7807355 C95.2155493,48.8722844 95.004784,49.0365658 94.7501779,49.060629 C94.6857927,49.1404176 94.5190514,49.0550203 94.4535656,49.1348089 C94.2341788,49.1856493 94.0155258,49.0789026 93.7981569,49.122144 C93.5329117,49.0049036 93.2401514,48.9271051 92.9943502,48.8047988 C92.550624,48.5563865 92.1076316,48.3121356 91.6589527,48.0848917 C90.7627541,47.4286294 89.8807297,46.7537428 89.0134714,46.0606847 C88.7412557,45.7930942 88.4692235,45.5245991 88.1970078,45.2564659 C88.1229006,45.0426106 88.0467756,44.8359924 88,44.6221372 C88.0555804,44.4683495 88.1093265,44.3277696 88.1483979,44.1709062 C88.2234223,44.104868 88.2936774,44.0044537 88.3707196,43.9391392 C88.4683063,43.7430147 88.7396048,43.7341493 88.9151509,43.6465808 C89.1161943,43.5794571 89.3091666,43.5839802 89.5081922,43.5486995 C89.7481235,43.547614 89.923853,43.4158994 90.1267307,43.3784476 C90.1452575,43.3053532 90.2017551,43.2612071 90.2252346,43.1830468 C90.2720102,42.9272166 90.1511274,42.6703008 90.1755241,42.4151943 C90.2349566,42.2699102 90.2789807,42.1275209 90.3363955,41.9755426 C90.3774846,41.8687959 90.4924976,41.7609636 90.5842144,41.7079521 C90.6564873,41.6828033 90.674097,41.6156795 90.7696659,41.6223738 C90.9669035,41.6039159 91.1654697,41.6039159 91.3627072,41.6223738 C91.5479753,41.6876883 91.7352611,41.7502889 91.9186948,41.8291729 C92.0093111,41.873319 92.1489042,41.8465419 92.2650177,41.8543217 C92.3781963,41.7812274 92.4376289,41.6107945 92.5498903,41.5492795 C92.6865448,41.2560574 92.8609608,40.9814384 93.0688243,40.7322148 C93.1282569,40.7063423 93.1410972,40.645551 93.205299,40.6343335 C93.2931638,40.5853024 93.2610629,40.4590156 93.2667493,40.4148696 C93.1741153,39.8230586 93.2491397,39.2276291 93.2423526,38.6338279 C93.2902289,38.1614285 93.3417737,37.6776307 93.4278042,37.2197055 C93.5116334,36.7914521 93.6288475,36.3659127 93.7115761,35.9391068 C93.8911578,35.425999 94.1202665,34.9132529 94.3174578,34.4148001 C95.2918577,32.4626019 96.3961288,30.5787939 97.4213399,28.6593434 C97.6124779,28.3908483 97.7500532,28.090691 97.940274,27.8299758 L97.940274,27.7809446 C97.9070725,27.5269237 98.0270381,27.2710934 97.9899845,27.0246714 L97.9899845,24.9271891 C97.9393568,24.488442 97.9811797,24.0477048 97.940274,23.6100433 C97.9323863,23.5610122 97.9226643,23.5128857 97.9158773,23.4638546 L97.9158773,22.2198031 C97.9520137,22.210214 97.9353213,22.188141 97.940274,22.1716767 C97.9079896,22.0495512 97.9947538,21.9628873 97.9646707,21.8416665 C98.0308902,21.7021721 98.0611568,21.5397 98.0884884,21.3904355 C98.2354393,21.0842775 98.4270847,20.8010127 98.6573164,20.5496695 C98.8678984,20.33889 99.1012261,20.1666479 99.3255655,19.9763131 C99.6269471,19.734776 99.97327,19.5558396 100.31464,19.3787124 C100.542832,19.3056181 100.73984,19.1795122 101.006369,19.1351852 C101.317472,19.0373039 101.650221,18.9949671 101.970863,19.0007567 L101.970863,19.0007567 Z" id="Path" fill-opacity="0.15" fill="#000000" fill-rule="nonzero"></path>
                        <path d="M184.793266,5.65719907 C184.9284,6.21655691 185,6.80070431 185,7.4015748 L185,62.5984252 C185,66.6862021 181.686202,70 177.598425,70 L35,70 C21.6962176,70 10.126084,62.5773666 4.20502329,51.6475238 C8.3547622,52.0847485 12.653369,51.7819455 16.9247371,50.6374359 L184.793266,5.65719907 Z" id="Combined-Shape" fill-opacity="0.05" fill="#000000"></path>
                    </g>
                </g>
            </g>
        </g>
    </g>
</svg>