<?xml version="1.0" encoding="UTF-8"?>
<svg width="30px" height="28px" viewBox="0 0 30 28" version="1.1" xmlns="http://www.w3.org/2000/svg" xmlns:xlink="http://www.w3.org/1999/xlink">
    <!-- Generator: Sketch 52.1 (67048) - http://www.bohemiancoding.com/sketch -->
    <title>discord-icon</title>
    <desc>Created with Sketch.</desc>
    <defs>
        <radialGradient cx="50%" cy="50%" fx="50%" fy="50%" r="50%" id="radialGradient-1">
            <stop stop-color="#FFFFFF" stop-opacity="0.01" offset="0%"></stop>
            <stop stop-color="#FFFFFF" stop-opacity="0" offset="100%"></stop>
        </radialGradient>
    </defs>
    <g id="Page-1" stroke="none" stroke-width="1" fill="none" fill-rule="evenodd">
        <g id="discord-icon" transform="translate(0.000000, -1.000000)">
            <rect id="Rectangle-Copy-5" fill="url(#radialGradient-1)" x="0" y="0" width="30" height="30"></rect>
            <path d="M22.140411,26 C22.140411,26 21.2157534,24.8738207 20.4452055,23.8785924 C23.8099315,22.9095544 25.0941781,20.7619565 25.0941781,20.7619565 C24.0410958,21.4690925 23.0393836,21.9667065 22.140411,22.3071793 C20.8561644,22.8571739 19.6232877,23.223837 18.4160958,23.4333588 C15.9503424,23.9047826 13.6900685,23.7738316 11.7636987,23.4071685 C10.2996576,23.1190761 9.04109585,22.7000326 7.98801369,22.2809892 C7.39726027,22.0452772 6.75513704,21.7571848 6.11301369,21.3905218 C6.03595892,21.3381414 5.95890415,21.3119511 5.88184927,21.2595707 C5.83047946,21.2333805 5.8047945,21.2071902 5.77910954,21.181 C5.31678081,20.9190979 5.05993154,20.7357663 5.05993154,20.7357663 C5.05993154,20.7357663 6.29280819,22.8309837 9.5547945,23.826212 C8.78424658,24.8214402 7.83390415,26 7.83390415,26 C2.15753424,25.8166684 0,22.019087 0,22.019087 C0,13.5858371 3.69863019,6.75019044 3.69863019,6.75019044 C7.39726027,3.92164696 10.9160958,4.00021765 10.9160958,4.00021765 L11.1729452,4.31450027 C6.54965758,5.67639151 4.41780819,7.74541869 4.41780819,7.74541869 C4.41780819,7.74541869 4.98287677,7.43113606 5.93321919,6.98590238 C8.68150685,5.7549622 10.864726,5.41448939 11.7636987,5.3359187 C11.9178082,5.30972851 12.0462329,5.28353821 12.2003424,5.28353821 C13.7671232,5.07401646 15.5393836,5.02163608 17.3886987,5.23115783 C19.8287671,5.51925026 22.4486302,6.25257626 25.119863,7.74541869 C25.119863,7.74541869 23.0907534,5.78115239 18.724315,4.41926103 L19.0839042,4.00021765 C19.0839042,4.00021765 22.6027397,3.92164696 26.3013698,6.75019044 C26.3013698,6.75019044 30,13.5858371 30,22.019087 C30,22.019087 27.8167808,25.8166684 22.140411,26 Z M10.1969178,13.7691686 C8.73287677,13.7691686 7.57705477,15.0786795 7.57705477,16.6762827 C7.57705477,18.273886 8.75856162,19.5833969 10.1969178,19.5833969 C11.6609589,19.5833969 12.8167808,18.273886 12.8167808,16.6762827 C12.8424658,15.0786795 11.6609589,13.7691686 10.1969178,13.7691686 Z M19.5719178,13.7691686 C18.1078768,13.7691686 16.9520548,15.0786795 16.9520548,16.6762827 C16.9520548,18.273886 18.1335616,19.5833969 19.5719178,19.5833969 C21.0359589,19.5833969 22.1917808,18.273886 22.1917808,16.6762827 C22.1917808,15.0786795 21.0359589,13.7691686 19.5719178,13.7691686 Z" id="Combined-Shape" fill="#FFFFFF" fill-rule="nonzero"></path>
        </g>
    </g>
</svg>