<?xml version="1.0" encoding="UTF-8"?>
<svg width="30px" height="30px" viewBox="0 0 30 30" version="1.1" xmlns="http://www.w3.org/2000/svg" xmlns:xlink="http://www.w3.org/1999/xlink">
    <!-- Generator: Sketch 52.1 (67048) - http://www.bohemiancoding.com/sketch -->
    <title>github-icon</title>
    <desc>Created with Sketch.</desc>
    <g id="Page-1" stroke="none" stroke-width="1" fill="none" fill-rule="evenodd">
        <path d="M14.998987,0 C7.642393,0.00107948 1.372281,5.47283024 0.194757,12.9192356 C-0.982767,20.3656409 3.279866,27.588755 10.259169,29.9735783 C11.009082,30.1145971 11.282816,29.639834 11.282816,29.2322228 C11.282816,28.867109 11.269812,27.8999315 11.262515,26.6164693 C7.090558,27.5458498 6.210701,24.5548139 6.210701,24.5548139 C5.528706,22.7780738 4.545473,22.3051335 4.545473,22.3051335 C3.183728,21.3508108 4.64838,21.3701889 4.64838,21.3701889 C6.153447,21.4789748 6.945646,22.9551626 6.945646,22.9551626 C8.283441,25.3054748 10.456002,24.6267622 11.310601,24.2330609 C11.446906,23.2391187 11.834493,22.5614614 12.262868,22.1769695 C8.932413,21.7888323 5.431037,20.4693958 5.431037,14.5757723 C5.409196,13.0478133 5.961979,11.5699069 6.974647,10.4488161 C6.820473,10.0597196 6.30575,8.49604253 7.121711,6.37855521 C7.121711,6.37855521 8.381016,5.96499621 11.246144,7.95518295 C13.704136,7.26499271 16.297861,7.26499271 18.755853,7.95518295 C21.619296,5.96499621 22.876263,6.37855521 22.876263,6.37855521 C23.694563,8.49604253 23.179746,10.0597196 23.025946,10.4488161 C23.987194,11.523916 24.567591,12.8967861 24.567591,14.5757723 C24.567591,20.4840733 21.060884,21.7842276 17.719576,22.1649781 C18.258156,22.6398371 18.737891,23.578427 18.737891,25.0130767 C18.737891,27.0691682 18.719181,28.7280089 18.719181,29.2322228 C18.719181,29.6434794 18.989265,30.1219838 19.750499,29.9717557 C26.726741,27.5822541 30.984414,20.3584941 29.804292,12.9140384 C28.624169,5.46958259 22.354401,0.00062613 14.999268,0 L14.998987,0 Z" id="github-icon" fill="#FFFFFF"></path>
    </g>
</svg>