<?xml version="1.0" encoding="UTF-8"?>
<svg width="30px" height="30px" viewBox="0 0 30 30" version="1.1" xmlns="http://www.w3.org/2000/svg" xmlns:xlink="http://www.w3.org/1999/xlink">
    <!-- Generator: Sketch 52.1 (67048) - http://www.bohemiancoding.com/sketch -->
    <title>reddit-icon</title>
    <desc>Created with Sketch.</desc>
    <g id="Page-1" stroke="none" stroke-width="1" fill="none" fill-rule="evenodd">
        <path d="M15,30 C6.715729,30 0,23.2842712 0,15 C0,6.71572875 6.715729,0 15,0 C23.284271,0 30,6.71572875 30,15 C30,23.2842712 23.284271,30 15,30 Z M24.621424,14.9282535 C24.635166,13.7439629 23.692989,12.7718251 22.514945,12.7547905 C21.963448,12.7585676 21.435908,12.9818596 21.047822,13.3757799 C19.389369,12.2093629 17.425191,11.5612698 15.401716,11.5128116 L16.368473,6.82434131 L19.50966,7.51984948 C19.571608,8.33709808 20.269968,8.95594902 21.084283,8.91519939 C21.898599,8.87444977 22.532369,8.18893688 22.513273,7.36954392 C22.494177,6.55015097 21.829167,5.89522635 21.013847,5.89285714 C20.434253,5.89824177 19.909761,6.23926429 19.667182,6.76845226 L16.161531,5.97669072 C16.066153,5.95699661 15.966908,5.97717421 15.886639,6.03257977 C15.800337,6.0875355 15.743527,6.17891101 15.732205,6.28097554 L14.660433,11.5128116 C12.607084,11.5425789 10.609955,12.1916028 8.927844,13.3757799 C8.540145,12.9812847 8.012357,12.7578877 7.460721,12.7547905 C6.283162,12.7718214 5.34187,13.744472 5.357331,14.9282535 C5.348262,15.7762107 5.830613,16.5520375 6.592802,16.9154198 C6.55771,17.1341018 6.540151,17.3552644 6.540295,17.5767735 C6.540295,20.9425363 10.320838,23.6810997 14.981656,23.6810997 C19.642473,23.6810997 23.423017,20.961166 23.423017,17.5767735 C23.422421,17.3552945 23.404866,17.1341901 23.370509,16.9154198 C24.131908,16.5488196 24.617817,15.7769194 24.621424,14.9282535 Z M10.15405,16.4807271 C10.176084,15.6512282 10.858974,14.9945491 11.684292,15.0092186 C12.50961,15.0238881 13.168981,15.704425 13.161831,16.5341886 C13.154682,17.3639521 12.483684,18.0329051 11.658237,18.0332008 C10.817468,18.0195835 10.145447,17.3259898 10.15405,16.4807271 Z M18.561435,20.6196218 C17.526728,21.6939335 15.559239,21.7591374 14.987833,21.7591374 C14.416427,21.7591374 12.433495,21.6690939 11.414231,20.6134119 C11.260445,20.4543504 11.260445,20.2011631 11.414231,20.0421016 C11.485544,19.9647127 11.585729,19.9207233 11.690668,19.9207233 C11.795606,19.9207233 11.895791,19.9647127 11.967105,20.0421016 C12.621905,20.722085 14.005633,20.9549561 14.987833,20.9549561 C15.970033,20.9549561 17.369205,20.722085 18.008562,20.0421016 C18.079875,19.9647127 18.18006,19.9207233 18.284998,19.9207233 C18.389937,19.9207233 18.490122,19.9647127 18.561435,20.0421016 C18.704305,20.2078204 18.704305,20.453903 18.561435,20.6196218 Z M18.286543,18.0611453 C17.658279,18.0788362 17.082023,17.7120105 16.829304,17.1335165 C16.576586,16.5550225 16.697826,15.8802737 17.135895,15.4272117 C17.573964,14.9741498 18.241464,14.8331636 18.823871,15.070686 C19.406277,15.3082084 19.787394,15.8768518 19.787641,16.5086717 C19.796261,17.352744 19.126099,18.0458422 18.286543,18.0611453 Z" id="reddit-icon" fill="#FFFFFF" fill-rule="nonzero"></path>
    </g>
</svg>