<?xml version="1.0" encoding="UTF-8"?>
<svg width="30px" height="30px" viewBox="0 0 30 30" version="1.1" xmlns="http://www.w3.org/2000/svg" xmlns:xlink="http://www.w3.org/1999/xlink">
    <!-- Generator: Sketch 52.1 (67048) - http://www.bohemiancoding.com/sketch -->
    <title>twitter-icon</title>
    <desc>Created with Sketch.</desc>
    <defs>
        <radialGradient cx="50%" cy="50%" fx="50%" fy="50%" r="52.0889896%" id="radialGradient-1">
            <stop stop-color="#FFFFFF" stop-opacity="0.01" offset="0%"></stop>
            <stop stop-color="#FFFFFF" stop-opacity="0" offset="100%"></stop>
        </radialGradient>
    </defs>
    <g id="Page-1" stroke="none" stroke-width="1" fill="none" fill-rule="evenodd">
        <g id="twitter-icon">
            <rect id="Rectangle" fill="url(#radialGradient-1)" x="0" y="0" width="30" height="30"></rect>
            <path d="M9.4344,27 C20.7552,27 26.9472,17.7657632 26.9472,9.75787467 C26.9472,9.49559209 26.9472,9.23449098 26.9292,8.97457132 C28.1337977,8.11673111 29.1736266,7.05456768 30,5.83781356 C28.8766548,6.32788236 27.6849952,6.64926933 26.4648,6.79124614 C27.7496928,6.03391356 28.7113483,4.84276073 29.1708,3.43946393 C27.962589,4.14532931 26.6407753,4.64278803 25.2624,4.91037294 C23.3544993,2.91300171 20.3228633,2.42413808 17.8674592,3.7179087 C15.412055,5.01167931 14.14353,7.76632971 14.7732,10.4372102 C9.82427492,10.1929442 5.21337093,7.89156083 2.088,4.10580343 C0.454347308,6.87470957 1.28878546,10.4169594 3.9936,12.1952123 C3.01408944,12.16663 2.05593525,11.9064807 1.2,11.4367194 L1.2,11.5135139 C1.20080176,14.3981412 3.26610178,16.8826687 6.138,17.4538596 C5.23184352,17.6971681 4.28109671,17.7327348 3.3588,17.5578275 C4.16513752,20.0263824 6.47588947,21.7174682 9.1092,21.7661632 C6.92968204,23.4526069 4.23727142,24.3681098 1.4652,24.3653598 C0.975484283,24.3644341 0.486244875,24.3352416 0,24.2779322 C2.81476314,26.0563458 6.08989608,26.9996656 9.4344,26.9952742" id="Path" fill="#FFFFFF"></path>
        </g>
    </g>
</svg>