<?xml version="1.0" encoding="UTF-8"?>
<svg width="16px" height="16px" viewBox="0 0 16 16" version="1.1" xmlns="http://www.w3.org/2000/svg" xmlns:xlink="http://www.w3.org/1999/xlink">
    <!-- Generator: Sketch 61.2 (89653) - https://sketch.com -->
    <title>icon-border-no</title>
    <desc>Created with Sketch.</desc>
    <defs>
        <rect id="path-1" x="-2.88657986e-14" y="6.66133815e-15" width="16" height="16"></rect>
    </defs>
    <g id="icon-border-no" stroke="none" stroke-width="1" fill="none" fill-rule="evenodd">
        <mask id="mask-2" fill="white">
            <use xlink:href="#path-1"></use>
        </mask>
        <g id="Rectangle"></g>
        <path d="M13.6568542,2.34314575 C14.2426407,2.92893219 14.2426407,3.87867966 13.6568542,4.46446609 L10.1220275,7.99929289 L13.6568542,11.5355339 C14.2426407,12.1213203 14.2426407,13.0710678 13.6568542,13.6568542 C13.0710678,14.2426407 12.1213203,14.2426407 11.5355339,13.6568542 L8,10.1213203 L4.46446609,13.6568542 C3.87867966,14.2426407 2.92893219,14.2426407 2.34314575,13.6568542 C1.75735931,13.0710678 1.75735931,12.1213203 2.34314575,11.5355339 L5.87867966,8 L2.34314575,4.46446609 C1.75735931,3.87867966 1.75735931,2.92893219 2.34314575,2.34314575 C2.92893219,1.75735931 3.87867966,1.75735931 4.46446609,2.34314575 L8,5.87867966 L11.5355339,2.34314575 C12.1213203,1.75735931 13.0710678,1.75735931 13.6568542,2.34314575 Z" id="Path" fill="#FFFFFF" mask="url(#mask-2)"></path>
    </g>
</svg>