<svg xmlns="http://www.w3.org/2000/svg" width="16" height="16"><path d="M8 13a.5.5 0 0 1 .5.5v2a.5.5 0 1 1-1 0v-2A.5.5 0 0 1 8 13zm-3.536-1.464a.5.5 0 0 1 0 .707L3.05 13.657a.5.5 0 0 1-.707-.707l1.414-1.414a.5.5 0 0 1 .707 0zm7.778 0l1.414 1.414a.5.5 0 0 1-.707.707l-1.414-1.414a.5.5 0 1 1 .707-.707zM8 4a4 4 0 1 1 0 8 4 4 0 1 1 0-8zM2.5 7.5a.5.5 0 1 1 0 1h-2a.5.5 0 1 1 0-1h2zm13 0a.5.5 0 1 1 0 1h-2a.5.5 0 1 1 0-1h2zm-1.843-5.157a.5.5 0 0 1 0 .707l-1.414 1.414a.5.5 0 0 1-.707-.707l1.414-1.414a.5.5 0 0 1 .707 0zm-10.607 0l1.414 1.414a.5.5 0 0 1-.707.707L2.343 3.05a.5.5 0 0 1 .707-.707zM8 0a.5.5 0 0 1 .5.5v2a.5.5 0 1 1-1 0v-2A.5.5 0 0 1 8 0z" fill="#fff" fill-rule="evenodd"/></svg>