<svg xmlns="http://www.w3.org/2000/svg" xmlns:xlink="http://www.w3.org/1999/xlink" viewBox="0 0 3700 1000"><path d="M3126.67 695.647h500a0 0 0 0 1 0 0v132.998a14.4 14.4 0 0 1-14.4 14.4h-471.2a14.4 14.4 0 0 1-14.4-14.4V695.647a0 0 0 0 1 0 0zM554.065 249.087h106.58a14.4 14.4 0 0 1 14.4 14.4v458.166a14.4 14.4 0 0 1-14.4 14.4h-106.58a0 0 0 0 1 0 0V249.087a0 0 0 0 1 0 0z"/><path d="M3606.67 250.3h-33.056v-57.646a14.4 14.4 0 0 0-14.399-14.4h-364a14.4 14.4 0 0 0-14.399 14.4V250.3h-34.136a20 20 0 0 0-20 20v460a20 20 0 0 0 20 20h460a20.001 20.001 0 0 0 20-20v-460a20 20 0 0 0-20-20zM591.094 726.416v-457.33a20 20 0 0 0-20-20h-67.148v-56.442a14.4 14.4 0 0 0-14.4-14.4h-295.9a14.4 14.4 0 0 0-14.4 14.4v56.443h-68.162a20 20 0 0 0-20 20v520.33a14.4 14.4 0 0 0 14.4 14.4h471.2a14.4 14.4 0 0 0 14.4-14.4v-63z"/><g fill="#fff"><use xlink:href="#B"/><path d="M253.823 229.25h-6.8l-4.88-9a3.817 3.817 0 0 0-1.44-1.5 4.383 4.383 0 0 0-2.12-.46h-3.08v10.96h-6.16v-28.2h12.96q4.96 0 7.5 2.18a7.846 7.846 0 0 1 2.54 6.3 8.146 8.146 0 0 1-1.78 5.359 8.517 8.517 0 0 1-5.02 2.841 6.186 6.186 0 0 1 3.72 3.159zm-8.56-16.62a4.225 4.225 0 0 0 0-5.899 6.439 6.439 0 0 0-3.88-.921h-5.96v7.76h5.96a6.331 6.331 0 0 0 3.881-.94zm12.08 16.62v-28.2h6.24v28.2zm32.44-28.2h6.32l-12.68 28.2h-5l-12.72-28.2h6.48l8.8 20.44z"/><use xlink:href="#C"/><path d="M328.343 229.25v-23.12h-8.84v-5.08h23.92v5.08h-8.84v23.12z"/><use xlink:href="#D"/><path d="M385.182 228.75a14.569 14.569 0 0 1-4.92-2.38l2-4.44a15.648 15.648 0 0 0 9.159 2.84 7.897 7.897 0 0 0 4.06-.859 2.659 2.659 0 0 0 1.42-2.38 2.352 2.352 0 0 0-1.3-2.12 17.395 17.395 0 0 0-4.62-1.48 25.572 25.572 0 0 1-5.94-1.84 7.752 7.752 0 0 1-3.239-2.66 7.037 7.037 0 0 1-1.021-3.899 7.688 7.688 0 0 1 1.42-4.561 9.461 9.461 0 0 1 3.98-3.14 14.43 14.43 0 0 1 5.92-1.14 19.037 19.037 0 0 1 5.78.88 11.864 11.864 0 0 1 4.42 2.359l-2 4.44a13.606 13.606 0 0 0-8.16-2.84 6.819 6.819 0 0 0-3.84.939 2.948 2.948 0 0 0-1.4 2.58 2.316 2.316 0 0 0 .54 1.58 4.485 4.485 0 0 0 1.8 1.101 27.606 27.606 0 0 0 3.58 1q5.44 1.2 7.82 3.08a6.263 6.263 0 0 1 2.38 5.2 7.436 7.436 0 0 1-3.08 6.3q-3.08 2.3-8.6 2.3a21.967 21.967 0 0 1-6.159-.86z"/><use xlink:href="#D" x="60.798"/><use xlink:href="#D" x="84.478"/><path d="M454.82 201.05h10.96a17.36 17.36 0 0 1 7.921 1.681 11.724 11.724 0 0 1 5.079 4.84 15.303 15.303 0 0 1 1.761 7.56 15.565 15.565 0 0 1-1.74 7.58 11.583 11.583 0 0 1-5.06 4.86 17.454 17.454 0 0 1-7.961 1.68h-10.96zm10.52 23.16q9 0 9-9.08 0-9.04-9-9.04h-4.28v18.12zM109.655 762.9h6.946a11.01 11.01 0 0 1 5.02 1.064 7.44 7.44 0 0 1 3.219 3.068 9.7 9.7 0 0 1 1.116 4.791 9.866 9.866 0 0 1-1.103 4.804 7.349 7.349 0 0 1-3.207 3.08 11.072 11.072 0 0 1-5.046 1.065h-6.946zm6.668 14.678q5.703 0 5.704-5.754 0-5.73-5.704-5.73H113.6v11.484zm16.237 2.294a7.626 7.626 0 0 1-3.03-3.195 11.602 11.602 0 0 1 0-9.71 7.549 7.549 0 0 1 3.03-3.181 10.147 10.147 0 0 1 9.253 0 7.543 7.543 0 0 1 3.03 3.181 11.602 11.602 0 0 1 0 9.71 7.62 7.62 0 0 1-3.03 3.195 10.048 10.048 0 0 1-9.253 0zm8.138-3.512a8.694 8.694 0 0 0 .012-9.063 4.748 4.748 0 0 0-7.035 0 8.772 8.772 0 0 0 .012 9.063 4.694 4.694 0 0 0 7.01 0zm27.062-13.46h3.7v17.873h-2.94l-8.898-11.383v11.383h-3.676V762.9h2.916l8.898 11.332zm10.813 16.972a7.626 7.626 0 0 1-3.03-3.195 11.603 11.603 0 0 1 0-9.71 7.549 7.549 0 0 1 3.03-3.181 10.147 10.147 0 0 1 9.253 0 7.543 7.543 0 0 1 3.03 3.181 11.603 11.603 0 0 1 0 9.71 7.62 7.62 0 0 1-3.03 3.195 10.048 10.048 0 0 1-9.253 0zm8.138-3.512a8.694 8.694 0 0 0 .012-9.063 4.748 4.748 0 0 0-7.035 0 8.772 8.772 0 0 0 .012 9.063 4.694 4.694 0 0 0 7.01 0z"/><use xlink:href="#E"/><path d="M219.046 780.455a9.222 9.222 0 0 1-3.118-1.508l1.267-2.814a9.926 9.926 0 0 0 5.806 1.8 4.999 4.999 0 0 0 2.573-.545 1.686 1.686 0 0 0 .9-1.508 1.49 1.49 0 0 0-.824-1.344 11.075 11.075 0 0 0-2.928-.938 16.218 16.218 0 0 1-3.765-1.166 4.912 4.912 0 0 1-2.053-1.686 4.462 4.462 0 0 1-.647-2.472 4.871 4.871 0 0 1 .9-2.89 6.001 6.001 0 0 1 2.522-1.99 9.14 9.14 0 0 1 3.752-.723 12.086 12.086 0 0 1 3.664.558 7.532 7.532 0 0 1 2.801 1.496l-1.268 2.814a8.622 8.622 0 0 0-5.172-1.8 4.321 4.321 0 0 0-2.434.596 1.869 1.869 0 0 0-.887 1.635 1.468 1.468 0 0 0 .343 1.002 2.839 2.839 0 0 0 1.141.697 17.312 17.312 0 0 0 2.269.633 12.625 12.625 0 0 1 4.956 1.952 3.97 3.97 0 0 1 1.508 3.296 4.715 4.715 0 0 1-1.952 3.994 8.947 8.947 0 0 1-5.451 1.457 13.914 13.914 0 0 1-3.905-.545zm26.24-17.555h3.878v17.873h-3.878v-7.504h-8.24v7.504h-3.88V762.9h3.88v7.225h8.24zm21.042 17.872l-1.7-3.955h-8.316l-1.7 3.955h-3.98l8.215-17.873h3.17l8.214 17.873zm-8.72-6.946h5.73l-2.865-6.693zm29.6 6.946h-4.3l-3.093-5.704a2.422 2.422 0 0 0-.913-.951 2.776 2.776 0 0 0-1.344-.291h-1.952v6.946H271.7V762.9h8.214a7.123 7.123 0 0 1 4.753 1.382 4.974 4.974 0 0 1 1.61 3.993 5.162 5.162 0 0 1-1.128 3.398 5.4 5.4 0 0 1-3.181 1.8 3.923 3.923 0 0 1 2.358 2.004zm-5.426-10.533a2.677 2.677 0 0 0 0-3.739 4.079 4.079 0 0 0-2.459-.584h-3.777v4.918h3.777a4.012 4.012 0 0 0 2.459-.595zm7.656 10.533V762.9h12.322v3.068h-8.47v4.183h7.96v3.067h-7.96v4.487h8.468v3.068z"/><use xlink:href="#E" x="117.605"/><path d="M339.364 762.9h3.88v17.873h-3.88v-7.504h-8.24v7.504h-3.878V762.9h3.878v7.225h8.24zm7.402 17.872V762.9h3.955v17.873zm9.837-.317a9.221 9.221 0 0 1-3.118-1.508l1.267-2.814a9.926 9.926 0 0 0 5.806 1.8 4.999 4.999 0 0 0 2.573-.545 1.686 1.686 0 0 0 .9-1.508 1.491 1.491 0 0 0-.824-1.344 11.077 11.077 0 0 0-2.928-.938 16.215 16.215 0 0 1-3.765-1.166 4.912 4.912 0 0 1-2.053-1.686 4.462 4.462 0 0 1-.647-2.472 4.871 4.871 0 0 1 .9-2.89 6.002 6.002 0 0 1 2.522-1.99 9.14 9.14 0 0 1 3.752-.723 12.086 12.086 0 0 1 3.664.558 7.532 7.532 0 0 1 2.801 1.496l-1.268 2.814a8.622 8.622 0 0 0-5.171-1.8 4.32 4.32 0 0 0-2.434.596 1.869 1.869 0 0 0-.887 1.635 1.469 1.469 0 0 0 .343 1.002 2.84 2.84 0 0 0 1.141.697 17.31 17.31 0 0 0 2.269.633 12.625 12.625 0 0 1 4.956 1.952 3.97 3.97 0 0 1 1.508 3.296 4.715 4.715 0 0 1-1.952 3.994 8.947 8.947 0 0 1-5.451 1.457 13.914 13.914 0 0 1-3.905-.545zm43.452-17.555h3.752l-6.363 17.873h-3.17l-4.133-11.84-4.183 11.84h-3.17L376.45 762.9h4.006l4.08 12.346 4.335-12.346h2.763l4.183 12.473zm5.957 17.872V762.9h3.956v17.873z"/><use xlink:href="#E" x="219.593"/><path d="M441.352 762.9h3.878v17.873h-3.878v-7.504h-8.24v7.504h-3.88V762.9h3.88v7.225h8.24zm28.1 17.872l-1.698-3.955h-8.316l-1.7 3.955h-3.98l8.214-17.873h3.17l8.214 17.873zm-8.72-6.946h5.73l-2.865-6.693zM486.63 762.9h3.702v17.873h-2.94l-8.898-11.383v11.383h-3.675V762.9h2.915l8.898 11.332zm22.892 0l-7.402 9.786v8.087h-3.954v-8.087l-7.378-9.786h4.488l4.842 6.617 4.918-6.617zm3.004 16.972a7.626 7.626 0 0 1-3.03-3.195 11.602 11.602 0 0 1 0-9.71 7.549 7.549 0 0 1 3.03-3.181 10.149 10.149 0 0 1 9.254 0 7.547 7.547 0 0 1 3.029 3.181 11.592 11.592 0 0 1 0 9.71 7.624 7.624 0 0 1-3.029 3.195 10.05 10.05 0 0 1-9.254 0zm8.138-3.512a8.696 8.696 0 0 0 .013-9.063 4.749 4.749 0 0 0-7.036 0 8.775 8.775 0 0 0 .013 9.063 4.693 4.693 0 0 0 7.009 0zm20.014-13.46h3.702v17.873h-2.94l-8.898-11.383v11.383h-3.675V762.9h2.915l8.898 11.332zm7.227 17.872V762.9h12.32v3.068h-8.467v4.183h7.96v3.067h-7.96v4.487h8.467v3.068zm22.41-5.78l-1.2-12.12 4.715.026-1.217 12.093zm-.887 1.724h4.107v4.056h-4.107z"/><use xlink:href="#B" x="3001.55"/><path d="M3233.834 226.55q-3.1-3.06-3.1-8.94v-16.56h6.12v16.84a7.55 7.55 0 0 0 1.54 5.12 6.531 6.531 0 0 0 8.94-.02 7.509 7.509 0 0 0 1.56-5.101v-16.84h6.12v16.56q0 5.84-3.12 8.92-3.12 3.08-9.04 3.08-5.92 0-9.02-3.06zm48.48-9.4a7.078 7.078 0 0 1 1.34 4.38 6.819 6.819 0 0 1-2.62 5.64 11.322 11.322 0 0 1-7.22 2.08h-13.4v-28.2h13a11.275 11.275 0 0 1 6.979 1.96 6.365 6.365 0 0 1 2.58 5.36 6.495 6.495 0 0 1-1.18 3.86 6.708 6.708 0 0 1-3.26 2.42 7.072 7.072 0 0 1 3.781 2.5zm-15.82-4.62h5.88a6.11 6.11 0 0 0 3.54-.82 2.874 2.874 0 0 0 1.14-2.5 2.963 2.963 0 0 0-1.14-2.58 6.117 6.117 0 0 0-3.54-.82h-5.88zm10.2 11.12a3.182 3.182 0 0 0 1.12-2.721 3.296 3.296 0 0 0-1.12-2.76 5.862 5.862 0 0 0-3.601-.88h-6.6v7.2h6.6a6.074 6.074 0 0 0 3.601-.839zm11.24 5.6v-28.2h6.24v23.12h12.6v5.08zm22.48 0v-28.2h6.24v28.2zm17.58-1.45a12.108 12.108 0 0 1-4.88-5.079 17.837 17.837 0 0 1 0-15.2 11.995 11.995 0 0 1 4.88-5.061 15.037 15.037 0 0 1 7.46-1.779 16.727 16.727 0 0 1 5.36.859 11.469 11.469 0 0 1 4.2 2.38l-2 4.44a13.487 13.487 0 0 0-3.66-2.04 11.312 11.312 0 0 0-3.78-.64 7.135 7.135 0 0 0-5.78 2.399q-2.02 2.4-2.02 7.04.001 4.64 2.02 7.06a7.106 7.106 0 0 0 5.78 2.42 11.313 11.313 0 0 0 3.78-.641 13.463 13.463 0 0 0 3.66-2.04l2 4.44a11.441 11.441 0 0 1-4.2 2.38 16.728 16.728 0 0 1-5.36.86 14.889 14.889 0 0 1-7.46-1.799z"/><use xlink:href="#C" x="3064.99"/><path d="M3390.4 201.05h10.96a17.355 17.355 0 0 1 7.92 1.681 11.731 11.731 0 0 1 5.08 4.84 15.314 15.314 0 0 1 1.76 7.56 15.565 15.565 0 0 1-1.74 7.58 11.578 11.578 0 0 1-5.06 4.86 17.453 17.453 0 0 1-7.96 1.68h-10.96zm10.52 23.16q9 0 9-9.08 0-9.04-9-9.04h-4.28v18.12zm19.96-23.16h10.96a17.355 17.355 0 0 1 7.92 1.681 11.731 11.731 0 0 1 5.08 4.84 15.314 15.314 0 0 1 1.76 7.56 15.565 15.565 0 0 1-1.74 7.58 11.578 11.578 0 0 1-5.06 4.86 17.452 17.452 0 0 1-7.96 1.68h-10.96zm10.52 23.16q9 0 9-9.08 0-9.04-9-9.04h-4.28v18.12zm44.44 5.04h-6.8l-4.88-9a3.817 3.817 0 0 0-1.439-1.5 4.383 4.383 0 0 0-2.12-.46h-3.08v10.96h-6.16v-28.2h12.96q4.96 0 7.5 2.18a7.847 7.847 0 0 1 2.54 6.3 8.145 8.145 0 0 1-1.78 5.359 8.516 8.516 0 0 1-5.02 2.841 6.186 6.186 0 0 1 3.72 3.159zm-8.56-16.62a4.225 4.225 0 0 0 0-5.899 6.438 6.438 0 0 0-3.88-.921h-5.96v7.76h5.96a6.331 6.331 0 0 0 3.88-.94zm12.08 16.62v-28.2h19.44v4.84h-13.36v6.6H3498v4.84h-12.56v7.08h13.36v4.84zm27-.5a14.578 14.578 0 0 1-4.92-2.38l2-4.44a15.651 15.651 0 0 0 9.16 2.84 7.893 7.893 0 0 0 4.06-.859 2.66 2.66 0 0 0 1.421-2.38 2.353 2.353 0 0 0-1.301-2.12 17.369 17.369 0 0 0-4.62-1.48 25.562 25.562 0 0 1-5.939-1.84 7.749 7.749 0 0 1-3.24-2.66 7.045 7.045 0 0 1-1.02-3.899 7.682 7.682 0 0 1 1.42-4.561 9.458 9.458 0 0 1 3.979-3.14 14.433 14.433 0 0 1 5.92-1.14 19.032 19.032 0 0 1 5.78.88 11.856 11.856 0 0 1 4.42 2.359l-2 4.44a13.604 13.604 0 0 0-8.16-2.84 6.821 6.821 0 0 0-3.84.939 2.949 2.949 0 0 0-1.399 2.58 2.32 2.32 0 0 0 .539 1.58 4.489 4.489 0 0 0 1.801 1.101 27.601 27.601 0 0 0 3.58 1q5.44 1.2 7.82 3.08a6.26 6.26 0 0 1 2.38 5.2 7.433 7.433 0 0 1-3.08 6.3q-3.08 2.3-8.6 2.3a21.973 21.973 0 0 1-6.16-.86zm26 0a14.569 14.569 0 0 1-4.92-2.38l2-4.44a15.648 15.648 0 0 0 9.159 2.84 7.9 7.9 0 0 0 4.061-.859 2.659 2.659 0 0 0 1.42-2.38 2.352 2.352 0 0 0-1.3-2.12 17.395 17.395 0 0 0-4.62-1.48 25.572 25.572 0 0 1-5.94-1.84 7.752 7.752 0 0 1-3.239-2.66 7.037 7.037 0 0 1-1.021-3.899 7.688 7.688 0 0 1 1.42-4.561 9.461 9.461 0 0 1 3.98-3.14 14.43 14.43 0 0 1 5.92-1.14 19.027 19.027 0 0 1 5.779.88 11.857 11.857 0 0 1 4.42 2.359l-2 4.44a13.603 13.603 0 0 0-8.159-2.84 6.824 6.824 0 0 0-3.841.939 2.949 2.949 0 0 0-1.399 2.58 2.32 2.32 0 0 0 .539 1.58 4.49 4.49 0 0 0 1.801 1.101 27.606 27.606 0 0 0 3.58 1q5.44 1.2 7.82 3.08a6.263 6.263 0 0 1 2.38 5.2 7.436 7.436 0 0 1-3.08 6.3q-3.08 2.3-8.6 2.3a21.96 21.96 0 0 1-6.159-.86zM0-.045h1600v150.02H0zM0 849.98h1600V1000H0z"/></g><path d="M1599.988-.046v150.02H-.042v700.05h1600.03v150h2100.05V-.046zm2089.25 989.28h-2078.45v-150H10.758v-678.45h1600.03V10.754h2078.45z"/><path d="M3180.807 0h392.81a0 0 0 0 1 0 0v107.657a14.4 14.4 0 0 1-14.4 14.4h-364.01a14.4 14.4 0 0 1-14.4-14.4V0a0 0 0 0 1 0 0z"/><path d="M3396.8 31.724h11.146a10.104 10.104 0 0 1 6.891 2.157 7.702 7.702 0 0 1 2.457 6.112 7.795 7.795 0 0 1-2.477 6.152 9.997 9.997 0 0 1-6.871 2.197h-7.87V59.9h-3.276zm10.826 13.903q6.432 0 6.432-5.633 0-5.553-6.432-5.553h-7.55v11.186zM3444.1 59.9l-3.116-7.23h-14.702l-3.116 7.23h-3.356l12.384-28.165h2.837l12.384 28.165zm-16.66-9.948h12.384l-6.192-14.422zm24.17-18.217h11.146a10.103 10.103 0 0 1 6.891 2.157 7.702 7.702 0 0 1 2.457 6.112 7.795 7.795 0 0 1-2.477 6.152 9.997 9.997 0 0 1-6.871 2.197h-7.87V59.9h-3.276zm10.826 13.903q6.432 0 6.432-5.633 0-5.553-6.432-5.553h-7.55v11.186zm14.94 14.262V31.724h17.818v2.717h-14.582v9.788h13.783v2.717h-13.783v10.227h14.582V59.9zm45.423 0h-3.595l-4.794-9.03a5.21 5.21 0 0 0-2.057-2.257 6.973 6.973 0 0 0-3.216-.619h-5.273V59.9h-3.236V31.724h11.586q4.594 0 7 2.038a7.396 7.396 0 0 1 2.417 5.993 7.506 7.506 0 0 1-1.858 5.293 8.693 8.693 0 0 1-5.293 2.537 4.731 4.731 0 0 1 1.898 1.079 7.626 7.626 0 0 1 1.498 2.037zm-10.866-14.622a7.477 7.477 0 0 0 4.894-1.358 5.069 5.069 0 0 0 1.618-4.115 4.929 4.929 0 0 0-1.598-4.035 7.627 7.627 0 0 0-4.914-1.318h-8.07V45.27zm-88.418 23.484h4.557l-7.73 21.7h-3.85l-5.02-14.38-5.08 14.38h-3.85l-7.698-21.7h4.865l4.958 14.996 5.266-14.996h3.356l5.08 15.15zm23.833 21.7l-2.063-4.804h-10.1l-2.063 4.804h-4.834l9.977-21.7h3.85l9.977 21.7zm-10.593-8.437h6.96l-3.48-8.13zm17.15 8.437V68.75h4.804v17.8h9.7v3.9zm17.336 0V68.75h4.804v17.8h9.7v3.9zm17.336 0V68.75h14.965v3.726h-10.285v5.08h9.67v3.726h-9.67v5.45h10.285v3.726zm23.28 0v-17.8h-6.805v-3.9h18.414v3.9h-6.805V90.46zm-277.773 1.358a10.932 10.932 0 1 1 11.05-10.931 11.003 11.003 0 0 1-11.05 10.931zm85.9-.064a10.932 10.932 0 1 1 0-21.863c7.862 0 10.386-2.495 10.386-10.267a11.004 11.004 0 0 1 11.05-10.932c7.862 0 10.385-2.495 10.385-10.268a11.05 11.05 0 1 1 11.05 10.932c-7.862 0-10.386 2.495-10.386 10.267a11.003 11.003 0 0 1-11.049 10.931c-7.862 0-10.386 2.495-10.386 10.268a11.004 11.004 0 0 1-11.05 10.932zm-21.532-21.167a11.004 11.004 0 0 1-11.05-10.932c0-7.772-2.523-10.267-10.386-10.267s-10.385 2.495-10.385 10.267a11.05 11.05 0 1 1-11.05-10.931c7.862 0 10.386-2.495 10.386-10.267a11.05 11.05 0 0 1 22.099 0c0 7.772 2.523 10.267 10.386 10.267a10.932 10.932 0 1 1 0 21.863z" fill="#fff"/><path d="M3141.07 891.984h472.73a14.4 14.4 0 0 1 14.4 14.4V1000a0 0 0 0 1 0 0h-501.53a0 0 0 0 1 0 0v-93.616a14.4 14.4 0 0 1 14.4-14.4z"/><path d="M3171.64 933.664q3.9 0 5.804 2.215 1.905 2.215 1.905 6.7v13.292h-5.538v-12.98a5.745 5.745 0 0 0-.952-3.677 3.661 3.661 0 0 0-2.991-1.152 5.055 5.055 0 0 0-3.832 1.506 5.591 5.591 0 0 0-1.44 4.032v12.273h-5.538v-21.666h5.405v3.234a7.492 7.492 0 0 1 2.969-2.791 8.934 8.934 0 0 1 4.209-.974zm22.562 0q4.564 0 6.78 2.215 2.215 2.215 2.215 6.823v13.16h-5.273v-3.323a5.781 5.781 0 0 1-2.37 2.703 7.11 7.11 0 0 1-3.744.975 8.693 8.693 0 0 1-3.943-.886 7.016 7.016 0 0 1-2.791-2.437 6.158 6.158 0 0 1-1.019-3.456 5.474 5.474 0 0 1 1.218-3.766 7.323 7.323 0 0 1 3.966-1.994 36.111 36.111 0 0 1 7.576-.62h1.108v-1.02a4.453 4.453 0 0 0-.953-3.19 4.303 4.303 0 0 0-3.168-.975 11.915 11.915 0 0 0-3.611.598 18.253 18.253 0 0 0-3.7 1.662l-1.55-3.8a18.993 18.993 0 0 1 9.26-2.658zm-1.285 18.564a4.732 4.732 0 0 0 3.611-1.484 5.369 5.369 0 0 0 1.396-3.832v-.93h-.798a30.551 30.551 0 0 0-4.608.266 4.474 4.474 0 0 0-2.348.93 2.37 2.37 0 0 0-.709 1.817 3.038 3.038 0 0 0 .975 2.326 3.496 3.496 0 0 0 2.481.908zm28.4-18.564q3.9 0 5.804 2.215 1.905 2.215 1.905 6.7v13.292h-5.538v-12.98a5.745 5.745 0 0 0-.952-3.677 3.661 3.661 0 0 0-2.991-1.152 5.055 5.055 0 0 0-3.832 1.506 5.591 5.591 0 0 0-1.44 4.032v12.273h-5.538v-21.666h5.405v3.234a7.495 7.495 0 0 1 2.969-2.791 8.934 8.934 0 0 1 4.209-.974zm23.138 22.552a11.921 11.921 0 0 1-5.826-1.374 9.503 9.503 0 0 1-3.877-3.943 12.501 12.501 0 0 1-1.374-5.981 12.371 12.371 0 0 1 1.374-5.959 9.535 9.535 0 0 1 3.877-3.921 13.044 13.044 0 0 1 11.652 0 9.398 9.398 0 0 1 3.855 3.921 12.538 12.538 0 0 1 1.351 5.959 12.671 12.671 0 0 1-1.351 5.981 9.369 9.369 0 0 1-3.855 3.943 11.921 11.921 0 0 1-5.826 1.374zm-.044-4.298a4.965 4.965 0 0 0 4.12-1.772 10.306 10.306 0 0 0 0-10.434 4.888 4.888 0 0 0-4.076-1.794 4.951 4.951 0 0 0-4.098 1.794 10.239 10.239 0 0 0-.022 10.434 4.915 4.915 0 0 0 4.077 1.772zm28.012-18.254a8.981 8.981 0 0 1 4.984 1.418 9.402 9.402 0 0 1 3.411 4.01 13.855 13.855 0 0 1 1.218 5.959 13.415 13.415 0 0 1-1.218 5.893 8.944 8.944 0 0 1-8.396 5.272 8.576 8.576 0 0 1-4.121-.975 6.84 6.84 0 0 1-2.791-2.703v11.298h-5.538v-29.64h5.45v3.28a6.797 6.797 0 0 1 2.813-2.813 8.643 8.643 0 0 1 4.187-.997zm-1.462 18.254a4.966 4.966 0 0 0 4.076-1.794 7.834 7.834 0 0 0 1.462-5.073 8.277 8.277 0 0 0-1.462-5.228 5.462 5.462 0 0 0-8.175-.044 9.971 9.971 0 0 0 0 10.323 4.926 4.926 0 0 0 4.099 1.817zm24.866-18.254q4.564 0 6.78 2.215 2.215 2.215 2.215 6.823v13.16h-5.272v-3.323a5.783 5.783 0 0 1-2.37 2.703 7.11 7.11 0 0 1-3.744.975 8.694 8.694 0 0 1-3.943-.886 7.016 7.016 0 0 1-2.791-2.437 6.156 6.156 0 0 1-1.019-3.456 5.474 5.474 0 0 1 1.218-3.766 7.324 7.324 0 0 1 3.966-1.994 36.112 36.112 0 0 1 7.576-.62h1.108v-1.02a4.453 4.453 0 0 0-.953-3.19 4.303 4.303 0 0 0-3.168-.975 11.916 11.916 0 0 0-3.611.598 18.253 18.253 0 0 0-3.7 1.662l-1.55-3.8a18.993 18.993 0 0 1 9.26-2.658zm-1.285 18.564a4.732 4.732 0 0 0 3.611-1.484 5.369 5.369 0 0 0 1.396-3.832v-.93h-.798a30.551 30.551 0 0 0-4.608.266 4.472 4.472 0 0 0-2.348.93 2.369 2.369 0 0 0-.709 1.817 3.038 3.038 0 0 0 .975 2.326 3.496 3.496 0 0 0 2.482.908zm28.278-18.564a8.981 8.981 0 0 1 4.984 1.418 9.402 9.402 0 0 1 3.411 4.01 13.855 13.855 0 0 1 1.218 5.959 13.415 13.415 0 0 1-1.218 5.893 8.944 8.944 0 0 1-8.396 5.272 8.576 8.576 0 0 1-4.121-.975 6.839 6.839 0 0 1-2.791-2.703v11.298h-5.538v-29.64h5.45v3.28a6.797 6.797 0 0 1 2.813-2.813 8.643 8.643 0 0 1 4.187-.997zm-1.462 18.254a4.966 4.966 0 0 0 4.076-1.794 7.834 7.834 0 0 0 1.462-5.073 8.277 8.277 0 0 0-1.462-5.228 5.462 5.462 0 0 0-8.175-.044 9.971 9.971 0 0 0 0 10.323 4.926 4.926 0 0 0 4.099 1.817zm34.57-5.893h-14.754a6.736 6.736 0 0 0 1.817 4.475 6.214 6.214 0 0 0 4.43 1.462 10.447 10.447 0 0 0 6.557-2.304l1.595 3.8a11.63 11.63 0 0 1-3.788 1.994 14.546 14.546 0 0 1-4.586.753 11.489 11.489 0 0 1-8.396-3.013 11 11 0 0 1-3.079-8.241 12.644 12.644 0 0 1 1.329-5.893 9.666 9.666 0 0 1 3.744-3.988 10.604 10.604 0 0 1 5.472-1.418 9.029 9.029 0 0 1 7.067 2.88q2.592 2.88 2.592 7.93zm-9.526-8.462a4.7 4.7 0 0 0-3.567 1.418 6.896 6.896 0 0 0-1.661 4.076h10.013a6.317 6.317 0 0 0-1.329-4.098 4.384 4.384 0 0 0-3.455-1.396zm28.233.7l-3.234.3q-5.494.576-5.494 5.582v11.697h-5.538v-21.665h5.272v3.8q1.683-3.9 6.956-4.253l1.683-.133zm33.196-4.076h5.405l-8.507 21.666h-4.83l-5.317-13.956-5.184 13.956h-4.785l-8.55-21.666h5.67l5.538 15.064 5.538-15.064h3.987l5.538 15.153zm17.6-.532q4.564 0 6.78 2.215 2.215 2.215 2.215 6.823v13.16h-5.272v-3.323a5.782 5.782 0 0 1-2.37 2.703 7.11 7.11 0 0 1-3.744.975 8.693 8.693 0 0 1-3.943-.886 7.015 7.015 0 0 1-2.791-2.437 6.157 6.157 0 0 1-1.019-3.456 5.475 5.475 0 0 1 1.218-3.766 7.324 7.324 0 0 1 3.966-1.994 36.112 36.112 0 0 1 7.576-.62h1.108v-1.02a4.453 4.453 0 0 0-.953-3.19 4.303 4.303 0 0 0-3.168-.975 11.916 11.916 0 0 0-3.611.598 18.253 18.253 0 0 0-3.7 1.662l-1.55-3.8a18.993 18.993 0 0 1 9.26-2.658zm-1.285 18.564a4.732 4.732 0 0 0 3.611-1.484 5.369 5.369 0 0 0 1.396-3.832v-.93h-.798a30.553 30.553 0 0 0-4.608.266 4.472 4.472 0 0 0-2.348.93 2.369 2.369 0 0 0-.709 1.817 3.038 3.038 0 0 0 .975 2.326 3.496 3.496 0 0 0 2.481.908zm15.828 3.633v-31.236h5.538v31.236zm11.176 0v-31.236h5.538v31.236zm30.183-9.836h-14.754a6.738 6.738 0 0 0 1.817 4.475 6.215 6.215 0 0 0 4.431 1.462 10.448 10.448 0 0 0 6.557-2.304l1.595 3.8a11.628 11.628 0 0 1-3.788 1.994 14.545 14.545 0 0 1-4.586.753 11.488 11.488 0 0 1-8.396-3.013 11 11 0 0 1-3.079-8.241 12.642 12.642 0 0 1 1.329-5.893 9.666 9.666 0 0 1 3.744-3.988 10.604 10.604 0 0 1 5.472-1.418 9.029 9.029 0 0 1 7.067 2.88q2.592 2.88 2.592 7.93zm-9.526-8.462a4.7 4.7 0 0 0-3.567 1.418 6.896 6.896 0 0 0-1.662 4.076h10.013a6.317 6.317 0 0 0-1.329-4.098 4.384 4.384 0 0 0-3.456-1.396zm24.733 14.488a16.429 16.429 0 0 0 2.038-.133l-.266 4.12q-1.33.133-2.437.133-4.564 0-6.734-2.105-2.17-2.105-2.17-6.27v-9.437h-4.165v-4.165h4.165v-6.47h5.538v6.47h5.716v4.165h-5.716v9.348q0 4.342 4.032 4.342zm5.593-2.304h6.203v6.114h-6.203zm20.7 6.47a12.114 12.114 0 0 1-5.915-1.374 9.292 9.292 0 0 1-3.832-3.899 13.571 13.571 0 0 1 .066-11.852 9.786 9.786 0 0 1 3.966-4.01 12.09 12.09 0 0 1 5.937-1.418 14.128 14.128 0 0 1 4.497.731 9.471 9.471 0 0 1 3.522 1.972l-1.595 3.9a10.528 10.528 0 0 0-2.902-1.684 8.561 8.561 0 0 0-3.035-.576 5.674 5.674 0 0 0-4.475 1.794 9.077 9.077 0 0 0 0 10.279 5.675 5.675 0 0 0 4.475 1.794 8.561 8.561 0 0 0 3.035-.576 10.531 10.531 0 0 0 2.902-1.684l1.595 3.855a9.989 9.989 0 0 1-3.633 2.016 14.606 14.606 0 0 1-4.607.731zm21.543 0a11.921 11.921 0 0 1-5.826-1.374 9.505 9.505 0 0 1-3.877-3.943 12.5 12.5 0 0 1-1.374-5.981 12.37 12.37 0 0 1 1.374-5.959 9.536 9.536 0 0 1 3.877-3.921 13.044 13.044 0 0 1 11.652 0 9.395 9.395 0 0 1 3.855 3.921 12.538 12.538 0 0 1 1.351 5.959 12.671 12.671 0 0 1-1.351 5.981 9.365 9.365 0 0 1-3.855 3.943 11.921 11.921 0 0 1-5.826 1.374zm-.044-4.298a4.965 4.965 0 0 0 4.121-1.772 10.308 10.308 0 0 0 0-10.434 4.889 4.889 0 0 0-4.076-1.794 4.952 4.952 0 0 0-4.098 1.794 10.238 10.238 0 0 0-.022 10.434 4.914 4.914 0 0 0 4.076 1.772zm41.303-18.254a6.722 6.722 0 0 1 5.494 2.193q1.817 2.193 1.817 6.712v13.292h-5.538v-13.07a6.109 6.109 0 0 0-.842-3.611 3.149 3.149 0 0 0-2.703-1.13 4.23 4.23 0 0 0-3.456 1.506 6.442 6.442 0 0 0-1.241 4.209v12.096h-5.538v-13.07a6.239 6.239 0 0 0-.82-3.611 3.14 3.14 0 0 0-2.725-1.13 4.18 4.18 0 0 0-3.411 1.506 6.442 6.442 0 0 0-1.241 4.209v12.096h-5.538v-21.666h5.405v3.057a6.476 6.476 0 0 1 2.703-2.681 8.346 8.346 0 0 1 3.943-.908q4.918 0 6.513 4.076a7.4 7.4 0 0 1 2.924-2.991 8.44 8.44 0 0 1 4.254-1.085zM113.1 260.37h442.935a10.732 10.732 0 0 1 10.732 10.732v442.935a10.732 10.732 0 0 1-10.732 10.732H113.1a10.732 10.732 0 0 1-10.732-10.732V271.102A10.732 10.732 0 0 1 113.1 260.37zm3042.103 7.43h442.935a10.732 10.732 0 0 1 10.732 10.732v442.935a10.732 10.732 0 0 1-10.732 10.732h-442.935a10.732 10.732 0 0 1-10.732-10.732V278.532a10.732 10.732 0 0 1 10.732-10.732z" fill="#fff"/><defs ><path id="B" d="M202.663 201.05h12.96a10.286 10.286 0 0 1 7.16 2.32 9.48 9.48 0 0 1 0 12.96 10.281 10.281 0 0 1-7.16 2.32h-6.72v10.6h-6.24zm12.16 12.88q4.68 0 4.68-4.04a3.854 3.854 0 0 0-1.16-3.08 5.289 5.289 0 0 0-3.521-1h-5.92v8.12z"/><path id="C" d="M316.942 229.25l-2.68-6.24h-13.12l-2.68 6.24h-6.28l12.96-28.2h5l12.96 28.2zm-13.76-10.96h9.04l-4.52-10.56z"/><path id="D" d="M346.662 229.25v-28.2h19.44v4.84h-13.36v6.6h12.56v4.84h-12.56v7.08h13.36v4.84z"/><path id="E" d="M198.03 780.772v-14.654h-5.603v-3.22h15.16v3.22h-5.603v14.654z"/></defs></svg>