<svg xmlns="http://www.w3.org/2000/svg" viewBox="0 0 3700 1000"><title>paperwalletemptyFgDark copy</title><g id="paperwalletemptyFg"><path id="Rectangle" d="M114.683,253H567.317A19.68,19.68,0,0,1,587,272.683V725.317A19.68,19.68,0,0,1,567.317,745H114.683A19.68,19.68,0,0,1,95,725.317V272.683A19.68,19.68,0,0,1,114.683,253Z" style="fill:#fff"/><g style="isolation:isolate"><path d="M202.663,202.8h12.96a10.286,10.286,0,0,1,7.16,2.321,9.477,9.477,0,0,1,0,12.959,10.281,10.281,0,0,1-7.16,2.321H208.9V231h-6.24Zm12.16,12.88q4.68,0,4.681-4.04a3.855,3.855,0,0,0-1.16-3.08,5.291,5.291,0,0,0-3.521-1H208.9v8.12Z"/><path d="M253.823,231h-6.8l-4.879-9a3.824,3.824,0,0,0-1.44-1.5,4.386,4.386,0,0,0-2.12-.46H235.5V231h-6.16V202.8H242.3q4.959,0,7.5,2.181a7.848,7.848,0,0,1,2.54,6.3,8.144,8.144,0,0,1-1.781,5.359,8.516,8.516,0,0,1-5.019,2.841,6.188,6.188,0,0,1,3.72,3.159Zm-8.559-16.62a4.225,4.225,0,0,0,0-5.9,6.442,6.442,0,0,0-3.88-.921h-5.96v7.761h5.96A6.331,6.331,0,0,0,245.264,214.38Z"/><path d="M257.343,231V202.8h6.24V231Z"/><path d="M289.782,202.8H296.1L283.423,231h-5L265.7,202.8h6.481l8.8,20.441Z"/><path d="M316.942,231l-2.679-6.24h-13.12l-2.68,6.24h-6.28l12.96-28.2h5L323.1,231Zm-13.759-10.96h9.04l-4.52-10.559Z"/><path d="M328.343,231V207.88H319.5V202.8h23.92v5.08h-8.84V231Z"/><path d="M346.662,231V202.8H366.1v4.84H352.742v6.6H365.3v4.839H352.742v7.081H366.1V231Z"/><path d="M385.182,230.5a14.567,14.567,0,0,1-4.92-2.379l2-4.441a15.642,15.642,0,0,0,9.159,2.84,7.9,7.9,0,0,0,4.06-.859,2.659,2.659,0,0,0,1.42-2.38,2.35,2.35,0,0,0-1.3-2.12,17.423,17.423,0,0,0-4.621-1.481,25.561,25.561,0,0,1-5.94-1.84,7.743,7.743,0,0,1-3.239-2.66,7.033,7.033,0,0,1-1.021-3.9,7.692,7.692,0,0,1,1.42-4.561,9.464,9.464,0,0,1,3.981-3.14,14.44,14.44,0,0,1,5.92-1.139,19.035,19.035,0,0,1,5.78.88,11.876,11.876,0,0,1,4.42,2.359l-2,4.441a13.6,13.6,0,0,0-8.16-2.84,6.818,6.818,0,0,0-3.84.939,2.947,2.947,0,0,0-1.4,2.58,2.316,2.316,0,0,0,.54,1.58,4.486,4.486,0,0,0,1.8,1.1,27.7,27.7,0,0,0,3.58,1q5.439,1.2,7.821,3.079a6.261,6.261,0,0,1,2.379,5.2,7.435,7.435,0,0,1-3.08,6.3q-3.079,2.3-8.6,2.3A21.932,21.932,0,0,1,385.182,230.5Z"/><path d="M407.461,231V202.8H426.9v4.84h-13.36v6.6H426.1v4.839h-12.56v7.081H426.9V231Z"/><path d="M431.141,231V202.8h19.44v4.84h-13.36v6.6H449.78v4.839H437.221v7.081h13.36V231Z"/><path d="M454.819,202.8h10.96a17.36,17.36,0,0,1,7.921,1.681,11.72,11.72,0,0,1,5.079,4.84,15.3,15.3,0,0,1,1.761,7.559,15.565,15.565,0,0,1-1.74,7.58,11.584,11.584,0,0,1-5.06,4.861A17.455,17.455,0,0,1,465.779,231h-10.96Zm10.521,23.16q9,0,9-9.08,0-9.039-9-9.04h-4.28v18.12Z"/></g><g id="DO-NOT-SHARE-THIS-WI" style="isolation:isolate"><g style="isolation:isolate"><path d="M103.72,772.67h7.124a11.3,11.3,0,0,1,5.148,1.092,7.628,7.628,0,0,1,3.3,3.147,9.942,9.942,0,0,1,1.144,4.914,10.116,10.116,0,0,1-1.13,4.926,7.544,7.544,0,0,1-3.289,3.16A11.366,11.366,0,0,1,110.844,791H103.72Zm6.839,15.054q5.849,0,5.849-5.9,0-5.875-5.849-5.876h-2.783v11.777Z"/><path d="M127.211,790.078A7.82,7.82,0,0,1,124.1,786.8a11.9,11.9,0,0,1,0-9.958,7.739,7.739,0,0,1,3.107-3.263,10.41,10.41,0,0,1,9.489,0,7.742,7.742,0,0,1,3.108,3.263,11.907,11.907,0,0,1,0,9.958,7.823,7.823,0,0,1-3.108,3.277,10.306,10.306,0,0,1-9.489,0Zm8.346-3.6a8.916,8.916,0,0,0,.012-9.295,4.869,4.869,0,0,0-7.215,0,9,9,0,0,0,.013,9.295,4.815,4.815,0,0,0,7.19,0Z"/><path d="M163.312,772.67h3.795V791h-3.016l-9.126-11.673V791H151.2V772.67h2.991l9.126,11.622Z"/><path d="M174.4,790.078a7.827,7.827,0,0,1-3.107-3.277,11.9,11.9,0,0,1,0-9.958,7.745,7.745,0,0,1,3.107-3.263,10.412,10.412,0,0,1,9.49,0A7.739,7.739,0,0,1,187,776.843a11.9,11.9,0,0,1,0,9.958,7.82,7.82,0,0,1-3.107,3.277,10.308,10.308,0,0,1-9.49,0Zm8.346-3.6a8.914,8.914,0,0,0,.013-9.295,4.869,4.869,0,0,0-7.215,0,9,9,0,0,0,.013,9.295,4.814,4.814,0,0,0,7.189,0Z"/><path d="M194.355,791V775.972h-5.746v-3.3h15.548v3.3h-5.746V791Z"/><path d="M215.908,790.675a9.444,9.444,0,0,1-3.2-1.547l1.3-2.885a10.181,10.181,0,0,0,5.954,1.845,5.132,5.132,0,0,0,2.639-.558,1.729,1.729,0,0,0,.922-1.547,1.529,1.529,0,0,0-.844-1.379,11.4,11.4,0,0,0-3-.962,16.667,16.667,0,0,1-3.862-1.2,5.033,5.033,0,0,1-2.105-1.73,4.577,4.577,0,0,1-.663-2.535,4.992,4.992,0,0,1,.923-2.964,6.151,6.151,0,0,1,2.587-2.041,9.373,9.373,0,0,1,3.847-.741,12.388,12.388,0,0,1,3.758.572,7.737,7.737,0,0,1,2.873,1.534l-1.3,2.886a8.843,8.843,0,0,0-5.3-1.846,4.43,4.43,0,0,0-2.5.612,1.916,1.916,0,0,0-.911,1.677,1.508,1.508,0,0,0,.352,1.027,2.916,2.916,0,0,0,1.17.715,17.659,17.659,0,0,0,2.327.649,12.964,12.964,0,0,1,5.083,2,4.073,4.073,0,0,1,1.547,3.38,4.837,4.837,0,0,1-2,4.1,9.176,9.176,0,0,1-5.59,1.5A14.268,14.268,0,0,1,215.908,790.675Z"/><path d="M242.818,772.67H246.8V791h-3.978v-7.7h-8.45V791H230.39V772.67h3.978v7.41h8.45Z"/><path d="M264.4,791l-1.742-4.055h-8.528L252.386,791H248.3l8.425-18.33h3.25L268.4,791Zm-8.944-7.124h5.876l-2.938-6.864Z"/><path d="M285.822,791H281.4l-3.172-5.849a2.481,2.481,0,0,0-.936-.976,2.848,2.848,0,0,0-1.378-.3h-2V791h-4V772.67h8.424a7.309,7.309,0,0,1,4.875,1.417,5.1,5.1,0,0,1,1.651,4.1,5.289,5.289,0,0,1-1.157,3.484,5.534,5.534,0,0,1-3.263,1.846,4.02,4.02,0,0,1,2.418,2.055Zm-5.564-10.8a2.747,2.747,0,0,0,0-3.835,4.183,4.183,0,0,0-2.522-.6h-3.874v5.044h3.874A4.12,4.12,0,0,0,280.258,780.2Z"/><path d="M288.109,791V772.67h12.637v3.147h-8.684v4.29h8.164v3.145h-8.164v4.6h8.684V791Z"/><path d="M314.967,791V775.972h-5.746v-3.3h15.548v3.3h-5.747V791Z"/><path d="M339.3,772.67h3.978V791H339.3v-7.7h-8.45V791h-3.978V772.67h3.978v7.41h8.45Z"/><path d="M346.9,791V772.67h4.056V791Z"/><path d="M356.982,790.675a9.444,9.444,0,0,1-3.2-1.547l1.3-2.885a10.183,10.183,0,0,0,5.954,1.845,5.13,5.13,0,0,0,2.639-.558,1.73,1.73,0,0,0,.923-1.547,1.53,1.53,0,0,0-.845-1.379,11.4,11.4,0,0,0-3-.962,16.673,16.673,0,0,1-3.861-1.2,5.042,5.042,0,0,1-2.106-1.73,4.577,4.577,0,0,1-.663-2.535,5,5,0,0,1,.923-2.964,6.151,6.151,0,0,1,2.587-2.041,9.373,9.373,0,0,1,3.847-.741,12.388,12.388,0,0,1,3.758.572,7.737,7.737,0,0,1,2.873,1.534l-1.3,2.886a8.848,8.848,0,0,0-5.3-1.846,4.43,4.43,0,0,0-2.5.612,1.916,1.916,0,0,0-.91,1.677,1.508,1.508,0,0,0,.351,1.027,2.923,2.923,0,0,0,1.17.715,17.659,17.659,0,0,0,2.327.649,12.957,12.957,0,0,1,5.083,2,4.073,4.073,0,0,1,1.547,3.38,4.837,4.837,0,0,1-2,4.1,9.176,9.176,0,0,1-5.59,1.5A14.279,14.279,0,0,1,356.982,790.675Z"/><path d="M401.546,772.67h3.848L398.868,791h-3.25l-4.238-12.141L387.09,791h-3.25l-6.5-18.33h4.108l4.186,12.662,4.446-12.662h2.834l4.29,12.792Z"/><path d="M407.655,791V772.67h4.057V791Z"/><path d="M419.563,791V775.972h-5.746v-3.3h15.548v3.3h-5.746V791Z"/><path d="M443.9,772.67h3.978V791H443.9v-7.7h-8.45V791h-3.978V772.67h3.978v7.41h8.45Z"/><path d="M472.707,791l-1.741-4.055h-8.528L460.7,791h-4.082l8.424-18.33h3.25L476.711,791Zm-8.943-7.124h5.876l-2.939-6.864Z"/><path d="M490.335,772.67h3.8V791h-3.017l-9.126-11.673V791H478.22V772.67h2.989l9.126,11.622Z"/><path d="M513.812,772.67l-7.591,10.036V791h-4.056v-8.294L494.6,772.67h4.6l4.966,6.786,5.044-6.786Z"/><path d="M516.894,790.078a7.829,7.829,0,0,1-3.108-3.277,11.9,11.9,0,0,1,0-9.958,7.748,7.748,0,0,1,3.108-3.263,10.412,10.412,0,0,1,9.49,0,7.737,7.737,0,0,1,3.106,3.263,11.887,11.887,0,0,1,0,9.958,7.818,7.818,0,0,1-3.106,3.277,10.308,10.308,0,0,1-9.49,0Zm8.345-3.6a8.916,8.916,0,0,0,.014-9.295,4.87,4.87,0,0,0-7.216,0,9,9,0,0,0,.014,9.295,4.812,4.812,0,0,0,7.188,0Z"/><path d="M545.766,772.67h3.8V791h-3.016l-9.126-11.673V791h-3.77V772.67h2.99l9.126,11.622Z"/><path d="M553.177,791V772.67h12.635v3.147h-8.683v4.29h8.163v3.145h-8.163v4.6h8.683V791Z"/><path d="M576.159,785.073l-1.221-12.429,4.835.026-1.248,12.4Zm-.909,1.767h4.212V791H575.25Z"/></g></g><path d="M3149.1,252.933h455.063a19.785,19.785,0,0,1,19.786,19.785V727.782a19.785,19.785,0,0,1-19.786,19.785H3149.1a19.786,19.786,0,0,1-19.786-19.785V272.718A19.786,19.786,0,0,1,3149.1,252.933Z" style="fill:#fff"/><g id="PUBLIC-ADDRESS" style="isolation:isolate"><g style="isolation:isolate"><path d="M3204.213,197.3h12.96a10.286,10.286,0,0,1,7.16,2.321,9.477,9.477,0,0,1,0,12.959,10.281,10.281,0,0,1-7.16,2.321h-6.72v10.6h-6.24Zm12.16,12.88q4.68,0,4.681-4.04a3.855,3.855,0,0,0-1.16-3.08,5.291,5.291,0,0,0-3.521-1h-5.92v8.12Z"/><path d="M3233.834,222.8q-3.1-3.06-3.1-8.939V197.3h6.121v16.84a7.547,7.547,0,0,0,1.54,5.12,6.531,6.531,0,0,0,8.94-.019,7.51,7.51,0,0,0,1.56-5.1V197.3h6.12v16.561q0,5.839-3.12,8.92t-9.04,3.08Q3236.932,225.861,3233.834,222.8Z"/><path d="M3282.313,213.4a7.073,7.073,0,0,1,1.34,4.38,6.817,6.817,0,0,1-2.62,5.639,11.32,11.32,0,0,1-7.22,2.08h-13.4V197.3h13a11.281,11.281,0,0,1,6.98,1.96,6.368,6.368,0,0,1,2.58,5.361,6.5,6.5,0,0,1-1.18,3.86,6.711,6.711,0,0,1-3.26,2.42A7.063,7.063,0,0,1,3282.313,213.4Zm-15.82-4.62h5.88a6.107,6.107,0,0,0,3.54-.821,2.874,2.874,0,0,0,1.14-2.5,2.964,2.964,0,0,0-1.14-2.58,6.116,6.116,0,0,0-3.54-.82h-5.88Zm10.2,11.12a3.183,3.183,0,0,0,1.12-2.721,3.3,3.3,0,0,0-1.12-2.76,5.859,5.859,0,0,0-3.6-.88h-6.6v7.2h6.6A6.076,6.076,0,0,0,3276.693,219.9Z"/><path d="M3287.933,225.5V197.3h6.24v23.12h12.6v5.08Z"/><path d="M3310.412,225.5V197.3h6.24v28.2Z"/><path d="M3327.992,224.06a12.111,12.111,0,0,1-4.88-5.079,17.838,17.838,0,0,1,0-15.2,12,12,0,0,1,4.88-5.061,15.044,15.044,0,0,1,7.46-1.779,16.731,16.731,0,0,1,5.36.859,11.46,11.46,0,0,1,4.2,2.38l-2,4.441a13.509,13.509,0,0,0-3.66-2.041,11.335,11.335,0,0,0-3.781-.639,7.136,7.136,0,0,0-5.78,2.4q-2.02,2.4-2.02,7.04t2.02,7.061a7.107,7.107,0,0,0,5.78,2.42,11.312,11.312,0,0,0,3.781-.641,13.478,13.478,0,0,0,3.66-2.04l2,4.441a11.445,11.445,0,0,1-4.2,2.379,16.7,16.7,0,0,1-5.36.861A14.893,14.893,0,0,1,3327.992,224.06Z"/><path d="M3381.932,225.5l-2.68-6.24h-13.12l-2.681,6.24h-6.279l12.96-28.2h5l12.96,28.2Zm-13.76-10.96h9.04l-4.521-10.559Z"/><path d="M3390.411,197.3h10.96a17.356,17.356,0,0,1,7.92,1.681,11.728,11.728,0,0,1,5.08,4.84,15.309,15.309,0,0,1,1.76,7.559,15.565,15.565,0,0,1-1.74,7.58,11.584,11.584,0,0,1-5.06,4.861,17.454,17.454,0,0,1-7.96,1.679h-10.96Zm10.52,23.16q9,0,9-9.08,0-9.039-9-9.04h-4.28v18.12Z"/><path d="M3420.891,197.3h10.96a17.358,17.358,0,0,1,7.92,1.681,11.733,11.733,0,0,1,5.08,4.84,15.32,15.32,0,0,1,1.759,7.559,15.565,15.565,0,0,1-1.74,7.58,11.582,11.582,0,0,1-5.059,4.861,17.457,17.457,0,0,1-7.96,1.679h-10.96Zm10.519,23.16q9,0,9-9.08,0-9.039-9-9.04h-4.279v18.12Z"/><path d="M3475.85,225.5h-6.8l-4.88-9a3.817,3.817,0,0,0-1.44-1.5,4.386,4.386,0,0,0-2.12-.46h-3.08V225.5h-6.16V197.3h12.96q4.961,0,7.5,2.181a7.848,7.848,0,0,1,2.54,6.3,8.148,8.148,0,0,1-1.78,5.359,8.521,8.521,0,0,1-5.02,2.841,6.188,6.188,0,0,1,3.72,3.159Zm-8.56-16.62a4.225,4.225,0,0,0,0-5.9,6.442,6.442,0,0,0-3.88-.921h-5.96v7.761h5.96A6.331,6.331,0,0,0,3467.29,208.88Z"/><path d="M3479.369,225.5V197.3h19.441v4.84h-13.361v6.6h12.561v4.839h-12.561v7.081h13.361V225.5Z"/><path d="M3506.369,225a14.6,14.6,0,0,1-4.92-2.379l2-4.441a15.649,15.649,0,0,0,9.16,2.84,7.9,7.9,0,0,0,4.06-.859,2.662,2.662,0,0,0,1.421-2.38,2.351,2.351,0,0,0-1.3-2.12,17.374,17.374,0,0,0-4.62-1.481,25.561,25.561,0,0,1-5.94-1.84,7.747,7.747,0,0,1-3.24-2.66,7.049,7.049,0,0,1-1.019-3.9,7.678,7.678,0,0,1,1.42-4.561,9.457,9.457,0,0,1,3.979-3.14,14.447,14.447,0,0,1,5.92-1.139,19.026,19.026,0,0,1,5.78.88,11.852,11.852,0,0,1,4.42,2.359l-2,4.441a13.6,13.6,0,0,0-8.16-2.84,6.822,6.822,0,0,0-3.84.939,2.95,2.95,0,0,0-1.4,2.58,2.321,2.321,0,0,0,.539,1.58,4.483,4.483,0,0,0,1.8,1.1,27.7,27.7,0,0,0,3.58,1q5.439,1.2,7.819,3.079a6.259,6.259,0,0,1,2.38,5.2,7.432,7.432,0,0,1-3.08,6.3q-3.081,2.3-8.6,2.3A21.948,21.948,0,0,1,3506.369,225Z"/><path d="M3532.369,225a14.586,14.586,0,0,1-4.92-2.379l2-4.441a15.646,15.646,0,0,0,9.159,2.84,7.9,7.9,0,0,0,4.061-.859,2.661,2.661,0,0,0,1.42-2.38,2.35,2.35,0,0,0-1.3-2.12,17.4,17.4,0,0,0-4.62-1.481,25.546,25.546,0,0,1-5.94-1.84,7.747,7.747,0,0,1-3.24-2.66,7.041,7.041,0,0,1-1.02-3.9,7.685,7.685,0,0,1,1.42-4.561,9.461,9.461,0,0,1,3.98-3.14,14.443,14.443,0,0,1,5.92-1.139,19.019,19.019,0,0,1,5.779.88,11.852,11.852,0,0,1,4.42,2.359l-2,4.441a13.6,13.6,0,0,0-8.159-2.84,6.826,6.826,0,0,0-3.841.939,2.95,2.95,0,0,0-1.4,2.58,2.321,2.321,0,0,0,.539,1.58,4.483,4.483,0,0,0,1.8,1.1,27.7,27.7,0,0,0,3.58,1q5.439,1.2,7.82,3.079a6.262,6.262,0,0,1,2.38,5.2,7.435,7.435,0,0,1-3.08,6.3q-3.081,2.3-8.6,2.3A21.936,21.936,0,0,1,3532.369,225Z"/></g></g><path id="nanopaperwallet.com" d="M3174.538,915.95q4.4,0,6.55,2.5t2.15,7.55v15h-6.25V926.35a6.481,6.481,0,0,0-1.075-4.15,4.128,4.128,0,0,0-3.375-1.3,5.707,5.707,0,0,0-4.325,1.7,6.311,6.311,0,0,0-1.625,4.55V941h-6.25V916.55h6.1v3.65a8.455,8.455,0,0,1,3.35-3.15A10.088,10.088,0,0,1,3174.538,915.95Zm25.462,0q5.149,0,7.65,2.5t2.5,7.7V941h-5.95v-3.75a6.522,6.522,0,0,1-2.675,3.05,8.028,8.028,0,0,1-4.225,1.1,9.806,9.806,0,0,1-4.45-1,7.921,7.921,0,0,1-3.15-2.75,6.948,6.948,0,0,1-1.15-3.9,6.176,6.176,0,0,1,1.375-4.25,8.268,8.268,0,0,1,4.475-2.25,40.734,40.734,0,0,1,8.55-.7h1.25V925.4a5.023,5.023,0,0,0-1.075-3.6,4.858,4.858,0,0,0-3.575-1.1,13.451,13.451,0,0,0-4.075.675,20.608,20.608,0,0,0-4.175,1.875l-1.75-4.3a21.433,21.433,0,0,1,10.45-3Zm-1.45,20.95a5.339,5.339,0,0,0,4.075-1.675,6.059,6.059,0,0,0,1.575-4.325v-1.05h-.9a34.492,34.492,0,0,0-5.2.3,5.048,5.048,0,0,0-2.65,1.05,2.675,2.675,0,0,0-.8,2.05,3.429,3.429,0,0,0,1.1,2.625A3.946,3.946,0,0,0,3198.55,936.9Zm32.062-20.95q4.4,0,6.55,2.5t2.15,7.55v15h-6.25V926.35a6.487,6.487,0,0,0-1.075-4.15,4.131,4.131,0,0,0-3.375-1.3,5.705,5.705,0,0,0-4.325,1.7,6.307,6.307,0,0,0-1.625,4.55V941h-6.25V916.55h6.1v3.65a8.449,8.449,0,0,1,3.35-3.15A10.085,10.085,0,0,1,3230.612,915.95Zm26.112,25.45a13.456,13.456,0,0,1-6.575-1.55,10.719,10.719,0,0,1-4.375-4.45,14.1,14.1,0,0,1-1.55-6.75,13.953,13.953,0,0,1,1.55-6.725,10.752,10.752,0,0,1,4.375-4.425,14.72,14.72,0,0,1,13.15,0,10.6,10.6,0,0,1,4.35,4.425,14.156,14.156,0,0,1,1.525,6.725,14.3,14.3,0,0,1-1.525,6.75,10.574,10.574,0,0,1-4.35,4.45A13.458,13.458,0,0,1,3256.724,941.4Zm-.05-4.85a5.6,5.6,0,0,0,4.649-2,11.626,11.626,0,0,0,0-11.775,5.514,5.514,0,0,0-4.6-2.025,5.587,5.587,0,0,0-4.625,2.025,9.2,9.2,0,0,0-1.625,5.875,9.3,9.3,0,0,0,1.6,5.9A5.55,5.55,0,0,0,3256.674,936.55Zm31.611-20.6a10.131,10.131,0,0,1,5.625,1.6,10.607,10.607,0,0,1,3.85,4.525,15.634,15.634,0,0,1,1.375,6.725,15.138,15.138,0,0,1-1.375,6.65,10.093,10.093,0,0,1-9.475,5.95,9.684,9.684,0,0,1-4.65-1.1,7.724,7.724,0,0,1-3.15-3.05V950h-6.25V916.55h6.15v3.7a7.675,7.675,0,0,1,3.175-3.175A9.757,9.757,0,0,1,3288.285,915.95Zm-1.65,20.6a5.6,5.6,0,0,0,4.6-2.025,8.84,8.84,0,0,0,1.65-5.725,9.343,9.343,0,0,0-1.65-5.9,6.164,6.164,0,0,0-9.225-.05,11.253,11.253,0,0,0,0,11.65A5.559,5.559,0,0,0,3286.635,936.55Zm28.062-20.6q5.149,0,7.65,2.5t2.5,7.7V941h-5.95v-3.75a6.522,6.522,0,0,1-2.675,3.05,8.028,8.028,0,0,1-4.225,1.1,9.806,9.806,0,0,1-4.45-1,7.921,7.921,0,0,1-3.15-2.75,6.948,6.948,0,0,1-1.15-3.9,6.176,6.176,0,0,1,1.375-4.25,8.271,8.271,0,0,1,4.475-2.25,40.734,40.734,0,0,1,8.55-.7h1.25V925.4a5.023,5.023,0,0,0-1.075-3.6,4.858,4.858,0,0,0-3.575-1.1,13.451,13.451,0,0,0-4.075.675A20.608,20.608,0,0,0,3306,923.25l-1.75-4.3a21.433,21.433,0,0,1,10.45-3Zm-1.45,20.95a5.339,5.339,0,0,0,4.075-1.675,6.059,6.059,0,0,0,1.575-4.325v-1.05h-.9a34.5,34.5,0,0,0-5.2.3,5.048,5.048,0,0,0-2.65,1.05,2.675,2.675,0,0,0-.8,2.05,3.429,3.429,0,0,0,1.1,2.625A3.946,3.946,0,0,0,3313.247,936.9Zm31.912-20.95a10.131,10.131,0,0,1,5.625,1.6,10.614,10.614,0,0,1,3.85,4.525,15.634,15.634,0,0,1,1.375,6.725,15.138,15.138,0,0,1-1.375,6.65,10.093,10.093,0,0,1-9.475,5.95,9.681,9.681,0,0,1-4.65-1.1,7.712,7.712,0,0,1-3.15-3.05V950h-6.25V916.55h6.15v3.7a7.669,7.669,0,0,1,3.175-3.175A9.752,9.752,0,0,1,3345.159,915.95Zm-1.65,20.6a5.6,5.6,0,0,0,4.6-2.025,8.84,8.84,0,0,0,1.65-5.725,9.343,9.343,0,0,0-1.65-5.9,6.164,6.164,0,0,0-9.225-.05,11.253,11.253,0,0,0,0,11.65A5.557,5.557,0,0,0,3343.509,936.55Zm39.012-6.65h-16.65a7.6,7.6,0,0,0,2.05,5.05,7.011,7.011,0,0,0,5,1.65,11.793,11.793,0,0,0,7.4-2.6l1.8,4.3a13.151,13.151,0,0,1-4.275,2.25,16.413,16.413,0,0,1-5.175.85q-6,0-9.475-3.4t-3.475-9.3a14.267,14.267,0,0,1,1.5-6.65,10.909,10.909,0,0,1,4.225-4.5,11.961,11.961,0,0,1,6.175-1.6,10.188,10.188,0,0,1,7.975,3.25q2.925,3.25,2.925,8.95Zm-10.75-9.55a5.3,5.3,0,0,0-4.025,1.6,7.778,7.778,0,0,0-1.875,4.6h11.3a7.134,7.134,0,0,0-1.5-4.625A4.949,4.949,0,0,0,3371.771,920.35Zm31.861.8-3.65.35q-6.2.649-6.2,6.3V941h-6.25V916.55h5.95v4.3q1.9-4.4,7.851-4.8l1.9-.15Zm37.462-4.6h6.1l-9.6,24.45h-5.45l-6-15.75-5.85,15.75h-5.4l-9.65-24.45h6.4l6.25,17,6.25-17h4.5l6.25,17.1Zm19.862-.6q5.149,0,7.65,2.5t2.5,7.7V941h-5.95v-3.75a6.522,6.522,0,0,1-2.675,3.05,8.028,8.028,0,0,1-4.225,1.1,9.806,9.806,0,0,1-4.45-1,7.921,7.921,0,0,1-3.15-2.75,6.948,6.948,0,0,1-1.15-3.9,6.176,6.176,0,0,1,1.375-4.25,8.268,8.268,0,0,1,4.475-2.25,40.727,40.727,0,0,1,8.55-.7h1.25V925.4a5.023,5.023,0,0,0-1.075-3.6,4.858,4.858,0,0,0-3.575-1.1,13.451,13.451,0,0,0-4.075.675,20.608,20.608,0,0,0-4.175,1.875l-1.75-4.3a21.433,21.433,0,0,1,10.45-3Zm-1.45,20.95a5.339,5.339,0,0,0,4.075-1.675,6.059,6.059,0,0,0,1.575-4.325v-1.05h-.9a34.492,34.492,0,0,0-5.2.3,5.048,5.048,0,0,0-2.65,1.05,2.675,2.675,0,0,0-.8,2.05,3.429,3.429,0,0,0,1.1,2.625A3.946,3.946,0,0,0,3459.506,936.9Zm17.862,4.1V905.75h6.25V941Zm12.611,0V905.75h6.25V941Zm34.062-11.1h-16.65a7.6,7.6,0,0,0,2.05,5.05,7.014,7.014,0,0,0,5,1.65,11.791,11.791,0,0,0,7.4-2.6l1.8,4.3a13.13,13.13,0,0,1-4.275,2.25,16.4,16.4,0,0,1-5.175.85q-6,0-9.475-3.4t-3.475-9.3a14.267,14.267,0,0,1,1.5-6.65,10.915,10.915,0,0,1,4.225-4.5,11.963,11.963,0,0,1,6.175-1.6,10.187,10.187,0,0,1,7.975,3.25q2.925,3.25,2.925,8.95Zm-10.75-9.55a5.3,5.3,0,0,0-4.025,1.6,7.79,7.79,0,0,0-1.875,4.6h11.3a7.122,7.122,0,0,0-1.5-4.625A4.946,4.946,0,0,0,3513.291,920.35ZM3541.2,936.7a18.564,18.564,0,0,0,2.3-.15l-.3,4.65q-1.5.15-2.75.15-5.149,0-7.6-2.375t-2.45-7.075V921.25h-4.7v-4.7h4.7v-7.3h6.25v7.3h6.45v4.7h-6.45V931.8Q3536.653,936.7,3541.2,936.7Zm6.312-2.6h7V941h-7Zm23.361,7.3a13.677,13.677,0,0,1-6.675-1.55,10.485,10.485,0,0,1-4.325-4.4,15.315,15.315,0,0,1,.075-13.375,11.042,11.042,0,0,1,4.476-4.525,13.635,13.635,0,0,1,6.7-1.6,15.939,15.939,0,0,1,5.075.825,10.692,10.692,0,0,1,3.976,2.225l-1.8,4.4a11.888,11.888,0,0,0-3.274-1.9,9.673,9.673,0,0,0-3.425-.65,6.406,6.406,0,0,0-5.051,2.025,10.244,10.244,0,0,0,0,11.6,6.406,6.406,0,0,0,5.051,2.025,9.673,9.673,0,0,0,3.425-.65,11.888,11.888,0,0,0,3.274-1.9l1.8,4.35a11.275,11.275,0,0,1-4.1,2.275A16.478,16.478,0,0,1,3570.876,941.4Zm24.312,0a13.458,13.458,0,0,1-6.575-1.55,10.731,10.731,0,0,1-4.375-4.45,14.11,14.11,0,0,1-1.55-6.75,13.965,13.965,0,0,1,1.55-6.725,10.764,10.764,0,0,1,4.375-4.425,14.72,14.72,0,0,1,13.15,0,10.593,10.593,0,0,1,4.35,4.425,14.144,14.144,0,0,1,1.525,6.725,14.292,14.292,0,0,1-1.525,6.75,10.562,10.562,0,0,1-4.35,4.45A13.456,13.456,0,0,1,3595.188,941.4Zm-.05-4.85a5.6,5.6,0,0,0,4.65-2,11.632,11.632,0,0,0,0-11.775,5.516,5.516,0,0,0-4.6-2.025,5.589,5.589,0,0,0-4.625,2.025,11.554,11.554,0,0,0-.025,11.775A5.548,5.548,0,0,0,3595.138,936.55Zm46.612-20.6q4.15,0,6.2,2.475T3650,926v15h-6.25V926.25a6.9,6.9,0,0,0-.95-4.075,3.553,3.553,0,0,0-3.05-1.275,4.773,4.773,0,0,0-3.9,1.7,7.272,7.272,0,0,0-1.4,4.75V941h-6.25V926.25a7.036,7.036,0,0,0-.925-4.075,3.543,3.543,0,0,0-3.075-1.275,4.719,4.719,0,0,0-3.85,1.7,7.272,7.272,0,0,0-1.4,4.75V941h-6.25V916.55h6.1V920a7.307,7.307,0,0,1,3.05-3.025,9.424,9.424,0,0,1,4.45-1.025q5.55,0,7.35,4.6a8.36,8.36,0,0,1,3.3-3.375A9.518,9.518,0,0,1,3641.75,915.95Z"/><path d="M3512.616,54.584H3524.7q4.806,0,7.469,2.338a8.345,8.345,0,0,1,2.662,6.624,8.447,8.447,0,0,1-2.684,6.668q-2.685,2.381-7.447,2.381h-8.529V85.107h-3.55Zm11.733,15.067q6.97,0,6.971-6.1,0-6.018-6.971-6.018h-8.183V69.651Zm39.529,15.456-3.377-7.836h-15.933l-3.377,7.836h-3.637l13.422-30.523h3.074l13.422,30.523Zm-18.054-10.78h13.421l-6.71-15.63Zm26.194-19.743H3584.1q4.806,0,7.469,2.338a8.345,8.345,0,0,1,2.662,6.624,8.447,8.447,0,0,1-2.684,6.668q-2.683,2.381-7.447,2.381h-8.529V85.107h-3.55Zm11.733,15.067q6.97,0,6.971-6.1,0-6.018-6.971-6.018h-8.183V69.651Zm16.193,15.456V54.584h19.31v2.944h-15.8V68.135h14.937v2.944h-14.937V82.163h15.8v2.944Zm49.227,0h-3.9l-5.2-9.785a5.651,5.651,0,0,0-2.23-2.446,7.56,7.56,0,0,0-3.485-.671h-5.715v12.9h-3.507V54.584H3637.7q4.978,0,7.6,2.208a8.017,8.017,0,0,1,2.62,6.494,8.133,8.133,0,0,1-2.014,5.737,9.416,9.416,0,0,1-5.736,2.749,5.129,5.129,0,0,1,2.056,1.169,8.287,8.287,0,0,1,1.624,2.208ZM3637.4,69.261a8.1,8.1,0,0,0,5.3-1.472,5.493,5.493,0,0,0,1.754-4.459,5.34,5.34,0,0,0-1.732-4.373q-1.731-1.43-5.325-1.429h-8.746V69.261Zm-95.823,25.451h4.939l-8.376,23.526h-4.171l-5.44-15.584-5.506,15.584h-4.172L3510.5,94.712h5.272l5.373,16.252,5.707-16.252h3.637L3536,111.13Zm25.83,23.526-2.236-5.2H3554.22l-2.236,5.2h-5.239l10.812-23.526h4.171l10.813,23.526Zm-11.48-9.143h7.542l-3.771-8.81Zm18.588,9.143V94.712h5.206V114h10.512v4.238Zm18.788,0V94.712h5.206V114h10.512v4.238Zm18.788,0V94.712H3628.3V98.75h-11.146v5.506h10.479v4.038h-10.479V114.2H3628.3v4.037Zm25.229,0V98.95h-7.375V94.712H3649.9V98.95h-7.376v19.288Z"/><path d="M3336.263,119.711a11.847,11.847,0,1,1,11.975-11.846A11.924,11.924,0,0,1,3336.263,119.711Zm93.1-.068a11.848,11.848,0,1,1,0-23.7c8.521,0,11.256-2.7,11.256-11.127a11.925,11.925,0,0,1,11.975-11.847c8.52,0,11.255-2.7,11.255-11.127a11.976,11.976,0,1,1,11.975,11.847c-8.521,0-11.256,2.7-11.256,11.127a11.924,11.924,0,0,1-11.974,11.847c-8.521,0-11.256,2.7-11.256,11.127A11.926,11.926,0,0,1,3429.358,119.643ZM3406.023,96.7a11.926,11.926,0,0,1-11.975-11.848c0-8.423-2.735-11.126-11.255-11.126s-11.255,2.7-11.255,11.126a11.976,11.976,0,1,1-11.975-11.846c8.52,0,11.255-2.7,11.255-11.128a11.976,11.976,0,0,1,23.95,0c0,8.424,2.735,11.128,11.255,11.128a11.848,11.848,0,1,1,0,23.694Z"/><rect y="-0.045" width="1599.99" height="150.02" style="fill:#fff"/><rect y="849.98" width="1599.99" height="150.02" style="fill:#fff"/><path id="Rectangle-2" data-name="Rectangle" d="M111.04,259.04a10,10,0,0,0-10,10v460a10,10,0,0,0,10,10h460a10,10,0,0,0,10-10v-460a10,10,0,0,0-10-10Zm0-10h460a20,20,0,0,1,20,20v460a20,20,0,0,1-20,20h-460a20,20,0,0,1-20-20v-460A20,20,0,0,1,111.04,249.04Z"/><path d="M3146.671,260.29a10,10,0,0,0-10,10v460a10,10,0,0,0,10,10h460a10,10,0,0,0,10-10v-460a10,10,0,0,0-10-10Zm0-10h460a20,20,0,0,1,20,20v460a20,20,0,0,1-20,20h-460a20,20,0,0,1-20-20v-460A20,20,0,0,1,3146.671,250.29Z"/></g></svg>