<svg xmlns="http://www.w3.org/2000/svg" viewBox="0 0 3700 1000"><title>paperwalletemptyFgBlue</title><g id="paperwalletemptyFg"><path d="M3126.6706,695.6466h500a0,0,0,0,1,0,0V828.6451a14.4,14.4,0,0,1-14.4,14.4h-471.2a14.4,14.4,0,0,1-14.4-14.4V695.6466A0,0,0,0,1,3126.6706,695.6466Z" style="fill:#2020b5"/><path d="M554.0651,249.0865H660.6459a14.4,14.4,0,0,1,14.4,14.4V721.6523a14.4,14.4,0,0,1-14.4,14.4H554.0651a0,0,0,0,1,0,0V249.0865A0,0,0,0,1,554.0651,249.0865Z" style="fill:#2020b5"/><path d="M3606.671,250.29h-33.0556V192.6439a14.4,14.4,0,0,0-14.3995-14.4h-364.01a14.4,14.4,0,0,0-14.3994,14.4V250.29H3146.671a20,20,0,0,0-20,20v460a20,20,0,0,0,20,20h460a20.0005,20.0005,0,0,0,20-20v-460A20,20,0,0,0,3606.671,250.29Z" style="fill:#2020b5"/><path d="M591.0944,726.4161v-457.33a20,20,0,0,0-20-20h-67.148V192.6439a14.4,14.4,0,0,0-14.4-14.4h-295.89a14.4,14.4,0,0,0-14.4,14.4v56.4426H111.0944a20,20,0,0,0-20,20V789.4151a14.4,14.4,0,0,0,14.4,14.4h471.2a14.4,14.4,0,0,0,14.4-14.4v-62.999Z" style="fill:#2020b5"/><g style="isolation:isolate"><path d="M202.6631,201.05h12.96a10.2858,10.2858,0,0,1,7.16,2.32,9.48,9.48,0,0,1,0,12.96,10.281,10.281,0,0,1-7.16,2.32h-6.72v10.6h-6.24Zm12.16,12.88q4.68,0,4.6807-4.04a3.8541,3.8541,0,0,0-1.16-3.08,5.2888,5.2888,0,0,0-3.5206-1h-5.92v8.12Z" style="fill:#fff"/><path d="M253.8232,229.25h-6.8l-4.88-9a3.8169,3.8169,0,0,0-1.4395-1.5,4.3826,4.3826,0,0,0-2.12-.46h-3.08v10.96h-6.16v-28.2h12.96q4.96,0,7.5,2.1807a7.8463,7.8463,0,0,1,2.54,6.3,8.1458,8.1458,0,0,1-1.78,5.3593,8.5165,8.5165,0,0,1-5.02,2.8409,6.1862,6.1862,0,0,1,3.72,3.1591Zm-8.56-16.62a4.2248,4.2248,0,0,0,0-5.8994,6.4386,6.4386,0,0,0-3.88-.9209h-5.96v7.7607h5.96A6.3313,6.3313,0,0,0,245.2637,212.63Z" style="fill:#fff"/><path d="M257.3428,229.25v-28.2h6.24v28.2Z" style="fill:#fff"/><path d="M289.7822,201.05h6.32l-12.68,28.2h-5l-12.7208-28.2h6.4805l8.8,20.44Z" style="fill:#fff"/><path d="M316.9424,229.25l-2.68-6.24h-13.12l-2.68,6.24h-6.28l12.96-28.2h5l12.96,28.2Zm-13.76-10.96h9.04l-4.52-10.56Z" style="fill:#fff"/><path d="M328.3428,229.25V206.13h-8.84v-5.08h23.92v5.08h-8.84v23.12Z" style="fill:#fff"/><path d="M346.6621,229.25v-28.2h19.44v4.84h-13.36v6.6006h12.56v4.84h-12.56v7.08h13.36v4.84Z" style="fill:#fff"/><path d="M385.1816,228.75a14.5685,14.5685,0,0,1-4.92-2.38l2-4.44a15.6479,15.6479,0,0,0,9.1592,2.84,7.8972,7.8972,0,0,0,4.06-.8593,2.6587,2.6587,0,0,0,1.42-2.38,2.3517,2.3517,0,0,0-1.3-2.12,17.3947,17.3947,0,0,0-4.62-1.48,25.5722,25.5722,0,0,1-5.94-1.84,7.7521,7.7521,0,0,1-3.2392-2.66,7.0365,7.0365,0,0,1-1.0206-3.8994,7.6883,7.6883,0,0,1,1.42-4.5606,9.4606,9.4606,0,0,1,3.98-3.14,14.43,14.43,0,0,1,5.92-1.14,19.0369,19.0369,0,0,1,5.78.88,11.8642,11.8642,0,0,1,4.42,2.3594l-2,4.44a13.6063,13.6063,0,0,0-8.16-2.84,6.8185,6.8185,0,0,0-3.84.9394,2.9481,2.9481,0,0,0-1.4,2.58,2.3159,2.3159,0,0,0,.54,1.58,4.4852,4.4852,0,0,0,1.8,1.1006,27.6057,27.6057,0,0,0,3.58,1q5.439,1.2,7.82,3.0791a6.2625,6.2625,0,0,1,2.38,5.2,7.4357,7.4357,0,0,1-3.08,6.3q-3.0805,2.3012-8.6,2.3008A21.9674,21.9674,0,0,1,385.1816,228.75Z" style="fill:#fff"/><path d="M407.4609,229.25v-28.2h19.4405v4.84h-13.36v6.6006h12.56v4.84h-12.56v7.08h13.36v4.84Z" style="fill:#fff"/><path d="M431.1406,229.25v-28.2h19.44v4.84h-13.36v6.6006h12.56v4.84h-12.56v7.08h13.36v4.84Z" style="fill:#fff"/><path d="M454.8193,201.05h10.96a17.36,17.36,0,0,1,7.9209,1.6807,11.7237,11.7237,0,0,1,5.0791,4.84,15.3029,15.3029,0,0,1,1.7607,7.56,15.5651,15.5651,0,0,1-1.74,7.58,11.5834,11.5834,0,0,1-5.06,4.86,17.4539,17.4539,0,0,1-7.9609,1.68h-10.96ZM465.34,224.21q9,0,9-9.08,0-9.04-9-9.04h-4.28v18.12Z" style="fill:#fff"/></g><g id="DO-NOT-SHARE-THIS-WI" style="isolation:isolate"><g style="isolation:isolate"><path d="M109.6549,762.8989h6.9464a11.01,11.01,0,0,1,5.02,1.0645,7.44,7.44,0,0,1,3.2194,3.0681,9.7,9.7,0,0,1,1.116,4.7915,9.8663,9.8663,0,0,1-1.1027,4.8039,7.3485,7.3485,0,0,1-3.207,3.08,11.0718,11.0718,0,0,1-5.0458,1.0646h-6.9464Zm6.6684,14.6783q5.7033,0,5.7037-5.7542,0-5.729-5.7037-5.73H113.61v11.4837Z" style="fill:#fff"/><path d="M132.56,779.872a7.6257,7.6257,0,0,1-3.03-3.1946,11.602,11.602,0,0,1,0-9.71,7.5488,7.5488,0,0,1,3.03-3.1814,10.147,10.147,0,0,1,9.2526,0,7.5431,7.5431,0,0,1,3.03,3.1814,11.602,11.602,0,0,1,0,9.71,7.62,7.62,0,0,1-3.03,3.1946,10.0478,10.0478,0,0,1-9.2526,0Zm8.1376-3.5117a8.6936,8.6936,0,0,0,.0124-9.0632,4.7481,4.7481,0,0,0-7.035,0,8.7719,8.7719,0,0,0,.0124,9.0632,4.6935,4.6935,0,0,0,7.01,0Z" style="fill:#fff"/><path d="M167.7608,762.8989h3.7013v17.873h-2.9414l-8.8984-11.3828v11.3828h-3.6756v-17.873h2.9157l8.8984,11.3322Z" style="fill:#fff"/><path d="M178.5732,779.872a7.6259,7.6259,0,0,1-3.03-3.1946,11.603,11.603,0,0,1,0-9.71,7.5491,7.5491,0,0,1,3.03-3.1814,10.147,10.147,0,0,1,9.2526,0,7.5431,7.5431,0,0,1,3.03,3.1814,11.603,11.603,0,0,1,0,9.71,7.62,7.62,0,0,1-3.03,3.1946,10.0478,10.0478,0,0,1-9.2526,0Zm8.1376-3.5117a8.6936,8.6936,0,0,0,.0124-9.0632,4.7481,4.7481,0,0,0-7.035,0,8.7719,8.7719,0,0,0,.0124,9.0632,4.6935,4.6935,0,0,0,7.01,0Z" style="fill:#fff"/><path d="M198.0307,780.7719V766.1183h-5.6028v-3.2194h15.16v3.2194h-5.6028v14.6536Z" style="fill:#fff"/><path d="M219.046,780.4548a9.2215,9.2215,0,0,1-3.1176-1.5083l1.2674-2.8138a9.9258,9.9258,0,0,0,5.8057,1.8,4.9987,4.9987,0,0,0,2.5729-.5447,1.6858,1.6858,0,0,0,.9-1.5083,1.49,1.49,0,0,0-.8237-1.3445,11.075,11.075,0,0,0-2.928-.9379,16.2181,16.2181,0,0,1-3.7651-1.1656,4.9123,4.9123,0,0,1-2.0529-1.6863,4.4615,4.4615,0,0,1-.6466-2.472,4.8714,4.8714,0,0,1,.9-2.89,6.0011,6.0011,0,0,1,2.5224-1.99,9.14,9.14,0,0,1,3.7517-.7228,12.0856,12.0856,0,0,1,3.6641.558,7.5323,7.5323,0,0,1,2.8014,1.4959l-1.2683,2.8138a8.6217,8.6217,0,0,0-5.1715-1.8,4.3208,4.3208,0,0,0-2.4339.5961,1.8692,1.8692,0,0,0-.8874,1.635,1.4684,1.4684,0,0,0,.3428,1.0017,2.8388,2.8388,0,0,0,1.1407.697,17.3122,17.3122,0,0,0,2.2691.6332,12.6254,12.6254,0,0,1,4.9563,1.9521,3.97,3.97,0,0,1,1.5083,3.2956,4.7151,4.7151,0,0,1-1.952,3.9936A8.9472,8.9472,0,0,1,222.951,781,13.914,13.914,0,0,1,219.046,780.4548Z" style="fill:#fff"/><path d="M245.2851,762.8989h3.8784v17.873h-3.8784v-7.5044h-8.2394v7.5044h-3.8794v-17.873h3.8794v7.2253h8.2394Z" style="fill:#fff"/><path d="M266.3271,780.7719l-1.6987-3.9546h-8.3157l-1.6987,3.9546h-3.98l8.2147-17.873h3.169l8.2138,17.873Zm-8.7213-6.9464h5.73l-2.8652-6.6931Z" style="fill:#fff"/><path d="M287.2167,780.7719h-4.31l-3.0928-5.7038a2.4217,2.4217,0,0,0-.9131-.9512,2.7758,2.7758,0,0,0-1.3436-.2914h-1.952v6.9464h-3.9041v-17.873h8.2138a7.1234,7.1234,0,0,1,4.7534,1.3816,4.9739,4.9739,0,0,1,1.61,3.9926,5.1619,5.1619,0,0,1-1.1284,3.3975,5.4,5.4,0,0,1-3.1813,1.8,3.9227,3.9227,0,0,1,2.3577,2.0035Zm-5.4257-10.5334a2.6774,2.6774,0,0,0,0-3.7393,4.0794,4.0794,0,0,0-2.4586-.5837H275.555v4.9181h3.7774A4.0121,4.0121,0,0,0,281.791,770.2385Z" style="fill:#fff"/><path d="M289.4468,780.7719v-17.873h12.3216v3.068H293.3v4.183h7.96v3.0671H293.3v4.4868h8.468v3.0681Z" style="fill:#fff"/><path d="M315.6346,780.7719V766.1183h-5.6029v-3.2194h15.16v3.2194h-5.6028v14.6536Z" style="fill:#fff"/><path d="M339.3637,762.8989h3.8793v17.873h-3.8793v-7.5044h-8.24v7.5044h-3.8784v-17.873h3.8784v7.2253h8.24Z" style="fill:#fff"/><path d="M346.7662,780.7719v-17.873h3.9555v17.873Z" style="fill:#fff"/><path d="M356.6025,780.4548a9.221,9.221,0,0,1-3.1175-1.5083l1.2674-2.8138a9.9255,9.9255,0,0,0,5.8056,1.8,4.9987,4.9987,0,0,0,2.5729-.5447,1.6856,1.6856,0,0,0,.9-1.5083,1.4906,1.4906,0,0,0-.8236-1.3445,11.0774,11.0774,0,0,0-2.9281-.9379,16.2155,16.2155,0,0,1-3.765-1.1656,4.912,4.912,0,0,1-2.053-1.6863,4.4615,4.4615,0,0,1-.6466-2.472,4.8714,4.8714,0,0,1,.9-2.89,6.0017,6.0017,0,0,1,2.5224-1.99,9.14,9.14,0,0,1,3.7517-.7228,12.0856,12.0856,0,0,1,3.6641.558,7.5323,7.5323,0,0,1,2.8014,1.4959l-1.2683,2.8138a8.6215,8.6215,0,0,0-5.1715-1.8,4.32,4.32,0,0,0-2.4338.5961,1.869,1.869,0,0,0-.8875,1.635,1.4689,1.4689,0,0,0,.3428,1.0017,2.84,2.84,0,0,0,1.1407.697,17.31,17.31,0,0,0,2.2692.6332,12.6248,12.6248,0,0,1,4.9562,1.9521,3.97,3.97,0,0,1,1.5083,3.2956,4.7151,4.7151,0,0,1-1.952,3.9936A8.9472,8.9472,0,0,1,360.5075,781,13.914,13.914,0,0,1,356.6025,780.4548Z" style="fill:#fff"/><path d="M400.0548,762.8989h3.7517l-6.3627,17.873h-3.1689l-4.1326-11.8389-4.1831,11.8389H382.79l-6.3379-17.873h4.006l4.0812,12.3463,4.3354-12.3463h2.7633l4.1831,12.473Z" style="fill:#fff"/><path d="M406.0118,780.7719v-17.873h3.9555v17.873Z" style="fill:#fff"/><path d="M417.6231,780.7719V766.1183H412.02v-3.2194h15.16v3.2194h-5.6029v14.6536Z" style="fill:#fff"/><path d="M441.3522,762.8989h3.8784v17.873h-3.8784v-7.5044h-8.2395v7.5044h-3.8793v-17.873h3.8793v7.2253h8.2395Z" style="fill:#fff"/><path d="M469.4415,780.7719l-1.6978-3.9546h-8.3156l-1.6988,3.9546h-3.98l8.2138-17.873h3.1689l8.2138,17.873Zm-8.72-6.9464h5.7294l-2.8652-6.6931Z" style="fill:#fff"/><path d="M486.63,762.8989h3.7022v17.873h-2.9414l-8.8984-11.3828v11.3828h-3.6755v-17.873h2.9147l8.8984,11.3322Z" style="fill:#fff"/><path d="M509.522,762.8989l-7.4025,9.7858v8.0872H498.165v-8.0872l-7.3777-9.7858h4.4877l4.842,6.6169,4.9182-6.6169Z" style="fill:#fff"/><path d="M512.5263,779.872a7.6259,7.6259,0,0,1-3.03-3.1946,11.602,11.602,0,0,1,0-9.71,7.5491,7.5491,0,0,1,3.03-3.1814,10.1489,10.1489,0,0,1,9.2535,0,7.5468,7.5468,0,0,1,3.029,3.1814,11.5921,11.5921,0,0,1,0,9.71,7.6237,7.6237,0,0,1-3.029,3.1946,10.05,10.05,0,0,1-9.2535,0Zm8.1376-3.5117a8.6962,8.6962,0,0,0,.0133-9.0632,4.7491,4.7491,0,0,0-7.0359,0,8.7746,8.7746,0,0,0,.0133,9.0632,4.6925,4.6925,0,0,0,7.0093,0Z" style="fill:#fff"/><path d="M540.6784,762.8989h3.7022v17.873h-2.9414l-8.8984-11.3828v11.3828h-3.6755v-17.873H531.78l8.8984,11.3322Z" style="fill:#fff"/><path d="M547.9047,780.7719v-17.873h12.3207v3.068h-8.4671v4.183h7.96v3.0671h-7.96v4.4868h8.4671v3.0681Z" style="fill:#fff"/><path d="M570.3141,774.9919l-1.1912-12.1188,4.7153.0258-1.2169,12.093Zm-.8865,1.7235h4.1069v4.0565h-4.1069Z" style="fill:#fff"/></g></g><g id="PUBLIC-ADDRESS" style="isolation:isolate"><g style="isolation:isolate"><path d="M3204.2129,201.05h12.96a10.2857,10.2857,0,0,1,7.16,2.32,9.48,9.48,0,0,1,0,12.96,10.2809,10.2809,0,0,1-7.16,2.32h-6.72v10.6h-6.24Zm12.16,12.88q4.68,0,4.6807-4.04a3.8541,3.8541,0,0,0-1.16-3.08,5.2888,5.2888,0,0,0-3.5206-1h-5.92v8.12Z" style="fill:#fff"/><path d="M3233.834,226.55q-3.1011-3.06-3.1006-8.9394V201.05h6.12v16.84a7.55,7.55,0,0,0,1.54,5.12,6.5312,6.5312,0,0,0,8.94-.02,7.5085,7.5085,0,0,0,1.56-5.1006V201.05h6.12v16.5606q0,5.84-3.12,8.92t-9.04,3.08Q3236.9325,229.6108,3233.834,226.55Z" style="fill:#fff"/><path d="M3282.3135,217.1508a7.0775,7.0775,0,0,1,1.34,4.38,6.8193,6.8193,0,0,1-2.62,5.64,11.3223,11.3223,0,0,1-7.22,2.08h-13.4v-28.2h13a11.2754,11.2754,0,0,1,6.9795,1.96,6.3654,6.3654,0,0,1,2.58,5.36,6.4951,6.4951,0,0,1-1.18,3.86,6.7082,6.7082,0,0,1-3.26,2.42A7.0716,7.0716,0,0,1,3282.3135,217.1508Zm-15.82-4.62h5.88a6.11,6.11,0,0,0,3.54-.82,2.8737,2.8737,0,0,0,1.14-2.5,2.9629,2.9629,0,0,0-1.14-2.58,6.1169,6.1169,0,0,0-3.54-.82h-5.88Zm10.2,11.12a3.1818,3.1818,0,0,0,1.12-2.7207,3.2963,3.2963,0,0,0-1.12-2.76,5.8615,5.8615,0,0,0-3.6006-.88h-6.6v7.2h6.6A6.0737,6.0737,0,0,0,3276.6934,223.6508Z" style="fill:#fff"/><path d="M3287.9326,229.25v-28.2h6.24v23.12h12.6005v5.08Z" style="fill:#fff"/><path d="M3310.4121,229.25v-28.2h6.24v28.2Z" style="fill:#fff"/><path d="M3327.9922,227.81a12.1078,12.1078,0,0,1-4.88-5.0791,17.8368,17.8368,0,0,1,0-15.2,11.9952,11.9952,0,0,1,4.88-5.0606,15.0372,15.0372,0,0,1,7.46-1.7793,16.7271,16.7271,0,0,1,5.36.8594,11.4693,11.4693,0,0,1,4.2,2.38l-2,4.44a13.4874,13.4874,0,0,0-3.66-2.04,11.3117,11.3117,0,0,0-3.78-.64,7.1345,7.1345,0,0,0-5.78,2.3994q-2.02,2.4009-2.0195,7.04t2.0195,7.06a7.106,7.106,0,0,0,5.78,2.42,11.3126,11.3126,0,0,0,3.78-.6407,13.4633,13.4633,0,0,0,3.66-2.04l2,4.44a11.441,11.441,0,0,1-4.2,2.38,16.7277,16.7277,0,0,1-5.36.86A14.8891,14.8891,0,0,1,3327.9922,227.81Z" style="fill:#fff"/><path d="M3381.9316,229.25l-2.68-6.24h-13.12l-2.6806,6.24h-6.2793l12.96-28.2h5l12.96,28.2Zm-13.76-10.96h9.04l-4.52-10.56Z" style="fill:#fff"/><path d="M3390.4111,201.05h10.96a17.3553,17.3553,0,0,1,7.92,1.6807,11.7309,11.7309,0,0,1,5.08,4.84,15.3136,15.3136,0,0,1,1.76,7.56,15.5651,15.5651,0,0,1-1.74,7.58,11.5784,11.5784,0,0,1-5.06,4.86,17.4529,17.4529,0,0,1-7.96,1.68h-10.96Zm10.52,23.16q9,0,9-9.08,0-9.04-9-9.04h-4.2793v18.12Z" style="fill:#fff"/><path d="M3420.8906,201.05h10.96a17.3553,17.3553,0,0,1,7.92,1.6807,11.7309,11.7309,0,0,1,5.08,4.84,15.3136,15.3136,0,0,1,1.76,7.56,15.5651,15.5651,0,0,1-1.74,7.58,11.5781,11.5781,0,0,1-5.06,4.86,17.4522,17.4522,0,0,1-7.96,1.68h-10.96Zm10.52,23.16q9,0,9-9.08,0-9.04-9-9.04h-4.2793v18.12Z" style="fill:#fff"/><path d="M3475.85,229.25h-6.8l-4.88-9a3.8167,3.8167,0,0,0-1.4394-1.5,4.3829,4.3829,0,0,0-2.12-.46h-3.08v10.96h-6.16v-28.2h12.96q4.96,0,7.5,2.1807a7.8466,7.8466,0,0,1,2.54,6.3,8.1453,8.1453,0,0,1-1.78,5.3593,8.5162,8.5162,0,0,1-5.02,2.8409,6.186,6.186,0,0,1,3.72,3.1591Zm-8.56-16.62a4.2248,4.2248,0,0,0,0-5.8994,6.4383,6.4383,0,0,0-3.88-.9209h-5.96v7.7607h5.96A6.3309,6.3309,0,0,0,3467.29,212.63Z" style="fill:#fff"/><path d="M3479.3691,229.25v-28.2H3498.81v4.84h-13.36v6.6006H3498.01v4.84h-12.5606v7.08h13.36v4.84Z" style="fill:#fff"/><path d="M3506.3691,228.75a14.5778,14.5778,0,0,1-4.92-2.38l2-4.44a15.651,15.651,0,0,0,9.16,2.84,7.8932,7.8932,0,0,0,4.06-.8593,2.66,2.66,0,0,0,1.4209-2.38,2.3526,2.3526,0,0,0-1.3007-2.12,17.3686,17.3686,0,0,0-4.62-1.48,25.5621,25.5621,0,0,1-5.9394-1.84,7.7492,7.7492,0,0,1-3.24-2.66,7.0446,7.0446,0,0,1-1.02-3.8994,7.6821,7.6821,0,0,1,1.42-4.5606,9.4578,9.4578,0,0,1,3.9795-3.14,14.4328,14.4328,0,0,1,5.92-1.14,19.0322,19.0322,0,0,1,5.78.88,11.8563,11.8563,0,0,1,4.42,2.3594l-2,4.44a13.6041,13.6041,0,0,0-8.16-2.84,6.8208,6.8208,0,0,0-3.84.9394,2.9494,2.9494,0,0,0-1.3995,2.58,2.32,2.32,0,0,0,.5391,1.58,4.4893,4.4893,0,0,0,1.8008,1.1006,27.6011,27.6011,0,0,0,3.58,1q5.4389,1.2,7.8193,3.0791a6.26,6.26,0,0,1,2.38,5.2,7.4332,7.4332,0,0,1-3.08,6.3q-3.0806,2.3012-8.6,2.3008A21.9725,21.9725,0,0,1,3506.3691,228.75Z" style="fill:#fff"/><path d="M3532.3691,228.75a14.5685,14.5685,0,0,1-4.92-2.38l2-4.44a15.6479,15.6479,0,0,0,9.1592,2.84,7.9,7.9,0,0,0,4.0605-.8593,2.6587,2.6587,0,0,0,1.42-2.38,2.3517,2.3517,0,0,0-1.3-2.12,17.3947,17.3947,0,0,0-4.62-1.48,25.5722,25.5722,0,0,1-5.94-1.84,7.7521,7.7521,0,0,1-3.2392-2.66,7.0365,7.0365,0,0,1-1.0205-3.8994,7.6883,7.6883,0,0,1,1.42-4.5606,9.4606,9.4606,0,0,1,3.98-3.14,14.43,14.43,0,0,1,5.92-1.14,19.0269,19.0269,0,0,1,5.7793.88,11.8566,11.8566,0,0,1,4.42,2.3594l-2,4.44a13.6032,13.6032,0,0,0-8.1592-2.84,6.8243,6.8243,0,0,0-3.8408.9394,2.9494,2.9494,0,0,0-1.3994,2.58,2.32,2.32,0,0,0,.539,1.58,4.49,4.49,0,0,0,1.8008,1.1006,27.6057,27.6057,0,0,0,3.58,1q5.439,1.2,7.82,3.0791a6.2625,6.2625,0,0,1,2.38,5.2,7.4357,7.4357,0,0,1-3.08,6.3q-3.0806,2.3012-8.6006,2.3008A21.96,21.96,0,0,1,3532.3691,228.75Z" style="fill:#fff"/></g></g><rect y="-0.0448" width="1599.9899" height="150.02" style="fill:#fff"/><rect y="849.98" width="1599.9899" height="150.02" style="fill:#fff"/><path d="M1599.9879-.0458v150.02H-.0424v700.05h1600.03v150.01h2100.05V-.0458Zm2089.25,989.28h-2078.45v-150.01H10.7579V160.774h1600.03V10.754h2078.45Z" style="fill:#2020b5"/><path d="M3180.8065,0h392.809a0,0,0,0,1,0,0V107.6573a14.4,14.4,0,0,1-14.4,14.4h-364.009a14.4,14.4,0,0,1-14.4-14.4V0A0,0,0,0,1,3180.8065,0Z" style="fill:#2020b5"/><path d="M3396.8088,31.7243h11.1461a10.1036,10.1036,0,0,1,6.8914,2.1573,7.7024,7.7024,0,0,1,2.4568,6.1124,7.7948,7.7948,0,0,1-2.4769,6.1523,9.9966,9.9966,0,0,1-6.8713,2.1973h-7.87V59.8892h-3.2759Zm10.8264,13.9027q6.4321,0,6.4321-5.633,0-5.5532-6.4321-5.5531h-7.5505V45.627ZM3444.11,59.8892l-3.1162-7.231H3426.292l-3.1162,7.231H3419.82l12.3844-28.1649h2.8367l12.3844,28.1649Zm-16.6592-9.9476h12.3844l-6.1921-14.422Zm24.17-18.2173h11.1462a10.1033,10.1033,0,0,1,6.8913,2.1573,7.7022,7.7022,0,0,1,2.4569,6.1124,7.7951,7.7951,0,0,1-2.4769,6.1523,9.9966,9.9966,0,0,1-6.8713,2.1973h-7.87V59.8892h-3.276Zm10.8265,13.9027q6.4322,0,6.432-5.633,0-5.5532-6.432-5.5531h-7.55V45.627Zm14.9413,14.2622V31.7243h17.8178v2.7166h-14.5817v9.7878h13.7827v2.7166h-13.7827V57.1726h14.5817v2.7166Zm45.4234,0h-3.5954l-4.7941-9.0287a5.21,5.21,0,0,0-2.0574-2.2572,6.9726,6.9726,0,0,0-3.216-.6193h-5.2734V59.8892h-3.2361V31.7243h11.5856q4.5942,0,7.0112,2.0375a7.3962,7.3962,0,0,1,2.4172,5.9925,7.5064,7.5064,0,0,1-1.8578,5.2934,8.6929,8.6929,0,0,1-5.2933,2.5368,4.7307,4.7307,0,0,1,1.8975,1.0787,7.6255,7.6255,0,0,1,1.4983,2.0375Zm-10.8664-14.6218a7.477,7.477,0,0,0,4.8939-1.3583,5.0694,5.0694,0,0,0,1.6179-4.1149,4.9289,4.9289,0,0,0-1.5978-4.0349,7.6271,7.6271,0,0,0-4.914-1.3184h-8.07V45.2674Zm-88.4176,23.4839h4.5573L3420.356,90.46h-3.849l-5.0191-14.38-5.0809,14.38h-3.849L3394.86,68.7513h4.8653l4.9576,14.996,5.2655-14.996h3.3564l5.0806,15.15ZM3447.3612,90.46l-2.0633-4.8036h-10.1l-2.0631,4.8036h-4.8344l9.9767-21.7087h3.8491l9.9769,21.7087Zm-10.5926-8.4371h6.9589l-3.48-8.1292ZM3453.92,90.46V68.7513h4.8038V86.5494h9.7V90.46Zm17.3362,0V68.7513h4.8038V86.5494h9.7V90.46Zm17.3362,0V68.7513h14.9652v3.7259h-10.2847V77.558h9.6688v3.7259h-9.6688v5.45h10.2847V90.46Zm23.2792,0V72.662h-6.8051V68.7513H3523.48V72.662h-6.8053V90.46Z" style="fill:#fff"/><path d="M3234.0839,91.8191a10.932,10.932,0,1,1,11.05-10.9312A11.0034,11.0034,0,0,1,3234.0839,91.8191Zm85.9015-.0635a10.9323,10.9323,0,1,1,0-21.8633c7.8621,0,10.3856-2.4947,10.3856-10.2671a11.0035,11.0035,0,0,1,11.05-10.9316c7.8616,0,10.3851-2.4952,10.3851-10.2676a11.05,11.05,0,1,1,11.05,10.9317c-7.8621,0-10.3856,2.4951-10.3856,10.2675a11.0031,11.0031,0,0,1-11.0492,10.9312c-7.8621,0-10.3856,2.4951-10.3856,10.2676A11.0035,11.0035,0,0,1,3319.9854,91.7556Zm-21.5317-21.1672a11.0035,11.0035,0,0,1-11.05-10.9317c0-7.7724-2.5235-10.267-10.3856-10.267s-10.3851,2.4946-10.3851,10.267a11.05,11.05,0,1,1-11.05-10.9312c7.8621,0,10.3856-2.4951,10.3856-10.2675a11.05,11.05,0,0,1,22.0989,0c0,7.7724,2.5235,10.2675,10.3856,10.2675a10.9321,10.9321,0,1,1,0,21.8629Z" style="fill:#fff"/><path d="M3141.0706,891.9841H3613.8a14.4,14.4,0,0,1,14.4,14.4V1000a0,0,0,0,1,0,0H3126.6706a0,0,0,0,1,0,0V906.3841a14.4,14.4,0,0,1,14.4-14.4Z" style="fill:#2020b5"/><path id="nanopaperwallet.com" d="M3171.6414,933.6643q3.8989,0,5.8041,2.2153t1.9051,6.69v13.2918h-5.5383V942.88a5.7453,5.7453,0,0,0-.9525-3.6774,3.6609,3.6609,0,0,0-2.9906-1.1519,5.0548,5.0548,0,0,0-3.8325,1.5064,5.5911,5.5911,0,0,0-1.44,4.0319v12.2727h-5.5382V934.1959h5.4052V937.43a7.4923,7.4923,0,0,1,2.9685-2.7913A8.934,8.934,0,0,1,3171.6414,933.6643Zm22.562,0q4.5636,0,6.7789,2.2153t2.2153,6.8231v13.1589h-5.2725v-3.323a5.7813,5.7813,0,0,1-2.37,2.7026,7.11,7.11,0,0,1-3.744.9748,8.6931,8.6931,0,0,1-3.9431-.8861,7.0158,7.0158,0,0,1-2.7914-2.4368,6.1581,6.1581,0,0,1-1.019-3.4559,5.4743,5.4743,0,0,1,1.2184-3.766,7.3232,7.3232,0,0,1,3.9655-1.9938,36.1108,36.1108,0,0,1,7.5761-.62h1.1077v-1.019a4.4527,4.4527,0,0,0-.9526-3.19,4.3034,4.3034,0,0,0-3.1678-.9747,11.9152,11.9152,0,0,0-3.6109.5982,18.2534,18.2534,0,0,0-3.7,1.6615l-1.5507-3.81a18.9934,18.9934,0,0,1,9.26-2.6583Zm-1.2848,18.5642a4.7324,4.7324,0,0,0,3.6109-1.4843,5.3688,5.3688,0,0,0,1.3956-3.8324v-.93h-.7975a30.551,30.551,0,0,0-4.6077.2659,4.4737,4.4737,0,0,0-2.3484.93,2.37,2.37,0,0,0-.7087,1.8165,3.0378,3.0378,0,0,0,.9746,2.3261A3.4961,3.4961,0,0,0,3192.9186,952.2285Zm28.41-18.5642q3.8989,0,5.8041,2.2153t1.905,6.69v13.2918H3223.5V942.88a5.7453,5.7453,0,0,0-.9525-3.6774,3.6608,3.6608,0,0,0-2.9907-1.1519,5.0547,5.0547,0,0,0-3.8324,1.5064,5.5911,5.5911,0,0,0-1.44,4.0319v12.2727h-5.5383V934.1959h5.4052V937.43a7.4945,7.4945,0,0,1,2.9686-2.7913A8.9337,8.9337,0,0,1,3221.3291,933.6643Zm23.1381,22.5517a11.9212,11.9212,0,0,1-5.8262-1.3735,9.5029,9.5029,0,0,1-3.8768-3.9432,12.5013,12.5013,0,0,1-1.3735-5.9813,12.3711,12.3711,0,0,1,1.3735-5.9592,9.5345,9.5345,0,0,1,3.8768-3.921,13.0437,13.0437,0,0,1,11.6524,0,9.3984,9.3984,0,0,1,3.8547,3.921,12.5384,12.5384,0,0,1,1.3512,5.9592,12.6707,12.6707,0,0,1-1.3512,5.9813,9.3685,9.3685,0,0,1-3.8547,3.9432A11.9214,11.9214,0,0,1,3244.4672,956.216Zm-.0444-4.2977a4.9645,4.9645,0,0,0,4.12-1.7723,10.3064,10.3064,0,0,0,0-10.4339,4.888,4.888,0,0,0-4.076-1.7944,4.9511,4.9511,0,0,0-4.0983,1.7944,10.2389,10.2389,0,0,0-.0223,10.4339A4.9147,4.9147,0,0,0,3244.4228,951.9183Zm28.0118-18.254a8.9807,8.9807,0,0,1,4.9844,1.4177,9.4019,9.4019,0,0,1,3.4114,4.01,13.855,13.855,0,0,1,1.2184,5.9592,13.4154,13.4154,0,0,1-1.2184,5.8927,8.9438,8.9438,0,0,1-8.3958,5.2724,8.576,8.576,0,0,1-4.1206-.9748,6.84,6.84,0,0,1-2.7912-2.7026v11.298h-5.5382V934.1959h5.45v3.2787a6.7969,6.7969,0,0,1,2.8134-2.8134A8.6426,8.6426,0,0,1,3272.4346,933.6643Zm-1.4622,18.254a4.9658,4.9658,0,0,0,4.0762-1.7943,7.8341,7.8341,0,0,0,1.462-5.0731,8.2769,8.2769,0,0,0-1.462-5.228,5.462,5.462,0,0,0-8.1745-.0444,9.9714,9.9714,0,0,0,0,10.3233A4.9259,4.9259,0,0,0,3270.9724,951.9183Zm24.866-18.254q4.5635,0,6.7789,2.2153t2.2153,6.8231v13.1589H3299.56v-3.323a5.7828,5.7828,0,0,1-2.37,2.7026,7.11,7.11,0,0,1-3.744.9748,8.6938,8.6938,0,0,1-3.9432-.8861,7.0156,7.0156,0,0,1-2.7911-2.4368,6.1559,6.1559,0,0,1-1.0192-3.4559,5.4743,5.4743,0,0,1,1.2184-3.766,7.324,7.324,0,0,1,3.9655-1.9938,36.1116,36.1116,0,0,1,7.5763-.62h1.1077v-1.019a4.4527,4.4527,0,0,0-.9528-3.19,4.3034,4.3034,0,0,0-3.1678-.9747,11.9162,11.9162,0,0,0-3.6109.5982,18.2534,18.2534,0,0,0-3.7,1.6615l-1.5507-3.81a18.9926,18.9926,0,0,1,9.26-2.6583Zm-1.2848,18.5642a4.7321,4.7321,0,0,0,3.6109-1.4843,5.3689,5.3689,0,0,0,1.3958-3.8324v-.93h-.7977a30.551,30.551,0,0,0-4.6077.2659,4.4722,4.4722,0,0,0-2.3482.93,2.3687,2.3687,0,0,0-.7089,1.8165,3.0384,3.0384,0,0,0,.9746,2.3261A3.4961,3.4961,0,0,0,3294.5536,952.2285Zm28.2776-18.5642a8.9807,8.9807,0,0,1,4.9844,1.4177,9.4019,9.4019,0,0,1,3.4114,4.01,13.855,13.855,0,0,1,1.2185,5.9592,13.4154,13.4154,0,0,1-1.2185,5.8927,8.9438,8.9438,0,0,1-8.3958,5.2724,8.576,8.576,0,0,1-4.1206-.9748,6.8389,6.8389,0,0,1-2.7911-2.7026v11.298h-5.5383V934.1959h5.45v3.2787a6.7974,6.7974,0,0,1,2.8134-2.8134A8.6426,8.6426,0,0,1,3322.8312,933.6643Zm-1.4622,18.254a4.9658,4.9658,0,0,0,4.0762-1.7943,7.8341,7.8341,0,0,0,1.462-5.0731,8.2769,8.2769,0,0,0-1.462-5.228,5.462,5.462,0,0,0-8.1745-.0444,9.9714,9.9714,0,0,0,0,10.3233A4.926,4.926,0,0,0,3321.369,951.9183Zm34.5692-5.8926h-14.754a6.7361,6.7361,0,0,0,1.8166,4.4748,6.214,6.214,0,0,0,4.4305,1.4621,10.4469,10.4469,0,0,0,6.5572-2.3039l1.5951,3.81a11.63,11.63,0,0,1-3.7881,1.9937,14.5458,14.5458,0,0,1-4.5857.7533,11.4886,11.4886,0,0,1-8.396-3.0128,11,11,0,0,1-3.0792-8.2409,12.6435,12.6435,0,0,1,1.3292-5.8927,9.6657,9.6657,0,0,1,3.7437-3.9876,10.6039,10.6039,0,0,1,5.4719-1.4177,9.0288,9.0288,0,0,1,7.0668,2.88q2.5918,2.88,2.592,7.9308Zm-9.5258-8.4625a4.7,4.7,0,0,0-3.5668,1.4178,6.8957,6.8957,0,0,0-1.6614,4.0761h10.0131a6.3172,6.3172,0,0,0-1.3291-4.0983A4.384,4.384,0,0,0,3346.4124,937.5632Zm28.2331.7089-3.2343.31q-5.4938.576-5.4938,5.5824v11.6969h-5.5383V934.1959h5.2724v3.81q1.6834-3.899,6.9561-4.2534l1.6835-.1329Zm33.1956-4.0762h5.4052l-8.5066,21.6657H3399.91l-5.3167-13.9564-5.1839,13.9564h-4.7849l-8.5512-21.6657h5.6713l5.5383,15.064,5.5382-15.064h3.9875l5.5382,15.1527Zm17.6-.5316q4.5636,0,6.7789,2.2153t2.2153,6.8231v13.1589h-5.2723v-3.323a5.7817,5.7817,0,0,1-2.37,2.7026,7.11,7.11,0,0,1-3.744.9748,8.6931,8.6931,0,0,1-3.9431-.8861,7.0152,7.0152,0,0,1-2.7912-2.4368,6.1567,6.1567,0,0,1-1.0192-3.4559,5.4753,5.4753,0,0,1,1.2184-3.766,7.324,7.324,0,0,1,3.9655-1.9938,36.1116,36.1116,0,0,1,7.5763-.62h1.1077v-1.019a4.4527,4.4527,0,0,0-.9528-3.19,4.3034,4.3034,0,0,0-3.1678-.9747,11.9162,11.9162,0,0,0-3.6109.5982,18.2534,18.2534,0,0,0-3.7,1.6615l-1.5507-3.81a18.9934,18.9934,0,0,1,9.26-2.6583Zm-1.2848,18.5642a4.7321,4.7321,0,0,0,3.6109-1.4843,5.3689,5.3689,0,0,0,1.3958-3.8324v-.93h-.7977a30.5528,30.5528,0,0,0-4.6077.2659,4.4722,4.4722,0,0,0-2.3482.93,2.3687,2.3687,0,0,0-.7089,1.8165,3.0384,3.0384,0,0,0,.9746,2.3261A3.4961,3.4961,0,0,0,3424.156,952.2285Zm15.8276,3.6331V924.6259h5.5383v31.2357Zm11.1756,0V924.6259h5.5382v31.2357Zm30.1827-9.8359h-14.754a6.738,6.738,0,0,0,1.8166,4.4748,6.2146,6.2146,0,0,0,4.4306,1.4621,10.4477,10.4477,0,0,0,6.5574-2.3039l1.5948,3.81a11.6278,11.6278,0,0,1-3.788,1.9937,14.5453,14.5453,0,0,1-4.5857.7533,11.4884,11.4884,0,0,1-8.3959-3.0128,11,11,0,0,1-3.0793-8.2409,12.6422,12.6422,0,0,1,1.3292-5.8927,9.6655,9.6655,0,0,1,3.7439-3.9876,10.6036,10.6036,0,0,1,5.4716-1.4177,9.0286,9.0286,0,0,1,7.0669,2.88q2.5917,2.88,2.5919,7.9308Zm-9.5258-8.4625a4.7,4.7,0,0,0-3.5667,1.4178,6.8957,6.8957,0,0,0-1.6615,4.0761h10.0132a6.3172,6.3172,0,0,0-1.3292-4.0983A4.3835,4.3835,0,0,0,3471.8161,937.5632Zm24.733,14.488a16.4287,16.4287,0,0,0,2.0381-.1329l-.2659,4.12q-1.3292.1329-2.4368.133-4.5635,0-6.7343-2.1046t-2.171-6.2692v-9.4372h-4.1649v-4.1648h4.1649v-6.4686h5.5382v6.4686h5.7155v4.1648h-5.7155v9.3485Q3492.5174,952.0513,3496.5491,952.0512Zm5.593-2.3039h6.2028v6.1143h-6.2028Zm20.7013,6.4687a12.1138,12.1138,0,0,1-5.9149-1.3735,9.2918,9.2918,0,0,1-3.8324-3.8989,13.5708,13.5708,0,0,1,.0664-11.8519,9.786,9.786,0,0,1,3.9655-4.01,12.09,12.09,0,0,1,5.9369-1.4177,14.1284,14.1284,0,0,1,4.497.7311,9.4712,9.4712,0,0,1,3.5224,1.9716l-1.5951,3.8989a10.528,10.528,0,0,0-2.9019-1.6836,8.5612,8.5612,0,0,0-3.035-.576,5.6744,5.6744,0,0,0-4.4749,1.7944,9.0771,9.0771,0,0,0,0,10.2789,5.6748,5.6748,0,0,0,4.4749,1.7944,8.5612,8.5612,0,0,0,3.035-.576,10.5305,10.5305,0,0,0,2.9019-1.6836l1.5951,3.8546a9.9889,9.9889,0,0,1-3.6332,2.0159A14.6058,14.6058,0,0,1,3522.8434,956.216Zm21.543,0a11.9208,11.9208,0,0,1-5.8261-1.3735,9.5047,9.5047,0,0,1-3.8768-3.9432,12.5,12.5,0,0,1-1.3735-5.9813,12.37,12.37,0,0,1,1.3735-5.9592,9.5363,9.5363,0,0,1,3.8768-3.921,13.0435,13.0435,0,0,1,11.6523,0,9.3949,9.3949,0,0,1,3.8547,3.921,12.5384,12.5384,0,0,1,1.3513,5.9592,12.6707,12.6707,0,0,1-1.3513,5.9813,9.365,9.365,0,0,1-3.8547,3.9432A11.9212,11.9212,0,0,1,3544.3864,956.216Zm-.0443-4.2977a4.9649,4.9649,0,0,0,4.1206-1.7723,10.3083,10.3083,0,0,0,0-10.4339,4.8885,4.8885,0,0,0-4.0763-1.7944,4.9515,4.9515,0,0,0-4.0983,1.7944,10.238,10.238,0,0,0-.022,10.4339A4.9143,4.9143,0,0,0,3544.3421,951.9183Zm41.3035-18.254a6.7223,6.7223,0,0,1,5.4939,2.1931q1.8166,2.1931,1.8166,6.7124v13.2918h-5.5383v-13.07a6.1086,6.1086,0,0,0-.8417-3.611,3.1489,3.1489,0,0,0-2.7027-1.13,4.23,4.23,0,0,0-3.4558,1.5064,6.4424,6.4424,0,0,0-1.2407,4.209v12.0956h-5.5382v-13.07a6.2394,6.2394,0,0,0-.82-3.611,3.14,3.14,0,0,0-2.725-1.13,4.18,4.18,0,0,0-3.4114,1.5064,6.4419,6.4419,0,0,0-1.2407,4.209v12.0956h-5.5382V934.1959h5.4054v3.0572a6.4758,6.4758,0,0,1,2.7027-2.6805,8.3462,8.3462,0,0,1,3.9431-.9083q4.9179,0,6.5131,4.0761a7.4,7.4,0,0,1,2.924-2.9907A8.44,8.44,0,0,1,3585.6456,933.6643Z" style="fill:#fff"/><path id="Rectangle" d="M113.11,260.3694H556.045a10.7323,10.7323,0,0,1,10.7323,10.7323V714.0371a10.7323,10.7323,0,0,1-10.7323,10.7323H113.11a10.7323,10.7323,0,0,1-10.7323-10.7323V271.1017A10.7323,10.7323,0,0,1,113.11,260.3694Z" style="fill:#fff"/><path id="Rectangle-2" data-name="Rectangle" d="M3155.2033,267.8h442.9354a10.7323,10.7323,0,0,1,10.7323,10.7323V721.4677A10.7323,10.7323,0,0,1,3598.1387,732.2H3155.2033a10.7323,10.7323,0,0,1-10.7323-10.7323V278.5323A10.7323,10.7323,0,0,1,3155.2033,267.8Z" style="fill:#fff"/></g></svg>