<svg id="Layer_1" data-name="Layer 1" xmlns="http://www.w3.org/2000/svg" viewBox="0 0 159.4224 159.4224"><title>QRlogoBlue</title><g id="Group-3"><circle id="Oval-4" cx="79.7112" cy="79.7112" r="79.711" style="fill:#fff"/><circle cx="79.7112" cy="79.7112" r="66.9573" style="fill:#2020b5"/><path d="M84.7869,79.4183a5.3769,5.3769,0,0,1-10.7534,0c0-3.996-1.3442-5.328-5.3767-5.328s-5.3767,1.332-5.3767,5.328a5.377,5.377,0,1,1-5.3767-5.328c4.0325,0,5.3767-1.332,5.3767-5.328a5.3769,5.3769,0,0,1,10.7534,0c0,3.996,1.3441,5.328,5.3767,5.328A5.3393,5.3393,0,0,1,84.7869,79.4183Zm-37.6694,16a5.3282,5.3282,0,1,1,5.3768-5.328A5.3526,5.3526,0,0,1,47.1175,95.4183Zm69.9782-26.6721a5.35,5.35,0,0,1-5.3767,5.328c-4.0325,0-5.3767,1.332-5.3767,5.328a5.35,5.35,0,0,1-5.3767,5.328c-4.0326,0-5.3767,1.332-5.3767,5.328a5.3769,5.3769,0,1,1-5.3767-5.328c4.0325,0,5.3767-1.332,5.3767-5.328a5.35,5.35,0,0,1,5.3767-5.328c4.0325,0,5.3767-1.332,5.3767-5.328a5.3769,5.3769,0,0,1,10.7534,0Z" style="fill:#fff"/></g></svg>