<svg xmlns="http://www.w3.org/2000/svg" viewBox="0 0 159.422 159.422"><circle cx="79.711" cy="79.711" r="79.711" fill="#fff"/><circle cx="79.711" cy="79.711" r="66.957"/><path d="M84.787 79.418a5.377 5.377 0 0 1-10.753 0c0-3.996-1.344-5.328-5.377-5.328s-5.377 1.332-5.377 5.328a5.377 5.377 0 1 1-5.377-5.328c4.032 0 5.377-1.332 5.377-5.328a5.377 5.377 0 0 1 10.753 0c0 3.996 1.344 5.328 5.377 5.328a5.339 5.339 0 0 1 5.377 5.328zm-37.67 16a5.328 5.328 0 1 1 5.377-5.328 5.353 5.353 0 0 1-5.377 5.328zm69.978-26.672a5.35 5.35 0 0 1-5.377 5.328c-4.032 0-5.377 1.332-5.377 5.328a5.35 5.35 0 0 1-5.377 5.328c-4.033 0-5.377 1.332-5.377 5.328a5.377 5.377 0 1 1-5.377-5.328c4.032 0 5.377-1.332 5.377-5.328a5.35 5.35 0 0 1 5.377-5.328c4.032 0 5.377-1.332 5.377-5.328a5.377 5.377 0 0 1 10.753 0z" fill="#fff"/></svg>